M48
;GenerationSoftware,Autodesk,EAGLE,9.2.0*%
;CreationDate,2018-12-04T09:06:00Z*%
FMAT,2
ICI,OFF
METRIC,TZ,000.000
T8C0.350
T7C0.400
T6C0.800
T5C0.813
T4C1.016
T3C1.048
T2C1.600
T1C4.100
%
G90
M71
T1
X6000Y194000
X78000Y194000
X6000Y6000
X78000Y6000
T2
X17185Y10160
X27345Y10160
X32345Y10160
X47665Y10160
X52665Y10160
X37505Y10160
X42505Y10160
X22185Y10160
X8890Y138708
X8890Y133708
X76200Y33060
X76200Y38060
T3
X43815Y20320
X23495Y55880
X31115Y20320
X33655Y20320
X36195Y20320
X38735Y20320
X43815Y55880
X41275Y55880
X38735Y55880
X36195Y55880
X33655Y55880
X31115Y55880
X26035Y20320
X28575Y55880
X26035Y55880
X20955Y55880
X41275Y20320
X28575Y20320
T4
X11303Y121920
X37021Y106680
X15240Y124460
X15240Y121920
X15240Y119380
X15240Y116840
X15240Y114300
X15240Y111760
X15240Y109220
X15240Y106680
X15240Y104140
X15240Y101600
X15240Y99060
X15240Y96520
X33020Y96520
X33020Y99060
X33020Y101600
X33020Y104140
X33020Y106680
X33020Y111760
X33020Y114300
X33020Y116840
X33020Y119380
X33020Y121920
X33020Y124460
X15240Y93980
X15240Y91440
X15240Y88900
X15240Y86360
X15240Y83820
X15240Y81280
X33020Y81280
X33020Y83820
X33020Y86360
X33020Y88900
X33020Y91440
X33020Y93980
X33020Y109220
X78105Y83693
X78105Y86487
X78105Y76073
X78105Y78867
X5715Y111760
X5461Y109220
X5715Y106680
X5715Y101600
X5461Y99060
X5715Y96520
X75565Y58102
X78105Y58102
X75565Y55562
X78105Y55562
X75565Y53022
X78105Y53022
X75565Y50482
X78105Y50482
X75565Y47942
X78105Y47942
X60007Y105092
X62547Y105092
X65087Y105092
X51752Y105092
X51752Y100012
X77153Y105092
X77153Y100012
X37275Y104140
X37275Y101600
X37021Y99060
X37275Y96520
X37021Y93980
X37275Y91440
X37021Y88900
X37275Y86360
X37021Y83820
X37275Y81280
X65405Y120967
X65405Y115887
X5524Y92075
X5271Y89535
X5524Y86995
X5271Y84455
X5524Y81915
X5271Y79375
X5524Y76835
X5271Y74295
X62547Y130334
X67628Y130334
X75089Y129064
X75089Y134144
X60166Y136208
X55086Y136208
X5715Y118935
X5715Y121729
X58737Y32893
X58737Y35687
X51117Y32893
X51117Y35687
X62547Y32893
X62547Y35687
X54927Y32893
X54927Y35687
X11557Y124460
X11557Y119380
X11303Y116840
X11557Y114300
X11303Y111760
X11557Y109220
X11303Y106680
X11557Y104140
X11557Y101600
X11303Y99060
X11557Y96520
X11303Y93980
X11557Y91440
X11303Y88900
X11557Y86360
X11303Y83820
X11557Y81280
X37275Y124460
X37021Y121920
X37275Y119380
X37021Y116840
X37275Y114300
X37021Y111760
X37275Y109220
T5
X56515Y83820
X56515Y90170
X57785Y88265
X59055Y90170
X52705Y90170
X52705Y77470
X70803Y87630
X70803Y100330
X81439Y111919
X57785Y81915
X59055Y83820
X50800Y84138
X50800Y96837
X77788Y114141
X68898Y70168
X81598Y70168
X58420Y120967
X81439Y116999
X68898Y66040
X81598Y66040
X81756Y135731
X81756Y123031
X36195Y64770
X36195Y77470
X27940Y72390
X27940Y59690
X53340Y120967
X30480Y133033
X34290Y133033
X38100Y133033
X73978Y96520
X73978Y83820
X55562Y118402
X55562Y113373
X58102Y115887
X55721Y128721
X55721Y123692
X58261Y126206
X70168Y121761
X70168Y119221
X77788Y119221
X77788Y121761
X70168Y116681
X48260Y58420
X48260Y48260
X58737Y38100
X58737Y48260
X51117Y38100
X51117Y48260
X62547Y38100
X62547Y48260
X54927Y38100
X54927Y48260
X66358Y98425
X62547Y98425
X58737Y98425
X46355Y133007
X46355Y127978
X48895Y130492
X70168Y114141
X77788Y116681
T6
X52397Y56624
X55989Y53032
X63173Y60216
X59581Y63808
T7
X67151Y119221
T8
X45402Y115570
X45402Y116840
X45402Y118110
X60960Y85725
X49212Y116840
X49212Y118110
X28257Y128587
X22860Y79375
X25400Y58420
X26670Y53340
X26670Y58420
X25400Y53340
X20955Y13335
X23495Y13335
X20955Y6985
X23495Y6985
X22225Y6350
X22225Y13970
X31115Y13335
X33655Y13335
X31115Y6985
X33655Y6985
X32385Y13970
X32385Y6350
X30480Y10160
X34290Y10160
X31115Y22542
X33655Y22542
X32385Y22225
X31115Y18098
X32385Y18415
X33655Y18098
X22860Y125095
X21590Y122555
X22860Y122555
X45402Y124460
X46355Y123507
X47307Y122555
X48260Y121602
X48895Y102552
X54292Y102552
X74613Y102552
X79693Y102552
X53340Y108902
X62547Y102870
X9843Y126365
X1905Y124142
X31750Y79375
X35560Y79375
X13335Y118110
X5715Y102870
X26035Y99377
X23495Y99377
X27622Y102235
X20320Y99377
X5715Y113347
X4128Y110490
X6032Y120332
X6667Y116205
X27940Y79375
X49212Y115570
X31750Y97790
X40323Y97790
X27622Y106045
X41275Y118110
X64770Y85725
X68580Y85725
X72390Y85725
X57150Y108902
X60960Y108902
X64770Y108902
X68580Y108902
X72390Y108902
X76200Y108902
X40005Y16510
X40005Y18415
X40005Y14605
X45085Y12065
X45085Y8255
X50165Y12065
X50165Y8255
X46355Y17780
X53340Y16510
X32385Y57785
X26035Y65405
X36195Y42545
X38100Y59690
X33020Y65405
X30162Y53340
X38735Y118110
X20955Y46672
X36195Y45720
X41275Y111760
X75565Y85725
X78105Y73978
X80328Y77153
X78105Y88582
X80010Y85090
X77153Y81280
X79375Y81280
X4128Y65405
X7620Y59055
X49847Y109537
X10478Y52070
X7302Y55245
X8890Y130492
X4128Y88265
X4128Y85725
X4128Y83185
X4128Y80645
X4128Y78105
X43180Y59690
X36830Y79375
X57626Y114141
X56039Y120491
X42863Y92710
X46355Y88900
X59055Y68263
X80010Y55562
X73660Y55562
X79693Y50482
X79693Y47942
X78105Y46355
X56515Y64770
X67628Y51752
X67628Y49212
X55562Y81915
X60007Y81915
X57785Y77788
X72708Y68263
X78105Y70803
X67628Y68263
X25082Y126682
X25082Y130175
X12065Y133668
X5715Y133668
X13017Y136843
X44450Y100012
X49212Y94615
X4128Y75565
X20320Y122555
X19050Y122555
X17780Y122555
X4128Y90805
X4128Y100330
X16510Y121285
X16510Y122555
X26987Y122555
X30162Y122555
X16510Y118110
X16510Y115570
X16510Y113030
X16510Y110490
X16510Y107950
X16510Y105410
X16510Y102870
X16510Y100330
X16510Y97790
X16510Y95250
X16510Y92710
X16510Y90170
X16510Y87630
X16510Y85090
X16510Y82550
X31750Y82550
X31750Y85090
X31750Y87630
X31750Y90170
X31750Y92710
X31750Y95250
X31750Y107950
X31750Y110490
X31750Y113030
X31750Y115570
X38735Y87630
X31750Y118110
X31750Y120650
X38735Y92710
X38735Y90170
X38735Y85090
X38735Y95250
X39688Y95250
X38735Y97790
X31750Y105410
X31750Y102870
X31750Y100330
X30162Y104775
X28892Y103505
X26352Y100965
X26035Y97472
X26035Y46672
X30797Y46672
X20955Y49847
X10478Y56197
X14922Y52070
X14605Y47307
X14922Y66993
X19368Y68898
X10795Y77470
X8255Y73978
X59214Y117951
X61436Y117951
X73184Y33496
X73184Y32544
X79216Y32544
X79216Y33496
X54927Y31432
X51117Y31432
X58737Y31432
X62547Y31432
X62547Y33973
X75089Y131604
X75089Y136366
X75089Y126841
X54610Y57150
X38735Y82550
X5398Y94297
X38735Y115570
X13335Y121920
X66358Y74295
X56515Y55245
X61277Y61912
X49212Y120650
X49212Y119380
X49212Y114300
X49212Y113030
X49212Y111760
X49212Y110490
X50800Y108585
X45402Y111760
X45402Y113030
X45402Y114300
M30