M48
;GenerationSoftware,Autodesk,EAGLE,9.1.3*%
;CreationDate,2018-10-15T23:42:14Z*%
FMAT,2
ICI,OFF
METRIC,TZ,000.000
T6C0.350
T5C0.800
T4C0.813
T3C1.016
T2C1.600
T1C2.500
%
G90
M71
T1
X8500Y60290
X73500Y27190
X8500Y27190
X73500Y60290
T2
X79550Y45490
X79550Y48490
X79550Y51490
X79550Y42490
T3
X31750Y24765
X31750Y22225
X29210Y24765
X29210Y22225
X26670Y22225
X26670Y24765
X24130Y24765
X24130Y22225
X21590Y24765
X21590Y22225
T4
X49530Y27305
X46990Y27305
X43815Y27305
X41275Y27305
X71120Y17145
X58420Y17145
X71120Y13335
X58420Y13335
X26670Y6350
X39370Y6350
X44450Y15240
X52070Y4445
X39370Y4445
X40005Y8255
X52705Y8255
X65405Y20955
X52705Y20955
X46355Y16510
X52705Y24765
X29210Y11430
X41910Y11430
X65405Y24765
X57785Y8890
X57785Y6350
X60325Y6350
X46355Y19050
X48895Y16510
X51435Y13335
X51435Y10795
X53975Y10795
X31750Y15240
T5
X42000Y31090
X40000Y31090
X44000Y31090
X46000Y31090
X36000Y31090
X48000Y31090
X34000Y31090
X38000Y31090
T6
X46355Y8255
X27940Y28575
X33020Y28575
X43180Y19050
X66040Y44450
X57150Y15240
X48895Y13970
X55880Y4445
X55880Y10160
X60960Y35560
X66040Y40640
X67945Y31115
X71755Y35560
M30