G04 EAGLE Gerber X2 export*
%TF.Part,Single*%
%TF.FileFunction,Profile,NP*%
%TF.FilePolarity,Positive*%
%TF.GenerationSoftware,Autodesk,EAGLE,9.1.3*%
%TF.CreationDate,2018-10-15T23:42:15Z*%
G75*
%MOMM*%
%FSLAX34Y34*%
%LPD*%
%AMOC8*
5,1,8,0,0,1.08239X$1,22.5*%
G01*
%ADD10C,0.254000*%


D10*
X0Y0D02*
X820000Y0D01*
X820000Y650000D01*
X0Y650000D01*
X0Y0D01*
X722500Y271409D02*
X722577Y270430D01*
X722731Y269460D01*
X722960Y268504D01*
X723264Y267570D01*
X723639Y266663D01*
X724085Y265788D01*
X724599Y264950D01*
X725176Y264155D01*
X725814Y263408D01*
X726508Y262714D01*
X727255Y262076D01*
X728050Y261499D01*
X728888Y260985D01*
X729763Y260539D01*
X730670Y260164D01*
X731604Y259860D01*
X732560Y259631D01*
X733530Y259477D01*
X734509Y259400D01*
X735491Y259400D01*
X736470Y259477D01*
X737441Y259631D01*
X738396Y259860D01*
X739330Y260164D01*
X740237Y260539D01*
X741112Y260985D01*
X741950Y261499D01*
X742745Y262076D01*
X743492Y262714D01*
X744186Y263408D01*
X744824Y264155D01*
X745401Y264950D01*
X745915Y265788D01*
X746361Y266663D01*
X746736Y267570D01*
X747040Y268504D01*
X747269Y269460D01*
X747423Y270430D01*
X747500Y271409D01*
X747500Y272391D01*
X747423Y273370D01*
X747269Y274341D01*
X747040Y275296D01*
X746736Y276230D01*
X746361Y277137D01*
X745915Y278012D01*
X745401Y278850D01*
X744824Y279645D01*
X744186Y280392D01*
X743492Y281086D01*
X742745Y281724D01*
X741950Y282301D01*
X741112Y282815D01*
X740237Y283261D01*
X739330Y283636D01*
X738396Y283940D01*
X737441Y284169D01*
X736470Y284323D01*
X735491Y284400D01*
X734509Y284400D01*
X733530Y284323D01*
X732560Y284169D01*
X731604Y283940D01*
X730670Y283636D01*
X729763Y283261D01*
X728888Y282815D01*
X728050Y282301D01*
X727255Y281724D01*
X726508Y281086D01*
X725814Y280392D01*
X725176Y279645D01*
X724599Y278850D01*
X724085Y278012D01*
X723639Y277137D01*
X723264Y276230D01*
X722960Y275296D01*
X722731Y274341D01*
X722577Y273370D01*
X722500Y272391D01*
X722500Y271409D01*
X72500Y271409D02*
X72577Y270430D01*
X72731Y269460D01*
X72960Y268504D01*
X73264Y267570D01*
X73639Y266663D01*
X74085Y265788D01*
X74599Y264950D01*
X75176Y264155D01*
X75814Y263408D01*
X76508Y262714D01*
X77255Y262076D01*
X78050Y261499D01*
X78888Y260985D01*
X79763Y260539D01*
X80670Y260164D01*
X81604Y259860D01*
X82560Y259631D01*
X83530Y259477D01*
X84509Y259400D01*
X85491Y259400D01*
X86470Y259477D01*
X87441Y259631D01*
X88396Y259860D01*
X89330Y260164D01*
X90237Y260539D01*
X91112Y260985D01*
X91950Y261499D01*
X92745Y262076D01*
X93492Y262714D01*
X94186Y263408D01*
X94824Y264155D01*
X95401Y264950D01*
X95915Y265788D01*
X96361Y266663D01*
X96736Y267570D01*
X97040Y268504D01*
X97269Y269460D01*
X97423Y270430D01*
X97500Y271409D01*
X97500Y272391D01*
X97423Y273370D01*
X97269Y274341D01*
X97040Y275296D01*
X96736Y276230D01*
X96361Y277137D01*
X95915Y278012D01*
X95401Y278850D01*
X94824Y279645D01*
X94186Y280392D01*
X93492Y281086D01*
X92745Y281724D01*
X91950Y282301D01*
X91112Y282815D01*
X90237Y283261D01*
X89330Y283636D01*
X88396Y283940D01*
X87441Y284169D01*
X86470Y284323D01*
X85491Y284400D01*
X84509Y284400D01*
X83530Y284323D01*
X82560Y284169D01*
X81604Y283940D01*
X80670Y283636D01*
X79763Y283261D01*
X78888Y282815D01*
X78050Y282301D01*
X77255Y281724D01*
X76508Y281086D01*
X75814Y280392D01*
X75176Y279645D01*
X74599Y278850D01*
X74085Y278012D01*
X73639Y277137D01*
X73264Y276230D01*
X72960Y275296D01*
X72731Y274341D01*
X72577Y273370D01*
X72500Y272391D01*
X72500Y271409D01*
X722500Y602409D02*
X722577Y601430D01*
X722731Y600460D01*
X722960Y599504D01*
X723264Y598570D01*
X723639Y597663D01*
X724085Y596788D01*
X724599Y595950D01*
X725176Y595155D01*
X725814Y594408D01*
X726508Y593714D01*
X727255Y593076D01*
X728050Y592499D01*
X728888Y591985D01*
X729763Y591539D01*
X730670Y591164D01*
X731604Y590860D01*
X732560Y590631D01*
X733530Y590477D01*
X734509Y590400D01*
X735491Y590400D01*
X736470Y590477D01*
X737441Y590631D01*
X738396Y590860D01*
X739330Y591164D01*
X740237Y591539D01*
X741112Y591985D01*
X741950Y592499D01*
X742745Y593076D01*
X743492Y593714D01*
X744186Y594408D01*
X744824Y595155D01*
X745401Y595950D01*
X745915Y596788D01*
X746361Y597663D01*
X746736Y598570D01*
X747040Y599504D01*
X747269Y600460D01*
X747423Y601430D01*
X747500Y602409D01*
X747500Y603391D01*
X747423Y604370D01*
X747269Y605341D01*
X747040Y606296D01*
X746736Y607230D01*
X746361Y608137D01*
X745915Y609012D01*
X745401Y609850D01*
X744824Y610645D01*
X744186Y611392D01*
X743492Y612086D01*
X742745Y612724D01*
X741950Y613301D01*
X741112Y613815D01*
X740237Y614261D01*
X739330Y614636D01*
X738396Y614940D01*
X737441Y615169D01*
X736470Y615323D01*
X735491Y615400D01*
X734509Y615400D01*
X733530Y615323D01*
X732560Y615169D01*
X731604Y614940D01*
X730670Y614636D01*
X729763Y614261D01*
X728888Y613815D01*
X728050Y613301D01*
X727255Y612724D01*
X726508Y612086D01*
X725814Y611392D01*
X725176Y610645D01*
X724599Y609850D01*
X724085Y609012D01*
X723639Y608137D01*
X723264Y607230D01*
X722960Y606296D01*
X722731Y605341D01*
X722577Y604370D01*
X722500Y603391D01*
X722500Y602409D01*
X72500Y602409D02*
X72577Y601430D01*
X72731Y600460D01*
X72960Y599504D01*
X73264Y598570D01*
X73639Y597663D01*
X74085Y596788D01*
X74599Y595950D01*
X75176Y595155D01*
X75814Y594408D01*
X76508Y593714D01*
X77255Y593076D01*
X78050Y592499D01*
X78888Y591985D01*
X79763Y591539D01*
X80670Y591164D01*
X81604Y590860D01*
X82560Y590631D01*
X83530Y590477D01*
X84509Y590400D01*
X85491Y590400D01*
X86470Y590477D01*
X87441Y590631D01*
X88396Y590860D01*
X89330Y591164D01*
X90237Y591539D01*
X91112Y591985D01*
X91950Y592499D01*
X92745Y593076D01*
X93492Y593714D01*
X94186Y594408D01*
X94824Y595155D01*
X95401Y595950D01*
X95915Y596788D01*
X96361Y597663D01*
X96736Y598570D01*
X97040Y599504D01*
X97269Y600460D01*
X97423Y601430D01*
X97500Y602409D01*
X97500Y603391D01*
X97423Y604370D01*
X97269Y605341D01*
X97040Y606296D01*
X96736Y607230D01*
X96361Y608137D01*
X95915Y609012D01*
X95401Y609850D01*
X94824Y610645D01*
X94186Y611392D01*
X93492Y612086D01*
X92745Y612724D01*
X91950Y613301D01*
X91112Y613815D01*
X90237Y614261D01*
X89330Y614636D01*
X88396Y614940D01*
X87441Y615169D01*
X86470Y615323D01*
X85491Y615400D01*
X84509Y615400D01*
X83530Y615323D01*
X82560Y615169D01*
X81604Y614940D01*
X80670Y614636D01*
X79763Y614261D01*
X78888Y613815D01*
X78050Y613301D01*
X77255Y612724D01*
X76508Y612086D01*
X75814Y611392D01*
X75176Y610645D01*
X74599Y609850D01*
X74085Y609012D01*
X73639Y608137D01*
X73264Y607230D01*
X72960Y606296D01*
X72731Y605341D01*
X72577Y604370D01*
X72500Y603391D01*
X72500Y602409D01*
M02*
