M48
;GenerationSoftware,Autodesk,EAGLE,9.2.0*%
;CreationDate,2018-10-29T04:07:02Z*%
FMAT,2
ICI,OFF
METRIC,TZ,000.000
T6C0.350
T5C0.813
T4C1.016
T3C1.048
T2C1.600
T1C4.100
%
G90
M71
T1
X6000Y194000
X78000Y194000
X6000Y6000
X78000Y6000
T2
X42505Y10160
X37505Y10160
X47665Y10160
X52665Y10160
X8890Y133708
X8890Y138708
X22185Y10160
X17185Y10160
X32345Y10160
X27345Y10160
T3
X20955Y54610
X23495Y54610
X26035Y54610
X28575Y54610
X31115Y54610
X33655Y54610
X36195Y54610
X38735Y54610
X41275Y54610
X43815Y54610
X43815Y21590
X41275Y21590
X38735Y21590
X36195Y21590
X33655Y21590
X31115Y21590
X28575Y21590
X26035Y21590
T4
X8636Y99060
X8890Y96520
X75565Y58102
X78105Y58102
X75565Y55562
X78105Y55562
X75565Y53022
X78105Y53022
X75565Y50482
X78105Y50482
X75565Y47942
X78105Y47942
X60007Y105092
X62547Y105092
X65087Y105092
X51752Y105092
X51752Y100012
X77153Y105092
X77153Y100012
X9970Y91440
X9716Y88900
X9970Y86360
X9716Y83820
X9970Y81280
X9970Y76200
X9716Y73660
X62230Y130334
X67310Y130334
X71914Y127794
X76994Y127794
X52546Y135255
X47466Y135255
X8573Y118935
X8573Y121729
X9716Y78740
X20955Y124460
X38735Y91440
X20955Y121920
X20955Y119380
X20955Y116840
X20955Y114300
X20955Y111760
X20955Y109220
X20955Y106680
X20955Y104140
X20955Y101600
X20955Y99060
X20955Y96520
X38735Y96520
X38735Y99060
X38735Y101600
X38735Y104140
X38735Y106680
X38735Y109220
X38735Y111760
X38735Y114300
X38735Y116840
X38735Y119380
X38735Y121920
X38735Y124460
X20955Y93980
X20955Y91440
X20955Y88900
X20955Y86360
X20955Y83820
X20955Y81280
X38735Y81280
X38735Y83820
X38735Y86360
X38735Y88900
X38735Y93980
X78105Y83693
X78105Y86487
X78105Y76073
X78105Y78867
X8573Y114300
X8319Y111760
X8573Y109220
X8890Y101600
T5
X54451Y129038
X56515Y90170
X57785Y88265
X59055Y90170
X52705Y90170
X52705Y77470
X69215Y87630
X69215Y100330
X56515Y83820
X57785Y81915
X59055Y83820
X50800Y84138
X50800Y96837
X64135Y83820
X64135Y96520
X68898Y69850
X81598Y69850
X68898Y66358
X81598Y66358
X40640Y59690
X40640Y72390
X27940Y72390
X27940Y59690
X54610Y120625
X54610Y115595
X57150Y118110
X54451Y124009
X56991Y126524
X61277Y121761
X61277Y119221
X68898Y119221
X68898Y121761
X61277Y116681
X61277Y114141
X68898Y116681
X68898Y114141
X73184Y114141
X78264Y114141
X80804Y126841
X80804Y114141
T6
X35560Y79375
X17145Y113665
X17145Y109855
X18415Y96837
X18415Y100965
X11747Y96837
X11747Y100965
X11747Y109855
X11747Y113665
X2540Y114300
X2223Y101600
X27940Y79375
X31750Y97790
X35560Y97790
X27940Y97790
X22860Y97790
X41910Y108902
X60960Y85725
X64770Y85725
X68580Y85725
X72390Y85725
X57150Y108902
X60960Y108902
X64770Y108902
X68580Y108902
X72390Y108902
X76200Y108902
X40005Y16510
X40005Y18415
X40005Y14605
X45085Y12065
X45085Y8255
X50165Y12065
X50165Y8255
X46355Y17780
X53340Y16510
X32385Y57785
X26670Y64135
X39370Y51435
X41275Y57150
X32385Y66040
X32385Y51435
X28575Y47625
X20955Y45720
X36195Y45720
X45402Y108902
X75565Y85725
X78105Y73978
X80328Y77153
X31115Y19050
X80010Y85090
X77153Y81280
X79375Y81280
X3810Y65405
X9525Y65405
X49530Y108902
X9525Y50800
X4445Y55880
X8890Y130492
X12065Y90170
X12065Y87630
X12065Y85090
X12065Y82550
X12065Y79375
X43180Y59690
X40640Y74295
X57626Y114141
X54451Y122396
X70326Y122396
X42545Y92392
X46355Y88582
X59055Y68263
X60007Y81915
X55562Y81915
X67628Y49212
X67628Y51752
X56515Y64770
X78105Y46355
X79693Y47942
X79693Y50482
X73660Y55562
X80010Y55562
X76994Y125889
X22860Y79375
X25400Y57150
X26670Y51435
X26670Y57150
X25400Y51435
X20955Y13970
X23495Y13970
X20955Y6985
X23495Y6985
X22225Y6350
X22225Y14605
X31115Y13970
X33655Y13970
X31115Y6985
X28575Y51117
X81598Y46990
X28257Y128587
X49212Y94615
X44767Y99377
X53340Y108902
X13335Y137160
X5398Y133350
X33655Y6985
X32385Y14605
X32385Y6350
X30480Y10160
X34290Y10160
X31115Y24130
X33655Y24130
X32385Y24765
X32385Y18415
X33655Y19050
X19050Y121285
X78105Y88582
X22860Y121285
X22860Y122555
X36830Y117475
X36830Y116205
X40640Y116205
X40640Y117475
X48895Y102552
X54292Y102552
X74613Y102552
X79693Y102552
X12382Y133350
X28257Y130810
X62547Y102870
X11112Y123190
X28257Y121920
X28257Y126682
X2540Y127317
X31750Y79375
X67628Y68263
X78105Y70803
X72708Y68263
X57785Y77788
M30