G04 EAGLE Gerber RS-274X export*
G75*
%MOMM*%
%FSLAX34Y34*%
%LPD*%
%IN*%
%IPPOS*%
%AMOC8*
5,1,8,0,0,1.08239X$1,22.5*%
G01*
%ADD10C,0.254000*%


D10*
X0Y0D02*
X840000Y0D01*
X840000Y2000000D01*
X0Y2000000D01*
X0Y0D01*
X80500Y1939381D02*
X80425Y1938144D01*
X80276Y1936914D01*
X80053Y1935695D01*
X79756Y1934493D01*
X79388Y1933310D01*
X78948Y1932151D01*
X78440Y1931022D01*
X77864Y1929925D01*
X77223Y1928864D01*
X76519Y1927845D01*
X75755Y1926870D01*
X74934Y1925942D01*
X74058Y1925066D01*
X73130Y1924245D01*
X72155Y1923481D01*
X71136Y1922777D01*
X70075Y1922136D01*
X68978Y1921560D01*
X67849Y1921052D01*
X66690Y1920613D01*
X65507Y1920244D01*
X64305Y1919947D01*
X63086Y1919724D01*
X61856Y1919575D01*
X60619Y1919500D01*
X59381Y1919500D01*
X58144Y1919575D01*
X56914Y1919724D01*
X55695Y1919947D01*
X54493Y1920244D01*
X53310Y1920613D01*
X52151Y1921052D01*
X51022Y1921560D01*
X49925Y1922136D01*
X48864Y1922777D01*
X47845Y1923481D01*
X46870Y1924245D01*
X45942Y1925066D01*
X45066Y1925942D01*
X44245Y1926870D01*
X43481Y1927845D01*
X42777Y1928864D01*
X42136Y1929925D01*
X41560Y1931022D01*
X41052Y1932151D01*
X40613Y1933310D01*
X40244Y1934493D01*
X39947Y1935695D01*
X39724Y1936914D01*
X39575Y1938144D01*
X39500Y1939381D01*
X39500Y1940619D01*
X39575Y1941856D01*
X39724Y1943086D01*
X39947Y1944305D01*
X40244Y1945507D01*
X40613Y1946690D01*
X41052Y1947849D01*
X41560Y1948978D01*
X42136Y1950075D01*
X42777Y1951136D01*
X43481Y1952155D01*
X44245Y1953130D01*
X45066Y1954058D01*
X45942Y1954934D01*
X46870Y1955755D01*
X47845Y1956519D01*
X48864Y1957223D01*
X49925Y1957864D01*
X51022Y1958440D01*
X52151Y1958948D01*
X53310Y1959388D01*
X54493Y1959756D01*
X55695Y1960053D01*
X56914Y1960276D01*
X58144Y1960425D01*
X59381Y1960500D01*
X60619Y1960500D01*
X61856Y1960425D01*
X63086Y1960276D01*
X64305Y1960053D01*
X65507Y1959756D01*
X66690Y1959388D01*
X67849Y1958948D01*
X68978Y1958440D01*
X70075Y1957864D01*
X71136Y1957223D01*
X72155Y1956519D01*
X73130Y1955755D01*
X74058Y1954934D01*
X74934Y1954058D01*
X75755Y1953130D01*
X76519Y1952155D01*
X77223Y1951136D01*
X77864Y1950075D01*
X78440Y1948978D01*
X78948Y1947849D01*
X79388Y1946690D01*
X79756Y1945507D01*
X80053Y1944305D01*
X80276Y1943086D01*
X80425Y1941856D01*
X80500Y1940619D01*
X80500Y1939381D01*
X800500Y1939381D02*
X800425Y1938144D01*
X800276Y1936914D01*
X800053Y1935695D01*
X799756Y1934493D01*
X799388Y1933310D01*
X798948Y1932151D01*
X798440Y1931022D01*
X797864Y1929925D01*
X797223Y1928864D01*
X796519Y1927845D01*
X795755Y1926870D01*
X794934Y1925942D01*
X794058Y1925066D01*
X793130Y1924245D01*
X792155Y1923481D01*
X791136Y1922777D01*
X790075Y1922136D01*
X788978Y1921560D01*
X787849Y1921052D01*
X786690Y1920613D01*
X785507Y1920244D01*
X784305Y1919947D01*
X783086Y1919724D01*
X781856Y1919575D01*
X780619Y1919500D01*
X779381Y1919500D01*
X778144Y1919575D01*
X776914Y1919724D01*
X775695Y1919947D01*
X774493Y1920244D01*
X773310Y1920613D01*
X772151Y1921052D01*
X771022Y1921560D01*
X769925Y1922136D01*
X768864Y1922777D01*
X767845Y1923481D01*
X766870Y1924245D01*
X765942Y1925066D01*
X765066Y1925942D01*
X764245Y1926870D01*
X763481Y1927845D01*
X762777Y1928864D01*
X762136Y1929925D01*
X761560Y1931022D01*
X761052Y1932151D01*
X760613Y1933310D01*
X760244Y1934493D01*
X759947Y1935695D01*
X759724Y1936914D01*
X759575Y1938144D01*
X759500Y1939381D01*
X759500Y1940619D01*
X759575Y1941856D01*
X759724Y1943086D01*
X759947Y1944305D01*
X760244Y1945507D01*
X760613Y1946690D01*
X761052Y1947849D01*
X761560Y1948978D01*
X762136Y1950075D01*
X762777Y1951136D01*
X763481Y1952155D01*
X764245Y1953130D01*
X765066Y1954058D01*
X765942Y1954934D01*
X766870Y1955755D01*
X767845Y1956519D01*
X768864Y1957223D01*
X769925Y1957864D01*
X771022Y1958440D01*
X772151Y1958948D01*
X773310Y1959388D01*
X774493Y1959756D01*
X775695Y1960053D01*
X776914Y1960276D01*
X778144Y1960425D01*
X779381Y1960500D01*
X780619Y1960500D01*
X781856Y1960425D01*
X783086Y1960276D01*
X784305Y1960053D01*
X785507Y1959756D01*
X786690Y1959388D01*
X787849Y1958948D01*
X788978Y1958440D01*
X790075Y1957864D01*
X791136Y1957223D01*
X792155Y1956519D01*
X793130Y1955755D01*
X794058Y1954934D01*
X794934Y1954058D01*
X795755Y1953130D01*
X796519Y1952155D01*
X797223Y1951136D01*
X797864Y1950075D01*
X798440Y1948978D01*
X798948Y1947849D01*
X799388Y1946690D01*
X799756Y1945507D01*
X800053Y1944305D01*
X800276Y1943086D01*
X800425Y1941856D01*
X800500Y1940619D01*
X800500Y1939381D01*
X80500Y59381D02*
X80425Y58144D01*
X80276Y56914D01*
X80053Y55695D01*
X79756Y54493D01*
X79388Y53310D01*
X78948Y52151D01*
X78440Y51022D01*
X77864Y49925D01*
X77223Y48864D01*
X76519Y47845D01*
X75755Y46870D01*
X74934Y45942D01*
X74058Y45066D01*
X73130Y44245D01*
X72155Y43481D01*
X71136Y42777D01*
X70075Y42136D01*
X68978Y41560D01*
X67849Y41052D01*
X66690Y40613D01*
X65507Y40244D01*
X64305Y39947D01*
X63086Y39724D01*
X61856Y39575D01*
X60619Y39500D01*
X59381Y39500D01*
X58144Y39575D01*
X56914Y39724D01*
X55695Y39947D01*
X54493Y40244D01*
X53310Y40613D01*
X52151Y41052D01*
X51022Y41560D01*
X49925Y42136D01*
X48864Y42777D01*
X47845Y43481D01*
X46870Y44245D01*
X45942Y45066D01*
X45066Y45942D01*
X44245Y46870D01*
X43481Y47845D01*
X42777Y48864D01*
X42136Y49925D01*
X41560Y51022D01*
X41052Y52151D01*
X40613Y53310D01*
X40244Y54493D01*
X39947Y55695D01*
X39724Y56914D01*
X39575Y58144D01*
X39500Y59381D01*
X39500Y60619D01*
X39575Y61856D01*
X39724Y63086D01*
X39947Y64305D01*
X40244Y65507D01*
X40613Y66690D01*
X41052Y67849D01*
X41560Y68978D01*
X42136Y70075D01*
X42777Y71136D01*
X43481Y72155D01*
X44245Y73130D01*
X45066Y74058D01*
X45942Y74934D01*
X46870Y75755D01*
X47845Y76519D01*
X48864Y77223D01*
X49925Y77864D01*
X51022Y78440D01*
X52151Y78948D01*
X53310Y79388D01*
X54493Y79756D01*
X55695Y80053D01*
X56914Y80276D01*
X58144Y80425D01*
X59381Y80500D01*
X60619Y80500D01*
X61856Y80425D01*
X63086Y80276D01*
X64305Y80053D01*
X65507Y79756D01*
X66690Y79388D01*
X67849Y78948D01*
X68978Y78440D01*
X70075Y77864D01*
X71136Y77223D01*
X72155Y76519D01*
X73130Y75755D01*
X74058Y74934D01*
X74934Y74058D01*
X75755Y73130D01*
X76519Y72155D01*
X77223Y71136D01*
X77864Y70075D01*
X78440Y68978D01*
X78948Y67849D01*
X79388Y66690D01*
X79756Y65507D01*
X80053Y64305D01*
X80276Y63086D01*
X80425Y61856D01*
X80500Y60619D01*
X80500Y59381D01*
X800500Y59381D02*
X800425Y58144D01*
X800276Y56914D01*
X800053Y55695D01*
X799756Y54493D01*
X799388Y53310D01*
X798948Y52151D01*
X798440Y51022D01*
X797864Y49925D01*
X797223Y48864D01*
X796519Y47845D01*
X795755Y46870D01*
X794934Y45942D01*
X794058Y45066D01*
X793130Y44245D01*
X792155Y43481D01*
X791136Y42777D01*
X790075Y42136D01*
X788978Y41560D01*
X787849Y41052D01*
X786690Y40613D01*
X785507Y40244D01*
X784305Y39947D01*
X783086Y39724D01*
X781856Y39575D01*
X780619Y39500D01*
X779381Y39500D01*
X778144Y39575D01*
X776914Y39724D01*
X775695Y39947D01*
X774493Y40244D01*
X773310Y40613D01*
X772151Y41052D01*
X771022Y41560D01*
X769925Y42136D01*
X768864Y42777D01*
X767845Y43481D01*
X766870Y44245D01*
X765942Y45066D01*
X765066Y45942D01*
X764245Y46870D01*
X763481Y47845D01*
X762777Y48864D01*
X762136Y49925D01*
X761560Y51022D01*
X761052Y52151D01*
X760613Y53310D01*
X760244Y54493D01*
X759947Y55695D01*
X759724Y56914D01*
X759575Y58144D01*
X759500Y59381D01*
X759500Y60619D01*
X759575Y61856D01*
X759724Y63086D01*
X759947Y64305D01*
X760244Y65507D01*
X760613Y66690D01*
X761052Y67849D01*
X761560Y68978D01*
X762136Y70075D01*
X762777Y71136D01*
X763481Y72155D01*
X764245Y73130D01*
X765066Y74058D01*
X765942Y74934D01*
X766870Y75755D01*
X767845Y76519D01*
X768864Y77223D01*
X769925Y77864D01*
X771022Y78440D01*
X772151Y78948D01*
X773310Y79388D01*
X774493Y79756D01*
X775695Y80053D01*
X776914Y80276D01*
X778144Y80425D01*
X779381Y80500D01*
X780619Y80500D01*
X781856Y80425D01*
X783086Y80276D01*
X784305Y80053D01*
X785507Y79756D01*
X786690Y79388D01*
X787849Y78948D01*
X788978Y78440D01*
X790075Y77864D01*
X791136Y77223D01*
X792155Y76519D01*
X793130Y75755D01*
X794058Y74934D01*
X794934Y74058D01*
X795755Y73130D01*
X796519Y72155D01*
X797223Y71136D01*
X797864Y70075D01*
X798440Y68978D01*
X798948Y67849D01*
X799388Y66690D01*
X799756Y65507D01*
X800053Y64305D01*
X800276Y63086D01*
X800425Y61856D01*
X800500Y60619D01*
X800500Y59381D01*
M02*
