G04 EAGLE Gerber X2 export*
%TF.Part,Single*%
%TF.FileFunction,Copper,L1,Top,Mixed*%
%TF.FilePolarity,Positive*%
%TF.GenerationSoftware,Autodesk,EAGLE,9.1.3*%
%TF.CreationDate,2018-10-15T23:42:08Z*%
G75*
%MOMM*%
%FSLAX34Y34*%
%LPD*%
%AMOC8*
5,1,8,0,0,1.08239X$1,22.5*%
G01*
%ADD10P,1.732040X8X202.500000*%
%ADD11P,1.429621X8X202.500000*%
%ADD12P,1.429621X8X22.500000*%
%ADD13C,1.879600*%
%ADD14P,1.429621X8X292.500000*%
%ADD15C,1.308000*%
%ADD16C,2.400000*%
%ADD17C,0.756400*%
%ADD18C,0.635000*%
%ADD19C,1.270000*%

G36*
X803493Y10161D02*
X803493Y10161D01*
X803496Y10161D01*
X803843Y10181D01*
X804201Y10201D01*
X804204Y10201D01*
X804207Y10201D01*
X804547Y10260D01*
X804904Y10320D01*
X804906Y10321D01*
X804909Y10321D01*
X805254Y10421D01*
X805588Y10517D01*
X805591Y10519D01*
X805594Y10519D01*
X805918Y10654D01*
X806246Y10790D01*
X806249Y10792D01*
X806251Y10793D01*
X806563Y10965D01*
X806870Y11135D01*
X806872Y11137D01*
X806875Y11138D01*
X807172Y11349D01*
X807451Y11547D01*
X807453Y11549D01*
X807455Y11551D01*
X807723Y11791D01*
X807982Y12022D01*
X807984Y12025D01*
X807986Y12026D01*
X808224Y12294D01*
X808456Y12554D01*
X808458Y12556D01*
X808460Y12558D01*
X808658Y12839D01*
X808868Y13135D01*
X808870Y13138D01*
X808871Y13140D01*
X809034Y13436D01*
X809212Y13759D01*
X809213Y13762D01*
X809215Y13764D01*
X809346Y14082D01*
X809484Y14417D01*
X809485Y14420D01*
X809486Y14423D01*
X809581Y14752D01*
X809681Y15102D01*
X809682Y15105D01*
X809682Y15107D01*
X809742Y15461D01*
X809800Y15804D01*
X809800Y15807D01*
X809801Y15810D01*
X809839Y16510D01*
X809839Y406698D01*
X809829Y406878D01*
X809829Y407059D01*
X809809Y407234D01*
X809799Y407409D01*
X809769Y407587D01*
X809749Y407767D01*
X809709Y407938D01*
X809680Y408112D01*
X809630Y408285D01*
X809590Y408461D01*
X809531Y408627D01*
X809483Y408796D01*
X809414Y408963D01*
X809354Y409133D01*
X809277Y409292D01*
X809210Y409454D01*
X809122Y409612D01*
X809044Y409775D01*
X808950Y409924D01*
X808865Y410078D01*
X808761Y410225D01*
X808664Y410378D01*
X808554Y410515D01*
X808453Y410659D01*
X808333Y410793D01*
X808220Y410934D01*
X808095Y411059D01*
X807978Y411190D01*
X807843Y411310D01*
X807715Y411437D01*
X807578Y411547D01*
X807446Y411664D01*
X807299Y411769D01*
X807158Y411881D01*
X807009Y411974D01*
X806865Y412076D01*
X806707Y412163D01*
X806554Y412259D01*
X806396Y412335D01*
X806241Y412420D01*
X806074Y412489D01*
X805912Y412567D01*
X805746Y412625D01*
X805583Y412693D01*
X805409Y412742D01*
X805239Y412802D01*
X805067Y412841D01*
X804898Y412889D01*
X804720Y412919D01*
X804544Y412959D01*
X804369Y412979D01*
X804196Y413008D01*
X804016Y413018D01*
X803836Y413038D01*
X803660Y413038D01*
X803484Y413047D01*
X803304Y413037D01*
X803124Y413037D01*
X802949Y413017D01*
X802773Y413007D01*
X802595Y412976D01*
X802416Y412956D01*
X802244Y412916D01*
X802071Y412887D01*
X801898Y412837D01*
X801722Y412796D01*
X801553Y412737D01*
X801386Y412689D01*
X801228Y412623D01*
X801060Y412564D01*
X798190Y411375D01*
X792810Y411375D01*
X787839Y413434D01*
X786108Y415166D01*
X786104Y415168D01*
X786101Y415172D01*
X785839Y415406D01*
X785576Y415640D01*
X785573Y415643D01*
X785570Y415646D01*
X785285Y415847D01*
X784995Y416053D01*
X784991Y416055D01*
X784988Y416057D01*
X784677Y416228D01*
X784372Y416397D01*
X784368Y416399D01*
X784364Y416401D01*
X784039Y416535D01*
X783713Y416670D01*
X783709Y416671D01*
X783705Y416672D01*
X783367Y416769D01*
X783029Y416867D01*
X783025Y416867D01*
X783020Y416868D01*
X782664Y416928D01*
X782326Y416986D01*
X782322Y416986D01*
X782318Y416987D01*
X781618Y417025D01*
X539507Y417025D01*
X539503Y417025D01*
X539499Y417025D01*
X539146Y417005D01*
X538796Y416985D01*
X538792Y416985D01*
X538787Y416984D01*
X538437Y416924D01*
X538094Y416866D01*
X538090Y416865D01*
X538085Y416864D01*
X537733Y416762D01*
X537409Y416669D01*
X537405Y416667D01*
X537401Y416666D01*
X537075Y416530D01*
X536751Y416396D01*
X536747Y416394D01*
X536743Y416392D01*
X536436Y416222D01*
X536128Y416051D01*
X536124Y416049D01*
X536120Y416046D01*
X535822Y415834D01*
X535547Y415639D01*
X535544Y415636D01*
X535540Y415633D01*
X535018Y415166D01*
X534503Y414651D01*
X528154Y408302D01*
X521805Y401953D01*
X521804Y401952D01*
X515456Y395604D01*
X515455Y395603D01*
X509106Y389254D01*
X502757Y382905D01*
X496408Y376556D01*
X447543Y327691D01*
X447424Y327557D01*
X447297Y327431D01*
X447187Y327292D01*
X447068Y327160D01*
X446965Y327014D01*
X446853Y326874D01*
X446759Y326723D01*
X446656Y326579D01*
X446570Y326422D01*
X446474Y326270D01*
X446397Y326110D01*
X446312Y325955D01*
X446243Y325790D01*
X446166Y325628D01*
X446107Y325461D01*
X446039Y325297D01*
X445990Y325125D01*
X445931Y324956D01*
X445891Y324783D01*
X445842Y324612D01*
X445812Y324436D01*
X445772Y324261D01*
X445753Y324085D01*
X445723Y323910D01*
X445713Y323731D01*
X445693Y323553D01*
X445693Y323376D01*
X445683Y323199D01*
X445693Y323020D01*
X445694Y322841D01*
X445714Y322665D01*
X445724Y322487D01*
X445754Y322311D01*
X445774Y322133D01*
X445813Y321960D01*
X445843Y321785D01*
X445893Y321613D01*
X445933Y321439D01*
X445992Y321271D01*
X446041Y321100D01*
X446110Y320935D01*
X446169Y320766D01*
X446246Y320606D01*
X446314Y320442D01*
X446401Y320286D01*
X446479Y320125D01*
X446573Y319975D01*
X446659Y319819D01*
X446763Y319673D01*
X446858Y319522D01*
X446969Y319383D01*
X447072Y319239D01*
X447191Y319105D01*
X447303Y318965D01*
X447429Y318840D01*
X447547Y318708D01*
X447680Y318589D01*
X447807Y318462D01*
X447946Y318352D01*
X448079Y318233D01*
X448225Y318130D01*
X448365Y318019D01*
X448515Y317924D01*
X448660Y317822D01*
X448817Y317735D01*
X448968Y317640D01*
X449128Y317564D01*
X449284Y317478D01*
X449450Y317409D01*
X449611Y317332D01*
X449778Y317274D01*
X449942Y317206D01*
X450115Y317157D01*
X450284Y317098D01*
X450457Y317059D01*
X450627Y317010D01*
X450804Y316980D01*
X450978Y316940D01*
X451155Y316921D01*
X451330Y316891D01*
X451509Y316881D01*
X451686Y316862D01*
X451864Y316862D01*
X452041Y316852D01*
X452220Y316862D01*
X452399Y316863D01*
X452575Y316883D01*
X452752Y316893D01*
X452929Y316923D01*
X453107Y316944D01*
X453280Y316983D01*
X453455Y317013D01*
X453627Y317063D01*
X453801Y317103D01*
X453971Y317163D01*
X454139Y317212D01*
X454296Y317277D01*
X454462Y317335D01*
X458396Y318965D01*
X461604Y318965D01*
X464568Y317737D01*
X465510Y316795D01*
X465512Y316793D01*
X465514Y316791D01*
X465792Y316543D01*
X466042Y316320D01*
X466044Y316319D01*
X466046Y316317D01*
X466350Y316102D01*
X466623Y315908D01*
X466625Y315907D01*
X466628Y315905D01*
X466941Y315732D01*
X467246Y315563D01*
X467249Y315562D01*
X467251Y315561D01*
X467585Y315423D01*
X467904Y315291D01*
X467907Y315290D01*
X467910Y315289D01*
X468254Y315190D01*
X468589Y315094D01*
X468592Y315093D01*
X468595Y315093D01*
X468954Y315032D01*
X469291Y314975D01*
X469294Y314975D01*
X469297Y314974D01*
X469661Y314954D01*
X470003Y314935D01*
X470006Y314935D01*
X470009Y314935D01*
X470362Y314955D01*
X470714Y314975D01*
X470717Y314976D01*
X470720Y314976D01*
X471069Y315036D01*
X471416Y315095D01*
X471419Y315096D01*
X471422Y315096D01*
X471767Y315197D01*
X472101Y315293D01*
X472103Y315294D01*
X472106Y315295D01*
X472422Y315426D01*
X472759Y315566D01*
X472762Y315567D01*
X472764Y315568D01*
X473073Y315740D01*
X473382Y315911D01*
X473384Y315913D01*
X473387Y315914D01*
X473687Y316128D01*
X473963Y316324D01*
X473965Y316326D01*
X473967Y316327D01*
X474490Y316795D01*
X475432Y317737D01*
X478396Y318965D01*
X481604Y318965D01*
X484568Y317737D01*
X486837Y315468D01*
X488065Y312504D01*
X488065Y312112D01*
X488065Y312107D01*
X488065Y312103D01*
X488085Y311750D01*
X488105Y311400D01*
X488105Y311396D01*
X488106Y311392D01*
X488166Y311041D01*
X488224Y310698D01*
X488225Y310694D01*
X488226Y310690D01*
X488328Y310338D01*
X488421Y310013D01*
X488423Y310010D01*
X488424Y310005D01*
X488560Y309679D01*
X488694Y309355D01*
X488696Y309351D01*
X488698Y309348D01*
X488873Y309032D01*
X489039Y308732D01*
X489041Y308729D01*
X489044Y308725D01*
X489261Y308419D01*
X489451Y308151D01*
X489454Y308148D01*
X489457Y308144D01*
X489924Y307622D01*
X490421Y307126D01*
X490538Y307021D01*
X490648Y306909D01*
X490703Y306865D01*
X491935Y305612D01*
X491955Y305594D01*
X491973Y305573D01*
X492616Y304931D01*
X492957Y304088D01*
X492968Y304063D01*
X492977Y304037D01*
X493651Y302410D01*
X493673Y302334D01*
X493730Y302197D01*
X493779Y302052D01*
X499640Y287555D01*
X499651Y287531D01*
X499660Y287505D01*
X500008Y286666D01*
X500000Y285756D01*
X500001Y285728D01*
X500000Y285701D01*
X500000Y284452D01*
X500000Y284447D01*
X500000Y284443D01*
X500021Y284080D01*
X500040Y283740D01*
X500040Y283736D01*
X500041Y283732D01*
X500101Y283377D01*
X500159Y283038D01*
X500160Y283034D01*
X500161Y283030D01*
X500261Y282685D01*
X500356Y282353D01*
X500358Y282349D01*
X500359Y282345D01*
X500497Y282014D01*
X500629Y281695D01*
X500631Y281691D01*
X500633Y281688D01*
X500809Y281371D01*
X500974Y281072D01*
X500976Y281069D01*
X500979Y281065D01*
X501191Y280766D01*
X501386Y280491D01*
X501389Y280488D01*
X501392Y280484D01*
X501859Y279962D01*
X504826Y276996D01*
X504826Y269104D01*
X499246Y263524D01*
X491354Y263524D01*
X487090Y267789D01*
X487087Y267791D01*
X487086Y267793D01*
X486819Y268031D01*
X486558Y268264D01*
X486556Y268265D01*
X486554Y268267D01*
X486257Y268477D01*
X485977Y268676D01*
X485975Y268677D01*
X485972Y268679D01*
X485658Y268853D01*
X485354Y269020D01*
X485351Y269021D01*
X485349Y269023D01*
X485021Y269158D01*
X484696Y269293D01*
X484693Y269294D01*
X484690Y269295D01*
X484352Y269392D01*
X484011Y269490D01*
X484008Y269490D01*
X484005Y269491D01*
X483640Y269553D01*
X483308Y269609D01*
X483306Y269609D01*
X483303Y269610D01*
X482937Y269630D01*
X482597Y269649D01*
X482594Y269648D01*
X482591Y269649D01*
X482240Y269628D01*
X481886Y269608D01*
X481883Y269608D01*
X481880Y269608D01*
X481537Y269549D01*
X481184Y269489D01*
X481181Y269488D01*
X481178Y269487D01*
X480825Y269385D01*
X480499Y269291D01*
X480497Y269290D01*
X480494Y269289D01*
X480158Y269149D01*
X479841Y269018D01*
X479839Y269016D01*
X479836Y269015D01*
X479520Y268840D01*
X479218Y268673D01*
X479216Y268671D01*
X479213Y268670D01*
X478928Y268467D01*
X478637Y268260D01*
X478635Y268258D01*
X478633Y268257D01*
X478110Y267789D01*
X473846Y263524D01*
X465954Y263524D01*
X459233Y270246D01*
X459231Y270247D01*
X459229Y270250D01*
X458964Y270486D01*
X458702Y270720D01*
X458700Y270722D01*
X458697Y270724D01*
X458400Y270934D01*
X458121Y271132D01*
X458118Y271134D01*
X458116Y271136D01*
X457801Y271309D01*
X457497Y271477D01*
X457495Y271478D01*
X457492Y271479D01*
X457162Y271616D01*
X456839Y271749D01*
X456836Y271750D01*
X456834Y271751D01*
X456496Y271848D01*
X456154Y271946D01*
X456152Y271947D01*
X456149Y271948D01*
X455784Y272009D01*
X455452Y272066D01*
X455449Y272066D01*
X455446Y272066D01*
X455080Y272086D01*
X454741Y272105D01*
X454738Y272105D01*
X454735Y272105D01*
X454384Y272085D01*
X454029Y272065D01*
X454026Y272064D01*
X454024Y272064D01*
X453680Y272005D01*
X453327Y271945D01*
X453324Y271944D01*
X453321Y271944D01*
X452969Y271842D01*
X452643Y271748D01*
X452640Y271747D01*
X452637Y271746D01*
X452305Y271607D01*
X451985Y271475D01*
X451982Y271473D01*
X451979Y271472D01*
X451679Y271305D01*
X451361Y271129D01*
X451359Y271128D01*
X451356Y271126D01*
X451080Y270929D01*
X450781Y270717D01*
X450778Y270715D01*
X450776Y270713D01*
X450254Y270246D01*
X444499Y264491D01*
X444499Y273050D01*
X444499Y273053D01*
X444499Y273055D01*
X444480Y273399D01*
X444459Y273761D01*
X444459Y273764D01*
X444459Y273767D01*
X444401Y274107D01*
X444340Y274463D01*
X444339Y274466D01*
X444339Y274469D01*
X444244Y274797D01*
X444143Y275148D01*
X444142Y275150D01*
X444141Y275153D01*
X444006Y275477D01*
X443870Y275806D01*
X443868Y275809D01*
X443867Y275811D01*
X443701Y276112D01*
X443525Y276429D01*
X443524Y276432D01*
X443522Y276434D01*
X443320Y276718D01*
X443113Y277010D01*
X443111Y277012D01*
X443109Y277015D01*
X442875Y277276D01*
X442638Y277541D01*
X442636Y277543D01*
X442634Y277545D01*
X442374Y277776D01*
X442106Y278016D01*
X442104Y278017D01*
X442102Y278019D01*
X441824Y278216D01*
X441525Y278428D01*
X441522Y278429D01*
X441520Y278431D01*
X441224Y278594D01*
X440901Y278772D01*
X440899Y278773D01*
X440896Y278774D01*
X440578Y278906D01*
X440243Y279044D01*
X440240Y279045D01*
X440238Y279046D01*
X439909Y279140D01*
X439558Y279241D01*
X439555Y279241D01*
X439553Y279242D01*
X439199Y279302D01*
X438856Y279360D01*
X438853Y279360D01*
X438850Y279360D01*
X438150Y279399D01*
X438147Y279399D01*
X438144Y279399D01*
X437797Y279379D01*
X437439Y279359D01*
X437436Y279358D01*
X437433Y279358D01*
X437092Y279300D01*
X436736Y279240D01*
X436733Y279239D01*
X436731Y279238D01*
X436385Y279138D01*
X436052Y279042D01*
X436049Y279041D01*
X436046Y279040D01*
X435722Y278906D01*
X435394Y278769D01*
X435391Y278768D01*
X435388Y278767D01*
X435077Y278594D01*
X434770Y278425D01*
X434768Y278423D01*
X434765Y278422D01*
X434468Y278210D01*
X434189Y278012D01*
X434187Y278010D01*
X434185Y278009D01*
X433917Y277769D01*
X433658Y277537D01*
X433656Y277535D01*
X433654Y277533D01*
X433416Y277266D01*
X433184Y277006D01*
X433182Y277003D01*
X433180Y277001D01*
X432980Y276718D01*
X432772Y276425D01*
X432770Y276422D01*
X432769Y276420D01*
X432599Y276112D01*
X432428Y275801D01*
X432426Y275798D01*
X432425Y275796D01*
X432294Y275477D01*
X432155Y275142D01*
X432155Y275140D01*
X432154Y275137D01*
X432054Y274790D01*
X431959Y274458D01*
X431958Y274455D01*
X431957Y274452D01*
X431898Y274098D01*
X431840Y273755D01*
X431840Y273753D01*
X431839Y273750D01*
X431801Y273050D01*
X431801Y264491D01*
X429221Y267071D01*
X429219Y267072D01*
X429217Y267075D01*
X428942Y267320D01*
X428690Y267545D01*
X428688Y267547D01*
X428686Y267549D01*
X428388Y267759D01*
X428109Y267957D01*
X428106Y267959D01*
X428104Y267961D01*
X427789Y268134D01*
X427485Y268302D01*
X427483Y268303D01*
X427480Y268304D01*
X427155Y268439D01*
X426827Y268574D01*
X426824Y268575D01*
X426822Y268576D01*
X426485Y268673D01*
X426142Y268771D01*
X426140Y268772D01*
X426137Y268773D01*
X425772Y268834D01*
X425440Y268891D01*
X425437Y268891D01*
X425434Y268891D01*
X425069Y268911D01*
X424729Y268930D01*
X424726Y268930D01*
X424723Y268930D01*
X424372Y268910D01*
X424017Y268890D01*
X424015Y268889D01*
X424012Y268889D01*
X423669Y268830D01*
X423315Y268770D01*
X423312Y268769D01*
X423310Y268769D01*
X422957Y268667D01*
X422631Y268573D01*
X422628Y268572D01*
X422625Y268571D01*
X422293Y268432D01*
X421973Y268300D01*
X421970Y268298D01*
X421968Y268297D01*
X421667Y268130D01*
X421349Y267954D01*
X421347Y267953D01*
X421345Y267951D01*
X421068Y267754D01*
X420769Y267542D01*
X420767Y267540D01*
X420764Y267538D01*
X420242Y267071D01*
X416696Y263524D01*
X408804Y263524D01*
X403224Y269104D01*
X403224Y277047D01*
X403265Y277093D01*
X403266Y277094D01*
X403267Y277095D01*
X403470Y277381D01*
X403677Y277674D01*
X403678Y277675D01*
X403678Y277676D01*
X403858Y278002D01*
X404021Y278297D01*
X404022Y278298D01*
X404023Y278300D01*
X404155Y278619D01*
X404294Y278955D01*
X404294Y278957D01*
X404295Y278958D01*
X404390Y279289D01*
X404491Y279640D01*
X404491Y279641D01*
X404492Y279643D01*
X404547Y279968D01*
X404610Y280342D01*
X404610Y280344D01*
X404610Y280345D01*
X404629Y280678D01*
X404650Y281054D01*
X404650Y281055D01*
X404650Y281057D01*
X404631Y281378D01*
X404609Y281765D01*
X404609Y281767D01*
X404609Y281768D01*
X404558Y282069D01*
X404490Y282467D01*
X404489Y282469D01*
X404489Y282470D01*
X404395Y282796D01*
X404292Y283152D01*
X404291Y283153D01*
X404291Y283155D01*
X404167Y283453D01*
X404019Y283810D01*
X404018Y283811D01*
X404018Y283812D01*
X403853Y284109D01*
X403674Y284433D01*
X403673Y284434D01*
X403672Y284436D01*
X403481Y284705D01*
X403261Y285014D01*
X403260Y285015D01*
X403259Y285016D01*
X403063Y285236D01*
X402786Y285545D01*
X402785Y285546D01*
X402784Y285547D01*
X402517Y285785D01*
X402254Y286019D01*
X402253Y286020D01*
X402252Y286021D01*
X401962Y286226D01*
X401673Y286431D01*
X401672Y286431D01*
X401670Y286432D01*
X401382Y286591D01*
X401049Y286774D01*
X401048Y286775D01*
X401046Y286776D01*
X400743Y286901D01*
X400391Y287046D01*
X400389Y287047D01*
X400388Y287047D01*
X400064Y287140D01*
X399706Y287243D01*
X399704Y287243D01*
X399703Y287243D01*
X399352Y287302D01*
X399003Y287361D01*
X399002Y287361D01*
X399000Y287362D01*
X398300Y287400D01*
X349936Y287400D01*
X349870Y287397D01*
X347749Y287400D01*
X347744Y287400D01*
X347738Y287400D01*
X346809Y287400D01*
X345951Y287758D01*
X345945Y287760D01*
X345940Y287762D01*
X345082Y288117D01*
X344428Y288774D01*
X344424Y288777D01*
X344420Y288782D01*
X343761Y289441D01*
X343407Y290301D01*
X343404Y290306D01*
X343403Y290311D01*
X342592Y292268D01*
X342570Y292332D01*
X339213Y300475D01*
X339209Y300484D01*
X339206Y300494D01*
X339057Y300801D01*
X338905Y301118D01*
X338900Y301126D01*
X338896Y301135D01*
X338714Y301423D01*
X338527Y301721D01*
X338521Y301729D01*
X338516Y301738D01*
X338299Y302009D01*
X338084Y302279D01*
X338077Y302286D01*
X338071Y302294D01*
X337828Y302536D01*
X337581Y302784D01*
X337573Y302790D01*
X337566Y302797D01*
X337299Y303010D01*
X337025Y303229D01*
X337016Y303234D01*
X337009Y303240D01*
X336715Y303424D01*
X336422Y303609D01*
X336413Y303613D01*
X336405Y303618D01*
X335960Y303832D01*
X335781Y303919D01*
X335777Y303920D01*
X335773Y303922D01*
X335340Y304101D01*
X335169Y304161D01*
X335001Y304230D01*
X334833Y304279D01*
X334668Y304336D01*
X334491Y304377D01*
X334316Y304427D01*
X334144Y304456D01*
X333973Y304495D01*
X333793Y304515D01*
X333613Y304545D01*
X333439Y304555D01*
X333265Y304574D01*
X333084Y304574D01*
X332902Y304584D01*
X332727Y304574D01*
X332553Y304574D01*
X332372Y304554D01*
X332191Y304543D01*
X332019Y304514D01*
X331845Y304494D01*
X331668Y304454D01*
X331489Y304423D01*
X331321Y304374D01*
X331151Y304335D01*
X330979Y304275D01*
X330804Y304225D01*
X330643Y304157D01*
X330478Y304100D01*
X330315Y304021D01*
X330147Y303951D01*
X329994Y303866D01*
X329836Y303790D01*
X329683Y303694D01*
X329524Y303605D01*
X329381Y303504D01*
X329233Y303411D01*
X329092Y303298D01*
X328943Y303192D01*
X328811Y303074D01*
X328677Y302966D01*
X328554Y302844D01*
X328421Y302725D01*
X294696Y268999D01*
X294576Y268865D01*
X294448Y268737D01*
X294339Y268600D01*
X294221Y268468D01*
X294117Y268321D01*
X294004Y268180D01*
X293911Y268031D01*
X293809Y267887D01*
X293722Y267729D01*
X293626Y267576D01*
X293550Y267418D01*
X293465Y267264D01*
X293396Y267097D01*
X293317Y266934D01*
X293259Y266768D01*
X293192Y266605D01*
X293142Y266432D01*
X293083Y266262D01*
X293044Y266090D01*
X292995Y265921D01*
X292965Y265743D01*
X292925Y265567D01*
X292905Y265392D01*
X292876Y265218D01*
X292866Y265038D01*
X292846Y264859D01*
X292846Y264683D01*
X292836Y264507D01*
X292846Y264327D01*
X292847Y264146D01*
X292867Y263971D01*
X292877Y263796D01*
X292907Y263618D01*
X292927Y263439D01*
X292967Y263267D01*
X292996Y263093D01*
X293046Y262920D01*
X293087Y262744D01*
X293145Y262578D01*
X293194Y262409D01*
X293263Y262242D01*
X293323Y262072D01*
X293399Y261914D01*
X293467Y261751D01*
X293554Y261593D01*
X293633Y261431D01*
X293727Y261282D01*
X293812Y261128D01*
X293917Y260981D01*
X294013Y260828D01*
X294123Y260690D01*
X294225Y260547D01*
X294345Y260413D01*
X294458Y260272D01*
X294583Y260147D01*
X294700Y260016D01*
X294835Y259896D01*
X294962Y259769D01*
X295100Y259659D01*
X295232Y259542D01*
X295379Y259438D01*
X295520Y259325D01*
X295669Y259232D01*
X295813Y259130D01*
X295971Y259043D01*
X296124Y258947D01*
X296285Y258870D01*
X296437Y258786D01*
X296596Y258721D01*
X296756Y258644D01*
X297392Y258380D01*
X298747Y257598D01*
X299989Y256645D01*
X300310Y256324D01*
X300313Y256322D01*
X300315Y256319D01*
X300578Y256084D01*
X300842Y255849D01*
X300844Y255847D01*
X300846Y255845D01*
X301136Y255640D01*
X301423Y255437D01*
X301425Y255435D01*
X301428Y255433D01*
X301750Y255256D01*
X302046Y255092D01*
X302049Y255091D01*
X302052Y255090D01*
X302392Y254949D01*
X302705Y254820D01*
X302707Y254819D01*
X302710Y254818D01*
X303059Y254718D01*
X303389Y254623D01*
X303392Y254622D01*
X303395Y254621D01*
X303750Y254561D01*
X304092Y254504D01*
X304094Y254503D01*
X304097Y254503D01*
X304455Y254483D01*
X304803Y254464D01*
X304806Y254464D01*
X304809Y254464D01*
X305152Y254484D01*
X305514Y254504D01*
X305517Y254505D01*
X305520Y254505D01*
X305855Y254562D01*
X306216Y254624D01*
X306219Y254625D01*
X306222Y254625D01*
X306568Y254725D01*
X306901Y254822D01*
X306903Y254823D01*
X306906Y254823D01*
X307241Y254963D01*
X307559Y255095D01*
X307561Y255096D01*
X307564Y255097D01*
X307865Y255264D01*
X308182Y255440D01*
X308185Y255441D01*
X308187Y255443D01*
X308471Y255645D01*
X308763Y255852D01*
X308765Y255854D01*
X308767Y255856D01*
X309290Y256324D01*
X309611Y256645D01*
X310853Y257598D01*
X311151Y257770D01*
X311151Y253999D01*
X292100Y253999D01*
X292097Y253999D01*
X292095Y253999D01*
X291747Y253980D01*
X291389Y253959D01*
X291386Y253959D01*
X291383Y253959D01*
X291043Y253901D01*
X290687Y253840D01*
X290684Y253839D01*
X290681Y253839D01*
X290336Y253739D01*
X290002Y253643D01*
X290000Y253642D01*
X289997Y253641D01*
X289666Y253503D01*
X289344Y253370D01*
X289341Y253368D01*
X289339Y253367D01*
X289027Y253195D01*
X288721Y253025D01*
X288718Y253024D01*
X288716Y253022D01*
X288417Y252809D01*
X288140Y252613D01*
X288138Y252611D01*
X288135Y252609D01*
X287867Y252369D01*
X287609Y252138D01*
X287607Y252136D01*
X287605Y252134D01*
X287357Y251856D01*
X287134Y251606D01*
X287133Y251604D01*
X287131Y251602D01*
X286932Y251321D01*
X286722Y251025D01*
X286721Y251022D01*
X286719Y251020D01*
X286556Y250724D01*
X286378Y250401D01*
X286377Y250399D01*
X286376Y250396D01*
X286244Y250078D01*
X286106Y249743D01*
X286105Y249740D01*
X286104Y249738D01*
X286006Y249394D01*
X285909Y249058D01*
X285909Y249055D01*
X285908Y249053D01*
X285846Y248686D01*
X285790Y248356D01*
X285790Y248353D01*
X285790Y248350D01*
X285751Y247650D01*
X285751Y247647D01*
X285751Y247644D01*
X285771Y247297D01*
X285791Y246939D01*
X285792Y246936D01*
X285792Y246933D01*
X285850Y246592D01*
X285910Y246236D01*
X285911Y246233D01*
X285912Y246231D01*
X286014Y245876D01*
X286108Y245552D01*
X286109Y245549D01*
X286110Y245546D01*
X286246Y245217D01*
X286381Y244894D01*
X286382Y244891D01*
X286383Y244888D01*
X286556Y244577D01*
X286725Y244270D01*
X286727Y244268D01*
X286728Y244265D01*
X286942Y243964D01*
X287138Y243689D01*
X287140Y243687D01*
X287141Y243685D01*
X287389Y243409D01*
X287613Y243158D01*
X287615Y243156D01*
X287617Y243154D01*
X287884Y242916D01*
X288144Y242684D01*
X288147Y242682D01*
X288149Y242680D01*
X288429Y242482D01*
X288725Y242272D01*
X288728Y242270D01*
X288730Y242269D01*
X289027Y242106D01*
X289349Y241928D01*
X289352Y241926D01*
X289354Y241925D01*
X289673Y241794D01*
X290008Y241655D01*
X290010Y241655D01*
X290013Y241654D01*
X290342Y241559D01*
X290692Y241459D01*
X290695Y241458D01*
X290698Y241457D01*
X291052Y241398D01*
X291395Y241340D01*
X291397Y241340D01*
X291400Y241339D01*
X292100Y241301D01*
X317500Y241301D01*
X327620Y241301D01*
X327448Y241003D01*
X326495Y239761D01*
X325455Y238721D01*
X325453Y238719D01*
X325451Y238717D01*
X325218Y238455D01*
X324980Y238190D01*
X324979Y238188D01*
X324977Y238185D01*
X324772Y237896D01*
X324568Y237609D01*
X324567Y237606D01*
X324565Y237604D01*
X324398Y237301D01*
X324224Y236985D01*
X324223Y236983D01*
X324221Y236980D01*
X324087Y236656D01*
X323951Y236327D01*
X323950Y236324D01*
X323949Y236322D01*
X323857Y236001D01*
X323754Y235643D01*
X323754Y235639D01*
X323753Y235637D01*
X323695Y235295D01*
X323635Y234940D01*
X323635Y234937D01*
X323634Y234934D01*
X323615Y234575D01*
X323595Y234229D01*
X323596Y234226D01*
X323595Y234223D01*
X323617Y233846D01*
X323636Y233518D01*
X323636Y233515D01*
X323636Y233512D01*
X323699Y233148D01*
X323755Y232815D01*
X323756Y232813D01*
X323757Y232810D01*
X323859Y232455D01*
X323953Y232131D01*
X323954Y232128D01*
X323955Y232125D01*
X324090Y231800D01*
X324226Y231473D01*
X324228Y231470D01*
X324229Y231468D01*
X324398Y231163D01*
X324571Y230849D01*
X324573Y230847D01*
X324574Y230845D01*
X324773Y230565D01*
X324984Y230269D01*
X324986Y230267D01*
X324988Y230264D01*
X325455Y229742D01*
X326760Y228437D01*
X328423Y224423D01*
X328423Y220077D01*
X326760Y216063D01*
X324059Y213362D01*
X324056Y213359D01*
X324053Y213356D01*
X323822Y213097D01*
X323585Y212831D01*
X323582Y212828D01*
X323579Y212824D01*
X323375Y212535D01*
X323173Y212250D01*
X323170Y212246D01*
X323168Y212243D01*
X322995Y211929D01*
X322828Y211626D01*
X322826Y211622D01*
X322824Y211619D01*
X322687Y211286D01*
X322556Y210968D01*
X322554Y210964D01*
X322553Y210960D01*
X322454Y210617D01*
X322358Y210284D01*
X322358Y210279D01*
X322357Y210275D01*
X322297Y209921D01*
X322239Y209581D01*
X322239Y209577D01*
X322238Y209573D01*
X322200Y208873D01*
X322200Y161826D01*
X322200Y161822D01*
X322200Y161817D01*
X322220Y161460D01*
X322240Y161115D01*
X322240Y161110D01*
X322241Y161106D01*
X322301Y160755D01*
X322359Y160412D01*
X322360Y160408D01*
X322361Y160404D01*
X322463Y160052D01*
X322556Y159728D01*
X322558Y159724D01*
X322559Y159720D01*
X322695Y159394D01*
X322829Y159070D01*
X322831Y159066D01*
X322833Y159062D01*
X323003Y158755D01*
X323174Y158446D01*
X323176Y158443D01*
X323179Y158439D01*
X323391Y158140D01*
X323586Y157865D01*
X323589Y157862D01*
X323592Y157859D01*
X324059Y157336D01*
X325629Y155767D01*
X325629Y149033D01*
X320867Y144271D01*
X314133Y144271D01*
X307639Y150766D01*
X307638Y150767D01*
X307637Y150768D01*
X307359Y151015D01*
X307107Y151240D01*
X307106Y151241D01*
X307105Y151242D01*
X306797Y151460D01*
X306526Y151653D01*
X306525Y151653D01*
X306524Y151654D01*
X306197Y151835D01*
X305903Y151997D01*
X305901Y151998D01*
X305900Y151998D01*
X305596Y152124D01*
X305244Y152270D01*
X305243Y152270D01*
X305242Y152271D01*
X304897Y152370D01*
X304560Y152467D01*
X304559Y152467D01*
X304557Y152467D01*
X304196Y152528D01*
X303857Y152586D01*
X303856Y152586D01*
X303855Y152586D01*
X303506Y152605D01*
X303146Y152625D01*
X303145Y152625D01*
X303143Y152625D01*
X302808Y152606D01*
X302435Y152585D01*
X302433Y152585D01*
X302432Y152585D01*
X302120Y152531D01*
X301733Y152465D01*
X301731Y152465D01*
X301730Y152465D01*
X301394Y152367D01*
X301048Y152268D01*
X301047Y152267D01*
X301045Y152267D01*
X300713Y152128D01*
X300390Y151995D01*
X300389Y151994D01*
X300388Y151993D01*
X300087Y151827D01*
X299767Y151650D01*
X299766Y151649D01*
X299764Y151648D01*
X299501Y151460D01*
X299186Y151237D01*
X299185Y151236D01*
X299184Y151235D01*
X298945Y151021D01*
X298655Y150762D01*
X298654Y150761D01*
X298653Y150760D01*
X298402Y150478D01*
X298181Y150230D01*
X298180Y150229D01*
X298179Y150228D01*
X297953Y149908D01*
X297769Y149649D01*
X297769Y149647D01*
X297768Y149646D01*
X297593Y149328D01*
X297426Y149025D01*
X297425Y149023D01*
X297424Y149022D01*
X297291Y148698D01*
X297154Y148366D01*
X297153Y148365D01*
X297153Y148363D01*
X297059Y148036D01*
X296957Y147681D01*
X296957Y147680D01*
X296957Y147679D01*
X296900Y147339D01*
X296839Y146979D01*
X296839Y146977D01*
X296838Y146976D01*
X296800Y146276D01*
X296800Y123726D01*
X296800Y123722D01*
X296800Y123717D01*
X296820Y123360D01*
X296840Y123015D01*
X296840Y123010D01*
X296841Y123006D01*
X296901Y122655D01*
X296959Y122312D01*
X296960Y122308D01*
X296961Y122304D01*
X297063Y121952D01*
X297156Y121628D01*
X297158Y121624D01*
X297159Y121620D01*
X297295Y121294D01*
X297429Y120970D01*
X297431Y120966D01*
X297433Y120962D01*
X297603Y120655D01*
X297774Y120346D01*
X297776Y120343D01*
X297779Y120339D01*
X297991Y120040D01*
X298186Y119765D01*
X298189Y119762D01*
X298192Y119759D01*
X298659Y119236D01*
X300229Y117667D01*
X300229Y110933D01*
X295467Y106171D01*
X288733Y106171D01*
X282239Y112666D01*
X282238Y112667D01*
X282237Y112668D01*
X281959Y112915D01*
X281707Y113140D01*
X281706Y113141D01*
X281705Y113142D01*
X281397Y113360D01*
X281126Y113553D01*
X281125Y113553D01*
X281124Y113554D01*
X280797Y113735D01*
X280503Y113897D01*
X280501Y113898D01*
X280500Y113898D01*
X280196Y114024D01*
X279844Y114170D01*
X279843Y114170D01*
X279842Y114171D01*
X279497Y114270D01*
X279160Y114367D01*
X279159Y114367D01*
X279157Y114367D01*
X278796Y114428D01*
X278457Y114486D01*
X278456Y114486D01*
X278455Y114486D01*
X278106Y114505D01*
X277746Y114525D01*
X277745Y114525D01*
X277743Y114525D01*
X277408Y114506D01*
X277035Y114485D01*
X277033Y114485D01*
X277032Y114485D01*
X276720Y114431D01*
X276333Y114365D01*
X276331Y114365D01*
X276330Y114365D01*
X275994Y114267D01*
X275648Y114168D01*
X275647Y114167D01*
X275645Y114167D01*
X275313Y114028D01*
X274990Y113895D01*
X274989Y113894D01*
X274988Y113893D01*
X274687Y113727D01*
X274367Y113550D01*
X274366Y113549D01*
X274364Y113548D01*
X274101Y113360D01*
X273786Y113137D01*
X273785Y113136D01*
X273784Y113135D01*
X273545Y112921D01*
X273255Y112662D01*
X273254Y112661D01*
X273253Y112660D01*
X272998Y112373D01*
X272781Y112130D01*
X272780Y112129D01*
X272779Y112128D01*
X272561Y111820D01*
X272369Y111549D01*
X272369Y111547D01*
X272368Y111546D01*
X272193Y111228D01*
X272026Y110925D01*
X272025Y110923D01*
X272024Y110922D01*
X271891Y110598D01*
X271754Y110266D01*
X271753Y110265D01*
X271753Y110263D01*
X271645Y109887D01*
X271557Y109581D01*
X271557Y109580D01*
X271557Y109579D01*
X271500Y109239D01*
X271439Y108879D01*
X271439Y108877D01*
X271438Y108876D01*
X271400Y108176D01*
X271400Y72926D01*
X271400Y72922D01*
X271400Y72917D01*
X271420Y72564D01*
X271440Y72215D01*
X271440Y72210D01*
X271441Y72206D01*
X271501Y71855D01*
X271559Y71512D01*
X271560Y71508D01*
X271561Y71504D01*
X271663Y71152D01*
X271756Y70828D01*
X271758Y70824D01*
X271759Y70820D01*
X271899Y70484D01*
X272029Y70170D01*
X272031Y70166D01*
X272033Y70162D01*
X272203Y69855D01*
X272374Y69546D01*
X272376Y69543D01*
X272379Y69539D01*
X272591Y69240D01*
X272786Y68965D01*
X272789Y68962D01*
X272792Y68959D01*
X273259Y68436D01*
X274829Y66867D01*
X274829Y60133D01*
X270067Y55371D01*
X263333Y55371D01*
X258571Y60133D01*
X258571Y66867D01*
X260141Y68436D01*
X260143Y68440D01*
X260147Y68442D01*
X260381Y68705D01*
X260615Y68968D01*
X260618Y68971D01*
X260621Y68974D01*
X260822Y69259D01*
X261028Y69549D01*
X261030Y69552D01*
X261032Y69556D01*
X261203Y69866D01*
X261372Y70172D01*
X261374Y70176D01*
X261376Y70180D01*
X261510Y70505D01*
X261645Y70831D01*
X261646Y70835D01*
X261647Y70839D01*
X261743Y71173D01*
X261842Y71515D01*
X261842Y71519D01*
X261843Y71523D01*
X261903Y71880D01*
X261961Y72218D01*
X261961Y72222D01*
X261962Y72226D01*
X262000Y72926D01*
X262000Y208873D01*
X262000Y208877D01*
X262000Y208881D01*
X261980Y209230D01*
X261960Y209584D01*
X261960Y209588D01*
X261959Y209592D01*
X261901Y209935D01*
X261841Y210286D01*
X261840Y210290D01*
X261839Y210295D01*
X261736Y210650D01*
X261644Y210971D01*
X261642Y210975D01*
X261641Y210979D01*
X261503Y211310D01*
X261371Y211629D01*
X261369Y211633D01*
X261367Y211637D01*
X261193Y211950D01*
X261026Y212252D01*
X261024Y212256D01*
X261021Y212260D01*
X260812Y212554D01*
X260614Y212833D01*
X260611Y212836D01*
X260608Y212840D01*
X260141Y213362D01*
X259208Y214295D01*
X259206Y214297D01*
X259204Y214299D01*
X258948Y214528D01*
X258677Y214770D01*
X258674Y214771D01*
X258672Y214773D01*
X258387Y214975D01*
X258096Y215182D01*
X258093Y215183D01*
X258091Y215185D01*
X257783Y215355D01*
X257472Y215526D01*
X257470Y215527D01*
X257467Y215529D01*
X257144Y215662D01*
X256814Y215799D01*
X256811Y215800D01*
X256808Y215801D01*
X256478Y215896D01*
X256129Y215996D01*
X256126Y215996D01*
X256124Y215997D01*
X255776Y216056D01*
X255427Y216115D01*
X255424Y216115D01*
X255421Y216116D01*
X255066Y216135D01*
X254716Y216155D01*
X254713Y216154D01*
X254710Y216155D01*
X254348Y216134D01*
X254004Y216114D01*
X254002Y216114D01*
X253999Y216114D01*
X253657Y216055D01*
X253302Y215995D01*
X253299Y215994D01*
X253296Y215993D01*
X252962Y215896D01*
X252618Y215797D01*
X252615Y215796D01*
X252612Y215795D01*
X252277Y215656D01*
X251960Y215524D01*
X251957Y215522D01*
X251954Y215521D01*
X251634Y215343D01*
X251336Y215179D01*
X251334Y215177D01*
X251331Y215176D01*
X251031Y214962D01*
X250756Y214766D01*
X250754Y214764D01*
X250751Y214762D01*
X250229Y214295D01*
X249189Y213255D01*
X247947Y212302D01*
X247649Y212130D01*
X247649Y222250D01*
X247649Y247650D01*
X247649Y257770D01*
X247947Y257598D01*
X249189Y256645D01*
X250229Y255605D01*
X250231Y255603D01*
X250233Y255601D01*
X250495Y255368D01*
X250760Y255130D01*
X250762Y255129D01*
X250765Y255127D01*
X251053Y254923D01*
X251341Y254718D01*
X251344Y254717D01*
X251346Y254715D01*
X251649Y254548D01*
X251965Y254374D01*
X251967Y254373D01*
X251970Y254371D01*
X252282Y254242D01*
X252623Y254101D01*
X252626Y254100D01*
X252628Y254099D01*
X252945Y254008D01*
X253307Y253904D01*
X253311Y253904D01*
X253313Y253903D01*
X253655Y253845D01*
X254010Y253785D01*
X254013Y253785D01*
X254016Y253784D01*
X254375Y253765D01*
X254721Y253745D01*
X254724Y253746D01*
X254727Y253745D01*
X255085Y253766D01*
X255432Y253786D01*
X255435Y253786D01*
X255438Y253786D01*
X255802Y253849D01*
X256135Y253905D01*
X256137Y253906D01*
X256140Y253907D01*
X256488Y254007D01*
X256819Y254103D01*
X256822Y254104D01*
X256825Y254105D01*
X257150Y254240D01*
X257477Y254376D01*
X257480Y254378D01*
X257482Y254379D01*
X257787Y254548D01*
X258101Y254721D01*
X258103Y254723D01*
X258105Y254724D01*
X258384Y254923D01*
X258681Y255134D01*
X258683Y255136D01*
X258686Y255138D01*
X259208Y255605D01*
X260513Y256910D01*
X264527Y258573D01*
X268346Y258573D01*
X268351Y258573D01*
X268355Y258573D01*
X268708Y258593D01*
X269058Y258613D01*
X269062Y258613D01*
X269066Y258614D01*
X269417Y258674D01*
X269760Y258732D01*
X269764Y258733D01*
X269768Y258734D01*
X270120Y258836D01*
X270445Y258929D01*
X270448Y258931D01*
X270453Y258932D01*
X270779Y259068D01*
X271103Y259202D01*
X271107Y259204D01*
X271110Y259206D01*
X271414Y259374D01*
X271726Y259547D01*
X271729Y259549D01*
X271733Y259552D01*
X272032Y259764D01*
X272307Y259959D01*
X272310Y259962D01*
X272314Y259965D01*
X272836Y260432D01*
X327288Y314884D01*
X329015Y315600D01*
X330665Y315600D01*
X330669Y315600D01*
X330673Y315600D01*
X331026Y315620D01*
X331376Y315640D01*
X331380Y315640D01*
X331384Y315641D01*
X331735Y315701D01*
X332078Y315759D01*
X332082Y315760D01*
X332087Y315761D01*
X332438Y315863D01*
X332763Y315956D01*
X332766Y315958D01*
X332771Y315959D01*
X333097Y316095D01*
X333421Y316229D01*
X333425Y316231D01*
X333429Y316233D01*
X333727Y316399D01*
X334044Y316574D01*
X334048Y316576D01*
X334052Y316579D01*
X334350Y316791D01*
X334625Y316986D01*
X334628Y316989D01*
X334632Y316992D01*
X335154Y317459D01*
X335432Y317737D01*
X338396Y318965D01*
X341604Y318965D01*
X344568Y317737D01*
X345510Y316795D01*
X345513Y316793D01*
X345515Y316791D01*
X345774Y316559D01*
X346042Y316320D01*
X346044Y316318D01*
X346046Y316317D01*
X346331Y316115D01*
X346623Y315908D01*
X346625Y315907D01*
X346628Y315905D01*
X346941Y315732D01*
X347246Y315563D01*
X347249Y315562D01*
X347251Y315561D01*
X347584Y315423D01*
X347905Y315291D01*
X347907Y315290D01*
X347910Y315289D01*
X348255Y315190D01*
X348589Y315094D01*
X348592Y315093D01*
X348595Y315093D01*
X348951Y315033D01*
X349292Y314975D01*
X349294Y314975D01*
X349297Y314974D01*
X349661Y314954D01*
X350003Y314935D01*
X350006Y314935D01*
X350009Y314935D01*
X350362Y314955D01*
X350714Y314975D01*
X350717Y314976D01*
X350720Y314976D01*
X351056Y315034D01*
X351416Y315095D01*
X351419Y315096D01*
X351422Y315096D01*
X351752Y315192D01*
X352101Y315293D01*
X352104Y315294D01*
X352106Y315295D01*
X352428Y315429D01*
X352759Y315566D01*
X352762Y315567D01*
X352764Y315568D01*
X353060Y315733D01*
X353382Y315911D01*
X353385Y315913D01*
X353387Y315914D01*
X353668Y316114D01*
X353963Y316324D01*
X353965Y316326D01*
X353967Y316327D01*
X354490Y316795D01*
X355432Y317737D01*
X358396Y318965D01*
X361604Y318965D01*
X364568Y317737D01*
X365510Y316795D01*
X365513Y316793D01*
X365515Y316791D01*
X365774Y316559D01*
X366042Y316320D01*
X366044Y316318D01*
X366046Y316317D01*
X366331Y316115D01*
X366623Y315908D01*
X366625Y315907D01*
X366628Y315905D01*
X366941Y315732D01*
X367246Y315563D01*
X367249Y315562D01*
X367251Y315561D01*
X367584Y315423D01*
X367905Y315291D01*
X367907Y315290D01*
X367910Y315289D01*
X368255Y315190D01*
X368589Y315094D01*
X368592Y315093D01*
X368595Y315093D01*
X368951Y315033D01*
X369292Y314975D01*
X369294Y314975D01*
X369297Y314974D01*
X369661Y314954D01*
X370003Y314935D01*
X370006Y314935D01*
X370009Y314935D01*
X370362Y314955D01*
X370714Y314975D01*
X370717Y314976D01*
X370720Y314976D01*
X371056Y315034D01*
X371416Y315095D01*
X371419Y315096D01*
X371422Y315096D01*
X371752Y315192D01*
X372101Y315293D01*
X372104Y315294D01*
X372106Y315295D01*
X372428Y315429D01*
X372759Y315566D01*
X372762Y315567D01*
X372764Y315568D01*
X373060Y315733D01*
X373382Y315911D01*
X373385Y315913D01*
X373387Y315914D01*
X373668Y316114D01*
X373963Y316324D01*
X373965Y316326D01*
X373967Y316327D01*
X374490Y316795D01*
X375432Y317737D01*
X378396Y318965D01*
X381604Y318965D01*
X384568Y317737D01*
X384792Y317513D01*
X384794Y317511D01*
X384796Y317509D01*
X385064Y317270D01*
X385323Y317039D01*
X385326Y317037D01*
X385328Y317035D01*
X385631Y316820D01*
X385904Y316626D01*
X385907Y316625D01*
X385909Y316623D01*
X386234Y316444D01*
X386528Y316282D01*
X386530Y316281D01*
X386533Y316279D01*
X386866Y316142D01*
X387186Y316009D01*
X387189Y316009D01*
X387192Y316007D01*
X387529Y315911D01*
X387871Y315812D01*
X387874Y315812D01*
X387876Y315811D01*
X388218Y315753D01*
X388573Y315693D01*
X388576Y315693D01*
X388579Y315693D01*
X388932Y315673D01*
X389284Y315654D01*
X389287Y315654D01*
X389290Y315654D01*
X389654Y315674D01*
X389996Y315694D01*
X389998Y315694D01*
X390002Y315695D01*
X390367Y315757D01*
X390698Y315814D01*
X390701Y315814D01*
X390704Y315815D01*
X391056Y315917D01*
X391382Y316011D01*
X391385Y316012D01*
X391388Y316013D01*
X391712Y316148D01*
X392040Y316284D01*
X392043Y316286D01*
X392046Y316287D01*
X392340Y316450D01*
X392664Y316629D01*
X392666Y316631D01*
X392669Y316633D01*
X392947Y316831D01*
X393244Y317042D01*
X393247Y317044D01*
X393249Y317046D01*
X393651Y317405D01*
X393651Y310900D01*
X393651Y310897D01*
X393651Y310895D01*
X393670Y310546D01*
X393691Y310189D01*
X393691Y310186D01*
X393691Y310183D01*
X393749Y309843D01*
X393810Y309487D01*
X393811Y309484D01*
X393811Y309481D01*
X393914Y309127D01*
X394007Y308802D01*
X394008Y308800D01*
X394009Y308797D01*
X394144Y308473D01*
X394280Y308144D01*
X394281Y308141D01*
X394283Y308139D01*
X394455Y307827D01*
X394625Y307521D01*
X394626Y307518D01*
X394628Y307516D01*
X394839Y307219D01*
X395037Y306940D01*
X395039Y306938D01*
X395041Y306935D01*
X395281Y306667D01*
X395512Y306409D01*
X395514Y306407D01*
X395516Y306405D01*
X395784Y306166D01*
X396044Y305934D01*
X396046Y305933D01*
X396048Y305931D01*
X396329Y305732D01*
X396625Y305522D01*
X396628Y305521D01*
X396630Y305519D01*
X396926Y305356D01*
X397249Y305178D01*
X397251Y305177D01*
X397254Y305176D01*
X397575Y305043D01*
X397907Y304906D01*
X397910Y304905D01*
X397912Y304904D01*
X398241Y304810D01*
X398592Y304709D01*
X398595Y304709D01*
X398597Y304708D01*
X398951Y304648D01*
X399294Y304590D01*
X399297Y304590D01*
X399300Y304590D01*
X400000Y304551D01*
X400003Y304551D01*
X400006Y304551D01*
X400353Y304571D01*
X400711Y304591D01*
X400714Y304592D01*
X400717Y304592D01*
X401058Y304650D01*
X401414Y304710D01*
X401417Y304711D01*
X401419Y304712D01*
X401765Y304812D01*
X402098Y304908D01*
X402101Y304909D01*
X402104Y304910D01*
X402425Y305043D01*
X402756Y305181D01*
X402759Y305182D01*
X402762Y305183D01*
X403073Y305356D01*
X403380Y305525D01*
X403382Y305527D01*
X403385Y305528D01*
X403682Y305740D01*
X403961Y305938D01*
X403963Y305940D01*
X403965Y305941D01*
X404233Y306181D01*
X404492Y306413D01*
X404494Y306415D01*
X404496Y306417D01*
X404727Y306676D01*
X404966Y306944D01*
X404968Y306947D01*
X404970Y306949D01*
X405167Y307227D01*
X405378Y307525D01*
X405380Y307528D01*
X405381Y307530D01*
X405544Y307827D01*
X405722Y308149D01*
X405724Y308152D01*
X405725Y308154D01*
X405856Y308473D01*
X405995Y308808D01*
X405995Y308810D01*
X405996Y308813D01*
X406085Y309123D01*
X406191Y309492D01*
X406192Y309495D01*
X406193Y309498D01*
X406252Y309852D01*
X406310Y310195D01*
X406310Y310197D01*
X406311Y310200D01*
X406349Y310900D01*
X406349Y317405D01*
X406490Y317279D01*
X406760Y317039D01*
X406762Y317037D01*
X406765Y317035D01*
X407056Y316828D01*
X407341Y316626D01*
X407343Y316625D01*
X407346Y316623D01*
X407671Y316444D01*
X407965Y316282D01*
X407967Y316281D01*
X407970Y316279D01*
X408303Y316142D01*
X408623Y316009D01*
X408626Y316009D01*
X408628Y316007D01*
X408981Y315906D01*
X409307Y315812D01*
X409310Y315812D01*
X409313Y315811D01*
X409671Y315751D01*
X410010Y315693D01*
X410013Y315693D01*
X410016Y315693D01*
X410369Y315673D01*
X410721Y315654D01*
X410724Y315654D01*
X410727Y315654D01*
X411091Y315674D01*
X411432Y315694D01*
X411435Y315694D01*
X411438Y315695D01*
X411788Y315754D01*
X412135Y315814D01*
X412138Y315814D01*
X412141Y315815D01*
X412472Y315911D01*
X412819Y316011D01*
X412822Y316012D01*
X412825Y316013D01*
X413149Y316148D01*
X413477Y316284D01*
X413480Y316286D01*
X413483Y316287D01*
X413777Y316450D01*
X414100Y316629D01*
X414103Y316631D01*
X414105Y316632D01*
X414388Y316834D01*
X414681Y317042D01*
X414683Y317044D01*
X414686Y317046D01*
X415208Y317513D01*
X415575Y317881D01*
X415681Y317939D01*
X415822Y318040D01*
X415968Y318132D01*
X416112Y318246D01*
X416261Y318352D01*
X416392Y318470D01*
X416525Y318576D01*
X416649Y318700D01*
X416783Y318820D01*
X417745Y319782D01*
X417867Y319919D01*
X417997Y320048D01*
X418104Y320184D01*
X418220Y320313D01*
X418326Y320463D01*
X418440Y320606D01*
X418532Y320753D01*
X418632Y320894D01*
X418721Y321055D01*
X418818Y321210D01*
X418845Y321266D01*
X529155Y431576D01*
X532049Y432775D01*
X781618Y432775D01*
X781622Y432775D01*
X781627Y432775D01*
X781980Y432795D01*
X782329Y432815D01*
X782333Y432815D01*
X782338Y432816D01*
X782689Y432876D01*
X783032Y432934D01*
X783036Y432935D01*
X783040Y432936D01*
X783392Y433038D01*
X783716Y433131D01*
X783720Y433133D01*
X783724Y433134D01*
X784050Y433270D01*
X784374Y433404D01*
X784378Y433406D01*
X784382Y433408D01*
X784689Y433578D01*
X784998Y433749D01*
X785001Y433751D01*
X785005Y433754D01*
X785304Y433966D01*
X785579Y434161D01*
X785582Y434164D01*
X785585Y434167D01*
X786108Y434634D01*
X786884Y435410D01*
X786885Y435413D01*
X786888Y435414D01*
X787118Y435672D01*
X787358Y435942D01*
X787360Y435944D01*
X787362Y435946D01*
X787561Y436227D01*
X787770Y436523D01*
X787772Y436525D01*
X787774Y436528D01*
X787950Y436849D01*
X788115Y437146D01*
X788116Y437149D01*
X788117Y437151D01*
X788254Y437482D01*
X788387Y437805D01*
X788388Y437807D01*
X788389Y437810D01*
X788486Y438148D01*
X788584Y438489D01*
X788585Y438492D01*
X788586Y438495D01*
X788647Y438857D01*
X788704Y439192D01*
X788704Y439194D01*
X788704Y439197D01*
X788724Y439563D01*
X788743Y439903D01*
X788743Y439906D01*
X788743Y439909D01*
X788723Y440255D01*
X788703Y440614D01*
X788702Y440617D01*
X788702Y440620D01*
X788643Y440966D01*
X788583Y441316D01*
X788582Y441319D01*
X788582Y441322D01*
X788483Y441663D01*
X788386Y442001D01*
X788384Y442004D01*
X788384Y442006D01*
X788249Y442329D01*
X788112Y442659D01*
X788111Y442661D01*
X788110Y442664D01*
X787949Y442954D01*
X787767Y443282D01*
X787766Y443285D01*
X787764Y443287D01*
X787553Y443584D01*
X787355Y443863D01*
X787353Y443865D01*
X787351Y443867D01*
X786884Y444390D01*
X784034Y447239D01*
X781975Y452210D01*
X781975Y457590D01*
X784034Y462561D01*
X786884Y465410D01*
X786885Y465413D01*
X786888Y465414D01*
X787118Y465672D01*
X787358Y465942D01*
X787360Y465944D01*
X787362Y465946D01*
X787561Y466227D01*
X787770Y466523D01*
X787772Y466525D01*
X787774Y466528D01*
X787950Y466849D01*
X788115Y467146D01*
X788116Y467149D01*
X788117Y467151D01*
X788247Y467466D01*
X788387Y467805D01*
X788388Y467807D01*
X788389Y467810D01*
X788486Y468148D01*
X788584Y468489D01*
X788585Y468492D01*
X788586Y468495D01*
X788647Y468857D01*
X788704Y469192D01*
X788704Y469194D01*
X788704Y469197D01*
X788724Y469563D01*
X788743Y469903D01*
X788743Y469906D01*
X788743Y469909D01*
X788723Y470255D01*
X788703Y470614D01*
X788702Y470617D01*
X788702Y470620D01*
X788643Y470966D01*
X788583Y471316D01*
X788582Y471319D01*
X788582Y471322D01*
X788483Y471663D01*
X788386Y472001D01*
X788384Y472004D01*
X788384Y472006D01*
X788246Y472337D01*
X788112Y472659D01*
X788111Y472661D01*
X788110Y472664D01*
X787939Y472972D01*
X787767Y473282D01*
X787766Y473285D01*
X787764Y473287D01*
X787553Y473584D01*
X787355Y473863D01*
X787353Y473865D01*
X787351Y473867D01*
X786884Y474390D01*
X784034Y477239D01*
X781975Y482210D01*
X781975Y487590D01*
X784034Y492561D01*
X786884Y495410D01*
X786886Y495413D01*
X786888Y495414D01*
X787114Y495668D01*
X787358Y495942D01*
X787360Y495944D01*
X787362Y495946D01*
X787569Y496239D01*
X787770Y496523D01*
X787772Y496525D01*
X787773Y496528D01*
X787950Y496848D01*
X788115Y497146D01*
X788116Y497149D01*
X788117Y497151D01*
X788260Y497497D01*
X788387Y497804D01*
X788388Y497807D01*
X788389Y497810D01*
X788491Y498163D01*
X788584Y498489D01*
X788585Y498492D01*
X788586Y498495D01*
X788647Y498860D01*
X788704Y499192D01*
X788704Y499194D01*
X788704Y499197D01*
X788724Y499563D01*
X788743Y499903D01*
X788743Y499906D01*
X788743Y499909D01*
X788723Y500255D01*
X788703Y500614D01*
X788702Y500617D01*
X788702Y500620D01*
X788643Y500963D01*
X788583Y501316D01*
X788582Y501319D01*
X788582Y501322D01*
X788483Y501663D01*
X788386Y502001D01*
X788384Y502003D01*
X788384Y502006D01*
X788249Y502331D01*
X788112Y502659D01*
X788111Y502661D01*
X788110Y502664D01*
X787939Y502972D01*
X787767Y503282D01*
X787766Y503284D01*
X787764Y503287D01*
X787556Y503580D01*
X787355Y503863D01*
X787353Y503865D01*
X787351Y503867D01*
X786884Y504390D01*
X784034Y507239D01*
X781975Y512210D01*
X781975Y517590D01*
X784034Y522561D01*
X787839Y526366D01*
X792810Y528425D01*
X798190Y528425D01*
X801060Y527236D01*
X801231Y527176D01*
X801397Y527107D01*
X801566Y527059D01*
X801733Y527001D01*
X801909Y526960D01*
X802082Y526911D01*
X802255Y526881D01*
X802427Y526842D01*
X802607Y526822D01*
X802784Y526792D01*
X802960Y526782D01*
X803135Y526763D01*
X803316Y526763D01*
X803496Y526753D01*
X803672Y526763D01*
X803848Y526763D01*
X804027Y526783D01*
X804207Y526793D01*
X804380Y526823D01*
X804556Y526843D01*
X804732Y526883D01*
X804909Y526913D01*
X805078Y526962D01*
X805250Y527001D01*
X805420Y527061D01*
X805594Y527111D01*
X805756Y527179D01*
X805922Y527237D01*
X806085Y527315D01*
X806251Y527385D01*
X806406Y527470D01*
X806564Y527546D01*
X806717Y527642D01*
X806875Y527730D01*
X807018Y527832D01*
X807167Y527926D01*
X807308Y528038D01*
X807455Y528143D01*
X807586Y528260D01*
X807724Y528370D01*
X807851Y528498D01*
X807986Y528618D01*
X808103Y528750D01*
X808227Y528874D01*
X808340Y529016D01*
X808460Y529150D01*
X808561Y529294D01*
X808671Y529432D01*
X808767Y529585D01*
X808871Y529732D01*
X808956Y529886D01*
X809050Y530035D01*
X809128Y530198D01*
X809215Y530356D01*
X809282Y530518D01*
X809358Y530677D01*
X809418Y530848D01*
X809486Y531014D01*
X809535Y531184D01*
X809593Y531350D01*
X809633Y531526D01*
X809682Y531699D01*
X809712Y531873D01*
X809751Y532045D01*
X809771Y532224D01*
X809801Y532402D01*
X809810Y532581D01*
X809830Y532753D01*
X809829Y532925D01*
X809839Y533102D01*
X809839Y633490D01*
X809839Y633493D01*
X809839Y633496D01*
X809819Y633843D01*
X809799Y634201D01*
X809799Y634204D01*
X809799Y634207D01*
X809740Y634547D01*
X809680Y634904D01*
X809679Y634906D01*
X809679Y634909D01*
X809579Y635254D01*
X809483Y635588D01*
X809481Y635591D01*
X809481Y635594D01*
X809346Y635918D01*
X809210Y636246D01*
X809208Y636249D01*
X809207Y636251D01*
X809035Y636562D01*
X808865Y636870D01*
X808863Y636872D01*
X808862Y636875D01*
X808651Y637172D01*
X808453Y637451D01*
X808451Y637453D01*
X808449Y637455D01*
X808209Y637723D01*
X807978Y637982D01*
X807975Y637984D01*
X807974Y637986D01*
X807711Y638219D01*
X807446Y638456D01*
X807444Y638458D01*
X807442Y638460D01*
X807161Y638658D01*
X806865Y638868D01*
X806862Y638870D01*
X806860Y638871D01*
X806564Y639034D01*
X806241Y639212D01*
X806238Y639213D01*
X806236Y639215D01*
X805918Y639346D01*
X805583Y639484D01*
X805580Y639485D01*
X805577Y639486D01*
X805248Y639581D01*
X804898Y639681D01*
X804895Y639682D01*
X804893Y639682D01*
X804539Y639742D01*
X804196Y639800D01*
X804193Y639800D01*
X804190Y639801D01*
X803490Y639839D01*
X16510Y639839D01*
X16507Y639839D01*
X16504Y639839D01*
X16157Y639819D01*
X15799Y639799D01*
X15796Y639799D01*
X15793Y639799D01*
X15453Y639740D01*
X15096Y639680D01*
X15094Y639679D01*
X15091Y639679D01*
X14746Y639579D01*
X14412Y639483D01*
X14409Y639481D01*
X14406Y639481D01*
X14082Y639346D01*
X13754Y639210D01*
X13751Y639208D01*
X13749Y639207D01*
X13437Y639035D01*
X13130Y638865D01*
X13128Y638863D01*
X13125Y638862D01*
X12828Y638651D01*
X12549Y638453D01*
X12547Y638451D01*
X12545Y638449D01*
X12277Y638209D01*
X12018Y637978D01*
X12016Y637975D01*
X12014Y637974D01*
X11776Y637706D01*
X11544Y637446D01*
X11542Y637444D01*
X11540Y637442D01*
X11342Y637161D01*
X11132Y636865D01*
X11130Y636862D01*
X11129Y636860D01*
X10965Y636562D01*
X10788Y636241D01*
X10787Y636238D01*
X10785Y636236D01*
X10654Y635918D01*
X10516Y635583D01*
X10515Y635580D01*
X10514Y635577D01*
X10419Y635248D01*
X10319Y634898D01*
X10318Y634895D01*
X10318Y634893D01*
X10258Y634539D01*
X10200Y634196D01*
X10200Y634193D01*
X10199Y634190D01*
X10161Y633490D01*
X10161Y16510D01*
X10161Y16507D01*
X10161Y16504D01*
X10181Y16157D01*
X10201Y15799D01*
X10201Y15796D01*
X10201Y15793D01*
X10260Y15453D01*
X10320Y15096D01*
X10321Y15094D01*
X10321Y15091D01*
X10421Y14746D01*
X10517Y14412D01*
X10519Y14409D01*
X10519Y14406D01*
X10654Y14082D01*
X10790Y13754D01*
X10792Y13751D01*
X10793Y13749D01*
X10965Y13437D01*
X11135Y13130D01*
X11137Y13128D01*
X11138Y13125D01*
X11349Y12828D01*
X11547Y12549D01*
X11549Y12547D01*
X11551Y12545D01*
X11791Y12277D01*
X12022Y12018D01*
X12025Y12016D01*
X12026Y12014D01*
X12294Y11776D01*
X12554Y11544D01*
X12556Y11542D01*
X12558Y11540D01*
X12839Y11342D01*
X13135Y11132D01*
X13138Y11130D01*
X13140Y11129D01*
X13436Y10966D01*
X13759Y10788D01*
X13762Y10787D01*
X13764Y10785D01*
X14082Y10654D01*
X14417Y10516D01*
X14420Y10515D01*
X14423Y10514D01*
X14752Y10419D01*
X15102Y10319D01*
X15105Y10318D01*
X15107Y10318D01*
X15461Y10258D01*
X15804Y10200D01*
X15807Y10200D01*
X15810Y10199D01*
X16510Y10161D01*
X803490Y10161D01*
X803493Y10161D01*
G37*
%LPC*%
G36*
X390333Y36321D02*
X390333Y36321D01*
X385571Y41083D01*
X385571Y47817D01*
X387141Y49386D01*
X387143Y49390D01*
X387147Y49392D01*
X387381Y49655D01*
X387615Y49918D01*
X387618Y49921D01*
X387621Y49924D01*
X387822Y50209D01*
X388028Y50499D01*
X388030Y50502D01*
X388032Y50506D01*
X388203Y50816D01*
X388372Y51122D01*
X388374Y51126D01*
X388376Y51130D01*
X388510Y51455D01*
X388645Y51781D01*
X388646Y51785D01*
X388647Y51789D01*
X388744Y52125D01*
X388842Y52465D01*
X388842Y52469D01*
X388843Y52473D01*
X388903Y52830D01*
X388961Y53168D01*
X388961Y53172D01*
X388962Y53176D01*
X389000Y53876D01*
X389000Y54074D01*
X389000Y54078D01*
X389000Y54083D01*
X388980Y54436D01*
X388960Y54785D01*
X388960Y54790D01*
X388959Y54794D01*
X388899Y55145D01*
X388841Y55488D01*
X388840Y55492D01*
X388839Y55496D01*
X388737Y55848D01*
X388644Y56172D01*
X388642Y56176D01*
X388641Y56180D01*
X388505Y56506D01*
X388371Y56830D01*
X388369Y56834D01*
X388367Y56838D01*
X388199Y57141D01*
X388026Y57454D01*
X388024Y57457D01*
X388021Y57461D01*
X387809Y57760D01*
X387614Y58035D01*
X387611Y58038D01*
X387608Y58041D01*
X387141Y58564D01*
X385571Y60133D01*
X385571Y66867D01*
X389696Y70992D01*
X389698Y70994D01*
X389700Y70996D01*
X389936Y71260D01*
X390171Y71523D01*
X390172Y71525D01*
X390175Y71528D01*
X390385Y71825D01*
X390583Y72104D01*
X390585Y72107D01*
X390586Y72109D01*
X390760Y72424D01*
X390928Y72728D01*
X390929Y72730D01*
X390930Y72733D01*
X391067Y73063D01*
X391200Y73386D01*
X391201Y73389D01*
X391202Y73391D01*
X391299Y73729D01*
X391397Y74071D01*
X391398Y74073D01*
X391398Y74076D01*
X391460Y74441D01*
X391516Y74773D01*
X391516Y74776D01*
X391517Y74779D01*
X391537Y75145D01*
X391556Y75484D01*
X391556Y75487D01*
X391556Y75490D01*
X391536Y75833D01*
X391516Y76196D01*
X391515Y76199D01*
X391515Y76201D01*
X400050Y76201D01*
X407840Y76201D01*
X407770Y75960D01*
X407770Y75959D01*
X407770Y75957D01*
X407711Y75612D01*
X407651Y75258D01*
X407651Y75256D01*
X407651Y75255D01*
X407629Y74869D01*
X407611Y74546D01*
X407612Y74545D01*
X407611Y74543D01*
X407631Y74201D01*
X407652Y73835D01*
X407652Y73833D01*
X407652Y73832D01*
X407709Y73496D01*
X407771Y73133D01*
X407772Y73131D01*
X407772Y73130D01*
X407881Y72755D01*
X407969Y72448D01*
X407970Y72447D01*
X407970Y72445D01*
X408112Y72104D01*
X408242Y71790D01*
X408243Y71789D01*
X408243Y71788D01*
X408413Y71481D01*
X408587Y71167D01*
X408588Y71166D01*
X408589Y71164D01*
X408783Y70892D01*
X409000Y70586D01*
X409001Y70585D01*
X409002Y70584D01*
X409229Y70330D01*
X409475Y70055D01*
X409476Y70054D01*
X409477Y70053D01*
X409781Y69783D01*
X410007Y69581D01*
X410008Y69580D01*
X410009Y69579D01*
X410314Y69364D01*
X410588Y69169D01*
X410590Y69169D01*
X410591Y69168D01*
X410892Y69002D01*
X411212Y68826D01*
X411214Y68825D01*
X411215Y68824D01*
X411539Y68691D01*
X411871Y68554D01*
X411872Y68553D01*
X411873Y68553D01*
X412197Y68460D01*
X412555Y68357D01*
X412557Y68357D01*
X412558Y68357D01*
X412909Y68298D01*
X413258Y68239D01*
X413259Y68239D01*
X413261Y68238D01*
X413961Y68200D01*
X514576Y68200D01*
X514578Y68200D01*
X514579Y68200D01*
X514951Y68221D01*
X515287Y68240D01*
X515289Y68240D01*
X515290Y68240D01*
X515650Y68301D01*
X515990Y68359D01*
X515991Y68360D01*
X515993Y68360D01*
X516356Y68465D01*
X516674Y68556D01*
X516675Y68557D01*
X516677Y68557D01*
X517013Y68697D01*
X517332Y68829D01*
X517334Y68830D01*
X517335Y68830D01*
X517651Y69006D01*
X517956Y69174D01*
X517957Y69175D01*
X517958Y69176D01*
X518269Y69396D01*
X518537Y69586D01*
X518538Y69587D01*
X518539Y69588D01*
X518831Y69849D01*
X519068Y70061D01*
X519069Y70062D01*
X519070Y70063D01*
X519335Y70361D01*
X519542Y70593D01*
X519543Y70594D01*
X519544Y70595D01*
X519750Y70885D01*
X519954Y71174D01*
X519955Y71175D01*
X519956Y71177D01*
X520114Y71463D01*
X520298Y71798D01*
X520299Y71799D01*
X520300Y71800D01*
X520425Y72104D01*
X520571Y72456D01*
X520571Y72458D01*
X520571Y72459D01*
X520658Y72762D01*
X520767Y73141D01*
X520768Y73143D01*
X520768Y73144D01*
X520825Y73482D01*
X520886Y73843D01*
X520886Y73845D01*
X520886Y73846D01*
X520907Y74225D01*
X520925Y74555D01*
X520925Y74556D01*
X520925Y74558D01*
X520907Y74875D01*
X520885Y75266D01*
X520884Y75267D01*
X520884Y75269D01*
X520822Y75634D01*
X520765Y75968D01*
X520764Y75970D01*
X520764Y75971D01*
X520669Y76298D01*
X520567Y76653D01*
X520566Y76654D01*
X520566Y76655D01*
X520423Y76999D01*
X520293Y77310D01*
X520293Y77312D01*
X520292Y77313D01*
X520130Y77605D01*
X519948Y77934D01*
X519947Y77935D01*
X519946Y77936D01*
X519743Y78222D01*
X519535Y78514D01*
X519534Y78515D01*
X519533Y78516D01*
X519066Y79039D01*
X518921Y79183D01*
X518921Y85917D01*
X521987Y88982D01*
X521988Y88984D01*
X521989Y88984D01*
X522220Y89244D01*
X522461Y89514D01*
X522462Y89515D01*
X522463Y89516D01*
X522678Y89819D01*
X522874Y90095D01*
X522874Y90096D01*
X522875Y90097D01*
X523044Y90403D01*
X523218Y90718D01*
X523219Y90720D01*
X523219Y90721D01*
X523350Y91036D01*
X523491Y91377D01*
X523491Y91378D01*
X523492Y91379D01*
X523593Y91733D01*
X523688Y92061D01*
X523688Y92062D01*
X523688Y92064D01*
X523747Y92413D01*
X523807Y92764D01*
X523807Y92765D01*
X523807Y92766D01*
X523826Y93115D01*
X523846Y93475D01*
X523846Y93476D01*
X523846Y93478D01*
X523827Y93813D01*
X523806Y94186D01*
X523806Y94188D01*
X523806Y94189D01*
X523757Y94477D01*
X523686Y94888D01*
X523686Y94890D01*
X523686Y94891D01*
X523588Y95227D01*
X523489Y95573D01*
X523488Y95574D01*
X523488Y95576D01*
X523366Y95868D01*
X523216Y96231D01*
X523215Y96232D01*
X523214Y96233D01*
X523040Y96549D01*
X522871Y96854D01*
X522870Y96855D01*
X522869Y96857D01*
X522669Y97138D01*
X522458Y97435D01*
X522457Y97436D01*
X522456Y97437D01*
X522247Y97671D01*
X521983Y97966D01*
X521982Y97967D01*
X521981Y97968D01*
X521699Y98219D01*
X521451Y98440D01*
X521450Y98441D01*
X521449Y98442D01*
X521156Y98649D01*
X520870Y98852D01*
X520868Y98852D01*
X520867Y98853D01*
X520564Y99020D01*
X520246Y99195D01*
X520244Y99196D01*
X520243Y99197D01*
X519919Y99330D01*
X519587Y99467D01*
X519586Y99468D01*
X519584Y99468D01*
X519257Y99562D01*
X518902Y99664D01*
X518901Y99664D01*
X518900Y99664D01*
X518560Y99721D01*
X518200Y99782D01*
X518198Y99782D01*
X518197Y99783D01*
X517497Y99821D01*
X510983Y99821D01*
X509414Y101391D01*
X509410Y101393D01*
X509408Y101397D01*
X509145Y101631D01*
X508882Y101865D01*
X508879Y101868D01*
X508876Y101871D01*
X508591Y102072D01*
X508301Y102278D01*
X508298Y102280D01*
X508294Y102282D01*
X507984Y102453D01*
X507678Y102622D01*
X507674Y102624D01*
X507670Y102626D01*
X507345Y102760D01*
X507019Y102895D01*
X507015Y102896D01*
X507011Y102897D01*
X506673Y102994D01*
X506335Y103092D01*
X506331Y103092D01*
X506327Y103093D01*
X505970Y103153D01*
X505632Y103211D01*
X505628Y103211D01*
X505624Y103212D01*
X504924Y103250D01*
X424515Y103250D01*
X422788Y103966D01*
X422442Y104312D01*
X422439Y104314D01*
X422436Y104318D01*
X422173Y104552D01*
X421911Y104786D01*
X421907Y104789D01*
X421904Y104792D01*
X421619Y104993D01*
X421330Y105199D01*
X421326Y105201D01*
X421322Y105203D01*
X421012Y105374D01*
X420706Y105543D01*
X420702Y105545D01*
X420698Y105547D01*
X420374Y105681D01*
X420048Y105816D01*
X420044Y105817D01*
X420040Y105818D01*
X419701Y105915D01*
X419363Y106013D01*
X419359Y106013D01*
X419355Y106014D01*
X418999Y106074D01*
X418661Y106132D01*
X418657Y106132D01*
X418652Y106133D01*
X417952Y106171D01*
X415733Y106171D01*
X410971Y110933D01*
X410971Y117667D01*
X415733Y122429D01*
X422467Y122429D01*
X427419Y117477D01*
X427491Y117230D01*
X427585Y116901D01*
X427587Y116898D01*
X427587Y116895D01*
X427722Y116571D01*
X427858Y116243D01*
X427860Y116240D01*
X427861Y116238D01*
X428033Y115926D01*
X428203Y115619D01*
X428205Y115617D01*
X428206Y115614D01*
X428417Y115317D01*
X428615Y115038D01*
X428617Y115036D01*
X428619Y115034D01*
X428859Y114766D01*
X429090Y114507D01*
X429093Y114505D01*
X429094Y114503D01*
X429362Y114265D01*
X429622Y114033D01*
X429624Y114031D01*
X429626Y114029D01*
X429907Y113831D01*
X430203Y113621D01*
X430206Y113619D01*
X430208Y113618D01*
X430504Y113455D01*
X430827Y113277D01*
X430830Y113276D01*
X430832Y113274D01*
X431150Y113143D01*
X431485Y113005D01*
X431488Y113004D01*
X431491Y113003D01*
X431820Y112908D01*
X432170Y112808D01*
X432173Y112807D01*
X432175Y112807D01*
X432529Y112747D01*
X432872Y112689D01*
X432875Y112689D01*
X432878Y112688D01*
X433578Y112650D01*
X497091Y112650D01*
X497092Y112650D01*
X497093Y112650D01*
X497461Y112671D01*
X497802Y112690D01*
X497803Y112690D01*
X497805Y112690D01*
X498194Y112756D01*
X498504Y112809D01*
X498505Y112809D01*
X498507Y112810D01*
X498890Y112920D01*
X499189Y113006D01*
X499190Y113007D01*
X499191Y113007D01*
X499499Y113135D01*
X499847Y113279D01*
X499848Y113280D01*
X499849Y113280D01*
X500149Y113446D01*
X500470Y113624D01*
X500471Y113625D01*
X500473Y113626D01*
X500792Y113852D01*
X501051Y114036D01*
X501052Y114037D01*
X501053Y114038D01*
X501340Y114295D01*
X501582Y114511D01*
X501583Y114512D01*
X501584Y114513D01*
X501816Y114773D01*
X502057Y115043D01*
X502057Y115044D01*
X502058Y115045D01*
X502248Y115313D01*
X502469Y115624D01*
X502469Y115625D01*
X502470Y115627D01*
X502636Y115927D01*
X502813Y116248D01*
X502813Y116249D01*
X502814Y116250D01*
X502936Y116546D01*
X503085Y116906D01*
X503085Y116908D01*
X503086Y116909D01*
X503176Y117224D01*
X503282Y117591D01*
X503282Y117592D01*
X503282Y117594D01*
X503337Y117920D01*
X503400Y118293D01*
X503400Y118295D01*
X503401Y118296D01*
X503422Y118679D01*
X503440Y119005D01*
X503440Y119006D01*
X503440Y119008D01*
X503420Y119345D01*
X503399Y119716D01*
X503399Y119717D01*
X503399Y119719D01*
X503332Y120108D01*
X503279Y120418D01*
X503279Y120419D01*
X503278Y120421D01*
X503184Y120748D01*
X503081Y121103D01*
X503081Y121104D01*
X503080Y121105D01*
X502943Y121436D01*
X502808Y121760D01*
X502807Y121762D01*
X502807Y121763D01*
X502645Y122054D01*
X502462Y122384D01*
X502462Y122385D01*
X502461Y122386D01*
X502233Y122706D01*
X502049Y122964D01*
X502049Y122965D01*
X502048Y122966D01*
X501580Y123489D01*
X499063Y126006D01*
X498347Y127733D01*
X498347Y138967D01*
X499063Y140694D01*
X533803Y175434D01*
X535530Y176150D01*
X574774Y176150D01*
X574778Y176150D01*
X574783Y176150D01*
X575136Y176170D01*
X575485Y176190D01*
X575490Y176190D01*
X575494Y176191D01*
X575845Y176251D01*
X576188Y176309D01*
X576192Y176310D01*
X576196Y176311D01*
X576547Y176413D01*
X576872Y176506D01*
X576876Y176508D01*
X576880Y176509D01*
X577206Y176645D01*
X577530Y176779D01*
X577534Y176781D01*
X577538Y176783D01*
X577845Y176953D01*
X578154Y177124D01*
X578157Y177126D01*
X578161Y177129D01*
X578460Y177341D01*
X578735Y177536D01*
X578738Y177539D01*
X578741Y177542D01*
X579264Y178009D01*
X580833Y179579D01*
X587567Y179579D01*
X592329Y174817D01*
X592329Y168083D01*
X587567Y163321D01*
X580833Y163321D01*
X579264Y164891D01*
X579260Y164893D01*
X579258Y164897D01*
X578995Y165131D01*
X578732Y165365D01*
X578729Y165368D01*
X578726Y165371D01*
X578441Y165572D01*
X578151Y165778D01*
X578148Y165780D01*
X578144Y165782D01*
X577834Y165953D01*
X577528Y166122D01*
X577524Y166124D01*
X577520Y166126D01*
X577195Y166260D01*
X576869Y166395D01*
X576865Y166396D01*
X576861Y166397D01*
X576523Y166494D01*
X576185Y166592D01*
X576181Y166592D01*
X576177Y166593D01*
X575820Y166653D01*
X575482Y166711D01*
X575478Y166711D01*
X575474Y166712D01*
X574774Y166750D01*
X541042Y166750D01*
X541038Y166750D01*
X541033Y166750D01*
X540681Y166730D01*
X540331Y166710D01*
X540326Y166710D01*
X540322Y166709D01*
X539971Y166649D01*
X539628Y166591D01*
X539624Y166590D01*
X539620Y166589D01*
X539268Y166487D01*
X538944Y166394D01*
X538940Y166392D01*
X538936Y166391D01*
X538609Y166255D01*
X538285Y166121D01*
X538282Y166119D01*
X538278Y166117D01*
X537971Y165947D01*
X537662Y165776D01*
X537659Y165774D01*
X537655Y165771D01*
X537356Y165559D01*
X537081Y165364D01*
X537078Y165361D01*
X537074Y165358D01*
X536552Y164891D01*
X532343Y160681D01*
X532342Y160681D01*
X520550Y148889D01*
X520549Y148888D01*
X520548Y148887D01*
X520287Y148594D01*
X520075Y148357D01*
X520075Y148356D01*
X520074Y148355D01*
X519846Y148034D01*
X519663Y147776D01*
X519663Y147775D01*
X519662Y147774D01*
X519481Y147447D01*
X519319Y147153D01*
X519318Y147151D01*
X519317Y147150D01*
X519186Y146832D01*
X519046Y146494D01*
X519046Y146493D01*
X519045Y146492D01*
X518941Y146128D01*
X518849Y145810D01*
X518849Y145809D01*
X518849Y145807D01*
X518784Y145427D01*
X518730Y145107D01*
X518730Y145106D01*
X518730Y145105D01*
X518709Y144734D01*
X518690Y144396D01*
X518691Y144395D01*
X518690Y144393D01*
X518711Y144040D01*
X518731Y143685D01*
X518731Y143683D01*
X518731Y143682D01*
X518790Y143338D01*
X518850Y142983D01*
X518851Y142981D01*
X518851Y142980D01*
X518948Y142644D01*
X519048Y142298D01*
X519049Y142297D01*
X519049Y142295D01*
X519187Y141963D01*
X519321Y141640D01*
X519322Y141639D01*
X519322Y141638D01*
X519505Y141309D01*
X519666Y141017D01*
X519667Y141016D01*
X519668Y141014D01*
X519848Y140761D01*
X520079Y140436D01*
X520080Y140435D01*
X520081Y140434D01*
X520295Y140195D01*
X520554Y139905D01*
X520555Y139904D01*
X520556Y139903D01*
X520839Y139651D01*
X521086Y139431D01*
X521087Y139430D01*
X521088Y139429D01*
X521396Y139211D01*
X521667Y139019D01*
X521669Y139019D01*
X521670Y139018D01*
X521988Y138843D01*
X522291Y138676D01*
X522292Y138675D01*
X522294Y138674D01*
X522638Y138532D01*
X522950Y138404D01*
X522951Y138403D01*
X522952Y138403D01*
X523281Y138309D01*
X523634Y138207D01*
X523636Y138207D01*
X523637Y138207D01*
X523976Y138150D01*
X524337Y138089D01*
X524338Y138089D01*
X524340Y138088D01*
X525040Y138050D01*
X574774Y138050D01*
X574778Y138050D01*
X574783Y138050D01*
X575136Y138070D01*
X575485Y138090D01*
X575490Y138090D01*
X575494Y138091D01*
X575845Y138151D01*
X576188Y138209D01*
X576192Y138210D01*
X576196Y138211D01*
X576547Y138313D01*
X576872Y138406D01*
X576876Y138408D01*
X576880Y138409D01*
X577206Y138545D01*
X577530Y138679D01*
X577534Y138681D01*
X577538Y138683D01*
X577845Y138853D01*
X578154Y139024D01*
X578157Y139026D01*
X578161Y139029D01*
X578460Y139241D01*
X578735Y139436D01*
X578738Y139439D01*
X578741Y139442D01*
X579264Y139909D01*
X580833Y141479D01*
X587567Y141479D01*
X592329Y136717D01*
X592329Y129983D01*
X587567Y125221D01*
X580833Y125221D01*
X579264Y126791D01*
X579260Y126793D01*
X579258Y126797D01*
X578995Y127031D01*
X578732Y127265D01*
X578729Y127268D01*
X578726Y127271D01*
X578441Y127472D01*
X578151Y127678D01*
X578148Y127680D01*
X578144Y127682D01*
X577834Y127853D01*
X577528Y128022D01*
X577524Y128024D01*
X577520Y128026D01*
X577195Y128160D01*
X576869Y128295D01*
X576865Y128296D01*
X576861Y128297D01*
X576523Y128394D01*
X576185Y128492D01*
X576181Y128492D01*
X576177Y128493D01*
X575820Y128553D01*
X575482Y128611D01*
X575478Y128611D01*
X575474Y128612D01*
X574774Y128650D01*
X545874Y128650D01*
X545872Y128650D01*
X545871Y128650D01*
X545503Y128629D01*
X545163Y128610D01*
X545161Y128610D01*
X545160Y128610D01*
X544777Y128545D01*
X544460Y128491D01*
X544459Y128491D01*
X544457Y128490D01*
X544083Y128382D01*
X543776Y128294D01*
X543775Y128293D01*
X543773Y128293D01*
X543431Y128151D01*
X543118Y128021D01*
X543116Y128020D01*
X543115Y128020D01*
X542802Y127846D01*
X542494Y127676D01*
X542493Y127675D01*
X542492Y127674D01*
X542189Y127459D01*
X541913Y127264D01*
X541912Y127263D01*
X541911Y127262D01*
X541636Y127015D01*
X541382Y126789D01*
X541381Y126788D01*
X541380Y126787D01*
X541114Y126488D01*
X540908Y126257D01*
X540907Y126256D01*
X540906Y126255D01*
X540685Y125942D01*
X540496Y125676D01*
X540495Y125674D01*
X540494Y125673D01*
X540336Y125386D01*
X540152Y125052D01*
X540151Y125051D01*
X540150Y125050D01*
X540007Y124702D01*
X539879Y124394D01*
X539879Y124392D01*
X539879Y124391D01*
X539780Y124048D01*
X539683Y123709D01*
X539683Y123708D01*
X539682Y123706D01*
X539621Y123346D01*
X539564Y123007D01*
X539564Y123005D01*
X539564Y123004D01*
X539541Y122594D01*
X539525Y122295D01*
X539525Y122294D01*
X539525Y122292D01*
X539546Y121919D01*
X539565Y121584D01*
X539566Y121583D01*
X539566Y121581D01*
X539631Y121199D01*
X539685Y120882D01*
X539686Y120881D01*
X539686Y120879D01*
X539784Y120540D01*
X539883Y120197D01*
X539884Y120196D01*
X539884Y120195D01*
X540011Y119889D01*
X540157Y119540D01*
X540157Y119538D01*
X540158Y119537D01*
X540326Y119234D01*
X540502Y118916D01*
X540503Y118915D01*
X540504Y118914D01*
X540722Y118607D01*
X540915Y118336D01*
X540916Y118335D01*
X540917Y118334D01*
X541384Y117811D01*
X547879Y111317D01*
X547879Y104583D01*
X546834Y103538D01*
X546833Y103538D01*
X541384Y98089D01*
X541383Y98088D01*
X541382Y98087D01*
X541135Y97809D01*
X540910Y97557D01*
X540909Y97556D01*
X540908Y97555D01*
X540681Y97234D01*
X540497Y96976D01*
X540497Y96975D01*
X540496Y96974D01*
X540315Y96647D01*
X540153Y96353D01*
X540152Y96351D01*
X540152Y96350D01*
X540020Y96032D01*
X539880Y95694D01*
X539880Y95693D01*
X539879Y95692D01*
X539775Y95328D01*
X539683Y95010D01*
X539683Y95009D01*
X539683Y95007D01*
X539619Y94629D01*
X539564Y94307D01*
X539564Y94306D01*
X539564Y94305D01*
X539543Y93919D01*
X539525Y93596D01*
X539525Y93595D01*
X539525Y93593D01*
X539545Y93231D01*
X539565Y92885D01*
X539565Y92883D01*
X539565Y92882D01*
X539623Y92544D01*
X539685Y92183D01*
X539685Y92181D01*
X539685Y92180D01*
X539783Y91844D01*
X539882Y91498D01*
X539883Y91497D01*
X539883Y91495D01*
X540022Y91163D01*
X540155Y90840D01*
X540156Y90839D01*
X540157Y90838D01*
X540323Y90537D01*
X540500Y90217D01*
X540501Y90216D01*
X540502Y90214D01*
X540690Y89950D01*
X540913Y89636D01*
X540914Y89635D01*
X540915Y89634D01*
X541129Y89395D01*
X541388Y89105D01*
X541389Y89104D01*
X541390Y89103D01*
X541672Y88852D01*
X541920Y88631D01*
X541921Y88630D01*
X541922Y88629D01*
X542230Y88411D01*
X542501Y88219D01*
X542503Y88219D01*
X542504Y88218D01*
X542822Y88043D01*
X543125Y87876D01*
X543127Y87875D01*
X543128Y87874D01*
X543457Y87738D01*
X543784Y87604D01*
X543785Y87603D01*
X543787Y87603D01*
X544115Y87509D01*
X544469Y87407D01*
X544470Y87407D01*
X544471Y87407D01*
X544811Y87350D01*
X545171Y87289D01*
X545173Y87289D01*
X545174Y87288D01*
X545874Y87250D01*
X563372Y87250D01*
X563375Y87250D01*
X563378Y87250D01*
X563725Y87270D01*
X564083Y87290D01*
X564086Y87290D01*
X564089Y87290D01*
X564429Y87349D01*
X564786Y87409D01*
X564788Y87410D01*
X564791Y87410D01*
X565132Y87509D01*
X565470Y87606D01*
X565473Y87608D01*
X565476Y87608D01*
X565800Y87743D01*
X566128Y87879D01*
X566131Y87881D01*
X566133Y87882D01*
X566445Y88054D01*
X566752Y88224D01*
X566754Y88226D01*
X566757Y88227D01*
X567054Y88438D01*
X567333Y88636D01*
X567335Y88638D01*
X567337Y88640D01*
X567605Y88880D01*
X567864Y89111D01*
X567866Y89114D01*
X567868Y89115D01*
X568106Y89383D01*
X568338Y89643D01*
X568340Y89645D01*
X568342Y89647D01*
X568540Y89928D01*
X568750Y90224D01*
X568752Y90227D01*
X568753Y90229D01*
X568916Y90525D01*
X569094Y90848D01*
X569095Y90851D01*
X569097Y90853D01*
X569228Y91171D01*
X569366Y91506D01*
X569367Y91509D01*
X569368Y91512D01*
X569463Y91841D01*
X569530Y92076D01*
X574483Y97029D01*
X581217Y97029D01*
X585979Y92267D01*
X585979Y85533D01*
X584936Y84490D01*
X581135Y80690D01*
X581133Y80687D01*
X581131Y80686D01*
X580895Y80420D01*
X580661Y80158D01*
X580659Y80156D01*
X580657Y80154D01*
X580449Y79860D01*
X580248Y79577D01*
X580247Y79575D01*
X580245Y79573D01*
X580075Y79264D01*
X579904Y78954D01*
X579903Y78951D01*
X579901Y78949D01*
X579767Y78623D01*
X579631Y78296D01*
X579631Y78293D01*
X579630Y78290D01*
X579530Y77944D01*
X579434Y77611D01*
X579434Y77608D01*
X579433Y77605D01*
X579372Y77240D01*
X579315Y76908D01*
X579315Y76906D01*
X579315Y76903D01*
X579295Y76536D01*
X579276Y76197D01*
X579276Y76194D01*
X579276Y76191D01*
X579296Y75833D01*
X579316Y75486D01*
X579316Y75483D01*
X579317Y75480D01*
X579376Y75131D01*
X579436Y74784D01*
X579437Y74781D01*
X579437Y74778D01*
X579536Y74435D01*
X579633Y74099D01*
X579634Y74097D01*
X579635Y74094D01*
X579775Y73758D01*
X579906Y73441D01*
X579908Y73439D01*
X579909Y73436D01*
X580077Y73133D01*
X580251Y72818D01*
X580253Y72815D01*
X580255Y72813D01*
X580448Y72542D01*
X580664Y72237D01*
X580666Y72235D01*
X580668Y72233D01*
X581135Y71710D01*
X586060Y66785D01*
X586063Y66783D01*
X586064Y66781D01*
X586331Y66544D01*
X586592Y66311D01*
X586594Y66309D01*
X586596Y66307D01*
X586885Y66102D01*
X587173Y65898D01*
X587175Y65897D01*
X587178Y65895D01*
X587485Y65726D01*
X587796Y65554D01*
X587799Y65553D01*
X587801Y65551D01*
X588147Y65409D01*
X588454Y65281D01*
X588457Y65281D01*
X588460Y65280D01*
X588813Y65178D01*
X589139Y65084D01*
X589142Y65084D01*
X589145Y65083D01*
X589510Y65022D01*
X589842Y64965D01*
X589844Y64965D01*
X589847Y64965D01*
X590213Y64945D01*
X590553Y64926D01*
X590556Y64926D01*
X590559Y64926D01*
X590910Y64946D01*
X591264Y64966D01*
X591267Y64966D01*
X591270Y64967D01*
X591613Y65025D01*
X591966Y65086D01*
X591969Y65086D01*
X591972Y65087D01*
X592325Y65189D01*
X592651Y65283D01*
X592653Y65284D01*
X592656Y65285D01*
X592989Y65424D01*
X593309Y65556D01*
X593311Y65558D01*
X593314Y65559D01*
X593622Y65730D01*
X593932Y65901D01*
X593934Y65903D01*
X593937Y65905D01*
X594230Y66113D01*
X594513Y66314D01*
X594515Y66316D01*
X594517Y66318D01*
X595040Y66785D01*
X599883Y71629D01*
X606617Y71629D01*
X611379Y66867D01*
X611379Y60133D01*
X606617Y55371D01*
X599883Y55371D01*
X595040Y60215D01*
X595037Y60217D01*
X595036Y60219D01*
X594778Y60449D01*
X594508Y60689D01*
X594506Y60691D01*
X594504Y60693D01*
X594232Y60885D01*
X593927Y61102D01*
X593925Y61103D01*
X593922Y61105D01*
X593607Y61278D01*
X593304Y61446D01*
X593301Y61447D01*
X593299Y61449D01*
X592970Y61584D01*
X592645Y61719D01*
X592643Y61719D01*
X592640Y61720D01*
X592302Y61817D01*
X591961Y61916D01*
X591958Y61916D01*
X591955Y61917D01*
X591593Y61978D01*
X591258Y62035D01*
X591256Y62035D01*
X591253Y62035D01*
X590887Y62055D01*
X590547Y62074D01*
X590544Y62074D01*
X590541Y62074D01*
X590190Y62054D01*
X589836Y62034D01*
X589833Y62034D01*
X589830Y62033D01*
X589487Y61975D01*
X589134Y61914D01*
X589131Y61913D01*
X589128Y61913D01*
X588796Y61817D01*
X588449Y61717D01*
X588446Y61716D01*
X588444Y61715D01*
X588118Y61579D01*
X587791Y61444D01*
X587789Y61442D01*
X587786Y61441D01*
X587478Y61270D01*
X587168Y61099D01*
X587165Y61097D01*
X587163Y61095D01*
X586875Y60890D01*
X586587Y60686D01*
X586585Y60684D01*
X586583Y60682D01*
X586060Y60215D01*
X581217Y55371D01*
X574483Y55371D01*
X572914Y56941D01*
X572910Y56943D01*
X572908Y56947D01*
X572650Y57176D01*
X572382Y57415D01*
X572379Y57418D01*
X572376Y57421D01*
X572091Y57622D01*
X571801Y57828D01*
X571798Y57830D01*
X571794Y57832D01*
X571484Y58003D01*
X571178Y58172D01*
X571174Y58174D01*
X571170Y58176D01*
X570845Y58310D01*
X570519Y58445D01*
X570515Y58446D01*
X570511Y58447D01*
X570173Y58544D01*
X569835Y58642D01*
X569831Y58642D01*
X569827Y58643D01*
X569470Y58703D01*
X569132Y58761D01*
X569128Y58761D01*
X569124Y58762D01*
X568424Y58800D01*
X534611Y58800D01*
X534609Y58800D01*
X534608Y58800D01*
X534234Y58779D01*
X533899Y58760D01*
X533898Y58760D01*
X533897Y58760D01*
X533531Y58698D01*
X533197Y58641D01*
X533196Y58640D01*
X533194Y58640D01*
X532822Y58533D01*
X532513Y58444D01*
X532511Y58443D01*
X532510Y58443D01*
X532173Y58303D01*
X531854Y58171D01*
X531853Y58170D01*
X531852Y58170D01*
X531528Y57990D01*
X531231Y57826D01*
X531230Y57825D01*
X531229Y57824D01*
X530906Y57595D01*
X530650Y57414D01*
X530649Y57413D01*
X530648Y57412D01*
X530346Y57141D01*
X530119Y56939D01*
X530118Y56938D01*
X530117Y56937D01*
X529882Y56673D01*
X529645Y56407D01*
X529644Y56406D01*
X529643Y56405D01*
X529458Y56144D01*
X529233Y55826D01*
X529232Y55824D01*
X529231Y55823D01*
X529082Y55553D01*
X528888Y55202D01*
X528888Y55201D01*
X528887Y55200D01*
X528753Y54874D01*
X528616Y54544D01*
X528616Y54542D01*
X528615Y54541D01*
X528512Y54181D01*
X528420Y53859D01*
X528419Y53858D01*
X528419Y53856D01*
X528355Y53475D01*
X528301Y53157D01*
X528301Y53155D01*
X528300Y53154D01*
X528278Y52752D01*
X528261Y52445D01*
X528262Y52444D01*
X528261Y52442D01*
X528283Y52063D01*
X528302Y51734D01*
X528302Y51733D01*
X528302Y51731D01*
X528365Y51366D01*
X528422Y51032D01*
X528423Y51030D01*
X528423Y51029D01*
X528489Y50799D01*
X520700Y50799D01*
X512910Y50799D01*
X512980Y51040D01*
X512980Y51041D01*
X512980Y51043D01*
X513039Y51388D01*
X513099Y51742D01*
X513099Y51744D01*
X513099Y51745D01*
X513118Y52086D01*
X513139Y52454D01*
X513138Y52455D01*
X513139Y52457D01*
X513119Y52799D01*
X513098Y53165D01*
X513098Y53167D01*
X513098Y53168D01*
X513042Y53498D01*
X512979Y53867D01*
X512978Y53869D01*
X512978Y53870D01*
X512882Y54202D01*
X512781Y54552D01*
X512780Y54553D01*
X512780Y54555D01*
X512663Y54835D01*
X512508Y55210D01*
X512507Y55211D01*
X512507Y55212D01*
X512349Y55496D01*
X512163Y55833D01*
X512162Y55834D01*
X512161Y55836D01*
X511979Y56092D01*
X511750Y56414D01*
X511749Y56415D01*
X511748Y56416D01*
X511521Y56670D01*
X511275Y56945D01*
X511274Y56946D01*
X511273Y56947D01*
X511015Y57176D01*
X510743Y57419D01*
X510742Y57420D01*
X510741Y57421D01*
X510436Y57636D01*
X510162Y57831D01*
X510160Y57831D01*
X510159Y57832D01*
X509858Y57998D01*
X509538Y58174D01*
X509536Y58175D01*
X509535Y58176D01*
X509219Y58306D01*
X508879Y58446D01*
X508878Y58447D01*
X508877Y58447D01*
X508553Y58540D01*
X508195Y58643D01*
X508193Y58643D01*
X508192Y58643D01*
X507841Y58702D01*
X507492Y58761D01*
X507491Y58761D01*
X507489Y58762D01*
X506789Y58800D01*
X406174Y58800D01*
X406172Y58800D01*
X406171Y58800D01*
X405799Y58779D01*
X405463Y58760D01*
X405461Y58760D01*
X405460Y58760D01*
X405100Y58699D01*
X404760Y58641D01*
X404759Y58640D01*
X404757Y58640D01*
X404394Y58535D01*
X404076Y58444D01*
X404075Y58443D01*
X404073Y58443D01*
X403737Y58303D01*
X403418Y58171D01*
X403416Y58170D01*
X403415Y58170D01*
X403091Y57990D01*
X402794Y57826D01*
X402793Y57825D01*
X402792Y57824D01*
X402481Y57604D01*
X402213Y57414D01*
X402212Y57413D01*
X402211Y57412D01*
X401897Y57130D01*
X401682Y56939D01*
X401681Y56938D01*
X401680Y56937D01*
X401411Y56635D01*
X401208Y56407D01*
X401207Y56406D01*
X401206Y56405D01*
X400985Y56092D01*
X400796Y55826D01*
X400795Y55825D01*
X400794Y55823D01*
X400636Y55537D01*
X400452Y55202D01*
X400451Y55201D01*
X400450Y55200D01*
X400316Y54874D01*
X400179Y54544D01*
X400179Y54542D01*
X400179Y54541D01*
X400084Y54211D01*
X399983Y53859D01*
X399982Y53857D01*
X399982Y53856D01*
X399924Y53509D01*
X399864Y53157D01*
X399864Y53155D01*
X399864Y53154D01*
X399842Y52752D01*
X399825Y52445D01*
X399825Y52444D01*
X399825Y52442D01*
X399846Y52065D01*
X399865Y51734D01*
X399866Y51733D01*
X399866Y51731D01*
X399928Y51366D01*
X399985Y51032D01*
X399986Y51030D01*
X399986Y51029D01*
X400096Y50649D01*
X400183Y50347D01*
X400184Y50346D01*
X400184Y50345D01*
X400327Y50001D01*
X400457Y49690D01*
X400457Y49688D01*
X400458Y49687D01*
X400635Y49367D01*
X400802Y49066D01*
X400803Y49065D01*
X400804Y49064D01*
X401015Y48767D01*
X401215Y48486D01*
X401216Y48485D01*
X401217Y48484D01*
X401684Y47961D01*
X401829Y47817D01*
X401829Y41083D01*
X397067Y36321D01*
X390333Y36321D01*
G37*
%LPD*%
%LPC*%
G36*
X441133Y144271D02*
X441133Y144271D01*
X436371Y149033D01*
X436371Y155767D01*
X441133Y160529D01*
X449072Y160529D01*
X449075Y160529D01*
X449078Y160529D01*
X449425Y160549D01*
X449783Y160569D01*
X449786Y160569D01*
X449789Y160569D01*
X450129Y160628D01*
X450486Y160688D01*
X450488Y160689D01*
X450491Y160689D01*
X450836Y160789D01*
X451170Y160885D01*
X451173Y160887D01*
X451176Y160887D01*
X451500Y161022D01*
X451828Y161158D01*
X451831Y161160D01*
X451833Y161161D01*
X452141Y161331D01*
X452452Y161503D01*
X452454Y161505D01*
X452457Y161506D01*
X452754Y161717D01*
X453033Y161915D01*
X453035Y161917D01*
X453037Y161919D01*
X453305Y162159D01*
X453564Y162390D01*
X453566Y162393D01*
X453568Y162394D01*
X453806Y162662D01*
X454038Y162922D01*
X454040Y162924D01*
X454042Y162926D01*
X454240Y163207D01*
X454450Y163503D01*
X454452Y163506D01*
X454453Y163508D01*
X454606Y163786D01*
X454794Y164127D01*
X454795Y164130D01*
X454797Y164132D01*
X454928Y164450D01*
X455066Y164785D01*
X455067Y164788D01*
X455068Y164791D01*
X455158Y165105D01*
X455263Y165470D01*
X455264Y165473D01*
X455264Y165475D01*
X455324Y165829D01*
X455382Y166172D01*
X455382Y166175D01*
X455383Y166178D01*
X455421Y166878D01*
X455421Y168467D01*
X460265Y173310D01*
X460267Y173313D01*
X460269Y173314D01*
X460499Y173572D01*
X460739Y173842D01*
X460741Y173844D01*
X460743Y173846D01*
X460940Y174124D01*
X461152Y174423D01*
X461153Y174425D01*
X461155Y174428D01*
X461328Y174743D01*
X461496Y175046D01*
X461497Y175049D01*
X461499Y175051D01*
X461625Y175357D01*
X461769Y175705D01*
X461769Y175707D01*
X461770Y175710D01*
X461866Y176042D01*
X461966Y176389D01*
X461966Y176392D01*
X461967Y176395D01*
X462028Y176757D01*
X462085Y177092D01*
X462085Y177094D01*
X462085Y177097D01*
X462105Y177463D01*
X462124Y177803D01*
X462124Y177806D01*
X462124Y177809D01*
X462105Y178147D01*
X462084Y178514D01*
X462084Y178517D01*
X462083Y178520D01*
X462025Y178861D01*
X461964Y179216D01*
X461963Y179219D01*
X461963Y179222D01*
X461867Y179553D01*
X461767Y179901D01*
X461766Y179904D01*
X461765Y179906D01*
X461638Y180211D01*
X461494Y180559D01*
X461492Y180561D01*
X461491Y180564D01*
X461320Y180872D01*
X461149Y181182D01*
X461147Y181185D01*
X461145Y181187D01*
X460940Y181475D01*
X460736Y181763D01*
X460734Y181765D01*
X460732Y181767D01*
X460265Y182290D01*
X455421Y187133D01*
X455421Y193867D01*
X460183Y198629D01*
X468752Y198629D01*
X468757Y198629D01*
X468761Y198629D01*
X469114Y198649D01*
X469464Y198669D01*
X469468Y198669D01*
X469472Y198670D01*
X469823Y198730D01*
X470166Y198788D01*
X470170Y198789D01*
X470174Y198790D01*
X470526Y198892D01*
X470851Y198985D01*
X470854Y198987D01*
X470859Y198988D01*
X471185Y199124D01*
X471509Y199258D01*
X471513Y199260D01*
X471516Y199262D01*
X471821Y199431D01*
X472132Y199603D01*
X472135Y199605D01*
X472139Y199608D01*
X472438Y199820D01*
X472713Y200015D01*
X472716Y200018D01*
X472720Y200021D01*
X473242Y200488D01*
X517062Y244308D01*
X517064Y244311D01*
X517068Y244314D01*
X517302Y244577D01*
X517536Y244839D01*
X517539Y244843D01*
X517542Y244846D01*
X517737Y245122D01*
X517949Y245420D01*
X517951Y245424D01*
X517953Y245428D01*
X518124Y245738D01*
X518293Y246044D01*
X518295Y246048D01*
X518297Y246052D01*
X518428Y246369D01*
X518566Y246702D01*
X518567Y246706D01*
X518568Y246710D01*
X518664Y247045D01*
X518763Y247387D01*
X518763Y247391D01*
X518764Y247395D01*
X518824Y247749D01*
X518882Y248089D01*
X518882Y248093D01*
X518883Y248098D01*
X518921Y248798D01*
X518921Y251017D01*
X523683Y255779D01*
X530417Y255779D01*
X535179Y251017D01*
X535179Y244283D01*
X530417Y239521D01*
X528198Y239521D01*
X528193Y239521D01*
X528189Y239521D01*
X527836Y239501D01*
X527486Y239481D01*
X527482Y239481D01*
X527478Y239480D01*
X527127Y239420D01*
X526784Y239362D01*
X526780Y239361D01*
X526776Y239360D01*
X526424Y239258D01*
X526099Y239165D01*
X526096Y239163D01*
X526091Y239162D01*
X525765Y239026D01*
X525441Y238892D01*
X525437Y238890D01*
X525434Y238888D01*
X525126Y238717D01*
X524818Y238547D01*
X524815Y238545D01*
X524811Y238542D01*
X524512Y238330D01*
X524237Y238135D01*
X524234Y238132D01*
X524230Y238129D01*
X523708Y237662D01*
X522919Y236872D01*
X522918Y236872D01*
X511135Y225089D01*
X511134Y225088D01*
X511133Y225087D01*
X510885Y224809D01*
X510660Y224557D01*
X510660Y224556D01*
X510659Y224555D01*
X510431Y224234D01*
X510248Y223976D01*
X510247Y223975D01*
X510247Y223974D01*
X510063Y223642D01*
X509904Y223353D01*
X509903Y223351D01*
X509902Y223350D01*
X509771Y223032D01*
X509631Y222694D01*
X509631Y222693D01*
X509630Y222692D01*
X509516Y222293D01*
X509434Y222010D01*
X509434Y222009D01*
X509433Y222007D01*
X509372Y221641D01*
X509315Y221307D01*
X509315Y221306D01*
X509315Y221305D01*
X509293Y220919D01*
X509275Y220596D01*
X509275Y220595D01*
X509275Y220593D01*
X509295Y220258D01*
X509316Y219885D01*
X509316Y219883D01*
X509316Y219882D01*
X509375Y219538D01*
X509435Y219183D01*
X509436Y219181D01*
X509436Y219180D01*
X509541Y218815D01*
X509633Y218498D01*
X509634Y218497D01*
X509634Y218495D01*
X509772Y218163D01*
X509906Y217840D01*
X509907Y217839D01*
X509907Y217838D01*
X510074Y217537D01*
X510251Y217217D01*
X510252Y217216D01*
X510253Y217214D01*
X510440Y216952D01*
X510664Y216636D01*
X510665Y216635D01*
X510666Y216634D01*
X510889Y216385D01*
X511139Y216105D01*
X511140Y216104D01*
X511141Y216103D01*
X511438Y215839D01*
X511671Y215631D01*
X511672Y215630D01*
X511673Y215629D01*
X511981Y215411D01*
X512252Y215219D01*
X512253Y215219D01*
X512255Y215218D01*
X512573Y215043D01*
X512876Y214876D01*
X512877Y214875D01*
X512879Y214874D01*
X513202Y214741D01*
X513535Y214604D01*
X513536Y214603D01*
X513537Y214603D01*
X513866Y214509D01*
X514219Y214407D01*
X514221Y214407D01*
X514222Y214407D01*
X514561Y214350D01*
X514922Y214289D01*
X514923Y214289D01*
X514925Y214288D01*
X515625Y214250D01*
X517624Y214250D01*
X517628Y214250D01*
X517633Y214250D01*
X517986Y214270D01*
X518335Y214290D01*
X518340Y214290D01*
X518344Y214291D01*
X518695Y214351D01*
X519038Y214409D01*
X519042Y214410D01*
X519046Y214411D01*
X519397Y214513D01*
X519722Y214606D01*
X519726Y214608D01*
X519730Y214609D01*
X520056Y214745D01*
X520380Y214879D01*
X520384Y214881D01*
X520388Y214883D01*
X520695Y215053D01*
X521004Y215224D01*
X521007Y215226D01*
X521011Y215229D01*
X521308Y215440D01*
X521585Y215636D01*
X521588Y215639D01*
X521591Y215642D01*
X522114Y216109D01*
X523683Y217679D01*
X530417Y217679D01*
X535179Y212917D01*
X535179Y206183D01*
X530417Y201421D01*
X523683Y201421D01*
X522114Y202991D01*
X522110Y202993D01*
X522108Y202997D01*
X521850Y203226D01*
X521582Y203465D01*
X521579Y203468D01*
X521576Y203471D01*
X521291Y203672D01*
X521001Y203878D01*
X520998Y203880D01*
X520994Y203882D01*
X520684Y204053D01*
X520378Y204222D01*
X520374Y204224D01*
X520370Y204226D01*
X520045Y204360D01*
X519719Y204495D01*
X519715Y204496D01*
X519711Y204497D01*
X519373Y204594D01*
X519035Y204692D01*
X519031Y204692D01*
X519027Y204693D01*
X518670Y204753D01*
X518332Y204811D01*
X518328Y204811D01*
X518324Y204812D01*
X517624Y204850D01*
X512577Y204850D01*
X512572Y204850D01*
X512568Y204850D01*
X512215Y204830D01*
X511865Y204810D01*
X511861Y204810D01*
X511857Y204809D01*
X511506Y204749D01*
X511163Y204691D01*
X511159Y204690D01*
X511155Y204689D01*
X510803Y204587D01*
X510478Y204494D01*
X510475Y204492D01*
X510470Y204491D01*
X510144Y204355D01*
X509820Y204221D01*
X509816Y204219D01*
X509813Y204217D01*
X509505Y204046D01*
X509197Y203876D01*
X509194Y203874D01*
X509190Y203871D01*
X508884Y203654D01*
X508616Y203464D01*
X508613Y203461D01*
X508609Y203458D01*
X508087Y202991D01*
X503873Y198777D01*
X503873Y198776D01*
X489164Y184068D01*
X489163Y184067D01*
X489162Y184066D01*
X488910Y183783D01*
X488689Y183536D01*
X488689Y183535D01*
X488688Y183534D01*
X488454Y183205D01*
X488277Y182955D01*
X488276Y182954D01*
X488276Y182953D01*
X488095Y182626D01*
X487933Y182332D01*
X487932Y182330D01*
X487931Y182329D01*
X487800Y182011D01*
X487660Y181673D01*
X487660Y181672D01*
X487659Y181671D01*
X487557Y181316D01*
X487463Y180989D01*
X487463Y180988D01*
X487462Y180986D01*
X487396Y180595D01*
X487344Y180286D01*
X487344Y180285D01*
X487344Y180284D01*
X487323Y179906D01*
X487304Y179575D01*
X487304Y179574D01*
X487304Y179572D01*
X487325Y179216D01*
X487345Y178864D01*
X487345Y178862D01*
X487345Y178861D01*
X487404Y178514D01*
X487464Y178162D01*
X487465Y178160D01*
X487465Y178159D01*
X487569Y177799D01*
X487662Y177477D01*
X487663Y177476D01*
X487663Y177474D01*
X487803Y177137D01*
X487935Y176819D01*
X487936Y176818D01*
X487936Y176817D01*
X488108Y176506D01*
X488280Y176196D01*
X488281Y176195D01*
X488282Y176193D01*
X488475Y175922D01*
X488693Y175615D01*
X488694Y175614D01*
X488695Y175613D01*
X488928Y175353D01*
X489168Y175084D01*
X489169Y175083D01*
X489170Y175082D01*
X489454Y174829D01*
X489700Y174610D01*
X489701Y174609D01*
X489702Y174608D01*
X490010Y174390D01*
X490281Y174198D01*
X490282Y174198D01*
X490284Y174197D01*
X490602Y174022D01*
X490905Y173855D01*
X490906Y173854D01*
X490908Y173853D01*
X491231Y173720D01*
X491564Y173583D01*
X491565Y173582D01*
X491566Y173582D01*
X491893Y173488D01*
X492124Y173422D01*
X497079Y168467D01*
X497079Y161733D01*
X492317Y156971D01*
X485583Y156971D01*
X480740Y161815D01*
X480737Y161817D01*
X480736Y161819D01*
X480478Y162049D01*
X480208Y162289D01*
X480206Y162291D01*
X480204Y162293D01*
X479932Y162485D01*
X479627Y162702D01*
X479625Y162703D01*
X479622Y162705D01*
X479307Y162878D01*
X479004Y163046D01*
X479001Y163047D01*
X478999Y163049D01*
X478668Y163185D01*
X478345Y163319D01*
X478343Y163319D01*
X478340Y163320D01*
X478002Y163417D01*
X477661Y163516D01*
X477658Y163516D01*
X477655Y163517D01*
X477293Y163578D01*
X476958Y163635D01*
X476956Y163635D01*
X476953Y163635D01*
X476587Y163655D01*
X476247Y163674D01*
X476244Y163674D01*
X476241Y163674D01*
X475890Y163654D01*
X475536Y163634D01*
X475533Y163634D01*
X475530Y163633D01*
X475187Y163575D01*
X474834Y163514D01*
X474831Y163513D01*
X474828Y163513D01*
X474496Y163417D01*
X474149Y163317D01*
X474146Y163316D01*
X474144Y163315D01*
X473820Y163180D01*
X473491Y163044D01*
X473489Y163042D01*
X473486Y163041D01*
X473178Y162870D01*
X472868Y162699D01*
X472865Y162697D01*
X472863Y162695D01*
X472575Y162490D01*
X472287Y162286D01*
X472285Y162284D01*
X472283Y162282D01*
X471760Y161815D01*
X466917Y156971D01*
X464698Y156971D01*
X464693Y156971D01*
X464689Y156971D01*
X464336Y156951D01*
X463986Y156931D01*
X463982Y156931D01*
X463978Y156930D01*
X463629Y156871D01*
X463284Y156812D01*
X463280Y156811D01*
X463276Y156810D01*
X462930Y156710D01*
X462599Y156615D01*
X462596Y156613D01*
X462591Y156612D01*
X462264Y156475D01*
X461941Y156342D01*
X461938Y156340D01*
X461934Y156338D01*
X461628Y156168D01*
X461318Y155997D01*
X461314Y155995D01*
X461311Y155992D01*
X461015Y155782D01*
X460737Y155585D01*
X460734Y155582D01*
X460730Y155579D01*
X460208Y155112D01*
X455727Y150631D01*
X455727Y150630D01*
X455722Y150625D01*
X455721Y150625D01*
X453512Y148416D01*
X452117Y147838D01*
X451952Y147759D01*
X451783Y147688D01*
X451631Y147604D01*
X451475Y147529D01*
X451320Y147431D01*
X451160Y147342D01*
X451019Y147242D01*
X450872Y147150D01*
X450729Y147035D01*
X450580Y146929D01*
X450449Y146812D01*
X450315Y146705D01*
X450192Y146582D01*
X450057Y146462D01*
X447867Y144271D01*
X441133Y144271D01*
G37*
%LPD*%
%LPC*%
G36*
X82017Y580239D02*
X82017Y580239D01*
X76253Y581784D01*
X71086Y584767D01*
X66867Y588986D01*
X63884Y594153D01*
X62339Y599917D01*
X62339Y605883D01*
X63884Y611647D01*
X66867Y616814D01*
X71086Y621033D01*
X76253Y624016D01*
X82017Y625561D01*
X87983Y625561D01*
X93747Y624016D01*
X98914Y621033D01*
X103133Y616814D01*
X106116Y611647D01*
X107661Y605883D01*
X107661Y599917D01*
X106116Y594153D01*
X103133Y588986D01*
X98914Y584767D01*
X93747Y581784D01*
X87983Y580239D01*
X82017Y580239D01*
G37*
%LPD*%
%LPC*%
G36*
X732017Y580239D02*
X732017Y580239D01*
X726253Y581784D01*
X721086Y584767D01*
X716867Y588986D01*
X713884Y594153D01*
X712339Y599917D01*
X712339Y605883D01*
X713884Y611647D01*
X716867Y616814D01*
X721086Y621033D01*
X726253Y624016D01*
X732017Y625561D01*
X737983Y625561D01*
X743747Y624016D01*
X748914Y621033D01*
X753133Y616814D01*
X756116Y611647D01*
X757661Y605883D01*
X757661Y599917D01*
X756116Y594153D01*
X753133Y588986D01*
X748914Y584767D01*
X743747Y581784D01*
X737983Y580239D01*
X732017Y580239D01*
G37*
%LPD*%
%LPC*%
G36*
X82017Y249239D02*
X82017Y249239D01*
X76253Y250784D01*
X71086Y253767D01*
X66867Y257986D01*
X63884Y263153D01*
X62339Y268917D01*
X62339Y274883D01*
X63884Y280647D01*
X66867Y285814D01*
X71086Y290033D01*
X76253Y293016D01*
X82017Y294561D01*
X87983Y294561D01*
X93747Y293016D01*
X98914Y290033D01*
X103133Y285814D01*
X106116Y280647D01*
X107661Y274883D01*
X107661Y268917D01*
X106116Y263153D01*
X103133Y257986D01*
X98914Y253767D01*
X93747Y250784D01*
X87983Y249239D01*
X82017Y249239D01*
G37*
%LPD*%
%LPC*%
G36*
X732017Y249239D02*
X732017Y249239D01*
X726253Y250784D01*
X721086Y253767D01*
X716867Y257986D01*
X713884Y263153D01*
X712339Y268917D01*
X712339Y274883D01*
X713884Y280647D01*
X716867Y285814D01*
X721086Y290033D01*
X726253Y293016D01*
X732017Y294561D01*
X737983Y294561D01*
X743747Y293016D01*
X748914Y290033D01*
X753133Y285814D01*
X756116Y280647D01*
X757661Y274883D01*
X757661Y268917D01*
X756116Y263153D01*
X753133Y257986D01*
X748914Y253767D01*
X743747Y250784D01*
X737983Y249239D01*
X732017Y249239D01*
G37*
%LPD*%
%LPC*%
G36*
X213727Y211327D02*
X213727Y211327D01*
X209713Y212990D01*
X206640Y216063D01*
X204977Y220077D01*
X204977Y224423D01*
X206640Y228437D01*
X208663Y230460D01*
X208665Y230462D01*
X208667Y230464D01*
X208906Y230732D01*
X209138Y230992D01*
X209140Y230994D01*
X209142Y230996D01*
X209349Y231289D01*
X209550Y231573D01*
X209552Y231575D01*
X209553Y231578D01*
X209730Y231898D01*
X209895Y232196D01*
X209896Y232199D01*
X209897Y232201D01*
X210038Y232541D01*
X210167Y232854D01*
X210168Y232857D01*
X210169Y232860D01*
X210268Y233204D01*
X210364Y233539D01*
X210365Y233542D01*
X210366Y233545D01*
X210425Y233899D01*
X210483Y234241D01*
X210483Y234244D01*
X210484Y234247D01*
X210504Y234611D01*
X210523Y234953D01*
X210523Y234956D01*
X210523Y234959D01*
X210503Y235304D01*
X210483Y235664D01*
X210482Y235667D01*
X210482Y235670D01*
X210423Y236016D01*
X210363Y236366D01*
X210362Y236369D01*
X210362Y236372D01*
X210263Y236713D01*
X210165Y237051D01*
X210164Y237053D01*
X210163Y237056D01*
X210026Y237387D01*
X209892Y237709D01*
X209891Y237711D01*
X209890Y237714D01*
X209722Y238017D01*
X209547Y238332D01*
X209546Y238334D01*
X209544Y238337D01*
X209337Y238628D01*
X209134Y238913D01*
X209133Y238915D01*
X209131Y238917D01*
X208663Y239440D01*
X206640Y241463D01*
X204977Y245477D01*
X204977Y249823D01*
X206640Y253837D01*
X209713Y256910D01*
X213727Y258573D01*
X218073Y258573D01*
X222087Y256910D01*
X223392Y255605D01*
X223394Y255603D01*
X223396Y255601D01*
X223658Y255367D01*
X223923Y255130D01*
X223926Y255129D01*
X223928Y255127D01*
X224213Y254925D01*
X224504Y254718D01*
X224507Y254717D01*
X224509Y254715D01*
X224812Y254548D01*
X225128Y254374D01*
X225131Y254373D01*
X225133Y254371D01*
X225459Y254237D01*
X225786Y254101D01*
X225789Y254100D01*
X225792Y254099D01*
X226141Y253999D01*
X226471Y253904D01*
X226473Y253904D01*
X226476Y253903D01*
X226836Y253842D01*
X227173Y253785D01*
X227176Y253785D01*
X227179Y253784D01*
X227538Y253765D01*
X227884Y253745D01*
X227887Y253746D01*
X227890Y253745D01*
X228248Y253766D01*
X228596Y253786D01*
X228599Y253786D01*
X228601Y253786D01*
X228948Y253846D01*
X229298Y253905D01*
X229301Y253906D01*
X229304Y253907D01*
X229636Y254003D01*
X229982Y254103D01*
X229985Y254104D01*
X229988Y254105D01*
X230313Y254240D01*
X230640Y254376D01*
X230643Y254378D01*
X230646Y254379D01*
X230964Y254555D01*
X231264Y254721D01*
X231266Y254723D01*
X231269Y254724D01*
X231571Y254940D01*
X231844Y255134D01*
X231846Y255136D01*
X231849Y255138D01*
X232371Y255605D01*
X233411Y256645D01*
X234653Y257598D01*
X234951Y257770D01*
X234951Y247650D01*
X234951Y222250D01*
X234951Y212130D01*
X234653Y212302D01*
X233411Y213255D01*
X232371Y214295D01*
X232369Y214297D01*
X232367Y214299D01*
X232119Y214520D01*
X231840Y214770D01*
X231838Y214771D01*
X231835Y214773D01*
X231552Y214974D01*
X231259Y215182D01*
X231256Y215183D01*
X231254Y215185D01*
X230951Y215352D01*
X230635Y215526D01*
X230633Y215527D01*
X230630Y215529D01*
X230318Y215658D01*
X229977Y215799D01*
X229974Y215800D01*
X229972Y215801D01*
X229655Y215892D01*
X229293Y215996D01*
X229289Y215996D01*
X229287Y215997D01*
X228945Y216055D01*
X228590Y216115D01*
X228587Y216115D01*
X228584Y216116D01*
X228225Y216135D01*
X227879Y216155D01*
X227876Y216154D01*
X227873Y216155D01*
X227515Y216134D01*
X227168Y216114D01*
X227165Y216114D01*
X227162Y216114D01*
X226798Y216051D01*
X226465Y215995D01*
X226463Y215994D01*
X226460Y215993D01*
X226112Y215893D01*
X225781Y215797D01*
X225778Y215796D01*
X225775Y215795D01*
X225450Y215660D01*
X225123Y215524D01*
X225120Y215522D01*
X225118Y215521D01*
X224813Y215352D01*
X224499Y215179D01*
X224497Y215177D01*
X224495Y215176D01*
X224215Y214977D01*
X223919Y214766D01*
X223917Y214764D01*
X223914Y214762D01*
X223392Y214295D01*
X222087Y212990D01*
X218073Y211327D01*
X213727Y211327D01*
G37*
%LPD*%
%LPC*%
G36*
X323849Y253999D02*
X323849Y253999D01*
X323849Y257770D01*
X324147Y257598D01*
X325389Y256645D01*
X326495Y255539D01*
X327448Y254297D01*
X327620Y253999D01*
X323849Y253999D01*
G37*
%LPD*%
%LPC*%
G36*
X660399Y253999D02*
X660399Y253999D01*
X660399Y254233D01*
X660633Y253999D01*
X660399Y253999D01*
G37*
%LPD*%
%LPC*%
G36*
X660399Y215899D02*
X660399Y215899D01*
X660399Y216133D01*
X660633Y215899D01*
X660399Y215899D01*
G37*
%LPD*%
%LPC*%
G36*
X717549Y177799D02*
X717549Y177799D01*
X717549Y178033D01*
X717783Y177799D01*
X717549Y177799D01*
G37*
%LPD*%
%LPC*%
G36*
X717549Y139699D02*
X717549Y139699D01*
X717549Y139933D01*
X717783Y139699D01*
X717549Y139699D01*
G37*
%LPD*%
%LPC*%
G36*
X406399Y88899D02*
X406399Y88899D01*
X406399Y89133D01*
X406633Y88899D01*
X406399Y88899D01*
G37*
%LPD*%
%LPC*%
G36*
X647467Y253999D02*
X647467Y253999D01*
X647701Y254233D01*
X647701Y253999D01*
X647467Y253999D01*
G37*
%LPD*%
%LPC*%
G36*
X660399Y241301D02*
X660399Y241301D01*
X660633Y241301D01*
X660399Y241067D01*
X660399Y241301D01*
G37*
%LPD*%
%LPC*%
G36*
X647467Y215899D02*
X647467Y215899D01*
X647701Y216133D01*
X647701Y215899D01*
X647467Y215899D01*
G37*
%LPD*%
%LPC*%
G36*
X660399Y203201D02*
X660399Y203201D01*
X660633Y203201D01*
X660399Y202967D01*
X660399Y203201D01*
G37*
%LPD*%
%LPC*%
G36*
X704617Y177799D02*
X704617Y177799D01*
X704851Y178033D01*
X704851Y177799D01*
X704617Y177799D01*
G37*
%LPD*%
%LPC*%
G36*
X717549Y165101D02*
X717549Y165101D01*
X717783Y165101D01*
X717549Y164867D01*
X717549Y165101D01*
G37*
%LPD*%
%LPC*%
G36*
X704617Y139699D02*
X704617Y139699D01*
X704851Y139933D01*
X704851Y139699D01*
X704617Y139699D01*
G37*
%LPD*%
%LPC*%
G36*
X717549Y127001D02*
X717549Y127001D01*
X717783Y127001D01*
X717549Y126767D01*
X717549Y127001D01*
G37*
%LPD*%
%LPC*%
G36*
X393467Y88899D02*
X393467Y88899D01*
X393701Y89133D01*
X393701Y88899D01*
X393467Y88899D01*
G37*
%LPD*%
%LPC*%
G36*
X527049Y38101D02*
X527049Y38101D01*
X527283Y38101D01*
X527049Y37867D01*
X527049Y38101D01*
G37*
%LPD*%
%LPC*%
G36*
X647467Y241301D02*
X647467Y241301D01*
X647701Y241301D01*
X647701Y241067D01*
X647467Y241301D01*
G37*
%LPD*%
%LPC*%
G36*
X647467Y203201D02*
X647467Y203201D01*
X647701Y203201D01*
X647701Y202967D01*
X647467Y203201D01*
G37*
%LPD*%
%LPC*%
G36*
X704617Y165101D02*
X704617Y165101D01*
X704851Y165101D01*
X704851Y164867D01*
X704617Y165101D01*
G37*
%LPD*%
%LPC*%
G36*
X704617Y127001D02*
X704617Y127001D01*
X704851Y127001D01*
X704851Y126767D01*
X704617Y127001D01*
G37*
%LPD*%
%LPC*%
G36*
X514117Y38101D02*
X514117Y38101D01*
X514351Y38101D01*
X514351Y37867D01*
X514117Y38101D01*
G37*
%LPD*%
D10*
X495300Y273050D03*
X469900Y273050D03*
X438150Y273050D03*
X412750Y273050D03*
D11*
X711200Y171450D03*
X584200Y171450D03*
X711200Y133350D03*
X584200Y133350D03*
D12*
X266700Y63500D03*
X393700Y63500D03*
X317500Y152400D03*
X444500Y152400D03*
D11*
X520700Y44450D03*
X393700Y44450D03*
D12*
X400050Y82550D03*
X527050Y82550D03*
D11*
X654050Y209550D03*
X527050Y209550D03*
X654050Y247650D03*
X527050Y247650D03*
D12*
X292100Y114300D03*
X419100Y114300D03*
D13*
X215900Y222250D03*
X215900Y247650D03*
X241300Y222250D03*
X241300Y247650D03*
X266700Y222250D03*
X266700Y247650D03*
X292100Y222250D03*
X292100Y247650D03*
X317500Y222250D03*
X317500Y247650D03*
D14*
X577850Y88900D03*
X577850Y63500D03*
X603250Y63500D03*
X463550Y190500D03*
X463550Y165100D03*
X488950Y165100D03*
X514350Y133350D03*
X514350Y107950D03*
X539750Y107950D03*
D15*
X420000Y310900D03*
X400000Y310900D03*
X440000Y310900D03*
X380000Y310900D03*
X460000Y310900D03*
X360000Y310900D03*
X480000Y310900D03*
X340000Y310900D03*
D16*
X795500Y484900D03*
X795500Y454900D03*
X795500Y424900D03*
X795500Y514900D03*
D17*
X609600Y355600D03*
X679450Y311150D03*
X660400Y406400D03*
X660400Y444500D03*
X717550Y355600D03*
X558800Y101600D03*
X558800Y44450D03*
X488950Y139700D03*
X431800Y190500D03*
X571500Y152400D03*
X330200Y285750D03*
X279400Y285750D03*
X463550Y82550D03*
D18*
X266700Y63500D02*
X266700Y222250D01*
X292100Y222250D02*
X292100Y114300D01*
X317500Y152400D02*
X317500Y222250D01*
X406400Y63500D02*
X577850Y63500D01*
X393700Y63500D02*
X393700Y44450D01*
X393700Y63500D02*
X406400Y63500D01*
X527050Y82550D02*
X571500Y82550D01*
X577850Y88900D01*
X463550Y165100D02*
X450850Y152400D01*
X463550Y165100D02*
X508000Y209550D01*
X527050Y209550D01*
X450850Y152400D02*
X444500Y152400D01*
X469900Y190500D02*
X527050Y247650D01*
X469900Y190500D02*
X463550Y190500D01*
X425450Y107950D02*
X514350Y107950D01*
X503047Y128668D02*
X503047Y138032D01*
X536465Y171450D01*
X514350Y117365D02*
X514350Y107950D01*
X514350Y117365D02*
X503047Y128668D01*
X536465Y171450D02*
X584200Y171450D01*
X425450Y107950D02*
X419100Y114300D01*
X514350Y133350D02*
X584200Y133350D01*
X329950Y310900D02*
X266700Y247650D01*
X347748Y292100D02*
X340000Y310900D01*
X347748Y292100D02*
X410091Y292100D01*
X420000Y310900D01*
X340000Y310900D02*
X329950Y310900D01*
D19*
X420000Y310900D02*
X425586Y316486D01*
X425586Y316871D01*
X533616Y424900D01*
X795500Y424900D01*
D18*
X469900Y285750D02*
X469900Y273050D01*
X469900Y285750D02*
X464498Y306402D01*
X460000Y310900D01*
X488617Y302283D02*
X495300Y285750D01*
X495300Y273050D01*
X488617Y302283D02*
X480000Y310900D01*
X440000Y293950D02*
X419100Y273050D01*
X412750Y273050D01*
X440000Y293950D02*
X440000Y310900D01*
M02*
