G04 EAGLE Gerber X2 export*
%TF.Part,Single*%
%TF.FileFunction,Copper,L1,Top,Mixed*%
%TF.FilePolarity,Positive*%
%TF.GenerationSoftware,Autodesk,EAGLE,9.1.3*%
%TF.CreationDate,2018-09-15T00:02:42Z*%
G75*
%MOMM*%
%FSLAX34Y34*%
%LPD*%
%AMOC8*
5,1,8,0,0,1.08239X$1,22.5*%
G01*
%ADD10C,1.308000*%
%ADD11P,1.429621X8X22.500000*%
%ADD12C,1.981200*%
%ADD13C,1.676400*%
%ADD14C,2.400000*%
%ADD15C,1.648500*%
%ADD16C,1.408000*%
%ADD17P,1.429621X8X202.500000*%
%ADD18C,1.320800*%
%ADD19P,1.429621X8X292.500000*%
%ADD20C,1.879600*%
%ADD21P,0.818720X8X22.500000*%
%ADD22C,0.756400*%
%ADD23C,2.540000*%
%ADD24C,1.270000*%
%ADD25C,0.635000*%
%ADD26C,1.905000*%
%ADD27C,1.016000*%
%ADD28C,0.609600*%

G36*
X1512688Y73676D02*
X1512688Y73676D01*
X1512807Y73683D01*
X1512845Y73696D01*
X1512886Y73701D01*
X1512996Y73744D01*
X1513109Y73781D01*
X1513144Y73803D01*
X1513181Y73818D01*
X1513277Y73887D01*
X1513378Y73951D01*
X1513406Y73981D01*
X1513439Y74004D01*
X1513515Y74096D01*
X1513596Y74183D01*
X1513616Y74218D01*
X1513641Y74249D01*
X1513692Y74357D01*
X1513750Y74461D01*
X1513760Y74501D01*
X1513777Y74537D01*
X1513799Y74654D01*
X1513829Y74769D01*
X1513833Y74829D01*
X1513837Y74849D01*
X1513835Y74870D01*
X1513839Y74930D01*
X1513839Y877570D01*
X1513824Y877688D01*
X1513817Y877807D01*
X1513804Y877845D01*
X1513799Y877886D01*
X1513756Y877996D01*
X1513719Y878109D01*
X1513697Y878144D01*
X1513682Y878181D01*
X1513613Y878277D01*
X1513549Y878378D01*
X1513519Y878406D01*
X1513496Y878439D01*
X1513404Y878515D01*
X1513317Y878596D01*
X1513282Y878616D01*
X1513251Y878641D01*
X1513143Y878692D01*
X1513039Y878750D01*
X1512999Y878760D01*
X1512963Y878777D01*
X1512846Y878799D01*
X1512731Y878829D01*
X1512671Y878833D01*
X1512651Y878837D01*
X1512630Y878835D01*
X1512570Y878839D01*
X576580Y878839D01*
X576462Y878824D01*
X576343Y878817D01*
X576305Y878804D01*
X576264Y878799D01*
X576154Y878756D01*
X576041Y878719D01*
X576006Y878697D01*
X575969Y878682D01*
X575873Y878613D01*
X575772Y878549D01*
X575744Y878519D01*
X575711Y878496D01*
X575635Y878404D01*
X575554Y878317D01*
X575534Y878282D01*
X575509Y878251D01*
X575458Y878143D01*
X575400Y878039D01*
X575390Y877999D01*
X575373Y877963D01*
X575351Y877846D01*
X575321Y877731D01*
X575317Y877671D01*
X575313Y877651D01*
X575315Y877630D01*
X575311Y877570D01*
X575311Y74930D01*
X575326Y74812D01*
X575333Y74693D01*
X575346Y74655D01*
X575351Y74614D01*
X575394Y74504D01*
X575431Y74391D01*
X575453Y74356D01*
X575468Y74319D01*
X575537Y74223D01*
X575601Y74122D01*
X575631Y74094D01*
X575654Y74061D01*
X575746Y73985D01*
X575833Y73904D01*
X575868Y73884D01*
X575899Y73859D01*
X576007Y73808D01*
X576111Y73750D01*
X576151Y73740D01*
X576187Y73723D01*
X576304Y73701D01*
X576419Y73671D01*
X576479Y73667D01*
X576499Y73663D01*
X576520Y73665D01*
X576580Y73661D01*
X1512570Y73661D01*
X1512688Y73676D01*
G37*
%LPC*%
G36*
X748296Y82549D02*
X748296Y82549D01*
X744095Y84289D01*
X740701Y87684D01*
X713600Y114784D01*
X713593Y114790D01*
X713587Y114797D01*
X713467Y114887D01*
X713349Y114979D01*
X713340Y114983D01*
X713333Y114989D01*
X713188Y115059D01*
X710155Y116316D01*
X710117Y116334D01*
X708629Y116951D01*
X704199Y121381D01*
X701801Y127169D01*
X701801Y152231D01*
X704199Y158019D01*
X704478Y158298D01*
X704538Y158376D01*
X704606Y158448D01*
X704635Y158501D01*
X704672Y158549D01*
X704712Y158640D01*
X704760Y158726D01*
X704775Y158785D01*
X704799Y158841D01*
X704814Y158939D01*
X704839Y159034D01*
X704845Y159134D01*
X704849Y159155D01*
X704847Y159167D01*
X704849Y159195D01*
X704849Y417830D01*
X704834Y417948D01*
X704827Y418067D01*
X704814Y418105D01*
X704809Y418146D01*
X704766Y418256D01*
X704729Y418369D01*
X704707Y418404D01*
X704692Y418441D01*
X704623Y418537D01*
X704559Y418638D01*
X704529Y418666D01*
X704506Y418699D01*
X704414Y418775D01*
X704327Y418856D01*
X704292Y418876D01*
X704261Y418901D01*
X704153Y418952D01*
X704049Y419010D01*
X704009Y419020D01*
X703973Y419037D01*
X703856Y419059D01*
X703741Y419089D01*
X703681Y419093D01*
X703661Y419097D01*
X703640Y419095D01*
X703580Y419099D01*
X688752Y419099D01*
X688615Y419082D01*
X688476Y419069D01*
X688457Y419062D01*
X688437Y419059D01*
X688308Y419008D01*
X688177Y418961D01*
X688160Y418950D01*
X688141Y418942D01*
X688029Y418861D01*
X687914Y418783D01*
X687900Y418767D01*
X687884Y418756D01*
X687795Y418648D01*
X687703Y418544D01*
X687694Y418526D01*
X687681Y418511D01*
X687622Y418385D01*
X687558Y418261D01*
X687554Y418241D01*
X687545Y418223D01*
X687519Y418087D01*
X687489Y417951D01*
X687489Y417930D01*
X687486Y417911D01*
X687494Y417772D01*
X687498Y417633D01*
X687504Y417613D01*
X687505Y417593D01*
X687548Y417461D01*
X687587Y417327D01*
X687597Y417310D01*
X687603Y417291D01*
X687678Y417173D01*
X687748Y417053D01*
X687767Y417032D01*
X687774Y417022D01*
X687789Y417008D01*
X687855Y416933D01*
X690802Y413985D01*
X692841Y409064D01*
X692841Y403736D01*
X690802Y398815D01*
X687035Y395048D01*
X682114Y393009D01*
X680998Y393009D01*
X680939Y393002D01*
X680879Y393004D01*
X680782Y392982D01*
X680683Y392969D01*
X680627Y392947D01*
X680568Y392934D01*
X680480Y392889D01*
X680387Y392852D01*
X680338Y392817D01*
X680285Y392790D01*
X680210Y392724D01*
X680130Y392666D01*
X680091Y392619D01*
X680046Y392580D01*
X679990Y392497D01*
X679927Y392421D01*
X679901Y392366D01*
X679867Y392317D01*
X679834Y392223D01*
X679791Y392133D01*
X679780Y392074D01*
X679760Y392018D01*
X679750Y391918D01*
X679731Y391821D01*
X679735Y391761D01*
X679729Y391701D01*
X679745Y391603D01*
X679751Y391503D01*
X679770Y391446D01*
X679779Y391387D01*
X679818Y391295D01*
X679849Y391201D01*
X679881Y391150D01*
X679905Y391095D01*
X679966Y391016D01*
X680019Y390932D01*
X680063Y390891D01*
X680100Y390843D01*
X680178Y390782D01*
X680251Y390714D01*
X680303Y390685D01*
X680351Y390648D01*
X680442Y390609D01*
X680529Y390560D01*
X680587Y390545D01*
X680642Y390522D01*
X680800Y390486D01*
X681694Y390345D01*
X683128Y389879D01*
X684471Y389194D01*
X685182Y388678D01*
X685691Y388308D01*
X686758Y387241D01*
X687644Y386021D01*
X688329Y384678D01*
X688793Y383249D01*
X680430Y383249D01*
X680312Y383234D01*
X680193Y383227D01*
X680155Y383214D01*
X680115Y383209D01*
X680004Y383166D01*
X679891Y383129D01*
X679857Y383107D01*
X679819Y383092D01*
X679723Y383023D01*
X679622Y382959D01*
X679594Y382929D01*
X679562Y382906D01*
X679486Y382814D01*
X679454Y382780D01*
X679449Y382788D01*
X679419Y382816D01*
X679395Y382849D01*
X679304Y382925D01*
X679217Y383006D01*
X679182Y383026D01*
X679150Y383051D01*
X679043Y383102D01*
X678938Y383160D01*
X678899Y383170D01*
X678863Y383187D01*
X678746Y383209D01*
X678630Y383239D01*
X678570Y383243D01*
X678550Y383247D01*
X678530Y383245D01*
X678470Y383249D01*
X670107Y383249D01*
X670571Y384678D01*
X671256Y386021D01*
X672142Y387241D01*
X673209Y388308D01*
X674429Y389194D01*
X675772Y389879D01*
X677206Y390345D01*
X678100Y390486D01*
X678158Y390503D01*
X678217Y390511D01*
X678310Y390547D01*
X678406Y390575D01*
X678457Y390606D01*
X678513Y390628D01*
X678594Y390686D01*
X678680Y390737D01*
X678722Y390779D01*
X678770Y390814D01*
X678834Y390891D01*
X678905Y390962D01*
X678935Y391013D01*
X678973Y391059D01*
X679016Y391150D01*
X679067Y391235D01*
X679083Y391293D01*
X679109Y391347D01*
X679128Y391445D01*
X679155Y391541D01*
X679157Y391601D01*
X679169Y391660D01*
X679162Y391759D01*
X679166Y391859D01*
X679153Y391917D01*
X679149Y391977D01*
X679118Y392072D01*
X679096Y392169D01*
X679069Y392222D01*
X679051Y392279D01*
X678998Y392364D01*
X678952Y392453D01*
X678913Y392498D01*
X678881Y392548D01*
X678808Y392616D01*
X678742Y392691D01*
X678693Y392725D01*
X678649Y392766D01*
X678562Y392814D01*
X678479Y392870D01*
X678423Y392891D01*
X678371Y392920D01*
X678274Y392944D01*
X678180Y392978D01*
X678121Y392984D01*
X678063Y392999D01*
X677902Y393009D01*
X676786Y393009D01*
X671865Y395048D01*
X668098Y398815D01*
X666059Y403736D01*
X666059Y409064D01*
X668098Y413985D01*
X671045Y416933D01*
X671130Y417042D01*
X671219Y417149D01*
X671228Y417168D01*
X671240Y417184D01*
X671296Y417312D01*
X671355Y417437D01*
X671358Y417457D01*
X671366Y417476D01*
X671388Y417614D01*
X671414Y417750D01*
X671413Y417770D01*
X671416Y417790D01*
X671403Y417929D01*
X671395Y418067D01*
X671388Y418086D01*
X671386Y418106D01*
X671339Y418238D01*
X671297Y418369D01*
X671286Y418387D01*
X671279Y418406D01*
X671201Y418521D01*
X671126Y418638D01*
X671112Y418652D01*
X671100Y418669D01*
X670996Y418761D01*
X670895Y418856D01*
X670877Y418866D01*
X670862Y418879D01*
X670738Y418943D01*
X670616Y419010D01*
X670597Y419015D01*
X670579Y419024D01*
X670443Y419054D01*
X670308Y419089D01*
X670280Y419091D01*
X670268Y419094D01*
X670248Y419093D01*
X670148Y419099D01*
X645174Y419099D01*
X640506Y421033D01*
X636933Y424606D01*
X634999Y429274D01*
X634999Y464113D01*
X634987Y464212D01*
X634984Y464311D01*
X634967Y464369D01*
X634959Y464429D01*
X634923Y464521D01*
X634895Y464616D01*
X634865Y464668D01*
X634842Y464725D01*
X634784Y464805D01*
X634734Y464890D01*
X634668Y464966D01*
X634656Y464982D01*
X634646Y464990D01*
X634628Y465011D01*
X632126Y467513D01*
X632102Y467531D01*
X632083Y467554D01*
X631977Y467628D01*
X631874Y467708D01*
X631847Y467720D01*
X631823Y467737D01*
X631702Y467783D01*
X631582Y467834D01*
X631553Y467839D01*
X631526Y467849D01*
X631397Y467864D01*
X631268Y467884D01*
X631239Y467881D01*
X631210Y467885D01*
X631081Y467866D01*
X630952Y467854D01*
X630924Y467844D01*
X630895Y467840D01*
X630742Y467788D01*
X628481Y466851D01*
X603419Y466851D01*
X597631Y469249D01*
X593201Y473679D01*
X590803Y479467D01*
X590803Y485733D01*
X593201Y491521D01*
X596082Y494403D01*
X596156Y494497D01*
X596234Y494586D01*
X596253Y494622D01*
X596277Y494654D01*
X596325Y494763D01*
X596379Y494869D01*
X596388Y494908D01*
X596404Y494946D01*
X596422Y495063D01*
X596448Y495179D01*
X596447Y495220D01*
X596454Y495260D01*
X596442Y495378D01*
X596439Y495497D01*
X596428Y495536D01*
X596424Y495576D01*
X596383Y495689D01*
X596350Y495803D01*
X596330Y495838D01*
X596316Y495876D01*
X596249Y495974D01*
X596189Y496077D01*
X596149Y496122D01*
X596138Y496139D01*
X596122Y496152D01*
X596082Y496198D01*
X593201Y499079D01*
X590803Y504867D01*
X590803Y511133D01*
X593201Y516921D01*
X597631Y521351D01*
X598845Y521854D01*
X598974Y521927D01*
X599105Y521999D01*
X599112Y522006D01*
X599121Y522011D01*
X599228Y522115D01*
X599337Y522217D01*
X599342Y522226D01*
X599350Y522233D01*
X599427Y522359D01*
X599507Y522485D01*
X599510Y522495D01*
X599516Y522504D01*
X599560Y522646D01*
X599606Y522788D01*
X599606Y522798D01*
X599609Y522808D01*
X599617Y522957D01*
X599626Y523105D01*
X599624Y523115D01*
X599625Y523125D01*
X599594Y523272D01*
X599567Y523417D01*
X599562Y523427D01*
X599560Y523437D01*
X599495Y523571D01*
X599432Y523705D01*
X599425Y523713D01*
X599421Y523723D01*
X599323Y523836D01*
X599229Y523951D01*
X599218Y523960D01*
X599214Y523965D01*
X599202Y523973D01*
X599105Y524053D01*
X598774Y524294D01*
X597446Y525622D01*
X596341Y527143D01*
X595488Y528817D01*
X594907Y530604D01*
X594867Y530861D01*
X614680Y530861D01*
X614798Y530876D01*
X614917Y530883D01*
X614955Y530896D01*
X614995Y530901D01*
X615106Y530944D01*
X615219Y530981D01*
X615253Y531003D01*
X615291Y531018D01*
X615387Y531088D01*
X615488Y531151D01*
X615516Y531181D01*
X615548Y531204D01*
X615624Y531296D01*
X615706Y531383D01*
X615725Y531418D01*
X615751Y531449D01*
X615802Y531557D01*
X615859Y531661D01*
X615870Y531701D01*
X615887Y531737D01*
X615909Y531854D01*
X615939Y531969D01*
X615943Y532030D01*
X615947Y532050D01*
X615945Y532070D01*
X615949Y532130D01*
X615949Y533401D01*
X617220Y533401D01*
X617338Y533416D01*
X617457Y533423D01*
X617495Y533436D01*
X617535Y533441D01*
X617646Y533485D01*
X617759Y533521D01*
X617794Y533543D01*
X617831Y533558D01*
X617927Y533628D01*
X618028Y533691D01*
X618056Y533721D01*
X618089Y533745D01*
X618164Y533836D01*
X618246Y533923D01*
X618266Y533958D01*
X618291Y533990D01*
X618342Y534097D01*
X618400Y534202D01*
X618410Y534241D01*
X618427Y534277D01*
X618449Y534394D01*
X618479Y534509D01*
X618483Y534570D01*
X618487Y534590D01*
X618485Y534610D01*
X618489Y534670D01*
X618489Y545339D01*
X626288Y545339D01*
X628144Y545045D01*
X629931Y544464D01*
X631605Y543611D01*
X632984Y542609D01*
X633019Y542590D01*
X633049Y542565D01*
X633158Y542514D01*
X633263Y542456D01*
X633301Y542446D01*
X633337Y542429D01*
X633454Y542407D01*
X633571Y542377D01*
X633611Y542377D01*
X633650Y542369D01*
X633769Y542377D01*
X633889Y542377D01*
X633927Y542387D01*
X633967Y542389D01*
X634081Y542426D01*
X634197Y542456D01*
X634232Y542475D01*
X634269Y542487D01*
X634371Y542551D01*
X634475Y542609D01*
X634504Y542636D01*
X634538Y542657D01*
X634620Y542745D01*
X634707Y542826D01*
X634729Y542860D01*
X634756Y542889D01*
X634814Y542994D01*
X634878Y543095D01*
X634890Y543133D01*
X634910Y543167D01*
X634939Y543283D01*
X634977Y543397D01*
X634979Y543437D01*
X634989Y543475D01*
X634999Y543636D01*
X634999Y559363D01*
X634987Y559462D01*
X634984Y559561D01*
X634967Y559619D01*
X634959Y559679D01*
X634923Y559771D01*
X634895Y559866D01*
X634865Y559918D01*
X634842Y559975D01*
X634784Y560055D01*
X634734Y560140D01*
X634668Y560216D01*
X634656Y560232D01*
X634646Y560240D01*
X634628Y560261D01*
X626809Y568080D01*
X626731Y568140D01*
X626659Y568208D01*
X626606Y568237D01*
X626558Y568274D01*
X626467Y568314D01*
X626380Y568362D01*
X626322Y568377D01*
X626266Y568401D01*
X626168Y568416D01*
X626072Y568441D01*
X625972Y568447D01*
X625952Y568451D01*
X625939Y568449D01*
X625911Y568451D01*
X603419Y568451D01*
X597631Y570849D01*
X593201Y575279D01*
X590803Y581067D01*
X590803Y587333D01*
X593201Y593121D01*
X596082Y596003D01*
X596156Y596097D01*
X596234Y596186D01*
X596253Y596222D01*
X596277Y596254D01*
X596325Y596363D01*
X596379Y596469D01*
X596388Y596508D01*
X596404Y596546D01*
X596422Y596663D01*
X596448Y596779D01*
X596447Y596820D01*
X596454Y596860D01*
X596442Y596978D01*
X596439Y597097D01*
X596428Y597136D01*
X596424Y597176D01*
X596383Y597289D01*
X596350Y597403D01*
X596330Y597438D01*
X596316Y597476D01*
X596249Y597574D01*
X596189Y597677D01*
X596149Y597722D01*
X596138Y597739D01*
X596122Y597752D01*
X596082Y597798D01*
X593201Y600679D01*
X590803Y606467D01*
X590803Y612733D01*
X593201Y618521D01*
X597631Y622951D01*
X598845Y623454D01*
X598974Y623527D01*
X599105Y623599D01*
X599112Y623606D01*
X599121Y623611D01*
X599228Y623715D01*
X599337Y623817D01*
X599342Y623826D01*
X599350Y623833D01*
X599427Y623959D01*
X599507Y624085D01*
X599510Y624095D01*
X599516Y624104D01*
X599560Y624246D01*
X599606Y624388D01*
X599606Y624398D01*
X599609Y624408D01*
X599617Y624557D01*
X599626Y624705D01*
X599624Y624715D01*
X599625Y624725D01*
X599594Y624872D01*
X599567Y625017D01*
X599562Y625027D01*
X599560Y625037D01*
X599495Y625171D01*
X599432Y625305D01*
X599425Y625313D01*
X599421Y625323D01*
X599323Y625436D01*
X599229Y625551D01*
X599218Y625560D01*
X599214Y625565D01*
X599202Y625573D01*
X599105Y625653D01*
X598774Y625894D01*
X597446Y627222D01*
X596341Y628743D01*
X595488Y630417D01*
X594907Y632204D01*
X594867Y632461D01*
X614680Y632461D01*
X614798Y632476D01*
X614917Y632483D01*
X614955Y632496D01*
X614995Y632501D01*
X615106Y632544D01*
X615219Y632581D01*
X615253Y632603D01*
X615291Y632618D01*
X615387Y632688D01*
X615488Y632751D01*
X615516Y632781D01*
X615548Y632804D01*
X615624Y632896D01*
X615706Y632983D01*
X615725Y633018D01*
X615751Y633049D01*
X615802Y633157D01*
X615859Y633261D01*
X615870Y633301D01*
X615887Y633337D01*
X615909Y633454D01*
X615939Y633569D01*
X615943Y633630D01*
X615947Y633650D01*
X615945Y633670D01*
X615949Y633730D01*
X615949Y635001D01*
X615951Y635001D01*
X615951Y633730D01*
X615966Y633612D01*
X615973Y633493D01*
X615986Y633455D01*
X615991Y633414D01*
X616035Y633304D01*
X616071Y633191D01*
X616093Y633156D01*
X616108Y633119D01*
X616178Y633023D01*
X616241Y632922D01*
X616271Y632894D01*
X616295Y632861D01*
X616386Y632786D01*
X616473Y632704D01*
X616508Y632684D01*
X616540Y632659D01*
X616647Y632608D01*
X616752Y632550D01*
X616791Y632540D01*
X616827Y632523D01*
X616944Y632501D01*
X617059Y632471D01*
X617120Y632467D01*
X617140Y632463D01*
X617160Y632465D01*
X617220Y632461D01*
X637033Y632461D01*
X636993Y632204D01*
X636412Y630417D01*
X635559Y628743D01*
X634454Y627222D01*
X633126Y625894D01*
X632795Y625653D01*
X632685Y625551D01*
X632576Y625451D01*
X632571Y625443D01*
X632563Y625436D01*
X632483Y625309D01*
X632401Y625186D01*
X632398Y625176D01*
X632393Y625167D01*
X632347Y625026D01*
X632298Y624885D01*
X632297Y624875D01*
X632294Y624865D01*
X632285Y624716D01*
X632273Y624568D01*
X632275Y624558D01*
X632274Y624547D01*
X632302Y624400D01*
X632327Y624254D01*
X632332Y624245D01*
X632334Y624235D01*
X632397Y624100D01*
X632458Y623964D01*
X632464Y623956D01*
X632469Y623947D01*
X632563Y623833D01*
X632657Y623716D01*
X632665Y623710D01*
X632671Y623702D01*
X632791Y623615D01*
X632911Y623525D01*
X632923Y623519D01*
X632928Y623515D01*
X632942Y623509D01*
X633055Y623454D01*
X634269Y622951D01*
X637850Y619370D01*
X637928Y619310D01*
X638000Y619242D01*
X638053Y619213D01*
X638101Y619176D01*
X638192Y619136D01*
X638278Y619088D01*
X638337Y619073D01*
X638393Y619049D01*
X638491Y619034D01*
X638586Y619009D01*
X638686Y619003D01*
X638707Y618999D01*
X638719Y619001D01*
X638747Y618999D01*
X669386Y618999D01*
X669484Y619011D01*
X669583Y619014D01*
X669641Y619031D01*
X669701Y619039D01*
X669793Y619075D01*
X669888Y619103D01*
X669941Y619133D01*
X669997Y619156D01*
X670077Y619214D01*
X670162Y619264D01*
X670238Y619330D01*
X670254Y619342D01*
X670262Y619352D01*
X670283Y619370D01*
X671865Y620952D01*
X672288Y621127D01*
X672409Y621196D01*
X672532Y621261D01*
X672547Y621275D01*
X672564Y621285D01*
X672664Y621382D01*
X672767Y621475D01*
X672778Y621492D01*
X672793Y621506D01*
X672865Y621624D01*
X672942Y621741D01*
X672948Y621760D01*
X672959Y621777D01*
X673000Y621910D01*
X673045Y622042D01*
X673046Y622062D01*
X673052Y622081D01*
X673059Y622220D01*
X673070Y622359D01*
X673067Y622379D01*
X673068Y622399D01*
X673039Y622535D01*
X673016Y622672D01*
X673007Y622691D01*
X673003Y622710D01*
X672942Y622836D01*
X672885Y622962D01*
X672872Y622978D01*
X672864Y622996D01*
X672773Y623102D01*
X672686Y623211D01*
X672670Y623223D01*
X672657Y623238D01*
X672543Y623318D01*
X672432Y623402D01*
X672407Y623414D01*
X672397Y623421D01*
X672378Y623428D01*
X672288Y623473D01*
X671865Y623648D01*
X668098Y627415D01*
X666059Y632336D01*
X666059Y637664D01*
X668098Y642585D01*
X671865Y646352D01*
X672288Y646527D01*
X672409Y646596D01*
X672532Y646661D01*
X672547Y646675D01*
X672564Y646685D01*
X672664Y646782D01*
X672767Y646875D01*
X672778Y646892D01*
X672793Y646906D01*
X672865Y647024D01*
X672942Y647141D01*
X672948Y647160D01*
X672959Y647177D01*
X673000Y647310D01*
X673045Y647442D01*
X673046Y647462D01*
X673052Y647481D01*
X673059Y647620D01*
X673070Y647759D01*
X673067Y647779D01*
X673068Y647799D01*
X673039Y647935D01*
X673016Y648072D01*
X673007Y648091D01*
X673003Y648110D01*
X672942Y648236D01*
X672885Y648362D01*
X672872Y648378D01*
X672864Y648396D01*
X672773Y648502D01*
X672686Y648611D01*
X672670Y648623D01*
X672657Y648638D01*
X672543Y648718D01*
X672432Y648802D01*
X672407Y648814D01*
X672397Y648821D01*
X672378Y648828D01*
X672288Y648873D01*
X671865Y649048D01*
X668098Y652815D01*
X666059Y657736D01*
X666059Y663064D01*
X668098Y667985D01*
X671865Y671752D01*
X672288Y671927D01*
X672409Y671996D01*
X672532Y672061D01*
X672547Y672075D01*
X672564Y672085D01*
X672664Y672182D01*
X672767Y672275D01*
X672778Y672292D01*
X672793Y672306D01*
X672865Y672424D01*
X672942Y672541D01*
X672948Y672560D01*
X672959Y672577D01*
X673000Y672710D01*
X673045Y672842D01*
X673046Y672862D01*
X673052Y672881D01*
X673059Y673020D01*
X673070Y673159D01*
X673067Y673179D01*
X673068Y673199D01*
X673039Y673335D01*
X673016Y673472D01*
X673007Y673491D01*
X673003Y673510D01*
X672942Y673636D01*
X672885Y673762D01*
X672872Y673778D01*
X672864Y673796D01*
X672773Y673902D01*
X672686Y674011D01*
X672670Y674023D01*
X672657Y674038D01*
X672543Y674118D01*
X672432Y674202D01*
X672407Y674214D01*
X672397Y674221D01*
X672378Y674228D01*
X672288Y674273D01*
X671865Y674448D01*
X668098Y678215D01*
X666059Y683136D01*
X666059Y688464D01*
X668098Y693385D01*
X671865Y697152D01*
X672288Y697327D01*
X672409Y697396D01*
X672532Y697461D01*
X672547Y697475D01*
X672564Y697485D01*
X672664Y697582D01*
X672767Y697675D01*
X672778Y697692D01*
X672793Y697706D01*
X672865Y697824D01*
X672942Y697941D01*
X672948Y697960D01*
X672959Y697977D01*
X673000Y698110D01*
X673045Y698242D01*
X673046Y698262D01*
X673052Y698281D01*
X673059Y698420D01*
X673070Y698559D01*
X673067Y698579D01*
X673068Y698599D01*
X673039Y698735D01*
X673016Y698872D01*
X673007Y698891D01*
X673003Y698910D01*
X672942Y699036D01*
X672885Y699162D01*
X672872Y699178D01*
X672864Y699196D01*
X672773Y699302D01*
X672686Y699411D01*
X672670Y699423D01*
X672657Y699438D01*
X672543Y699518D01*
X672432Y699602D01*
X672407Y699614D01*
X672397Y699621D01*
X672378Y699628D01*
X672288Y699673D01*
X671865Y699848D01*
X668098Y703615D01*
X666059Y708536D01*
X666059Y713864D01*
X668098Y718785D01*
X670356Y721044D01*
X670430Y721138D01*
X670508Y721227D01*
X670527Y721263D01*
X670551Y721295D01*
X670599Y721405D01*
X670653Y721510D01*
X670662Y721550D01*
X670678Y721587D01*
X670696Y721705D01*
X670722Y721821D01*
X670721Y721861D01*
X670728Y721901D01*
X670716Y722020D01*
X670713Y722139D01*
X670702Y722177D01*
X670698Y722218D01*
X670657Y722330D01*
X670624Y722444D01*
X670604Y722479D01*
X670590Y722517D01*
X670523Y722616D01*
X670463Y722718D01*
X670423Y722763D01*
X670412Y722780D01*
X670396Y722794D01*
X670356Y722839D01*
X665750Y727446D01*
X663289Y733385D01*
X663289Y739815D01*
X665750Y745754D01*
X670296Y750300D01*
X676235Y752761D01*
X682665Y752761D01*
X688604Y750300D01*
X693150Y745754D01*
X695611Y739815D01*
X695611Y733385D01*
X693150Y727446D01*
X688544Y722839D01*
X688470Y722745D01*
X688392Y722656D01*
X688373Y722620D01*
X688349Y722588D01*
X688301Y722478D01*
X688247Y722372D01*
X688238Y722333D01*
X688222Y722296D01*
X688204Y722178D01*
X688178Y722062D01*
X688179Y722022D01*
X688172Y721982D01*
X688184Y721863D01*
X688187Y721744D01*
X688198Y721705D01*
X688202Y721665D01*
X688243Y721553D01*
X688276Y721439D01*
X688296Y721404D01*
X688310Y721366D01*
X688377Y721267D01*
X688437Y721165D01*
X688477Y721119D01*
X688488Y721103D01*
X688504Y721089D01*
X688544Y721044D01*
X690802Y718785D01*
X692841Y713864D01*
X692841Y708536D01*
X690802Y703615D01*
X687035Y699848D01*
X686612Y699673D01*
X686491Y699604D01*
X686368Y699539D01*
X686353Y699525D01*
X686336Y699515D01*
X686236Y699418D01*
X686133Y699325D01*
X686122Y699308D01*
X686108Y699294D01*
X686035Y699176D01*
X685958Y699059D01*
X685952Y699040D01*
X685941Y699023D01*
X685900Y698890D01*
X685855Y698758D01*
X685854Y698738D01*
X685848Y698719D01*
X685841Y698580D01*
X685830Y698441D01*
X685833Y698421D01*
X685832Y698401D01*
X685861Y698265D01*
X685884Y698128D01*
X685893Y698109D01*
X685897Y698090D01*
X685958Y697965D01*
X686015Y697838D01*
X686028Y697822D01*
X686036Y697804D01*
X686127Y697698D01*
X686214Y697590D01*
X686230Y697577D01*
X686243Y697562D01*
X686356Y697482D01*
X686468Y697398D01*
X686493Y697386D01*
X686503Y697379D01*
X686522Y697372D01*
X686612Y697327D01*
X687035Y697152D01*
X690802Y693385D01*
X692841Y688464D01*
X692841Y683136D01*
X690802Y678215D01*
X687035Y674448D01*
X686612Y674273D01*
X686491Y674204D01*
X686368Y674139D01*
X686353Y674125D01*
X686336Y674115D01*
X686236Y674018D01*
X686133Y673925D01*
X686122Y673908D01*
X686108Y673894D01*
X686035Y673776D01*
X685958Y673659D01*
X685952Y673640D01*
X685941Y673623D01*
X685900Y673490D01*
X685855Y673358D01*
X685854Y673338D01*
X685848Y673319D01*
X685841Y673180D01*
X685830Y673041D01*
X685833Y673021D01*
X685832Y673001D01*
X685861Y672865D01*
X685884Y672728D01*
X685893Y672709D01*
X685897Y672690D01*
X685958Y672565D01*
X686015Y672438D01*
X686028Y672422D01*
X686036Y672404D01*
X686127Y672298D01*
X686214Y672190D01*
X686230Y672177D01*
X686243Y672162D01*
X686356Y672082D01*
X686468Y671998D01*
X686493Y671986D01*
X686503Y671979D01*
X686522Y671972D01*
X686612Y671927D01*
X687035Y671752D01*
X690802Y667985D01*
X692841Y663064D01*
X692841Y657736D01*
X690802Y652815D01*
X687035Y649048D01*
X686612Y648873D01*
X686491Y648804D01*
X686368Y648739D01*
X686353Y648725D01*
X686336Y648715D01*
X686236Y648618D01*
X686133Y648525D01*
X686122Y648508D01*
X686108Y648494D01*
X686035Y648376D01*
X685958Y648259D01*
X685952Y648240D01*
X685941Y648223D01*
X685900Y648090D01*
X685855Y647958D01*
X685854Y647938D01*
X685848Y647919D01*
X685841Y647780D01*
X685830Y647641D01*
X685833Y647621D01*
X685832Y647601D01*
X685861Y647465D01*
X685884Y647328D01*
X685893Y647309D01*
X685897Y647290D01*
X685958Y647165D01*
X686015Y647038D01*
X686028Y647022D01*
X686036Y647004D01*
X686127Y646898D01*
X686214Y646790D01*
X686230Y646777D01*
X686243Y646762D01*
X686356Y646682D01*
X686468Y646598D01*
X686493Y646586D01*
X686503Y646579D01*
X686522Y646572D01*
X686612Y646527D01*
X687035Y646352D01*
X690802Y642585D01*
X692841Y637664D01*
X692841Y632336D01*
X690802Y627415D01*
X687035Y623648D01*
X686612Y623473D01*
X686491Y623404D01*
X686368Y623339D01*
X686353Y623325D01*
X686336Y623315D01*
X686236Y623218D01*
X686133Y623125D01*
X686122Y623108D01*
X686108Y623094D01*
X686035Y622976D01*
X685958Y622859D01*
X685952Y622840D01*
X685941Y622823D01*
X685900Y622690D01*
X685855Y622558D01*
X685854Y622538D01*
X685848Y622519D01*
X685841Y622380D01*
X685830Y622241D01*
X685833Y622221D01*
X685832Y622201D01*
X685861Y622065D01*
X685884Y621928D01*
X685893Y621909D01*
X685897Y621890D01*
X685958Y621765D01*
X686015Y621638D01*
X686028Y621622D01*
X686036Y621604D01*
X686127Y621498D01*
X686214Y621390D01*
X686230Y621377D01*
X686243Y621362D01*
X686356Y621282D01*
X686468Y621198D01*
X686493Y621186D01*
X686503Y621179D01*
X686522Y621172D01*
X686612Y621127D01*
X687035Y620952D01*
X690802Y617185D01*
X692841Y612264D01*
X692841Y606936D01*
X690802Y602015D01*
X687035Y598248D01*
X686612Y598073D01*
X686491Y598004D01*
X686368Y597939D01*
X686353Y597925D01*
X686336Y597915D01*
X686236Y597818D01*
X686133Y597725D01*
X686122Y597708D01*
X686108Y597694D01*
X686035Y597576D01*
X685958Y597459D01*
X685952Y597440D01*
X685941Y597423D01*
X685900Y597290D01*
X685855Y597158D01*
X685854Y597138D01*
X685848Y597119D01*
X685841Y596980D01*
X685830Y596841D01*
X685833Y596821D01*
X685832Y596801D01*
X685861Y596665D01*
X685884Y596528D01*
X685893Y596509D01*
X685897Y596490D01*
X685958Y596365D01*
X686015Y596238D01*
X686028Y596222D01*
X686036Y596204D01*
X686127Y596098D01*
X686214Y595990D01*
X686230Y595977D01*
X686243Y595962D01*
X686356Y595882D01*
X686468Y595798D01*
X686493Y595786D01*
X686503Y595779D01*
X686522Y595772D01*
X686612Y595727D01*
X687035Y595552D01*
X689508Y593079D01*
X689516Y593073D01*
X689521Y593066D01*
X689641Y592976D01*
X689760Y592884D01*
X689768Y592880D01*
X689775Y592875D01*
X689920Y592804D01*
X691196Y592276D01*
X694054Y589418D01*
X694054Y589417D01*
X763726Y519746D01*
X765176Y516245D01*
X765176Y220355D01*
X763726Y216854D01*
X756276Y209405D01*
X756216Y209327D01*
X756148Y209255D01*
X756119Y209202D01*
X756082Y209154D01*
X756042Y209063D01*
X755994Y208976D01*
X755979Y208918D01*
X755955Y208862D01*
X755940Y208764D01*
X755915Y208668D01*
X755909Y208568D01*
X755905Y208548D01*
X755907Y208536D01*
X755905Y208508D01*
X755905Y204184D01*
X752847Y201127D01*
X752787Y201048D01*
X752719Y200976D01*
X752690Y200923D01*
X752653Y200875D01*
X752613Y200785D01*
X752565Y200698D01*
X752550Y200639D01*
X752526Y200584D01*
X752511Y200486D01*
X752486Y200390D01*
X752480Y200290D01*
X752476Y200270D01*
X752478Y200257D01*
X752476Y200229D01*
X752476Y162370D01*
X752488Y162272D01*
X752491Y162173D01*
X752508Y162115D01*
X752516Y162055D01*
X752552Y161962D01*
X752580Y161867D01*
X752610Y161815D01*
X752633Y161759D01*
X752691Y161679D01*
X752741Y161593D01*
X752807Y161518D01*
X752819Y161501D01*
X752829Y161494D01*
X752847Y161473D01*
X756301Y158019D01*
X758699Y152231D01*
X758699Y127169D01*
X756301Y121381D01*
X751871Y116951D01*
X747894Y115304D01*
X747851Y115279D01*
X747804Y115262D01*
X747713Y115200D01*
X747618Y115146D01*
X747582Y115111D01*
X747541Y115084D01*
X747468Y115001D01*
X747389Y114925D01*
X747363Y114882D01*
X747330Y114845D01*
X747280Y114747D01*
X747223Y114654D01*
X747208Y114606D01*
X747186Y114562D01*
X747162Y114455D01*
X747129Y114350D01*
X747127Y114300D01*
X747116Y114252D01*
X747119Y114142D01*
X747114Y114032D01*
X747124Y113983D01*
X747126Y113934D01*
X747156Y113828D01*
X747178Y113721D01*
X747200Y113676D01*
X747214Y113628D01*
X747270Y113534D01*
X747318Y113435D01*
X747351Y113397D01*
X747376Y113354D01*
X747482Y113233D01*
X754933Y105782D01*
X755011Y105722D01*
X755083Y105654D01*
X755136Y105625D01*
X755184Y105588D01*
X755275Y105548D01*
X755362Y105500D01*
X755420Y105485D01*
X755476Y105461D01*
X755574Y105446D01*
X755670Y105421D01*
X755770Y105415D01*
X755790Y105411D01*
X755803Y105413D01*
X755831Y105411D01*
X911352Y105411D01*
X911470Y105426D01*
X911589Y105433D01*
X911627Y105446D01*
X911668Y105451D01*
X911778Y105494D01*
X911891Y105531D01*
X911926Y105553D01*
X911963Y105568D01*
X912059Y105637D01*
X912160Y105701D01*
X912188Y105731D01*
X912221Y105754D01*
X912297Y105846D01*
X912378Y105933D01*
X912398Y105968D01*
X912423Y105999D01*
X912474Y106107D01*
X912532Y106211D01*
X912542Y106251D01*
X912559Y106287D01*
X912581Y106404D01*
X912611Y106519D01*
X912615Y106579D01*
X912619Y106599D01*
X912617Y106620D01*
X912621Y106680D01*
X912621Y109537D01*
X912604Y109676D01*
X912590Y109815D01*
X912584Y109833D01*
X912581Y109853D01*
X912530Y109983D01*
X912482Y110114D01*
X912472Y110130D01*
X912464Y110148D01*
X912382Y110261D01*
X912304Y110377D01*
X912289Y110390D01*
X912278Y110406D01*
X912170Y110495D01*
X912065Y110587D01*
X912048Y110596D01*
X912033Y110608D01*
X911906Y110668D01*
X911781Y110731D01*
X911762Y110736D01*
X911745Y110744D01*
X911608Y110770D01*
X911471Y110801D01*
X911452Y110800D01*
X911433Y110804D01*
X911293Y110795D01*
X911153Y110791D01*
X911135Y110785D01*
X911115Y110784D01*
X911011Y110750D01*
X911007Y110750D01*
X910975Y110739D01*
X910848Y110702D01*
X910831Y110692D01*
X910813Y110686D01*
X910787Y110670D01*
X904833Y108203D01*
X898567Y108203D01*
X892779Y110601D01*
X889897Y113482D01*
X889803Y113556D01*
X889714Y113634D01*
X889678Y113653D01*
X889646Y113677D01*
X889537Y113725D01*
X889431Y113779D01*
X889392Y113788D01*
X889354Y113804D01*
X889237Y113822D01*
X889121Y113848D01*
X889080Y113847D01*
X889040Y113854D01*
X888922Y113842D01*
X888803Y113839D01*
X888764Y113828D01*
X888724Y113824D01*
X888611Y113783D01*
X888497Y113750D01*
X888462Y113730D01*
X888424Y113716D01*
X888326Y113649D01*
X888223Y113589D01*
X888178Y113549D01*
X888161Y113538D01*
X888148Y113522D01*
X888102Y113482D01*
X885221Y110601D01*
X879433Y108203D01*
X873167Y108203D01*
X867379Y110601D01*
X862949Y115031D01*
X860551Y120819D01*
X860551Y128752D01*
X860539Y128850D01*
X860536Y128949D01*
X860519Y129007D01*
X860511Y129067D01*
X860475Y129159D01*
X860447Y129254D01*
X860417Y129306D01*
X860394Y129363D01*
X860336Y129443D01*
X860286Y129528D01*
X860220Y129604D01*
X860208Y129620D01*
X860198Y129628D01*
X860180Y129649D01*
X842824Y147004D01*
X841374Y150505D01*
X841374Y263953D01*
X841368Y264003D01*
X841370Y264052D01*
X841348Y264160D01*
X841334Y264269D01*
X841316Y264315D01*
X841306Y264364D01*
X841258Y264462D01*
X841217Y264565D01*
X841188Y264605D01*
X841166Y264649D01*
X841095Y264733D01*
X841031Y264822D01*
X840992Y264854D01*
X840960Y264891D01*
X840870Y264955D01*
X840786Y265025D01*
X840741Y265046D01*
X840700Y265074D01*
X840597Y265113D01*
X840498Y265160D01*
X840449Y265170D01*
X840403Y265187D01*
X840293Y265199D01*
X840186Y265220D01*
X840136Y265217D01*
X840087Y265222D01*
X839978Y265207D01*
X839868Y265200D01*
X839821Y265185D01*
X839772Y265178D01*
X839619Y265126D01*
X835065Y263239D01*
X828635Y263239D01*
X822696Y265700D01*
X818150Y270246D01*
X815689Y276185D01*
X815689Y282615D01*
X818150Y288554D01*
X822756Y293161D01*
X822830Y293255D01*
X822908Y293344D01*
X822927Y293380D01*
X822951Y293412D01*
X822999Y293522D01*
X823053Y293628D01*
X823062Y293667D01*
X823078Y293704D01*
X823096Y293822D01*
X823122Y293938D01*
X823121Y293978D01*
X823128Y294018D01*
X823116Y294137D01*
X823113Y294256D01*
X823102Y294295D01*
X823098Y294335D01*
X823057Y294447D01*
X823024Y294561D01*
X823004Y294596D01*
X822990Y294634D01*
X822923Y294733D01*
X822863Y294835D01*
X822823Y294881D01*
X822812Y294897D01*
X822796Y294911D01*
X822756Y294956D01*
X820498Y297215D01*
X818459Y302136D01*
X818459Y307464D01*
X820498Y312385D01*
X824265Y316152D01*
X824688Y316327D01*
X824809Y316396D01*
X824932Y316461D01*
X824947Y316475D01*
X824964Y316485D01*
X825064Y316582D01*
X825167Y316675D01*
X825178Y316692D01*
X825193Y316706D01*
X825265Y316824D01*
X825342Y316941D01*
X825348Y316960D01*
X825359Y316977D01*
X825400Y317110D01*
X825445Y317242D01*
X825446Y317262D01*
X825452Y317281D01*
X825459Y317420D01*
X825470Y317559D01*
X825467Y317579D01*
X825468Y317599D01*
X825439Y317735D01*
X825416Y317872D01*
X825407Y317891D01*
X825403Y317910D01*
X825342Y318036D01*
X825285Y318162D01*
X825272Y318178D01*
X825264Y318196D01*
X825173Y318302D01*
X825086Y318411D01*
X825070Y318423D01*
X825057Y318438D01*
X824943Y318518D01*
X824832Y318602D01*
X824807Y318614D01*
X824797Y318621D01*
X824778Y318628D01*
X824688Y318673D01*
X824265Y318848D01*
X820498Y322615D01*
X818459Y327536D01*
X818459Y332864D01*
X820498Y337785D01*
X824265Y341552D01*
X824688Y341727D01*
X824809Y341796D01*
X824932Y341861D01*
X824947Y341875D01*
X824964Y341885D01*
X825064Y341981D01*
X825167Y342075D01*
X825178Y342092D01*
X825193Y342106D01*
X825265Y342224D01*
X825342Y342341D01*
X825348Y342360D01*
X825359Y342377D01*
X825400Y342510D01*
X825445Y342642D01*
X825446Y342662D01*
X825452Y342681D01*
X825459Y342820D01*
X825470Y342959D01*
X825467Y342979D01*
X825468Y342999D01*
X825439Y343135D01*
X825416Y343272D01*
X825407Y343291D01*
X825403Y343310D01*
X825342Y343436D01*
X825285Y343562D01*
X825272Y343578D01*
X825264Y343596D01*
X825173Y343702D01*
X825086Y343811D01*
X825070Y343823D01*
X825057Y343838D01*
X824943Y343918D01*
X824832Y344002D01*
X824807Y344014D01*
X824797Y344021D01*
X824778Y344028D01*
X824688Y344073D01*
X824265Y344248D01*
X820498Y348015D01*
X818459Y352936D01*
X818459Y358264D01*
X820498Y363185D01*
X824265Y366952D01*
X824688Y367127D01*
X824809Y367196D01*
X824932Y367261D01*
X824947Y367275D01*
X824964Y367285D01*
X825064Y367382D01*
X825167Y367475D01*
X825178Y367492D01*
X825193Y367506D01*
X825265Y367624D01*
X825342Y367741D01*
X825348Y367760D01*
X825359Y367777D01*
X825400Y367910D01*
X825445Y368042D01*
X825446Y368062D01*
X825452Y368081D01*
X825459Y368220D01*
X825470Y368359D01*
X825467Y368379D01*
X825468Y368399D01*
X825439Y368535D01*
X825416Y368672D01*
X825407Y368691D01*
X825403Y368710D01*
X825342Y368836D01*
X825285Y368962D01*
X825272Y368978D01*
X825264Y368996D01*
X825173Y369102D01*
X825086Y369211D01*
X825070Y369223D01*
X825057Y369238D01*
X824943Y369318D01*
X824832Y369402D01*
X824807Y369414D01*
X824797Y369421D01*
X824778Y369428D01*
X824688Y369473D01*
X824265Y369648D01*
X820498Y373415D01*
X818459Y378336D01*
X818459Y383664D01*
X820498Y388585D01*
X824265Y392352D01*
X824688Y392527D01*
X824809Y392596D01*
X824932Y392661D01*
X824947Y392675D01*
X824964Y392685D01*
X825064Y392782D01*
X825167Y392875D01*
X825178Y392892D01*
X825193Y392906D01*
X825265Y393024D01*
X825342Y393141D01*
X825348Y393160D01*
X825359Y393177D01*
X825400Y393310D01*
X825445Y393442D01*
X825446Y393462D01*
X825452Y393481D01*
X825459Y393620D01*
X825470Y393759D01*
X825467Y393779D01*
X825468Y393799D01*
X825439Y393935D01*
X825416Y394072D01*
X825407Y394091D01*
X825403Y394110D01*
X825342Y394236D01*
X825285Y394362D01*
X825272Y394378D01*
X825264Y394396D01*
X825173Y394502D01*
X825086Y394611D01*
X825070Y394623D01*
X825057Y394638D01*
X824943Y394718D01*
X824832Y394802D01*
X824807Y394814D01*
X824797Y394821D01*
X824778Y394828D01*
X824688Y394873D01*
X824265Y395048D01*
X820498Y398815D01*
X818459Y403736D01*
X818459Y409064D01*
X820498Y413985D01*
X824265Y417752D01*
X829186Y419791D01*
X830302Y419791D01*
X830361Y419798D01*
X830421Y419796D01*
X830518Y419818D01*
X830617Y419831D01*
X830673Y419853D01*
X830732Y419866D01*
X830820Y419911D01*
X830913Y419948D01*
X830962Y419983D01*
X831015Y420010D01*
X831090Y420076D01*
X831170Y420134D01*
X831209Y420181D01*
X831254Y420220D01*
X831310Y420303D01*
X831373Y420379D01*
X831399Y420434D01*
X831432Y420483D01*
X831466Y420577D01*
X831509Y420667D01*
X831520Y420726D01*
X831540Y420782D01*
X831550Y420882D01*
X831569Y420979D01*
X831565Y421039D01*
X831571Y421099D01*
X831555Y421198D01*
X831549Y421297D01*
X831530Y421354D01*
X831521Y421413D01*
X831481Y421505D01*
X831451Y421599D01*
X831419Y421650D01*
X831395Y421705D01*
X831334Y421784D01*
X831281Y421868D01*
X831237Y421909D01*
X831200Y421957D01*
X831122Y422018D01*
X831049Y422086D01*
X830996Y422115D01*
X830949Y422152D01*
X830858Y422191D01*
X830770Y422240D01*
X830712Y422255D01*
X830657Y422278D01*
X830500Y422314D01*
X829606Y422455D01*
X828172Y422921D01*
X826829Y423606D01*
X826657Y423730D01*
X826657Y423731D01*
X825609Y424492D01*
X824542Y425559D01*
X823656Y426779D01*
X822971Y428122D01*
X822507Y429551D01*
X830870Y429551D01*
X830988Y429566D01*
X831107Y429573D01*
X831145Y429585D01*
X831185Y429591D01*
X831296Y429634D01*
X831409Y429671D01*
X831443Y429693D01*
X831481Y429708D01*
X831577Y429777D01*
X831678Y429841D01*
X831706Y429871D01*
X831738Y429894D01*
X831814Y429986D01*
X831896Y430073D01*
X831915Y430108D01*
X831941Y430139D01*
X831992Y430247D01*
X832049Y430351D01*
X832059Y430391D01*
X832077Y430427D01*
X832099Y430544D01*
X832129Y430659D01*
X832133Y430719D01*
X832136Y430739D01*
X832135Y430760D01*
X832139Y430820D01*
X832139Y432780D01*
X832124Y432898D01*
X832117Y433017D01*
X832104Y433055D01*
X832099Y433096D01*
X832055Y433206D01*
X832019Y433319D01*
X831997Y433354D01*
X831982Y433391D01*
X831912Y433487D01*
X831849Y433588D01*
X831819Y433616D01*
X831795Y433649D01*
X831704Y433725D01*
X831617Y433806D01*
X831582Y433826D01*
X831550Y433851D01*
X831443Y433902D01*
X831338Y433960D01*
X831299Y433970D01*
X831263Y433987D01*
X831146Y434009D01*
X831030Y434039D01*
X830970Y434043D01*
X830950Y434047D01*
X830930Y434045D01*
X830870Y434049D01*
X822507Y434049D01*
X822971Y435478D01*
X823656Y436821D01*
X824542Y438041D01*
X825609Y439108D01*
X826829Y439994D01*
X828172Y440679D01*
X829606Y441145D01*
X830501Y441286D01*
X830558Y441303D01*
X830618Y441311D01*
X830710Y441347D01*
X830806Y441375D01*
X830858Y441406D01*
X830913Y441428D01*
X830994Y441486D01*
X831080Y441537D01*
X831122Y441579D01*
X831171Y441614D01*
X831234Y441691D01*
X831305Y441762D01*
X831335Y441813D01*
X831373Y441859D01*
X831416Y441950D01*
X831467Y442035D01*
X831483Y442093D01*
X831509Y442147D01*
X831528Y442245D01*
X831556Y442341D01*
X831557Y442401D01*
X831569Y442460D01*
X831563Y442559D01*
X831566Y442659D01*
X831553Y442717D01*
X831549Y442777D01*
X831518Y442872D01*
X831497Y442969D01*
X831469Y443023D01*
X831451Y443079D01*
X831398Y443164D01*
X831352Y443253D01*
X831313Y443298D01*
X831281Y443348D01*
X831208Y443416D01*
X831142Y443491D01*
X831093Y443525D01*
X831049Y443566D01*
X830962Y443614D01*
X830879Y443670D01*
X830823Y443691D01*
X830771Y443720D01*
X830674Y443744D01*
X830580Y443778D01*
X830521Y443784D01*
X830463Y443799D01*
X830302Y443809D01*
X829186Y443809D01*
X824265Y445848D01*
X820498Y449615D01*
X818459Y454536D01*
X818459Y459864D01*
X820498Y464785D01*
X824265Y468552D01*
X824688Y468727D01*
X824809Y468796D01*
X824932Y468861D01*
X824947Y468875D01*
X824964Y468885D01*
X825064Y468982D01*
X825167Y469075D01*
X825178Y469092D01*
X825193Y469106D01*
X825265Y469224D01*
X825342Y469341D01*
X825348Y469360D01*
X825359Y469377D01*
X825400Y469510D01*
X825445Y469642D01*
X825446Y469662D01*
X825452Y469681D01*
X825459Y469820D01*
X825470Y469959D01*
X825467Y469979D01*
X825468Y469999D01*
X825439Y470135D01*
X825416Y470272D01*
X825407Y470291D01*
X825403Y470310D01*
X825342Y470436D01*
X825285Y470562D01*
X825272Y470578D01*
X825264Y470596D01*
X825173Y470702D01*
X825086Y470811D01*
X825070Y470823D01*
X825057Y470838D01*
X824943Y470918D01*
X824832Y471002D01*
X824807Y471014D01*
X824797Y471021D01*
X824778Y471028D01*
X824688Y471073D01*
X824265Y471248D01*
X820498Y475015D01*
X818459Y479936D01*
X818459Y485264D01*
X820498Y490185D01*
X824265Y493952D01*
X824688Y494127D01*
X824809Y494196D01*
X824932Y494261D01*
X824947Y494275D01*
X824964Y494285D01*
X825064Y494382D01*
X825167Y494475D01*
X825178Y494492D01*
X825193Y494506D01*
X825265Y494624D01*
X825342Y494741D01*
X825348Y494760D01*
X825359Y494777D01*
X825400Y494910D01*
X825445Y495042D01*
X825446Y495062D01*
X825452Y495081D01*
X825459Y495220D01*
X825470Y495359D01*
X825467Y495379D01*
X825468Y495399D01*
X825439Y495535D01*
X825416Y495672D01*
X825407Y495691D01*
X825403Y495710D01*
X825342Y495836D01*
X825285Y495962D01*
X825272Y495978D01*
X825264Y495996D01*
X825173Y496102D01*
X825086Y496211D01*
X825070Y496223D01*
X825057Y496238D01*
X824943Y496318D01*
X824832Y496402D01*
X824807Y496414D01*
X824797Y496421D01*
X824778Y496428D01*
X824688Y496473D01*
X824265Y496648D01*
X820498Y500415D01*
X818459Y505336D01*
X818459Y510664D01*
X820498Y515585D01*
X824265Y519352D01*
X824688Y519527D01*
X824809Y519596D01*
X824932Y519661D01*
X824947Y519675D01*
X824964Y519685D01*
X825064Y519782D01*
X825167Y519875D01*
X825178Y519892D01*
X825193Y519906D01*
X825265Y520024D01*
X825342Y520141D01*
X825348Y520160D01*
X825359Y520177D01*
X825400Y520310D01*
X825445Y520442D01*
X825446Y520462D01*
X825452Y520481D01*
X825459Y520620D01*
X825470Y520759D01*
X825467Y520779D01*
X825468Y520799D01*
X825439Y520935D01*
X825416Y521072D01*
X825407Y521091D01*
X825403Y521110D01*
X825342Y521236D01*
X825285Y521362D01*
X825272Y521378D01*
X825264Y521396D01*
X825173Y521502D01*
X825086Y521611D01*
X825070Y521623D01*
X825057Y521638D01*
X824943Y521718D01*
X824832Y521802D01*
X824807Y521814D01*
X824797Y521821D01*
X824778Y521828D01*
X824688Y521873D01*
X824265Y522048D01*
X820498Y525815D01*
X818459Y530736D01*
X818459Y536064D01*
X820498Y540985D01*
X824265Y544752D01*
X824688Y544927D01*
X824809Y544996D01*
X824932Y545061D01*
X824947Y545075D01*
X824964Y545085D01*
X825064Y545182D01*
X825167Y545275D01*
X825178Y545292D01*
X825193Y545306D01*
X825265Y545424D01*
X825342Y545541D01*
X825348Y545560D01*
X825359Y545577D01*
X825400Y545710D01*
X825445Y545842D01*
X825446Y545862D01*
X825452Y545881D01*
X825459Y546020D01*
X825470Y546159D01*
X825467Y546179D01*
X825468Y546199D01*
X825439Y546335D01*
X825416Y546472D01*
X825407Y546491D01*
X825403Y546510D01*
X825342Y546636D01*
X825285Y546762D01*
X825272Y546778D01*
X825264Y546796D01*
X825173Y546902D01*
X825086Y547011D01*
X825070Y547023D01*
X825057Y547038D01*
X824943Y547118D01*
X824832Y547202D01*
X824807Y547214D01*
X824797Y547221D01*
X824778Y547228D01*
X824688Y547273D01*
X824265Y547448D01*
X820498Y551215D01*
X818459Y556136D01*
X818459Y561464D01*
X820498Y566385D01*
X824265Y570152D01*
X824688Y570327D01*
X824809Y570396D01*
X824932Y570461D01*
X824947Y570475D01*
X824964Y570485D01*
X825064Y570582D01*
X825167Y570675D01*
X825178Y570692D01*
X825193Y570706D01*
X825265Y570824D01*
X825342Y570941D01*
X825348Y570960D01*
X825359Y570977D01*
X825400Y571110D01*
X825445Y571242D01*
X825446Y571262D01*
X825452Y571281D01*
X825459Y571420D01*
X825470Y571559D01*
X825467Y571579D01*
X825468Y571599D01*
X825439Y571735D01*
X825416Y571872D01*
X825407Y571891D01*
X825403Y571910D01*
X825342Y572036D01*
X825285Y572162D01*
X825272Y572178D01*
X825264Y572196D01*
X825173Y572302D01*
X825086Y572411D01*
X825070Y572423D01*
X825057Y572438D01*
X824943Y572518D01*
X824832Y572602D01*
X824807Y572614D01*
X824797Y572621D01*
X824778Y572628D01*
X824688Y572673D01*
X824265Y572848D01*
X820498Y576615D01*
X818459Y581536D01*
X818459Y586864D01*
X820498Y591785D01*
X824265Y595552D01*
X824688Y595727D01*
X824809Y595796D01*
X824932Y595861D01*
X824947Y595875D01*
X824964Y595885D01*
X825064Y595982D01*
X825167Y596075D01*
X825178Y596092D01*
X825192Y596106D01*
X825265Y596224D01*
X825342Y596341D01*
X825348Y596360D01*
X825359Y596377D01*
X825400Y596510D01*
X825445Y596642D01*
X825446Y596662D01*
X825452Y596681D01*
X825459Y596820D01*
X825470Y596959D01*
X825467Y596979D01*
X825468Y596999D01*
X825439Y597135D01*
X825416Y597272D01*
X825407Y597291D01*
X825403Y597310D01*
X825342Y597435D01*
X825285Y597562D01*
X825272Y597578D01*
X825264Y597596D01*
X825173Y597702D01*
X825086Y597810D01*
X825070Y597823D01*
X825057Y597838D01*
X824944Y597918D01*
X824832Y598002D01*
X824807Y598014D01*
X824797Y598021D01*
X824778Y598028D01*
X824688Y598073D01*
X824265Y598248D01*
X820498Y602015D01*
X818459Y606936D01*
X818459Y612264D01*
X820498Y617185D01*
X824265Y620952D01*
X824688Y621127D01*
X824809Y621196D01*
X824932Y621261D01*
X824946Y621275D01*
X824964Y621285D01*
X825064Y621382D01*
X825167Y621475D01*
X825178Y621492D01*
X825193Y621506D01*
X825265Y621625D01*
X825342Y621741D01*
X825348Y621760D01*
X825359Y621777D01*
X825400Y621910D01*
X825445Y622042D01*
X825446Y622062D01*
X825452Y622081D01*
X825459Y622220D01*
X825470Y622359D01*
X825467Y622379D01*
X825467Y622399D01*
X825439Y622535D01*
X825416Y622672D01*
X825407Y622691D01*
X825403Y622710D01*
X825342Y622835D01*
X825285Y622962D01*
X825272Y622978D01*
X825263Y622996D01*
X825173Y623102D01*
X825086Y623210D01*
X825070Y623223D01*
X825057Y623238D01*
X824943Y623318D01*
X824832Y623402D01*
X824807Y623414D01*
X824797Y623421D01*
X824778Y623428D01*
X824688Y623473D01*
X824265Y623648D01*
X820498Y627415D01*
X818459Y632336D01*
X818459Y637664D01*
X820498Y642585D01*
X824265Y646352D01*
X824688Y646527D01*
X824809Y646596D01*
X824932Y646661D01*
X824946Y646675D01*
X824964Y646685D01*
X825064Y646782D01*
X825167Y646875D01*
X825178Y646892D01*
X825193Y646906D01*
X825265Y647025D01*
X825342Y647141D01*
X825348Y647160D01*
X825359Y647177D01*
X825400Y647310D01*
X825445Y647442D01*
X825446Y647462D01*
X825452Y647481D01*
X825459Y647620D01*
X825470Y647759D01*
X825467Y647779D01*
X825467Y647799D01*
X825439Y647935D01*
X825416Y648072D01*
X825407Y648091D01*
X825403Y648110D01*
X825342Y648235D01*
X825285Y648362D01*
X825272Y648378D01*
X825263Y648396D01*
X825173Y648502D01*
X825086Y648610D01*
X825070Y648623D01*
X825057Y648638D01*
X824943Y648718D01*
X824832Y648802D01*
X824807Y648814D01*
X824797Y648821D01*
X824778Y648828D01*
X824688Y648873D01*
X824265Y649048D01*
X820498Y652815D01*
X818459Y657736D01*
X818459Y663064D01*
X820498Y667985D01*
X824265Y671752D01*
X824688Y671927D01*
X824809Y671996D01*
X824932Y672061D01*
X824946Y672075D01*
X824964Y672085D01*
X825064Y672182D01*
X825167Y672275D01*
X825178Y672292D01*
X825193Y672306D01*
X825265Y672425D01*
X825342Y672541D01*
X825348Y672560D01*
X825359Y672577D01*
X825400Y672710D01*
X825445Y672842D01*
X825446Y672862D01*
X825452Y672881D01*
X825459Y673020D01*
X825470Y673159D01*
X825467Y673179D01*
X825467Y673199D01*
X825439Y673335D01*
X825416Y673472D01*
X825407Y673491D01*
X825403Y673510D01*
X825342Y673635D01*
X825285Y673762D01*
X825272Y673778D01*
X825263Y673796D01*
X825173Y673902D01*
X825086Y674010D01*
X825070Y674023D01*
X825057Y674038D01*
X824943Y674118D01*
X824832Y674202D01*
X824807Y674214D01*
X824797Y674221D01*
X824778Y674228D01*
X824688Y674273D01*
X824265Y674448D01*
X820498Y678215D01*
X818459Y683136D01*
X818459Y688464D01*
X820498Y693385D01*
X824265Y697152D01*
X824688Y697327D01*
X824809Y697396D01*
X824932Y697461D01*
X824946Y697475D01*
X824964Y697485D01*
X825064Y697582D01*
X825167Y697675D01*
X825178Y697692D01*
X825193Y697706D01*
X825265Y697825D01*
X825342Y697941D01*
X825348Y697960D01*
X825359Y697977D01*
X825400Y698110D01*
X825445Y698242D01*
X825446Y698262D01*
X825452Y698281D01*
X825459Y698420D01*
X825470Y698559D01*
X825467Y698579D01*
X825467Y698599D01*
X825439Y698735D01*
X825416Y698872D01*
X825407Y698891D01*
X825403Y698910D01*
X825342Y699035D01*
X825285Y699162D01*
X825272Y699178D01*
X825263Y699196D01*
X825173Y699302D01*
X825086Y699410D01*
X825070Y699423D01*
X825057Y699438D01*
X824943Y699518D01*
X824832Y699602D01*
X824807Y699614D01*
X824797Y699621D01*
X824778Y699628D01*
X824688Y699673D01*
X824265Y699848D01*
X820498Y703615D01*
X818459Y708536D01*
X818459Y713864D01*
X820498Y718785D01*
X822756Y721044D01*
X822830Y721138D01*
X822908Y721227D01*
X822927Y721263D01*
X822951Y721295D01*
X822999Y721405D01*
X823053Y721510D01*
X823062Y721550D01*
X823078Y721587D01*
X823096Y721705D01*
X823122Y721821D01*
X823121Y721861D01*
X823128Y721901D01*
X823116Y722020D01*
X823113Y722139D01*
X823102Y722177D01*
X823098Y722218D01*
X823057Y722330D01*
X823024Y722444D01*
X823004Y722479D01*
X822990Y722517D01*
X822923Y722616D01*
X822863Y722718D01*
X822823Y722763D01*
X822812Y722780D01*
X822796Y722794D01*
X822756Y722839D01*
X818150Y727446D01*
X815689Y733385D01*
X815689Y739815D01*
X818150Y745754D01*
X822696Y750300D01*
X828635Y752761D01*
X835065Y752761D01*
X841004Y750300D01*
X845550Y745754D01*
X848011Y739815D01*
X848011Y733385D01*
X845550Y727446D01*
X840944Y722839D01*
X840870Y722745D01*
X840792Y722656D01*
X840773Y722620D01*
X840749Y722588D01*
X840701Y722478D01*
X840647Y722372D01*
X840638Y722333D01*
X840622Y722296D01*
X840604Y722178D01*
X840578Y722062D01*
X840579Y722022D01*
X840572Y721982D01*
X840584Y721863D01*
X840587Y721744D01*
X840598Y721705D01*
X840602Y721665D01*
X840643Y721553D01*
X840676Y721439D01*
X840696Y721404D01*
X840710Y721366D01*
X840777Y721267D01*
X840837Y721165D01*
X840877Y721119D01*
X840888Y721103D01*
X840904Y721089D01*
X840944Y721044D01*
X843202Y718785D01*
X845241Y713864D01*
X845241Y708536D01*
X843202Y703615D01*
X839435Y699848D01*
X839012Y699673D01*
X838891Y699604D01*
X838769Y699539D01*
X838754Y699525D01*
X838736Y699515D01*
X838636Y699418D01*
X838533Y699325D01*
X838522Y699308D01*
X838508Y699294D01*
X838435Y699175D01*
X838358Y699059D01*
X838352Y699040D01*
X838341Y699023D01*
X838300Y698890D01*
X838255Y698758D01*
X838254Y698738D01*
X838248Y698719D01*
X838241Y698580D01*
X838230Y698441D01*
X838233Y698421D01*
X838232Y698401D01*
X838261Y698265D01*
X838284Y698128D01*
X838293Y698110D01*
X838297Y698090D01*
X838358Y697965D01*
X838415Y697838D01*
X838428Y697822D01*
X838437Y697804D01*
X838527Y697698D01*
X838614Y697590D01*
X838630Y697577D01*
X838643Y697562D01*
X838756Y697482D01*
X838868Y697398D01*
X838893Y697386D01*
X838903Y697379D01*
X838922Y697372D01*
X839012Y697327D01*
X839435Y697152D01*
X843202Y693385D01*
X845241Y688464D01*
X845241Y686406D01*
X845253Y686308D01*
X845256Y686209D01*
X845273Y686151D01*
X845281Y686091D01*
X845317Y685999D01*
X845345Y685904D01*
X845375Y685851D01*
X845398Y685795D01*
X845456Y685715D01*
X845506Y685630D01*
X845572Y685554D01*
X845584Y685538D01*
X845594Y685530D01*
X845612Y685509D01*
X898924Y632197D01*
X899002Y632137D01*
X899074Y632069D01*
X899127Y632040D01*
X899175Y632003D01*
X899266Y631963D01*
X899353Y631915D01*
X899411Y631900D01*
X899467Y631876D01*
X899565Y631861D01*
X899661Y631836D01*
X899761Y631830D01*
X899781Y631826D01*
X899793Y631828D01*
X899821Y631826D01*
X1006679Y631826D01*
X1006777Y631838D01*
X1006876Y631841D01*
X1006935Y631858D01*
X1006995Y631866D01*
X1007087Y631902D01*
X1007182Y631930D01*
X1007234Y631960D01*
X1007290Y631983D01*
X1007371Y632041D01*
X1007456Y632091D01*
X1007531Y632157D01*
X1007548Y632169D01*
X1007556Y632179D01*
X1007577Y632197D01*
X1010634Y635255D01*
X1021366Y635255D01*
X1028955Y627666D01*
X1028955Y616934D01*
X1025897Y613877D01*
X1025837Y613798D01*
X1025769Y613726D01*
X1025740Y613673D01*
X1025703Y613625D01*
X1025663Y613535D01*
X1025615Y613448D01*
X1025600Y613389D01*
X1025576Y613334D01*
X1025561Y613236D01*
X1025536Y613140D01*
X1025530Y613040D01*
X1025526Y613020D01*
X1025528Y613007D01*
X1025526Y612979D01*
X1025526Y593521D01*
X1025538Y593423D01*
X1025541Y593324D01*
X1025558Y593265D01*
X1025566Y593205D01*
X1025602Y593113D01*
X1025630Y593018D01*
X1025660Y592966D01*
X1025683Y592910D01*
X1025741Y592830D01*
X1025791Y592744D01*
X1025857Y592669D01*
X1025869Y592652D01*
X1025879Y592644D01*
X1025897Y592623D01*
X1028955Y589566D01*
X1028955Y578834D01*
X1021366Y571245D01*
X1010634Y571245D01*
X1003045Y578834D01*
X1003045Y589566D01*
X1006103Y592623D01*
X1006163Y592701D01*
X1006231Y592774D01*
X1006260Y592827D01*
X1006297Y592875D01*
X1006337Y592966D01*
X1006385Y593052D01*
X1006400Y593111D01*
X1006424Y593166D01*
X1006439Y593264D01*
X1006464Y593360D01*
X1006470Y593460D01*
X1006474Y593480D01*
X1006472Y593493D01*
X1006474Y593521D01*
X1006474Y611505D01*
X1006459Y611623D01*
X1006452Y611742D01*
X1006439Y611780D01*
X1006434Y611821D01*
X1006391Y611931D01*
X1006354Y612044D01*
X1006332Y612079D01*
X1006317Y612116D01*
X1006248Y612212D01*
X1006184Y612313D01*
X1006154Y612341D01*
X1006131Y612374D01*
X1006039Y612450D01*
X1005952Y612531D01*
X1005917Y612551D01*
X1005886Y612576D01*
X1005778Y612627D01*
X1005674Y612685D01*
X1005634Y612695D01*
X1005598Y612712D01*
X1005481Y612734D01*
X1005366Y612764D01*
X1005306Y612768D01*
X1005286Y612772D01*
X1005265Y612770D01*
X1005205Y612774D01*
X893455Y612774D01*
X889954Y614224D01*
X887096Y617083D01*
X886777Y617402D01*
X886677Y617479D01*
X886582Y617562D01*
X886552Y617576D01*
X886525Y617597D01*
X886410Y617647D01*
X886297Y617703D01*
X886264Y617710D01*
X886234Y617723D01*
X886109Y617743D01*
X885986Y617769D01*
X885952Y617768D01*
X885919Y617773D01*
X885794Y617761D01*
X885668Y617756D01*
X885636Y617746D01*
X885603Y617743D01*
X885484Y617701D01*
X885364Y617664D01*
X885335Y617647D01*
X885304Y617636D01*
X885199Y617565D01*
X885092Y617500D01*
X885068Y617476D01*
X885040Y617457D01*
X884957Y617363D01*
X884869Y617273D01*
X884852Y617244D01*
X884830Y617219D01*
X884773Y617107D01*
X884710Y616998D01*
X884700Y616965D01*
X884685Y616936D01*
X884658Y616813D01*
X884624Y616691D01*
X884623Y616658D01*
X884616Y616625D01*
X884619Y616499D01*
X884617Y616373D01*
X884624Y616341D01*
X884625Y616307D01*
X884660Y616186D01*
X884689Y616064D01*
X884704Y616034D01*
X884714Y616002D01*
X884778Y615893D01*
X884836Y615782D01*
X884866Y615744D01*
X884875Y615728D01*
X884906Y615693D01*
X884936Y615655D01*
X950014Y543346D01*
X950114Y543259D01*
X950211Y543169D01*
X950234Y543156D01*
X950255Y543138D01*
X950374Y543079D01*
X950489Y543015D01*
X950515Y543009D01*
X950540Y542997D01*
X950669Y542969D01*
X950797Y542936D01*
X950835Y542934D01*
X950851Y542930D01*
X950873Y542931D01*
X950958Y542926D01*
X1006679Y542926D01*
X1006777Y542938D01*
X1006876Y542941D01*
X1006935Y542958D01*
X1006995Y542966D01*
X1007087Y543002D01*
X1007182Y543030D01*
X1007234Y543060D01*
X1007290Y543083D01*
X1007370Y543141D01*
X1007456Y543191D01*
X1007531Y543257D01*
X1007548Y543269D01*
X1007556Y543279D01*
X1007577Y543297D01*
X1010634Y546355D01*
X1021366Y546355D01*
X1028955Y538766D01*
X1028955Y528034D01*
X1025897Y524977D01*
X1025837Y524898D01*
X1025769Y524826D01*
X1025740Y524773D01*
X1025703Y524725D01*
X1025663Y524634D01*
X1025615Y524548D01*
X1025600Y524489D01*
X1025576Y524434D01*
X1025561Y524336D01*
X1025536Y524240D01*
X1025530Y524140D01*
X1025526Y524120D01*
X1025528Y524107D01*
X1025526Y524079D01*
X1025526Y504621D01*
X1025538Y504523D01*
X1025541Y504424D01*
X1025558Y504365D01*
X1025566Y504305D01*
X1025602Y504213D01*
X1025630Y504118D01*
X1025660Y504066D01*
X1025683Y504010D01*
X1025741Y503929D01*
X1025791Y503844D01*
X1025857Y503769D01*
X1025869Y503752D01*
X1025879Y503744D01*
X1025897Y503723D01*
X1028955Y500666D01*
X1028955Y489934D01*
X1021366Y482345D01*
X1010634Y482345D01*
X1003045Y489934D01*
X1003045Y500666D01*
X1006103Y503723D01*
X1006163Y503802D01*
X1006231Y503874D01*
X1006260Y503927D01*
X1006297Y503975D01*
X1006337Y504065D01*
X1006385Y504152D01*
X1006400Y504211D01*
X1006424Y504266D01*
X1006439Y504364D01*
X1006464Y504460D01*
X1006470Y504560D01*
X1006474Y504580D01*
X1006472Y504593D01*
X1006474Y504621D01*
X1006474Y522605D01*
X1006459Y522723D01*
X1006452Y522842D01*
X1006439Y522880D01*
X1006434Y522921D01*
X1006391Y523031D01*
X1006354Y523144D01*
X1006332Y523179D01*
X1006317Y523216D01*
X1006248Y523312D01*
X1006184Y523413D01*
X1006154Y523441D01*
X1006131Y523474D01*
X1006039Y523550D01*
X1005952Y523631D01*
X1005917Y523651D01*
X1005886Y523676D01*
X1005778Y523727D01*
X1005674Y523785D01*
X1005634Y523795D01*
X1005598Y523812D01*
X1005481Y523834D01*
X1005366Y523864D01*
X1005306Y523868D01*
X1005286Y523872D01*
X1005265Y523870D01*
X1005205Y523874D01*
X948004Y523874D01*
X947870Y523857D01*
X947735Y523846D01*
X947702Y523836D01*
X947688Y523834D01*
X947668Y523826D01*
X947580Y523802D01*
X947542Y523788D01*
X945933Y523873D01*
X945915Y523871D01*
X945866Y523874D01*
X944255Y523874D01*
X944217Y523890D01*
X944087Y523926D01*
X943958Y523966D01*
X943924Y523970D01*
X943910Y523974D01*
X943889Y523974D01*
X943798Y523985D01*
X943757Y523987D01*
X942303Y524681D01*
X942286Y524687D01*
X942242Y524708D01*
X940754Y525324D01*
X940725Y525354D01*
X940618Y525437D01*
X940515Y525523D01*
X940485Y525540D01*
X940474Y525548D01*
X940454Y525557D01*
X940374Y525602D01*
X940337Y525619D01*
X939259Y526817D01*
X939245Y526829D01*
X939213Y526865D01*
X938074Y528004D01*
X938059Y528042D01*
X937992Y528159D01*
X937929Y528279D01*
X937908Y528306D01*
X937901Y528318D01*
X937886Y528334D01*
X937830Y528405D01*
X846288Y630119D01*
X846225Y630173D01*
X846169Y630234D01*
X846105Y630276D01*
X846047Y630327D01*
X845973Y630363D01*
X845903Y630409D01*
X845831Y630434D01*
X845762Y630468D01*
X845681Y630485D01*
X845603Y630512D01*
X845526Y630518D01*
X845451Y630534D01*
X845368Y630531D01*
X845286Y630537D01*
X845210Y630524D01*
X845133Y630521D01*
X845054Y630497D01*
X844972Y630483D01*
X844902Y630452D01*
X844829Y630429D01*
X844758Y630387D01*
X844682Y630352D01*
X844622Y630305D01*
X844557Y630265D01*
X844499Y630206D01*
X844434Y630154D01*
X844388Y630093D01*
X844334Y630038D01*
X844292Y629966D01*
X844243Y629900D01*
X844178Y629769D01*
X844175Y629763D01*
X844174Y629760D01*
X844172Y629755D01*
X843202Y627415D01*
X839435Y623648D01*
X839012Y623473D01*
X838891Y623404D01*
X838769Y623339D01*
X838754Y623325D01*
X838736Y623315D01*
X838636Y623218D01*
X838533Y623125D01*
X838522Y623108D01*
X838508Y623094D01*
X838435Y622975D01*
X838358Y622859D01*
X838352Y622840D01*
X838341Y622823D01*
X838300Y622690D01*
X838255Y622558D01*
X838254Y622538D01*
X838248Y622519D01*
X838241Y622380D01*
X838230Y622241D01*
X838233Y622221D01*
X838232Y622201D01*
X838261Y622065D01*
X838284Y621928D01*
X838293Y621910D01*
X838297Y621890D01*
X838358Y621765D01*
X838415Y621638D01*
X838428Y621622D01*
X838437Y621604D01*
X838527Y621498D01*
X838614Y621390D01*
X838630Y621377D01*
X838643Y621362D01*
X838756Y621282D01*
X838868Y621198D01*
X838893Y621186D01*
X838903Y621179D01*
X838922Y621172D01*
X839012Y621127D01*
X839435Y620952D01*
X843202Y617185D01*
X845241Y612264D01*
X845241Y606936D01*
X843202Y602015D01*
X839435Y598248D01*
X839012Y598073D01*
X838891Y598004D01*
X838768Y597939D01*
X838753Y597925D01*
X838736Y597915D01*
X838636Y597818D01*
X838533Y597725D01*
X838522Y597708D01*
X838507Y597694D01*
X838435Y597576D01*
X838358Y597459D01*
X838352Y597440D01*
X838341Y597423D01*
X838300Y597290D01*
X838255Y597158D01*
X838254Y597138D01*
X838248Y597119D01*
X838241Y596980D01*
X838230Y596841D01*
X838233Y596821D01*
X838232Y596801D01*
X838261Y596665D01*
X838284Y596528D01*
X838293Y596509D01*
X838297Y596490D01*
X838358Y596364D01*
X838415Y596238D01*
X838428Y596222D01*
X838436Y596204D01*
X838527Y596098D01*
X838614Y595989D01*
X838630Y595977D01*
X838643Y595962D01*
X838757Y595882D01*
X838868Y595798D01*
X838893Y595786D01*
X838903Y595779D01*
X838922Y595772D01*
X839012Y595727D01*
X839435Y595552D01*
X843202Y591785D01*
X845241Y586864D01*
X845241Y581536D01*
X843202Y576615D01*
X839435Y572848D01*
X839012Y572673D01*
X838891Y572604D01*
X838768Y572539D01*
X838753Y572525D01*
X838736Y572515D01*
X838636Y572418D01*
X838533Y572325D01*
X838522Y572308D01*
X838508Y572294D01*
X838435Y572176D01*
X838358Y572059D01*
X838352Y572040D01*
X838341Y572023D01*
X838300Y571890D01*
X838255Y571758D01*
X838254Y571738D01*
X838248Y571719D01*
X838241Y571580D01*
X838230Y571441D01*
X838233Y571421D01*
X838232Y571401D01*
X838261Y571265D01*
X838284Y571128D01*
X838293Y571109D01*
X838297Y571090D01*
X838358Y570965D01*
X838415Y570838D01*
X838428Y570822D01*
X838436Y570804D01*
X838527Y570698D01*
X838614Y570590D01*
X838630Y570577D01*
X838643Y570562D01*
X838756Y570482D01*
X838868Y570398D01*
X838893Y570386D01*
X838903Y570379D01*
X838922Y570372D01*
X839012Y570327D01*
X839435Y570152D01*
X840890Y568697D01*
X840968Y568637D01*
X841040Y568569D01*
X841093Y568540D01*
X841141Y568503D01*
X841232Y568463D01*
X841319Y568415D01*
X841377Y568400D01*
X841433Y568376D01*
X841531Y568361D01*
X841627Y568336D01*
X841727Y568330D01*
X841747Y568326D01*
X841759Y568328D01*
X841787Y568326D01*
X846445Y568326D01*
X849946Y566876D01*
X852804Y564018D01*
X852804Y564017D01*
X947073Y469748D01*
X947105Y469723D01*
X947117Y469710D01*
X947173Y469670D01*
X947256Y469597D01*
X947292Y469578D01*
X947324Y469553D01*
X947362Y469537D01*
X947377Y469526D01*
X947442Y469502D01*
X947539Y469452D01*
X947579Y469443D01*
X947616Y469427D01*
X947656Y469421D01*
X947675Y469414D01*
X947746Y469406D01*
X947850Y469382D01*
X947890Y469384D01*
X947930Y469377D01*
X947969Y469381D01*
X947991Y469378D01*
X948065Y469389D01*
X948168Y469392D01*
X948207Y469403D01*
X948247Y469407D01*
X948281Y469419D01*
X948305Y469423D01*
X948458Y469475D01*
X948467Y469479D01*
X948473Y469480D01*
X948478Y469483D01*
X954055Y471793D01*
X976345Y471793D01*
X981709Y469572D01*
X985814Y465466D01*
X988036Y460103D01*
X988036Y454297D01*
X985814Y448934D01*
X982278Y445398D01*
X982205Y445303D01*
X982126Y445214D01*
X982108Y445178D01*
X982083Y445146D01*
X982036Y445037D01*
X981982Y444931D01*
X981973Y444892D01*
X981957Y444854D01*
X981938Y444737D01*
X981912Y444621D01*
X981913Y444580D01*
X981907Y444540D01*
X981918Y444422D01*
X981922Y444303D01*
X981933Y444264D01*
X981937Y444224D01*
X981977Y444111D01*
X982010Y443997D01*
X982031Y443963D01*
X982044Y443924D01*
X982111Y443826D01*
X982172Y443723D01*
X982211Y443678D01*
X982223Y443661D01*
X982238Y443648D01*
X982278Y443603D01*
X985814Y440066D01*
X988036Y434703D01*
X988036Y428897D01*
X985814Y423534D01*
X982278Y419998D01*
X982205Y419903D01*
X982126Y419814D01*
X982108Y419778D01*
X982083Y419746D01*
X982036Y419637D01*
X981982Y419531D01*
X981973Y419492D01*
X981957Y419454D01*
X981938Y419337D01*
X981912Y419221D01*
X981913Y419180D01*
X981907Y419140D01*
X981918Y419022D01*
X981922Y418903D01*
X981933Y418864D01*
X981937Y418824D01*
X981977Y418711D01*
X982010Y418597D01*
X982031Y418563D01*
X982044Y418524D01*
X982111Y418426D01*
X982172Y418323D01*
X982211Y418278D01*
X982223Y418261D01*
X982238Y418248D01*
X982278Y418203D01*
X985814Y414666D01*
X988036Y409303D01*
X988036Y403497D01*
X985814Y398134D01*
X982278Y394597D01*
X982205Y394503D01*
X982126Y394414D01*
X982108Y394378D01*
X982083Y394346D01*
X982036Y394237D01*
X981982Y394131D01*
X981973Y394092D01*
X981957Y394054D01*
X981938Y393937D01*
X981912Y393821D01*
X981913Y393780D01*
X981907Y393740D01*
X981918Y393622D01*
X981922Y393503D01*
X981933Y393464D01*
X981937Y393424D01*
X981977Y393311D01*
X982010Y393197D01*
X982031Y393162D01*
X982044Y393124D01*
X982111Y393026D01*
X982172Y392923D01*
X982211Y392878D01*
X982223Y392861D01*
X982238Y392848D01*
X982278Y392802D01*
X985814Y389266D01*
X988036Y383903D01*
X988036Y378097D01*
X985814Y372734D01*
X982278Y369198D01*
X982205Y369103D01*
X982126Y369014D01*
X982108Y368978D01*
X982083Y368946D01*
X982036Y368837D01*
X981982Y368731D01*
X981973Y368692D01*
X981957Y368654D01*
X981938Y368537D01*
X981912Y368421D01*
X981913Y368380D01*
X981907Y368340D01*
X981918Y368222D01*
X981922Y368103D01*
X981933Y368064D01*
X981937Y368024D01*
X981977Y367911D01*
X982010Y367797D01*
X982031Y367763D01*
X982044Y367724D01*
X982111Y367626D01*
X982172Y367523D01*
X982211Y367478D01*
X982223Y367461D01*
X982238Y367448D01*
X982278Y367403D01*
X985814Y363866D01*
X988036Y358503D01*
X988036Y352697D01*
X985814Y347334D01*
X982278Y343798D01*
X982205Y343703D01*
X982126Y343614D01*
X982108Y343578D01*
X982083Y343546D01*
X982036Y343437D01*
X981982Y343331D01*
X981973Y343292D01*
X981957Y343254D01*
X981938Y343137D01*
X981912Y343021D01*
X981913Y342980D01*
X981907Y342940D01*
X981918Y342822D01*
X981922Y342703D01*
X981933Y342664D01*
X981937Y342624D01*
X981977Y342511D01*
X982010Y342397D01*
X982031Y342363D01*
X982044Y342324D01*
X982111Y342226D01*
X982172Y342123D01*
X982211Y342078D01*
X982223Y342061D01*
X982238Y342048D01*
X982278Y342003D01*
X985814Y338466D01*
X988036Y333103D01*
X988036Y327297D01*
X985814Y321934D01*
X983548Y319667D01*
X983463Y319558D01*
X983374Y319451D01*
X983365Y319432D01*
X983353Y319416D01*
X983298Y319288D01*
X983239Y319163D01*
X983235Y319143D01*
X983227Y319124D01*
X983205Y318986D01*
X983179Y318850D01*
X983180Y318830D01*
X983177Y318810D01*
X983190Y318671D01*
X983198Y318533D01*
X983205Y318514D01*
X983207Y318494D01*
X983254Y318362D01*
X983297Y318231D01*
X983307Y318213D01*
X983314Y318194D01*
X983392Y318079D01*
X983467Y317962D01*
X983481Y317948D01*
X983493Y317931D01*
X983597Y317839D01*
X983698Y317744D01*
X983716Y317734D01*
X983731Y317721D01*
X983855Y317657D01*
X983977Y317590D01*
X983996Y317585D01*
X984014Y317576D01*
X984150Y317546D01*
X984285Y317511D01*
X984313Y317509D01*
X984325Y317506D01*
X984345Y317507D01*
X984445Y317501D01*
X996221Y317501D01*
X996257Y317505D01*
X996294Y317503D01*
X996414Y317525D01*
X996536Y317541D01*
X996571Y317554D01*
X996606Y317561D01*
X996718Y317612D01*
X996832Y317658D01*
X996862Y317679D01*
X996895Y317695D01*
X996990Y317772D01*
X997089Y317844D01*
X997113Y317873D01*
X997141Y317896D01*
X997244Y318019D01*
X1129800Y498776D01*
X1129801Y498778D01*
X1129802Y498780D01*
X1129876Y498915D01*
X1129954Y499054D01*
X1129955Y499057D01*
X1129956Y499058D01*
X1129993Y499203D01*
X1130035Y499362D01*
X1130035Y499364D01*
X1130035Y499366D01*
X1130045Y499527D01*
X1130045Y500666D01*
X1134252Y504872D01*
X1134262Y504886D01*
X1134275Y504896D01*
X1134281Y504904D01*
X1134297Y504918D01*
X1137634Y508255D01*
X1143583Y508255D01*
X1143599Y508257D01*
X1143615Y508255D01*
X1143626Y508256D01*
X1143647Y508255D01*
X1148366Y508255D01*
X1152572Y504048D01*
X1152586Y504038D01*
X1152596Y504025D01*
X1152604Y504019D01*
X1152618Y504003D01*
X1155955Y500666D01*
X1155955Y494717D01*
X1155957Y494701D01*
X1155955Y494685D01*
X1155956Y494674D01*
X1155955Y494653D01*
X1155955Y489934D01*
X1151748Y485728D01*
X1151738Y485715D01*
X1151726Y485704D01*
X1151622Y485581D01*
X1014538Y298648D01*
X1014503Y298585D01*
X1014460Y298528D01*
X1014389Y298383D01*
X1014067Y297606D01*
X1013036Y296575D01*
X1013026Y296562D01*
X1013013Y296551D01*
X1012910Y296428D01*
X1012048Y295252D01*
X1011329Y294816D01*
X1011272Y294771D01*
X1011210Y294734D01*
X1011089Y294628D01*
X1010494Y294033D01*
X1009147Y293475D01*
X1009133Y293467D01*
X1009117Y293462D01*
X1008975Y293387D01*
X1007728Y292631D01*
X1006896Y292503D01*
X1006827Y292483D01*
X1006756Y292473D01*
X1006604Y292421D01*
X1005826Y292099D01*
X1004368Y292099D01*
X1004352Y292097D01*
X1004336Y292099D01*
X1004175Y292085D01*
X1002734Y291863D01*
X1001917Y292063D01*
X1001845Y292071D01*
X1001776Y292089D01*
X1001615Y292099D01*
X981167Y292099D01*
X981157Y292098D01*
X981148Y292099D01*
X981000Y292078D01*
X980851Y292059D01*
X980842Y292056D01*
X980833Y292055D01*
X980681Y292003D01*
X978690Y291178D01*
X978613Y291134D01*
X978530Y291098D01*
X978475Y291055D01*
X978414Y291021D01*
X978350Y290958D01*
X978279Y290903D01*
X978236Y290848D01*
X978186Y290799D01*
X978139Y290723D01*
X978084Y290652D01*
X978056Y290588D01*
X978019Y290528D01*
X977993Y290443D01*
X977957Y290360D01*
X977946Y290291D01*
X977926Y290224D01*
X977921Y290135D01*
X977907Y290046D01*
X977914Y289977D01*
X977911Y289907D01*
X977929Y289819D01*
X977937Y289730D01*
X977961Y289664D01*
X977975Y289595D01*
X978014Y289515D01*
X978044Y289430D01*
X978084Y289372D01*
X978115Y289309D01*
X978173Y289241D01*
X978223Y289167D01*
X978275Y289121D01*
X978321Y289067D01*
X978394Y289016D01*
X978461Y288957D01*
X978569Y288893D01*
X978581Y288884D01*
X978587Y288882D01*
X978600Y288875D01*
X979094Y288623D01*
X980467Y287625D01*
X981667Y286425D01*
X982665Y285052D01*
X983436Y283539D01*
X983956Y281939D01*
X966470Y281939D01*
X966352Y281924D01*
X966233Y281917D01*
X966195Y281904D01*
X966155Y281899D01*
X966044Y281856D01*
X965931Y281819D01*
X965897Y281797D01*
X965859Y281782D01*
X965763Y281712D01*
X965662Y281649D01*
X965634Y281619D01*
X965602Y281595D01*
X965526Y281504D01*
X965444Y281417D01*
X965425Y281382D01*
X965399Y281351D01*
X965348Y281243D01*
X965291Y281139D01*
X965280Y281099D01*
X965263Y281063D01*
X965241Y280946D01*
X965211Y280831D01*
X965207Y280770D01*
X965203Y280750D01*
X965205Y280730D01*
X965201Y280670D01*
X965201Y278130D01*
X965216Y278012D01*
X965223Y277893D01*
X965236Y277855D01*
X965241Y277814D01*
X965285Y277704D01*
X965321Y277591D01*
X965343Y277556D01*
X965358Y277519D01*
X965428Y277423D01*
X965491Y277322D01*
X965521Y277294D01*
X965545Y277261D01*
X965636Y277186D01*
X965723Y277104D01*
X965758Y277084D01*
X965790Y277059D01*
X965897Y277008D01*
X966002Y276950D01*
X966041Y276940D01*
X966077Y276923D01*
X966194Y276901D01*
X966309Y276871D01*
X966370Y276867D01*
X966390Y276863D01*
X966410Y276865D01*
X966470Y276861D01*
X983956Y276861D01*
X983436Y275261D01*
X982665Y273748D01*
X981667Y272375D01*
X980467Y271175D01*
X979094Y270177D01*
X978600Y269925D01*
X978526Y269875D01*
X978447Y269833D01*
X978395Y269786D01*
X978337Y269747D01*
X978277Y269680D01*
X978211Y269619D01*
X978173Y269561D01*
X978126Y269508D01*
X978086Y269428D01*
X978036Y269354D01*
X978014Y269287D01*
X977982Y269225D01*
X977962Y269138D01*
X977933Y269053D01*
X977928Y268983D01*
X977912Y268915D01*
X977915Y268825D01*
X977908Y268736D01*
X977920Y268667D01*
X977922Y268597D01*
X977947Y268511D01*
X977962Y268422D01*
X977991Y268359D01*
X978011Y268291D01*
X978056Y268214D01*
X978093Y268133D01*
X978137Y268078D01*
X978172Y268017D01*
X978236Y267954D01*
X978292Y267884D01*
X978348Y267842D01*
X978397Y267792D01*
X978474Y267747D01*
X978546Y267693D01*
X978658Y267638D01*
X978671Y267630D01*
X978677Y267628D01*
X978690Y267622D01*
X981709Y266372D01*
X985814Y262266D01*
X988036Y256903D01*
X988036Y251097D01*
X985814Y245734D01*
X981709Y241628D01*
X978690Y240378D01*
X978613Y240334D01*
X978530Y240298D01*
X978475Y240255D01*
X978414Y240221D01*
X978350Y240158D01*
X978279Y240103D01*
X978236Y240048D01*
X978186Y239999D01*
X978139Y239923D01*
X978084Y239852D01*
X978056Y239788D01*
X978019Y239728D01*
X977993Y239643D01*
X977957Y239560D01*
X977946Y239491D01*
X977926Y239424D01*
X977921Y239335D01*
X977907Y239246D01*
X977914Y239176D01*
X977911Y239107D01*
X977929Y239019D01*
X977937Y238930D01*
X977961Y238864D01*
X977975Y238795D01*
X978014Y238715D01*
X978044Y238630D01*
X978084Y238572D01*
X978115Y238509D01*
X978173Y238441D01*
X978223Y238367D01*
X978275Y238321D01*
X978321Y238267D01*
X978394Y238216D01*
X978461Y238157D01*
X978569Y238093D01*
X978581Y238084D01*
X978587Y238082D01*
X978600Y238075D01*
X979094Y237823D01*
X980467Y236825D01*
X981667Y235625D01*
X982665Y234252D01*
X983436Y232739D01*
X983956Y231139D01*
X966470Y231139D01*
X966352Y231124D01*
X966233Y231117D01*
X966195Y231104D01*
X966155Y231099D01*
X966044Y231056D01*
X965931Y231019D01*
X965897Y230997D01*
X965859Y230982D01*
X965763Y230912D01*
X965662Y230849D01*
X965634Y230819D01*
X965602Y230795D01*
X965526Y230704D01*
X965444Y230617D01*
X965425Y230582D01*
X965399Y230551D01*
X965348Y230443D01*
X965291Y230339D01*
X965280Y230299D01*
X965263Y230263D01*
X965241Y230146D01*
X965211Y230031D01*
X965207Y229970D01*
X965203Y229950D01*
X965205Y229930D01*
X965201Y229870D01*
X965201Y228599D01*
X965199Y228599D01*
X965199Y229870D01*
X965184Y229988D01*
X965177Y230107D01*
X965164Y230145D01*
X965159Y230185D01*
X965115Y230296D01*
X965079Y230409D01*
X965057Y230444D01*
X965042Y230481D01*
X964972Y230577D01*
X964909Y230678D01*
X964879Y230706D01*
X964855Y230739D01*
X964764Y230814D01*
X964677Y230896D01*
X964642Y230916D01*
X964610Y230941D01*
X964503Y230992D01*
X964398Y231050D01*
X964359Y231060D01*
X964323Y231077D01*
X964206Y231099D01*
X964091Y231129D01*
X964030Y231133D01*
X964010Y231137D01*
X963990Y231135D01*
X963930Y231139D01*
X946444Y231139D01*
X946964Y232739D01*
X947735Y234252D01*
X948733Y235625D01*
X949933Y236825D01*
X951306Y237823D01*
X951800Y238075D01*
X951874Y238125D01*
X951953Y238167D01*
X952005Y238214D01*
X952063Y238253D01*
X952123Y238320D01*
X952189Y238381D01*
X952227Y238439D01*
X952274Y238492D01*
X952314Y238572D01*
X952364Y238646D01*
X952386Y238713D01*
X952418Y238775D01*
X952438Y238862D01*
X952467Y238947D01*
X952472Y239017D01*
X952488Y239085D01*
X952485Y239175D01*
X952492Y239264D01*
X952480Y239333D01*
X952478Y239403D01*
X952453Y239489D01*
X952438Y239578D01*
X952409Y239641D01*
X952389Y239709D01*
X952344Y239786D01*
X952307Y239867D01*
X952263Y239922D01*
X952228Y239983D01*
X952164Y240046D01*
X952108Y240116D01*
X952052Y240158D01*
X952003Y240208D01*
X951926Y240253D01*
X951854Y240307D01*
X951742Y240362D01*
X951729Y240370D01*
X951723Y240372D01*
X951710Y240378D01*
X948691Y241628D01*
X944586Y245734D01*
X942364Y251097D01*
X942364Y256903D01*
X944586Y262266D01*
X948691Y266372D01*
X951710Y267622D01*
X951787Y267666D01*
X951870Y267702D01*
X951925Y267745D01*
X951986Y267779D01*
X952050Y267842D01*
X952121Y267897D01*
X952164Y267952D01*
X952214Y268001D01*
X952261Y268077D01*
X952316Y268148D01*
X952344Y268212D01*
X952381Y268272D01*
X952407Y268357D01*
X952443Y268440D01*
X952454Y268509D01*
X952474Y268576D01*
X952479Y268665D01*
X952493Y268754D01*
X952486Y268824D01*
X952489Y268893D01*
X952471Y268981D01*
X952463Y269070D01*
X952439Y269136D01*
X952425Y269205D01*
X952386Y269285D01*
X952356Y269370D01*
X952316Y269428D01*
X952285Y269491D01*
X952227Y269559D01*
X952177Y269633D01*
X952125Y269679D01*
X952079Y269733D01*
X952006Y269784D01*
X951939Y269843D01*
X951831Y269907D01*
X951819Y269916D01*
X951813Y269918D01*
X951800Y269925D01*
X951306Y270177D01*
X949933Y271175D01*
X948733Y272375D01*
X947735Y273748D01*
X946964Y275261D01*
X946444Y276861D01*
X963930Y276861D01*
X964048Y276876D01*
X964167Y276883D01*
X964205Y276896D01*
X964245Y276901D01*
X964356Y276944D01*
X964469Y276981D01*
X964503Y277003D01*
X964541Y277018D01*
X964637Y277088D01*
X964738Y277151D01*
X964766Y277181D01*
X964798Y277204D01*
X964874Y277296D01*
X964956Y277383D01*
X964975Y277418D01*
X965001Y277449D01*
X965052Y277557D01*
X965109Y277661D01*
X965120Y277701D01*
X965137Y277737D01*
X965159Y277854D01*
X965189Y277969D01*
X965193Y278030D01*
X965197Y278050D01*
X965195Y278070D01*
X965199Y278130D01*
X965199Y280670D01*
X965184Y280788D01*
X965177Y280907D01*
X965164Y280945D01*
X965159Y280985D01*
X965115Y281096D01*
X965079Y281209D01*
X965057Y281244D01*
X965042Y281281D01*
X964972Y281377D01*
X964909Y281478D01*
X964879Y281506D01*
X964855Y281539D01*
X964764Y281614D01*
X964677Y281696D01*
X964642Y281716D01*
X964610Y281741D01*
X964503Y281792D01*
X964398Y281850D01*
X964359Y281860D01*
X964323Y281877D01*
X964206Y281899D01*
X964091Y281929D01*
X964030Y281933D01*
X964010Y281937D01*
X963990Y281935D01*
X963930Y281939D01*
X946444Y281939D01*
X946964Y283539D01*
X947735Y285052D01*
X948733Y286425D01*
X949933Y287625D01*
X951306Y288623D01*
X951800Y288875D01*
X951874Y288925D01*
X951953Y288967D01*
X952005Y289014D01*
X952063Y289053D01*
X952123Y289120D01*
X952189Y289181D01*
X952227Y289239D01*
X952274Y289292D01*
X952314Y289372D01*
X952364Y289446D01*
X952386Y289513D01*
X952418Y289575D01*
X952438Y289662D01*
X952467Y289747D01*
X952472Y289817D01*
X952488Y289885D01*
X952485Y289975D01*
X952492Y290064D01*
X952480Y290133D01*
X952478Y290203D01*
X952453Y290289D01*
X952438Y290378D01*
X952409Y290441D01*
X952389Y290509D01*
X952344Y290586D01*
X952307Y290667D01*
X952263Y290722D01*
X952228Y290783D01*
X952164Y290846D01*
X952108Y290916D01*
X952052Y290958D01*
X952003Y291008D01*
X951926Y291053D01*
X951854Y291107D01*
X951742Y291162D01*
X951729Y291170D01*
X951723Y291172D01*
X951710Y291178D01*
X948691Y292428D01*
X948122Y292997D01*
X948044Y293058D01*
X947972Y293126D01*
X947919Y293155D01*
X947871Y293192D01*
X947780Y293232D01*
X947693Y293280D01*
X947635Y293295D01*
X947579Y293319D01*
X947481Y293334D01*
X947385Y293359D01*
X947285Y293365D01*
X947265Y293369D01*
X947253Y293367D01*
X947225Y293369D01*
X937755Y293369D01*
X937627Y293353D01*
X937497Y293343D01*
X937469Y293333D01*
X937439Y293329D01*
X937319Y293282D01*
X937196Y293240D01*
X937171Y293223D01*
X937144Y293212D01*
X937039Y293136D01*
X936931Y293065D01*
X936911Y293043D01*
X936886Y293026D01*
X936804Y292926D01*
X936717Y292830D01*
X936694Y292793D01*
X936684Y292781D01*
X936674Y292761D01*
X936633Y292693D01*
X935630Y290792D01*
X935605Y290728D01*
X935572Y290668D01*
X935550Y290580D01*
X935517Y290495D01*
X935510Y290427D01*
X935493Y290361D01*
X935483Y290200D01*
X935483Y98689D01*
X933743Y94488D01*
X926938Y87684D01*
X926938Y87683D01*
X923544Y84289D01*
X919343Y82549D01*
X748296Y82549D01*
G37*
%LPD*%
%LPC*%
G36*
X1258911Y489349D02*
X1258911Y489349D01*
X1251909Y492250D01*
X1234250Y509909D01*
X1231349Y516911D01*
X1231349Y516966D01*
X1231348Y516975D01*
X1231349Y516984D01*
X1231328Y517133D01*
X1231309Y517282D01*
X1231306Y517290D01*
X1231305Y517299D01*
X1231253Y517452D01*
X1230969Y518136D01*
X1230969Y523264D01*
X1231253Y523948D01*
X1231255Y523957D01*
X1231260Y523965D01*
X1231297Y524110D01*
X1231337Y524255D01*
X1231337Y524264D01*
X1231339Y524273D01*
X1231349Y524434D01*
X1231349Y524489D01*
X1232998Y528469D01*
X1233011Y528517D01*
X1233032Y528562D01*
X1233053Y528670D01*
X1233082Y528776D01*
X1233083Y528826D01*
X1233092Y528875D01*
X1233085Y528984D01*
X1233087Y529094D01*
X1233075Y529142D01*
X1233072Y529192D01*
X1233038Y529296D01*
X1233013Y529403D01*
X1232989Y529447D01*
X1232974Y529494D01*
X1232915Y529587D01*
X1232864Y529684D01*
X1232831Y529721D01*
X1232804Y529763D01*
X1232724Y529838D01*
X1232650Y529920D01*
X1232609Y529947D01*
X1232572Y529981D01*
X1232476Y530034D01*
X1232384Y530094D01*
X1232337Y530111D01*
X1232294Y530135D01*
X1232188Y530162D01*
X1232083Y530198D01*
X1232034Y530202D01*
X1231986Y530214D01*
X1231825Y530224D01*
X1160171Y530224D01*
X1160073Y530212D01*
X1159974Y530209D01*
X1159916Y530192D01*
X1159856Y530184D01*
X1159764Y530148D01*
X1159669Y530120D01*
X1159617Y530090D01*
X1159560Y530067D01*
X1159480Y530009D01*
X1159395Y529959D01*
X1159319Y529893D01*
X1159303Y529881D01*
X1159295Y529871D01*
X1159274Y529853D01*
X1157604Y528183D01*
X1154746Y525324D01*
X1152417Y524360D01*
X1152409Y524355D01*
X1152400Y524353D01*
X1152271Y524277D01*
X1152141Y524202D01*
X1152134Y524196D01*
X1152126Y524191D01*
X1152006Y524085D01*
X1148366Y520445D01*
X1137634Y520445D01*
X1130045Y528034D01*
X1130045Y538766D01*
X1137634Y546355D01*
X1148308Y546355D01*
X1148406Y546367D01*
X1148505Y546370D01*
X1148563Y546387D01*
X1148623Y546395D01*
X1148715Y546431D01*
X1148810Y546459D01*
X1148863Y546489D01*
X1148919Y546512D01*
X1148999Y546570D01*
X1149084Y546620D01*
X1149159Y546686D01*
X1149176Y546698D01*
X1149184Y546708D01*
X1149205Y546727D01*
X1150304Y547826D01*
X1153805Y549276D01*
X1230375Y549276D01*
X1230404Y549279D01*
X1230433Y549277D01*
X1230561Y549299D01*
X1230690Y549316D01*
X1230717Y549326D01*
X1230747Y549331D01*
X1230865Y549385D01*
X1230986Y549433D01*
X1231010Y549450D01*
X1231037Y549462D01*
X1231138Y549543D01*
X1231243Y549619D01*
X1231262Y549642D01*
X1231285Y549661D01*
X1231363Y549764D01*
X1231446Y549864D01*
X1231458Y549891D01*
X1231476Y549915D01*
X1231547Y550059D01*
X1232932Y553402D01*
X1236558Y557028D01*
X1238004Y557627D01*
X1238125Y557696D01*
X1238248Y557761D01*
X1238263Y557775D01*
X1238281Y557785D01*
X1238381Y557882D01*
X1238483Y557975D01*
X1238495Y557992D01*
X1238509Y558006D01*
X1238582Y558124D01*
X1238658Y558241D01*
X1238665Y558260D01*
X1238675Y558277D01*
X1238716Y558410D01*
X1238761Y558542D01*
X1238763Y558562D01*
X1238769Y558581D01*
X1238776Y558720D01*
X1238787Y558859D01*
X1238783Y558879D01*
X1238784Y558899D01*
X1238756Y559035D01*
X1238732Y559172D01*
X1238724Y559191D01*
X1238720Y559210D01*
X1238659Y559335D01*
X1238602Y559462D01*
X1238589Y559478D01*
X1238580Y559496D01*
X1238490Y559602D01*
X1238403Y559710D01*
X1238387Y559723D01*
X1238374Y559738D01*
X1238260Y559818D01*
X1238149Y559902D01*
X1238124Y559914D01*
X1238114Y559921D01*
X1238094Y559928D01*
X1238004Y559973D01*
X1236558Y560572D01*
X1232932Y564198D01*
X1231547Y567541D01*
X1231533Y567566D01*
X1231523Y567594D01*
X1231454Y567704D01*
X1231390Y567817D01*
X1231369Y567838D01*
X1231353Y567863D01*
X1231259Y567952D01*
X1231168Y568045D01*
X1231143Y568061D01*
X1231122Y568081D01*
X1231008Y568144D01*
X1230897Y568212D01*
X1230869Y568220D01*
X1230843Y568235D01*
X1230717Y568267D01*
X1230593Y568305D01*
X1230564Y568307D01*
X1230535Y568314D01*
X1230375Y568324D01*
X1160155Y568324D01*
X1156654Y569774D01*
X1153796Y572633D01*
X1152672Y573756D01*
X1152578Y573829D01*
X1152489Y573908D01*
X1152453Y573927D01*
X1152421Y573951D01*
X1152312Y573999D01*
X1152206Y574053D01*
X1152166Y574062D01*
X1152129Y574078D01*
X1152011Y574096D01*
X1151895Y574122D01*
X1151855Y574121D01*
X1151815Y574128D01*
X1151696Y574116D01*
X1151577Y574113D01*
X1151539Y574102D01*
X1151498Y574098D01*
X1151386Y574057D01*
X1151272Y574024D01*
X1151237Y574004D01*
X1151199Y573990D01*
X1151100Y573923D01*
X1150998Y573863D01*
X1150953Y573823D01*
X1150936Y573812D01*
X1150922Y573796D01*
X1150877Y573756D01*
X1148366Y571245D01*
X1137634Y571245D01*
X1130045Y578834D01*
X1130045Y589566D01*
X1137634Y597155D01*
X1148366Y597155D01*
X1151423Y594097D01*
X1151502Y594037D01*
X1151574Y593969D01*
X1151627Y593940D01*
X1151675Y593903D01*
X1151766Y593863D01*
X1151852Y593815D01*
X1151911Y593800D01*
X1151966Y593776D01*
X1152064Y593761D01*
X1152160Y593736D01*
X1152260Y593730D01*
X1152280Y593726D01*
X1152293Y593728D01*
X1152321Y593726D01*
X1157595Y593726D01*
X1161096Y592276D01*
X1163954Y589418D01*
X1163954Y589417D01*
X1165624Y587747D01*
X1165702Y587687D01*
X1165774Y587619D01*
X1165827Y587590D01*
X1165875Y587553D01*
X1165966Y587513D01*
X1166053Y587465D01*
X1166111Y587450D01*
X1166167Y587426D01*
X1166265Y587411D01*
X1166361Y587386D01*
X1166461Y587380D01*
X1166481Y587376D01*
X1166493Y587378D01*
X1166521Y587376D01*
X1231711Y587376D01*
X1231840Y587392D01*
X1231970Y587402D01*
X1231998Y587412D01*
X1232027Y587416D01*
X1232147Y587463D01*
X1232271Y587506D01*
X1232295Y587522D01*
X1232322Y587533D01*
X1232427Y587609D01*
X1232537Y587681D01*
X1232556Y587702D01*
X1232580Y587719D01*
X1232663Y587820D01*
X1232750Y587916D01*
X1232764Y587942D01*
X1232783Y587964D01*
X1232838Y588082D01*
X1232899Y588197D01*
X1232906Y588226D01*
X1232918Y588252D01*
X1232943Y588380D01*
X1232973Y588507D01*
X1232972Y588536D01*
X1232978Y588564D01*
X1232970Y588694D01*
X1232968Y588825D01*
X1232960Y588853D01*
X1232958Y588882D01*
X1232918Y589006D01*
X1232884Y589131D01*
X1232865Y589169D01*
X1232860Y589184D01*
X1232848Y589203D01*
X1232813Y589276D01*
X1231985Y590720D01*
X1231791Y592236D01*
X1231769Y592321D01*
X1231757Y592408D01*
X1231715Y592531D01*
X1231712Y592543D01*
X1231709Y592549D01*
X1231705Y592560D01*
X1230969Y594336D01*
X1230969Y599464D01*
X1232060Y602098D01*
X1232112Y602251D01*
X1238205Y624678D01*
X1238217Y624765D01*
X1238239Y624850D01*
X1238247Y624980D01*
X1238249Y624993D01*
X1238248Y624999D01*
X1238249Y625011D01*
X1238249Y626089D01*
X1239203Y628392D01*
X1239203Y628393D01*
X1239255Y628545D01*
X1239909Y630951D01*
X1240568Y631804D01*
X1240613Y631880D01*
X1240666Y631950D01*
X1240723Y632067D01*
X1240730Y632078D01*
X1240731Y632084D01*
X1240737Y632095D01*
X1241150Y633091D01*
X1242912Y634854D01*
X1242913Y634855D01*
X1243019Y634975D01*
X1244543Y636948D01*
X1245479Y637484D01*
X1245549Y637537D01*
X1245625Y637581D01*
X1245723Y637667D01*
X1245733Y637675D01*
X1245737Y637680D01*
X1245746Y637688D01*
X1246509Y638450D01*
X1248812Y639404D01*
X1248812Y639405D01*
X1248957Y639476D01*
X1251120Y640715D01*
X1252190Y640852D01*
X1252275Y640874D01*
X1252362Y640886D01*
X1252485Y640928D01*
X1252498Y640931D01*
X1252503Y640934D01*
X1252514Y640938D01*
X1253511Y641351D01*
X1256003Y641351D01*
X1256004Y641351D01*
X1256165Y641361D01*
X1258637Y641678D01*
X1259678Y641395D01*
X1259765Y641383D01*
X1259850Y641361D01*
X1259980Y641353D01*
X1259993Y641351D01*
X1259999Y641352D01*
X1260011Y641351D01*
X1370710Y641351D01*
X1370731Y641353D01*
X1370821Y641356D01*
X1373709Y641609D01*
X1374343Y641409D01*
X1374454Y641389D01*
X1374564Y641361D01*
X1374635Y641356D01*
X1374656Y641353D01*
X1374674Y641354D01*
X1374724Y641351D01*
X1375389Y641351D01*
X1378068Y640241D01*
X1378089Y640236D01*
X1378172Y640203D01*
X1380938Y639332D01*
X1381447Y638905D01*
X1381542Y638844D01*
X1381632Y638776D01*
X1381696Y638745D01*
X1381714Y638733D01*
X1381732Y638727D01*
X1381777Y638705D01*
X1382391Y638450D01*
X1384441Y636400D01*
X1384458Y636387D01*
X1384523Y636325D01*
X1455212Y577047D01*
X1455248Y577024D01*
X1455280Y576994D01*
X1455382Y576938D01*
X1455479Y576875D01*
X1455520Y576861D01*
X1455558Y576840D01*
X1455671Y576811D01*
X1455781Y576775D01*
X1455824Y576772D01*
X1455866Y576761D01*
X1456027Y576751D01*
X1463450Y576751D01*
X1470195Y573957D01*
X1475357Y568795D01*
X1478151Y562050D01*
X1478151Y554750D01*
X1475357Y548005D01*
X1470195Y542843D01*
X1463450Y540049D01*
X1454119Y540049D01*
X1454055Y540041D01*
X1453990Y540043D01*
X1453898Y540021D01*
X1453804Y540009D01*
X1453743Y539986D01*
X1453680Y539971D01*
X1453533Y539906D01*
X1453241Y539754D01*
X1445691Y539091D01*
X1442835Y539991D01*
X1442723Y540011D01*
X1442614Y540039D01*
X1442543Y540044D01*
X1442522Y540047D01*
X1442503Y540046D01*
X1442453Y540049D01*
X1432150Y540049D01*
X1425405Y542843D01*
X1420243Y548005D01*
X1417449Y554750D01*
X1417449Y558397D01*
X1417430Y558549D01*
X1417412Y558703D01*
X1417410Y558708D01*
X1417409Y558712D01*
X1417352Y558856D01*
X1417297Y559000D01*
X1417294Y559004D01*
X1417292Y559008D01*
X1417201Y559133D01*
X1417112Y559258D01*
X1417107Y559263D01*
X1417106Y559265D01*
X1417099Y559271D01*
X1416996Y559369D01*
X1365023Y602953D01*
X1364987Y602976D01*
X1364955Y603006D01*
X1364853Y603062D01*
X1364756Y603125D01*
X1364714Y603139D01*
X1364676Y603160D01*
X1364564Y603189D01*
X1364454Y603225D01*
X1364411Y603228D01*
X1364368Y603239D01*
X1364208Y603249D01*
X1272836Y603249D01*
X1272727Y603235D01*
X1272617Y603230D01*
X1272570Y603216D01*
X1272521Y603209D01*
X1272419Y603169D01*
X1272313Y603136D01*
X1272271Y603111D01*
X1272225Y603092D01*
X1272136Y603028D01*
X1272042Y602970D01*
X1272008Y602935D01*
X1271968Y602906D01*
X1271898Y602821D01*
X1271821Y602741D01*
X1271797Y602699D01*
X1271765Y602661D01*
X1271718Y602561D01*
X1271664Y602465D01*
X1271639Y602393D01*
X1271630Y602373D01*
X1271626Y602356D01*
X1271612Y602313D01*
X1269875Y595921D01*
X1269863Y595834D01*
X1269841Y595749D01*
X1269833Y595619D01*
X1269831Y595606D01*
X1269832Y595600D01*
X1269831Y595588D01*
X1269831Y594336D01*
X1268740Y591702D01*
X1268688Y591549D01*
X1267791Y588249D01*
X1264390Y583848D01*
X1264370Y583814D01*
X1264345Y583786D01*
X1264290Y583678D01*
X1264228Y583574D01*
X1264217Y583537D01*
X1264200Y583502D01*
X1264173Y583384D01*
X1264140Y583268D01*
X1264139Y583230D01*
X1264130Y583192D01*
X1264134Y583071D01*
X1264130Y582950D01*
X1264139Y582913D01*
X1264140Y582874D01*
X1264174Y582758D01*
X1264200Y582640D01*
X1264218Y582606D01*
X1264228Y582569D01*
X1264290Y582465D01*
X1264345Y582357D01*
X1264370Y582328D01*
X1264390Y582295D01*
X1264496Y582174D01*
X1267868Y578802D01*
X1269831Y574064D01*
X1269831Y568936D01*
X1267868Y564198D01*
X1264242Y560572D01*
X1262796Y559973D01*
X1262675Y559904D01*
X1262552Y559839D01*
X1262537Y559825D01*
X1262519Y559815D01*
X1262419Y559718D01*
X1262317Y559625D01*
X1262305Y559608D01*
X1262291Y559594D01*
X1262218Y559475D01*
X1262142Y559359D01*
X1262135Y559340D01*
X1262125Y559323D01*
X1262084Y559190D01*
X1262039Y559058D01*
X1262037Y559038D01*
X1262031Y559019D01*
X1262024Y558880D01*
X1262013Y558741D01*
X1262017Y558721D01*
X1262016Y558701D01*
X1262044Y558565D01*
X1262068Y558428D01*
X1262076Y558409D01*
X1262080Y558390D01*
X1262141Y558264D01*
X1262198Y558138D01*
X1262211Y558122D01*
X1262220Y558104D01*
X1262310Y557998D01*
X1262397Y557890D01*
X1262413Y557877D01*
X1262426Y557862D01*
X1262540Y557782D01*
X1262651Y557698D01*
X1262676Y557686D01*
X1262686Y557679D01*
X1262705Y557672D01*
X1262796Y557627D01*
X1264242Y557028D01*
X1267868Y553402D01*
X1269831Y548664D01*
X1269831Y543536D01*
X1267868Y538798D01*
X1264454Y535383D01*
X1264381Y535289D01*
X1264302Y535200D01*
X1264283Y535164D01*
X1264259Y535132D01*
X1264211Y535023D01*
X1264157Y534917D01*
X1264148Y534877D01*
X1264132Y534840D01*
X1264114Y534722D01*
X1264088Y534606D01*
X1264089Y534566D01*
X1264082Y534526D01*
X1264094Y534407D01*
X1264097Y534289D01*
X1264108Y534250D01*
X1264112Y534209D01*
X1264153Y534097D01*
X1264186Y533983D01*
X1264206Y533948D01*
X1264220Y533910D01*
X1264287Y533812D01*
X1264347Y533709D01*
X1264387Y533664D01*
X1264398Y533647D01*
X1264414Y533634D01*
X1264454Y533588D01*
X1267803Y530239D01*
X1267912Y530154D01*
X1268019Y530065D01*
X1268038Y530057D01*
X1268054Y530044D01*
X1268182Y529989D01*
X1268307Y529930D01*
X1268327Y529926D01*
X1268346Y529918D01*
X1268484Y529896D01*
X1268620Y529870D01*
X1268640Y529871D01*
X1268660Y529868D01*
X1268799Y529881D01*
X1268937Y529890D01*
X1268956Y529896D01*
X1268976Y529898D01*
X1269108Y529945D01*
X1269239Y529988D01*
X1269257Y529999D01*
X1269276Y530006D01*
X1269391Y530084D01*
X1269508Y530158D01*
X1269522Y530173D01*
X1269539Y530184D01*
X1269631Y530288D01*
X1269726Y530390D01*
X1269736Y530407D01*
X1269749Y530423D01*
X1269813Y530547D01*
X1269880Y530668D01*
X1269885Y530688D01*
X1269894Y530706D01*
X1269924Y530842D01*
X1269959Y530976D01*
X1269961Y531004D01*
X1269964Y531016D01*
X1269963Y531037D01*
X1269969Y531137D01*
X1269969Y535964D01*
X1271932Y540702D01*
X1275558Y544328D01*
X1280296Y546291D01*
X1298504Y546291D01*
X1303242Y544328D01*
X1306868Y540702D01*
X1308831Y535964D01*
X1308831Y530836D01*
X1308155Y529206D01*
X1308142Y529158D01*
X1308121Y529113D01*
X1308101Y529005D01*
X1308072Y528899D01*
X1308071Y528849D01*
X1308061Y528800D01*
X1308068Y528691D01*
X1308066Y528581D01*
X1308078Y528533D01*
X1308081Y528483D01*
X1308115Y528379D01*
X1308141Y528272D01*
X1308164Y528228D01*
X1308179Y528181D01*
X1308238Y528088D01*
X1308289Y527991D01*
X1308323Y527954D01*
X1308349Y527912D01*
X1308429Y527837D01*
X1308503Y527755D01*
X1308545Y527728D01*
X1308581Y527694D01*
X1308677Y527641D01*
X1308769Y527581D01*
X1308816Y527564D01*
X1308859Y527540D01*
X1308966Y527513D01*
X1309070Y527477D01*
X1309119Y527473D01*
X1309167Y527461D01*
X1309328Y527451D01*
X1451589Y527451D01*
X1453046Y526847D01*
X1453055Y526845D01*
X1453063Y526840D01*
X1453208Y526803D01*
X1453353Y526763D01*
X1453362Y526763D01*
X1453371Y526761D01*
X1453532Y526751D01*
X1463450Y526751D01*
X1470195Y523957D01*
X1475357Y518795D01*
X1478151Y512050D01*
X1478151Y504750D01*
X1475357Y498005D01*
X1470195Y492843D01*
X1463450Y490049D01*
X1453532Y490049D01*
X1453523Y490048D01*
X1453513Y490049D01*
X1453365Y490028D01*
X1453216Y490009D01*
X1453208Y490006D01*
X1453198Y490005D01*
X1453046Y489953D01*
X1451589Y489349D01*
X1258911Y489349D01*
G37*
%LPD*%
%LPC*%
G36*
X1295399Y355599D02*
X1295399Y355599D01*
X1295399Y356870D01*
X1295384Y356988D01*
X1295377Y357107D01*
X1295364Y357145D01*
X1295359Y357185D01*
X1295315Y357296D01*
X1295279Y357409D01*
X1295257Y357444D01*
X1295242Y357481D01*
X1295172Y357577D01*
X1295109Y357678D01*
X1295079Y357706D01*
X1295055Y357739D01*
X1294964Y357814D01*
X1294877Y357896D01*
X1294842Y357916D01*
X1294810Y357941D01*
X1294703Y357992D01*
X1294598Y358050D01*
X1294559Y358060D01*
X1294523Y358077D01*
X1294406Y358099D01*
X1294291Y358129D01*
X1294230Y358133D01*
X1294210Y358137D01*
X1294190Y358135D01*
X1294130Y358139D01*
X1276644Y358139D01*
X1277164Y359739D01*
X1277935Y361252D01*
X1278933Y362625D01*
X1280133Y363825D01*
X1281506Y364823D01*
X1282000Y365075D01*
X1282074Y365125D01*
X1282153Y365167D01*
X1282205Y365214D01*
X1282263Y365253D01*
X1282323Y365320D01*
X1282389Y365381D01*
X1282427Y365439D01*
X1282474Y365492D01*
X1282514Y365572D01*
X1282563Y365646D01*
X1282586Y365713D01*
X1282618Y365775D01*
X1282638Y365862D01*
X1282667Y365947D01*
X1282672Y366017D01*
X1282688Y366085D01*
X1282685Y366175D01*
X1282692Y366264D01*
X1282680Y366333D01*
X1282678Y366403D01*
X1282653Y366489D01*
X1282638Y366578D01*
X1282609Y366641D01*
X1282589Y366709D01*
X1282544Y366786D01*
X1282507Y366867D01*
X1282463Y366922D01*
X1282428Y366983D01*
X1282364Y367046D01*
X1282308Y367116D01*
X1282252Y367158D01*
X1282203Y367208D01*
X1282126Y367253D01*
X1282054Y367307D01*
X1281942Y367362D01*
X1281929Y367370D01*
X1281923Y367372D01*
X1281910Y367378D01*
X1278891Y368628D01*
X1274786Y372734D01*
X1272564Y378097D01*
X1272564Y383903D01*
X1274786Y389266D01*
X1278322Y392802D01*
X1278395Y392897D01*
X1278474Y392986D01*
X1278492Y393022D01*
X1278517Y393054D01*
X1278564Y393163D01*
X1278618Y393269D01*
X1278627Y393308D01*
X1278643Y393346D01*
X1278662Y393463D01*
X1278688Y393579D01*
X1278687Y393620D01*
X1278693Y393660D01*
X1278682Y393778D01*
X1278678Y393897D01*
X1278667Y393936D01*
X1278663Y393976D01*
X1278623Y394089D01*
X1278590Y394203D01*
X1278569Y394237D01*
X1278556Y394276D01*
X1278489Y394374D01*
X1278428Y394477D01*
X1278389Y394522D01*
X1278377Y394539D01*
X1278362Y394552D01*
X1278322Y394597D01*
X1274786Y398134D01*
X1272564Y403497D01*
X1272564Y409303D01*
X1274786Y414666D01*
X1278322Y418202D01*
X1278395Y418297D01*
X1278474Y418386D01*
X1278492Y418422D01*
X1278517Y418454D01*
X1278564Y418563D01*
X1278618Y418669D01*
X1278627Y418708D01*
X1278643Y418746D01*
X1278662Y418863D01*
X1278688Y418979D01*
X1278687Y419020D01*
X1278693Y419060D01*
X1278682Y419178D01*
X1278678Y419297D01*
X1278667Y419336D01*
X1278663Y419376D01*
X1278623Y419489D01*
X1278590Y419603D01*
X1278569Y419637D01*
X1278556Y419676D01*
X1278489Y419774D01*
X1278428Y419877D01*
X1278389Y419922D01*
X1278377Y419939D01*
X1278362Y419952D01*
X1278322Y419997D01*
X1274786Y423534D01*
X1272564Y428897D01*
X1272564Y434703D01*
X1274786Y440066D01*
X1278322Y443602D01*
X1278395Y443697D01*
X1278474Y443786D01*
X1278492Y443822D01*
X1278517Y443854D01*
X1278564Y443963D01*
X1278618Y444069D01*
X1278627Y444108D01*
X1278643Y444146D01*
X1278662Y444263D01*
X1278688Y444379D01*
X1278687Y444420D01*
X1278693Y444460D01*
X1278682Y444578D01*
X1278678Y444697D01*
X1278667Y444736D01*
X1278663Y444776D01*
X1278623Y444889D01*
X1278590Y445003D01*
X1278569Y445037D01*
X1278556Y445076D01*
X1278489Y445174D01*
X1278428Y445277D01*
X1278389Y445322D01*
X1278377Y445339D01*
X1278362Y445352D01*
X1278322Y445397D01*
X1274786Y448934D01*
X1272564Y454297D01*
X1272564Y460103D01*
X1274786Y465466D01*
X1278891Y469572D01*
X1281967Y470846D01*
X1281975Y470850D01*
X1281984Y470853D01*
X1282113Y470929D01*
X1282244Y471003D01*
X1282250Y471010D01*
X1282258Y471015D01*
X1282379Y471121D01*
X1284609Y473350D01*
X1291611Y476251D01*
X1451189Y476251D01*
X1453612Y475247D01*
X1453621Y475245D01*
X1453629Y475240D01*
X1453774Y475203D01*
X1453919Y475163D01*
X1453928Y475163D01*
X1453937Y475161D01*
X1454098Y475151D01*
X1463450Y475151D01*
X1470195Y472357D01*
X1475357Y467195D01*
X1478151Y460450D01*
X1478151Y453150D01*
X1475357Y446405D01*
X1470195Y441243D01*
X1463450Y438449D01*
X1453532Y438449D01*
X1453523Y438448D01*
X1453513Y438449D01*
X1453365Y438428D01*
X1453216Y438409D01*
X1453208Y438406D01*
X1453198Y438405D01*
X1453046Y438353D01*
X1451589Y437749D01*
X1444011Y437749D01*
X1443278Y438053D01*
X1443269Y438055D01*
X1443261Y438060D01*
X1443116Y438097D01*
X1442971Y438137D01*
X1442962Y438137D01*
X1442953Y438139D01*
X1442792Y438149D01*
X1318708Y438149D01*
X1318658Y438143D01*
X1318609Y438145D01*
X1318501Y438123D01*
X1318392Y438109D01*
X1318346Y438091D01*
X1318297Y438081D01*
X1318199Y438033D01*
X1318096Y437992D01*
X1318056Y437963D01*
X1318012Y437941D01*
X1317928Y437870D01*
X1317839Y437806D01*
X1317807Y437767D01*
X1317770Y437735D01*
X1317706Y437645D01*
X1317636Y437561D01*
X1317615Y437516D01*
X1317587Y437475D01*
X1317548Y437372D01*
X1317501Y437273D01*
X1317491Y437224D01*
X1317474Y437178D01*
X1317462Y437068D01*
X1317441Y436961D01*
X1317444Y436911D01*
X1317439Y436862D01*
X1317454Y436753D01*
X1317461Y436643D01*
X1317476Y436596D01*
X1317483Y436547D01*
X1317535Y436394D01*
X1318236Y434703D01*
X1318236Y428897D01*
X1317535Y427206D01*
X1317522Y427158D01*
X1317501Y427113D01*
X1317480Y427005D01*
X1317451Y426899D01*
X1317450Y426849D01*
X1317441Y426800D01*
X1317448Y426691D01*
X1317446Y426581D01*
X1317458Y426533D01*
X1317461Y426483D01*
X1317495Y426379D01*
X1317520Y426272D01*
X1317543Y426228D01*
X1317559Y426181D01*
X1317618Y426088D01*
X1317669Y425991D01*
X1317702Y425954D01*
X1317729Y425912D01*
X1317809Y425837D01*
X1317883Y425755D01*
X1317924Y425728D01*
X1317961Y425694D01*
X1318057Y425641D01*
X1318149Y425581D01*
X1318196Y425564D01*
X1318239Y425540D01*
X1318345Y425513D01*
X1318449Y425477D01*
X1318499Y425473D01*
X1318547Y425461D01*
X1318708Y425451D01*
X1442792Y425451D01*
X1442802Y425452D01*
X1442811Y425451D01*
X1442960Y425472D01*
X1443108Y425491D01*
X1443117Y425494D01*
X1443126Y425495D01*
X1443278Y425547D01*
X1444011Y425851D01*
X1451589Y425851D01*
X1453046Y425247D01*
X1453055Y425245D01*
X1453063Y425240D01*
X1453208Y425203D01*
X1453353Y425163D01*
X1453362Y425163D01*
X1453371Y425161D01*
X1453532Y425151D01*
X1463450Y425151D01*
X1470195Y422357D01*
X1475357Y417195D01*
X1478151Y410450D01*
X1478151Y403150D01*
X1475357Y396405D01*
X1470195Y391243D01*
X1463450Y388449D01*
X1454098Y388449D01*
X1454088Y388448D01*
X1454079Y388449D01*
X1453930Y388428D01*
X1453782Y388409D01*
X1453773Y388406D01*
X1453764Y388405D01*
X1453612Y388353D01*
X1451189Y387349D01*
X1318708Y387349D01*
X1318658Y387343D01*
X1318609Y387345D01*
X1318501Y387323D01*
X1318392Y387309D01*
X1318346Y387291D01*
X1318297Y387281D01*
X1318199Y387233D01*
X1318096Y387192D01*
X1318056Y387163D01*
X1318012Y387141D01*
X1317928Y387070D01*
X1317839Y387006D01*
X1317807Y386967D01*
X1317770Y386935D01*
X1317706Y386845D01*
X1317636Y386761D01*
X1317615Y386716D01*
X1317587Y386675D01*
X1317548Y386572D01*
X1317501Y386473D01*
X1317491Y386424D01*
X1317474Y386378D01*
X1317462Y386268D01*
X1317441Y386161D01*
X1317444Y386111D01*
X1317439Y386062D01*
X1317454Y385953D01*
X1317461Y385843D01*
X1317476Y385796D01*
X1317483Y385747D01*
X1317535Y385594D01*
X1318236Y383903D01*
X1318236Y378097D01*
X1316014Y372734D01*
X1311909Y368628D01*
X1308890Y367378D01*
X1308813Y367334D01*
X1308730Y367298D01*
X1308675Y367255D01*
X1308614Y367221D01*
X1308550Y367158D01*
X1308479Y367103D01*
X1308436Y367048D01*
X1308386Y366999D01*
X1308339Y366923D01*
X1308284Y366852D01*
X1308256Y366788D01*
X1308219Y366728D01*
X1308193Y366643D01*
X1308157Y366560D01*
X1308146Y366491D01*
X1308126Y366424D01*
X1308121Y366335D01*
X1308107Y366246D01*
X1308114Y366176D01*
X1308111Y366107D01*
X1308129Y366019D01*
X1308137Y365930D01*
X1308161Y365864D01*
X1308175Y365795D01*
X1308214Y365714D01*
X1308244Y365630D01*
X1308284Y365573D01*
X1308315Y365509D01*
X1308373Y365441D01*
X1308423Y365367D01*
X1308475Y365321D01*
X1308521Y365267D01*
X1308594Y365216D01*
X1308661Y365157D01*
X1308769Y365093D01*
X1308781Y365084D01*
X1308787Y365082D01*
X1308800Y365075D01*
X1309294Y364823D01*
X1310667Y363825D01*
X1311867Y362625D01*
X1312865Y361252D01*
X1313636Y359739D01*
X1314156Y358139D01*
X1296670Y358139D01*
X1296552Y358124D01*
X1296433Y358117D01*
X1296395Y358104D01*
X1296355Y358099D01*
X1296244Y358056D01*
X1296131Y358019D01*
X1296097Y357997D01*
X1296059Y357982D01*
X1295963Y357912D01*
X1295862Y357849D01*
X1295834Y357819D01*
X1295802Y357795D01*
X1295726Y357704D01*
X1295644Y357617D01*
X1295625Y357582D01*
X1295599Y357551D01*
X1295548Y357443D01*
X1295491Y357339D01*
X1295480Y357299D01*
X1295463Y357263D01*
X1295441Y357146D01*
X1295411Y357031D01*
X1295407Y356970D01*
X1295403Y356950D01*
X1295405Y356930D01*
X1295401Y356870D01*
X1295401Y355599D01*
X1295399Y355599D01*
G37*
%LPD*%
G36*
X731578Y216978D02*
X731578Y216978D01*
X731717Y216982D01*
X731737Y216988D01*
X731757Y216989D01*
X731889Y217032D01*
X732023Y217070D01*
X732040Y217081D01*
X732059Y217087D01*
X732177Y217161D01*
X732297Y217232D01*
X732318Y217250D01*
X732328Y217257D01*
X732342Y217272D01*
X732417Y217338D01*
X737584Y222505D01*
X741908Y222505D01*
X742006Y222517D01*
X742105Y222520D01*
X742163Y222537D01*
X742223Y222545D01*
X742315Y222581D01*
X742410Y222609D01*
X742462Y222639D01*
X742519Y222662D01*
X742599Y222720D01*
X742684Y222770D01*
X742760Y222836D01*
X742776Y222848D01*
X742784Y222858D01*
X742805Y222876D01*
X745753Y225824D01*
X745813Y225902D01*
X745881Y225974D01*
X745910Y226027D01*
X745947Y226075D01*
X745987Y226166D01*
X746035Y226253D01*
X746050Y226311D01*
X746074Y226367D01*
X746089Y226465D01*
X746114Y226561D01*
X746120Y226661D01*
X746124Y226681D01*
X746122Y226693D01*
X746124Y226721D01*
X746124Y509879D01*
X746112Y509977D01*
X746109Y510076D01*
X746092Y510134D01*
X746084Y510194D01*
X746048Y510286D01*
X746020Y510381D01*
X745990Y510433D01*
X745967Y510490D01*
X745909Y510570D01*
X745859Y510655D01*
X745793Y510731D01*
X745781Y510747D01*
X745771Y510755D01*
X745753Y510776D01*
X695007Y561521D01*
X694898Y561606D01*
X694791Y561695D01*
X694772Y561704D01*
X694756Y561716D01*
X694628Y561772D01*
X694503Y561831D01*
X694483Y561834D01*
X694464Y561842D01*
X694326Y561864D01*
X694190Y561890D01*
X694170Y561889D01*
X694150Y561892D01*
X694011Y561879D01*
X693873Y561871D01*
X693854Y561864D01*
X693834Y561862D01*
X693702Y561815D01*
X693571Y561773D01*
X693553Y561762D01*
X693534Y561755D01*
X693419Y561677D01*
X693302Y561602D01*
X693288Y561588D01*
X693271Y561576D01*
X693179Y561472D01*
X693084Y561371D01*
X693074Y561353D01*
X693061Y561338D01*
X692997Y561214D01*
X692930Y561092D01*
X692925Y561073D01*
X692916Y561055D01*
X692886Y560919D01*
X692851Y560784D01*
X692849Y560756D01*
X692846Y560744D01*
X692847Y560724D01*
X692841Y560624D01*
X692841Y556136D01*
X690802Y551215D01*
X687035Y547448D01*
X686612Y547273D01*
X686491Y547204D01*
X686368Y547139D01*
X686353Y547125D01*
X686336Y547115D01*
X686236Y547018D01*
X686133Y546925D01*
X686122Y546908D01*
X686108Y546894D01*
X686035Y546776D01*
X685958Y546659D01*
X685952Y546640D01*
X685941Y546623D01*
X685900Y546490D01*
X685855Y546358D01*
X685854Y546338D01*
X685848Y546319D01*
X685841Y546180D01*
X685830Y546041D01*
X685833Y546021D01*
X685832Y546001D01*
X685861Y545865D01*
X685884Y545728D01*
X685893Y545709D01*
X685897Y545690D01*
X685958Y545565D01*
X686015Y545438D01*
X686028Y545422D01*
X686036Y545404D01*
X686127Y545298D01*
X686214Y545190D01*
X686230Y545177D01*
X686243Y545162D01*
X686356Y545082D01*
X686468Y544998D01*
X686493Y544986D01*
X686503Y544979D01*
X686522Y544972D01*
X686612Y544927D01*
X687035Y544752D01*
X690802Y540985D01*
X692841Y536064D01*
X692841Y530736D01*
X690802Y525815D01*
X687035Y522048D01*
X686612Y521873D01*
X686491Y521804D01*
X686369Y521739D01*
X686354Y521725D01*
X686336Y521715D01*
X686236Y521618D01*
X686133Y521525D01*
X686122Y521508D01*
X686108Y521494D01*
X686035Y521375D01*
X685958Y521259D01*
X685952Y521240D01*
X685941Y521223D01*
X685900Y521090D01*
X685855Y520958D01*
X685854Y520938D01*
X685848Y520919D01*
X685841Y520780D01*
X685830Y520641D01*
X685833Y520621D01*
X685832Y520601D01*
X685861Y520465D01*
X685884Y520328D01*
X685893Y520310D01*
X685897Y520290D01*
X685958Y520165D01*
X686015Y520038D01*
X686028Y520022D01*
X686037Y520004D01*
X686127Y519898D01*
X686214Y519790D01*
X686230Y519777D01*
X686243Y519762D01*
X686356Y519682D01*
X686468Y519598D01*
X686493Y519586D01*
X686503Y519579D01*
X686522Y519572D01*
X686612Y519527D01*
X687035Y519352D01*
X690802Y515585D01*
X692841Y510664D01*
X692841Y505336D01*
X690802Y500415D01*
X687035Y496648D01*
X686612Y496473D01*
X686491Y496404D01*
X686369Y496339D01*
X686354Y496325D01*
X686336Y496315D01*
X686236Y496218D01*
X686133Y496125D01*
X686122Y496108D01*
X686108Y496094D01*
X686035Y495975D01*
X685958Y495859D01*
X685952Y495840D01*
X685941Y495823D01*
X685900Y495690D01*
X685855Y495558D01*
X685854Y495538D01*
X685848Y495519D01*
X685841Y495380D01*
X685830Y495241D01*
X685833Y495221D01*
X685832Y495201D01*
X685861Y495065D01*
X685884Y494928D01*
X685893Y494910D01*
X685897Y494890D01*
X685958Y494765D01*
X686015Y494638D01*
X686028Y494622D01*
X686037Y494604D01*
X686127Y494498D01*
X686214Y494390D01*
X686230Y494377D01*
X686243Y494362D01*
X686356Y494282D01*
X686468Y494198D01*
X686493Y494186D01*
X686503Y494179D01*
X686522Y494172D01*
X686612Y494127D01*
X687035Y493952D01*
X690802Y490185D01*
X692841Y485264D01*
X692841Y479936D01*
X690802Y475015D01*
X687035Y471248D01*
X686612Y471073D01*
X686491Y471004D01*
X686369Y470939D01*
X686354Y470925D01*
X686336Y470915D01*
X686236Y470818D01*
X686133Y470725D01*
X686122Y470708D01*
X686108Y470694D01*
X686035Y470575D01*
X685958Y470459D01*
X685952Y470440D01*
X685941Y470423D01*
X685900Y470290D01*
X685855Y470158D01*
X685854Y470138D01*
X685848Y470119D01*
X685841Y469980D01*
X685830Y469841D01*
X685833Y469821D01*
X685832Y469801D01*
X685861Y469665D01*
X685884Y469528D01*
X685893Y469510D01*
X685897Y469490D01*
X685958Y469365D01*
X686015Y469238D01*
X686028Y469222D01*
X686037Y469204D01*
X686127Y469098D01*
X686214Y468990D01*
X686230Y468977D01*
X686243Y468962D01*
X686356Y468882D01*
X686468Y468798D01*
X686493Y468786D01*
X686503Y468779D01*
X686522Y468772D01*
X686612Y468727D01*
X687035Y468552D01*
X690802Y464785D01*
X692841Y459864D01*
X692841Y454536D01*
X690802Y449615D01*
X687855Y446667D01*
X687770Y446558D01*
X687681Y446451D01*
X687672Y446432D01*
X687660Y446416D01*
X687604Y446288D01*
X687545Y446163D01*
X687542Y446143D01*
X687534Y446124D01*
X687512Y445986D01*
X687486Y445850D01*
X687487Y445830D01*
X687484Y445810D01*
X687497Y445671D01*
X687505Y445533D01*
X687512Y445514D01*
X687514Y445494D01*
X687561Y445362D01*
X687603Y445231D01*
X687614Y445213D01*
X687621Y445194D01*
X687699Y445079D01*
X687774Y444962D01*
X687788Y444948D01*
X687800Y444931D01*
X687904Y444839D01*
X688005Y444744D01*
X688023Y444734D01*
X688038Y444721D01*
X688162Y444657D01*
X688284Y444590D01*
X688303Y444585D01*
X688321Y444576D01*
X688457Y444546D01*
X688592Y444511D01*
X688620Y444509D01*
X688632Y444506D01*
X688652Y444507D01*
X688752Y444501D01*
X720076Y444501D01*
X724744Y442567D01*
X728317Y438994D01*
X730251Y434326D01*
X730251Y218236D01*
X730268Y218098D01*
X730281Y217959D01*
X730288Y217940D01*
X730291Y217920D01*
X730342Y217791D01*
X730389Y217660D01*
X730400Y217643D01*
X730408Y217624D01*
X730489Y217512D01*
X730567Y217397D01*
X730583Y217384D01*
X730594Y217367D01*
X730702Y217278D01*
X730806Y217186D01*
X730824Y217177D01*
X730839Y217164D01*
X730965Y217105D01*
X731089Y217042D01*
X731109Y217037D01*
X731127Y217029D01*
X731263Y217003D01*
X731399Y216972D01*
X731420Y216973D01*
X731439Y216969D01*
X731578Y216978D01*
G37*
%LPC*%
G36*
X1291611Y260349D02*
X1291611Y260349D01*
X1284609Y263250D01*
X1282379Y265479D01*
X1282372Y265485D01*
X1282366Y265492D01*
X1282246Y265582D01*
X1282128Y265674D01*
X1282119Y265678D01*
X1282112Y265683D01*
X1281967Y265754D01*
X1278891Y267028D01*
X1274786Y271134D01*
X1272564Y276497D01*
X1272564Y282303D01*
X1274786Y287666D01*
X1275978Y288858D01*
X1276038Y288936D01*
X1276106Y289008D01*
X1276135Y289061D01*
X1276172Y289109D01*
X1276212Y289200D01*
X1276260Y289287D01*
X1276275Y289345D01*
X1276299Y289401D01*
X1276314Y289499D01*
X1276339Y289595D01*
X1276345Y289695D01*
X1276349Y289715D01*
X1276347Y289727D01*
X1276349Y289755D01*
X1276349Y294445D01*
X1276337Y294543D01*
X1276334Y294642D01*
X1276317Y294700D01*
X1276309Y294760D01*
X1276273Y294852D01*
X1276245Y294947D01*
X1276215Y295000D01*
X1276192Y295056D01*
X1276134Y295136D01*
X1276084Y295221D01*
X1276018Y295297D01*
X1276006Y295313D01*
X1275996Y295321D01*
X1275978Y295342D01*
X1274786Y296534D01*
X1272564Y301897D01*
X1272564Y307703D01*
X1274786Y313066D01*
X1278891Y317172D01*
X1281910Y318422D01*
X1281987Y318466D01*
X1282070Y318502D01*
X1282125Y318545D01*
X1282186Y318579D01*
X1282250Y318642D01*
X1282321Y318697D01*
X1282364Y318752D01*
X1282414Y318801D01*
X1282461Y318877D01*
X1282516Y318948D01*
X1282544Y319012D01*
X1282581Y319072D01*
X1282607Y319157D01*
X1282643Y319240D01*
X1282654Y319309D01*
X1282674Y319376D01*
X1282679Y319465D01*
X1282693Y319554D01*
X1282686Y319624D01*
X1282689Y319693D01*
X1282671Y319781D01*
X1282663Y319870D01*
X1282639Y319936D01*
X1282625Y320005D01*
X1282586Y320086D01*
X1282556Y320170D01*
X1282516Y320227D01*
X1282485Y320291D01*
X1282427Y320359D01*
X1282377Y320433D01*
X1282325Y320479D01*
X1282279Y320533D01*
X1282206Y320584D01*
X1282139Y320643D01*
X1282031Y320707D01*
X1282019Y320716D01*
X1282013Y320718D01*
X1282000Y320725D01*
X1281506Y320977D01*
X1280133Y321975D01*
X1278933Y323175D01*
X1277935Y324548D01*
X1277164Y326061D01*
X1276644Y327661D01*
X1294130Y327661D01*
X1294248Y327676D01*
X1294367Y327683D01*
X1294405Y327696D01*
X1294445Y327701D01*
X1294556Y327744D01*
X1294669Y327781D01*
X1294703Y327803D01*
X1294741Y327818D01*
X1294837Y327888D01*
X1294938Y327951D01*
X1294966Y327981D01*
X1294998Y328004D01*
X1295074Y328096D01*
X1295156Y328183D01*
X1295175Y328218D01*
X1295201Y328249D01*
X1295252Y328357D01*
X1295309Y328461D01*
X1295320Y328501D01*
X1295337Y328537D01*
X1295359Y328654D01*
X1295389Y328769D01*
X1295393Y328830D01*
X1295397Y328850D01*
X1295395Y328870D01*
X1295399Y328930D01*
X1295399Y330201D01*
X1295401Y330201D01*
X1295401Y328930D01*
X1295416Y328812D01*
X1295423Y328693D01*
X1295436Y328655D01*
X1295441Y328614D01*
X1295485Y328504D01*
X1295521Y328391D01*
X1295543Y328356D01*
X1295558Y328319D01*
X1295628Y328223D01*
X1295691Y328122D01*
X1295721Y328094D01*
X1295745Y328061D01*
X1295836Y327986D01*
X1295923Y327904D01*
X1295958Y327884D01*
X1295990Y327859D01*
X1296097Y327808D01*
X1296202Y327750D01*
X1296241Y327740D01*
X1296277Y327723D01*
X1296394Y327701D01*
X1296509Y327671D01*
X1296570Y327667D01*
X1296590Y327663D01*
X1296610Y327665D01*
X1296670Y327661D01*
X1314156Y327661D01*
X1313636Y326061D01*
X1313450Y325696D01*
X1313416Y325603D01*
X1313374Y325513D01*
X1313363Y325454D01*
X1313342Y325397D01*
X1313333Y325298D01*
X1313314Y325200D01*
X1313318Y325140D01*
X1313312Y325080D01*
X1313328Y324982D01*
X1313334Y324883D01*
X1313353Y324826D01*
X1313362Y324766D01*
X1313401Y324675D01*
X1313432Y324581D01*
X1313464Y324530D01*
X1313488Y324474D01*
X1313549Y324396D01*
X1313602Y324312D01*
X1313646Y324270D01*
X1313683Y324223D01*
X1313761Y324162D01*
X1313834Y324094D01*
X1313887Y324065D01*
X1313934Y324028D01*
X1314025Y323988D01*
X1314112Y323940D01*
X1314171Y323925D01*
X1314226Y323901D01*
X1314324Y323886D01*
X1314420Y323861D01*
X1314520Y323855D01*
X1314540Y323851D01*
X1314552Y323853D01*
X1314581Y323851D01*
X1442792Y323851D01*
X1442802Y323852D01*
X1442811Y323851D01*
X1442960Y323872D01*
X1443108Y323891D01*
X1443117Y323894D01*
X1443126Y323895D01*
X1443278Y323947D01*
X1444011Y324251D01*
X1451589Y324251D01*
X1453046Y323647D01*
X1453055Y323645D01*
X1453063Y323640D01*
X1453208Y323603D01*
X1453353Y323563D01*
X1453362Y323563D01*
X1453371Y323561D01*
X1453532Y323551D01*
X1463450Y323551D01*
X1470195Y320757D01*
X1475357Y315595D01*
X1478151Y308850D01*
X1478151Y301550D01*
X1475357Y294805D01*
X1470195Y289643D01*
X1463450Y286849D01*
X1454098Y286849D01*
X1454088Y286848D01*
X1454079Y286849D01*
X1453930Y286828D01*
X1453782Y286809D01*
X1453773Y286806D01*
X1453764Y286805D01*
X1453612Y286753D01*
X1451189Y285749D01*
X1318708Y285749D01*
X1318658Y285743D01*
X1318609Y285745D01*
X1318501Y285723D01*
X1318392Y285709D01*
X1318346Y285691D01*
X1318297Y285681D01*
X1318199Y285633D01*
X1318096Y285592D01*
X1318056Y285563D01*
X1318012Y285541D01*
X1317928Y285470D01*
X1317839Y285406D01*
X1317807Y285367D01*
X1317770Y285335D01*
X1317706Y285245D01*
X1317636Y285161D01*
X1317615Y285116D01*
X1317587Y285075D01*
X1317548Y284972D01*
X1317501Y284873D01*
X1317491Y284824D01*
X1317474Y284778D01*
X1317462Y284668D01*
X1317441Y284561D01*
X1317444Y284511D01*
X1317439Y284462D01*
X1317454Y284353D01*
X1317461Y284243D01*
X1317476Y284196D01*
X1317483Y284147D01*
X1317535Y283994D01*
X1318236Y282303D01*
X1318236Y276497D01*
X1316014Y271134D01*
X1311909Y267028D01*
X1308833Y265754D01*
X1308825Y265750D01*
X1308816Y265747D01*
X1308687Y265671D01*
X1308556Y265597D01*
X1308550Y265590D01*
X1308542Y265586D01*
X1308421Y265479D01*
X1306191Y263250D01*
X1299189Y260349D01*
X1291611Y260349D01*
G37*
%LPD*%
%LPC*%
G36*
X924523Y774445D02*
X924523Y774445D01*
X919762Y776417D01*
X916117Y780062D01*
X914145Y784823D01*
X914145Y803185D01*
X914303Y803565D01*
X914305Y803574D01*
X914310Y803582D01*
X914347Y803727D01*
X914387Y803872D01*
X914387Y803881D01*
X914389Y803890D01*
X914399Y804051D01*
X914399Y828026D01*
X916333Y832694D01*
X919906Y836267D01*
X924574Y838201D01*
X1033311Y838201D01*
X1033321Y838202D01*
X1033330Y838201D01*
X1033479Y838222D01*
X1033627Y838241D01*
X1033636Y838244D01*
X1033645Y838245D01*
X1033797Y838297D01*
X1038469Y840233D01*
X1044331Y840233D01*
X1049003Y838297D01*
X1049012Y838295D01*
X1049020Y838290D01*
X1049165Y838253D01*
X1049310Y838213D01*
X1049319Y838213D01*
X1049328Y838211D01*
X1049489Y838201D01*
X1076809Y838201D01*
X1076810Y838201D01*
X1076812Y838201D01*
X1076968Y838221D01*
X1077050Y838231D01*
X1079570Y838201D01*
X1079575Y838201D01*
X1079585Y838201D01*
X1082104Y838201D01*
X1082180Y838180D01*
X1082182Y838180D01*
X1082184Y838179D01*
X1082344Y838167D01*
X1086266Y838120D01*
X1086372Y838132D01*
X1086479Y838135D01*
X1086530Y838150D01*
X1086582Y838156D01*
X1086682Y838194D01*
X1086784Y838224D01*
X1086830Y838251D01*
X1086879Y838269D01*
X1086967Y838331D01*
X1087058Y838385D01*
X1087121Y838441D01*
X1087139Y838453D01*
X1087149Y838465D01*
X1087179Y838492D01*
X1087640Y838953D01*
X1093615Y841428D01*
X1119895Y841428D01*
X1125870Y838953D01*
X1130443Y834380D01*
X1132918Y828405D01*
X1132918Y821937D01*
X1130443Y815962D01*
X1125870Y811389D01*
X1119895Y808914D01*
X1093615Y808914D01*
X1087640Y811389D01*
X1086679Y812351D01*
X1086607Y812407D01*
X1086541Y812470D01*
X1086482Y812504D01*
X1086428Y812546D01*
X1086344Y812582D01*
X1086264Y812627D01*
X1086198Y812645D01*
X1086136Y812672D01*
X1086045Y812686D01*
X1085957Y812710D01*
X1085838Y812719D01*
X1085822Y812722D01*
X1085814Y812721D01*
X1085797Y812722D01*
X1079432Y812799D01*
X1079427Y812799D01*
X1079416Y812799D01*
X1049489Y812799D01*
X1049479Y812798D01*
X1049470Y812799D01*
X1049321Y812778D01*
X1049173Y812759D01*
X1049164Y812756D01*
X1049155Y812755D01*
X1049003Y812703D01*
X1044331Y810767D01*
X1038469Y810767D01*
X1033797Y812703D01*
X1033788Y812705D01*
X1033780Y812710D01*
X1033635Y812747D01*
X1033490Y812787D01*
X1033481Y812787D01*
X1033472Y812789D01*
X1033311Y812799D01*
X941070Y812799D01*
X940952Y812784D01*
X940833Y812777D01*
X940795Y812764D01*
X940754Y812759D01*
X940644Y812716D01*
X940531Y812679D01*
X940496Y812657D01*
X940459Y812642D01*
X940363Y812573D01*
X940262Y812509D01*
X940234Y812479D01*
X940201Y812456D01*
X940125Y812364D01*
X940044Y812277D01*
X940024Y812242D01*
X939999Y812211D01*
X939948Y812103D01*
X939890Y811999D01*
X939880Y811959D01*
X939863Y811923D01*
X939841Y811806D01*
X939811Y811691D01*
X939807Y811631D01*
X939803Y811611D01*
X939805Y811590D01*
X939801Y811530D01*
X939801Y804051D01*
X939802Y804041D01*
X939801Y804032D01*
X939822Y803883D01*
X939841Y803735D01*
X939844Y803726D01*
X939845Y803717D01*
X939897Y803565D01*
X940055Y803185D01*
X940055Y784823D01*
X938083Y780062D01*
X934438Y776417D01*
X929677Y774445D01*
X924523Y774445D01*
G37*
%LPD*%
G36*
X911361Y156045D02*
X911361Y156045D01*
X911451Y156041D01*
X911519Y156055D01*
X911589Y156060D01*
X911674Y156087D01*
X911762Y156105D01*
X911825Y156136D01*
X911891Y156158D01*
X911967Y156206D01*
X912048Y156245D01*
X912101Y156290D01*
X912160Y156328D01*
X912222Y156393D01*
X912290Y156452D01*
X912330Y156509D01*
X912378Y156559D01*
X912421Y156638D01*
X912473Y156712D01*
X912498Y156777D01*
X912532Y156838D01*
X912554Y156925D01*
X912586Y157009D01*
X912594Y157078D01*
X912611Y157146D01*
X912621Y157307D01*
X912621Y291429D01*
X912608Y291537D01*
X912602Y291647D01*
X912584Y291722D01*
X912581Y291744D01*
X912575Y291760D01*
X912565Y291803D01*
X912460Y292143D01*
X912616Y293819D01*
X912615Y293840D01*
X912621Y293937D01*
X912621Y295620D01*
X912758Y295949D01*
X912787Y296055D01*
X912824Y296158D01*
X912836Y296235D01*
X912842Y296256D01*
X912842Y296273D01*
X912849Y296317D01*
X912882Y296671D01*
X913667Y298160D01*
X913675Y298179D01*
X913718Y298266D01*
X914361Y299821D01*
X914613Y300073D01*
X914680Y300159D01*
X914754Y300241D01*
X914795Y300307D01*
X914808Y300324D01*
X914815Y300340D01*
X914838Y300378D01*
X919713Y309613D01*
X919721Y309633D01*
X919764Y309720D01*
X920408Y311275D01*
X920659Y311527D01*
X920727Y311614D01*
X920800Y311695D01*
X920841Y311761D01*
X920854Y311778D01*
X920861Y311794D01*
X920884Y311832D01*
X921051Y312147D01*
X922346Y313221D01*
X922360Y313236D01*
X922433Y313301D01*
X923623Y314490D01*
X923952Y314627D01*
X924047Y314681D01*
X924147Y314728D01*
X924209Y314774D01*
X924228Y314784D01*
X924241Y314796D01*
X924277Y314822D01*
X924551Y315050D01*
X926159Y315547D01*
X926178Y315555D01*
X926270Y315587D01*
X927824Y316231D01*
X928181Y316231D01*
X928289Y316244D01*
X928399Y316250D01*
X928474Y316268D01*
X928496Y316271D01*
X928512Y316277D01*
X928555Y316287D01*
X928896Y316392D01*
X930571Y316236D01*
X930592Y316237D01*
X930689Y316231D01*
X947225Y316231D01*
X947343Y316246D01*
X947461Y316253D01*
X947481Y316259D01*
X947501Y316261D01*
X947520Y316268D01*
X947540Y316271D01*
X947651Y316314D01*
X947764Y316351D01*
X947781Y316362D01*
X947800Y316369D01*
X947817Y316380D01*
X947836Y316388D01*
X947932Y316457D01*
X948033Y316521D01*
X948047Y316536D01*
X948063Y316547D01*
X948077Y316562D01*
X948093Y316574D01*
X948169Y316666D01*
X948251Y316753D01*
X948260Y316771D01*
X948274Y316786D01*
X948283Y316804D01*
X948296Y316819D01*
X948347Y316927D01*
X948404Y317031D01*
X948409Y317051D01*
X948418Y317069D01*
X948423Y317089D01*
X948431Y317107D01*
X948454Y317224D01*
X948484Y317339D01*
X948485Y317367D01*
X948488Y317379D01*
X948487Y317400D01*
X948491Y317419D01*
X948490Y317440D01*
X948494Y317500D01*
X948481Y317598D01*
X948478Y317697D01*
X948473Y317717D01*
X948471Y317737D01*
X948459Y317775D01*
X948454Y317816D01*
X948418Y317908D01*
X948390Y318003D01*
X948380Y318020D01*
X948373Y318039D01*
X948352Y318074D01*
X948337Y318111D01*
X948279Y318191D01*
X948228Y318277D01*
X948210Y318298D01*
X948203Y318308D01*
X948188Y318322D01*
X948162Y318352D01*
X948150Y318369D01*
X948141Y318376D01*
X948122Y318398D01*
X944586Y321934D01*
X942364Y327297D01*
X942364Y333296D01*
X942356Y333361D01*
X942358Y333426D01*
X942336Y333518D01*
X942324Y333612D01*
X942301Y333672D01*
X942286Y333735D01*
X942242Y333819D01*
X942207Y333907D01*
X942169Y333960D01*
X942139Y334018D01*
X942076Y334088D01*
X942021Y334165D01*
X941971Y334206D01*
X941927Y334255D01*
X941799Y334352D01*
X922696Y347088D01*
X922657Y347107D01*
X922622Y347133D01*
X922478Y347204D01*
X921704Y347524D01*
X921120Y348108D01*
X921085Y348136D01*
X921055Y348169D01*
X920927Y348267D01*
X920240Y348725D01*
X919774Y349421D01*
X919745Y349454D01*
X919723Y349491D01*
X919617Y349612D01*
X919024Y350204D01*
X918708Y350967D01*
X918686Y351006D01*
X918671Y351049D01*
X918590Y351188D01*
X918131Y351874D01*
X917967Y352695D01*
X917953Y352736D01*
X917947Y352779D01*
X917895Y352932D01*
X917574Y353705D01*
X917574Y354531D01*
X917569Y354576D01*
X917571Y354621D01*
X917550Y354780D01*
X917388Y355590D01*
X917550Y356411D01*
X917553Y356455D01*
X917564Y356497D01*
X917574Y356657D01*
X917574Y433679D01*
X917562Y433777D01*
X917559Y433876D01*
X917542Y433934D01*
X917534Y433994D01*
X917498Y434086D01*
X917470Y434181D01*
X917440Y434233D01*
X917417Y434290D01*
X917359Y434370D01*
X917309Y434455D01*
X917243Y434531D01*
X917231Y434547D01*
X917221Y434555D01*
X917203Y434576D01*
X853676Y498103D01*
X853598Y498163D01*
X853526Y498231D01*
X853473Y498260D01*
X853425Y498297D01*
X853334Y498337D01*
X853247Y498385D01*
X853189Y498400D01*
X853133Y498424D01*
X853035Y498439D01*
X852939Y498464D01*
X852839Y498470D01*
X852819Y498474D01*
X852807Y498472D01*
X852779Y498474D01*
X841787Y498474D01*
X841689Y498462D01*
X841590Y498459D01*
X841532Y498442D01*
X841472Y498434D01*
X841380Y498398D01*
X841285Y498370D01*
X841232Y498340D01*
X841176Y498317D01*
X841096Y498259D01*
X841011Y498209D01*
X840935Y498143D01*
X840919Y498131D01*
X840911Y498121D01*
X840890Y498103D01*
X839435Y496648D01*
X839012Y496473D01*
X838891Y496404D01*
X838768Y496339D01*
X838753Y496325D01*
X838736Y496315D01*
X838636Y496218D01*
X838533Y496125D01*
X838522Y496108D01*
X838508Y496094D01*
X838435Y495976D01*
X838358Y495859D01*
X838352Y495840D01*
X838341Y495823D01*
X838300Y495690D01*
X838255Y495558D01*
X838254Y495538D01*
X838248Y495519D01*
X838241Y495380D01*
X838230Y495241D01*
X838233Y495221D01*
X838232Y495201D01*
X838261Y495065D01*
X838284Y494928D01*
X838293Y494909D01*
X838297Y494890D01*
X838358Y494765D01*
X838415Y494638D01*
X838428Y494622D01*
X838436Y494604D01*
X838527Y494498D01*
X838614Y494390D01*
X838630Y494377D01*
X838643Y494362D01*
X838756Y494282D01*
X838868Y494198D01*
X838893Y494186D01*
X838903Y494179D01*
X838922Y494172D01*
X839012Y494127D01*
X839435Y493952D01*
X843202Y490185D01*
X845241Y485264D01*
X845241Y483206D01*
X845253Y483108D01*
X845256Y483009D01*
X845273Y482951D01*
X845281Y482891D01*
X845317Y482799D01*
X845345Y482704D01*
X845375Y482652D01*
X845398Y482595D01*
X845456Y482515D01*
X845506Y482430D01*
X845572Y482354D01*
X845584Y482338D01*
X845594Y482330D01*
X845612Y482309D01*
X897076Y430846D01*
X898526Y427345D01*
X898526Y169571D01*
X898538Y169473D01*
X898541Y169374D01*
X898558Y169316D01*
X898566Y169256D01*
X898602Y169164D01*
X898630Y169069D01*
X898660Y169017D01*
X898683Y168960D01*
X898741Y168880D01*
X898791Y168795D01*
X898857Y168719D01*
X898869Y168703D01*
X898879Y168695D01*
X898897Y168674D01*
X909776Y157796D01*
X910179Y156821D01*
X910214Y156760D01*
X910240Y156695D01*
X910292Y156623D01*
X910337Y156545D01*
X910385Y156494D01*
X910426Y156438D01*
X910496Y156381D01*
X910558Y156316D01*
X910618Y156280D01*
X910671Y156235D01*
X910753Y156197D01*
X910829Y156150D01*
X910896Y156129D01*
X910959Y156100D01*
X911047Y156083D01*
X911133Y156056D01*
X911203Y156053D01*
X911272Y156040D01*
X911361Y156045D01*
G37*
G36*
X864104Y153283D02*
X864104Y153283D01*
X864223Y153287D01*
X864262Y153298D01*
X864302Y153302D01*
X864414Y153342D01*
X864528Y153375D01*
X864563Y153396D01*
X864601Y153409D01*
X864700Y153476D01*
X864802Y153537D01*
X864848Y153577D01*
X864864Y153588D01*
X864878Y153603D01*
X864923Y153643D01*
X867379Y156099D01*
X873167Y158497D01*
X879525Y158497D01*
X879574Y158503D01*
X879624Y158501D01*
X879731Y158523D01*
X879841Y158537D01*
X879887Y158555D01*
X879935Y158565D01*
X880034Y158613D01*
X880136Y158654D01*
X880176Y158683D01*
X880221Y158705D01*
X880305Y158776D01*
X880394Y158840D01*
X880425Y158879D01*
X880463Y158911D01*
X880526Y159001D01*
X880596Y159085D01*
X880618Y159130D01*
X880646Y159171D01*
X880685Y159274D01*
X880732Y159373D01*
X880741Y159422D01*
X880759Y159468D01*
X880771Y159578D01*
X880792Y159685D01*
X880789Y159735D01*
X880794Y159784D01*
X880779Y159893D01*
X880772Y160003D01*
X880757Y160050D01*
X880750Y160099D01*
X880698Y160252D01*
X879474Y163205D01*
X879474Y420979D01*
X879462Y421077D01*
X879459Y421176D01*
X879442Y421234D01*
X879434Y421294D01*
X879398Y421386D01*
X879370Y421481D01*
X879340Y421533D01*
X879317Y421590D01*
X879259Y421670D01*
X879209Y421755D01*
X879143Y421831D01*
X879131Y421847D01*
X879121Y421855D01*
X879103Y421876D01*
X862877Y438101D01*
X862768Y438186D01*
X862661Y438275D01*
X862642Y438284D01*
X862626Y438296D01*
X862498Y438352D01*
X862373Y438411D01*
X862353Y438414D01*
X862334Y438422D01*
X862196Y438444D01*
X862060Y438470D01*
X862040Y438469D01*
X862020Y438472D01*
X861881Y438459D01*
X861743Y438451D01*
X861724Y438444D01*
X861704Y438442D01*
X861572Y438395D01*
X861441Y438353D01*
X861423Y438342D01*
X861404Y438335D01*
X861289Y438257D01*
X861172Y438182D01*
X861158Y438168D01*
X861141Y438156D01*
X861049Y438052D01*
X860954Y437951D01*
X860944Y437933D01*
X860931Y437918D01*
X860867Y437794D01*
X860800Y437672D01*
X860795Y437653D01*
X860786Y437635D01*
X860756Y437499D01*
X860721Y437364D01*
X860719Y437336D01*
X860716Y437324D01*
X860717Y437304D01*
X860711Y437204D01*
X860711Y269496D01*
X860522Y269042D01*
X860520Y269033D01*
X860515Y269024D01*
X860478Y268880D01*
X860438Y268735D01*
X860438Y268726D01*
X860436Y268717D01*
X860426Y268556D01*
X860426Y156871D01*
X860438Y156773D01*
X860441Y156674D01*
X860458Y156616D01*
X860466Y156556D01*
X860502Y156464D01*
X860530Y156369D01*
X860560Y156317D01*
X860583Y156260D01*
X860641Y156180D01*
X860691Y156095D01*
X860757Y156019D01*
X860769Y156003D01*
X860779Y155995D01*
X860797Y155974D01*
X863128Y153643D01*
X863222Y153570D01*
X863311Y153491D01*
X863347Y153473D01*
X863379Y153448D01*
X863489Y153401D01*
X863595Y153347D01*
X863634Y153338D01*
X863671Y153322D01*
X863789Y153303D01*
X863905Y153277D01*
X863945Y153278D01*
X863985Y153272D01*
X864104Y153283D01*
G37*
%LPC*%
G36*
X1101848Y647445D02*
X1101848Y647445D01*
X1094259Y655034D01*
X1094259Y665818D01*
X1094274Y665837D01*
X1094316Y665934D01*
X1094366Y666027D01*
X1094379Y666079D01*
X1094400Y666129D01*
X1094417Y666233D01*
X1094442Y666336D01*
X1094447Y666422D01*
X1094450Y666443D01*
X1094449Y666458D01*
X1094451Y666496D01*
X1094229Y688445D01*
X1094226Y688468D01*
X1094228Y688491D01*
X1094204Y688625D01*
X1094186Y688760D01*
X1094177Y688781D01*
X1094173Y688804D01*
X1094117Y688928D01*
X1094066Y689055D01*
X1094052Y689073D01*
X1094043Y689094D01*
X1093958Y689201D01*
X1093876Y689310D01*
X1093859Y689324D01*
X1093844Y689343D01*
X1093735Y689425D01*
X1093629Y689510D01*
X1093609Y689520D01*
X1093590Y689534D01*
X1093446Y689605D01*
X1087640Y692009D01*
X1083067Y696582D01*
X1082091Y698939D01*
X1082082Y698954D01*
X1082077Y698971D01*
X1082004Y699093D01*
X1081933Y699216D01*
X1081921Y699228D01*
X1081912Y699243D01*
X1081811Y699342D01*
X1081712Y699444D01*
X1081697Y699453D01*
X1081685Y699465D01*
X1081562Y699536D01*
X1081441Y699610D01*
X1081424Y699615D01*
X1081409Y699624D01*
X1081257Y699677D01*
X1045824Y709495D01*
X1045803Y709498D01*
X1045783Y709506D01*
X1045646Y709521D01*
X1045509Y709541D01*
X1045488Y709538D01*
X1045467Y709541D01*
X1045330Y709522D01*
X1045193Y709507D01*
X1045173Y709499D01*
X1045152Y709496D01*
X1044999Y709444D01*
X1044331Y709167D01*
X1038469Y709167D01*
X1033055Y711410D01*
X1028910Y715555D01*
X1026667Y720969D01*
X1026667Y726831D01*
X1028910Y732245D01*
X1033055Y736390D01*
X1038469Y738633D01*
X1044331Y738633D01*
X1049745Y736390D01*
X1051754Y734381D01*
X1051823Y734328D01*
X1051885Y734267D01*
X1051948Y734231D01*
X1052005Y734186D01*
X1052085Y734152D01*
X1052160Y734108D01*
X1052286Y734065D01*
X1052297Y734060D01*
X1052302Y734059D01*
X1052313Y734056D01*
X1095482Y722094D01*
X1095572Y722081D01*
X1095660Y722058D01*
X1095781Y722050D01*
X1095797Y722048D01*
X1095805Y722049D01*
X1095821Y722048D01*
X1119895Y722048D01*
X1125870Y719573D01*
X1130443Y715000D01*
X1132918Y709025D01*
X1132918Y702557D01*
X1130443Y696582D01*
X1125870Y692009D01*
X1120414Y689749D01*
X1120383Y689732D01*
X1120349Y689720D01*
X1120245Y689653D01*
X1120138Y689592D01*
X1120112Y689567D01*
X1120082Y689547D01*
X1119998Y689457D01*
X1119909Y689371D01*
X1119890Y689340D01*
X1119866Y689313D01*
X1119808Y689205D01*
X1119743Y689099D01*
X1119733Y689065D01*
X1119715Y689033D01*
X1119686Y688913D01*
X1119649Y688796D01*
X1119648Y688760D01*
X1119639Y688725D01*
X1119631Y688564D01*
X1119853Y666595D01*
X1119865Y666503D01*
X1119868Y666410D01*
X1119886Y666346D01*
X1119896Y666280D01*
X1119931Y666194D01*
X1119956Y666105D01*
X1119990Y666047D01*
X1120016Y665985D01*
X1120071Y665911D01*
X1120118Y665831D01*
X1120168Y665774D01*
X1120168Y655034D01*
X1112580Y647445D01*
X1101848Y647445D01*
G37*
%LPD*%
%LPC*%
G36*
X985234Y660145D02*
X985234Y660145D01*
X977630Y667749D01*
X977630Y667765D01*
X977613Y667823D01*
X977605Y667883D01*
X977569Y667975D01*
X977541Y668070D01*
X977511Y668122D01*
X977488Y668179D01*
X977430Y668259D01*
X977380Y668344D01*
X977314Y668420D01*
X977302Y668436D01*
X977292Y668444D01*
X977274Y668465D01*
X959654Y686085D01*
X959630Y686103D01*
X959611Y686125D01*
X959505Y686200D01*
X959402Y686280D01*
X959375Y686292D01*
X959351Y686309D01*
X959230Y686355D01*
X959110Y686406D01*
X959081Y686411D01*
X959054Y686421D01*
X958925Y686436D01*
X958796Y686456D01*
X958767Y686453D01*
X958738Y686457D01*
X958609Y686438D01*
X958480Y686426D01*
X958452Y686416D01*
X958423Y686412D01*
X958270Y686360D01*
X955077Y685037D01*
X949923Y685037D01*
X945162Y687009D01*
X941517Y690654D01*
X940973Y691969D01*
X940904Y692090D01*
X940839Y692213D01*
X940825Y692228D01*
X940815Y692245D01*
X940718Y692346D01*
X940625Y692448D01*
X940608Y692459D01*
X940594Y692474D01*
X940475Y692547D01*
X940359Y692623D01*
X940340Y692630D01*
X940323Y692640D01*
X940190Y692681D01*
X940058Y692726D01*
X940038Y692728D01*
X940019Y692734D01*
X939880Y692740D01*
X939741Y692751D01*
X939721Y692748D01*
X939701Y692749D01*
X939565Y692721D01*
X939428Y692697D01*
X939409Y692689D01*
X939390Y692685D01*
X939264Y692623D01*
X939138Y692566D01*
X939122Y692554D01*
X939104Y692545D01*
X938998Y692455D01*
X938890Y692368D01*
X938877Y692352D01*
X938862Y692339D01*
X938782Y692225D01*
X938698Y692114D01*
X938686Y692089D01*
X938679Y692078D01*
X938672Y692059D01*
X938627Y691969D01*
X938082Y690654D01*
X934438Y687009D01*
X929677Y685037D01*
X924523Y685037D01*
X919762Y687009D01*
X916117Y690654D01*
X914145Y695415D01*
X914145Y713777D01*
X916117Y718538D01*
X919762Y722183D01*
X924523Y724155D01*
X929677Y724155D01*
X934438Y722183D01*
X938082Y718538D01*
X938627Y717223D01*
X938696Y717102D01*
X938761Y716979D01*
X938775Y716964D01*
X938785Y716947D01*
X938882Y716847D01*
X938975Y716744D01*
X938992Y716733D01*
X939006Y716718D01*
X939124Y716646D01*
X939241Y716569D01*
X939260Y716562D01*
X939277Y716552D01*
X939410Y716511D01*
X939542Y716466D01*
X939562Y716464D01*
X939581Y716458D01*
X939720Y716452D01*
X939859Y716441D01*
X939879Y716444D01*
X939899Y716443D01*
X940035Y716471D01*
X940172Y716495D01*
X940191Y716503D01*
X940210Y716507D01*
X940335Y716569D01*
X940462Y716626D01*
X940478Y716638D01*
X940496Y716647D01*
X940602Y716737D01*
X940710Y716824D01*
X940723Y716840D01*
X940738Y716853D01*
X940818Y716967D01*
X940902Y717078D01*
X940914Y717103D01*
X940921Y717114D01*
X940928Y717133D01*
X940973Y717223D01*
X941517Y718538D01*
X945162Y722183D01*
X949923Y724155D01*
X955077Y724155D01*
X959838Y722183D01*
X963482Y718538D01*
X963640Y718158D01*
X963645Y718150D01*
X963647Y718141D01*
X963723Y718012D01*
X963797Y717882D01*
X963804Y717875D01*
X963809Y717867D01*
X963915Y717746D01*
X995235Y686426D01*
X995313Y686366D01*
X995385Y686298D01*
X995438Y686269D01*
X995486Y686232D01*
X995577Y686192D01*
X995664Y686144D01*
X995722Y686129D01*
X995778Y686105D01*
X995876Y686090D01*
X995950Y686071D01*
X1003555Y678466D01*
X1003555Y667734D01*
X995966Y660145D01*
X985234Y660145D01*
G37*
%LPD*%
%LPC*%
G36*
X1450179Y788989D02*
X1450179Y788989D01*
X1442508Y791045D01*
X1435631Y795015D01*
X1430015Y800631D01*
X1426045Y807508D01*
X1423989Y815179D01*
X1423989Y823121D01*
X1426045Y830792D01*
X1430015Y837669D01*
X1435631Y843285D01*
X1442508Y847255D01*
X1450179Y849311D01*
X1458121Y849311D01*
X1465792Y847255D01*
X1472669Y843285D01*
X1478285Y837669D01*
X1482255Y830792D01*
X1484311Y823121D01*
X1484311Y815179D01*
X1482255Y807508D01*
X1478285Y800631D01*
X1472669Y795015D01*
X1465792Y791045D01*
X1458121Y788989D01*
X1450179Y788989D01*
G37*
%LPD*%
%LPC*%
G36*
X631029Y788989D02*
X631029Y788989D01*
X623358Y791045D01*
X616481Y795015D01*
X610865Y800631D01*
X606895Y807508D01*
X604839Y815179D01*
X604839Y823121D01*
X606895Y830792D01*
X610865Y837669D01*
X616481Y843285D01*
X623358Y847255D01*
X631029Y849311D01*
X638971Y849311D01*
X646642Y847255D01*
X653519Y843285D01*
X659135Y837669D01*
X663105Y830792D01*
X665161Y823121D01*
X665161Y815179D01*
X663105Y807508D01*
X659135Y800631D01*
X653519Y795015D01*
X646642Y791045D01*
X638971Y788989D01*
X631029Y788989D01*
G37*
%LPD*%
%LPC*%
G36*
X631029Y103189D02*
X631029Y103189D01*
X623358Y105245D01*
X616481Y109215D01*
X610865Y114831D01*
X606895Y121708D01*
X604839Y129379D01*
X604839Y137321D01*
X606895Y144992D01*
X610865Y151869D01*
X616481Y157485D01*
X623358Y161455D01*
X631029Y163511D01*
X638971Y163511D01*
X646642Y161455D01*
X653519Y157485D01*
X659135Y151869D01*
X663105Y144992D01*
X665161Y137321D01*
X665161Y129379D01*
X663105Y121708D01*
X659135Y114831D01*
X653519Y109215D01*
X646642Y105245D01*
X638971Y103189D01*
X631029Y103189D01*
G37*
%LPD*%
%LPC*%
G36*
X1450179Y103189D02*
X1450179Y103189D01*
X1442508Y105245D01*
X1435631Y109215D01*
X1430015Y114831D01*
X1426045Y121708D01*
X1423989Y129379D01*
X1423989Y137321D01*
X1426045Y144992D01*
X1430015Y151869D01*
X1435631Y157485D01*
X1442508Y161455D01*
X1450179Y163511D01*
X1458121Y163511D01*
X1465792Y161455D01*
X1472669Y157485D01*
X1478285Y151869D01*
X1482255Y144992D01*
X1484311Y137321D01*
X1484311Y129379D01*
X1482255Y121708D01*
X1478285Y114831D01*
X1472669Y109215D01*
X1465792Y105245D01*
X1458121Y103189D01*
X1450179Y103189D01*
G37*
%LPD*%
%LPC*%
G36*
X676235Y263239D02*
X676235Y263239D01*
X670296Y265700D01*
X665750Y270246D01*
X663289Y276185D01*
X663289Y282615D01*
X665750Y288554D01*
X670356Y293161D01*
X670430Y293255D01*
X670508Y293344D01*
X670527Y293380D01*
X670551Y293412D01*
X670599Y293522D01*
X670653Y293628D01*
X670662Y293667D01*
X670678Y293704D01*
X670696Y293822D01*
X670722Y293938D01*
X670721Y293978D01*
X670728Y294018D01*
X670716Y294137D01*
X670713Y294256D01*
X670702Y294295D01*
X670698Y294335D01*
X670657Y294447D01*
X670624Y294561D01*
X670604Y294596D01*
X670590Y294634D01*
X670523Y294733D01*
X670463Y294835D01*
X670423Y294881D01*
X670412Y294897D01*
X670396Y294911D01*
X670356Y294956D01*
X668098Y297215D01*
X666059Y302136D01*
X666059Y307464D01*
X668098Y312385D01*
X671865Y316152D01*
X672288Y316327D01*
X672409Y316396D01*
X672532Y316461D01*
X672547Y316475D01*
X672564Y316485D01*
X672664Y316582D01*
X672767Y316675D01*
X672778Y316692D01*
X672792Y316706D01*
X672865Y316824D01*
X672942Y316941D01*
X672948Y316960D01*
X672959Y316977D01*
X673000Y317110D01*
X673045Y317242D01*
X673046Y317262D01*
X673052Y317281D01*
X673059Y317419D01*
X673070Y317559D01*
X673067Y317579D01*
X673068Y317599D01*
X673039Y317735D01*
X673016Y317872D01*
X673007Y317891D01*
X673003Y317910D01*
X672942Y318035D01*
X672885Y318162D01*
X672872Y318178D01*
X672864Y318196D01*
X672773Y318302D01*
X672686Y318410D01*
X672670Y318423D01*
X672657Y318438D01*
X672544Y318518D01*
X672432Y318602D01*
X672407Y318614D01*
X672397Y318621D01*
X672378Y318628D01*
X672288Y318673D01*
X671865Y318848D01*
X668098Y322615D01*
X666059Y327536D01*
X666059Y332864D01*
X668098Y337785D01*
X671865Y341552D01*
X672288Y341727D01*
X672409Y341796D01*
X672532Y341861D01*
X672546Y341875D01*
X672564Y341885D01*
X672664Y341982D01*
X672767Y342075D01*
X672778Y342092D01*
X672793Y342106D01*
X672865Y342225D01*
X672942Y342341D01*
X672948Y342360D01*
X672959Y342377D01*
X673000Y342510D01*
X673045Y342642D01*
X673046Y342662D01*
X673052Y342681D01*
X673059Y342820D01*
X673070Y342959D01*
X673067Y342979D01*
X673067Y342999D01*
X673039Y343135D01*
X673016Y343272D01*
X673007Y343291D01*
X673003Y343310D01*
X672942Y343435D01*
X672885Y343562D01*
X672872Y343578D01*
X672863Y343596D01*
X672773Y343702D01*
X672686Y343810D01*
X672670Y343823D01*
X672657Y343838D01*
X672543Y343918D01*
X672432Y344002D01*
X672407Y344014D01*
X672397Y344021D01*
X672378Y344028D01*
X672288Y344073D01*
X671865Y344248D01*
X668098Y348015D01*
X666059Y352936D01*
X666059Y358264D01*
X668098Y363185D01*
X671865Y366952D01*
X676786Y368991D01*
X677902Y368991D01*
X677961Y368998D01*
X678021Y368996D01*
X678118Y369018D01*
X678217Y369031D01*
X678273Y369053D01*
X678331Y369066D01*
X678420Y369111D01*
X678513Y369148D01*
X678561Y369183D01*
X678615Y369210D01*
X678690Y369276D01*
X678770Y369334D01*
X678809Y369381D01*
X678853Y369420D01*
X678909Y369503D01*
X678973Y369579D01*
X678999Y369634D01*
X679032Y369683D01*
X679066Y369777D01*
X679109Y369867D01*
X679120Y369926D01*
X679140Y369982D01*
X679150Y370082D01*
X679168Y370179D01*
X679165Y370239D01*
X679170Y370299D01*
X679155Y370398D01*
X679149Y370497D01*
X679130Y370554D01*
X679121Y370613D01*
X679081Y370705D01*
X679051Y370799D01*
X679019Y370850D01*
X678995Y370905D01*
X678934Y370984D01*
X678881Y371068D01*
X678837Y371109D01*
X678800Y371157D01*
X678721Y371218D01*
X678649Y371286D01*
X678596Y371315D01*
X678549Y371352D01*
X678458Y371391D01*
X678370Y371440D01*
X678312Y371455D01*
X678257Y371478D01*
X678100Y371514D01*
X677206Y371655D01*
X675772Y372121D01*
X674429Y372806D01*
X673209Y373692D01*
X672142Y374759D01*
X671256Y375979D01*
X670571Y377322D01*
X670107Y378751D01*
X678470Y378751D01*
X678588Y378766D01*
X678707Y378773D01*
X678745Y378785D01*
X678785Y378791D01*
X678896Y378834D01*
X679009Y378871D01*
X679043Y378893D01*
X679081Y378908D01*
X679177Y378977D01*
X679278Y379041D01*
X679306Y379071D01*
X679338Y379094D01*
X679414Y379186D01*
X679446Y379220D01*
X679451Y379212D01*
X679481Y379184D01*
X679505Y379151D01*
X679596Y379075D01*
X679683Y378994D01*
X679718Y378974D01*
X679750Y378949D01*
X679857Y378898D01*
X679962Y378840D01*
X680001Y378830D01*
X680037Y378813D01*
X680154Y378791D01*
X680270Y378761D01*
X680330Y378757D01*
X680350Y378753D01*
X680370Y378755D01*
X680430Y378751D01*
X688793Y378751D01*
X688329Y377322D01*
X687644Y375979D01*
X686758Y374759D01*
X685691Y373692D01*
X684471Y372806D01*
X683128Y372121D01*
X681694Y371655D01*
X680800Y371514D01*
X680742Y371497D01*
X680683Y371489D01*
X680590Y371453D01*
X680494Y371425D01*
X680443Y371394D01*
X680387Y371372D01*
X680306Y371314D01*
X680220Y371263D01*
X680178Y371221D01*
X680130Y371186D01*
X680066Y371109D01*
X679996Y371038D01*
X679965Y370987D01*
X679927Y370941D01*
X679884Y370850D01*
X679834Y370765D01*
X679817Y370707D01*
X679791Y370653D01*
X679773Y370555D01*
X679745Y370459D01*
X679743Y370399D01*
X679732Y370340D01*
X679738Y370241D01*
X679735Y370141D01*
X679748Y370083D01*
X679751Y370023D01*
X679782Y369928D01*
X679804Y369831D01*
X679831Y369778D01*
X679849Y369721D01*
X679903Y369636D01*
X679948Y369547D01*
X679987Y369503D01*
X680019Y369452D01*
X680092Y369384D01*
X680158Y369309D01*
X680207Y369275D01*
X680251Y369234D01*
X680338Y369186D01*
X680421Y369130D01*
X680477Y369109D01*
X680530Y369080D01*
X680626Y369056D01*
X680720Y369022D01*
X680780Y369016D01*
X680838Y369001D01*
X680998Y368991D01*
X682114Y368991D01*
X687035Y366952D01*
X690802Y363185D01*
X692841Y358264D01*
X692841Y352936D01*
X690802Y348015D01*
X687035Y344248D01*
X686612Y344073D01*
X686491Y344004D01*
X686369Y343939D01*
X686354Y343925D01*
X686336Y343915D01*
X686236Y343818D01*
X686133Y343725D01*
X686122Y343708D01*
X686108Y343694D01*
X686035Y343575D01*
X685958Y343459D01*
X685952Y343440D01*
X685941Y343423D01*
X685900Y343290D01*
X685855Y343158D01*
X685854Y343138D01*
X685848Y343119D01*
X685841Y342980D01*
X685830Y342841D01*
X685833Y342821D01*
X685832Y342801D01*
X685861Y342665D01*
X685884Y342528D01*
X685893Y342510D01*
X685897Y342490D01*
X685958Y342365D01*
X686015Y342238D01*
X686028Y342222D01*
X686037Y342204D01*
X686127Y342098D01*
X686214Y341990D01*
X686230Y341977D01*
X686243Y341962D01*
X686356Y341882D01*
X686468Y341798D01*
X686493Y341786D01*
X686503Y341779D01*
X686522Y341772D01*
X686612Y341727D01*
X687035Y341552D01*
X690802Y337785D01*
X692841Y332864D01*
X692841Y327536D01*
X690802Y322615D01*
X687035Y318848D01*
X686612Y318673D01*
X686491Y318604D01*
X686368Y318539D01*
X686353Y318525D01*
X686336Y318515D01*
X686236Y318418D01*
X686133Y318325D01*
X686122Y318308D01*
X686107Y318294D01*
X686035Y318176D01*
X685958Y318059D01*
X685952Y318040D01*
X685941Y318023D01*
X685900Y317890D01*
X685855Y317758D01*
X685854Y317738D01*
X685848Y317719D01*
X685841Y317579D01*
X685830Y317441D01*
X685833Y317421D01*
X685832Y317401D01*
X685861Y317265D01*
X685884Y317128D01*
X685893Y317109D01*
X685897Y317090D01*
X685958Y316964D01*
X686015Y316838D01*
X686028Y316822D01*
X686036Y316804D01*
X686127Y316698D01*
X686214Y316589D01*
X686230Y316577D01*
X686243Y316562D01*
X686357Y316482D01*
X686468Y316398D01*
X686493Y316386D01*
X686503Y316379D01*
X686522Y316372D01*
X686612Y316327D01*
X687035Y316152D01*
X690802Y312385D01*
X692841Y307464D01*
X692841Y302136D01*
X690802Y297215D01*
X688544Y294956D01*
X688470Y294862D01*
X688392Y294773D01*
X688373Y294737D01*
X688349Y294705D01*
X688301Y294595D01*
X688247Y294490D01*
X688238Y294450D01*
X688222Y294413D01*
X688204Y294295D01*
X688178Y294179D01*
X688179Y294139D01*
X688172Y294099D01*
X688184Y293980D01*
X688187Y293861D01*
X688198Y293823D01*
X688202Y293782D01*
X688243Y293670D01*
X688276Y293556D01*
X688296Y293521D01*
X688310Y293483D01*
X688377Y293384D01*
X688437Y293282D01*
X688477Y293237D01*
X688488Y293220D01*
X688504Y293206D01*
X688544Y293161D01*
X693150Y288554D01*
X695611Y282615D01*
X695611Y276185D01*
X693150Y270246D01*
X688604Y265700D01*
X682665Y263239D01*
X676235Y263239D01*
G37*
%LPD*%
%LPC*%
G36*
X955717Y108203D02*
X955717Y108203D01*
X949929Y110601D01*
X945499Y115031D01*
X943101Y120819D01*
X943101Y145881D01*
X945499Y151669D01*
X949929Y156099D01*
X955717Y158497D01*
X961983Y158497D01*
X967771Y156099D01*
X970652Y153218D01*
X970747Y153144D01*
X970836Y153066D01*
X970872Y153047D01*
X970904Y153023D01*
X971013Y152975D01*
X971119Y152921D01*
X971158Y152912D01*
X971196Y152896D01*
X971313Y152878D01*
X971429Y152852D01*
X971470Y152853D01*
X971510Y152846D01*
X971628Y152858D01*
X971747Y152861D01*
X971786Y152872D01*
X971826Y152876D01*
X971939Y152917D01*
X972053Y152950D01*
X972087Y152970D01*
X972126Y152984D01*
X972224Y153051D01*
X972327Y153111D01*
X972372Y153151D01*
X972389Y153162D01*
X972402Y153178D01*
X972447Y153218D01*
X975329Y156099D01*
X981117Y158497D01*
X987383Y158497D01*
X993171Y156099D01*
X997601Y151669D01*
X999999Y145881D01*
X999999Y120819D01*
X997601Y115031D01*
X993171Y110601D01*
X987383Y108203D01*
X981117Y108203D01*
X975329Y110601D01*
X972447Y113482D01*
X972353Y113556D01*
X972264Y113634D01*
X972228Y113653D01*
X972196Y113677D01*
X972087Y113725D01*
X971981Y113779D01*
X971942Y113788D01*
X971904Y113804D01*
X971787Y113822D01*
X971671Y113848D01*
X971630Y113847D01*
X971590Y113854D01*
X971472Y113842D01*
X971353Y113839D01*
X971314Y113828D01*
X971274Y113824D01*
X971161Y113783D01*
X971047Y113750D01*
X971012Y113730D01*
X970974Y113716D01*
X970876Y113649D01*
X970773Y113589D01*
X970728Y113549D01*
X970711Y113538D01*
X970698Y113522D01*
X970652Y113482D01*
X967771Y110601D01*
X961983Y108203D01*
X955717Y108203D01*
G37*
%LPD*%
%LPC*%
G36*
X1432150Y185249D02*
X1432150Y185249D01*
X1425405Y188043D01*
X1420243Y193205D01*
X1417449Y199950D01*
X1417449Y207250D01*
X1420243Y213995D01*
X1425405Y219157D01*
X1432150Y221951D01*
X1463450Y221951D01*
X1470195Y219157D01*
X1475357Y213995D01*
X1478151Y207250D01*
X1478151Y199950D01*
X1475357Y193205D01*
X1470195Y188043D01*
X1463450Y185249D01*
X1432150Y185249D01*
G37*
%LPD*%
G36*
X670285Y444518D02*
X670285Y444518D01*
X670424Y444531D01*
X670443Y444538D01*
X670463Y444541D01*
X670592Y444592D01*
X670723Y444639D01*
X670740Y444650D01*
X670759Y444658D01*
X670871Y444739D01*
X670986Y444817D01*
X671000Y444833D01*
X671016Y444844D01*
X671105Y444952D01*
X671197Y445056D01*
X671206Y445074D01*
X671219Y445089D01*
X671278Y445215D01*
X671342Y445339D01*
X671346Y445359D01*
X671355Y445377D01*
X671381Y445513D01*
X671411Y445649D01*
X671411Y445670D01*
X671414Y445689D01*
X671406Y445828D01*
X671402Y445967D01*
X671396Y445987D01*
X671395Y446007D01*
X671352Y446139D01*
X671313Y446273D01*
X671303Y446290D01*
X671297Y446309D01*
X671222Y446427D01*
X671152Y446547D01*
X671133Y446568D01*
X671126Y446578D01*
X671111Y446592D01*
X671045Y446667D01*
X668098Y449615D01*
X666059Y454536D01*
X666059Y459864D01*
X668098Y464785D01*
X671865Y468552D01*
X672288Y468727D01*
X672409Y468796D01*
X672532Y468861D01*
X672546Y468875D01*
X672564Y468885D01*
X672664Y468982D01*
X672767Y469075D01*
X672778Y469092D01*
X672793Y469106D01*
X672865Y469225D01*
X672942Y469341D01*
X672948Y469360D01*
X672959Y469377D01*
X673000Y469510D01*
X673045Y469642D01*
X673046Y469662D01*
X673052Y469681D01*
X673059Y469820D01*
X673070Y469959D01*
X673067Y469979D01*
X673067Y469999D01*
X673039Y470135D01*
X673016Y470272D01*
X673007Y470291D01*
X673003Y470310D01*
X672942Y470435D01*
X672885Y470562D01*
X672872Y470578D01*
X672863Y470596D01*
X672773Y470702D01*
X672686Y470810D01*
X672670Y470823D01*
X672657Y470838D01*
X672543Y470918D01*
X672432Y471002D01*
X672407Y471014D01*
X672397Y471021D01*
X672378Y471028D01*
X672288Y471073D01*
X671865Y471248D01*
X668098Y475015D01*
X666059Y479936D01*
X666059Y485264D01*
X668098Y490185D01*
X671865Y493952D01*
X672288Y494127D01*
X672409Y494196D01*
X672532Y494261D01*
X672546Y494275D01*
X672564Y494285D01*
X672664Y494382D01*
X672767Y494475D01*
X672778Y494492D01*
X672793Y494506D01*
X672865Y494625D01*
X672942Y494741D01*
X672948Y494760D01*
X672959Y494777D01*
X673000Y494910D01*
X673045Y495042D01*
X673046Y495062D01*
X673052Y495081D01*
X673059Y495220D01*
X673070Y495359D01*
X673067Y495379D01*
X673067Y495399D01*
X673039Y495535D01*
X673016Y495672D01*
X673007Y495691D01*
X673003Y495710D01*
X672942Y495835D01*
X672885Y495962D01*
X672872Y495978D01*
X672863Y495996D01*
X672773Y496102D01*
X672686Y496210D01*
X672670Y496223D01*
X672657Y496238D01*
X672543Y496318D01*
X672432Y496402D01*
X672407Y496414D01*
X672397Y496421D01*
X672378Y496428D01*
X672288Y496473D01*
X671865Y496648D01*
X668098Y500415D01*
X666059Y505336D01*
X666059Y510664D01*
X668098Y515585D01*
X671865Y519352D01*
X672288Y519527D01*
X672409Y519596D01*
X672532Y519661D01*
X672546Y519675D01*
X672564Y519685D01*
X672664Y519782D01*
X672767Y519875D01*
X672778Y519892D01*
X672793Y519906D01*
X672865Y520025D01*
X672942Y520141D01*
X672948Y520160D01*
X672959Y520177D01*
X673000Y520310D01*
X673045Y520442D01*
X673046Y520462D01*
X673052Y520481D01*
X673059Y520620D01*
X673070Y520759D01*
X673067Y520779D01*
X673067Y520799D01*
X673039Y520935D01*
X673016Y521072D01*
X673007Y521091D01*
X673003Y521110D01*
X672942Y521235D01*
X672885Y521362D01*
X672872Y521378D01*
X672863Y521396D01*
X672773Y521502D01*
X672686Y521610D01*
X672670Y521623D01*
X672657Y521638D01*
X672543Y521718D01*
X672432Y521802D01*
X672407Y521814D01*
X672397Y521821D01*
X672378Y521828D01*
X672288Y521873D01*
X671865Y522048D01*
X668098Y525815D01*
X666059Y530736D01*
X666059Y536064D01*
X668098Y540985D01*
X671865Y544752D01*
X672288Y544927D01*
X672409Y544996D01*
X672532Y545061D01*
X672547Y545075D01*
X672564Y545085D01*
X672664Y545182D01*
X672767Y545275D01*
X672778Y545292D01*
X672793Y545306D01*
X672865Y545424D01*
X672942Y545541D01*
X672948Y545560D01*
X672959Y545577D01*
X673000Y545710D01*
X673045Y545842D01*
X673046Y545862D01*
X673052Y545881D01*
X673059Y546020D01*
X673070Y546159D01*
X673067Y546179D01*
X673068Y546199D01*
X673039Y546335D01*
X673016Y546472D01*
X673007Y546491D01*
X673003Y546510D01*
X672942Y546636D01*
X672885Y546762D01*
X672872Y546778D01*
X672864Y546796D01*
X672773Y546902D01*
X672686Y547011D01*
X672670Y547023D01*
X672657Y547038D01*
X672543Y547118D01*
X672432Y547202D01*
X672407Y547214D01*
X672397Y547221D01*
X672378Y547228D01*
X672288Y547273D01*
X671865Y547448D01*
X668098Y551215D01*
X666059Y556136D01*
X666059Y561464D01*
X668098Y566385D01*
X671865Y570152D01*
X672288Y570327D01*
X672409Y570396D01*
X672532Y570461D01*
X672547Y570475D01*
X672564Y570485D01*
X672664Y570582D01*
X672767Y570675D01*
X672778Y570692D01*
X672793Y570706D01*
X672865Y570824D01*
X672942Y570941D01*
X672948Y570960D01*
X672959Y570977D01*
X673000Y571110D01*
X673045Y571242D01*
X673046Y571262D01*
X673052Y571281D01*
X673059Y571420D01*
X673070Y571559D01*
X673067Y571579D01*
X673068Y571599D01*
X673039Y571735D01*
X673016Y571872D01*
X673007Y571891D01*
X673003Y571910D01*
X672942Y572036D01*
X672885Y572162D01*
X672872Y572178D01*
X672864Y572196D01*
X672773Y572302D01*
X672686Y572411D01*
X672670Y572423D01*
X672657Y572438D01*
X672543Y572518D01*
X672432Y572602D01*
X672407Y572614D01*
X672397Y572621D01*
X672378Y572628D01*
X672288Y572673D01*
X671865Y572848D01*
X668098Y576615D01*
X666059Y581536D01*
X666059Y586864D01*
X668098Y591785D01*
X671865Y595552D01*
X672288Y595727D01*
X672409Y595796D01*
X672532Y595861D01*
X672547Y595875D01*
X672564Y595885D01*
X672664Y595982D01*
X672767Y596075D01*
X672778Y596092D01*
X672793Y596106D01*
X672865Y596224D01*
X672942Y596341D01*
X672948Y596360D01*
X672959Y596377D01*
X673000Y596510D01*
X673045Y596642D01*
X673046Y596662D01*
X673052Y596681D01*
X673059Y596820D01*
X673070Y596959D01*
X673067Y596979D01*
X673068Y596999D01*
X673039Y597135D01*
X673016Y597272D01*
X673007Y597291D01*
X673003Y597310D01*
X672942Y597436D01*
X672885Y597562D01*
X672872Y597578D01*
X672864Y597596D01*
X672773Y597702D01*
X672686Y597811D01*
X672670Y597823D01*
X672657Y597838D01*
X672543Y597918D01*
X672432Y598002D01*
X672407Y598014D01*
X672397Y598021D01*
X672378Y598028D01*
X672288Y598073D01*
X671865Y598248D01*
X670283Y599830D01*
X670205Y599890D01*
X670133Y599958D01*
X670080Y599987D01*
X670032Y600024D01*
X669941Y600064D01*
X669854Y600112D01*
X669796Y600127D01*
X669740Y600151D01*
X669642Y600166D01*
X669546Y600191D01*
X669446Y600197D01*
X669426Y600201D01*
X669414Y600199D01*
X669386Y600201D01*
X638747Y600201D01*
X638649Y600189D01*
X638550Y600186D01*
X638492Y600169D01*
X638432Y600161D01*
X638339Y600125D01*
X638244Y600097D01*
X638192Y600067D01*
X638136Y600044D01*
X638056Y599986D01*
X637970Y599936D01*
X637895Y599870D01*
X637879Y599858D01*
X637871Y599848D01*
X637850Y599830D01*
X635818Y597798D01*
X635744Y597703D01*
X635666Y597614D01*
X635647Y597578D01*
X635623Y597546D01*
X635575Y597437D01*
X635521Y597331D01*
X635512Y597292D01*
X635496Y597254D01*
X635478Y597137D01*
X635452Y597021D01*
X635453Y596980D01*
X635446Y596940D01*
X635458Y596822D01*
X635461Y596703D01*
X635472Y596664D01*
X635476Y596624D01*
X635517Y596511D01*
X635550Y596397D01*
X635570Y596363D01*
X635584Y596324D01*
X635651Y596226D01*
X635711Y596123D01*
X635751Y596078D01*
X635762Y596061D01*
X635778Y596048D01*
X635818Y596003D01*
X638699Y593121D01*
X639316Y591633D01*
X639320Y591624D01*
X639323Y591616D01*
X639399Y591486D01*
X639473Y591356D01*
X639480Y591350D01*
X639484Y591342D01*
X639591Y591221D01*
X658467Y572344D01*
X660401Y567676D01*
X660401Y492774D01*
X658467Y488106D01*
X653859Y483498D01*
X653786Y483403D01*
X653707Y483314D01*
X653689Y483278D01*
X653664Y483246D01*
X653617Y483137D01*
X653563Y483031D01*
X653554Y482992D01*
X653538Y482954D01*
X653519Y482837D01*
X653493Y482721D01*
X653494Y482680D01*
X653488Y482640D01*
X653499Y482522D01*
X653503Y482403D01*
X653514Y482364D01*
X653518Y482324D01*
X653558Y482211D01*
X653591Y482097D01*
X653612Y482063D01*
X653625Y482024D01*
X653692Y481926D01*
X653753Y481823D01*
X653792Y481778D01*
X653804Y481761D01*
X653819Y481748D01*
X653859Y481703D01*
X658467Y477094D01*
X660401Y472426D01*
X660401Y445770D01*
X660416Y445652D01*
X660423Y445533D01*
X660436Y445495D01*
X660441Y445454D01*
X660484Y445344D01*
X660521Y445231D01*
X660543Y445196D01*
X660558Y445159D01*
X660627Y445063D01*
X660691Y444962D01*
X660721Y444934D01*
X660744Y444901D01*
X660836Y444825D01*
X660923Y444744D01*
X660958Y444724D01*
X660989Y444699D01*
X661097Y444648D01*
X661201Y444590D01*
X661241Y444580D01*
X661277Y444563D01*
X661394Y444541D01*
X661509Y444511D01*
X661569Y444507D01*
X661589Y444503D01*
X661610Y444505D01*
X661670Y444501D01*
X670148Y444501D01*
X670285Y444518D01*
G37*
%LPC*%
G36*
X1215535Y808914D02*
X1215535Y808914D01*
X1209560Y811389D01*
X1204987Y815962D01*
X1202512Y821937D01*
X1202512Y828405D01*
X1204987Y834380D01*
X1209560Y838953D01*
X1215535Y841428D01*
X1241815Y841428D01*
X1247790Y838953D01*
X1252363Y834380D01*
X1254838Y828405D01*
X1254838Y821937D01*
X1252363Y815962D01*
X1247790Y811389D01*
X1241815Y808914D01*
X1215535Y808914D01*
G37*
%LPD*%
%LPC*%
G36*
X1215535Y689534D02*
X1215535Y689534D01*
X1209560Y692009D01*
X1204987Y696582D01*
X1202512Y702557D01*
X1202512Y709025D01*
X1204987Y715000D01*
X1209560Y719573D01*
X1215535Y722048D01*
X1241815Y722048D01*
X1247790Y719573D01*
X1252363Y715000D01*
X1254838Y709025D01*
X1254838Y702557D01*
X1252363Y696582D01*
X1247790Y692009D01*
X1241815Y689534D01*
X1215535Y689534D01*
G37*
%LPD*%
%LPC*%
G36*
X1073295Y749224D02*
X1073295Y749224D01*
X1067320Y751699D01*
X1062747Y756272D01*
X1060272Y762247D01*
X1060272Y768715D01*
X1062747Y774690D01*
X1067320Y779263D01*
X1073295Y781738D01*
X1099575Y781738D01*
X1105550Y779263D01*
X1110123Y774690D01*
X1112598Y768715D01*
X1112598Y762247D01*
X1110123Y756272D01*
X1105550Y751699D01*
X1099575Y749224D01*
X1073295Y749224D01*
G37*
%LPD*%
%LPC*%
G36*
X1280296Y571309D02*
X1280296Y571309D01*
X1275558Y573272D01*
X1271932Y576898D01*
X1269969Y581636D01*
X1269969Y586764D01*
X1271932Y591502D01*
X1275558Y595128D01*
X1280296Y597091D01*
X1298504Y597091D01*
X1303242Y595128D01*
X1306868Y591502D01*
X1308831Y586764D01*
X1308831Y581636D01*
X1306868Y576898D01*
X1303242Y573272D01*
X1298504Y571309D01*
X1280296Y571309D01*
G37*
%LPD*%
%LPC*%
G36*
X1228848Y647445D02*
X1228848Y647445D01*
X1221259Y655034D01*
X1221259Y665766D01*
X1228848Y673355D01*
X1239580Y673355D01*
X1247168Y665766D01*
X1247168Y655034D01*
X1239580Y647445D01*
X1228848Y647445D01*
G37*
%LPD*%
%LPC*%
G36*
X1450339Y357739D02*
X1450339Y357739D01*
X1450339Y369741D01*
X1460944Y369741D01*
X1463205Y369383D01*
X1465382Y368675D01*
X1467421Y367636D01*
X1469273Y366291D01*
X1470891Y364673D01*
X1472236Y362821D01*
X1473275Y360782D01*
X1473983Y358605D01*
X1474120Y357739D01*
X1450339Y357739D01*
G37*
%LPD*%
%LPC*%
G36*
X1450339Y256139D02*
X1450339Y256139D01*
X1450339Y268141D01*
X1460944Y268141D01*
X1463205Y267783D01*
X1465382Y267075D01*
X1467421Y266036D01*
X1469273Y264691D01*
X1470891Y263073D01*
X1472236Y261221D01*
X1473275Y259182D01*
X1473983Y257005D01*
X1474120Y256139D01*
X1450339Y256139D01*
G37*
%LPD*%
%LPC*%
G36*
X1421480Y256139D02*
X1421480Y256139D01*
X1421617Y257005D01*
X1422325Y259182D01*
X1423364Y261221D01*
X1424709Y263073D01*
X1426327Y264691D01*
X1428179Y266036D01*
X1430218Y267075D01*
X1432395Y267783D01*
X1434656Y268141D01*
X1445261Y268141D01*
X1445261Y256139D01*
X1421480Y256139D01*
G37*
%LPD*%
%LPC*%
G36*
X1421480Y357739D02*
X1421480Y357739D01*
X1421617Y358605D01*
X1422325Y360782D01*
X1423364Y362821D01*
X1424709Y364673D01*
X1426327Y366291D01*
X1428179Y367636D01*
X1430218Y368675D01*
X1432395Y369383D01*
X1434656Y369741D01*
X1445261Y369741D01*
X1445261Y357739D01*
X1421480Y357739D01*
G37*
%LPD*%
%LPC*%
G36*
X1450339Y340659D02*
X1450339Y340659D01*
X1450339Y352661D01*
X1474120Y352661D01*
X1473983Y351795D01*
X1473275Y349618D01*
X1472236Y347579D01*
X1470891Y345727D01*
X1469273Y344109D01*
X1467421Y342764D01*
X1465382Y341725D01*
X1463205Y341017D01*
X1460944Y340659D01*
X1450339Y340659D01*
G37*
%LPD*%
%LPC*%
G36*
X1450339Y239059D02*
X1450339Y239059D01*
X1450339Y251061D01*
X1474120Y251061D01*
X1473983Y250195D01*
X1473275Y248018D01*
X1472236Y245979D01*
X1470891Y244127D01*
X1469273Y242509D01*
X1467421Y241164D01*
X1465382Y240125D01*
X1463205Y239417D01*
X1460944Y239059D01*
X1450339Y239059D01*
G37*
%LPD*%
%LPC*%
G36*
X1434656Y239059D02*
X1434656Y239059D01*
X1432395Y239417D01*
X1430218Y240125D01*
X1428179Y241164D01*
X1426327Y242509D01*
X1424709Y244127D01*
X1423364Y245979D01*
X1422325Y248018D01*
X1421617Y250195D01*
X1421480Y251061D01*
X1445261Y251061D01*
X1445261Y239059D01*
X1434656Y239059D01*
G37*
%LPD*%
%LPC*%
G36*
X1434656Y340659D02*
X1434656Y340659D01*
X1432395Y341017D01*
X1430218Y341725D01*
X1428179Y342764D01*
X1426327Y344109D01*
X1424709Y345727D01*
X1423364Y347579D01*
X1422325Y349618D01*
X1421617Y351795D01*
X1421480Y352661D01*
X1445261Y352661D01*
X1445261Y340659D01*
X1434656Y340659D01*
G37*
%LPD*%
%LPC*%
G36*
X618489Y637539D02*
X618489Y637539D01*
X618489Y646939D01*
X626288Y646939D01*
X628144Y646645D01*
X629931Y646064D01*
X631605Y645211D01*
X633126Y644106D01*
X634454Y642778D01*
X635559Y641257D01*
X636412Y639583D01*
X636993Y637796D01*
X637033Y637539D01*
X618489Y637539D01*
G37*
%LPD*%
%LPC*%
G36*
X594867Y637539D02*
X594867Y637539D01*
X594907Y637796D01*
X595488Y639583D01*
X596341Y641257D01*
X597446Y642778D01*
X598774Y644106D01*
X600295Y645211D01*
X601969Y646064D01*
X603756Y646645D01*
X605612Y646939D01*
X613411Y646939D01*
X613411Y637539D01*
X594867Y637539D01*
G37*
%LPD*%
%LPC*%
G36*
X594867Y535939D02*
X594867Y535939D01*
X594907Y536196D01*
X595488Y537983D01*
X596341Y539657D01*
X597446Y541178D01*
X598774Y542506D01*
X600295Y543611D01*
X601969Y544464D01*
X603756Y545045D01*
X605612Y545339D01*
X613411Y545339D01*
X613411Y535939D01*
X594867Y535939D01*
G37*
%LPD*%
%LPC*%
G36*
X954531Y789431D02*
X954531Y789431D01*
X954531Y809545D01*
X954641Y809528D01*
X956010Y809083D01*
X957293Y808429D01*
X958457Y807583D01*
X959475Y806565D01*
X960321Y805401D01*
X960975Y804118D01*
X961420Y802749D01*
X961645Y801328D01*
X961645Y789431D01*
X954531Y789431D01*
G37*
%LPD*%
%LPC*%
G36*
X943355Y789431D02*
X943355Y789431D01*
X943355Y801328D01*
X943580Y802749D01*
X944025Y804118D01*
X944679Y805401D01*
X945525Y806565D01*
X946543Y807583D01*
X947707Y808429D01*
X948990Y809083D01*
X950359Y809528D01*
X950469Y809545D01*
X950469Y789431D01*
X943355Y789431D01*
G37*
%LPD*%
%LPC*%
G36*
X1297939Y332739D02*
X1297939Y332739D01*
X1297939Y340983D01*
X1304491Y340983D01*
X1306168Y340718D01*
X1307782Y340193D01*
X1309294Y339423D01*
X1310667Y338425D01*
X1311867Y337225D01*
X1312865Y335852D01*
X1313636Y334339D01*
X1314156Y332739D01*
X1297939Y332739D01*
G37*
%LPD*%
%LPC*%
G36*
X1276644Y332739D02*
X1276644Y332739D01*
X1277164Y334339D01*
X1277935Y335852D01*
X1278933Y337225D01*
X1280133Y338425D01*
X1281506Y339423D01*
X1283018Y340193D01*
X1284632Y340718D01*
X1286309Y340983D01*
X1292861Y340983D01*
X1292861Y332739D01*
X1276644Y332739D01*
G37*
%LPD*%
%LPC*%
G36*
X1297939Y344817D02*
X1297939Y344817D01*
X1297939Y353061D01*
X1314156Y353061D01*
X1313636Y351461D01*
X1312865Y349948D01*
X1311867Y348575D01*
X1310667Y347375D01*
X1309294Y346377D01*
X1307782Y345607D01*
X1306168Y345082D01*
X1304491Y344817D01*
X1297939Y344817D01*
G37*
%LPD*%
%LPC*%
G36*
X967739Y217817D02*
X967739Y217817D01*
X967739Y226061D01*
X983956Y226061D01*
X983436Y224461D01*
X982665Y222948D01*
X981667Y221575D01*
X980467Y220375D01*
X979094Y219377D01*
X977582Y218607D01*
X975968Y218082D01*
X974291Y217817D01*
X967739Y217817D01*
G37*
%LPD*%
%LPC*%
G36*
X1286309Y344817D02*
X1286309Y344817D01*
X1284632Y345082D01*
X1283018Y345607D01*
X1281506Y346377D01*
X1280133Y347375D01*
X1278933Y348575D01*
X1277935Y349948D01*
X1277164Y351461D01*
X1276644Y353061D01*
X1292861Y353061D01*
X1292861Y344817D01*
X1286309Y344817D01*
G37*
%LPD*%
%LPC*%
G36*
X956109Y217817D02*
X956109Y217817D01*
X954432Y218082D01*
X952818Y218607D01*
X951306Y219377D01*
X949933Y220375D01*
X948733Y221575D01*
X947735Y222948D01*
X946964Y224461D01*
X946444Y226061D01*
X962661Y226061D01*
X962661Y217817D01*
X956109Y217817D01*
G37*
%LPD*%
%LPC*%
G36*
X1291399Y560799D02*
X1291399Y560799D01*
X1291399Y567881D01*
X1296655Y567881D01*
X1298066Y567657D01*
X1299426Y567215D01*
X1300699Y566567D01*
X1301856Y565726D01*
X1302866Y564716D01*
X1303707Y563559D01*
X1304355Y562286D01*
X1304797Y560926D01*
X1304817Y560799D01*
X1291399Y560799D01*
G37*
%LPD*%
%LPC*%
G36*
X1273983Y560799D02*
X1273983Y560799D01*
X1274003Y560926D01*
X1274445Y562286D01*
X1275093Y563559D01*
X1275934Y564716D01*
X1276944Y565726D01*
X1278101Y566567D01*
X1279374Y567215D01*
X1280734Y567657D01*
X1282145Y567881D01*
X1287401Y567881D01*
X1287401Y560799D01*
X1273983Y560799D01*
G37*
%LPD*%
%LPC*%
G36*
X1291399Y549719D02*
X1291399Y549719D01*
X1291399Y556801D01*
X1304817Y556801D01*
X1304797Y556674D01*
X1304355Y555314D01*
X1303707Y554041D01*
X1302866Y552884D01*
X1301856Y551874D01*
X1300699Y551033D01*
X1299426Y550385D01*
X1298066Y549943D01*
X1296655Y549719D01*
X1291399Y549719D01*
G37*
%LPD*%
%LPC*%
G36*
X1282145Y549719D02*
X1282145Y549719D01*
X1280734Y549943D01*
X1279374Y550385D01*
X1278101Y551033D01*
X1276944Y551874D01*
X1275934Y552884D01*
X1275093Y554041D01*
X1274445Y555314D01*
X1274003Y556674D01*
X1273983Y556801D01*
X1287401Y556801D01*
X1287401Y549719D01*
X1282145Y549719D01*
G37*
%LPD*%
%LPC*%
G36*
X1145031Y624331D02*
X1145031Y624331D01*
X1145031Y631445D01*
X1146788Y631445D01*
X1152145Y626088D01*
X1152145Y624331D01*
X1145031Y624331D01*
G37*
%LPD*%
%LPC*%
G36*
X992631Y802131D02*
X992631Y802131D01*
X992631Y809245D01*
X994388Y809245D01*
X999745Y803888D01*
X999745Y802131D01*
X992631Y802131D01*
G37*
%LPD*%
%LPC*%
G36*
X617981Y211581D02*
X617981Y211581D01*
X617981Y218695D01*
X619738Y218695D01*
X625095Y213338D01*
X625095Y211581D01*
X617981Y211581D01*
G37*
%LPD*%
%LPC*%
G36*
X981455Y802131D02*
X981455Y802131D01*
X981455Y803888D01*
X986812Y809245D01*
X988569Y809245D01*
X988569Y802131D01*
X981455Y802131D01*
G37*
%LPD*%
%LPC*%
G36*
X606805Y211581D02*
X606805Y211581D01*
X606805Y213338D01*
X612162Y218695D01*
X613919Y218695D01*
X613919Y211581D01*
X606805Y211581D01*
G37*
%LPD*%
%LPC*%
G36*
X992631Y790955D02*
X992631Y790955D01*
X992631Y798069D01*
X999745Y798069D01*
X999745Y796312D01*
X994388Y790955D01*
X992631Y790955D01*
G37*
%LPD*%
%LPC*%
G36*
X1145031Y613155D02*
X1145031Y613155D01*
X1145031Y620269D01*
X1152145Y620269D01*
X1152145Y618512D01*
X1146788Y613155D01*
X1145031Y613155D01*
G37*
%LPD*%
%LPC*%
G36*
X617981Y200405D02*
X617981Y200405D01*
X617981Y207519D01*
X625095Y207519D01*
X625095Y205762D01*
X619738Y200405D01*
X617981Y200405D01*
G37*
%LPD*%
%LPC*%
G36*
X1133855Y624331D02*
X1133855Y624331D01*
X1133855Y626088D01*
X1139212Y631445D01*
X1140969Y631445D01*
X1140969Y624331D01*
X1133855Y624331D01*
G37*
%LPD*%
%LPC*%
G36*
X986812Y790955D02*
X986812Y790955D01*
X981455Y796312D01*
X981455Y798069D01*
X988569Y798069D01*
X988569Y790955D01*
X986812Y790955D01*
G37*
%LPD*%
%LPC*%
G36*
X1139212Y613155D02*
X1139212Y613155D01*
X1133855Y618512D01*
X1133855Y620269D01*
X1140969Y620269D01*
X1140969Y613155D01*
X1139212Y613155D01*
G37*
%LPD*%
%LPC*%
G36*
X612162Y200405D02*
X612162Y200405D01*
X606805Y205762D01*
X606805Y207519D01*
X613919Y207519D01*
X613919Y200405D01*
X612162Y200405D01*
G37*
%LPD*%
%LPC*%
G36*
X954531Y785369D02*
X954531Y785369D01*
X961437Y785369D01*
X961420Y785259D01*
X960975Y783890D01*
X960321Y782607D01*
X959475Y781443D01*
X958457Y780425D01*
X957293Y779579D01*
X956010Y778925D01*
X954641Y778480D01*
X954531Y778463D01*
X954531Y785369D01*
G37*
%LPD*%
%LPC*%
G36*
X950359Y778480D02*
X950359Y778480D01*
X948990Y778925D01*
X947707Y779579D01*
X946543Y780425D01*
X945525Y781443D01*
X944679Y782607D01*
X944025Y783890D01*
X943580Y785259D01*
X943563Y785369D01*
X950469Y785369D01*
X950469Y778463D01*
X950359Y778480D01*
G37*
%LPD*%
%LPC*%
G36*
X1447799Y355199D02*
X1447799Y355199D01*
X1447799Y355201D01*
X1447801Y355201D01*
X1447801Y355199D01*
X1447799Y355199D01*
G37*
%LPD*%
%LPC*%
G36*
X1447799Y253599D02*
X1447799Y253599D01*
X1447799Y253601D01*
X1447801Y253601D01*
X1447801Y253599D01*
X1447799Y253599D01*
G37*
%LPD*%
D10*
X1256940Y520700D02*
X1243860Y520700D01*
X1282860Y533400D02*
X1295940Y533400D01*
X1256940Y546100D02*
X1243860Y546100D01*
X1282860Y558800D02*
X1295940Y558800D01*
X1256940Y571500D02*
X1243860Y571500D01*
X1282860Y584200D02*
X1295940Y584200D01*
X1256940Y596900D02*
X1243860Y596900D01*
D11*
X1016000Y533400D03*
X1143000Y533400D03*
X1016000Y584200D03*
X1143000Y584200D03*
D12*
X1096341Y765481D02*
X1076529Y765481D01*
X1096849Y705791D02*
X1116661Y705791D01*
X1116661Y825171D02*
X1096849Y825171D01*
X1218769Y825171D02*
X1238581Y825171D01*
X1238581Y705791D02*
X1218769Y705791D01*
D13*
X1041400Y825500D03*
X1041400Y723900D03*
D14*
X1435800Y508400D02*
X1459800Y508400D01*
X1459800Y558400D02*
X1435800Y558400D01*
X1435800Y406800D02*
X1459800Y406800D01*
X1459800Y456800D02*
X1435800Y456800D01*
D15*
X973443Y457200D02*
X956958Y457200D01*
X956958Y431800D02*
X973443Y431800D01*
X973443Y406400D02*
X956958Y406400D01*
X956958Y381000D02*
X973443Y381000D01*
X973443Y355600D02*
X956958Y355600D01*
X956958Y330200D02*
X973443Y330200D01*
X973443Y304800D02*
X956958Y304800D01*
X956958Y279400D02*
X973443Y279400D01*
X973443Y254000D02*
X956958Y254000D01*
X956958Y228600D02*
X973443Y228600D01*
X1287158Y279400D02*
X1303643Y279400D01*
X1303643Y304800D02*
X1287158Y304800D01*
X1287158Y330200D02*
X1303643Y330200D01*
X1303643Y355600D02*
X1287158Y355600D01*
X1287158Y381000D02*
X1303643Y381000D01*
X1303643Y406400D02*
X1287158Y406400D01*
X1287158Y431800D02*
X1303643Y431800D01*
X1303643Y457200D02*
X1287158Y457200D01*
D16*
X831850Y711200D03*
X831850Y685800D03*
X831850Y660400D03*
X831850Y635000D03*
X831850Y609600D03*
X831850Y584200D03*
X831850Y558800D03*
X831850Y533400D03*
X831850Y508000D03*
X831850Y482600D03*
X831850Y457200D03*
X831850Y431800D03*
X831850Y406400D03*
X831850Y381000D03*
X831850Y355600D03*
X831850Y330200D03*
X831850Y304800D03*
X679450Y711200D03*
X679450Y685800D03*
X679450Y660400D03*
X679450Y635000D03*
X679450Y609600D03*
X679450Y584200D03*
X679450Y558800D03*
X679450Y533400D03*
X679450Y508000D03*
X679450Y482600D03*
X679450Y457200D03*
X679450Y431800D03*
X679450Y406400D03*
X679450Y381000D03*
X679450Y355600D03*
X679450Y330200D03*
X679450Y304800D03*
D11*
X1016000Y495300D03*
X1143000Y495300D03*
D17*
X1143000Y622300D03*
X1016000Y622300D03*
D14*
X1435800Y305200D02*
X1459800Y305200D01*
X1459800Y355200D02*
X1435800Y355200D01*
X1435800Y203600D02*
X1459800Y203600D01*
X1459800Y253600D02*
X1435800Y253600D01*
D18*
X927100Y697992D02*
X927100Y711200D01*
X952500Y711200D02*
X952500Y697992D01*
X952500Y787400D02*
X952500Y800608D01*
X927100Y800608D02*
X927100Y787400D01*
D19*
X990600Y800100D03*
X990600Y673100D03*
D11*
X1107214Y660400D03*
X1234214Y660400D03*
D17*
X742950Y209550D03*
X615950Y209550D03*
D20*
X606552Y635000D02*
X625348Y635000D01*
X625348Y609600D02*
X606552Y609600D01*
X606552Y584200D02*
X625348Y584200D01*
X742950Y149098D02*
X742950Y130302D01*
X717550Y130302D02*
X717550Y149098D01*
X876300Y142748D02*
X876300Y123952D01*
X901700Y123952D02*
X901700Y142748D01*
X958850Y142748D02*
X958850Y123952D01*
X984250Y123952D02*
X984250Y142748D01*
X625348Y533400D02*
X606552Y533400D01*
X606552Y508000D02*
X625348Y508000D01*
X625348Y482600D02*
X606552Y482600D01*
D21*
X1219200Y514350D03*
X654050Y590550D03*
D22*
X1016000Y419100D03*
X1219200Y596900D03*
X908050Y247650D03*
X908050Y266700D03*
X908050Y285750D03*
X908050Y323850D03*
X908050Y342900D03*
X908050Y361950D03*
X908050Y400050D03*
X908050Y419100D03*
X895350Y444500D03*
X876300Y463550D03*
X857250Y482600D03*
X800100Y450850D03*
X793750Y520700D03*
X660400Y482600D03*
X654050Y628650D03*
X615950Y654050D03*
X615950Y558800D03*
X660400Y381000D03*
X698500Y381000D03*
X831850Y234950D03*
X831850Y171450D03*
X831850Y139700D03*
X952500Y171450D03*
X971550Y171450D03*
X990600Y171450D03*
X1016000Y139700D03*
X1263650Y330200D03*
X1263650Y355600D03*
X1327150Y330200D03*
X1327150Y355600D03*
X908050Y304800D03*
X939800Y228600D03*
X990600Y228600D03*
X990600Y279400D03*
X939800Y279400D03*
X1352550Y482600D03*
X1377950Y482600D03*
X1352550Y431800D03*
X1377950Y431800D03*
X1352550Y368300D03*
X1377950Y368300D03*
X1352550Y336550D03*
X1377950Y336550D03*
X1352550Y273050D03*
X1377950Y273050D03*
X1377950Y533400D03*
X1352550Y533400D03*
X1352550Y228600D03*
X1371600Y228600D03*
X736600Y330200D03*
X1352550Y177800D03*
X1371600Y177800D03*
X736600Y381000D03*
X869950Y361950D03*
X869950Y406400D03*
X812800Y438150D03*
X812800Y393700D03*
X787400Y393700D03*
X774700Y393700D03*
X869950Y234950D03*
X869950Y171450D03*
X1168400Y558800D03*
X1225550Y558800D03*
X1314450Y571500D03*
X1314450Y546100D03*
X1409700Y628650D03*
X1447800Y596900D03*
X971550Y800100D03*
X1009650Y800100D03*
X615950Y228600D03*
X908050Y228600D03*
X800100Y393700D03*
D23*
X1295400Y304800D02*
X1447400Y304800D01*
X1447800Y305200D01*
X1295400Y304800D02*
X1295400Y279400D01*
D24*
X927100Y787400D02*
X927100Y825500D01*
X1041400Y825500D01*
X1079500Y825500D02*
X1106755Y825171D01*
X1079500Y825500D02*
X1041400Y825500D01*
D25*
X1155700Y539750D02*
X1149350Y533400D01*
X1155700Y539750D02*
X1237700Y539750D01*
X1244050Y546100D01*
X1149350Y533400D02*
X1143000Y533400D01*
X1244050Y546100D02*
X1250400Y546100D01*
X1162050Y577850D02*
X1155700Y584200D01*
X1162050Y577850D02*
X1237700Y577850D01*
X1244050Y571500D01*
X1155700Y584200D02*
X1143000Y584200D01*
X1244050Y571500D02*
X1250400Y571500D01*
D23*
X1262700Y508400D02*
X1447800Y508400D01*
X1262700Y508400D02*
X1250400Y520700D01*
X1257300Y622300D02*
X1371600Y622300D01*
X1447800Y558400D01*
X1257300Y622300D02*
X1250400Y596900D01*
D25*
X1016000Y584200D02*
X1016000Y622300D01*
X895350Y622300D02*
X831850Y685800D01*
X895350Y622300D02*
X1016000Y622300D01*
X1016000Y533400D02*
X1016000Y495300D01*
X946150Y533400D02*
X831850Y660400D01*
X946150Y533400D02*
X1016000Y533400D01*
D23*
X1295400Y406400D02*
X1447400Y406400D01*
X1447800Y406800D01*
D26*
X1295400Y406400D02*
X1295400Y381000D01*
D23*
X1295400Y457200D02*
X1447400Y457200D01*
X1447800Y456800D01*
D26*
X1295400Y457200D02*
X1295400Y431800D01*
D25*
X939800Y444500D02*
X850900Y533400D01*
X831850Y533400D01*
X939800Y444500D02*
X939800Y419100D01*
X952500Y406400D01*
X965200Y406400D01*
X927100Y438150D02*
X857250Y508000D01*
X927100Y438150D02*
X927100Y355600D01*
X965200Y330200D01*
X857250Y508000D02*
X831850Y508000D01*
X844550Y558800D02*
X946150Y457200D01*
X965200Y457200D01*
X844550Y558800D02*
X831850Y558800D01*
D24*
X717550Y431800D02*
X717550Y139700D01*
X717550Y431800D02*
X679450Y431800D01*
D27*
X924052Y293346D02*
X924052Y100963D01*
X917069Y93980D01*
D24*
X965200Y304800D02*
X1003300Y304800D01*
X1143000Y495300D01*
D27*
X965200Y304800D02*
X930098Y304800D01*
X924052Y293346D01*
D24*
X717550Y139700D02*
X717550Y127000D01*
D27*
X750570Y93980D01*
X917069Y93980D01*
D24*
X647700Y495300D02*
X647700Y565150D01*
X628650Y584200D01*
X647700Y495300D02*
X635000Y482600D01*
X615950Y482600D01*
X647700Y431800D02*
X679450Y431800D01*
X647700Y431800D02*
X647700Y469900D01*
X635000Y482600D01*
D22*
X628650Y584200D03*
D25*
X850900Y152400D02*
X869950Y133350D01*
X838200Y450850D02*
X831850Y457200D01*
X869950Y133350D02*
X876300Y133350D01*
X850900Y152400D02*
X850900Y271106D01*
X851185Y271391D01*
X851185Y437865D01*
X838200Y450850D01*
X831850Y482600D02*
X889000Y425450D01*
X889000Y165100D01*
X901700Y152400D01*
X901700Y133350D01*
X742950Y139700D02*
X742950Y209550D01*
X755650Y222250D02*
X755650Y499941D01*
X755650Y514350D01*
X685800Y584200D01*
X755650Y222250D02*
X742950Y209550D01*
X685800Y584200D02*
X679450Y584200D01*
D24*
X952500Y711200D02*
X990600Y673100D01*
X1041400Y723900D02*
X1106755Y705791D01*
X1107214Y660400D01*
D28*
X679450Y609600D02*
X615950Y609600D01*
M02*
