G04 EAGLE Gerber X2 export*
%TF.Part,Single*%
%TF.FileFunction,Copper,L2,Bot,Mixed*%
%TF.FilePolarity,Positive*%
%TF.GenerationSoftware,Autodesk,EAGLE,9.1.3*%
%TF.CreationDate,2018-09-15T00:02:42Z*%
G75*
%MOMM*%
%FSLAX34Y34*%
%LPD*%
%AMOC8*
5,1,8,0,0,1.08239X$1,22.5*%
G01*
%ADD10C,1.308000*%
%ADD11P,1.429621X8X22.500000*%
%ADD12C,1.981200*%
%ADD13C,1.676400*%
%ADD14C,2.400000*%
%ADD15C,1.648500*%
%ADD16C,1.408000*%
%ADD17P,1.429621X8X202.500000*%
%ADD18C,1.320800*%
%ADD19P,1.429621X8X292.500000*%
%ADD20C,1.879600*%
%ADD21P,0.818720X8X22.500000*%
%ADD22C,0.756400*%
%ADD23C,2.540000*%
%ADD24C,2.540000*%
%ADD25C,1.270000*%
%ADD26C,1.905000*%
%ADD27C,0.812800*%
%ADD28C,0.635000*%
%ADD29C,0.609600*%

G36*
X1512688Y73676D02*
X1512688Y73676D01*
X1512807Y73683D01*
X1512845Y73696D01*
X1512886Y73701D01*
X1512996Y73744D01*
X1513109Y73781D01*
X1513144Y73803D01*
X1513181Y73818D01*
X1513277Y73887D01*
X1513378Y73951D01*
X1513406Y73981D01*
X1513439Y74004D01*
X1513515Y74096D01*
X1513596Y74183D01*
X1513616Y74218D01*
X1513641Y74249D01*
X1513692Y74357D01*
X1513750Y74461D01*
X1513760Y74501D01*
X1513777Y74537D01*
X1513799Y74654D01*
X1513829Y74769D01*
X1513833Y74829D01*
X1513837Y74849D01*
X1513835Y74870D01*
X1513839Y74930D01*
X1513839Y290033D01*
X1513822Y290171D01*
X1513809Y290310D01*
X1513802Y290329D01*
X1513799Y290349D01*
X1513748Y290478D01*
X1513701Y290609D01*
X1513690Y290626D01*
X1513682Y290644D01*
X1513601Y290757D01*
X1513523Y290872D01*
X1513507Y290885D01*
X1513496Y290902D01*
X1513388Y290991D01*
X1513284Y291083D01*
X1513266Y291092D01*
X1513251Y291105D01*
X1513125Y291164D01*
X1513001Y291227D01*
X1512981Y291232D01*
X1512963Y291240D01*
X1512827Y291266D01*
X1512691Y291297D01*
X1512670Y291296D01*
X1512651Y291300D01*
X1512512Y291291D01*
X1512373Y291287D01*
X1512353Y291281D01*
X1512333Y291280D01*
X1512201Y291237D01*
X1512067Y291199D01*
X1512050Y291188D01*
X1512031Y291182D01*
X1511913Y291108D01*
X1511793Y291037D01*
X1511772Y291019D01*
X1511762Y291012D01*
X1511748Y290997D01*
X1511672Y290931D01*
X1511553Y290811D01*
X1509336Y288594D01*
X1505827Y287173D01*
X1505824Y287171D01*
X1505817Y287169D01*
X1502317Y285719D01*
X1498531Y285749D01*
X1498528Y285749D01*
X1498521Y285749D01*
X1494730Y285749D01*
X1494660Y285768D01*
X1494656Y285768D01*
X1494652Y285770D01*
X1494491Y285781D01*
X1447732Y286149D01*
X1447729Y286149D01*
X1447722Y286149D01*
X1348267Y286149D01*
X1348169Y286137D01*
X1348070Y286134D01*
X1348011Y286117D01*
X1347951Y286109D01*
X1347859Y286073D01*
X1347764Y286045D01*
X1347712Y286015D01*
X1347656Y285992D01*
X1347576Y285934D01*
X1347490Y285884D01*
X1347415Y285818D01*
X1347398Y285806D01*
X1347390Y285796D01*
X1347369Y285778D01*
X1324841Y263250D01*
X1317839Y260349D01*
X1291611Y260349D01*
X1284609Y263250D01*
X1282379Y265479D01*
X1282372Y265485D01*
X1282366Y265492D01*
X1282246Y265582D01*
X1282128Y265674D01*
X1282119Y265678D01*
X1282112Y265683D01*
X1281967Y265754D01*
X1278891Y267028D01*
X1274786Y271134D01*
X1272564Y276497D01*
X1272564Y282303D01*
X1274786Y287666D01*
X1278322Y291202D01*
X1278395Y291297D01*
X1278474Y291386D01*
X1278492Y291422D01*
X1278517Y291454D01*
X1278564Y291563D01*
X1278618Y291669D01*
X1278627Y291708D01*
X1278643Y291746D01*
X1278662Y291863D01*
X1278688Y291979D01*
X1278687Y292020D01*
X1278693Y292060D01*
X1278682Y292178D01*
X1278678Y292297D01*
X1278667Y292336D01*
X1278663Y292376D01*
X1278623Y292489D01*
X1278590Y292603D01*
X1278569Y292637D01*
X1278556Y292676D01*
X1278489Y292774D01*
X1278428Y292877D01*
X1278389Y292922D01*
X1278377Y292939D01*
X1278362Y292952D01*
X1278322Y292997D01*
X1274786Y296534D01*
X1272564Y301897D01*
X1272564Y307703D01*
X1274786Y313066D01*
X1278891Y317172D01*
X1281910Y318422D01*
X1281987Y318466D01*
X1282070Y318502D01*
X1282125Y318545D01*
X1282186Y318579D01*
X1282250Y318642D01*
X1282321Y318697D01*
X1282364Y318752D01*
X1282414Y318801D01*
X1282461Y318877D01*
X1282516Y318948D01*
X1282544Y319012D01*
X1282581Y319072D01*
X1282607Y319157D01*
X1282643Y319240D01*
X1282654Y319309D01*
X1282674Y319376D01*
X1282679Y319465D01*
X1282693Y319554D01*
X1282686Y319624D01*
X1282689Y319693D01*
X1282671Y319781D01*
X1282663Y319870D01*
X1282639Y319936D01*
X1282625Y320005D01*
X1282586Y320086D01*
X1282556Y320170D01*
X1282516Y320227D01*
X1282485Y320291D01*
X1282427Y320359D01*
X1282377Y320433D01*
X1282325Y320479D01*
X1282279Y320533D01*
X1282206Y320584D01*
X1282139Y320643D01*
X1282031Y320707D01*
X1282019Y320716D01*
X1282013Y320718D01*
X1282000Y320725D01*
X1281506Y320977D01*
X1280133Y321975D01*
X1278933Y323175D01*
X1277935Y324548D01*
X1277164Y326061D01*
X1276644Y327661D01*
X1294130Y327661D01*
X1294248Y327676D01*
X1294367Y327683D01*
X1294405Y327696D01*
X1294445Y327701D01*
X1294556Y327744D01*
X1294669Y327781D01*
X1294703Y327803D01*
X1294741Y327818D01*
X1294837Y327888D01*
X1294938Y327951D01*
X1294966Y327981D01*
X1294998Y328004D01*
X1295074Y328096D01*
X1295156Y328183D01*
X1295175Y328218D01*
X1295201Y328249D01*
X1295252Y328357D01*
X1295309Y328461D01*
X1295320Y328501D01*
X1295337Y328537D01*
X1295359Y328654D01*
X1295389Y328769D01*
X1295393Y328830D01*
X1295397Y328850D01*
X1295395Y328870D01*
X1295399Y328930D01*
X1295399Y330201D01*
X1295401Y330201D01*
X1295401Y328930D01*
X1295416Y328812D01*
X1295423Y328693D01*
X1295436Y328655D01*
X1295441Y328614D01*
X1295485Y328504D01*
X1295521Y328391D01*
X1295543Y328356D01*
X1295558Y328319D01*
X1295628Y328223D01*
X1295691Y328122D01*
X1295721Y328094D01*
X1295745Y328061D01*
X1295836Y327986D01*
X1295923Y327904D01*
X1295958Y327884D01*
X1295990Y327859D01*
X1296097Y327808D01*
X1296202Y327750D01*
X1296241Y327740D01*
X1296277Y327723D01*
X1296394Y327701D01*
X1296509Y327671D01*
X1296570Y327667D01*
X1296590Y327663D01*
X1296610Y327665D01*
X1296670Y327661D01*
X1314156Y327661D01*
X1313636Y326061D01*
X1312865Y324548D01*
X1311867Y323175D01*
X1310667Y321975D01*
X1309294Y320977D01*
X1308800Y320725D01*
X1308726Y320675D01*
X1308647Y320633D01*
X1308595Y320586D01*
X1308537Y320547D01*
X1308477Y320480D01*
X1308411Y320419D01*
X1308373Y320361D01*
X1308326Y320308D01*
X1308286Y320228D01*
X1308237Y320154D01*
X1308214Y320087D01*
X1308182Y320025D01*
X1308162Y319938D01*
X1308133Y319853D01*
X1308128Y319783D01*
X1308112Y319715D01*
X1308115Y319625D01*
X1308108Y319536D01*
X1308120Y319467D01*
X1308122Y319397D01*
X1308147Y319311D01*
X1308162Y319222D01*
X1308191Y319159D01*
X1308211Y319091D01*
X1308256Y319014D01*
X1308293Y318933D01*
X1308337Y318878D01*
X1308372Y318817D01*
X1308436Y318754D01*
X1308492Y318684D01*
X1308548Y318642D01*
X1308597Y318592D01*
X1308674Y318547D01*
X1308746Y318493D01*
X1308858Y318438D01*
X1308871Y318430D01*
X1308877Y318428D01*
X1308890Y318422D01*
X1311909Y317172D01*
X1316014Y313066D01*
X1316681Y311455D01*
X1316706Y311412D01*
X1316723Y311365D01*
X1316784Y311274D01*
X1316839Y311179D01*
X1316874Y311143D01*
X1316901Y311102D01*
X1316984Y311029D01*
X1317060Y310950D01*
X1317103Y310925D01*
X1317140Y310892D01*
X1317238Y310842D01*
X1317331Y310784D01*
X1317379Y310770D01*
X1317423Y310747D01*
X1317530Y310723D01*
X1317635Y310691D01*
X1317685Y310688D01*
X1317733Y310677D01*
X1317843Y310681D01*
X1317953Y310675D01*
X1318002Y310686D01*
X1318051Y310687D01*
X1318157Y310718D01*
X1318264Y310740D01*
X1318309Y310762D01*
X1318357Y310775D01*
X1318451Y310831D01*
X1318550Y310879D01*
X1318588Y310912D01*
X1318631Y310937D01*
X1318752Y311043D01*
X1323521Y315813D01*
X1329059Y321350D01*
X1336061Y324251D01*
X1443841Y324251D01*
X1443846Y324251D01*
X1443850Y324251D01*
X1444003Y324271D01*
X1444078Y324281D01*
X1447869Y324251D01*
X1447872Y324251D01*
X1447879Y324251D01*
X1451670Y324251D01*
X1451740Y324232D01*
X1451744Y324232D01*
X1451748Y324230D01*
X1451909Y324219D01*
X1480610Y323993D01*
X1480733Y324008D01*
X1480857Y324015D01*
X1480891Y324026D01*
X1480926Y324030D01*
X1481042Y324075D01*
X1481159Y324113D01*
X1481189Y324132D01*
X1481222Y324145D01*
X1481323Y324217D01*
X1481428Y324283D01*
X1481452Y324309D01*
X1481481Y324330D01*
X1481561Y324425D01*
X1481646Y324515D01*
X1481663Y324546D01*
X1481686Y324573D01*
X1481740Y324685D01*
X1481800Y324794D01*
X1481808Y324828D01*
X1481824Y324860D01*
X1481848Y324981D01*
X1481879Y325101D01*
X1481882Y325153D01*
X1481886Y325172D01*
X1481885Y325193D01*
X1481889Y325262D01*
X1481889Y639283D01*
X1481877Y639381D01*
X1481874Y639480D01*
X1481857Y639539D01*
X1481849Y639599D01*
X1481813Y639691D01*
X1481785Y639786D01*
X1481755Y639838D01*
X1481732Y639894D01*
X1481674Y639974D01*
X1481624Y640060D01*
X1481558Y640135D01*
X1481546Y640152D01*
X1481536Y640160D01*
X1481518Y640181D01*
X1480721Y640978D01*
X1480642Y641038D01*
X1480570Y641106D01*
X1480517Y641135D01*
X1480469Y641172D01*
X1480378Y641212D01*
X1480292Y641260D01*
X1480233Y641275D01*
X1480178Y641299D01*
X1480080Y641314D01*
X1479984Y641339D01*
X1479884Y641345D01*
X1479863Y641349D01*
X1479851Y641347D01*
X1479823Y641349D01*
X1292874Y641349D01*
X1292805Y641341D01*
X1292735Y641342D01*
X1292647Y641321D01*
X1292558Y641309D01*
X1292493Y641284D01*
X1292426Y641267D01*
X1292346Y641225D01*
X1292263Y641192D01*
X1292206Y641151D01*
X1292144Y641119D01*
X1292078Y641058D01*
X1292005Y641006D01*
X1291961Y640952D01*
X1291909Y640905D01*
X1291860Y640830D01*
X1291803Y640761D01*
X1291773Y640697D01*
X1291734Y640639D01*
X1291705Y640554D01*
X1291667Y640473D01*
X1291654Y640404D01*
X1291631Y640338D01*
X1291624Y640249D01*
X1291607Y640161D01*
X1291612Y640091D01*
X1291606Y640021D01*
X1291621Y639933D01*
X1291627Y639843D01*
X1291648Y639777D01*
X1291660Y639708D01*
X1291697Y639626D01*
X1291725Y639541D01*
X1291762Y639482D01*
X1291791Y639418D01*
X1291847Y639348D01*
X1291895Y639272D01*
X1291946Y639224D01*
X1291990Y639170D01*
X1292061Y639115D01*
X1292127Y639054D01*
X1292188Y639020D01*
X1292244Y638978D01*
X1292388Y638907D01*
X1293491Y638450D01*
X1294917Y637025D01*
X1294941Y637006D01*
X1294960Y636983D01*
X1295086Y636883D01*
X1296737Y635725D01*
X1297575Y634410D01*
X1297612Y634365D01*
X1297641Y634315D01*
X1297748Y634194D01*
X1298850Y633091D01*
X1299622Y631228D01*
X1299637Y631202D01*
X1299646Y631174D01*
X1299724Y631033D01*
X1300807Y629332D01*
X1301077Y627796D01*
X1301094Y627740D01*
X1301102Y627682D01*
X1301154Y627530D01*
X1301751Y626089D01*
X1301751Y624073D01*
X1301754Y624043D01*
X1301752Y624013D01*
X1301770Y623853D01*
X1307871Y589161D01*
X1307888Y589105D01*
X1307896Y589047D01*
X1307948Y588895D01*
X1308831Y586764D01*
X1308831Y583812D01*
X1308835Y583782D01*
X1308832Y583752D01*
X1308834Y583734D01*
X1308831Y583680D01*
X1308831Y581636D01*
X1307827Y579212D01*
X1307819Y579183D01*
X1307805Y579156D01*
X1307760Y579001D01*
X1307175Y576369D01*
X1302825Y570163D01*
X1300616Y568757D01*
X1300510Y568669D01*
X1300401Y568584D01*
X1300388Y568567D01*
X1300372Y568554D01*
X1300291Y568442D01*
X1300206Y568333D01*
X1300197Y568313D01*
X1300185Y568296D01*
X1300134Y568167D01*
X1300079Y568041D01*
X1300076Y568020D01*
X1300068Y568001D01*
X1300051Y567863D01*
X1300029Y567727D01*
X1300031Y567706D01*
X1300029Y567685D01*
X1300046Y567548D01*
X1300059Y567410D01*
X1300066Y567390D01*
X1300069Y567369D01*
X1300120Y567241D01*
X1300166Y567111D01*
X1300178Y567093D01*
X1300186Y567074D01*
X1300267Y566962D01*
X1300345Y566848D01*
X1300361Y566834D01*
X1300373Y566817D01*
X1300480Y566729D01*
X1300583Y566637D01*
X1300609Y566622D01*
X1300618Y566614D01*
X1300637Y566605D01*
X1300685Y566577D01*
X1301856Y565726D01*
X1302866Y564716D01*
X1303707Y563559D01*
X1304355Y562286D01*
X1304797Y560926D01*
X1304817Y560799D01*
X1290130Y560799D01*
X1290012Y560784D01*
X1289893Y560777D01*
X1289855Y560764D01*
X1289815Y560759D01*
X1289704Y560716D01*
X1289591Y560679D01*
X1289557Y560657D01*
X1289519Y560642D01*
X1289423Y560573D01*
X1289406Y560562D01*
X1289382Y560576D01*
X1289350Y560601D01*
X1289243Y560652D01*
X1289138Y560710D01*
X1289099Y560720D01*
X1289063Y560737D01*
X1288946Y560759D01*
X1288830Y560789D01*
X1288770Y560793D01*
X1288750Y560797D01*
X1288730Y560795D01*
X1288670Y560799D01*
X1273983Y560799D01*
X1274003Y560926D01*
X1274445Y562286D01*
X1275093Y563559D01*
X1275934Y564716D01*
X1276944Y565726D01*
X1278101Y566567D01*
X1278110Y566572D01*
X1278202Y566634D01*
X1278297Y566688D01*
X1278333Y566722D01*
X1278374Y566750D01*
X1278446Y566833D01*
X1278525Y566910D01*
X1278551Y566952D01*
X1278584Y566989D01*
X1278634Y567087D01*
X1278691Y567181D01*
X1278706Y567228D01*
X1278728Y567272D01*
X1278752Y567380D01*
X1278785Y567485D01*
X1278787Y567534D01*
X1278798Y567582D01*
X1278794Y567693D01*
X1278800Y567802D01*
X1278790Y567851D01*
X1278788Y567900D01*
X1278757Y568006D01*
X1278735Y568114D01*
X1278713Y568158D01*
X1278699Y568206D01*
X1278643Y568301D01*
X1278595Y568399D01*
X1278563Y568437D01*
X1278538Y568480D01*
X1278460Y568558D01*
X1278388Y568641D01*
X1278329Y568689D01*
X1278313Y568705D01*
X1278298Y568714D01*
X1278263Y568742D01*
X1275363Y570775D01*
X1271231Y577266D01*
X1271200Y577304D01*
X1271176Y577346D01*
X1271099Y577426D01*
X1271028Y577511D01*
X1270989Y577540D01*
X1270954Y577575D01*
X1270860Y577633D01*
X1270771Y577697D01*
X1270725Y577715D01*
X1270683Y577741D01*
X1270578Y577774D01*
X1270475Y577814D01*
X1270426Y577820D01*
X1270379Y577835D01*
X1270269Y577840D01*
X1270159Y577854D01*
X1270111Y577848D01*
X1270062Y577850D01*
X1269954Y577828D01*
X1269844Y577814D01*
X1269798Y577796D01*
X1269750Y577786D01*
X1269651Y577737D01*
X1269548Y577696D01*
X1269509Y577668D01*
X1269465Y577646D01*
X1269381Y577574D01*
X1269291Y577509D01*
X1269260Y577471D01*
X1269223Y577440D01*
X1269159Y577349D01*
X1269089Y577264D01*
X1269068Y577220D01*
X1269039Y577179D01*
X1269000Y577076D01*
X1268953Y576976D01*
X1268944Y576928D01*
X1268927Y576882D01*
X1268914Y576772D01*
X1268894Y576664D01*
X1268897Y576615D01*
X1268891Y576566D01*
X1268907Y576457D01*
X1268914Y576347D01*
X1268929Y576300D01*
X1268936Y576251D01*
X1268988Y576099D01*
X1269831Y574064D01*
X1269831Y568936D01*
X1267868Y564198D01*
X1264242Y560572D01*
X1262796Y559973D01*
X1262675Y559904D01*
X1262552Y559839D01*
X1262537Y559825D01*
X1262519Y559815D01*
X1262419Y559718D01*
X1262317Y559625D01*
X1262305Y559608D01*
X1262291Y559594D01*
X1262218Y559475D01*
X1262142Y559359D01*
X1262135Y559340D01*
X1262125Y559323D01*
X1262084Y559190D01*
X1262039Y559058D01*
X1262037Y559038D01*
X1262031Y559019D01*
X1262024Y558880D01*
X1262013Y558741D01*
X1262017Y558721D01*
X1262016Y558701D01*
X1262044Y558565D01*
X1262068Y558428D01*
X1262076Y558409D01*
X1262080Y558390D01*
X1262141Y558264D01*
X1262198Y558138D01*
X1262211Y558122D01*
X1262220Y558104D01*
X1262310Y557998D01*
X1262397Y557890D01*
X1262413Y557877D01*
X1262426Y557862D01*
X1262540Y557782D01*
X1262651Y557698D01*
X1262676Y557686D01*
X1262686Y557679D01*
X1262705Y557672D01*
X1262796Y557627D01*
X1264242Y557028D01*
X1267868Y553402D01*
X1269831Y548664D01*
X1269831Y544195D01*
X1269846Y544077D01*
X1269853Y543958D01*
X1269866Y543920D01*
X1269871Y543879D01*
X1269914Y543769D01*
X1269951Y543656D01*
X1269973Y543621D01*
X1269988Y543584D01*
X1270057Y543488D01*
X1270121Y543387D01*
X1270151Y543359D01*
X1270174Y543326D01*
X1270266Y543250D01*
X1270353Y543169D01*
X1270388Y543149D01*
X1270419Y543124D01*
X1270527Y543073D01*
X1270631Y543015D01*
X1270671Y543005D01*
X1270707Y542988D01*
X1270824Y542966D01*
X1270939Y542936D01*
X1270999Y542932D01*
X1271019Y542928D01*
X1271040Y542930D01*
X1271100Y542926D01*
X1273630Y542926D01*
X1273728Y542938D01*
X1273827Y542941D01*
X1273885Y542958D01*
X1273945Y542966D01*
X1274037Y543002D01*
X1274132Y543030D01*
X1274185Y543060D01*
X1274241Y543083D01*
X1274321Y543141D01*
X1274406Y543191D01*
X1274482Y543257D01*
X1274498Y543269D01*
X1274506Y543279D01*
X1274527Y543297D01*
X1275558Y544328D01*
X1280296Y546291D01*
X1298504Y546291D01*
X1303242Y544328D01*
X1306868Y540702D01*
X1308831Y535964D01*
X1308831Y530836D01*
X1306868Y526098D01*
X1303242Y522472D01*
X1298504Y520509D01*
X1280296Y520509D01*
X1275558Y522472D01*
X1274527Y523503D01*
X1274449Y523563D01*
X1274377Y523631D01*
X1274324Y523660D01*
X1274276Y523697D01*
X1274185Y523737D01*
X1274098Y523785D01*
X1274040Y523800D01*
X1273984Y523824D01*
X1273886Y523839D01*
X1273790Y523864D01*
X1273690Y523870D01*
X1273670Y523874D01*
X1273658Y523872D01*
X1273630Y523874D01*
X1271100Y523874D01*
X1270982Y523859D01*
X1270863Y523852D01*
X1270825Y523839D01*
X1270784Y523834D01*
X1270674Y523791D01*
X1270561Y523754D01*
X1270526Y523732D01*
X1270489Y523717D01*
X1270393Y523648D01*
X1270292Y523584D01*
X1270264Y523554D01*
X1270231Y523531D01*
X1270155Y523439D01*
X1270074Y523352D01*
X1270054Y523317D01*
X1270029Y523286D01*
X1269978Y523178D01*
X1269920Y523074D01*
X1269910Y523034D01*
X1269893Y522998D01*
X1269871Y522881D01*
X1269841Y522766D01*
X1269837Y522706D01*
X1269833Y522686D01*
X1269835Y522665D01*
X1269831Y522605D01*
X1269831Y518136D01*
X1267868Y513398D01*
X1264242Y509772D01*
X1259504Y507809D01*
X1241296Y507809D01*
X1236558Y509772D01*
X1232932Y513398D01*
X1230969Y518136D01*
X1230969Y522605D01*
X1230954Y522723D01*
X1230947Y522842D01*
X1230934Y522880D01*
X1230929Y522921D01*
X1230886Y523031D01*
X1230849Y523144D01*
X1230827Y523179D01*
X1230812Y523216D01*
X1230743Y523312D01*
X1230679Y523413D01*
X1230649Y523441D01*
X1230626Y523474D01*
X1230534Y523550D01*
X1230447Y523631D01*
X1230412Y523651D01*
X1230381Y523676D01*
X1230273Y523727D01*
X1230169Y523785D01*
X1230129Y523795D01*
X1230093Y523812D01*
X1229976Y523834D01*
X1229861Y523864D01*
X1229801Y523868D01*
X1229781Y523872D01*
X1229760Y523870D01*
X1229700Y523874D01*
X1163220Y523874D01*
X1159719Y525324D01*
X1157380Y527664D01*
X1157286Y527737D01*
X1157196Y527816D01*
X1157160Y527834D01*
X1157128Y527859D01*
X1157019Y527906D01*
X1156913Y527960D01*
X1156874Y527969D01*
X1156837Y527985D01*
X1156719Y528004D01*
X1156603Y528030D01*
X1156563Y528029D01*
X1156523Y528035D01*
X1156404Y528024D01*
X1156285Y528020D01*
X1156246Y528009D01*
X1156206Y528005D01*
X1156094Y527965D01*
X1155980Y527932D01*
X1155945Y527911D01*
X1155907Y527898D01*
X1155808Y527831D01*
X1155706Y527770D01*
X1155660Y527731D01*
X1155643Y527719D01*
X1155630Y527704D01*
X1155585Y527664D01*
X1148366Y520445D01*
X1137634Y520445D01*
X1130045Y528034D01*
X1130045Y538766D01*
X1137264Y545985D01*
X1137337Y546079D01*
X1137416Y546168D01*
X1137434Y546204D01*
X1137459Y546236D01*
X1137506Y546345D01*
X1137560Y546451D01*
X1137569Y546491D01*
X1137585Y546528D01*
X1137604Y546646D01*
X1137630Y546762D01*
X1137629Y546802D01*
X1137635Y546842D01*
X1137624Y546961D01*
X1137620Y547079D01*
X1137609Y547118D01*
X1137605Y547159D01*
X1137565Y547271D01*
X1137532Y547385D01*
X1137511Y547420D01*
X1137498Y547458D01*
X1137431Y547556D01*
X1137370Y547659D01*
X1137331Y547704D01*
X1137319Y547721D01*
X1137304Y547734D01*
X1137264Y547780D01*
X1047241Y637803D01*
X1047163Y637863D01*
X1047091Y637931D01*
X1047038Y637960D01*
X1046990Y637997D01*
X1046899Y638037D01*
X1046812Y638085D01*
X1046754Y638100D01*
X1046698Y638124D01*
X1046600Y638139D01*
X1046504Y638164D01*
X1046404Y638170D01*
X1046384Y638174D01*
X1046372Y638172D01*
X1046344Y638174D01*
X893455Y638174D01*
X889954Y639624D01*
X846936Y682643D01*
X846897Y682673D01*
X846863Y682710D01*
X846771Y682770D01*
X846685Y682838D01*
X846639Y682857D01*
X846597Y682885D01*
X846494Y682920D01*
X846393Y682964D01*
X846344Y682972D01*
X846297Y682988D01*
X846187Y682997D01*
X846079Y683014D01*
X846029Y683009D01*
X845980Y683013D01*
X845871Y682994D01*
X845762Y682984D01*
X845715Y682967D01*
X845666Y682959D01*
X845566Y682914D01*
X845463Y682877D01*
X845422Y682849D01*
X845376Y682828D01*
X845291Y682760D01*
X845200Y682698D01*
X845167Y682661D01*
X845128Y682630D01*
X845062Y682542D01*
X844989Y682459D01*
X844966Y682415D01*
X844937Y682376D01*
X844866Y682231D01*
X843202Y678215D01*
X839435Y674448D01*
X839012Y674273D01*
X838891Y674204D01*
X838769Y674139D01*
X838754Y674125D01*
X838736Y674115D01*
X838636Y674018D01*
X838533Y673925D01*
X838522Y673908D01*
X838508Y673894D01*
X838435Y673775D01*
X838358Y673659D01*
X838352Y673640D01*
X838341Y673623D01*
X838300Y673490D01*
X838255Y673358D01*
X838254Y673338D01*
X838248Y673319D01*
X838241Y673180D01*
X838230Y673041D01*
X838233Y673021D01*
X838232Y673001D01*
X838261Y672865D01*
X838284Y672728D01*
X838293Y672710D01*
X838297Y672690D01*
X838358Y672565D01*
X838415Y672438D01*
X838428Y672422D01*
X838437Y672404D01*
X838527Y672298D01*
X838614Y672190D01*
X838630Y672177D01*
X838643Y672162D01*
X838756Y672082D01*
X838868Y671998D01*
X838893Y671986D01*
X838903Y671979D01*
X838922Y671972D01*
X839012Y671927D01*
X839435Y671752D01*
X843202Y667985D01*
X845241Y663064D01*
X845241Y657736D01*
X843202Y652815D01*
X839435Y649048D01*
X839012Y648873D01*
X838891Y648804D01*
X838769Y648739D01*
X838754Y648725D01*
X838736Y648715D01*
X838636Y648618D01*
X838533Y648525D01*
X838522Y648508D01*
X838508Y648494D01*
X838435Y648375D01*
X838358Y648259D01*
X838352Y648240D01*
X838341Y648223D01*
X838300Y648090D01*
X838255Y647958D01*
X838254Y647938D01*
X838248Y647919D01*
X838241Y647780D01*
X838230Y647641D01*
X838233Y647621D01*
X838232Y647601D01*
X838261Y647465D01*
X838284Y647328D01*
X838293Y647310D01*
X838297Y647290D01*
X838358Y647165D01*
X838415Y647038D01*
X838428Y647022D01*
X838437Y647004D01*
X838527Y646898D01*
X838614Y646790D01*
X838630Y646777D01*
X838643Y646762D01*
X838756Y646682D01*
X838868Y646598D01*
X838893Y646586D01*
X838903Y646579D01*
X838922Y646572D01*
X839012Y646527D01*
X839435Y646352D01*
X843202Y642585D01*
X845241Y637664D01*
X845241Y632336D01*
X843202Y627415D01*
X839435Y623648D01*
X839012Y623473D01*
X838891Y623404D01*
X838769Y623339D01*
X838754Y623325D01*
X838736Y623315D01*
X838636Y623218D01*
X838533Y623125D01*
X838522Y623108D01*
X838508Y623094D01*
X838435Y622975D01*
X838358Y622859D01*
X838352Y622840D01*
X838341Y622823D01*
X838300Y622690D01*
X838255Y622558D01*
X838254Y622538D01*
X838248Y622519D01*
X838241Y622380D01*
X838230Y622241D01*
X838233Y622221D01*
X838232Y622201D01*
X838261Y622065D01*
X838284Y621928D01*
X838293Y621910D01*
X838297Y621890D01*
X838358Y621765D01*
X838415Y621638D01*
X838428Y621622D01*
X838437Y621604D01*
X838527Y621498D01*
X838614Y621390D01*
X838630Y621377D01*
X838643Y621362D01*
X838756Y621282D01*
X838868Y621198D01*
X838893Y621186D01*
X838903Y621179D01*
X838922Y621172D01*
X839012Y621127D01*
X839435Y620952D01*
X843202Y617185D01*
X845241Y612264D01*
X845241Y606936D01*
X843202Y602015D01*
X839435Y598248D01*
X839012Y598073D01*
X838891Y598004D01*
X838768Y597939D01*
X838753Y597925D01*
X838736Y597915D01*
X838636Y597818D01*
X838533Y597725D01*
X838522Y597708D01*
X838507Y597694D01*
X838435Y597576D01*
X838358Y597459D01*
X838352Y597440D01*
X838341Y597423D01*
X838300Y597290D01*
X838255Y597158D01*
X838254Y597138D01*
X838248Y597119D01*
X838241Y596980D01*
X838230Y596841D01*
X838233Y596821D01*
X838232Y596801D01*
X838261Y596665D01*
X838284Y596528D01*
X838293Y596509D01*
X838297Y596490D01*
X838358Y596364D01*
X838415Y596238D01*
X838428Y596222D01*
X838436Y596204D01*
X838527Y596098D01*
X838614Y595989D01*
X838630Y595977D01*
X838643Y595962D01*
X838757Y595882D01*
X838868Y595798D01*
X838893Y595786D01*
X838903Y595779D01*
X838922Y595772D01*
X839012Y595727D01*
X839435Y595552D01*
X843202Y591785D01*
X845241Y586864D01*
X845241Y581536D01*
X843202Y576615D01*
X839435Y572848D01*
X839012Y572673D01*
X838891Y572604D01*
X838768Y572539D01*
X838753Y572525D01*
X838736Y572515D01*
X838636Y572418D01*
X838533Y572325D01*
X838522Y572308D01*
X838508Y572294D01*
X838435Y572176D01*
X838358Y572059D01*
X838352Y572040D01*
X838341Y572023D01*
X838300Y571890D01*
X838255Y571758D01*
X838254Y571738D01*
X838248Y571719D01*
X838241Y571580D01*
X838230Y571441D01*
X838233Y571421D01*
X838232Y571401D01*
X838261Y571265D01*
X838284Y571128D01*
X838293Y571109D01*
X838297Y571090D01*
X838358Y570965D01*
X838415Y570838D01*
X838428Y570822D01*
X838436Y570804D01*
X838527Y570698D01*
X838614Y570590D01*
X838630Y570577D01*
X838643Y570562D01*
X838756Y570482D01*
X838868Y570398D01*
X838893Y570386D01*
X838903Y570379D01*
X838922Y570372D01*
X839012Y570327D01*
X839435Y570152D01*
X843202Y566385D01*
X845241Y561464D01*
X845241Y556136D01*
X843202Y551215D01*
X839435Y547448D01*
X839012Y547273D01*
X838891Y547204D01*
X838768Y547139D01*
X838753Y547125D01*
X838736Y547115D01*
X838636Y547018D01*
X838533Y546925D01*
X838522Y546908D01*
X838508Y546894D01*
X838435Y546776D01*
X838358Y546659D01*
X838352Y546640D01*
X838341Y546623D01*
X838300Y546490D01*
X838255Y546358D01*
X838254Y546338D01*
X838248Y546319D01*
X838241Y546180D01*
X838230Y546041D01*
X838233Y546021D01*
X838232Y546001D01*
X838261Y545865D01*
X838284Y545728D01*
X838293Y545709D01*
X838297Y545690D01*
X838358Y545565D01*
X838415Y545438D01*
X838428Y545422D01*
X838436Y545404D01*
X838527Y545298D01*
X838614Y545190D01*
X838630Y545177D01*
X838643Y545162D01*
X838756Y545082D01*
X838868Y544998D01*
X838893Y544986D01*
X838903Y544979D01*
X838922Y544972D01*
X839012Y544927D01*
X839435Y544752D01*
X843202Y540985D01*
X845241Y536064D01*
X845241Y530736D01*
X843202Y525815D01*
X839435Y522048D01*
X839012Y521873D01*
X838891Y521804D01*
X838768Y521739D01*
X838753Y521725D01*
X838736Y521715D01*
X838636Y521618D01*
X838533Y521525D01*
X838522Y521508D01*
X838508Y521494D01*
X838435Y521376D01*
X838358Y521259D01*
X838352Y521240D01*
X838341Y521223D01*
X838300Y521090D01*
X838255Y520958D01*
X838254Y520938D01*
X838248Y520919D01*
X838241Y520780D01*
X838230Y520641D01*
X838233Y520621D01*
X838232Y520601D01*
X838261Y520465D01*
X838284Y520328D01*
X838293Y520309D01*
X838297Y520290D01*
X838358Y520165D01*
X838415Y520038D01*
X838428Y520022D01*
X838436Y520004D01*
X838527Y519898D01*
X838614Y519790D01*
X838630Y519777D01*
X838643Y519762D01*
X838756Y519682D01*
X838868Y519598D01*
X838893Y519586D01*
X838903Y519579D01*
X838922Y519572D01*
X839012Y519527D01*
X839435Y519352D01*
X843202Y515585D01*
X845241Y510664D01*
X845241Y505336D01*
X843202Y500415D01*
X839435Y496648D01*
X839012Y496473D01*
X838891Y496404D01*
X838768Y496339D01*
X838753Y496325D01*
X838736Y496315D01*
X838636Y496218D01*
X838533Y496125D01*
X838522Y496108D01*
X838508Y496094D01*
X838435Y495976D01*
X838358Y495859D01*
X838352Y495840D01*
X838341Y495823D01*
X838300Y495690D01*
X838255Y495558D01*
X838254Y495538D01*
X838248Y495519D01*
X838241Y495380D01*
X838230Y495241D01*
X838233Y495221D01*
X838232Y495201D01*
X838261Y495065D01*
X838284Y494928D01*
X838293Y494909D01*
X838297Y494890D01*
X838358Y494765D01*
X838415Y494638D01*
X838428Y494622D01*
X838436Y494604D01*
X838527Y494498D01*
X838614Y494390D01*
X838630Y494377D01*
X838643Y494362D01*
X838756Y494282D01*
X838868Y494198D01*
X838893Y494186D01*
X838903Y494179D01*
X838922Y494172D01*
X839012Y494127D01*
X839435Y493952D01*
X843202Y490185D01*
X845241Y485264D01*
X845241Y479936D01*
X843202Y475015D01*
X839435Y471248D01*
X839012Y471073D01*
X838891Y471004D01*
X838768Y470939D01*
X838753Y470925D01*
X838736Y470915D01*
X838636Y470818D01*
X838533Y470725D01*
X838522Y470708D01*
X838508Y470694D01*
X838435Y470576D01*
X838358Y470459D01*
X838352Y470440D01*
X838341Y470423D01*
X838300Y470290D01*
X838255Y470158D01*
X838254Y470138D01*
X838248Y470119D01*
X838241Y469980D01*
X838230Y469841D01*
X838233Y469821D01*
X838232Y469801D01*
X838261Y469665D01*
X838284Y469528D01*
X838293Y469509D01*
X838297Y469490D01*
X838358Y469365D01*
X838415Y469238D01*
X838428Y469222D01*
X838436Y469204D01*
X838527Y469098D01*
X838614Y468990D01*
X838630Y468977D01*
X838643Y468962D01*
X838756Y468882D01*
X838868Y468798D01*
X838893Y468786D01*
X838903Y468779D01*
X838922Y468772D01*
X839012Y468727D01*
X839435Y468552D01*
X843202Y464785D01*
X845241Y459864D01*
X845241Y454536D01*
X843202Y449615D01*
X839435Y445848D01*
X834514Y443809D01*
X833398Y443809D01*
X833339Y443802D01*
X833279Y443804D01*
X833181Y443782D01*
X833082Y443769D01*
X833027Y443747D01*
X832968Y443734D01*
X832879Y443689D01*
X832787Y443652D01*
X832738Y443617D01*
X832685Y443590D01*
X832610Y443524D01*
X832529Y443466D01*
X832491Y443419D01*
X832446Y443380D01*
X832390Y443297D01*
X832327Y443221D01*
X832301Y443166D01*
X832267Y443117D01*
X832234Y443023D01*
X832191Y442933D01*
X832180Y442874D01*
X832159Y442818D01*
X832150Y442718D01*
X832131Y442621D01*
X832135Y442561D01*
X832129Y442501D01*
X832145Y442402D01*
X832151Y442303D01*
X832170Y442246D01*
X832179Y442187D01*
X832218Y442095D01*
X832249Y442001D01*
X832281Y441950D01*
X832305Y441895D01*
X832366Y441816D01*
X832419Y441732D01*
X832463Y441691D01*
X832500Y441643D01*
X832578Y441582D01*
X832651Y441514D01*
X832703Y441485D01*
X832751Y441448D01*
X832842Y441409D01*
X832929Y441360D01*
X832987Y441345D01*
X833042Y441322D01*
X833199Y441286D01*
X834094Y441145D01*
X835528Y440679D01*
X836871Y439994D01*
X838091Y439108D01*
X839158Y438041D01*
X840044Y436821D01*
X840729Y435478D01*
X841193Y434049D01*
X832830Y434049D01*
X832712Y434034D01*
X832593Y434027D01*
X832555Y434014D01*
X832515Y434009D01*
X832404Y433966D01*
X832291Y433929D01*
X832257Y433907D01*
X832219Y433892D01*
X832123Y433823D01*
X832022Y433759D01*
X831994Y433729D01*
X831962Y433706D01*
X831886Y433614D01*
X831854Y433580D01*
X831849Y433588D01*
X831819Y433616D01*
X831795Y433649D01*
X831704Y433725D01*
X831617Y433806D01*
X831582Y433826D01*
X831550Y433851D01*
X831443Y433902D01*
X831338Y433960D01*
X831299Y433970D01*
X831263Y433987D01*
X831146Y434009D01*
X831030Y434039D01*
X830970Y434043D01*
X830950Y434047D01*
X830930Y434045D01*
X830870Y434049D01*
X822507Y434049D01*
X822971Y435478D01*
X823656Y436821D01*
X824542Y438041D01*
X825609Y439108D01*
X826829Y439994D01*
X828172Y440679D01*
X829606Y441145D01*
X830501Y441286D01*
X830558Y441303D01*
X830618Y441311D01*
X830710Y441347D01*
X830806Y441375D01*
X830858Y441406D01*
X830913Y441428D01*
X830994Y441486D01*
X831080Y441537D01*
X831122Y441579D01*
X831171Y441614D01*
X831234Y441691D01*
X831305Y441762D01*
X831335Y441813D01*
X831373Y441859D01*
X831416Y441950D01*
X831467Y442035D01*
X831483Y442093D01*
X831509Y442147D01*
X831528Y442245D01*
X831556Y442341D01*
X831557Y442401D01*
X831569Y442460D01*
X831563Y442559D01*
X831566Y442659D01*
X831553Y442717D01*
X831549Y442777D01*
X831518Y442872D01*
X831497Y442969D01*
X831469Y443023D01*
X831451Y443079D01*
X831398Y443164D01*
X831352Y443253D01*
X831313Y443298D01*
X831281Y443348D01*
X831208Y443416D01*
X831142Y443491D01*
X831093Y443525D01*
X831049Y443566D01*
X830962Y443614D01*
X830879Y443670D01*
X830823Y443691D01*
X830771Y443720D01*
X830674Y443744D01*
X830580Y443778D01*
X830521Y443784D01*
X830463Y443799D01*
X830302Y443809D01*
X829186Y443809D01*
X824265Y445848D01*
X820498Y449615D01*
X818459Y454536D01*
X818459Y459864D01*
X820498Y464785D01*
X824265Y468552D01*
X824688Y468727D01*
X824809Y468796D01*
X824932Y468861D01*
X824947Y468875D01*
X824964Y468885D01*
X825064Y468982D01*
X825167Y469075D01*
X825178Y469092D01*
X825193Y469106D01*
X825265Y469224D01*
X825342Y469341D01*
X825348Y469360D01*
X825359Y469377D01*
X825400Y469510D01*
X825445Y469642D01*
X825446Y469662D01*
X825452Y469681D01*
X825459Y469820D01*
X825470Y469959D01*
X825467Y469979D01*
X825468Y469999D01*
X825439Y470135D01*
X825416Y470272D01*
X825407Y470291D01*
X825403Y470310D01*
X825342Y470436D01*
X825285Y470562D01*
X825272Y470578D01*
X825264Y470596D01*
X825173Y470702D01*
X825086Y470811D01*
X825070Y470823D01*
X825057Y470838D01*
X824943Y470918D01*
X824832Y471002D01*
X824807Y471014D01*
X824797Y471021D01*
X824778Y471028D01*
X824688Y471073D01*
X824265Y471248D01*
X820498Y475015D01*
X818459Y479936D01*
X818459Y485264D01*
X820498Y490185D01*
X824265Y493952D01*
X824688Y494127D01*
X824809Y494196D01*
X824932Y494261D01*
X824947Y494275D01*
X824964Y494285D01*
X825064Y494382D01*
X825167Y494475D01*
X825178Y494492D01*
X825193Y494506D01*
X825265Y494624D01*
X825342Y494741D01*
X825348Y494760D01*
X825359Y494777D01*
X825400Y494910D01*
X825445Y495042D01*
X825446Y495062D01*
X825452Y495081D01*
X825459Y495220D01*
X825470Y495359D01*
X825467Y495379D01*
X825468Y495399D01*
X825439Y495535D01*
X825416Y495672D01*
X825407Y495691D01*
X825403Y495710D01*
X825342Y495836D01*
X825285Y495962D01*
X825272Y495978D01*
X825264Y495996D01*
X825173Y496102D01*
X825086Y496211D01*
X825070Y496223D01*
X825057Y496238D01*
X824943Y496318D01*
X824832Y496402D01*
X824807Y496414D01*
X824797Y496421D01*
X824778Y496428D01*
X824688Y496473D01*
X824265Y496648D01*
X820498Y500415D01*
X818459Y505336D01*
X818459Y510664D01*
X820498Y515585D01*
X824265Y519352D01*
X824688Y519527D01*
X824809Y519596D01*
X824932Y519661D01*
X824947Y519675D01*
X824964Y519685D01*
X825064Y519782D01*
X825167Y519875D01*
X825178Y519892D01*
X825193Y519906D01*
X825265Y520024D01*
X825342Y520141D01*
X825348Y520160D01*
X825359Y520177D01*
X825400Y520310D01*
X825445Y520442D01*
X825446Y520462D01*
X825452Y520481D01*
X825459Y520620D01*
X825470Y520759D01*
X825467Y520779D01*
X825468Y520799D01*
X825439Y520935D01*
X825416Y521072D01*
X825407Y521091D01*
X825403Y521110D01*
X825342Y521236D01*
X825285Y521362D01*
X825272Y521378D01*
X825264Y521396D01*
X825173Y521502D01*
X825086Y521611D01*
X825070Y521623D01*
X825057Y521638D01*
X824943Y521718D01*
X824832Y521802D01*
X824807Y521814D01*
X824797Y521821D01*
X824778Y521828D01*
X824688Y521873D01*
X824265Y522048D01*
X820498Y525815D01*
X818459Y530736D01*
X818459Y536064D01*
X820498Y540985D01*
X824265Y544752D01*
X824688Y544927D01*
X824809Y544996D01*
X824932Y545061D01*
X824947Y545075D01*
X824964Y545085D01*
X825064Y545182D01*
X825167Y545275D01*
X825178Y545292D01*
X825193Y545306D01*
X825265Y545424D01*
X825342Y545541D01*
X825348Y545560D01*
X825359Y545577D01*
X825400Y545710D01*
X825445Y545842D01*
X825446Y545862D01*
X825452Y545881D01*
X825459Y546020D01*
X825470Y546159D01*
X825467Y546179D01*
X825468Y546199D01*
X825439Y546335D01*
X825416Y546472D01*
X825407Y546491D01*
X825403Y546510D01*
X825342Y546636D01*
X825285Y546762D01*
X825272Y546778D01*
X825264Y546796D01*
X825173Y546902D01*
X825086Y547011D01*
X825070Y547023D01*
X825057Y547038D01*
X824943Y547118D01*
X824832Y547202D01*
X824807Y547214D01*
X824797Y547221D01*
X824778Y547228D01*
X824688Y547273D01*
X824265Y547448D01*
X820498Y551215D01*
X818459Y556136D01*
X818459Y561464D01*
X820498Y566385D01*
X824265Y570152D01*
X824688Y570327D01*
X824809Y570396D01*
X824932Y570461D01*
X824947Y570475D01*
X824964Y570485D01*
X825064Y570582D01*
X825167Y570675D01*
X825178Y570692D01*
X825193Y570706D01*
X825265Y570824D01*
X825342Y570941D01*
X825348Y570960D01*
X825359Y570977D01*
X825400Y571110D01*
X825445Y571242D01*
X825446Y571262D01*
X825452Y571281D01*
X825459Y571420D01*
X825470Y571559D01*
X825467Y571579D01*
X825468Y571599D01*
X825439Y571735D01*
X825416Y571872D01*
X825407Y571891D01*
X825403Y571910D01*
X825342Y572036D01*
X825285Y572162D01*
X825272Y572178D01*
X825264Y572196D01*
X825173Y572302D01*
X825086Y572411D01*
X825070Y572423D01*
X825057Y572438D01*
X824943Y572518D01*
X824832Y572602D01*
X824807Y572614D01*
X824797Y572621D01*
X824778Y572628D01*
X824688Y572673D01*
X824265Y572848D01*
X820498Y576615D01*
X818459Y581536D01*
X818459Y586864D01*
X820498Y591785D01*
X824265Y595552D01*
X824688Y595727D01*
X824809Y595796D01*
X824932Y595861D01*
X824947Y595875D01*
X824964Y595885D01*
X825064Y595982D01*
X825167Y596075D01*
X825178Y596092D01*
X825192Y596106D01*
X825265Y596224D01*
X825342Y596341D01*
X825348Y596360D01*
X825359Y596377D01*
X825400Y596510D01*
X825445Y596642D01*
X825446Y596662D01*
X825452Y596681D01*
X825459Y596820D01*
X825470Y596959D01*
X825467Y596979D01*
X825468Y596999D01*
X825439Y597135D01*
X825416Y597272D01*
X825407Y597291D01*
X825403Y597310D01*
X825342Y597435D01*
X825285Y597562D01*
X825272Y597578D01*
X825264Y597596D01*
X825173Y597702D01*
X825086Y597810D01*
X825070Y597823D01*
X825057Y597838D01*
X824944Y597918D01*
X824832Y598002D01*
X824807Y598014D01*
X824797Y598021D01*
X824778Y598028D01*
X824688Y598073D01*
X824265Y598248D01*
X820498Y602015D01*
X818459Y606936D01*
X818459Y612264D01*
X820498Y617185D01*
X824265Y620952D01*
X824688Y621127D01*
X824809Y621196D01*
X824932Y621261D01*
X824946Y621275D01*
X824964Y621285D01*
X825064Y621382D01*
X825167Y621475D01*
X825178Y621492D01*
X825193Y621506D01*
X825265Y621625D01*
X825342Y621741D01*
X825348Y621760D01*
X825359Y621777D01*
X825400Y621910D01*
X825445Y622042D01*
X825446Y622062D01*
X825452Y622081D01*
X825459Y622220D01*
X825470Y622359D01*
X825467Y622379D01*
X825467Y622399D01*
X825439Y622535D01*
X825416Y622672D01*
X825407Y622691D01*
X825403Y622710D01*
X825342Y622835D01*
X825285Y622962D01*
X825272Y622978D01*
X825263Y622996D01*
X825173Y623102D01*
X825086Y623210D01*
X825070Y623223D01*
X825057Y623238D01*
X824943Y623318D01*
X824832Y623402D01*
X824807Y623414D01*
X824797Y623421D01*
X824778Y623428D01*
X824688Y623473D01*
X824265Y623648D01*
X820498Y627415D01*
X819904Y628847D01*
X819900Y628855D01*
X819897Y628864D01*
X819821Y628993D01*
X819747Y629124D01*
X819740Y629130D01*
X819736Y629138D01*
X819629Y629259D01*
X795683Y653206D01*
X793749Y657874D01*
X793749Y770876D01*
X795683Y775544D01*
X799256Y779117D01*
X803924Y781051D01*
X872476Y781051D01*
X877144Y779117D01*
X933646Y722615D01*
X933654Y722609D01*
X933660Y722602D01*
X933733Y722547D01*
X933793Y722491D01*
X933841Y722464D01*
X933898Y722420D01*
X933906Y722416D01*
X933914Y722411D01*
X934058Y722340D01*
X934438Y722182D01*
X938082Y718538D01*
X938627Y717223D01*
X938696Y717102D01*
X938761Y716979D01*
X938775Y716964D01*
X938785Y716947D01*
X938882Y716847D01*
X938975Y716744D01*
X938992Y716733D01*
X939006Y716718D01*
X939124Y716646D01*
X939241Y716569D01*
X939260Y716562D01*
X939277Y716552D01*
X939410Y716511D01*
X939542Y716466D01*
X939562Y716464D01*
X939581Y716458D01*
X939720Y716452D01*
X939859Y716441D01*
X939879Y716444D01*
X939899Y716443D01*
X940035Y716471D01*
X940172Y716495D01*
X940191Y716503D01*
X940210Y716507D01*
X940335Y716569D01*
X940462Y716626D01*
X940478Y716638D01*
X940496Y716647D01*
X940602Y716737D01*
X940710Y716824D01*
X940723Y716840D01*
X940738Y716853D01*
X940818Y716967D01*
X940902Y717078D01*
X940914Y717103D01*
X940921Y717114D01*
X940928Y717133D01*
X940973Y717223D01*
X941517Y718538D01*
X945162Y722183D01*
X949923Y724155D01*
X955077Y724155D01*
X959838Y722183D01*
X963483Y718538D01*
X965455Y713777D01*
X965455Y695415D01*
X963483Y690654D01*
X959838Y687009D01*
X955077Y685037D01*
X949923Y685037D01*
X945162Y687009D01*
X941517Y690654D01*
X940973Y691969D01*
X940904Y692090D01*
X940839Y692213D01*
X940825Y692228D01*
X940815Y692245D01*
X940718Y692346D01*
X940625Y692448D01*
X940608Y692459D01*
X940594Y692474D01*
X940475Y692547D01*
X940359Y692623D01*
X940340Y692630D01*
X940323Y692640D01*
X940190Y692681D01*
X940058Y692726D01*
X940038Y692728D01*
X940019Y692734D01*
X939880Y692740D01*
X939741Y692751D01*
X939721Y692748D01*
X939701Y692749D01*
X939565Y692721D01*
X939428Y692697D01*
X939409Y692689D01*
X939390Y692685D01*
X939264Y692623D01*
X939138Y692566D01*
X939122Y692554D01*
X939104Y692545D01*
X938998Y692455D01*
X938890Y692368D01*
X938877Y692352D01*
X938862Y692339D01*
X938782Y692225D01*
X938698Y692114D01*
X938686Y692089D01*
X938679Y692078D01*
X938672Y692059D01*
X938627Y691969D01*
X938082Y690654D01*
X934438Y687009D01*
X929677Y685037D01*
X924523Y685037D01*
X919762Y687009D01*
X916117Y690654D01*
X914145Y695415D01*
X914145Y705667D01*
X914133Y705766D01*
X914130Y705865D01*
X914113Y705923D01*
X914105Y705983D01*
X914069Y706075D01*
X914041Y706170D01*
X914011Y706222D01*
X913988Y706279D01*
X913930Y706359D01*
X913880Y706444D01*
X913814Y706520D01*
X913802Y706536D01*
X913792Y706544D01*
X913774Y706565D01*
X865061Y755278D01*
X864983Y755338D01*
X864911Y755406D01*
X864858Y755435D01*
X864810Y755472D01*
X864719Y755512D01*
X864632Y755560D01*
X864574Y755575D01*
X864518Y755599D01*
X864420Y755614D01*
X864324Y755639D01*
X864224Y755645D01*
X864204Y755649D01*
X864191Y755647D01*
X864163Y755649D01*
X820420Y755649D01*
X820302Y755634D01*
X820183Y755627D01*
X820145Y755614D01*
X820104Y755609D01*
X819994Y755566D01*
X819881Y755529D01*
X819846Y755507D01*
X819809Y755492D01*
X819713Y755423D01*
X819612Y755359D01*
X819584Y755329D01*
X819551Y755306D01*
X819475Y755214D01*
X819394Y755127D01*
X819374Y755092D01*
X819349Y755061D01*
X819298Y754953D01*
X819240Y754849D01*
X819230Y754809D01*
X819213Y754773D01*
X819191Y754656D01*
X819161Y754541D01*
X819157Y754481D01*
X819153Y754461D01*
X819155Y754440D01*
X819151Y754380D01*
X819151Y749820D01*
X819168Y749682D01*
X819181Y749543D01*
X819188Y749524D01*
X819191Y749504D01*
X819242Y749375D01*
X819289Y749244D01*
X819300Y749227D01*
X819308Y749208D01*
X819389Y749096D01*
X819467Y748981D01*
X819483Y748968D01*
X819494Y748951D01*
X819602Y748862D01*
X819706Y748770D01*
X819724Y748761D01*
X819739Y748748D01*
X819865Y748689D01*
X819989Y748626D01*
X820009Y748621D01*
X820027Y748613D01*
X820164Y748587D01*
X820299Y748556D01*
X820320Y748557D01*
X820339Y748553D01*
X820478Y748562D01*
X820617Y748566D01*
X820637Y748571D01*
X820657Y748573D01*
X820789Y748615D01*
X820923Y748654D01*
X820940Y748665D01*
X820959Y748671D01*
X821077Y748745D01*
X821197Y748816D01*
X821218Y748834D01*
X821228Y748841D01*
X821242Y748856D01*
X821317Y748922D01*
X822696Y750300D01*
X828635Y752761D01*
X835065Y752761D01*
X841004Y750300D01*
X845550Y745754D01*
X848011Y739815D01*
X848011Y733385D01*
X845550Y727446D01*
X840944Y722839D01*
X840870Y722745D01*
X840792Y722656D01*
X840773Y722620D01*
X840749Y722588D01*
X840701Y722478D01*
X840647Y722372D01*
X840638Y722333D01*
X840622Y722296D01*
X840604Y722178D01*
X840578Y722062D01*
X840579Y722022D01*
X840572Y721982D01*
X840584Y721863D01*
X840587Y721744D01*
X840598Y721705D01*
X840602Y721665D01*
X840643Y721553D01*
X840676Y721439D01*
X840696Y721404D01*
X840710Y721366D01*
X840777Y721267D01*
X840837Y721165D01*
X840877Y721119D01*
X840888Y721103D01*
X840904Y721089D01*
X840944Y721044D01*
X843202Y718785D01*
X845241Y713864D01*
X845241Y711806D01*
X845253Y711708D01*
X845256Y711609D01*
X845273Y711551D01*
X845281Y711491D01*
X845317Y711399D01*
X845345Y711304D01*
X845375Y711251D01*
X845398Y711195D01*
X845456Y711115D01*
X845506Y711030D01*
X845572Y710954D01*
X845584Y710938D01*
X845594Y710930D01*
X845612Y710909D01*
X898924Y657597D01*
X899002Y657537D01*
X899074Y657469D01*
X899127Y657440D01*
X899175Y657403D01*
X899266Y657363D01*
X899353Y657315D01*
X899411Y657300D01*
X899467Y657276D01*
X899565Y657261D01*
X899661Y657236D01*
X899761Y657230D01*
X899781Y657226D01*
X899793Y657228D01*
X899821Y657226D01*
X1052710Y657226D01*
X1056211Y655776D01*
X1059069Y652917D01*
X1127879Y584108D01*
X1127988Y584023D01*
X1128095Y583934D01*
X1128114Y583925D01*
X1128130Y583913D01*
X1128258Y583858D01*
X1128383Y583799D01*
X1128403Y583795D01*
X1128422Y583787D01*
X1128560Y583765D01*
X1128696Y583739D01*
X1128716Y583740D01*
X1128736Y583737D01*
X1128875Y583750D01*
X1129013Y583759D01*
X1129032Y583765D01*
X1129052Y583767D01*
X1129184Y583814D01*
X1129315Y583857D01*
X1129333Y583867D01*
X1129352Y583874D01*
X1129467Y583952D01*
X1129584Y584027D01*
X1129598Y584042D01*
X1129615Y584053D01*
X1129707Y584157D01*
X1129802Y584258D01*
X1129812Y584276D01*
X1129825Y584291D01*
X1129889Y584415D01*
X1129956Y584537D01*
X1129961Y584556D01*
X1129970Y584575D01*
X1130000Y584710D01*
X1130035Y584845D01*
X1130037Y584873D01*
X1130040Y584885D01*
X1130039Y584905D01*
X1130045Y585005D01*
X1130045Y589566D01*
X1137634Y597155D01*
X1148366Y597155D01*
X1155955Y589566D01*
X1155955Y578834D01*
X1148366Y571245D01*
X1143805Y571245D01*
X1143668Y571228D01*
X1143529Y571215D01*
X1143510Y571208D01*
X1143490Y571205D01*
X1143361Y571154D01*
X1143230Y571107D01*
X1143213Y571096D01*
X1143194Y571088D01*
X1143082Y571007D01*
X1142967Y570929D01*
X1142953Y570913D01*
X1142937Y570902D01*
X1142848Y570794D01*
X1142756Y570690D01*
X1142747Y570672D01*
X1142734Y570657D01*
X1142675Y570531D01*
X1142612Y570407D01*
X1142607Y570387D01*
X1142599Y570369D01*
X1142573Y570233D01*
X1142542Y570097D01*
X1142543Y570076D01*
X1142539Y570057D01*
X1142547Y569918D01*
X1142552Y569779D01*
X1142557Y569759D01*
X1142559Y569739D01*
X1142601Y569607D01*
X1142640Y569473D01*
X1142650Y569456D01*
X1142657Y569437D01*
X1142731Y569319D01*
X1142802Y569199D01*
X1142820Y569178D01*
X1142827Y569168D01*
X1142842Y569154D01*
X1142908Y569079D01*
X1168689Y543297D01*
X1168767Y543237D01*
X1168839Y543169D01*
X1168892Y543140D01*
X1168940Y543103D01*
X1169031Y543063D01*
X1169118Y543015D01*
X1169176Y543000D01*
X1169232Y542976D01*
X1169330Y542961D01*
X1169426Y542936D01*
X1169526Y542930D01*
X1169546Y542926D01*
X1169559Y542928D01*
X1169587Y542926D01*
X1229700Y542926D01*
X1229818Y542941D01*
X1229937Y542948D01*
X1229975Y542961D01*
X1230016Y542966D01*
X1230126Y543009D01*
X1230239Y543046D01*
X1230274Y543068D01*
X1230311Y543083D01*
X1230407Y543152D01*
X1230508Y543216D01*
X1230536Y543246D01*
X1230569Y543269D01*
X1230645Y543361D01*
X1230726Y543448D01*
X1230746Y543483D01*
X1230771Y543514D01*
X1230822Y543622D01*
X1230880Y543726D01*
X1230890Y543766D01*
X1230907Y543802D01*
X1230929Y543919D01*
X1230959Y544034D01*
X1230963Y544094D01*
X1230967Y544114D01*
X1230965Y544135D01*
X1230969Y544195D01*
X1230969Y548664D01*
X1232932Y553402D01*
X1236558Y557028D01*
X1238004Y557627D01*
X1238125Y557696D01*
X1238248Y557761D01*
X1238263Y557775D01*
X1238281Y557785D01*
X1238381Y557882D01*
X1238483Y557975D01*
X1238495Y557992D01*
X1238509Y558006D01*
X1238582Y558124D01*
X1238658Y558241D01*
X1238665Y558260D01*
X1238675Y558277D01*
X1238716Y558410D01*
X1238761Y558542D01*
X1238763Y558562D01*
X1238769Y558581D01*
X1238776Y558720D01*
X1238787Y558859D01*
X1238783Y558879D01*
X1238784Y558899D01*
X1238756Y559035D01*
X1238732Y559172D01*
X1238724Y559191D01*
X1238720Y559210D01*
X1238659Y559335D01*
X1238602Y559462D01*
X1238589Y559478D01*
X1238580Y559496D01*
X1238490Y559602D01*
X1238403Y559710D01*
X1238387Y559723D01*
X1238374Y559738D01*
X1238260Y559818D01*
X1238149Y559902D01*
X1238124Y559914D01*
X1238114Y559921D01*
X1238094Y559928D01*
X1238004Y559973D01*
X1236558Y560572D01*
X1232932Y564198D01*
X1230969Y568936D01*
X1230969Y574064D01*
X1232932Y578802D01*
X1236558Y582428D01*
X1238004Y583027D01*
X1238125Y583096D01*
X1238248Y583161D01*
X1238263Y583175D01*
X1238281Y583185D01*
X1238381Y583282D01*
X1238483Y583375D01*
X1238495Y583392D01*
X1238509Y583406D01*
X1238582Y583524D01*
X1238658Y583641D01*
X1238665Y583660D01*
X1238675Y583677D01*
X1238716Y583810D01*
X1238761Y583942D01*
X1238763Y583962D01*
X1238769Y583981D01*
X1238776Y584120D01*
X1238787Y584259D01*
X1238783Y584279D01*
X1238784Y584299D01*
X1238756Y584435D01*
X1238732Y584572D01*
X1238724Y584591D01*
X1238720Y584610D01*
X1238659Y584735D01*
X1238602Y584862D01*
X1238589Y584878D01*
X1238580Y584896D01*
X1238490Y585002D01*
X1238403Y585110D01*
X1238387Y585123D01*
X1238374Y585138D01*
X1238260Y585218D01*
X1238149Y585302D01*
X1238124Y585314D01*
X1238114Y585321D01*
X1238094Y585328D01*
X1238004Y585373D01*
X1236558Y585972D01*
X1232932Y589598D01*
X1230969Y594336D01*
X1230969Y599464D01*
X1231810Y601494D01*
X1231823Y601542D01*
X1231844Y601587D01*
X1231865Y601695D01*
X1231894Y601801D01*
X1231895Y601851D01*
X1231904Y601900D01*
X1231897Y602009D01*
X1231899Y602119D01*
X1231888Y602167D01*
X1231885Y602217D01*
X1231851Y602321D01*
X1231825Y602428D01*
X1231802Y602472D01*
X1231786Y602519D01*
X1231728Y602612D01*
X1231676Y602709D01*
X1231643Y602746D01*
X1231616Y602788D01*
X1231536Y602863D01*
X1231462Y602945D01*
X1231421Y602972D01*
X1231385Y603006D01*
X1231289Y603059D01*
X1231197Y603119D01*
X1231150Y603136D01*
X1231106Y603160D01*
X1231000Y603187D01*
X1230896Y603223D01*
X1230846Y603227D01*
X1230798Y603239D01*
X1230638Y603249D01*
X1177311Y603249D01*
X1170309Y606150D01*
X1164950Y611509D01*
X1162049Y618511D01*
X1162049Y717740D01*
X1162041Y717804D01*
X1162043Y717867D01*
X1162021Y717961D01*
X1162009Y718056D01*
X1161986Y718115D01*
X1161972Y718177D01*
X1161928Y718263D01*
X1161892Y718352D01*
X1161855Y718403D01*
X1161826Y718460D01*
X1161762Y718531D01*
X1161706Y718609D01*
X1161656Y718650D01*
X1161614Y718697D01*
X1161534Y718751D01*
X1161461Y718812D01*
X1161403Y718839D01*
X1161350Y718875D01*
X1161202Y718938D01*
X1076530Y748772D01*
X1076388Y748900D01*
X1076335Y748937D01*
X1076288Y748981D01*
X1076205Y749027D01*
X1076127Y749081D01*
X1076066Y749103D01*
X1076009Y749135D01*
X1075917Y749158D01*
X1075829Y749191D01*
X1075764Y749198D01*
X1075701Y749214D01*
X1075540Y749224D01*
X1073295Y749224D01*
X1067320Y751699D01*
X1062747Y756272D01*
X1060272Y762247D01*
X1060272Y768715D01*
X1062747Y774690D01*
X1067320Y779263D01*
X1073295Y781738D01*
X1075986Y781738D01*
X1076029Y781743D01*
X1076073Y781741D01*
X1076187Y781763D01*
X1076302Y781778D01*
X1076342Y781794D01*
X1076385Y781802D01*
X1076534Y781862D01*
X1081624Y784300D01*
X1089192Y784708D01*
X1097418Y781810D01*
X1097549Y781782D01*
X1097679Y781748D01*
X1097714Y781746D01*
X1097729Y781743D01*
X1097750Y781743D01*
X1097840Y781738D01*
X1099575Y781738D01*
X1105550Y779263D01*
X1105837Y778975D01*
X1105872Y778948D01*
X1105901Y778916D01*
X1105997Y778851D01*
X1106089Y778780D01*
X1106129Y778763D01*
X1106165Y778739D01*
X1106313Y778676D01*
X1184153Y751248D01*
X1184284Y751220D01*
X1184415Y751186D01*
X1184450Y751184D01*
X1184464Y751181D01*
X1184486Y751181D01*
X1184575Y751176D01*
X1184889Y751176D01*
X1187884Y749935D01*
X1187902Y749930D01*
X1187948Y749911D01*
X1191005Y748834D01*
X1191239Y748624D01*
X1191349Y748548D01*
X1191457Y748467D01*
X1191488Y748451D01*
X1191500Y748443D01*
X1191521Y748435D01*
X1191601Y748396D01*
X1191891Y748275D01*
X1194183Y745983D01*
X1194198Y745972D01*
X1194233Y745936D01*
X1196645Y743771D01*
X1196781Y743488D01*
X1196853Y743375D01*
X1196922Y743259D01*
X1196945Y743233D01*
X1196953Y743221D01*
X1196969Y743206D01*
X1197028Y743139D01*
X1197250Y742916D01*
X1198491Y739922D01*
X1198500Y739906D01*
X1198519Y739859D01*
X1199919Y736936D01*
X1199936Y736622D01*
X1199960Y736490D01*
X1199978Y736357D01*
X1199990Y736324D01*
X1199993Y736309D01*
X1200002Y736289D01*
X1200031Y736205D01*
X1200151Y735914D01*
X1200151Y732673D01*
X1200153Y732655D01*
X1200153Y732605D01*
X1200327Y729368D01*
X1200223Y729072D01*
X1200195Y728940D01*
X1200161Y728810D01*
X1200159Y728775D01*
X1200156Y728761D01*
X1200156Y728739D01*
X1200151Y728650D01*
X1200151Y709704D01*
X1200159Y709635D01*
X1200158Y709565D01*
X1200179Y709478D01*
X1200191Y709389D01*
X1200216Y709324D01*
X1200233Y709256D01*
X1200275Y709176D01*
X1200308Y709093D01*
X1200349Y709037D01*
X1200381Y708975D01*
X1200442Y708908D01*
X1200494Y708836D01*
X1200548Y708791D01*
X1200595Y708739D01*
X1200670Y708690D01*
X1200739Y708633D01*
X1200803Y708603D01*
X1200861Y708565D01*
X1200946Y708535D01*
X1201027Y708497D01*
X1201096Y708484D01*
X1201162Y708461D01*
X1201251Y708454D01*
X1201339Y708437D01*
X1201409Y708442D01*
X1201479Y708436D01*
X1201567Y708452D01*
X1201657Y708457D01*
X1201723Y708479D01*
X1201792Y708491D01*
X1201874Y708528D01*
X1201959Y708555D01*
X1202018Y708593D01*
X1202082Y708621D01*
X1202152Y708677D01*
X1202228Y708725D01*
X1202276Y708776D01*
X1202330Y708820D01*
X1202385Y708892D01*
X1202446Y708957D01*
X1202480Y709018D01*
X1202522Y709074D01*
X1202593Y709218D01*
X1204987Y715000D01*
X1209560Y719573D01*
X1215535Y722048D01*
X1218386Y722048D01*
X1218472Y722059D01*
X1218558Y722060D01*
X1218629Y722078D01*
X1218702Y722088D01*
X1218782Y722119D01*
X1218866Y722142D01*
X1218987Y722200D01*
X1218998Y722205D01*
X1219002Y722208D01*
X1219011Y722212D01*
X1222606Y724243D01*
X1230129Y725161D01*
X1237431Y723130D01*
X1238469Y722317D01*
X1238488Y722306D01*
X1238504Y722291D01*
X1238624Y722225D01*
X1238742Y722154D01*
X1238763Y722148D01*
X1238782Y722137D01*
X1238915Y722103D01*
X1239047Y722064D01*
X1239069Y722064D01*
X1239090Y722058D01*
X1239251Y722048D01*
X1241815Y722048D01*
X1247790Y719573D01*
X1252363Y715000D01*
X1254838Y709025D01*
X1254838Y702557D01*
X1252363Y696582D01*
X1249795Y694014D01*
X1249785Y694001D01*
X1249772Y693990D01*
X1249687Y693876D01*
X1249600Y693763D01*
X1249593Y693748D01*
X1249583Y693734D01*
X1249530Y693602D01*
X1249474Y693471D01*
X1249471Y693455D01*
X1249465Y693439D01*
X1249446Y693298D01*
X1249424Y693157D01*
X1249425Y693140D01*
X1249423Y693124D01*
X1249432Y692963D01*
X1250945Y680566D01*
X1250955Y680525D01*
X1250958Y680483D01*
X1250994Y680372D01*
X1251023Y680258D01*
X1251043Y680221D01*
X1251056Y680181D01*
X1251119Y680081D01*
X1251175Y679979D01*
X1251204Y679948D01*
X1251226Y679912D01*
X1251312Y679831D01*
X1251391Y679746D01*
X1251427Y679723D01*
X1251458Y679694D01*
X1251561Y679637D01*
X1251659Y679574D01*
X1251699Y679561D01*
X1251736Y679540D01*
X1251850Y679511D01*
X1251961Y679474D01*
X1252003Y679471D01*
X1252044Y679461D01*
X1252205Y679451D01*
X1492029Y679451D01*
X1499031Y676550D01*
X1511673Y663909D01*
X1511782Y663824D01*
X1511889Y663735D01*
X1511908Y663727D01*
X1511924Y663714D01*
X1512052Y663659D01*
X1512177Y663600D01*
X1512197Y663596D01*
X1512216Y663588D01*
X1512354Y663566D01*
X1512490Y663540D01*
X1512510Y663541D01*
X1512530Y663538D01*
X1512669Y663551D01*
X1512807Y663560D01*
X1512826Y663566D01*
X1512846Y663568D01*
X1512978Y663615D01*
X1513109Y663658D01*
X1513127Y663669D01*
X1513146Y663676D01*
X1513261Y663754D01*
X1513378Y663828D01*
X1513392Y663843D01*
X1513409Y663854D01*
X1513501Y663958D01*
X1513596Y664060D01*
X1513606Y664077D01*
X1513619Y664093D01*
X1513683Y664216D01*
X1513750Y664338D01*
X1513755Y664358D01*
X1513764Y664376D01*
X1513794Y664512D01*
X1513829Y664646D01*
X1513831Y664674D01*
X1513834Y664686D01*
X1513833Y664707D01*
X1513839Y664807D01*
X1513839Y877570D01*
X1513824Y877688D01*
X1513817Y877807D01*
X1513804Y877845D01*
X1513799Y877886D01*
X1513756Y877996D01*
X1513719Y878109D01*
X1513697Y878144D01*
X1513682Y878181D01*
X1513613Y878277D01*
X1513549Y878378D01*
X1513519Y878406D01*
X1513496Y878439D01*
X1513404Y878515D01*
X1513317Y878596D01*
X1513282Y878616D01*
X1513251Y878641D01*
X1513143Y878692D01*
X1513039Y878750D01*
X1512999Y878760D01*
X1512963Y878777D01*
X1512846Y878799D01*
X1512731Y878829D01*
X1512671Y878833D01*
X1512651Y878837D01*
X1512630Y878835D01*
X1512570Y878839D01*
X576580Y878839D01*
X576462Y878824D01*
X576343Y878817D01*
X576305Y878804D01*
X576264Y878799D01*
X576154Y878756D01*
X576041Y878719D01*
X576006Y878697D01*
X575969Y878682D01*
X575873Y878613D01*
X575772Y878549D01*
X575744Y878519D01*
X575711Y878496D01*
X575635Y878404D01*
X575554Y878317D01*
X575534Y878282D01*
X575509Y878251D01*
X575458Y878143D01*
X575400Y878039D01*
X575390Y877999D01*
X575373Y877963D01*
X575351Y877846D01*
X575321Y877731D01*
X575317Y877671D01*
X575313Y877651D01*
X575315Y877630D01*
X575311Y877570D01*
X575311Y74930D01*
X575326Y74812D01*
X575333Y74693D01*
X575346Y74655D01*
X575351Y74614D01*
X575394Y74504D01*
X575431Y74391D01*
X575453Y74356D01*
X575468Y74319D01*
X575537Y74223D01*
X575601Y74122D01*
X575631Y74094D01*
X575654Y74061D01*
X575746Y73985D01*
X575833Y73904D01*
X575868Y73884D01*
X575899Y73859D01*
X576007Y73808D01*
X576111Y73750D01*
X576151Y73740D01*
X576187Y73723D01*
X576304Y73701D01*
X576419Y73671D01*
X576479Y73667D01*
X576499Y73663D01*
X576520Y73665D01*
X576580Y73661D01*
X1512570Y73661D01*
X1512688Y73676D01*
G37*
%LPC*%
G36*
X1432150Y185249D02*
X1432150Y185249D01*
X1427374Y187228D01*
X1427365Y187230D01*
X1427356Y187235D01*
X1427211Y187272D01*
X1427067Y187312D01*
X1427058Y187312D01*
X1427049Y187314D01*
X1426888Y187324D01*
X803292Y187324D01*
X797457Y189741D01*
X773941Y213257D01*
X771524Y219092D01*
X771524Y338455D01*
X771509Y338573D01*
X771502Y338692D01*
X771489Y338730D01*
X771484Y338771D01*
X771441Y338881D01*
X771404Y338994D01*
X771382Y339029D01*
X771367Y339066D01*
X771298Y339162D01*
X771234Y339263D01*
X771204Y339291D01*
X771181Y339324D01*
X771089Y339400D01*
X771002Y339481D01*
X770967Y339501D01*
X770936Y339526D01*
X770828Y339577D01*
X770724Y339635D01*
X770684Y339645D01*
X770648Y339662D01*
X770531Y339684D01*
X770416Y339714D01*
X770356Y339718D01*
X770336Y339722D01*
X770315Y339720D01*
X770255Y339724D01*
X691899Y339724D01*
X691849Y339718D01*
X691800Y339720D01*
X691692Y339698D01*
X691583Y339684D01*
X691537Y339666D01*
X691488Y339656D01*
X691389Y339608D01*
X691287Y339567D01*
X691247Y339538D01*
X691202Y339516D01*
X691119Y339445D01*
X691030Y339381D01*
X690998Y339342D01*
X690960Y339310D01*
X690897Y339220D01*
X690827Y339136D01*
X690806Y339091D01*
X690777Y339050D01*
X690738Y338947D01*
X690692Y338848D01*
X690682Y338799D01*
X690665Y338753D01*
X690652Y338643D01*
X690632Y338536D01*
X690635Y338486D01*
X690629Y338437D01*
X690645Y338328D01*
X690652Y338218D01*
X690667Y338171D01*
X690674Y338122D01*
X690726Y337969D01*
X692841Y332864D01*
X692841Y327536D01*
X690802Y322615D01*
X687035Y318848D01*
X686612Y318673D01*
X686491Y318604D01*
X686368Y318539D01*
X686353Y318525D01*
X686336Y318515D01*
X686236Y318418D01*
X686133Y318325D01*
X686122Y318308D01*
X686107Y318294D01*
X686035Y318176D01*
X685958Y318059D01*
X685952Y318040D01*
X685941Y318023D01*
X685900Y317890D01*
X685855Y317758D01*
X685854Y317738D01*
X685848Y317719D01*
X685841Y317580D01*
X685830Y317441D01*
X685833Y317421D01*
X685832Y317401D01*
X685861Y317265D01*
X685884Y317128D01*
X685893Y317109D01*
X685897Y317090D01*
X685958Y316964D01*
X686015Y316838D01*
X686028Y316822D01*
X686036Y316804D01*
X686127Y316698D01*
X686214Y316589D01*
X686230Y316577D01*
X686243Y316562D01*
X686357Y316482D01*
X686468Y316398D01*
X686493Y316386D01*
X686503Y316379D01*
X686522Y316372D01*
X686612Y316327D01*
X687035Y316152D01*
X690802Y312385D01*
X692841Y307464D01*
X692841Y302136D01*
X690802Y297215D01*
X688544Y294956D01*
X688470Y294862D01*
X688392Y294773D01*
X688373Y294737D01*
X688349Y294705D01*
X688301Y294595D01*
X688247Y294490D01*
X688238Y294450D01*
X688222Y294413D01*
X688204Y294295D01*
X688178Y294179D01*
X688179Y294139D01*
X688172Y294099D01*
X688184Y293980D01*
X688187Y293861D01*
X688198Y293823D01*
X688202Y293782D01*
X688243Y293670D01*
X688276Y293556D01*
X688296Y293521D01*
X688310Y293483D01*
X688377Y293384D01*
X688437Y293282D01*
X688477Y293237D01*
X688488Y293220D01*
X688504Y293206D01*
X688544Y293161D01*
X693150Y288554D01*
X695611Y282615D01*
X695611Y276185D01*
X693150Y270246D01*
X688604Y265700D01*
X682665Y263239D01*
X676235Y263239D01*
X670296Y265700D01*
X665750Y270246D01*
X663289Y276185D01*
X663289Y282615D01*
X665750Y288554D01*
X670356Y293161D01*
X670430Y293255D01*
X670508Y293344D01*
X670527Y293380D01*
X670551Y293412D01*
X670599Y293522D01*
X670653Y293628D01*
X670662Y293667D01*
X670678Y293704D01*
X670696Y293822D01*
X670722Y293938D01*
X670721Y293978D01*
X670728Y294018D01*
X670716Y294137D01*
X670713Y294256D01*
X670702Y294295D01*
X670698Y294335D01*
X670657Y294447D01*
X670624Y294561D01*
X670604Y294596D01*
X670590Y294634D01*
X670523Y294733D01*
X670463Y294835D01*
X670423Y294881D01*
X670412Y294897D01*
X670396Y294911D01*
X670356Y294956D01*
X668098Y297215D01*
X666059Y302136D01*
X666059Y307464D01*
X668098Y312385D01*
X671865Y316152D01*
X672288Y316327D01*
X672409Y316396D01*
X672532Y316461D01*
X672547Y316475D01*
X672564Y316485D01*
X672664Y316582D01*
X672767Y316675D01*
X672778Y316692D01*
X672792Y316706D01*
X672865Y316824D01*
X672942Y316941D01*
X672948Y316960D01*
X672959Y316977D01*
X673000Y317110D01*
X673045Y317242D01*
X673046Y317262D01*
X673052Y317281D01*
X673059Y317420D01*
X673070Y317559D01*
X673067Y317579D01*
X673068Y317599D01*
X673039Y317735D01*
X673016Y317872D01*
X673007Y317891D01*
X673003Y317910D01*
X672942Y318035D01*
X672885Y318162D01*
X672872Y318178D01*
X672864Y318196D01*
X672773Y318302D01*
X672686Y318410D01*
X672670Y318423D01*
X672657Y318438D01*
X672544Y318518D01*
X672432Y318602D01*
X672407Y318614D01*
X672397Y318621D01*
X672378Y318628D01*
X672288Y318673D01*
X671865Y318848D01*
X668098Y322615D01*
X666059Y327536D01*
X666059Y332864D01*
X668098Y337785D01*
X670558Y340245D01*
X670631Y340340D01*
X670710Y340429D01*
X670728Y340465D01*
X670753Y340497D01*
X670800Y340606D01*
X670854Y340712D01*
X670863Y340751D01*
X670879Y340788D01*
X670898Y340906D01*
X670924Y341022D01*
X670923Y341063D01*
X670929Y341103D01*
X670918Y341221D01*
X670914Y341340D01*
X670903Y341379D01*
X670899Y341419D01*
X670859Y341531D01*
X670826Y341646D01*
X670805Y341680D01*
X670792Y341718D01*
X670725Y341817D01*
X670664Y341920D01*
X670625Y341965D01*
X670613Y341982D01*
X670598Y341995D01*
X670558Y342040D01*
X665991Y346607D01*
X663574Y352442D01*
X663574Y358758D01*
X665991Y364593D01*
X670457Y369059D01*
X674177Y370600D01*
X674307Y370674D01*
X674437Y370745D01*
X674445Y370752D01*
X674454Y370757D01*
X674561Y370861D01*
X674669Y370963D01*
X674675Y370971D01*
X674682Y370979D01*
X674760Y371105D01*
X674840Y371231D01*
X674843Y371241D01*
X674848Y371250D01*
X674892Y371392D01*
X674938Y371534D01*
X674939Y371544D01*
X674942Y371554D01*
X674949Y371702D01*
X674958Y371851D01*
X674957Y371861D01*
X674957Y371871D01*
X674927Y372017D01*
X674899Y372163D01*
X674895Y372173D01*
X674893Y372183D01*
X674827Y372317D01*
X674764Y372451D01*
X674758Y372459D01*
X674753Y372468D01*
X674656Y372582D01*
X674562Y372697D01*
X674551Y372705D01*
X674547Y372710D01*
X674535Y372719D01*
X674438Y372799D01*
X673209Y373692D01*
X672142Y374759D01*
X671256Y375979D01*
X670571Y377322D01*
X670107Y378751D01*
X678470Y378751D01*
X678588Y378766D01*
X678707Y378773D01*
X678745Y378785D01*
X678785Y378791D01*
X678896Y378834D01*
X679009Y378871D01*
X679043Y378893D01*
X679081Y378908D01*
X679177Y378977D01*
X679278Y379041D01*
X679306Y379071D01*
X679338Y379094D01*
X679414Y379186D01*
X679446Y379220D01*
X679451Y379212D01*
X679481Y379184D01*
X679505Y379151D01*
X679596Y379075D01*
X679683Y378994D01*
X679718Y378974D01*
X679750Y378949D01*
X679857Y378898D01*
X679962Y378840D01*
X680001Y378830D01*
X680037Y378813D01*
X680154Y378791D01*
X680270Y378761D01*
X680330Y378757D01*
X680350Y378753D01*
X680370Y378755D01*
X680430Y378751D01*
X688793Y378751D01*
X688329Y377322D01*
X687644Y375979D01*
X686758Y374759D01*
X685642Y373642D01*
X685557Y373533D01*
X685468Y373426D01*
X685459Y373407D01*
X685447Y373391D01*
X685392Y373264D01*
X685332Y373138D01*
X685328Y373118D01*
X685320Y373099D01*
X685298Y372961D01*
X685272Y372825D01*
X685274Y372805D01*
X685271Y372785D01*
X685284Y372646D01*
X685292Y372508D01*
X685298Y372489D01*
X685300Y372469D01*
X685348Y372337D01*
X685390Y372206D01*
X685401Y372188D01*
X685408Y372169D01*
X685486Y372054D01*
X685560Y371937D01*
X685575Y371923D01*
X685587Y371906D01*
X685691Y371814D01*
X685792Y371719D01*
X685810Y371709D01*
X685825Y371696D01*
X685949Y371633D01*
X686071Y371565D01*
X686090Y371560D01*
X686108Y371551D01*
X686244Y371521D01*
X686378Y371486D01*
X686407Y371484D01*
X686419Y371481D01*
X686439Y371482D01*
X686539Y371476D01*
X790558Y371476D01*
X796393Y369059D01*
X800859Y364593D01*
X803276Y358758D01*
X803276Y229352D01*
X803288Y229254D01*
X803291Y229154D01*
X803308Y229096D01*
X803316Y229036D01*
X803352Y228944D01*
X803380Y228849D01*
X803410Y228797D01*
X803433Y228740D01*
X803491Y228660D01*
X803541Y228575D01*
X803607Y228500D01*
X803619Y228483D01*
X803629Y228475D01*
X803647Y228454D01*
X812654Y219447D01*
X812732Y219387D01*
X812805Y219319D01*
X812858Y219290D01*
X812905Y219253D01*
X812996Y219213D01*
X813083Y219165D01*
X813142Y219150D01*
X813197Y219126D01*
X813295Y219111D01*
X813391Y219086D01*
X813491Y219080D01*
X813511Y219076D01*
X813524Y219078D01*
X813552Y219076D01*
X948168Y219076D01*
X948306Y219093D01*
X948444Y219106D01*
X948463Y219113D01*
X948483Y219116D01*
X948613Y219167D01*
X948743Y219214D01*
X948760Y219225D01*
X948779Y219233D01*
X948891Y219314D01*
X949007Y219392D01*
X949020Y219408D01*
X949036Y219419D01*
X949125Y219526D01*
X949217Y219631D01*
X949226Y219649D01*
X949239Y219664D01*
X949298Y219790D01*
X949362Y219914D01*
X949366Y219934D01*
X949375Y219952D01*
X949401Y220088D01*
X949431Y220224D01*
X949431Y220245D01*
X949434Y220264D01*
X949426Y220403D01*
X949422Y220542D01*
X949416Y220562D01*
X949415Y220582D01*
X949372Y220714D01*
X949333Y220848D01*
X949323Y220865D01*
X949317Y220884D01*
X949242Y221002D01*
X949172Y221122D01*
X949153Y221143D01*
X949147Y221153D01*
X949132Y221167D01*
X949065Y221243D01*
X948733Y221575D01*
X947735Y222948D01*
X946964Y224461D01*
X946444Y226061D01*
X963930Y226061D01*
X964048Y226076D01*
X964167Y226083D01*
X964205Y226096D01*
X964245Y226101D01*
X964356Y226144D01*
X964469Y226181D01*
X964503Y226203D01*
X964541Y226218D01*
X964637Y226288D01*
X964738Y226351D01*
X964766Y226381D01*
X964798Y226404D01*
X964874Y226496D01*
X964956Y226583D01*
X964975Y226618D01*
X965001Y226649D01*
X965052Y226757D01*
X965109Y226861D01*
X965120Y226901D01*
X965137Y226937D01*
X965159Y227054D01*
X965189Y227169D01*
X965193Y227230D01*
X965197Y227250D01*
X965195Y227270D01*
X965199Y227330D01*
X965199Y229870D01*
X965184Y229988D01*
X965177Y230107D01*
X965164Y230145D01*
X965159Y230185D01*
X965115Y230296D01*
X965079Y230409D01*
X965057Y230444D01*
X965042Y230481D01*
X964972Y230577D01*
X964909Y230678D01*
X964879Y230706D01*
X964855Y230739D01*
X964764Y230814D01*
X964677Y230896D01*
X964642Y230916D01*
X964610Y230941D01*
X964503Y230992D01*
X964398Y231050D01*
X964359Y231060D01*
X964323Y231077D01*
X964206Y231099D01*
X964091Y231129D01*
X964030Y231133D01*
X964010Y231137D01*
X963990Y231135D01*
X963930Y231139D01*
X946444Y231139D01*
X946964Y232739D01*
X947735Y234252D01*
X948733Y235625D01*
X949933Y236825D01*
X951306Y237823D01*
X951800Y238075D01*
X951874Y238125D01*
X951953Y238167D01*
X952005Y238214D01*
X952063Y238253D01*
X952123Y238320D01*
X952189Y238381D01*
X952227Y238439D01*
X952274Y238492D01*
X952314Y238572D01*
X952364Y238646D01*
X952386Y238713D01*
X952418Y238775D01*
X952438Y238862D01*
X952467Y238947D01*
X952472Y239017D01*
X952488Y239085D01*
X952485Y239175D01*
X952492Y239264D01*
X952480Y239333D01*
X952478Y239403D01*
X952453Y239489D01*
X952438Y239578D01*
X952409Y239641D01*
X952389Y239709D01*
X952344Y239786D01*
X952307Y239867D01*
X952263Y239922D01*
X952228Y239983D01*
X952164Y240046D01*
X952108Y240116D01*
X952052Y240158D01*
X952003Y240208D01*
X951926Y240253D01*
X951854Y240307D01*
X951742Y240362D01*
X951729Y240370D01*
X951723Y240372D01*
X951710Y240378D01*
X948691Y241628D01*
X944586Y245734D01*
X942364Y251097D01*
X942364Y256903D01*
X944586Y262266D01*
X948691Y266372D01*
X951710Y267622D01*
X951787Y267666D01*
X951870Y267702D01*
X951925Y267745D01*
X951986Y267779D01*
X952050Y267842D01*
X952121Y267897D01*
X952164Y267952D01*
X952214Y268001D01*
X952261Y268077D01*
X952316Y268148D01*
X952344Y268212D01*
X952381Y268272D01*
X952407Y268357D01*
X952443Y268440D01*
X952454Y268509D01*
X952474Y268576D01*
X952479Y268665D01*
X952493Y268754D01*
X952486Y268824D01*
X952489Y268893D01*
X952471Y268981D01*
X952463Y269070D01*
X952439Y269136D01*
X952425Y269205D01*
X952386Y269285D01*
X952356Y269370D01*
X952316Y269428D01*
X952285Y269491D01*
X952227Y269559D01*
X952177Y269633D01*
X952125Y269679D01*
X952079Y269733D01*
X952006Y269784D01*
X951939Y269843D01*
X951831Y269907D01*
X951819Y269916D01*
X951813Y269918D01*
X951800Y269925D01*
X951306Y270177D01*
X949933Y271175D01*
X948733Y272375D01*
X947735Y273748D01*
X946964Y275261D01*
X946444Y276861D01*
X963930Y276861D01*
X964048Y276876D01*
X964167Y276883D01*
X964205Y276896D01*
X964245Y276901D01*
X964356Y276944D01*
X964469Y276981D01*
X964503Y277003D01*
X964541Y277018D01*
X964637Y277088D01*
X964738Y277151D01*
X964766Y277181D01*
X964798Y277204D01*
X964874Y277296D01*
X964956Y277383D01*
X964975Y277418D01*
X965001Y277449D01*
X965052Y277557D01*
X965109Y277661D01*
X965120Y277701D01*
X965137Y277737D01*
X965159Y277854D01*
X965189Y277969D01*
X965193Y278030D01*
X965197Y278050D01*
X965195Y278070D01*
X965199Y278130D01*
X965199Y280670D01*
X965184Y280788D01*
X965177Y280907D01*
X965164Y280945D01*
X965159Y280985D01*
X965115Y281096D01*
X965079Y281209D01*
X965057Y281244D01*
X965042Y281281D01*
X964972Y281377D01*
X964909Y281478D01*
X964879Y281506D01*
X964855Y281539D01*
X964764Y281614D01*
X964677Y281696D01*
X964642Y281716D01*
X964610Y281741D01*
X964503Y281792D01*
X964398Y281850D01*
X964359Y281860D01*
X964323Y281877D01*
X964206Y281899D01*
X964091Y281929D01*
X964030Y281933D01*
X964010Y281937D01*
X963990Y281935D01*
X963930Y281939D01*
X946444Y281939D01*
X946964Y283539D01*
X947735Y285052D01*
X948733Y286425D01*
X949933Y287625D01*
X951306Y288623D01*
X951800Y288875D01*
X951874Y288925D01*
X951953Y288967D01*
X952005Y289014D01*
X952063Y289053D01*
X952123Y289120D01*
X952189Y289181D01*
X952227Y289239D01*
X952274Y289292D01*
X952314Y289372D01*
X952364Y289446D01*
X952386Y289513D01*
X952418Y289575D01*
X952438Y289662D01*
X952467Y289747D01*
X952472Y289817D01*
X952488Y289885D01*
X952485Y289975D01*
X952492Y290064D01*
X952480Y290133D01*
X952478Y290203D01*
X952453Y290289D01*
X952438Y290378D01*
X952409Y290441D01*
X952389Y290509D01*
X952344Y290586D01*
X952307Y290667D01*
X952263Y290722D01*
X952228Y290783D01*
X952164Y290846D01*
X952108Y290916D01*
X952052Y290958D01*
X952003Y291008D01*
X951926Y291053D01*
X951854Y291107D01*
X951742Y291162D01*
X951729Y291170D01*
X951723Y291172D01*
X951710Y291178D01*
X948691Y292428D01*
X944586Y296534D01*
X942364Y301897D01*
X942364Y307703D01*
X944586Y313066D01*
X948122Y316603D01*
X948195Y316697D01*
X948274Y316786D01*
X948292Y316822D01*
X948317Y316854D01*
X948364Y316963D01*
X948418Y317069D01*
X948427Y317108D01*
X948443Y317146D01*
X948462Y317263D01*
X948488Y317379D01*
X948487Y317420D01*
X948493Y317460D01*
X948482Y317578D01*
X948478Y317697D01*
X948467Y317736D01*
X948463Y317776D01*
X948423Y317889D01*
X948390Y318003D01*
X948369Y318038D01*
X948356Y318076D01*
X948289Y318174D01*
X948228Y318277D01*
X948189Y318322D01*
X948177Y318339D01*
X948162Y318352D01*
X948122Y318398D01*
X944586Y321934D01*
X942364Y327297D01*
X942364Y333103D01*
X944586Y338466D01*
X948122Y342003D01*
X948195Y342097D01*
X948274Y342186D01*
X948292Y342222D01*
X948317Y342254D01*
X948364Y342363D01*
X948418Y342469D01*
X948427Y342508D01*
X948443Y342546D01*
X948462Y342663D01*
X948488Y342779D01*
X948487Y342820D01*
X948493Y342860D01*
X948482Y342978D01*
X948478Y343097D01*
X948467Y343136D01*
X948463Y343176D01*
X948423Y343289D01*
X948390Y343403D01*
X948369Y343438D01*
X948356Y343476D01*
X948289Y343574D01*
X948228Y343677D01*
X948189Y343722D01*
X948177Y343739D01*
X948162Y343752D01*
X948122Y343798D01*
X944586Y347334D01*
X942364Y352697D01*
X942364Y358503D01*
X944586Y363866D01*
X948122Y367403D01*
X948195Y367497D01*
X948274Y367586D01*
X948292Y367622D01*
X948317Y367654D01*
X948364Y367763D01*
X948418Y367869D01*
X948427Y367908D01*
X948443Y367946D01*
X948462Y368063D01*
X948488Y368179D01*
X948487Y368220D01*
X948493Y368260D01*
X948482Y368378D01*
X948478Y368497D01*
X948467Y368536D01*
X948463Y368576D01*
X948423Y368689D01*
X948390Y368803D01*
X948369Y368838D01*
X948356Y368876D01*
X948289Y368974D01*
X948228Y369077D01*
X948189Y369122D01*
X948177Y369139D01*
X948162Y369152D01*
X948122Y369198D01*
X947106Y370214D01*
X947028Y370274D01*
X946956Y370342D01*
X946903Y370371D01*
X946855Y370408D01*
X946764Y370448D01*
X946677Y370496D01*
X946619Y370511D01*
X946563Y370535D01*
X946465Y370550D01*
X946369Y370575D01*
X946269Y370581D01*
X946249Y370585D01*
X946237Y370583D01*
X946209Y370585D01*
X873037Y370585D01*
X869209Y372171D01*
X843781Y397599D01*
X843687Y397672D01*
X843598Y397751D01*
X843562Y397769D01*
X843530Y397794D01*
X843420Y397841D01*
X843315Y397895D01*
X843275Y397904D01*
X843238Y397920D01*
X843120Y397939D01*
X843004Y397965D01*
X842964Y397964D01*
X842924Y397970D01*
X842805Y397959D01*
X842686Y397955D01*
X842648Y397944D01*
X842607Y397940D01*
X842495Y397900D01*
X842381Y397867D01*
X842346Y397846D01*
X842308Y397833D01*
X842209Y397766D01*
X842107Y397705D01*
X842062Y397665D01*
X842045Y397654D01*
X842031Y397639D01*
X841986Y397599D01*
X839435Y395048D01*
X839012Y394873D01*
X838891Y394804D01*
X838768Y394739D01*
X838753Y394725D01*
X838736Y394715D01*
X838636Y394618D01*
X838533Y394525D01*
X838522Y394508D01*
X838508Y394494D01*
X838435Y394376D01*
X838358Y394259D01*
X838352Y394240D01*
X838341Y394223D01*
X838300Y394090D01*
X838255Y393958D01*
X838254Y393938D01*
X838248Y393919D01*
X838241Y393780D01*
X838230Y393641D01*
X838233Y393621D01*
X838232Y393601D01*
X838261Y393465D01*
X838284Y393328D01*
X838293Y393309D01*
X838297Y393290D01*
X838358Y393165D01*
X838415Y393038D01*
X838428Y393022D01*
X838436Y393004D01*
X838527Y392898D01*
X838614Y392790D01*
X838630Y392777D01*
X838643Y392762D01*
X838756Y392682D01*
X838868Y392598D01*
X838893Y392586D01*
X838903Y392579D01*
X838922Y392572D01*
X839012Y392527D01*
X839435Y392352D01*
X843202Y388585D01*
X845241Y383664D01*
X845241Y378336D01*
X843202Y373415D01*
X839435Y369648D01*
X839012Y369473D01*
X838891Y369404D01*
X838768Y369339D01*
X838753Y369325D01*
X838736Y369315D01*
X838636Y369218D01*
X838533Y369125D01*
X838522Y369108D01*
X838508Y369094D01*
X838435Y368976D01*
X838358Y368859D01*
X838352Y368840D01*
X838341Y368823D01*
X838300Y368690D01*
X838255Y368558D01*
X838254Y368538D01*
X838248Y368519D01*
X838241Y368380D01*
X838230Y368241D01*
X838233Y368221D01*
X838232Y368201D01*
X838261Y368065D01*
X838284Y367928D01*
X838293Y367909D01*
X838297Y367890D01*
X838358Y367765D01*
X838415Y367638D01*
X838428Y367622D01*
X838436Y367604D01*
X838527Y367498D01*
X838614Y367390D01*
X838630Y367377D01*
X838643Y367362D01*
X838756Y367282D01*
X838868Y367198D01*
X838893Y367186D01*
X838903Y367179D01*
X838922Y367172D01*
X839012Y367127D01*
X839435Y366952D01*
X843202Y363185D01*
X845241Y358264D01*
X845241Y352936D01*
X843202Y348015D01*
X839435Y344248D01*
X839012Y344073D01*
X838891Y344004D01*
X838768Y343939D01*
X838753Y343925D01*
X838736Y343915D01*
X838636Y343818D01*
X838533Y343725D01*
X838522Y343708D01*
X838508Y343694D01*
X838435Y343576D01*
X838358Y343459D01*
X838352Y343440D01*
X838341Y343423D01*
X838300Y343290D01*
X838255Y343158D01*
X838254Y343138D01*
X838248Y343119D01*
X838241Y342980D01*
X838230Y342841D01*
X838233Y342821D01*
X838232Y342801D01*
X838261Y342665D01*
X838284Y342528D01*
X838293Y342509D01*
X838297Y342490D01*
X838358Y342365D01*
X838415Y342238D01*
X838428Y342222D01*
X838436Y342204D01*
X838527Y342098D01*
X838614Y341990D01*
X838630Y341977D01*
X838643Y341962D01*
X838756Y341882D01*
X838868Y341798D01*
X838893Y341786D01*
X838903Y341779D01*
X838922Y341772D01*
X839012Y341727D01*
X839435Y341552D01*
X843202Y337785D01*
X845241Y332864D01*
X845241Y327536D01*
X843202Y322615D01*
X839435Y318848D01*
X839012Y318673D01*
X838891Y318604D01*
X838768Y318539D01*
X838753Y318525D01*
X838736Y318515D01*
X838636Y318418D01*
X838533Y318325D01*
X838522Y318308D01*
X838508Y318294D01*
X838435Y318176D01*
X838358Y318059D01*
X838352Y318040D01*
X838341Y318023D01*
X838300Y317890D01*
X838255Y317758D01*
X838254Y317738D01*
X838248Y317719D01*
X838241Y317580D01*
X838230Y317441D01*
X838233Y317421D01*
X838232Y317401D01*
X838261Y317265D01*
X838284Y317128D01*
X838293Y317109D01*
X838297Y317090D01*
X838358Y316965D01*
X838415Y316838D01*
X838428Y316822D01*
X838436Y316804D01*
X838527Y316698D01*
X838614Y316590D01*
X838630Y316577D01*
X838643Y316562D01*
X838756Y316482D01*
X838868Y316398D01*
X838893Y316386D01*
X838903Y316379D01*
X838922Y316372D01*
X839012Y316327D01*
X839435Y316152D01*
X843202Y312385D01*
X845241Y307464D01*
X845241Y302136D01*
X843202Y297215D01*
X840944Y294956D01*
X840870Y294862D01*
X840792Y294773D01*
X840773Y294737D01*
X840749Y294705D01*
X840701Y294595D01*
X840647Y294490D01*
X840638Y294450D01*
X840622Y294413D01*
X840604Y294295D01*
X840578Y294179D01*
X840579Y294139D01*
X840572Y294099D01*
X840584Y293980D01*
X840587Y293861D01*
X840598Y293823D01*
X840602Y293782D01*
X840643Y293670D01*
X840676Y293556D01*
X840696Y293521D01*
X840710Y293483D01*
X840777Y293384D01*
X840837Y293282D01*
X840877Y293237D01*
X840888Y293220D01*
X840904Y293206D01*
X840944Y293161D01*
X845550Y288554D01*
X848011Y282615D01*
X848011Y276185D01*
X845550Y270246D01*
X841004Y265700D01*
X835065Y263239D01*
X828635Y263239D01*
X822696Y265700D01*
X818150Y270246D01*
X815689Y276185D01*
X815689Y282615D01*
X818150Y288554D01*
X822756Y293161D01*
X822830Y293255D01*
X822908Y293344D01*
X822927Y293380D01*
X822951Y293412D01*
X822999Y293522D01*
X823053Y293628D01*
X823062Y293667D01*
X823078Y293704D01*
X823096Y293822D01*
X823122Y293938D01*
X823121Y293978D01*
X823128Y294018D01*
X823116Y294137D01*
X823113Y294256D01*
X823102Y294295D01*
X823098Y294335D01*
X823057Y294447D01*
X823024Y294561D01*
X823004Y294596D01*
X822990Y294634D01*
X822923Y294733D01*
X822863Y294835D01*
X822823Y294881D01*
X822812Y294897D01*
X822796Y294911D01*
X822756Y294956D01*
X820498Y297215D01*
X818459Y302136D01*
X818459Y307464D01*
X820498Y312385D01*
X824265Y316152D01*
X824688Y316327D01*
X824809Y316396D01*
X824932Y316461D01*
X824947Y316475D01*
X824964Y316485D01*
X825064Y316582D01*
X825167Y316675D01*
X825178Y316692D01*
X825193Y316706D01*
X825265Y316824D01*
X825342Y316941D01*
X825348Y316960D01*
X825359Y316977D01*
X825400Y317110D01*
X825445Y317242D01*
X825446Y317262D01*
X825452Y317281D01*
X825459Y317420D01*
X825470Y317559D01*
X825467Y317579D01*
X825468Y317599D01*
X825439Y317735D01*
X825416Y317872D01*
X825407Y317891D01*
X825403Y317910D01*
X825342Y318036D01*
X825285Y318162D01*
X825272Y318178D01*
X825264Y318196D01*
X825173Y318302D01*
X825086Y318411D01*
X825070Y318423D01*
X825057Y318438D01*
X824943Y318518D01*
X824832Y318602D01*
X824807Y318614D01*
X824797Y318621D01*
X824778Y318628D01*
X824688Y318673D01*
X824265Y318848D01*
X820498Y322615D01*
X818459Y327536D01*
X818459Y332864D01*
X820498Y337785D01*
X824265Y341552D01*
X824688Y341727D01*
X824809Y341796D01*
X824932Y341861D01*
X824947Y341875D01*
X824964Y341885D01*
X825064Y341981D01*
X825167Y342075D01*
X825178Y342092D01*
X825193Y342106D01*
X825265Y342224D01*
X825342Y342341D01*
X825348Y342360D01*
X825359Y342377D01*
X825400Y342510D01*
X825445Y342642D01*
X825446Y342662D01*
X825452Y342681D01*
X825459Y342820D01*
X825470Y342959D01*
X825467Y342979D01*
X825468Y342999D01*
X825439Y343135D01*
X825416Y343272D01*
X825407Y343291D01*
X825403Y343310D01*
X825342Y343436D01*
X825285Y343562D01*
X825272Y343578D01*
X825264Y343596D01*
X825173Y343702D01*
X825086Y343811D01*
X825070Y343823D01*
X825057Y343838D01*
X824943Y343918D01*
X824832Y344002D01*
X824807Y344014D01*
X824797Y344021D01*
X824778Y344028D01*
X824688Y344073D01*
X824265Y344248D01*
X820498Y348015D01*
X818459Y352936D01*
X818459Y358264D01*
X820498Y363185D01*
X824265Y366952D01*
X824688Y367127D01*
X824809Y367196D01*
X824932Y367261D01*
X824947Y367275D01*
X824964Y367285D01*
X825064Y367382D01*
X825167Y367475D01*
X825178Y367492D01*
X825193Y367506D01*
X825265Y367624D01*
X825342Y367741D01*
X825348Y367760D01*
X825359Y367777D01*
X825400Y367910D01*
X825445Y368042D01*
X825446Y368062D01*
X825452Y368081D01*
X825459Y368220D01*
X825470Y368359D01*
X825467Y368379D01*
X825468Y368399D01*
X825439Y368535D01*
X825416Y368672D01*
X825407Y368691D01*
X825403Y368710D01*
X825342Y368836D01*
X825285Y368962D01*
X825272Y368978D01*
X825264Y368996D01*
X825173Y369102D01*
X825086Y369211D01*
X825070Y369223D01*
X825057Y369238D01*
X824943Y369318D01*
X824832Y369402D01*
X824807Y369414D01*
X824797Y369421D01*
X824778Y369428D01*
X824688Y369473D01*
X824265Y369648D01*
X820498Y373415D01*
X818459Y378336D01*
X818459Y383664D01*
X820498Y388585D01*
X824265Y392352D01*
X824688Y392527D01*
X824809Y392596D01*
X824932Y392661D01*
X824947Y392675D01*
X824964Y392685D01*
X825064Y392782D01*
X825167Y392875D01*
X825178Y392892D01*
X825193Y392906D01*
X825265Y393024D01*
X825342Y393141D01*
X825348Y393160D01*
X825359Y393177D01*
X825400Y393310D01*
X825445Y393442D01*
X825446Y393462D01*
X825452Y393481D01*
X825459Y393620D01*
X825470Y393759D01*
X825467Y393779D01*
X825468Y393799D01*
X825439Y393935D01*
X825416Y394072D01*
X825407Y394091D01*
X825403Y394110D01*
X825342Y394236D01*
X825285Y394362D01*
X825272Y394378D01*
X825264Y394396D01*
X825173Y394502D01*
X825086Y394611D01*
X825070Y394623D01*
X825057Y394638D01*
X824943Y394718D01*
X824832Y394802D01*
X824807Y394814D01*
X824797Y394821D01*
X824778Y394828D01*
X824688Y394873D01*
X824265Y395048D01*
X820498Y398815D01*
X818459Y403736D01*
X818459Y407344D01*
X818444Y407462D01*
X818437Y407581D01*
X818424Y407619D01*
X818419Y407660D01*
X818376Y407770D01*
X818339Y407883D01*
X818317Y407918D01*
X818302Y407955D01*
X818233Y408051D01*
X818169Y408152D01*
X818139Y408180D01*
X818116Y408213D01*
X818024Y408289D01*
X817937Y408370D01*
X817902Y408390D01*
X817871Y408415D01*
X817763Y408466D01*
X817659Y408524D01*
X817619Y408534D01*
X817583Y408551D01*
X817466Y408573D01*
X817351Y408603D01*
X817291Y408607D01*
X817271Y408611D01*
X817250Y408609D01*
X817190Y408613D01*
X772628Y408613D01*
X768801Y410199D01*
X765871Y413129D01*
X764285Y416956D01*
X764285Y534910D01*
X764273Y535009D01*
X764270Y535108D01*
X764253Y535166D01*
X764245Y535226D01*
X764209Y535318D01*
X764181Y535413D01*
X764151Y535465D01*
X764128Y535522D01*
X764070Y535602D01*
X764020Y535687D01*
X763954Y535762D01*
X763942Y535779D01*
X763932Y535787D01*
X763914Y535808D01*
X694168Y605554D01*
X694128Y605584D01*
X694095Y605621D01*
X694003Y605681D01*
X693916Y605749D01*
X693871Y605768D01*
X693829Y605796D01*
X693725Y605831D01*
X693624Y605875D01*
X693575Y605883D01*
X693528Y605899D01*
X693419Y605908D01*
X693310Y605925D01*
X693261Y605920D01*
X693211Y605924D01*
X693103Y605905D01*
X692994Y605895D01*
X692947Y605878D01*
X692898Y605870D01*
X692798Y605825D01*
X692694Y605787D01*
X692653Y605760D01*
X692608Y605739D01*
X692522Y605671D01*
X692431Y605609D01*
X692398Y605572D01*
X692360Y605541D01*
X692293Y605453D01*
X692221Y605370D01*
X692198Y605326D01*
X692168Y605287D01*
X692097Y605142D01*
X690802Y602015D01*
X687035Y598248D01*
X686612Y598073D01*
X686491Y598004D01*
X686368Y597939D01*
X686353Y597925D01*
X686336Y597915D01*
X686236Y597818D01*
X686133Y597725D01*
X686122Y597708D01*
X686108Y597694D01*
X686035Y597576D01*
X685958Y597459D01*
X685952Y597440D01*
X685941Y597423D01*
X685900Y597290D01*
X685855Y597158D01*
X685854Y597138D01*
X685848Y597119D01*
X685841Y596980D01*
X685830Y596841D01*
X685833Y596821D01*
X685832Y596801D01*
X685861Y596665D01*
X685884Y596528D01*
X685893Y596509D01*
X685897Y596490D01*
X685958Y596365D01*
X686015Y596238D01*
X686028Y596222D01*
X686036Y596204D01*
X686127Y596098D01*
X686214Y595990D01*
X686230Y595977D01*
X686243Y595962D01*
X686356Y595882D01*
X686468Y595798D01*
X686493Y595786D01*
X686503Y595779D01*
X686522Y595772D01*
X686612Y595727D01*
X687035Y595552D01*
X690802Y591785D01*
X692841Y586864D01*
X692841Y581536D01*
X690802Y576615D01*
X687035Y572848D01*
X686612Y572673D01*
X686491Y572604D01*
X686368Y572539D01*
X686353Y572525D01*
X686336Y572515D01*
X686236Y572418D01*
X686133Y572325D01*
X686122Y572308D01*
X686108Y572294D01*
X686035Y572176D01*
X685958Y572059D01*
X685952Y572040D01*
X685941Y572023D01*
X685900Y571890D01*
X685855Y571758D01*
X685854Y571738D01*
X685848Y571719D01*
X685841Y571580D01*
X685830Y571441D01*
X685833Y571421D01*
X685832Y571401D01*
X685861Y571265D01*
X685884Y571128D01*
X685893Y571109D01*
X685897Y571090D01*
X685958Y570965D01*
X686015Y570838D01*
X686028Y570822D01*
X686036Y570804D01*
X686127Y570698D01*
X686214Y570590D01*
X686230Y570577D01*
X686243Y570562D01*
X686356Y570482D01*
X686468Y570398D01*
X686493Y570386D01*
X686503Y570379D01*
X686522Y570372D01*
X686612Y570327D01*
X687035Y570152D01*
X690802Y566385D01*
X692841Y561464D01*
X692841Y556136D01*
X690802Y551215D01*
X687035Y547448D01*
X686612Y547273D01*
X686491Y547204D01*
X686368Y547139D01*
X686353Y547125D01*
X686336Y547115D01*
X686236Y547018D01*
X686133Y546925D01*
X686122Y546908D01*
X686108Y546894D01*
X686035Y546776D01*
X685958Y546659D01*
X685952Y546640D01*
X685941Y546623D01*
X685900Y546490D01*
X685855Y546358D01*
X685854Y546338D01*
X685848Y546319D01*
X685841Y546180D01*
X685830Y546041D01*
X685833Y546021D01*
X685832Y546001D01*
X685861Y545865D01*
X685884Y545728D01*
X685893Y545709D01*
X685897Y545690D01*
X685958Y545565D01*
X686015Y545438D01*
X686028Y545422D01*
X686036Y545404D01*
X686127Y545298D01*
X686214Y545190D01*
X686230Y545177D01*
X686243Y545162D01*
X686356Y545082D01*
X686468Y544998D01*
X686493Y544986D01*
X686503Y544979D01*
X686522Y544972D01*
X686612Y544927D01*
X687035Y544752D01*
X690802Y540985D01*
X692841Y536064D01*
X692841Y530736D01*
X690802Y525815D01*
X687035Y522048D01*
X686612Y521873D01*
X686491Y521804D01*
X686369Y521739D01*
X686354Y521725D01*
X686336Y521715D01*
X686236Y521618D01*
X686133Y521525D01*
X686122Y521508D01*
X686108Y521494D01*
X686035Y521375D01*
X685958Y521259D01*
X685952Y521240D01*
X685941Y521223D01*
X685900Y521090D01*
X685855Y520958D01*
X685854Y520938D01*
X685848Y520919D01*
X685841Y520780D01*
X685830Y520641D01*
X685833Y520621D01*
X685832Y520601D01*
X685861Y520465D01*
X685884Y520328D01*
X685893Y520310D01*
X685897Y520290D01*
X685958Y520165D01*
X686015Y520038D01*
X686028Y520022D01*
X686037Y520004D01*
X686127Y519898D01*
X686214Y519790D01*
X686230Y519777D01*
X686243Y519762D01*
X686356Y519682D01*
X686468Y519598D01*
X686493Y519586D01*
X686503Y519579D01*
X686522Y519572D01*
X686612Y519527D01*
X687035Y519352D01*
X690802Y515585D01*
X692841Y510664D01*
X692841Y505336D01*
X690802Y500415D01*
X687035Y496648D01*
X686612Y496473D01*
X686491Y496404D01*
X686369Y496339D01*
X686354Y496325D01*
X686336Y496315D01*
X686236Y496218D01*
X686133Y496125D01*
X686122Y496108D01*
X686108Y496094D01*
X686035Y495975D01*
X685958Y495859D01*
X685952Y495840D01*
X685941Y495823D01*
X685900Y495690D01*
X685855Y495558D01*
X685854Y495538D01*
X685848Y495519D01*
X685841Y495380D01*
X685830Y495241D01*
X685833Y495221D01*
X685832Y495201D01*
X685861Y495065D01*
X685884Y494928D01*
X685893Y494910D01*
X685897Y494890D01*
X685958Y494765D01*
X686015Y494638D01*
X686028Y494622D01*
X686037Y494604D01*
X686127Y494498D01*
X686214Y494390D01*
X686230Y494377D01*
X686243Y494362D01*
X686356Y494282D01*
X686468Y494198D01*
X686493Y494186D01*
X686503Y494179D01*
X686522Y494172D01*
X686612Y494127D01*
X687035Y493952D01*
X690802Y490185D01*
X692841Y485264D01*
X692841Y479936D01*
X690802Y475015D01*
X687035Y471248D01*
X686612Y471073D01*
X686491Y471004D01*
X686369Y470939D01*
X686354Y470925D01*
X686336Y470915D01*
X686236Y470818D01*
X686133Y470725D01*
X686122Y470708D01*
X686108Y470694D01*
X686035Y470575D01*
X685958Y470459D01*
X685952Y470440D01*
X685941Y470423D01*
X685900Y470290D01*
X685855Y470158D01*
X685854Y470138D01*
X685848Y470119D01*
X685841Y469980D01*
X685830Y469841D01*
X685833Y469821D01*
X685832Y469801D01*
X685861Y469665D01*
X685884Y469528D01*
X685893Y469510D01*
X685897Y469490D01*
X685958Y469365D01*
X686015Y469238D01*
X686028Y469222D01*
X686037Y469204D01*
X686127Y469098D01*
X686214Y468990D01*
X686230Y468977D01*
X686243Y468962D01*
X686356Y468882D01*
X686468Y468798D01*
X686493Y468786D01*
X686503Y468779D01*
X686522Y468772D01*
X686612Y468727D01*
X687035Y468552D01*
X690802Y464785D01*
X692841Y459864D01*
X692841Y454536D01*
X690802Y449615D01*
X687035Y445848D01*
X686612Y445673D01*
X686491Y445604D01*
X686369Y445539D01*
X686354Y445525D01*
X686336Y445515D01*
X686236Y445418D01*
X686133Y445325D01*
X686122Y445308D01*
X686108Y445294D01*
X686035Y445175D01*
X685958Y445059D01*
X685952Y445040D01*
X685941Y445023D01*
X685900Y444890D01*
X685855Y444758D01*
X685854Y444738D01*
X685848Y444719D01*
X685841Y444580D01*
X685830Y444441D01*
X685833Y444421D01*
X685832Y444401D01*
X685861Y444265D01*
X685884Y444128D01*
X685893Y444110D01*
X685897Y444090D01*
X685958Y443965D01*
X686015Y443838D01*
X686028Y443822D01*
X686037Y443804D01*
X686127Y443698D01*
X686214Y443590D01*
X686230Y443577D01*
X686243Y443562D01*
X686356Y443482D01*
X686468Y443398D01*
X686493Y443386D01*
X686503Y443379D01*
X686522Y443372D01*
X686612Y443327D01*
X687035Y443152D01*
X690802Y439385D01*
X692841Y434464D01*
X692841Y429136D01*
X690802Y424215D01*
X687035Y420448D01*
X686612Y420273D01*
X686491Y420204D01*
X686369Y420139D01*
X686354Y420125D01*
X686336Y420115D01*
X686236Y420018D01*
X686133Y419925D01*
X686122Y419908D01*
X686108Y419894D01*
X686035Y419775D01*
X685958Y419659D01*
X685952Y419640D01*
X685941Y419623D01*
X685900Y419490D01*
X685855Y419358D01*
X685854Y419338D01*
X685848Y419319D01*
X685841Y419180D01*
X685830Y419041D01*
X685833Y419021D01*
X685832Y419001D01*
X685861Y418865D01*
X685884Y418728D01*
X685893Y418710D01*
X685897Y418690D01*
X685958Y418565D01*
X686015Y418438D01*
X686028Y418422D01*
X686037Y418404D01*
X686127Y418298D01*
X686214Y418190D01*
X686230Y418177D01*
X686243Y418162D01*
X686356Y418082D01*
X686468Y417998D01*
X686493Y417986D01*
X686503Y417979D01*
X686522Y417972D01*
X686612Y417927D01*
X687035Y417752D01*
X690802Y413985D01*
X692841Y409064D01*
X692841Y403736D01*
X690802Y398815D01*
X687035Y395048D01*
X682114Y393009D01*
X680998Y393009D01*
X680939Y393002D01*
X680879Y393004D01*
X680782Y392982D01*
X680683Y392969D01*
X680627Y392947D01*
X680568Y392934D01*
X680480Y392889D01*
X680387Y392852D01*
X680338Y392817D01*
X680285Y392790D01*
X680210Y392724D01*
X680130Y392666D01*
X680091Y392619D01*
X680046Y392580D01*
X679990Y392497D01*
X679927Y392421D01*
X679901Y392366D01*
X679867Y392317D01*
X679834Y392223D01*
X679791Y392133D01*
X679780Y392074D01*
X679760Y392018D01*
X679750Y391918D01*
X679731Y391821D01*
X679735Y391761D01*
X679729Y391701D01*
X679745Y391603D01*
X679751Y391503D01*
X679770Y391446D01*
X679779Y391387D01*
X679818Y391295D01*
X679849Y391201D01*
X679881Y391150D01*
X679905Y391095D01*
X679966Y391016D01*
X680019Y390932D01*
X680063Y390891D01*
X680100Y390843D01*
X680178Y390782D01*
X680251Y390714D01*
X680303Y390685D01*
X680351Y390648D01*
X680442Y390609D01*
X680529Y390560D01*
X680587Y390545D01*
X680642Y390522D01*
X680800Y390486D01*
X681694Y390345D01*
X683128Y389879D01*
X684471Y389194D01*
X685182Y388678D01*
X685691Y388308D01*
X686758Y387241D01*
X687644Y386021D01*
X688329Y384678D01*
X688793Y383249D01*
X680430Y383249D01*
X680312Y383234D01*
X680193Y383227D01*
X680155Y383214D01*
X680115Y383209D01*
X680004Y383166D01*
X679891Y383129D01*
X679857Y383107D01*
X679819Y383092D01*
X679723Y383023D01*
X679622Y382959D01*
X679594Y382929D01*
X679562Y382906D01*
X679486Y382814D01*
X679454Y382780D01*
X679449Y382788D01*
X679419Y382816D01*
X679395Y382849D01*
X679304Y382925D01*
X679217Y383006D01*
X679182Y383026D01*
X679150Y383051D01*
X679043Y383102D01*
X678938Y383160D01*
X678899Y383170D01*
X678863Y383187D01*
X678746Y383209D01*
X678630Y383239D01*
X678570Y383243D01*
X678550Y383247D01*
X678530Y383245D01*
X678470Y383249D01*
X670107Y383249D01*
X670571Y384678D01*
X671256Y386021D01*
X672142Y387241D01*
X673209Y388308D01*
X674429Y389194D01*
X675772Y389879D01*
X677206Y390345D01*
X678100Y390486D01*
X678158Y390503D01*
X678217Y390511D01*
X678310Y390547D01*
X678406Y390575D01*
X678457Y390606D01*
X678513Y390628D01*
X678594Y390686D01*
X678680Y390737D01*
X678722Y390779D01*
X678770Y390814D01*
X678834Y390891D01*
X678905Y390962D01*
X678935Y391013D01*
X678973Y391059D01*
X679016Y391150D01*
X679067Y391235D01*
X679083Y391293D01*
X679109Y391347D01*
X679128Y391445D01*
X679155Y391541D01*
X679157Y391601D01*
X679169Y391660D01*
X679162Y391759D01*
X679166Y391859D01*
X679153Y391917D01*
X679149Y391977D01*
X679118Y392072D01*
X679096Y392169D01*
X679069Y392222D01*
X679051Y392279D01*
X678998Y392364D01*
X678952Y392453D01*
X678913Y392498D01*
X678881Y392548D01*
X678808Y392616D01*
X678742Y392691D01*
X678693Y392725D01*
X678649Y392766D01*
X678562Y392814D01*
X678479Y392870D01*
X678423Y392891D01*
X678371Y392920D01*
X678274Y392944D01*
X678180Y392978D01*
X678121Y392984D01*
X678063Y392999D01*
X677902Y393009D01*
X676786Y393009D01*
X671865Y395048D01*
X668098Y398815D01*
X666059Y403736D01*
X666059Y409064D01*
X668098Y413985D01*
X671865Y417752D01*
X672288Y417927D01*
X672409Y417996D01*
X672532Y418061D01*
X672546Y418075D01*
X672564Y418085D01*
X672664Y418182D01*
X672767Y418275D01*
X672778Y418292D01*
X672793Y418306D01*
X672865Y418425D01*
X672942Y418541D01*
X672948Y418560D01*
X672959Y418577D01*
X673000Y418710D01*
X673045Y418842D01*
X673046Y418862D01*
X673052Y418881D01*
X673059Y419020D01*
X673070Y419159D01*
X673067Y419179D01*
X673067Y419199D01*
X673039Y419335D01*
X673016Y419472D01*
X673007Y419491D01*
X673003Y419510D01*
X672942Y419635D01*
X672885Y419762D01*
X672872Y419778D01*
X672863Y419796D01*
X672773Y419902D01*
X672686Y420010D01*
X672670Y420023D01*
X672657Y420038D01*
X672543Y420118D01*
X672432Y420202D01*
X672407Y420214D01*
X672397Y420221D01*
X672378Y420228D01*
X672288Y420273D01*
X671865Y420448D01*
X668098Y424215D01*
X666059Y429136D01*
X666059Y434464D01*
X668098Y439385D01*
X671865Y443152D01*
X672288Y443327D01*
X672409Y443396D01*
X672532Y443461D01*
X672546Y443475D01*
X672564Y443485D01*
X672664Y443582D01*
X672767Y443675D01*
X672778Y443692D01*
X672793Y443706D01*
X672865Y443825D01*
X672942Y443941D01*
X672948Y443960D01*
X672959Y443977D01*
X673000Y444110D01*
X673045Y444242D01*
X673046Y444262D01*
X673052Y444281D01*
X673059Y444420D01*
X673070Y444559D01*
X673067Y444579D01*
X673067Y444599D01*
X673039Y444735D01*
X673016Y444872D01*
X673007Y444891D01*
X673003Y444910D01*
X672942Y445035D01*
X672885Y445162D01*
X672872Y445178D01*
X672863Y445196D01*
X672773Y445302D01*
X672686Y445410D01*
X672670Y445423D01*
X672657Y445438D01*
X672543Y445518D01*
X672432Y445602D01*
X672407Y445614D01*
X672397Y445621D01*
X672378Y445628D01*
X672288Y445673D01*
X671865Y445848D01*
X668098Y449615D01*
X666059Y454536D01*
X666059Y459864D01*
X668098Y464785D01*
X671865Y468552D01*
X672288Y468727D01*
X672409Y468796D01*
X672532Y468861D01*
X672546Y468875D01*
X672564Y468885D01*
X672664Y468982D01*
X672767Y469075D01*
X672778Y469092D01*
X672793Y469106D01*
X672865Y469225D01*
X672942Y469341D01*
X672948Y469360D01*
X672959Y469377D01*
X673000Y469510D01*
X673045Y469642D01*
X673046Y469662D01*
X673052Y469681D01*
X673059Y469820D01*
X673070Y469959D01*
X673067Y469979D01*
X673067Y469999D01*
X673039Y470135D01*
X673016Y470272D01*
X673007Y470291D01*
X673003Y470310D01*
X672942Y470435D01*
X672885Y470562D01*
X672872Y470578D01*
X672863Y470596D01*
X672773Y470702D01*
X672686Y470810D01*
X672670Y470823D01*
X672657Y470838D01*
X672543Y470918D01*
X672432Y471002D01*
X672407Y471014D01*
X672397Y471021D01*
X672378Y471028D01*
X672288Y471073D01*
X671865Y471248D01*
X668098Y475015D01*
X666059Y479936D01*
X666059Y485264D01*
X668098Y490185D01*
X671865Y493952D01*
X672288Y494127D01*
X672409Y494196D01*
X672532Y494261D01*
X672546Y494275D01*
X672564Y494285D01*
X672664Y494382D01*
X672767Y494475D01*
X672778Y494492D01*
X672793Y494506D01*
X672865Y494625D01*
X672942Y494741D01*
X672948Y494760D01*
X672959Y494777D01*
X673000Y494910D01*
X673045Y495042D01*
X673046Y495062D01*
X673052Y495081D01*
X673059Y495220D01*
X673070Y495359D01*
X673067Y495379D01*
X673067Y495399D01*
X673039Y495535D01*
X673016Y495672D01*
X673007Y495691D01*
X673003Y495710D01*
X672942Y495835D01*
X672885Y495962D01*
X672872Y495978D01*
X672863Y495996D01*
X672773Y496102D01*
X672686Y496210D01*
X672670Y496223D01*
X672657Y496238D01*
X672543Y496318D01*
X672432Y496402D01*
X672407Y496414D01*
X672397Y496421D01*
X672378Y496428D01*
X672288Y496473D01*
X671865Y496648D01*
X670283Y498230D01*
X670205Y498290D01*
X670133Y498358D01*
X670080Y498387D01*
X670032Y498424D01*
X669941Y498464D01*
X669854Y498512D01*
X669796Y498527D01*
X669740Y498551D01*
X669642Y498566D01*
X669546Y498591D01*
X669446Y498597D01*
X669426Y498601D01*
X669414Y498599D01*
X669386Y498601D01*
X638747Y498601D01*
X638649Y498589D01*
X638550Y498586D01*
X638492Y498569D01*
X638432Y498561D01*
X638339Y498525D01*
X638244Y498497D01*
X638192Y498467D01*
X638136Y498444D01*
X638056Y498386D01*
X637970Y498336D01*
X637895Y498270D01*
X637879Y498258D01*
X637871Y498248D01*
X637850Y498230D01*
X635818Y496198D01*
X635744Y496103D01*
X635666Y496014D01*
X635647Y495978D01*
X635623Y495946D01*
X635575Y495837D01*
X635521Y495731D01*
X635512Y495692D01*
X635496Y495654D01*
X635478Y495537D01*
X635452Y495421D01*
X635453Y495380D01*
X635446Y495340D01*
X635458Y495222D01*
X635461Y495103D01*
X635472Y495064D01*
X635476Y495024D01*
X635517Y494911D01*
X635550Y494797D01*
X635570Y494763D01*
X635584Y494724D01*
X635651Y494626D01*
X635711Y494523D01*
X635751Y494478D01*
X635762Y494461D01*
X635778Y494448D01*
X635818Y494403D01*
X638699Y491521D01*
X641097Y485733D01*
X641097Y479467D01*
X638699Y473679D01*
X634269Y469249D01*
X628481Y466851D01*
X603419Y466851D01*
X597631Y469249D01*
X593201Y473679D01*
X590803Y479467D01*
X590803Y485733D01*
X593201Y491521D01*
X596082Y494403D01*
X596156Y494497D01*
X596234Y494586D01*
X596253Y494622D01*
X596277Y494654D01*
X596325Y494763D01*
X596379Y494869D01*
X596388Y494908D01*
X596404Y494946D01*
X596422Y495063D01*
X596448Y495179D01*
X596447Y495220D01*
X596454Y495260D01*
X596442Y495378D01*
X596439Y495497D01*
X596428Y495536D01*
X596424Y495576D01*
X596383Y495689D01*
X596350Y495803D01*
X596330Y495838D01*
X596316Y495876D01*
X596249Y495974D01*
X596189Y496077D01*
X596149Y496122D01*
X596138Y496139D01*
X596122Y496152D01*
X596082Y496198D01*
X593201Y499079D01*
X590803Y504867D01*
X590803Y511133D01*
X593201Y516921D01*
X597631Y521351D01*
X598845Y521854D01*
X598974Y521927D01*
X599105Y521999D01*
X599112Y522006D01*
X599121Y522011D01*
X599228Y522115D01*
X599337Y522217D01*
X599342Y522226D01*
X599350Y522233D01*
X599427Y522359D01*
X599507Y522485D01*
X599510Y522495D01*
X599516Y522504D01*
X599560Y522646D01*
X599606Y522788D01*
X599606Y522798D01*
X599609Y522808D01*
X599617Y522957D01*
X599626Y523105D01*
X599624Y523115D01*
X599625Y523125D01*
X599594Y523272D01*
X599567Y523417D01*
X599562Y523427D01*
X599560Y523437D01*
X599495Y523571D01*
X599432Y523705D01*
X599425Y523713D01*
X599421Y523723D01*
X599323Y523836D01*
X599229Y523951D01*
X599218Y523960D01*
X599214Y523965D01*
X599202Y523973D01*
X599105Y524053D01*
X598774Y524294D01*
X597446Y525622D01*
X596341Y527143D01*
X595488Y528817D01*
X594907Y530604D01*
X594867Y530861D01*
X614680Y530861D01*
X614798Y530876D01*
X614917Y530883D01*
X614955Y530896D01*
X614995Y530901D01*
X615106Y530944D01*
X615219Y530981D01*
X615253Y531003D01*
X615291Y531018D01*
X615387Y531088D01*
X615488Y531151D01*
X615516Y531181D01*
X615548Y531204D01*
X615624Y531296D01*
X615706Y531383D01*
X615725Y531418D01*
X615751Y531449D01*
X615802Y531557D01*
X615859Y531661D01*
X615870Y531701D01*
X615887Y531737D01*
X615909Y531854D01*
X615939Y531969D01*
X615943Y532030D01*
X615947Y532050D01*
X615945Y532070D01*
X615949Y532130D01*
X615949Y533401D01*
X615951Y533401D01*
X615951Y532130D01*
X615966Y532012D01*
X615973Y531893D01*
X615986Y531855D01*
X615991Y531814D01*
X616035Y531704D01*
X616071Y531591D01*
X616093Y531556D01*
X616108Y531519D01*
X616178Y531423D01*
X616241Y531322D01*
X616271Y531294D01*
X616295Y531261D01*
X616386Y531186D01*
X616473Y531104D01*
X616508Y531084D01*
X616540Y531059D01*
X616647Y531008D01*
X616752Y530950D01*
X616791Y530940D01*
X616827Y530923D01*
X616944Y530901D01*
X617059Y530871D01*
X617120Y530867D01*
X617140Y530863D01*
X617160Y530865D01*
X617220Y530861D01*
X637033Y530861D01*
X636993Y530604D01*
X636412Y528817D01*
X635559Y527143D01*
X634454Y525622D01*
X633126Y524294D01*
X632795Y524053D01*
X632685Y523951D01*
X632576Y523851D01*
X632571Y523843D01*
X632563Y523836D01*
X632483Y523710D01*
X632401Y523586D01*
X632398Y523576D01*
X632393Y523567D01*
X632347Y523426D01*
X632298Y523285D01*
X632297Y523275D01*
X632294Y523265D01*
X632285Y523117D01*
X632273Y522968D01*
X632275Y522958D01*
X632274Y522947D01*
X632302Y522801D01*
X632327Y522654D01*
X632332Y522645D01*
X632334Y522635D01*
X632397Y522500D01*
X632458Y522364D01*
X632464Y522356D01*
X632469Y522347D01*
X632564Y522232D01*
X632657Y522116D01*
X632665Y522110D01*
X632671Y522102D01*
X632791Y522015D01*
X632911Y521925D01*
X632923Y521919D01*
X632928Y521915D01*
X632942Y521909D01*
X633055Y521854D01*
X634269Y521351D01*
X637850Y517770D01*
X637928Y517710D01*
X638000Y517642D01*
X638053Y517613D01*
X638101Y517576D01*
X638192Y517536D01*
X638278Y517488D01*
X638337Y517473D01*
X638393Y517449D01*
X638491Y517434D01*
X638586Y517409D01*
X638686Y517403D01*
X638707Y517399D01*
X638719Y517401D01*
X638747Y517399D01*
X669386Y517399D01*
X669484Y517411D01*
X669583Y517414D01*
X669641Y517431D01*
X669701Y517439D01*
X669793Y517475D01*
X669888Y517503D01*
X669941Y517533D01*
X669997Y517556D01*
X670077Y517614D01*
X670162Y517664D01*
X670238Y517730D01*
X670254Y517742D01*
X670262Y517752D01*
X670283Y517770D01*
X671865Y519352D01*
X672288Y519527D01*
X672409Y519596D01*
X672532Y519661D01*
X672546Y519675D01*
X672564Y519685D01*
X672664Y519782D01*
X672767Y519875D01*
X672778Y519892D01*
X672793Y519906D01*
X672865Y520025D01*
X672942Y520141D01*
X672948Y520160D01*
X672959Y520177D01*
X673000Y520310D01*
X673045Y520442D01*
X673046Y520462D01*
X673052Y520481D01*
X673059Y520620D01*
X673070Y520759D01*
X673067Y520779D01*
X673067Y520799D01*
X673039Y520935D01*
X673016Y521072D01*
X673007Y521091D01*
X673003Y521110D01*
X672942Y521235D01*
X672885Y521362D01*
X672872Y521378D01*
X672863Y521396D01*
X672773Y521502D01*
X672686Y521610D01*
X672670Y521623D01*
X672657Y521638D01*
X672543Y521718D01*
X672432Y521802D01*
X672407Y521814D01*
X672397Y521821D01*
X672378Y521828D01*
X672288Y521873D01*
X671865Y522048D01*
X668098Y525815D01*
X666059Y530736D01*
X666059Y536064D01*
X668098Y540985D01*
X671865Y544752D01*
X672288Y544927D01*
X672409Y544996D01*
X672532Y545061D01*
X672547Y545075D01*
X672564Y545085D01*
X672664Y545182D01*
X672767Y545275D01*
X672778Y545292D01*
X672793Y545306D01*
X672865Y545424D01*
X672942Y545541D01*
X672948Y545560D01*
X672959Y545577D01*
X673000Y545710D01*
X673045Y545842D01*
X673046Y545862D01*
X673052Y545881D01*
X673059Y546020D01*
X673070Y546159D01*
X673067Y546179D01*
X673068Y546199D01*
X673039Y546335D01*
X673016Y546472D01*
X673007Y546491D01*
X673003Y546510D01*
X672942Y546636D01*
X672885Y546762D01*
X672872Y546778D01*
X672864Y546796D01*
X672773Y546902D01*
X672686Y547011D01*
X672670Y547023D01*
X672657Y547038D01*
X672543Y547118D01*
X672432Y547202D01*
X672407Y547214D01*
X672397Y547221D01*
X672378Y547228D01*
X672288Y547273D01*
X671865Y547448D01*
X668098Y551215D01*
X666059Y556136D01*
X666059Y561464D01*
X668098Y566385D01*
X671865Y570152D01*
X672288Y570327D01*
X672409Y570396D01*
X672532Y570461D01*
X672547Y570475D01*
X672564Y570485D01*
X672664Y570582D01*
X672767Y570675D01*
X672778Y570692D01*
X672793Y570706D01*
X672865Y570824D01*
X672942Y570941D01*
X672948Y570960D01*
X672959Y570977D01*
X673000Y571110D01*
X673045Y571242D01*
X673046Y571262D01*
X673052Y571281D01*
X673059Y571420D01*
X673070Y571559D01*
X673067Y571579D01*
X673068Y571599D01*
X673039Y571735D01*
X673016Y571872D01*
X673007Y571891D01*
X673003Y571910D01*
X672942Y572036D01*
X672885Y572162D01*
X672872Y572178D01*
X672864Y572196D01*
X672773Y572302D01*
X672686Y572411D01*
X672670Y572423D01*
X672657Y572438D01*
X672543Y572518D01*
X672432Y572602D01*
X672407Y572614D01*
X672397Y572621D01*
X672378Y572628D01*
X672288Y572673D01*
X671865Y572848D01*
X668098Y576615D01*
X666059Y581536D01*
X666059Y586864D01*
X668098Y591785D01*
X671865Y595552D01*
X672288Y595727D01*
X672409Y595796D01*
X672532Y595861D01*
X672547Y595875D01*
X672564Y595885D01*
X672664Y595982D01*
X672767Y596075D01*
X672778Y596092D01*
X672793Y596106D01*
X672865Y596224D01*
X672942Y596341D01*
X672948Y596360D01*
X672959Y596377D01*
X673000Y596510D01*
X673045Y596642D01*
X673046Y596662D01*
X673052Y596681D01*
X673059Y596820D01*
X673070Y596959D01*
X673067Y596979D01*
X673068Y596999D01*
X673039Y597135D01*
X673016Y597272D01*
X673007Y597291D01*
X673003Y597310D01*
X672942Y597436D01*
X672885Y597562D01*
X672872Y597578D01*
X672864Y597596D01*
X672773Y597702D01*
X672686Y597811D01*
X672670Y597823D01*
X672657Y597838D01*
X672543Y597918D01*
X672432Y598002D01*
X672407Y598014D01*
X672397Y598021D01*
X672378Y598028D01*
X672288Y598073D01*
X671865Y598248D01*
X668098Y602015D01*
X666059Y606936D01*
X666059Y612264D01*
X668098Y617185D01*
X671865Y620952D01*
X672288Y621127D01*
X672409Y621196D01*
X672532Y621261D01*
X672547Y621275D01*
X672564Y621285D01*
X672664Y621382D01*
X672767Y621475D01*
X672778Y621492D01*
X672793Y621506D01*
X672865Y621624D01*
X672942Y621741D01*
X672948Y621760D01*
X672959Y621777D01*
X673000Y621910D01*
X673045Y622042D01*
X673046Y622062D01*
X673052Y622081D01*
X673059Y622220D01*
X673070Y622359D01*
X673067Y622379D01*
X673068Y622399D01*
X673039Y622535D01*
X673016Y622672D01*
X673007Y622691D01*
X673003Y622710D01*
X672942Y622836D01*
X672885Y622962D01*
X672872Y622978D01*
X672864Y622996D01*
X672773Y623102D01*
X672686Y623211D01*
X672670Y623223D01*
X672657Y623238D01*
X672543Y623318D01*
X672432Y623402D01*
X672407Y623414D01*
X672397Y623421D01*
X672378Y623428D01*
X672288Y623473D01*
X671865Y623648D01*
X668098Y627415D01*
X666059Y632336D01*
X666059Y637664D01*
X668098Y642585D01*
X671865Y646352D01*
X672288Y646527D01*
X672409Y646596D01*
X672532Y646661D01*
X672547Y646675D01*
X672564Y646685D01*
X672664Y646782D01*
X672767Y646875D01*
X672778Y646892D01*
X672793Y646906D01*
X672865Y647024D01*
X672942Y647141D01*
X672948Y647160D01*
X672959Y647177D01*
X673000Y647310D01*
X673045Y647442D01*
X673046Y647462D01*
X673052Y647481D01*
X673059Y647620D01*
X673070Y647759D01*
X673067Y647779D01*
X673068Y647799D01*
X673039Y647935D01*
X673016Y648072D01*
X673007Y648091D01*
X673003Y648110D01*
X672942Y648236D01*
X672885Y648362D01*
X672872Y648378D01*
X672864Y648396D01*
X672773Y648502D01*
X672686Y648611D01*
X672670Y648623D01*
X672657Y648638D01*
X672543Y648718D01*
X672432Y648802D01*
X672407Y648814D01*
X672397Y648821D01*
X672378Y648828D01*
X672288Y648873D01*
X671865Y649048D01*
X668098Y652815D01*
X666059Y657736D01*
X666059Y663064D01*
X668098Y667985D01*
X671865Y671752D01*
X672288Y671927D01*
X672409Y671996D01*
X672532Y672061D01*
X672547Y672075D01*
X672564Y672085D01*
X672664Y672182D01*
X672767Y672275D01*
X672778Y672292D01*
X672793Y672306D01*
X672865Y672424D01*
X672942Y672541D01*
X672948Y672560D01*
X672959Y672577D01*
X673000Y672710D01*
X673045Y672842D01*
X673046Y672862D01*
X673052Y672881D01*
X673059Y673020D01*
X673070Y673159D01*
X673067Y673179D01*
X673068Y673199D01*
X673039Y673335D01*
X673016Y673472D01*
X673007Y673491D01*
X673003Y673510D01*
X672942Y673636D01*
X672885Y673762D01*
X672872Y673778D01*
X672864Y673796D01*
X672773Y673902D01*
X672686Y674011D01*
X672670Y674023D01*
X672657Y674038D01*
X672543Y674118D01*
X672432Y674202D01*
X672407Y674214D01*
X672397Y674221D01*
X672378Y674228D01*
X672288Y674273D01*
X671865Y674448D01*
X668098Y678215D01*
X666059Y683136D01*
X666059Y688464D01*
X668098Y693385D01*
X671865Y697152D01*
X672288Y697327D01*
X672409Y697396D01*
X672532Y697461D01*
X672547Y697475D01*
X672564Y697485D01*
X672664Y697582D01*
X672767Y697675D01*
X672778Y697692D01*
X672793Y697706D01*
X672865Y697824D01*
X672942Y697941D01*
X672948Y697960D01*
X672959Y697977D01*
X673000Y698110D01*
X673045Y698242D01*
X673046Y698262D01*
X673052Y698281D01*
X673059Y698420D01*
X673070Y698559D01*
X673067Y698579D01*
X673068Y698599D01*
X673039Y698735D01*
X673016Y698872D01*
X673007Y698891D01*
X673003Y698910D01*
X672942Y699036D01*
X672885Y699162D01*
X672872Y699178D01*
X672864Y699196D01*
X672773Y699302D01*
X672686Y699411D01*
X672670Y699423D01*
X672657Y699438D01*
X672543Y699518D01*
X672432Y699602D01*
X672407Y699614D01*
X672397Y699621D01*
X672378Y699628D01*
X672288Y699673D01*
X671865Y699848D01*
X668098Y703615D01*
X666059Y708536D01*
X666059Y713864D01*
X668098Y718785D01*
X670356Y721044D01*
X670430Y721138D01*
X670508Y721227D01*
X670527Y721263D01*
X670551Y721295D01*
X670599Y721405D01*
X670653Y721510D01*
X670662Y721550D01*
X670678Y721587D01*
X670696Y721705D01*
X670722Y721821D01*
X670721Y721861D01*
X670728Y721901D01*
X670716Y722020D01*
X670713Y722139D01*
X670702Y722177D01*
X670698Y722218D01*
X670657Y722330D01*
X670624Y722444D01*
X670604Y722479D01*
X670590Y722517D01*
X670523Y722616D01*
X670463Y722718D01*
X670423Y722763D01*
X670412Y722780D01*
X670396Y722794D01*
X670356Y722839D01*
X665750Y727446D01*
X663289Y733385D01*
X663289Y739815D01*
X665750Y745754D01*
X670296Y750300D01*
X676235Y752761D01*
X682665Y752761D01*
X688604Y750300D01*
X693150Y745754D01*
X695611Y739815D01*
X695611Y733385D01*
X693150Y727446D01*
X688544Y722839D01*
X688470Y722745D01*
X688392Y722656D01*
X688373Y722620D01*
X688349Y722588D01*
X688301Y722478D01*
X688247Y722372D01*
X688238Y722333D01*
X688222Y722296D01*
X688204Y722178D01*
X688178Y722062D01*
X688179Y722022D01*
X688172Y721982D01*
X688184Y721863D01*
X688187Y721744D01*
X688198Y721705D01*
X688202Y721665D01*
X688243Y721553D01*
X688276Y721439D01*
X688296Y721404D01*
X688310Y721366D01*
X688377Y721267D01*
X688437Y721165D01*
X688477Y721119D01*
X688488Y721103D01*
X688504Y721089D01*
X688544Y721044D01*
X690802Y718785D01*
X692841Y713864D01*
X692841Y708536D01*
X690802Y703615D01*
X687035Y699848D01*
X686612Y699673D01*
X686491Y699604D01*
X686368Y699539D01*
X686353Y699525D01*
X686336Y699515D01*
X686236Y699418D01*
X686133Y699325D01*
X686122Y699308D01*
X686108Y699294D01*
X686035Y699176D01*
X685958Y699059D01*
X685952Y699040D01*
X685941Y699023D01*
X685900Y698890D01*
X685855Y698758D01*
X685854Y698738D01*
X685848Y698719D01*
X685841Y698580D01*
X685830Y698441D01*
X685833Y698421D01*
X685832Y698401D01*
X685861Y698265D01*
X685884Y698128D01*
X685893Y698109D01*
X685897Y698090D01*
X685958Y697965D01*
X686015Y697838D01*
X686028Y697822D01*
X686036Y697804D01*
X686127Y697698D01*
X686214Y697590D01*
X686230Y697577D01*
X686243Y697562D01*
X686356Y697482D01*
X686468Y697398D01*
X686493Y697386D01*
X686503Y697379D01*
X686522Y697372D01*
X686612Y697327D01*
X687035Y697152D01*
X690802Y693385D01*
X692841Y688464D01*
X692841Y683136D01*
X690802Y678215D01*
X687035Y674448D01*
X686612Y674273D01*
X686491Y674204D01*
X686368Y674139D01*
X686353Y674125D01*
X686336Y674115D01*
X686236Y674018D01*
X686133Y673925D01*
X686122Y673908D01*
X686108Y673894D01*
X686035Y673776D01*
X685958Y673659D01*
X685952Y673640D01*
X685941Y673623D01*
X685900Y673490D01*
X685855Y673358D01*
X685854Y673338D01*
X685848Y673319D01*
X685841Y673180D01*
X685830Y673041D01*
X685833Y673021D01*
X685832Y673001D01*
X685861Y672865D01*
X685884Y672728D01*
X685893Y672709D01*
X685897Y672690D01*
X685958Y672565D01*
X686015Y672438D01*
X686028Y672422D01*
X686036Y672404D01*
X686127Y672298D01*
X686214Y672190D01*
X686230Y672177D01*
X686243Y672162D01*
X686356Y672082D01*
X686468Y671998D01*
X686493Y671986D01*
X686503Y671979D01*
X686522Y671972D01*
X686612Y671927D01*
X687035Y671752D01*
X690802Y667985D01*
X692841Y663064D01*
X692841Y657736D01*
X690802Y652815D01*
X687035Y649048D01*
X686612Y648873D01*
X686491Y648804D01*
X686368Y648739D01*
X686353Y648725D01*
X686336Y648715D01*
X686236Y648618D01*
X686133Y648525D01*
X686122Y648508D01*
X686108Y648494D01*
X686035Y648376D01*
X685958Y648259D01*
X685952Y648240D01*
X685941Y648223D01*
X685900Y648090D01*
X685855Y647958D01*
X685854Y647938D01*
X685848Y647919D01*
X685841Y647780D01*
X685830Y647641D01*
X685833Y647621D01*
X685832Y647601D01*
X685861Y647465D01*
X685884Y647328D01*
X685893Y647309D01*
X685897Y647290D01*
X685958Y647165D01*
X686015Y647038D01*
X686028Y647022D01*
X686036Y647004D01*
X686127Y646898D01*
X686214Y646790D01*
X686230Y646777D01*
X686243Y646762D01*
X686356Y646682D01*
X686468Y646598D01*
X686493Y646586D01*
X686503Y646579D01*
X686522Y646572D01*
X686612Y646527D01*
X687035Y646352D01*
X690802Y642585D01*
X692841Y637664D01*
X692841Y636864D01*
X692853Y636765D01*
X692856Y636666D01*
X692873Y636608D01*
X692881Y636548D01*
X692917Y636456D01*
X692945Y636361D01*
X692975Y636309D01*
X692998Y636252D01*
X693056Y636172D01*
X693106Y636087D01*
X693172Y636012D01*
X693184Y635995D01*
X693194Y635987D01*
X693212Y635966D01*
X783529Y545649D01*
X785115Y541822D01*
X785115Y430712D01*
X785130Y430594D01*
X785137Y430475D01*
X785150Y430437D01*
X785155Y430396D01*
X785198Y430286D01*
X785235Y430173D01*
X785257Y430138D01*
X785272Y430101D01*
X785341Y430005D01*
X785405Y429904D01*
X785435Y429876D01*
X785458Y429843D01*
X785550Y429767D01*
X785637Y429686D01*
X785672Y429666D01*
X785703Y429641D01*
X785811Y429590D01*
X785915Y429532D01*
X785955Y429522D01*
X785991Y429505D01*
X786108Y429483D01*
X786223Y429453D01*
X786283Y429449D01*
X786303Y429445D01*
X786324Y429447D01*
X786384Y429443D01*
X821037Y429443D01*
X821096Y429450D01*
X821156Y429448D01*
X821253Y429470D01*
X821353Y429483D01*
X821408Y429505D01*
X821466Y429518D01*
X821532Y429551D01*
X830870Y429551D01*
X830988Y429566D01*
X831107Y429573D01*
X831145Y429585D01*
X831185Y429591D01*
X831296Y429634D01*
X831409Y429671D01*
X831443Y429693D01*
X831481Y429708D01*
X831577Y429777D01*
X831678Y429841D01*
X831706Y429871D01*
X831738Y429894D01*
X831814Y429986D01*
X831846Y430020D01*
X831851Y430012D01*
X831881Y429984D01*
X831905Y429951D01*
X831996Y429875D01*
X832083Y429794D01*
X832118Y429774D01*
X832150Y429749D01*
X832257Y429698D01*
X832362Y429640D01*
X832401Y429630D01*
X832437Y429613D01*
X832554Y429591D01*
X832670Y429561D01*
X832730Y429557D01*
X832750Y429553D01*
X832770Y429555D01*
X832830Y429551D01*
X841206Y429551D01*
X841205Y429515D01*
X841194Y429387D01*
X841200Y429357D01*
X841199Y429326D01*
X841227Y429200D01*
X841249Y429073D01*
X841261Y429046D01*
X841268Y429016D01*
X841326Y428901D01*
X841379Y428783D01*
X841398Y428760D01*
X841412Y428732D01*
X841497Y428636D01*
X841578Y428535D01*
X841602Y428517D01*
X841623Y428494D01*
X841729Y428421D01*
X841832Y428344D01*
X841871Y428324D01*
X841885Y428315D01*
X841906Y428308D01*
X841977Y428273D01*
X842980Y427857D01*
X879051Y391786D01*
X879129Y391726D01*
X879201Y391658D01*
X879254Y391629D01*
X879302Y391592D01*
X879393Y391552D01*
X879480Y391504D01*
X879538Y391489D01*
X879594Y391465D01*
X879692Y391450D01*
X879788Y391425D01*
X879888Y391419D01*
X879908Y391415D01*
X879920Y391417D01*
X879948Y391415D01*
X946209Y391415D01*
X946307Y391427D01*
X946406Y391430D01*
X946464Y391447D01*
X946524Y391455D01*
X946616Y391491D01*
X946711Y391519D01*
X946763Y391549D01*
X946820Y391572D01*
X946900Y391630D01*
X946985Y391680D01*
X947061Y391746D01*
X947077Y391758D01*
X947085Y391768D01*
X947106Y391786D01*
X948122Y392802D01*
X948195Y392897D01*
X948274Y392986D01*
X948292Y393022D01*
X948317Y393054D01*
X948364Y393163D01*
X948418Y393269D01*
X948427Y393308D01*
X948443Y393346D01*
X948462Y393463D01*
X948488Y393579D01*
X948487Y393620D01*
X948493Y393660D01*
X948482Y393778D01*
X948478Y393897D01*
X948467Y393936D01*
X948463Y393976D01*
X948423Y394089D01*
X948390Y394203D01*
X948369Y394237D01*
X948356Y394276D01*
X948289Y394374D01*
X948228Y394477D01*
X948189Y394522D01*
X948177Y394539D01*
X948162Y394552D01*
X948122Y394597D01*
X944586Y398134D01*
X942364Y403497D01*
X942364Y409303D01*
X944586Y414666D01*
X948122Y418203D01*
X948195Y418297D01*
X948274Y418386D01*
X948292Y418422D01*
X948317Y418454D01*
X948364Y418563D01*
X948418Y418669D01*
X948427Y418708D01*
X948443Y418746D01*
X948462Y418863D01*
X948488Y418979D01*
X948487Y419020D01*
X948493Y419060D01*
X948482Y419178D01*
X948478Y419297D01*
X948467Y419336D01*
X948463Y419376D01*
X948423Y419489D01*
X948390Y419603D01*
X948369Y419638D01*
X948356Y419676D01*
X948289Y419774D01*
X948228Y419877D01*
X948189Y419922D01*
X948177Y419939D01*
X948162Y419952D01*
X948122Y419998D01*
X944586Y423534D01*
X942364Y428897D01*
X942364Y434703D01*
X944586Y440066D01*
X948122Y443603D01*
X948195Y443697D01*
X948274Y443786D01*
X948292Y443822D01*
X948317Y443854D01*
X948364Y443963D01*
X948418Y444069D01*
X948427Y444108D01*
X948443Y444146D01*
X948462Y444263D01*
X948488Y444379D01*
X948487Y444420D01*
X948493Y444460D01*
X948482Y444578D01*
X948478Y444697D01*
X948467Y444736D01*
X948463Y444776D01*
X948423Y444889D01*
X948390Y445003D01*
X948369Y445038D01*
X948356Y445076D01*
X948289Y445174D01*
X948228Y445277D01*
X948189Y445322D01*
X948177Y445339D01*
X948162Y445352D01*
X948122Y445398D01*
X944586Y448934D01*
X942364Y454297D01*
X942364Y460103D01*
X944586Y465466D01*
X948691Y469572D01*
X954055Y471793D01*
X976345Y471793D01*
X981709Y469572D01*
X985814Y465466D01*
X988036Y460103D01*
X988036Y454297D01*
X985814Y448934D01*
X982278Y445398D01*
X982205Y445303D01*
X982126Y445214D01*
X982108Y445178D01*
X982083Y445146D01*
X982036Y445037D01*
X981982Y444931D01*
X981973Y444892D01*
X981957Y444854D01*
X981938Y444737D01*
X981912Y444621D01*
X981913Y444580D01*
X981907Y444540D01*
X981918Y444422D01*
X981922Y444303D01*
X981933Y444264D01*
X981937Y444224D01*
X981977Y444111D01*
X982010Y443997D01*
X982031Y443963D01*
X982044Y443924D01*
X982111Y443826D01*
X982172Y443723D01*
X982211Y443678D01*
X982223Y443661D01*
X982238Y443648D01*
X982278Y443603D01*
X985814Y440066D01*
X988036Y434703D01*
X988036Y428897D01*
X985814Y423534D01*
X982278Y419998D01*
X982205Y419903D01*
X982126Y419814D01*
X982108Y419778D01*
X982083Y419746D01*
X982036Y419637D01*
X981982Y419531D01*
X981973Y419492D01*
X981957Y419454D01*
X981938Y419337D01*
X981912Y419221D01*
X981913Y419180D01*
X981907Y419140D01*
X981918Y419022D01*
X981922Y418903D01*
X981933Y418864D01*
X981937Y418824D01*
X981977Y418711D01*
X982010Y418597D01*
X982031Y418563D01*
X982044Y418524D01*
X982111Y418426D01*
X982172Y418323D01*
X982211Y418278D01*
X982223Y418261D01*
X982238Y418248D01*
X982278Y418203D01*
X985814Y414666D01*
X988036Y409303D01*
X988036Y403497D01*
X985814Y398134D01*
X982278Y394597D01*
X982205Y394503D01*
X982126Y394414D01*
X982108Y394378D01*
X982083Y394346D01*
X982036Y394237D01*
X981982Y394131D01*
X981973Y394092D01*
X981957Y394054D01*
X981938Y393937D01*
X981912Y393821D01*
X981913Y393780D01*
X981907Y393740D01*
X981918Y393622D01*
X981922Y393503D01*
X981933Y393464D01*
X981937Y393424D01*
X981977Y393311D01*
X982010Y393197D01*
X982031Y393162D01*
X982044Y393124D01*
X982111Y393026D01*
X982172Y392923D01*
X982211Y392878D01*
X982223Y392861D01*
X982238Y392848D01*
X982278Y392802D01*
X985814Y389266D01*
X988036Y383903D01*
X988036Y378097D01*
X985814Y372734D01*
X982278Y369198D01*
X982205Y369103D01*
X982126Y369014D01*
X982108Y368978D01*
X982083Y368946D01*
X982036Y368837D01*
X981982Y368731D01*
X981973Y368692D01*
X981957Y368654D01*
X981938Y368537D01*
X981912Y368421D01*
X981913Y368380D01*
X981907Y368340D01*
X981918Y368222D01*
X981922Y368103D01*
X981933Y368064D01*
X981937Y368024D01*
X981977Y367911D01*
X982010Y367797D01*
X982031Y367763D01*
X982044Y367724D01*
X982111Y367626D01*
X982172Y367523D01*
X982211Y367478D01*
X982223Y367461D01*
X982238Y367448D01*
X982278Y367403D01*
X985814Y363866D01*
X988036Y358503D01*
X988036Y352697D01*
X985814Y347334D01*
X982278Y343798D01*
X982205Y343703D01*
X982126Y343614D01*
X982108Y343578D01*
X982083Y343546D01*
X982036Y343437D01*
X981982Y343331D01*
X981973Y343292D01*
X981957Y343254D01*
X981938Y343137D01*
X981912Y343021D01*
X981913Y342980D01*
X981907Y342940D01*
X981918Y342822D01*
X981922Y342703D01*
X981933Y342664D01*
X981937Y342624D01*
X981977Y342511D01*
X982010Y342397D01*
X982031Y342363D01*
X982044Y342324D01*
X982111Y342226D01*
X982172Y342123D01*
X982211Y342078D01*
X982223Y342061D01*
X982238Y342048D01*
X982278Y342003D01*
X985814Y338466D01*
X988036Y333103D01*
X988036Y327297D01*
X985814Y321934D01*
X982278Y318398D01*
X982205Y318303D01*
X982126Y318214D01*
X982108Y318178D01*
X982083Y318146D01*
X982036Y318037D01*
X981982Y317931D01*
X981973Y317892D01*
X981957Y317854D01*
X981938Y317737D01*
X981912Y317621D01*
X981913Y317580D01*
X981907Y317540D01*
X981918Y317422D01*
X981922Y317303D01*
X981933Y317264D01*
X981937Y317224D01*
X981977Y317111D01*
X982010Y316997D01*
X982031Y316963D01*
X982044Y316924D01*
X982111Y316826D01*
X982172Y316723D01*
X982211Y316678D01*
X982223Y316661D01*
X982238Y316648D01*
X982278Y316603D01*
X985814Y313066D01*
X988036Y307703D01*
X988036Y301897D01*
X985814Y296534D01*
X981709Y292428D01*
X978690Y291178D01*
X978613Y291134D01*
X978530Y291098D01*
X978475Y291055D01*
X978414Y291021D01*
X978350Y290958D01*
X978279Y290903D01*
X978236Y290848D01*
X978186Y290799D01*
X978139Y290723D01*
X978084Y290652D01*
X978056Y290588D01*
X978019Y290528D01*
X977993Y290443D01*
X977957Y290360D01*
X977946Y290291D01*
X977926Y290224D01*
X977921Y290135D01*
X977907Y290046D01*
X977914Y289976D01*
X977911Y289907D01*
X977929Y289819D01*
X977937Y289730D01*
X977961Y289664D01*
X977975Y289595D01*
X978014Y289515D01*
X978044Y289430D01*
X978084Y289372D01*
X978115Y289309D01*
X978173Y289241D01*
X978223Y289167D01*
X978275Y289121D01*
X978321Y289067D01*
X978394Y289016D01*
X978461Y288957D01*
X978569Y288893D01*
X978581Y288884D01*
X978587Y288882D01*
X978600Y288875D01*
X979094Y288623D01*
X980467Y287625D01*
X981667Y286425D01*
X982665Y285052D01*
X983436Y283539D01*
X983956Y281939D01*
X966470Y281939D01*
X966352Y281924D01*
X966233Y281917D01*
X966195Y281904D01*
X966155Y281899D01*
X966044Y281856D01*
X965931Y281819D01*
X965897Y281797D01*
X965859Y281782D01*
X965763Y281712D01*
X965662Y281649D01*
X965634Y281619D01*
X965602Y281595D01*
X965526Y281504D01*
X965444Y281417D01*
X965425Y281382D01*
X965399Y281351D01*
X965348Y281243D01*
X965291Y281139D01*
X965280Y281099D01*
X965263Y281063D01*
X965241Y280946D01*
X965211Y280831D01*
X965207Y280770D01*
X965203Y280750D01*
X965205Y280730D01*
X965201Y280670D01*
X965201Y278130D01*
X965216Y278012D01*
X965223Y277893D01*
X965236Y277855D01*
X965241Y277814D01*
X965285Y277704D01*
X965321Y277591D01*
X965343Y277556D01*
X965358Y277519D01*
X965428Y277423D01*
X965491Y277322D01*
X965521Y277294D01*
X965545Y277261D01*
X965636Y277186D01*
X965723Y277104D01*
X965758Y277084D01*
X965790Y277059D01*
X965897Y277008D01*
X966002Y276950D01*
X966041Y276940D01*
X966077Y276923D01*
X966194Y276901D01*
X966309Y276871D01*
X966370Y276867D01*
X966390Y276863D01*
X966410Y276865D01*
X966470Y276861D01*
X983956Y276861D01*
X983436Y275261D01*
X982665Y273748D01*
X981667Y272375D01*
X980467Y271175D01*
X979094Y270177D01*
X978600Y269925D01*
X978526Y269875D01*
X978447Y269833D01*
X978395Y269786D01*
X978337Y269747D01*
X978277Y269680D01*
X978211Y269619D01*
X978173Y269561D01*
X978126Y269508D01*
X978086Y269428D01*
X978036Y269354D01*
X978014Y269287D01*
X977982Y269225D01*
X977962Y269138D01*
X977933Y269053D01*
X977928Y268983D01*
X977912Y268915D01*
X977915Y268825D01*
X977908Y268736D01*
X977920Y268667D01*
X977922Y268597D01*
X977947Y268511D01*
X977962Y268422D01*
X977991Y268359D01*
X978011Y268291D01*
X978056Y268214D01*
X978093Y268133D01*
X978137Y268078D01*
X978172Y268017D01*
X978236Y267954D01*
X978292Y267884D01*
X978348Y267842D01*
X978397Y267792D01*
X978474Y267747D01*
X978546Y267693D01*
X978658Y267638D01*
X978671Y267630D01*
X978677Y267628D01*
X978690Y267622D01*
X981709Y266372D01*
X985814Y262266D01*
X988036Y256903D01*
X988036Y251097D01*
X985814Y245734D01*
X981709Y241628D01*
X978690Y240378D01*
X978613Y240334D01*
X978530Y240298D01*
X978475Y240255D01*
X978414Y240221D01*
X978350Y240158D01*
X978279Y240103D01*
X978236Y240048D01*
X978186Y239999D01*
X978139Y239923D01*
X978084Y239852D01*
X978056Y239788D01*
X978019Y239728D01*
X977993Y239643D01*
X977957Y239560D01*
X977946Y239491D01*
X977926Y239424D01*
X977921Y239335D01*
X977907Y239246D01*
X977914Y239176D01*
X977911Y239107D01*
X977929Y239019D01*
X977937Y238930D01*
X977961Y238864D01*
X977975Y238795D01*
X978014Y238715D01*
X978044Y238630D01*
X978084Y238572D01*
X978115Y238509D01*
X978173Y238441D01*
X978223Y238367D01*
X978275Y238321D01*
X978321Y238267D01*
X978394Y238216D01*
X978461Y238157D01*
X978569Y238093D01*
X978581Y238084D01*
X978587Y238082D01*
X978600Y238075D01*
X979094Y237823D01*
X980467Y236825D01*
X981667Y235625D01*
X982665Y234252D01*
X983436Y232739D01*
X983956Y231139D01*
X966470Y231139D01*
X966352Y231124D01*
X966233Y231117D01*
X966195Y231104D01*
X966155Y231099D01*
X966044Y231056D01*
X965931Y231019D01*
X965897Y230997D01*
X965859Y230982D01*
X965763Y230912D01*
X965662Y230849D01*
X965634Y230819D01*
X965602Y230795D01*
X965526Y230704D01*
X965444Y230617D01*
X965425Y230582D01*
X965399Y230551D01*
X965348Y230443D01*
X965291Y230339D01*
X965280Y230299D01*
X965263Y230263D01*
X965241Y230146D01*
X965211Y230031D01*
X965207Y229970D01*
X965203Y229950D01*
X965205Y229930D01*
X965201Y229870D01*
X965201Y227330D01*
X965216Y227212D01*
X965223Y227093D01*
X965236Y227055D01*
X965241Y227014D01*
X965285Y226904D01*
X965321Y226791D01*
X965343Y226756D01*
X965358Y226719D01*
X965428Y226623D01*
X965491Y226522D01*
X965521Y226494D01*
X965545Y226461D01*
X965636Y226386D01*
X965723Y226304D01*
X965758Y226284D01*
X965790Y226259D01*
X965897Y226208D01*
X966002Y226150D01*
X966041Y226140D01*
X966077Y226123D01*
X966194Y226101D01*
X966309Y226071D01*
X966370Y226067D01*
X966390Y226063D01*
X966410Y226065D01*
X966470Y226061D01*
X983956Y226061D01*
X983436Y224461D01*
X982665Y222948D01*
X981667Y221575D01*
X981335Y221243D01*
X981250Y221133D01*
X981161Y221026D01*
X981152Y221007D01*
X981140Y220991D01*
X981085Y220864D01*
X981025Y220738D01*
X981022Y220718D01*
X981013Y220699D01*
X980992Y220562D01*
X980966Y220425D01*
X980967Y220405D01*
X980964Y220385D01*
X980977Y220246D01*
X980985Y220108D01*
X980992Y220089D01*
X980993Y220069D01*
X981041Y219937D01*
X981083Y219806D01*
X981094Y219789D01*
X981101Y219769D01*
X981179Y219654D01*
X981253Y219537D01*
X981268Y219523D01*
X981280Y219506D01*
X981384Y219414D01*
X981485Y219319D01*
X981503Y219309D01*
X981518Y219296D01*
X981642Y219232D01*
X981764Y219165D01*
X981783Y219160D01*
X981801Y219151D01*
X981937Y219121D01*
X982072Y219086D01*
X982100Y219084D01*
X982112Y219081D01*
X982132Y219082D01*
X982232Y219076D01*
X1424956Y219076D01*
X1424966Y219077D01*
X1424975Y219076D01*
X1425124Y219097D01*
X1425272Y219116D01*
X1425281Y219119D01*
X1425290Y219120D01*
X1425442Y219172D01*
X1432150Y221951D01*
X1463450Y221951D01*
X1470195Y219157D01*
X1475357Y213995D01*
X1478151Y207250D01*
X1478151Y199950D01*
X1475357Y193205D01*
X1470195Y188043D01*
X1463450Y185249D01*
X1432150Y185249D01*
G37*
%LPD*%
%LPC*%
G36*
X1295399Y355599D02*
X1295399Y355599D01*
X1295399Y356870D01*
X1295384Y356988D01*
X1295377Y357107D01*
X1295364Y357145D01*
X1295359Y357185D01*
X1295315Y357296D01*
X1295279Y357409D01*
X1295257Y357444D01*
X1295242Y357481D01*
X1295172Y357577D01*
X1295109Y357678D01*
X1295079Y357706D01*
X1295055Y357739D01*
X1294964Y357814D01*
X1294877Y357896D01*
X1294842Y357916D01*
X1294810Y357941D01*
X1294703Y357992D01*
X1294598Y358050D01*
X1294559Y358060D01*
X1294523Y358077D01*
X1294406Y358099D01*
X1294291Y358129D01*
X1294230Y358133D01*
X1294210Y358137D01*
X1294190Y358135D01*
X1294130Y358139D01*
X1276644Y358139D01*
X1277164Y359739D01*
X1277935Y361252D01*
X1278933Y362625D01*
X1280133Y363825D01*
X1281506Y364823D01*
X1282000Y365075D01*
X1282074Y365125D01*
X1282153Y365167D01*
X1282205Y365214D01*
X1282263Y365253D01*
X1282323Y365320D01*
X1282389Y365381D01*
X1282427Y365439D01*
X1282474Y365492D01*
X1282514Y365572D01*
X1282563Y365646D01*
X1282586Y365713D01*
X1282618Y365775D01*
X1282638Y365862D01*
X1282667Y365947D01*
X1282672Y366017D01*
X1282688Y366085D01*
X1282685Y366175D01*
X1282692Y366264D01*
X1282680Y366333D01*
X1282678Y366403D01*
X1282653Y366489D01*
X1282638Y366578D01*
X1282609Y366641D01*
X1282589Y366709D01*
X1282544Y366786D01*
X1282507Y366867D01*
X1282463Y366922D01*
X1282428Y366983D01*
X1282364Y367046D01*
X1282308Y367116D01*
X1282252Y367158D01*
X1282203Y367208D01*
X1282126Y367253D01*
X1282054Y367307D01*
X1281942Y367362D01*
X1281929Y367370D01*
X1281923Y367372D01*
X1281910Y367378D01*
X1278891Y368628D01*
X1274786Y372734D01*
X1272564Y378097D01*
X1272564Y383903D01*
X1274786Y389266D01*
X1278322Y392802D01*
X1278395Y392897D01*
X1278474Y392986D01*
X1278492Y393022D01*
X1278517Y393054D01*
X1278564Y393163D01*
X1278618Y393269D01*
X1278627Y393308D01*
X1278643Y393346D01*
X1278662Y393463D01*
X1278688Y393579D01*
X1278687Y393620D01*
X1278693Y393660D01*
X1278682Y393778D01*
X1278678Y393897D01*
X1278667Y393936D01*
X1278663Y393976D01*
X1278623Y394089D01*
X1278590Y394203D01*
X1278569Y394237D01*
X1278556Y394276D01*
X1278489Y394374D01*
X1278428Y394477D01*
X1278389Y394522D01*
X1278377Y394539D01*
X1278362Y394552D01*
X1278322Y394597D01*
X1274786Y398134D01*
X1272564Y403497D01*
X1272564Y409303D01*
X1274786Y414666D01*
X1278322Y418202D01*
X1278395Y418297D01*
X1278474Y418386D01*
X1278492Y418422D01*
X1278517Y418454D01*
X1278564Y418563D01*
X1278618Y418669D01*
X1278627Y418708D01*
X1278643Y418746D01*
X1278662Y418863D01*
X1278688Y418979D01*
X1278687Y419020D01*
X1278693Y419060D01*
X1278682Y419178D01*
X1278678Y419297D01*
X1278667Y419336D01*
X1278663Y419376D01*
X1278623Y419489D01*
X1278590Y419603D01*
X1278569Y419637D01*
X1278556Y419676D01*
X1278489Y419774D01*
X1278428Y419877D01*
X1278389Y419922D01*
X1278377Y419939D01*
X1278362Y419952D01*
X1278322Y419997D01*
X1274786Y423534D01*
X1272564Y428897D01*
X1272564Y434703D01*
X1274786Y440066D01*
X1278322Y443602D01*
X1278395Y443697D01*
X1278474Y443786D01*
X1278492Y443822D01*
X1278517Y443854D01*
X1278564Y443963D01*
X1278618Y444069D01*
X1278627Y444108D01*
X1278643Y444146D01*
X1278662Y444263D01*
X1278688Y444379D01*
X1278687Y444420D01*
X1278693Y444460D01*
X1278682Y444578D01*
X1278678Y444697D01*
X1278667Y444736D01*
X1278663Y444776D01*
X1278623Y444889D01*
X1278590Y445003D01*
X1278569Y445037D01*
X1278556Y445076D01*
X1278489Y445174D01*
X1278428Y445277D01*
X1278389Y445322D01*
X1278377Y445339D01*
X1278362Y445352D01*
X1278322Y445397D01*
X1274786Y448934D01*
X1272564Y454297D01*
X1272564Y460103D01*
X1274786Y465466D01*
X1278891Y469572D01*
X1284255Y471793D01*
X1306545Y471793D01*
X1311909Y469572D01*
X1316014Y465466D01*
X1316780Y463618D01*
X1316804Y463575D01*
X1316821Y463528D01*
X1316883Y463437D01*
X1316937Y463342D01*
X1316972Y463306D01*
X1317000Y463265D01*
X1317082Y463192D01*
X1317159Y463113D01*
X1317201Y463087D01*
X1317238Y463054D01*
X1317336Y463004D01*
X1317430Y462947D01*
X1317477Y462932D01*
X1317521Y462910D01*
X1317629Y462886D01*
X1317734Y462853D01*
X1317783Y462851D01*
X1317832Y462840D01*
X1317942Y462843D01*
X1318051Y462838D01*
X1318100Y462848D01*
X1318150Y462850D01*
X1318255Y462880D01*
X1318363Y462902D01*
X1318408Y462924D01*
X1318455Y462938D01*
X1318549Y462994D01*
X1318648Y463042D01*
X1318686Y463075D01*
X1318729Y463100D01*
X1318850Y463206D01*
X1322413Y466769D01*
X1327950Y472306D01*
X1334952Y475207D01*
X1442203Y475207D01*
X1442213Y475208D01*
X1442222Y475207D01*
X1442371Y475228D01*
X1442519Y475247D01*
X1442528Y475250D01*
X1442537Y475251D01*
X1442689Y475303D01*
X1444011Y475851D01*
X1451589Y475851D01*
X1453046Y475247D01*
X1453055Y475245D01*
X1453063Y475240D01*
X1453208Y475203D01*
X1453353Y475163D01*
X1453362Y475163D01*
X1453371Y475161D01*
X1453532Y475151D01*
X1463450Y475151D01*
X1470195Y472357D01*
X1475357Y467195D01*
X1478151Y460450D01*
X1478151Y453150D01*
X1475357Y446405D01*
X1470195Y441243D01*
X1463450Y438449D01*
X1454443Y438449D01*
X1454433Y438448D01*
X1454424Y438449D01*
X1454275Y438428D01*
X1454127Y438409D01*
X1454118Y438406D01*
X1454109Y438405D01*
X1453957Y438353D01*
X1450945Y437105D01*
X1347158Y437105D01*
X1347060Y437093D01*
X1346961Y437090D01*
X1346903Y437073D01*
X1346843Y437065D01*
X1346751Y437029D01*
X1346656Y437001D01*
X1346604Y436971D01*
X1346547Y436948D01*
X1346467Y436890D01*
X1346382Y436840D01*
X1346306Y436774D01*
X1346290Y436762D01*
X1346282Y436752D01*
X1346261Y436734D01*
X1330795Y421267D01*
X1330710Y421158D01*
X1330621Y421051D01*
X1330612Y421032D01*
X1330600Y421016D01*
X1330545Y420888D01*
X1330485Y420763D01*
X1330482Y420743D01*
X1330474Y420724D01*
X1330452Y420586D01*
X1330426Y420450D01*
X1330427Y420430D01*
X1330424Y420410D01*
X1330437Y420271D01*
X1330445Y420133D01*
X1330452Y420114D01*
X1330454Y420094D01*
X1330501Y419962D01*
X1330543Y419831D01*
X1330554Y419813D01*
X1330561Y419794D01*
X1330639Y419679D01*
X1330714Y419562D01*
X1330728Y419548D01*
X1330740Y419531D01*
X1330844Y419439D01*
X1330945Y419344D01*
X1330963Y419334D01*
X1330978Y419321D01*
X1331102Y419257D01*
X1331224Y419190D01*
X1331243Y419185D01*
X1331261Y419176D01*
X1331397Y419146D01*
X1331532Y419111D01*
X1331560Y419109D01*
X1331572Y419106D01*
X1331592Y419107D01*
X1331692Y419101D01*
X1421623Y419101D01*
X1421721Y419113D01*
X1421820Y419116D01*
X1421879Y419133D01*
X1421939Y419141D01*
X1422031Y419177D01*
X1422126Y419205D01*
X1422178Y419235D01*
X1422234Y419258D01*
X1422314Y419316D01*
X1422400Y419366D01*
X1422475Y419432D01*
X1422492Y419444D01*
X1422499Y419454D01*
X1422521Y419472D01*
X1425405Y422357D01*
X1432150Y425151D01*
X1442068Y425151D01*
X1442077Y425152D01*
X1442087Y425151D01*
X1442235Y425172D01*
X1442384Y425191D01*
X1442392Y425194D01*
X1442402Y425195D01*
X1442554Y425247D01*
X1444011Y425851D01*
X1451589Y425851D01*
X1453046Y425247D01*
X1453055Y425245D01*
X1453063Y425240D01*
X1453208Y425203D01*
X1453353Y425163D01*
X1453362Y425163D01*
X1453371Y425161D01*
X1453532Y425151D01*
X1463450Y425151D01*
X1470195Y422357D01*
X1475357Y417195D01*
X1478151Y410450D01*
X1478151Y403150D01*
X1475357Y396405D01*
X1470195Y391243D01*
X1463450Y388449D01*
X1456917Y388449D01*
X1456819Y388437D01*
X1456720Y388434D01*
X1456661Y388417D01*
X1456601Y388409D01*
X1456509Y388373D01*
X1456414Y388345D01*
X1456362Y388315D01*
X1456306Y388292D01*
X1456225Y388234D01*
X1456140Y388184D01*
X1456065Y388118D01*
X1456048Y388106D01*
X1456040Y388096D01*
X1456039Y388095D01*
X1456034Y388091D01*
X1456031Y388088D01*
X1456019Y388078D01*
X1451841Y383900D01*
X1444839Y380999D01*
X1322867Y380999D01*
X1322769Y380987D01*
X1322670Y380984D01*
X1322611Y380967D01*
X1322551Y380959D01*
X1322459Y380923D01*
X1322364Y380895D01*
X1322312Y380865D01*
X1322256Y380842D01*
X1322176Y380784D01*
X1322090Y380734D01*
X1322015Y380668D01*
X1321998Y380656D01*
X1321990Y380646D01*
X1321969Y380628D01*
X1317563Y376222D01*
X1317558Y376214D01*
X1317550Y376208D01*
X1317460Y376089D01*
X1317368Y375970D01*
X1317365Y375962D01*
X1317359Y375954D01*
X1317288Y375810D01*
X1316014Y372734D01*
X1311909Y368628D01*
X1308890Y367378D01*
X1308813Y367334D01*
X1308730Y367298D01*
X1308675Y367255D01*
X1308614Y367221D01*
X1308550Y367158D01*
X1308479Y367103D01*
X1308436Y367048D01*
X1308386Y366999D01*
X1308339Y366923D01*
X1308284Y366852D01*
X1308256Y366788D01*
X1308219Y366728D01*
X1308193Y366643D01*
X1308157Y366560D01*
X1308146Y366491D01*
X1308126Y366424D01*
X1308121Y366335D01*
X1308107Y366246D01*
X1308114Y366176D01*
X1308111Y366107D01*
X1308129Y366019D01*
X1308137Y365930D01*
X1308161Y365864D01*
X1308175Y365795D01*
X1308214Y365714D01*
X1308244Y365630D01*
X1308284Y365573D01*
X1308315Y365509D01*
X1308373Y365441D01*
X1308423Y365367D01*
X1308475Y365321D01*
X1308521Y365267D01*
X1308594Y365216D01*
X1308661Y365157D01*
X1308769Y365093D01*
X1308781Y365084D01*
X1308787Y365082D01*
X1308800Y365075D01*
X1309294Y364823D01*
X1310667Y363825D01*
X1311867Y362625D01*
X1312865Y361252D01*
X1313636Y359739D01*
X1314156Y358139D01*
X1296670Y358139D01*
X1296552Y358124D01*
X1296433Y358117D01*
X1296395Y358104D01*
X1296355Y358099D01*
X1296244Y358056D01*
X1296131Y358019D01*
X1296097Y357997D01*
X1296059Y357982D01*
X1295963Y357912D01*
X1295862Y357849D01*
X1295834Y357819D01*
X1295802Y357795D01*
X1295726Y357704D01*
X1295644Y357617D01*
X1295625Y357582D01*
X1295599Y357551D01*
X1295548Y357443D01*
X1295491Y357339D01*
X1295480Y357299D01*
X1295463Y357263D01*
X1295441Y357146D01*
X1295411Y357031D01*
X1295407Y356970D01*
X1295403Y356950D01*
X1295405Y356930D01*
X1295401Y356870D01*
X1295401Y355599D01*
X1295399Y355599D01*
G37*
%LPD*%
%LPC*%
G36*
X950605Y92074D02*
X950605Y92074D01*
X947104Y93524D01*
X919483Y121145D01*
X919444Y121176D01*
X919411Y121213D01*
X919319Y121273D01*
X919232Y121340D01*
X919186Y121360D01*
X919145Y121387D01*
X919041Y121423D01*
X918940Y121467D01*
X918891Y121474D01*
X918844Y121490D01*
X918735Y121499D01*
X918626Y121516D01*
X918577Y121512D01*
X918527Y121516D01*
X918419Y121497D01*
X918309Y121487D01*
X918263Y121470D01*
X918214Y121461D01*
X918114Y121416D01*
X918010Y121379D01*
X917969Y121351D01*
X917924Y121331D01*
X917838Y121262D01*
X917747Y121200D01*
X917714Y121163D01*
X917675Y121132D01*
X917609Y121044D01*
X917537Y120962D01*
X917514Y120918D01*
X917484Y120878D01*
X917413Y120734D01*
X915051Y115031D01*
X910621Y110601D01*
X904833Y108203D01*
X898567Y108203D01*
X892779Y110601D01*
X889897Y113482D01*
X889803Y113556D01*
X889714Y113634D01*
X889678Y113653D01*
X889646Y113677D01*
X889537Y113725D01*
X889431Y113779D01*
X889392Y113788D01*
X889354Y113804D01*
X889237Y113822D01*
X889121Y113848D01*
X889080Y113847D01*
X889040Y113854D01*
X888922Y113842D01*
X888803Y113839D01*
X888764Y113828D01*
X888724Y113824D01*
X888611Y113783D01*
X888497Y113750D01*
X888462Y113730D01*
X888424Y113716D01*
X888326Y113649D01*
X888223Y113589D01*
X888178Y113549D01*
X888161Y113538D01*
X888148Y113522D01*
X888102Y113482D01*
X885221Y110601D01*
X879433Y108203D01*
X873167Y108203D01*
X867379Y110601D01*
X862949Y115031D01*
X860551Y120819D01*
X860551Y145881D01*
X862949Y151669D01*
X867444Y156164D01*
X867450Y156171D01*
X867457Y156177D01*
X867546Y156296D01*
X867639Y156415D01*
X867643Y156424D01*
X867648Y156431D01*
X867719Y156576D01*
X868224Y157796D01*
X883604Y173176D01*
X887105Y174626D01*
X916295Y174626D01*
X919796Y173176D01*
X942927Y150045D01*
X942966Y150014D01*
X942999Y149978D01*
X943091Y149917D01*
X943178Y149850D01*
X943224Y149830D01*
X943265Y149803D01*
X943369Y149767D01*
X943470Y149724D01*
X943519Y149716D01*
X943566Y149700D01*
X943675Y149691D01*
X943784Y149674D01*
X943833Y149678D01*
X943883Y149674D01*
X943991Y149693D01*
X944100Y149703D01*
X944147Y149720D01*
X944196Y149729D01*
X944296Y149774D01*
X944400Y149811D01*
X944441Y149839D01*
X944486Y149859D01*
X944572Y149928D01*
X944663Y149990D01*
X944696Y150027D01*
X944735Y150058D01*
X944801Y150146D01*
X944873Y150228D01*
X944896Y150272D01*
X944926Y150312D01*
X944997Y150457D01*
X945499Y151669D01*
X949929Y156099D01*
X955717Y158497D01*
X961983Y158497D01*
X967771Y156099D01*
X970652Y153218D01*
X970747Y153144D01*
X970836Y153066D01*
X970872Y153047D01*
X970904Y153023D01*
X971013Y152975D01*
X971119Y152921D01*
X971158Y152912D01*
X971196Y152896D01*
X971313Y152878D01*
X971429Y152852D01*
X971470Y152853D01*
X971510Y152846D01*
X971628Y152858D01*
X971747Y152861D01*
X971786Y152872D01*
X971826Y152876D01*
X971939Y152917D01*
X972053Y152950D01*
X972087Y152970D01*
X972126Y152984D01*
X972224Y153051D01*
X972327Y153111D01*
X972372Y153151D01*
X972389Y153162D01*
X972402Y153178D01*
X972447Y153218D01*
X975329Y156099D01*
X981117Y158497D01*
X987383Y158497D01*
X993171Y156099D01*
X997601Y151669D01*
X999999Y145881D01*
X999999Y120819D01*
X997601Y115031D01*
X993171Y110601D01*
X987383Y108203D01*
X985800Y108203D01*
X985702Y108191D01*
X985603Y108188D01*
X985545Y108171D01*
X985485Y108163D01*
X985393Y108127D01*
X985298Y108099D01*
X985246Y108069D01*
X985189Y108046D01*
X985109Y107988D01*
X985024Y107938D01*
X984948Y107872D01*
X984932Y107860D01*
X984924Y107850D01*
X984903Y107832D01*
X970596Y93524D01*
X967095Y92074D01*
X950605Y92074D01*
G37*
%LPD*%
%LPC*%
G36*
X1450179Y788989D02*
X1450179Y788989D01*
X1442508Y791045D01*
X1435631Y795015D01*
X1430015Y800631D01*
X1426045Y807508D01*
X1423989Y815179D01*
X1423989Y823121D01*
X1426045Y830792D01*
X1430015Y837669D01*
X1435631Y843285D01*
X1442508Y847255D01*
X1450179Y849311D01*
X1458121Y849311D01*
X1465792Y847255D01*
X1472669Y843285D01*
X1478285Y837669D01*
X1482255Y830792D01*
X1484311Y823121D01*
X1484311Y815179D01*
X1482255Y807508D01*
X1478285Y800631D01*
X1472669Y795015D01*
X1465792Y791045D01*
X1458121Y788989D01*
X1450179Y788989D01*
G37*
%LPD*%
%LPC*%
G36*
X631029Y788989D02*
X631029Y788989D01*
X623358Y791045D01*
X616481Y795015D01*
X610865Y800631D01*
X606895Y807508D01*
X604839Y815179D01*
X604839Y823121D01*
X606895Y830792D01*
X610865Y837669D01*
X616481Y843285D01*
X623358Y847255D01*
X631029Y849311D01*
X638971Y849311D01*
X646642Y847255D01*
X653519Y843285D01*
X659135Y837669D01*
X663105Y830792D01*
X665161Y823121D01*
X665161Y815179D01*
X663105Y807508D01*
X659135Y800631D01*
X653519Y795015D01*
X646642Y791045D01*
X638971Y788989D01*
X631029Y788989D01*
G37*
%LPD*%
%LPC*%
G36*
X631029Y103189D02*
X631029Y103189D01*
X623358Y105245D01*
X616481Y109215D01*
X610865Y114831D01*
X606895Y121708D01*
X604839Y129379D01*
X604839Y137321D01*
X606895Y144992D01*
X610865Y151869D01*
X616481Y157485D01*
X623358Y161455D01*
X631029Y163511D01*
X638971Y163511D01*
X646642Y161455D01*
X653519Y157485D01*
X659135Y151869D01*
X663105Y144992D01*
X665161Y137321D01*
X665161Y129379D01*
X663105Y121708D01*
X659135Y114831D01*
X653519Y109215D01*
X646642Y105245D01*
X638971Y103189D01*
X631029Y103189D01*
G37*
%LPD*%
%LPC*%
G36*
X1450179Y103189D02*
X1450179Y103189D01*
X1442508Y105245D01*
X1435631Y109215D01*
X1430015Y114831D01*
X1426045Y121708D01*
X1423989Y129379D01*
X1423989Y137321D01*
X1426045Y144992D01*
X1430015Y151869D01*
X1435631Y157485D01*
X1442508Y161455D01*
X1450179Y163511D01*
X1458121Y163511D01*
X1465792Y161455D01*
X1472669Y157485D01*
X1478285Y151869D01*
X1482255Y144992D01*
X1484311Y137321D01*
X1484311Y129379D01*
X1482255Y121708D01*
X1478285Y114831D01*
X1472669Y109215D01*
X1465792Y105245D01*
X1458121Y103189D01*
X1450179Y103189D01*
G37*
%LPD*%
%LPC*%
G36*
X603419Y568451D02*
X603419Y568451D01*
X597631Y570849D01*
X593201Y575279D01*
X590803Y581067D01*
X590803Y587333D01*
X593201Y593121D01*
X596082Y596003D01*
X596156Y596097D01*
X596234Y596186D01*
X596253Y596222D01*
X596277Y596254D01*
X596325Y596363D01*
X596379Y596469D01*
X596388Y596508D01*
X596404Y596546D01*
X596422Y596663D01*
X596448Y596779D01*
X596447Y596820D01*
X596454Y596860D01*
X596442Y596978D01*
X596439Y597097D01*
X596428Y597136D01*
X596424Y597176D01*
X596383Y597289D01*
X596350Y597403D01*
X596330Y597438D01*
X596316Y597476D01*
X596249Y597574D01*
X596189Y597677D01*
X596149Y597722D01*
X596138Y597739D01*
X596122Y597752D01*
X596082Y597798D01*
X593201Y600679D01*
X590803Y606467D01*
X590803Y612733D01*
X593201Y618521D01*
X597631Y622951D01*
X598845Y623454D01*
X598974Y623527D01*
X599105Y623599D01*
X599112Y623606D01*
X599121Y623611D01*
X599228Y623715D01*
X599337Y623817D01*
X599342Y623826D01*
X599350Y623833D01*
X599427Y623959D01*
X599507Y624085D01*
X599510Y624095D01*
X599516Y624104D01*
X599560Y624246D01*
X599606Y624388D01*
X599606Y624398D01*
X599609Y624408D01*
X599617Y624557D01*
X599626Y624705D01*
X599624Y624715D01*
X599625Y624725D01*
X599594Y624872D01*
X599567Y625017D01*
X599562Y625027D01*
X599560Y625037D01*
X599495Y625171D01*
X599432Y625305D01*
X599425Y625313D01*
X599421Y625323D01*
X599323Y625436D01*
X599229Y625551D01*
X599218Y625560D01*
X599214Y625565D01*
X599202Y625573D01*
X599105Y625653D01*
X598774Y625894D01*
X597446Y627222D01*
X596341Y628743D01*
X595488Y630417D01*
X594907Y632204D01*
X594867Y632461D01*
X614680Y632461D01*
X614798Y632476D01*
X614917Y632483D01*
X614955Y632496D01*
X614995Y632501D01*
X615106Y632544D01*
X615219Y632581D01*
X615253Y632603D01*
X615291Y632618D01*
X615387Y632688D01*
X615488Y632751D01*
X615516Y632781D01*
X615548Y632804D01*
X615624Y632896D01*
X615706Y632983D01*
X615725Y633018D01*
X615751Y633049D01*
X615802Y633157D01*
X615859Y633261D01*
X615870Y633301D01*
X615887Y633337D01*
X615909Y633454D01*
X615939Y633569D01*
X615943Y633630D01*
X615947Y633650D01*
X615945Y633670D01*
X615949Y633730D01*
X615949Y635001D01*
X615951Y635001D01*
X615951Y633730D01*
X615966Y633612D01*
X615973Y633493D01*
X615986Y633455D01*
X615991Y633414D01*
X616035Y633304D01*
X616071Y633191D01*
X616093Y633156D01*
X616108Y633119D01*
X616178Y633023D01*
X616241Y632922D01*
X616271Y632894D01*
X616295Y632861D01*
X616386Y632786D01*
X616473Y632704D01*
X616508Y632684D01*
X616540Y632659D01*
X616647Y632608D01*
X616752Y632550D01*
X616791Y632540D01*
X616827Y632523D01*
X616944Y632501D01*
X617059Y632471D01*
X617120Y632467D01*
X617140Y632463D01*
X617160Y632465D01*
X617220Y632461D01*
X637033Y632461D01*
X636993Y632204D01*
X636412Y630417D01*
X635559Y628743D01*
X634454Y627222D01*
X633126Y625894D01*
X632795Y625653D01*
X632685Y625551D01*
X632576Y625451D01*
X632571Y625443D01*
X632563Y625436D01*
X632483Y625310D01*
X632401Y625186D01*
X632398Y625176D01*
X632393Y625167D01*
X632347Y625026D01*
X632298Y624885D01*
X632297Y624875D01*
X632294Y624865D01*
X632285Y624716D01*
X632273Y624568D01*
X632275Y624558D01*
X632274Y624547D01*
X632302Y624401D01*
X632327Y624254D01*
X632332Y624245D01*
X632334Y624235D01*
X632397Y624100D01*
X632458Y623964D01*
X632464Y623956D01*
X632469Y623947D01*
X632563Y623833D01*
X632657Y623716D01*
X632665Y623710D01*
X632671Y623702D01*
X632791Y623615D01*
X632911Y623525D01*
X632923Y623519D01*
X632928Y623515D01*
X632942Y623509D01*
X633055Y623454D01*
X634269Y622951D01*
X638699Y618521D01*
X641097Y612733D01*
X641097Y606467D01*
X638699Y600679D01*
X635818Y597798D01*
X635744Y597703D01*
X635666Y597614D01*
X635647Y597578D01*
X635623Y597546D01*
X635575Y597437D01*
X635521Y597331D01*
X635512Y597292D01*
X635496Y597254D01*
X635478Y597137D01*
X635452Y597021D01*
X635453Y596980D01*
X635446Y596940D01*
X635458Y596822D01*
X635461Y596703D01*
X635472Y596664D01*
X635476Y596624D01*
X635517Y596511D01*
X635550Y596397D01*
X635570Y596363D01*
X635584Y596324D01*
X635651Y596226D01*
X635711Y596123D01*
X635751Y596078D01*
X635762Y596061D01*
X635778Y596048D01*
X635818Y596003D01*
X638699Y593121D01*
X639316Y591633D01*
X639321Y591623D01*
X639324Y591612D01*
X639333Y591597D01*
X641351Y586726D01*
X641351Y581674D01*
X639334Y576805D01*
X639316Y576767D01*
X638699Y575279D01*
X634269Y570849D01*
X628481Y568451D01*
X603419Y568451D01*
G37*
%LPD*%
%LPC*%
G36*
X714417Y114553D02*
X714417Y114553D01*
X708629Y116951D01*
X704199Y121381D01*
X701801Y127169D01*
X701801Y152231D01*
X704199Y158019D01*
X708629Y162449D01*
X714417Y164847D01*
X720683Y164847D01*
X726471Y162449D01*
X729353Y159568D01*
X729447Y159494D01*
X729536Y159416D01*
X729572Y159397D01*
X729604Y159373D01*
X729713Y159325D01*
X729819Y159271D01*
X729858Y159262D01*
X729896Y159246D01*
X730013Y159228D01*
X730129Y159202D01*
X730170Y159203D01*
X730210Y159196D01*
X730328Y159208D01*
X730447Y159211D01*
X730486Y159222D01*
X730526Y159226D01*
X730639Y159267D01*
X730753Y159300D01*
X730788Y159320D01*
X730826Y159334D01*
X730924Y159401D01*
X731027Y159461D01*
X731072Y159501D01*
X731089Y159512D01*
X731102Y159528D01*
X731148Y159568D01*
X734029Y162449D01*
X739817Y164847D01*
X746083Y164847D01*
X751871Y162449D01*
X756301Y158019D01*
X758699Y152231D01*
X758699Y127169D01*
X756301Y121381D01*
X751871Y116951D01*
X746083Y114553D01*
X739817Y114553D01*
X734029Y116951D01*
X731148Y119832D01*
X731053Y119906D01*
X730964Y119984D01*
X730928Y120003D01*
X730896Y120027D01*
X730787Y120075D01*
X730681Y120129D01*
X730642Y120138D01*
X730604Y120154D01*
X730487Y120172D01*
X730371Y120198D01*
X730330Y120197D01*
X730290Y120204D01*
X730172Y120192D01*
X730053Y120189D01*
X730014Y120178D01*
X729974Y120174D01*
X729861Y120133D01*
X729747Y120100D01*
X729713Y120080D01*
X729674Y120066D01*
X729576Y119999D01*
X729473Y119939D01*
X729428Y119899D01*
X729411Y119888D01*
X729398Y119872D01*
X729353Y119832D01*
X726471Y116951D01*
X720683Y114553D01*
X714417Y114553D01*
G37*
%LPD*%
%LPC*%
G36*
X1432150Y540049D02*
X1432150Y540049D01*
X1425405Y542843D01*
X1420243Y548005D01*
X1417449Y554750D01*
X1417449Y562050D01*
X1420243Y568795D01*
X1425405Y573957D01*
X1432150Y576751D01*
X1463450Y576751D01*
X1470195Y573957D01*
X1475357Y568795D01*
X1478151Y562050D01*
X1478151Y554750D01*
X1475357Y548005D01*
X1470195Y542843D01*
X1463450Y540049D01*
X1432150Y540049D01*
G37*
%LPD*%
%LPC*%
G36*
X1432150Y490049D02*
X1432150Y490049D01*
X1425405Y492843D01*
X1420243Y498005D01*
X1417449Y504750D01*
X1417449Y512050D01*
X1420243Y518795D01*
X1425405Y523957D01*
X1432150Y526751D01*
X1463450Y526751D01*
X1470195Y523957D01*
X1475357Y518795D01*
X1478151Y512050D01*
X1478151Y504750D01*
X1475357Y498005D01*
X1470195Y492843D01*
X1463450Y490049D01*
X1432150Y490049D01*
G37*
%LPD*%
%LPC*%
G36*
X1215535Y808914D02*
X1215535Y808914D01*
X1209560Y811389D01*
X1204987Y815962D01*
X1202512Y821937D01*
X1202512Y828405D01*
X1204987Y834380D01*
X1209560Y838953D01*
X1215535Y841428D01*
X1241815Y841428D01*
X1247790Y838953D01*
X1252363Y834380D01*
X1254838Y828405D01*
X1254838Y821937D01*
X1252363Y815962D01*
X1247790Y811389D01*
X1241815Y808914D01*
X1215535Y808914D01*
G37*
%LPD*%
%LPC*%
G36*
X1093615Y808914D02*
X1093615Y808914D01*
X1087640Y811389D01*
X1083067Y815962D01*
X1080592Y821937D01*
X1080592Y828405D01*
X1083067Y834380D01*
X1087640Y838953D01*
X1093615Y841428D01*
X1119895Y841428D01*
X1125870Y838953D01*
X1130443Y834380D01*
X1132918Y828405D01*
X1132918Y821937D01*
X1130443Y815962D01*
X1125870Y811389D01*
X1119895Y808914D01*
X1093615Y808914D01*
G37*
%LPD*%
%LPC*%
G36*
X1093615Y689534D02*
X1093615Y689534D01*
X1087640Y692009D01*
X1083067Y696582D01*
X1080592Y702557D01*
X1080592Y709025D01*
X1083067Y715000D01*
X1087640Y719573D01*
X1093615Y722048D01*
X1119895Y722048D01*
X1125870Y719573D01*
X1130443Y715000D01*
X1132918Y709025D01*
X1132918Y702557D01*
X1130443Y696582D01*
X1125870Y692009D01*
X1119895Y689534D01*
X1093615Y689534D01*
G37*
%LPD*%
%LPC*%
G36*
X924523Y774445D02*
X924523Y774445D01*
X919762Y776417D01*
X916117Y780062D01*
X914145Y784823D01*
X914145Y803185D01*
X916117Y807946D01*
X919762Y811591D01*
X924523Y813563D01*
X929677Y813563D01*
X934438Y811591D01*
X938083Y807946D01*
X940055Y803185D01*
X940055Y784823D01*
X938083Y780062D01*
X934438Y776417D01*
X929677Y774445D01*
X924523Y774445D01*
G37*
%LPD*%
%LPC*%
G36*
X1038469Y810767D02*
X1038469Y810767D01*
X1033055Y813010D01*
X1028910Y817155D01*
X1026667Y822569D01*
X1026667Y828431D01*
X1028910Y833845D01*
X1033055Y837990D01*
X1038469Y840233D01*
X1044331Y840233D01*
X1049745Y837990D01*
X1053890Y833845D01*
X1056133Y828431D01*
X1056133Y822569D01*
X1053890Y817155D01*
X1049745Y813010D01*
X1044331Y810767D01*
X1038469Y810767D01*
G37*
%LPD*%
%LPC*%
G36*
X1038469Y709167D02*
X1038469Y709167D01*
X1033055Y711410D01*
X1028910Y715555D01*
X1026667Y720969D01*
X1026667Y726831D01*
X1028910Y732245D01*
X1033055Y736390D01*
X1038469Y738633D01*
X1044331Y738633D01*
X1049745Y736390D01*
X1053890Y732245D01*
X1056133Y726831D01*
X1056133Y720969D01*
X1053890Y715555D01*
X1049745Y711410D01*
X1044331Y709167D01*
X1038469Y709167D01*
G37*
%LPD*%
%LPC*%
G36*
X1010634Y520445D02*
X1010634Y520445D01*
X1003045Y528034D01*
X1003045Y538766D01*
X1010634Y546355D01*
X1021366Y546355D01*
X1028955Y538766D01*
X1028955Y528034D01*
X1021366Y520445D01*
X1010634Y520445D01*
G37*
%LPD*%
%LPC*%
G36*
X737584Y196595D02*
X737584Y196595D01*
X729995Y204184D01*
X729995Y214916D01*
X737584Y222505D01*
X748316Y222505D01*
X755905Y214916D01*
X755905Y204184D01*
X748316Y196595D01*
X737584Y196595D01*
G37*
%LPD*%
%LPC*%
G36*
X985234Y660145D02*
X985234Y660145D01*
X977645Y667734D01*
X977645Y678466D01*
X985234Y686055D01*
X995966Y686055D01*
X1003555Y678466D01*
X1003555Y667734D01*
X995966Y660145D01*
X985234Y660145D01*
G37*
%LPD*%
%LPC*%
G36*
X1010634Y482345D02*
X1010634Y482345D01*
X1003045Y489934D01*
X1003045Y500666D01*
X1010634Y508255D01*
X1021366Y508255D01*
X1028955Y500666D01*
X1028955Y489934D01*
X1021366Y482345D01*
X1010634Y482345D01*
G37*
%LPD*%
%LPC*%
G36*
X1137634Y482345D02*
X1137634Y482345D01*
X1130045Y489934D01*
X1130045Y500666D01*
X1137634Y508255D01*
X1148366Y508255D01*
X1155955Y500666D01*
X1155955Y489934D01*
X1148366Y482345D01*
X1137634Y482345D01*
G37*
%LPD*%
%LPC*%
G36*
X1010634Y609345D02*
X1010634Y609345D01*
X1003045Y616934D01*
X1003045Y627666D01*
X1010634Y635255D01*
X1021366Y635255D01*
X1028955Y627666D01*
X1028955Y616934D01*
X1021366Y609345D01*
X1010634Y609345D01*
G37*
%LPD*%
%LPC*%
G36*
X1101848Y647445D02*
X1101848Y647445D01*
X1094259Y655034D01*
X1094259Y665766D01*
X1101848Y673355D01*
X1112580Y673355D01*
X1120168Y665766D01*
X1120168Y655034D01*
X1112580Y647445D01*
X1101848Y647445D01*
G37*
%LPD*%
%LPC*%
G36*
X1010634Y571245D02*
X1010634Y571245D01*
X1003045Y578834D01*
X1003045Y589566D01*
X1010634Y597155D01*
X1021366Y597155D01*
X1028955Y589566D01*
X1028955Y578834D01*
X1021366Y571245D01*
X1010634Y571245D01*
G37*
%LPD*%
%LPC*%
G36*
X1450339Y357739D02*
X1450339Y357739D01*
X1450339Y369741D01*
X1460944Y369741D01*
X1463205Y369383D01*
X1465382Y368675D01*
X1467421Y367636D01*
X1469273Y366291D01*
X1470891Y364673D01*
X1472236Y362821D01*
X1473275Y360782D01*
X1473983Y358605D01*
X1474120Y357739D01*
X1450339Y357739D01*
G37*
%LPD*%
%LPC*%
G36*
X1450339Y256139D02*
X1450339Y256139D01*
X1450339Y268141D01*
X1460944Y268141D01*
X1463205Y267783D01*
X1465382Y267075D01*
X1467421Y266036D01*
X1469273Y264691D01*
X1470891Y263073D01*
X1472236Y261221D01*
X1473275Y259182D01*
X1473983Y257005D01*
X1474120Y256139D01*
X1450339Y256139D01*
G37*
%LPD*%
%LPC*%
G36*
X1421480Y256139D02*
X1421480Y256139D01*
X1421617Y257005D01*
X1422325Y259182D01*
X1423364Y261221D01*
X1424709Y263073D01*
X1426327Y264691D01*
X1428179Y266036D01*
X1430218Y267075D01*
X1432395Y267783D01*
X1434656Y268141D01*
X1445261Y268141D01*
X1445261Y256139D01*
X1421480Y256139D01*
G37*
%LPD*%
%LPC*%
G36*
X1421480Y357739D02*
X1421480Y357739D01*
X1421617Y358605D01*
X1422325Y360782D01*
X1423364Y362821D01*
X1424709Y364673D01*
X1426327Y366291D01*
X1428179Y367636D01*
X1430218Y368675D01*
X1432395Y369383D01*
X1434656Y369741D01*
X1445261Y369741D01*
X1445261Y357739D01*
X1421480Y357739D01*
G37*
%LPD*%
%LPC*%
G36*
X1450339Y239059D02*
X1450339Y239059D01*
X1450339Y251061D01*
X1474120Y251061D01*
X1473983Y250195D01*
X1473275Y248018D01*
X1472236Y245979D01*
X1470891Y244127D01*
X1469273Y242509D01*
X1467421Y241164D01*
X1465382Y240125D01*
X1463205Y239417D01*
X1460944Y239059D01*
X1450339Y239059D01*
G37*
%LPD*%
%LPC*%
G36*
X1450339Y340659D02*
X1450339Y340659D01*
X1450339Y352661D01*
X1474120Y352661D01*
X1473983Y351795D01*
X1473275Y349618D01*
X1472236Y347579D01*
X1470891Y345727D01*
X1469273Y344109D01*
X1467421Y342764D01*
X1465382Y341725D01*
X1463205Y341017D01*
X1460944Y340659D01*
X1450339Y340659D01*
G37*
%LPD*%
%LPC*%
G36*
X1434656Y340659D02*
X1434656Y340659D01*
X1432395Y341017D01*
X1430218Y341725D01*
X1428179Y342764D01*
X1426327Y344109D01*
X1424709Y345727D01*
X1423364Y347579D01*
X1422325Y349618D01*
X1421617Y351795D01*
X1421480Y352661D01*
X1445261Y352661D01*
X1445261Y340659D01*
X1434656Y340659D01*
G37*
%LPD*%
%LPC*%
G36*
X1434656Y239059D02*
X1434656Y239059D01*
X1432395Y239417D01*
X1430218Y240125D01*
X1428179Y241164D01*
X1426327Y242509D01*
X1424709Y244127D01*
X1423364Y245979D01*
X1422325Y248018D01*
X1421617Y250195D01*
X1421480Y251061D01*
X1445261Y251061D01*
X1445261Y239059D01*
X1434656Y239059D01*
G37*
%LPD*%
%LPC*%
G36*
X618489Y535939D02*
X618489Y535939D01*
X618489Y545339D01*
X626288Y545339D01*
X628144Y545045D01*
X629931Y544464D01*
X631605Y543611D01*
X633126Y542506D01*
X634454Y541178D01*
X635559Y539657D01*
X636412Y537983D01*
X636993Y536196D01*
X637033Y535939D01*
X618489Y535939D01*
G37*
%LPD*%
%LPC*%
G36*
X618489Y637539D02*
X618489Y637539D01*
X618489Y646939D01*
X626288Y646939D01*
X628144Y646645D01*
X629931Y646064D01*
X631605Y645211D01*
X633126Y644106D01*
X634454Y642778D01*
X635559Y641257D01*
X636412Y639583D01*
X636993Y637796D01*
X637033Y637539D01*
X618489Y637539D01*
G37*
%LPD*%
%LPC*%
G36*
X594867Y535939D02*
X594867Y535939D01*
X594907Y536196D01*
X595488Y537983D01*
X596341Y539657D01*
X597446Y541178D01*
X598774Y542506D01*
X600295Y543611D01*
X601969Y544464D01*
X603756Y545045D01*
X605612Y545339D01*
X613411Y545339D01*
X613411Y535939D01*
X594867Y535939D01*
G37*
%LPD*%
%LPC*%
G36*
X594867Y637539D02*
X594867Y637539D01*
X594907Y637796D01*
X595488Y639583D01*
X596341Y641257D01*
X597446Y642778D01*
X598774Y644106D01*
X600295Y645211D01*
X601969Y646064D01*
X603756Y646645D01*
X605612Y646939D01*
X613411Y646939D01*
X613411Y637539D01*
X594867Y637539D01*
G37*
%LPD*%
%LPC*%
G36*
X954531Y789431D02*
X954531Y789431D01*
X954531Y809545D01*
X954641Y809528D01*
X956010Y809083D01*
X957293Y808429D01*
X958457Y807583D01*
X959475Y806565D01*
X960321Y805401D01*
X960975Y804118D01*
X961420Y802749D01*
X961645Y801328D01*
X961645Y789431D01*
X954531Y789431D01*
G37*
%LPD*%
%LPC*%
G36*
X943355Y789431D02*
X943355Y789431D01*
X943355Y801328D01*
X943580Y802749D01*
X944025Y804118D01*
X944679Y805401D01*
X945525Y806565D01*
X946543Y807583D01*
X947707Y808429D01*
X948990Y809083D01*
X950359Y809528D01*
X950469Y809545D01*
X950469Y789431D01*
X943355Y789431D01*
G37*
%LPD*%
%LPC*%
G36*
X1297939Y332739D02*
X1297939Y332739D01*
X1297939Y340983D01*
X1304491Y340983D01*
X1306168Y340718D01*
X1307782Y340193D01*
X1309294Y339423D01*
X1310667Y338425D01*
X1311867Y337225D01*
X1312865Y335852D01*
X1313636Y334339D01*
X1314156Y332739D01*
X1297939Y332739D01*
G37*
%LPD*%
%LPC*%
G36*
X1276644Y332739D02*
X1276644Y332739D01*
X1277164Y334339D01*
X1277935Y335852D01*
X1278933Y337225D01*
X1280133Y338425D01*
X1281506Y339423D01*
X1283018Y340193D01*
X1284632Y340718D01*
X1286309Y340983D01*
X1292861Y340983D01*
X1292861Y332739D01*
X1276644Y332739D01*
G37*
%LPD*%
%LPC*%
G36*
X1297939Y344817D02*
X1297939Y344817D01*
X1297939Y353061D01*
X1314156Y353061D01*
X1313636Y351461D01*
X1312865Y349948D01*
X1311867Y348575D01*
X1310667Y347375D01*
X1309294Y346377D01*
X1307782Y345607D01*
X1306168Y345082D01*
X1304491Y344817D01*
X1297939Y344817D01*
G37*
%LPD*%
%LPC*%
G36*
X1286309Y344817D02*
X1286309Y344817D01*
X1284632Y345082D01*
X1283018Y345607D01*
X1281506Y346377D01*
X1280133Y347375D01*
X1278933Y348575D01*
X1277935Y349948D01*
X1277164Y351461D01*
X1276644Y353061D01*
X1292861Y353061D01*
X1292861Y344817D01*
X1286309Y344817D01*
G37*
%LPD*%
%LPC*%
G36*
X1291399Y549719D02*
X1291399Y549719D01*
X1291399Y556801D01*
X1304817Y556801D01*
X1304797Y556674D01*
X1304355Y555314D01*
X1303707Y554041D01*
X1302866Y552884D01*
X1301856Y551874D01*
X1300699Y551033D01*
X1299426Y550385D01*
X1298066Y549943D01*
X1296655Y549719D01*
X1291399Y549719D01*
G37*
%LPD*%
%LPC*%
G36*
X1282145Y549719D02*
X1282145Y549719D01*
X1280734Y549943D01*
X1279374Y550385D01*
X1278101Y551033D01*
X1276944Y551874D01*
X1275934Y552884D01*
X1275093Y554041D01*
X1274445Y555314D01*
X1274003Y556674D01*
X1273983Y556801D01*
X1287401Y556801D01*
X1287401Y549719D01*
X1282145Y549719D01*
G37*
%LPD*%
%LPC*%
G36*
X1145031Y624331D02*
X1145031Y624331D01*
X1145031Y631445D01*
X1146788Y631445D01*
X1152145Y626088D01*
X1152145Y624331D01*
X1145031Y624331D01*
G37*
%LPD*%
%LPC*%
G36*
X992631Y802131D02*
X992631Y802131D01*
X992631Y809245D01*
X994388Y809245D01*
X999745Y803888D01*
X999745Y802131D01*
X992631Y802131D01*
G37*
%LPD*%
%LPC*%
G36*
X617981Y211581D02*
X617981Y211581D01*
X617981Y218695D01*
X619738Y218695D01*
X625095Y213338D01*
X625095Y211581D01*
X617981Y211581D01*
G37*
%LPD*%
%LPC*%
G36*
X981455Y802131D02*
X981455Y802131D01*
X981455Y803888D01*
X986812Y809245D01*
X988569Y809245D01*
X988569Y802131D01*
X981455Y802131D01*
G37*
%LPD*%
%LPC*%
G36*
X606805Y211581D02*
X606805Y211581D01*
X606805Y213338D01*
X612162Y218695D01*
X613919Y218695D01*
X613919Y211581D01*
X606805Y211581D01*
G37*
%LPD*%
%LPC*%
G36*
X1145031Y613155D02*
X1145031Y613155D01*
X1145031Y620269D01*
X1152145Y620269D01*
X1152145Y618512D01*
X1146788Y613155D01*
X1145031Y613155D01*
G37*
%LPD*%
%LPC*%
G36*
X617981Y200405D02*
X617981Y200405D01*
X617981Y207519D01*
X625095Y207519D01*
X625095Y205762D01*
X619738Y200405D01*
X617981Y200405D01*
G37*
%LPD*%
%LPC*%
G36*
X992631Y790955D02*
X992631Y790955D01*
X992631Y798069D01*
X999745Y798069D01*
X999745Y796312D01*
X994388Y790955D01*
X992631Y790955D01*
G37*
%LPD*%
%LPC*%
G36*
X1133855Y624331D02*
X1133855Y624331D01*
X1133855Y626088D01*
X1139212Y631445D01*
X1140969Y631445D01*
X1140969Y624331D01*
X1133855Y624331D01*
G37*
%LPD*%
%LPC*%
G36*
X1139212Y613155D02*
X1139212Y613155D01*
X1133855Y618512D01*
X1133855Y620269D01*
X1140969Y620269D01*
X1140969Y613155D01*
X1139212Y613155D01*
G37*
%LPD*%
%LPC*%
G36*
X612162Y200405D02*
X612162Y200405D01*
X606805Y205762D01*
X606805Y207519D01*
X613919Y207519D01*
X613919Y200405D01*
X612162Y200405D01*
G37*
%LPD*%
%LPC*%
G36*
X986812Y790955D02*
X986812Y790955D01*
X981455Y796312D01*
X981455Y798069D01*
X988569Y798069D01*
X988569Y790955D01*
X986812Y790955D01*
G37*
%LPD*%
%LPC*%
G36*
X954531Y785369D02*
X954531Y785369D01*
X961437Y785369D01*
X961420Y785259D01*
X960975Y783890D01*
X960321Y782607D01*
X959475Y781443D01*
X958457Y780425D01*
X957293Y779579D01*
X956010Y778925D01*
X954641Y778480D01*
X954531Y778463D01*
X954531Y785369D01*
G37*
%LPD*%
%LPC*%
G36*
X950359Y778480D02*
X950359Y778480D01*
X948990Y778925D01*
X947707Y779579D01*
X946543Y780425D01*
X945525Y781443D01*
X944679Y782607D01*
X944025Y783890D01*
X943580Y785259D01*
X943563Y785369D01*
X950469Y785369D01*
X950469Y778463D01*
X950359Y778480D01*
G37*
%LPD*%
%LPC*%
G36*
X1447799Y253599D02*
X1447799Y253599D01*
X1447799Y253601D01*
X1447801Y253601D01*
X1447801Y253599D01*
X1447799Y253599D01*
G37*
%LPD*%
%LPC*%
G36*
X1447799Y355199D02*
X1447799Y355199D01*
X1447799Y355201D01*
X1447801Y355201D01*
X1447801Y355199D01*
X1447799Y355199D01*
G37*
%LPD*%
D10*
X1256940Y520700D02*
X1243860Y520700D01*
X1282860Y533400D02*
X1295940Y533400D01*
X1256940Y546100D02*
X1243860Y546100D01*
X1282860Y558800D02*
X1295940Y558800D01*
X1256940Y571500D02*
X1243860Y571500D01*
X1282860Y584200D02*
X1295940Y584200D01*
X1256940Y596900D02*
X1243860Y596900D01*
D11*
X1016000Y533400D03*
X1143000Y533400D03*
X1016000Y584200D03*
X1143000Y584200D03*
D12*
X1096341Y765481D02*
X1076529Y765481D01*
X1096849Y705791D02*
X1116661Y705791D01*
X1116661Y825171D02*
X1096849Y825171D01*
X1218769Y825171D02*
X1238581Y825171D01*
X1238581Y705791D02*
X1218769Y705791D01*
D13*
X1041400Y825500D03*
X1041400Y723900D03*
D14*
X1435800Y508400D02*
X1459800Y508400D01*
X1459800Y558400D02*
X1435800Y558400D01*
X1435800Y406800D02*
X1459800Y406800D01*
X1459800Y456800D02*
X1435800Y456800D01*
D15*
X973443Y457200D02*
X956958Y457200D01*
X956958Y431800D02*
X973443Y431800D01*
X973443Y406400D02*
X956958Y406400D01*
X956958Y381000D02*
X973443Y381000D01*
X973443Y355600D02*
X956958Y355600D01*
X956958Y330200D02*
X973443Y330200D01*
X973443Y304800D02*
X956958Y304800D01*
X956958Y279400D02*
X973443Y279400D01*
X973443Y254000D02*
X956958Y254000D01*
X956958Y228600D02*
X973443Y228600D01*
X1287158Y279400D02*
X1303643Y279400D01*
X1303643Y304800D02*
X1287158Y304800D01*
X1287158Y330200D02*
X1303643Y330200D01*
X1303643Y355600D02*
X1287158Y355600D01*
X1287158Y381000D02*
X1303643Y381000D01*
X1303643Y406400D02*
X1287158Y406400D01*
X1287158Y431800D02*
X1303643Y431800D01*
X1303643Y457200D02*
X1287158Y457200D01*
D16*
X831850Y711200D03*
X831850Y685800D03*
X831850Y660400D03*
X831850Y635000D03*
X831850Y609600D03*
X831850Y584200D03*
X831850Y558800D03*
X831850Y533400D03*
X831850Y508000D03*
X831850Y482600D03*
X831850Y457200D03*
X831850Y431800D03*
X831850Y406400D03*
X831850Y381000D03*
X831850Y355600D03*
X831850Y330200D03*
X831850Y304800D03*
X679450Y711200D03*
X679450Y685800D03*
X679450Y660400D03*
X679450Y635000D03*
X679450Y609600D03*
X679450Y584200D03*
X679450Y558800D03*
X679450Y533400D03*
X679450Y508000D03*
X679450Y482600D03*
X679450Y457200D03*
X679450Y431800D03*
X679450Y406400D03*
X679450Y381000D03*
X679450Y355600D03*
X679450Y330200D03*
X679450Y304800D03*
D11*
X1016000Y495300D03*
X1143000Y495300D03*
D17*
X1143000Y622300D03*
X1016000Y622300D03*
D14*
X1435800Y305200D02*
X1459800Y305200D01*
X1459800Y355200D02*
X1435800Y355200D01*
X1435800Y203600D02*
X1459800Y203600D01*
X1459800Y253600D02*
X1435800Y253600D01*
D18*
X927100Y697992D02*
X927100Y711200D01*
X952500Y711200D02*
X952500Y697992D01*
X952500Y787400D02*
X952500Y800608D01*
X927100Y800608D02*
X927100Y787400D01*
D19*
X990600Y800100D03*
X990600Y673100D03*
D11*
X1107214Y660400D03*
X1234214Y660400D03*
D17*
X742950Y209550D03*
X615950Y209550D03*
D20*
X606552Y635000D02*
X625348Y635000D01*
X625348Y609600D02*
X606552Y609600D01*
X606552Y584200D02*
X625348Y584200D01*
X742950Y149098D02*
X742950Y130302D01*
X717550Y130302D02*
X717550Y149098D01*
X876300Y142748D02*
X876300Y123952D01*
X901700Y123952D02*
X901700Y142748D01*
X958850Y142748D02*
X958850Y123952D01*
X984250Y123952D02*
X984250Y142748D01*
X625348Y533400D02*
X606552Y533400D01*
X606552Y508000D02*
X625348Y508000D01*
X625348Y482600D02*
X606552Y482600D01*
D21*
X1219200Y514350D03*
X654050Y590550D03*
D22*
X1016000Y419100D03*
X1219200Y596900D03*
X908050Y247650D03*
X908050Y266700D03*
X908050Y285750D03*
X908050Y323850D03*
X908050Y342900D03*
X908050Y361950D03*
X908050Y400050D03*
X908050Y419100D03*
X895350Y444500D03*
X876300Y463550D03*
X857250Y482600D03*
X800100Y450850D03*
X793750Y520700D03*
X660400Y482600D03*
X654050Y628650D03*
X615950Y654050D03*
X615950Y558800D03*
X660400Y381000D03*
X698500Y381000D03*
X831850Y234950D03*
X831850Y171450D03*
X831850Y139700D03*
X952500Y171450D03*
X971550Y171450D03*
X990600Y171450D03*
X1016000Y139700D03*
X1263650Y330200D03*
X1263650Y355600D03*
X1327150Y330200D03*
X1327150Y355600D03*
X908050Y304800D03*
X939800Y228600D03*
X990600Y228600D03*
X990600Y279400D03*
X939800Y279400D03*
X1352550Y482600D03*
X1377950Y482600D03*
X1352550Y431800D03*
X1377950Y431800D03*
X1352550Y368300D03*
X1377950Y368300D03*
X1352550Y336550D03*
X1377950Y336550D03*
X1352550Y273050D03*
X1377950Y273050D03*
X1377950Y533400D03*
X1352550Y533400D03*
X1352550Y228600D03*
X1371600Y228600D03*
X736600Y330200D03*
X1352550Y177800D03*
X1371600Y177800D03*
X736600Y381000D03*
X869950Y361950D03*
X869950Y406400D03*
X812800Y438150D03*
X812800Y393700D03*
X787400Y393700D03*
X774700Y393700D03*
X869950Y234950D03*
X869950Y171450D03*
X1168400Y558800D03*
X1225550Y558800D03*
X1314450Y571500D03*
X1314450Y546100D03*
X1409700Y628650D03*
X1447800Y596900D03*
X971550Y800100D03*
X1009650Y800100D03*
X615950Y228600D03*
X908050Y228600D03*
X800100Y393700D03*
D23*
X1234214Y660400D02*
X1228675Y705791D01*
X1234214Y660400D02*
X1308100Y660400D01*
D24*
X1308100Y660400D03*
D23*
X1488240Y660400D01*
X1500940Y647700D01*
X1498600Y304800D02*
X1447800Y305200D01*
X1498600Y304800D02*
X1500940Y307140D01*
X1500940Y647700D01*
X1314050Y279400D02*
X1295400Y279400D01*
X1314050Y279400D02*
X1339850Y305200D01*
X1447800Y305200D01*
X1181100Y732125D02*
X1086435Y765481D01*
X1181100Y622300D02*
X1282700Y622300D01*
X1181100Y622300D02*
X1181100Y732125D01*
X1282700Y622300D02*
X1289400Y584200D01*
D25*
X806450Y660400D02*
X806450Y768350D01*
X869950Y768350D01*
X927100Y711200D01*
X831850Y635000D02*
X806450Y660400D01*
D23*
X1295400Y381000D02*
X1314450Y400050D01*
X1441050Y400050D02*
X1447800Y406800D01*
X1441050Y400050D02*
X1314450Y400050D01*
D26*
X1314386Y431800D02*
X1295400Y431800D01*
D23*
X1447156Y456156D02*
X1447800Y456800D01*
X1338742Y456156D02*
X1314386Y431800D01*
X1338742Y456156D02*
X1447156Y456156D01*
D27*
X965200Y381000D02*
X875109Y381000D01*
X837081Y419028D01*
X774700Y419028D01*
X774700Y539750D01*
X679450Y635000D01*
D25*
X628650Y584200D02*
X615950Y584200D01*
D22*
X628650Y584200D03*
D28*
X876300Y152400D02*
X876300Y133350D01*
X876300Y152400D02*
X889000Y165100D01*
X914400Y165100D01*
X946150Y133350D02*
X958850Y133350D01*
X946150Y133350D02*
X914400Y165100D01*
X984250Y133350D02*
X984250Y120650D01*
X920750Y133350D02*
X901700Y133350D01*
X920750Y133350D02*
X952500Y101600D01*
X965200Y101600D01*
X984250Y120650D01*
D26*
X787400Y355600D02*
X679450Y355600D01*
X787400Y355600D02*
X787400Y222250D01*
X806450Y203200D01*
X1447400Y203200D01*
X1447800Y203600D01*
D28*
X1289400Y533400D02*
X1165115Y533400D01*
X1050815Y647700D01*
X895350Y647700D01*
X831850Y711200D01*
D29*
X679450Y508000D02*
X615950Y508000D01*
M02*
