M48
;GenerationSoftware,Autodesk,EAGLE,9.1.3*%
;CreationDate,2018-09-15T00:02:41Z*%
FMAT,2
ICI,OFF
METRIC,TZ,000.000
T10C0.350
T9C0.800
T8C0.813
T7C0.900
T6C1.048
T5C1.118
T4C1.200
T3C1.321
T2C1.600
T1C4.000
%
G90
M71
T1
X63500Y13335
X145415Y13335
X145415Y81915
X63500Y81915
T2
X144780Y20360
X144780Y55840
X144780Y40680
X144780Y45680
X144780Y50840
X144780Y25360
X144780Y35520
X144780Y30520
T3
X122868Y70579
X122868Y82517
X110676Y82517
X110676Y70579
X108644Y76548
T4
X67945Y27940
X83185Y27940
X67945Y73660
X83185Y73660
T5
X104140Y72390
X61595Y50800
X61595Y53340
X98425Y13335
X95885Y13335
X90170Y13335
X87630Y13335
X71755Y13970
X74295Y13970
X61595Y58420
X61595Y60960
X61595Y63500
X61595Y48260
X104140Y82550
T6
X129540Y33020
X129540Y45720
X129540Y43180
X129540Y40640
X129540Y38100
X129540Y35560
X129540Y30480
X96520Y22860
X96520Y25400
X96520Y27940
X96520Y30480
X96520Y35560
X96520Y38100
X96520Y40640
X96520Y43180
X129540Y27940
X96520Y45720
X96520Y33020
T7
X83185Y53340
X83185Y55880
X83185Y58420
X83185Y60960
X83185Y63500
X83185Y66040
X83185Y68580
X83185Y71120
X67945Y43180
X67945Y71120
X67945Y30480
X67945Y33020
X67945Y35560
X83185Y40640
X67945Y38100
X67945Y40640
X67945Y45720
X67945Y48260
X67945Y50800
X83185Y48260
X83185Y38100
X83185Y50800
X83185Y33020
X83185Y43180
X83185Y30480
X67945Y68580
X67945Y66040
X83185Y35560
X67945Y60960
X67945Y58420
X67945Y55880
X67945Y53340
X83185Y45720
X67945Y63500
T8
X99060Y67310
X110721Y66040
X123421Y66040
X74295Y20955
X61595Y20955
X101600Y53340
X114300Y53340
X101600Y58420
X114300Y58420
X101600Y49530
X114300Y49530
X114300Y62230
X101600Y62230
X92710Y71120
X95250Y71120
X95250Y78740
X92710Y78740
X99060Y80010
T9
X125040Y59690
X128940Y58420
X125040Y57150
X128940Y55880
X125040Y54610
X128940Y53340
X125040Y52070
T10
X122555Y55880
X116840Y55880
X86995Y17145
X86995Y23495
X77470Y39370
X97155Y80010
X78740Y39370
X81280Y39370
X81280Y43815
X86995Y40640
X86995Y36195
X73660Y38100
X137160Y17780
X135255Y17780
X73660Y33020
X137160Y22860
X135255Y22860
X135255Y53340
X137795Y53340
X137795Y27305
X135255Y27305
X137795Y33655
X135255Y33655
X137795Y36830
X135255Y36830
X137795Y43180
X135255Y43180
X137795Y48260
X135255Y48260
X93980Y27940
X99060Y27940
X99060Y22860
X93980Y22860
X90805Y30480
X132715Y35560
X132715Y33020
X126365Y35560
X126365Y33020
X101600Y13970
X99060Y17145
X97155Y17145
X95250Y17145
X83185Y13970
X83185Y17145
X69850Y38100
X66040Y38100
X61595Y55880
X121920Y51435
X65405Y59055
X101600Y41910
X121920Y59690
X61595Y65405
X65405Y62865
X83185Y23495
X66040Y48260
X90805Y24765
X131445Y54610
X131445Y57150
X62865Y58420
X80010Y39370
X90805Y22860
X61595Y22860
X100965Y80010
X144780Y59690
X140970Y62865
X79375Y52070
X80010Y45085
X85725Y48260
X87630Y46355
X89535Y44450
X90805Y41910
X90805Y40005
X90805Y36195
X90805Y34290
X90805Y32385
X90805Y28575
X90805Y26670
M30