G04 EAGLE Gerber RS-274X export*
G75*
%MOMM*%
%FSLAX34Y34*%
%LPD*%
%INSoldermask Top*%
%IPPOS*%
%AMOC8*
5,1,8,0,0,1.08239X$1,22.5*%
G01*
%ADD10C,2.603200*%
%ADD11C,2.082800*%
%ADD12C,1.851700*%
%ADD13C,1.727200*%
%ADD14C,2.743200*%
%ADD15P,2.969212X8X292.500000*%
%ADD16P,1.649562X8X202.500000*%
%ADD17P,1.649562X8X292.500000*%
%ADD18P,1.649562X8X112.500000*%
%ADD19P,1.649562X8X22.500000*%
%ADD20C,1.828800*%
%ADD21P,2.969212X8X22.500000*%
%ADD22P,2.969212X8X112.500000*%
%ADD23P,2.969212X8X202.500000*%
%ADD24C,4.303200*%
%ADD25C,1.511200*%
%ADD26P,2.034460X8X292.500000*%
%ADD27P,2.034460X8X112.500000*%
%ADD28P,2.281895X8X202.500000*%
%ADD29P,2.281895X8X22.500000*%
%ADD30C,0.959600*%
%ADD31C,1.009600*%


D10*
X476650Y89600D02*
X476650Y113600D01*
X526650Y113600D02*
X526650Y89600D01*
X375050Y89600D02*
X375050Y113600D01*
X425050Y113600D02*
X425050Y89600D01*
D11*
X152400Y1244600D03*
X152400Y1219200D03*
X152400Y1193800D03*
X152400Y1168400D03*
X152400Y1143000D03*
X152400Y1117600D03*
X152400Y1092200D03*
X152400Y1066800D03*
X152400Y1041400D03*
X152400Y1016000D03*
X152400Y990600D03*
X152400Y965200D03*
X330200Y965200D03*
X330200Y990600D03*
X330200Y1016000D03*
X330200Y1041400D03*
X330200Y1066800D03*
X330200Y1092200D03*
X330200Y1117600D03*
X330200Y1143000D03*
X330200Y1168400D03*
X330200Y1193800D03*
X330200Y1219200D03*
X330200Y1244600D03*
X152400Y939800D03*
X152400Y914400D03*
X152400Y889000D03*
X152400Y863600D03*
X152400Y838200D03*
X152400Y812800D03*
X330200Y812800D03*
X330200Y838200D03*
X330200Y863600D03*
X330200Y889000D03*
X330200Y914400D03*
X330200Y939800D03*
D12*
X438150Y567043D02*
X438150Y550558D01*
X412750Y550558D02*
X412750Y567043D01*
X387350Y567043D02*
X387350Y550558D01*
X361950Y550558D02*
X361950Y567043D01*
X336550Y567043D02*
X336550Y550558D01*
X311150Y550558D02*
X311150Y567043D01*
X285750Y567043D02*
X285750Y550558D01*
X260350Y550558D02*
X260350Y567043D01*
X234950Y567043D02*
X234950Y550558D01*
X209550Y550558D02*
X209550Y567043D01*
X260350Y211443D02*
X260350Y194958D01*
X285750Y194958D02*
X285750Y211443D01*
X311150Y211443D02*
X311150Y194958D01*
X336550Y194958D02*
X336550Y211443D01*
X361950Y211443D02*
X361950Y194958D01*
X387350Y194958D02*
X387350Y211443D01*
X412750Y211443D02*
X412750Y194958D01*
X438150Y194958D02*
X438150Y211443D01*
D10*
X273450Y113600D02*
X273450Y89600D01*
X323450Y89600D02*
X323450Y113600D01*
X171850Y113600D02*
X171850Y89600D01*
X221850Y89600D02*
X221850Y113600D01*
X100900Y1387075D02*
X76900Y1387075D01*
X76900Y1337075D02*
X100900Y1337075D01*
D13*
X773430Y836930D02*
X788670Y836930D01*
X788670Y864870D02*
X773430Y864870D01*
X773430Y760730D02*
X788670Y760730D01*
X788670Y788670D02*
X773430Y788670D01*
X64770Y1117600D02*
X49530Y1117600D01*
X46990Y1092200D02*
X62230Y1092200D01*
X64770Y1066800D02*
X49530Y1066800D01*
X49530Y1016000D02*
X64770Y1016000D01*
X62230Y990600D02*
X46990Y990600D01*
X49530Y965200D02*
X64770Y965200D01*
D11*
X755650Y581025D03*
X781050Y581025D03*
X755650Y555625D03*
X781050Y555625D03*
X755650Y530225D03*
X781050Y530225D03*
X755650Y504825D03*
X781050Y504825D03*
X755650Y479425D03*
X781050Y479425D03*
D13*
X600075Y1043305D02*
X600075Y1058545D01*
X625475Y1058545D02*
X625475Y1043305D01*
X650875Y1043305D02*
X650875Y1058545D01*
D14*
X517525Y1050925D03*
D15*
X517525Y1000125D03*
D14*
X771525Y1050925D03*
D15*
X771525Y1000125D03*
D16*
X565150Y901700D03*
X577850Y882650D03*
X590550Y901700D03*
D17*
X527050Y901700D03*
X527050Y774700D03*
D18*
X708025Y876300D03*
X708025Y1003300D03*
D16*
X565150Y838200D03*
X577850Y819150D03*
X590550Y838200D03*
D18*
X508000Y841375D03*
X508000Y968375D03*
X739775Y838200D03*
X739775Y965200D03*
D13*
X62865Y920750D02*
X47625Y920750D01*
X45085Y895350D02*
X60325Y895350D01*
X62865Y869950D02*
X47625Y869950D01*
X45085Y844550D02*
X60325Y844550D01*
X62865Y819150D02*
X47625Y819150D01*
X45085Y793750D02*
X60325Y793750D01*
X62865Y768350D02*
X47625Y768350D01*
X45085Y742950D02*
X60325Y742950D01*
D19*
X688975Y701675D03*
X815975Y701675D03*
X688975Y660400D03*
X815975Y660400D03*
D18*
X361950Y647700D03*
X361950Y774700D03*
D17*
X279400Y723900D03*
X279400Y596900D03*
D18*
X555625Y1184021D03*
X555625Y1133729D03*
X581025Y1158875D03*
X557213Y1287209D03*
X557213Y1236917D03*
X582613Y1262063D03*
D20*
X701675Y1217613D03*
X701675Y1192213D03*
X777875Y1192213D03*
X777875Y1217613D03*
X701675Y1166813D03*
X701675Y1141413D03*
X777875Y1166813D03*
X777875Y1141413D03*
D14*
X625475Y1303338D03*
D21*
X676275Y1303338D03*
D18*
X814388Y1119188D03*
X814388Y1169988D03*
D14*
X750888Y1290638D03*
D22*
X750888Y1341438D03*
D17*
X817563Y1357313D03*
X817563Y1230313D03*
D14*
X601663Y1362075D03*
D23*
X550863Y1362075D03*
D13*
X64770Y1189355D02*
X49530Y1189355D01*
X49530Y1217295D02*
X64770Y1217295D01*
D24*
X60000Y1940000D03*
X780000Y1940000D03*
X60000Y60000D03*
X780000Y60000D03*
D25*
X519344Y561615D02*
X528593Y570864D01*
X564514Y534943D02*
X555265Y525694D01*
X627107Y597536D02*
X636356Y606785D01*
X600435Y642706D02*
X591186Y633457D01*
D10*
X750000Y330600D02*
X774000Y330600D01*
X774000Y380600D02*
X750000Y380600D01*
D13*
X594995Y328930D02*
X579755Y328930D01*
X579755Y356870D02*
X594995Y356870D01*
X518795Y328930D02*
X503555Y328930D01*
X503555Y356870D02*
X518795Y356870D01*
X617855Y328930D02*
X633095Y328930D01*
X633095Y356870D02*
X617855Y356870D01*
X556895Y328930D02*
X541655Y328930D01*
X541655Y356870D02*
X556895Y356870D01*
D11*
X115570Y1244600D03*
X113030Y1219200D03*
X115570Y1193800D03*
X113030Y1168400D03*
X115570Y1143000D03*
X113030Y1117600D03*
X115570Y1092200D03*
X113030Y1066800D03*
X115570Y1041400D03*
X115570Y1016000D03*
X113030Y990600D03*
X115570Y965200D03*
X113030Y939800D03*
X115570Y914400D03*
X113030Y889000D03*
X115570Y863600D03*
X113030Y838200D03*
X115570Y812800D03*
X372745Y1244600D03*
X370205Y1219200D03*
X372745Y1193800D03*
X370205Y1168400D03*
X372745Y1143000D03*
X370205Y1117600D03*
X372745Y1092200D03*
X370205Y1066800D03*
X372745Y1041400D03*
X372745Y1016000D03*
X370205Y990600D03*
X372745Y965200D03*
X370205Y939800D03*
X372745Y914400D03*
X370205Y889000D03*
X372745Y863600D03*
X370205Y838200D03*
X372745Y812800D03*
D26*
X482600Y584200D03*
X482600Y482600D03*
D27*
X587375Y381000D03*
X587375Y482600D03*
X511175Y381000D03*
X511175Y482600D03*
X625475Y381000D03*
X625475Y482600D03*
X549275Y381000D03*
X549275Y482600D03*
D28*
X663575Y984250D03*
X625475Y984250D03*
X587375Y984250D03*
D18*
X463550Y1330071D03*
X463550Y1279779D03*
X488950Y1304925D03*
D14*
X654050Y1209675D03*
D15*
X654050Y1158875D03*
D16*
X584200Y1209675D03*
X533400Y1209675D03*
D29*
X304800Y1330325D03*
X342900Y1330325D03*
X381000Y1330325D03*
D30*
X228600Y793750D03*
X254000Y584200D03*
X266700Y533400D03*
X266700Y584200D03*
X254000Y533400D03*
X209550Y133350D03*
X234950Y133350D03*
X209550Y69850D03*
X234950Y69850D03*
X222250Y63500D03*
X222250Y139700D03*
X311150Y133350D03*
X336550Y133350D03*
X311150Y69850D03*
X336550Y69850D03*
X323850Y139700D03*
X323850Y63500D03*
X304800Y101600D03*
X342900Y101600D03*
X311150Y225425D03*
X336550Y225425D03*
X323850Y222250D03*
X311150Y180975D03*
X323850Y184150D03*
X336550Y180975D03*
X228600Y1250950D03*
X215900Y1225550D03*
X228600Y1225550D03*
X454025Y1244600D03*
X463550Y1235075D03*
X473075Y1225550D03*
X482600Y1216025D03*
X488950Y1025525D03*
X542925Y1025525D03*
X746125Y1025525D03*
X796925Y1025525D03*
X533400Y1089025D03*
X625475Y1028700D03*
X98425Y1263650D03*
X19050Y1241425D03*
X317500Y793750D03*
X355600Y793750D03*
X133350Y1181100D03*
X57150Y1028700D03*
X260350Y993775D03*
X234950Y993775D03*
X276225Y1022350D03*
X203200Y993775D03*
X57150Y1133475D03*
X41275Y1104900D03*
X60325Y1203325D03*
X66675Y1162050D03*
X279400Y793750D03*
X317500Y977900D03*
X403225Y977900D03*
X276225Y1060450D03*
X412750Y1181100D03*
X609600Y857250D03*
X647700Y857250D03*
X685800Y857250D03*
X723900Y857250D03*
X571500Y1089025D03*
X609600Y1089025D03*
X647700Y1089025D03*
X685800Y1089025D03*
X723900Y1089025D03*
X762000Y1089025D03*
X400050Y165100D03*
X400050Y184150D03*
X400050Y146050D03*
X450850Y120650D03*
X450850Y82550D03*
X501650Y120650D03*
X501650Y82550D03*
X463550Y177800D03*
X533400Y165100D03*
X323850Y577850D03*
X260350Y654050D03*
X361950Y425450D03*
X381000Y596900D03*
X330200Y654050D03*
X301625Y533400D03*
X387350Y1181100D03*
X209550Y466725D03*
X361950Y457200D03*
X412750Y1117600D03*
X755650Y857250D03*
X781050Y739775D03*
X803275Y771525D03*
X781050Y885825D03*
X800100Y850900D03*
X771525Y812800D03*
X793750Y812800D03*
X41275Y654050D03*
X76200Y590550D03*
X498475Y1095375D03*
X104775Y520700D03*
X73025Y552450D03*
X88900Y1304925D03*
X41275Y882650D03*
X41275Y857250D03*
X41275Y831850D03*
X41275Y806450D03*
X41275Y781050D03*
X431800Y596900D03*
X368300Y793750D03*
X576263Y1141413D03*
X560388Y1204913D03*
X428625Y927100D03*
X463550Y889000D03*
X590550Y682625D03*
X800100Y555625D03*
X736600Y555625D03*
X796925Y504825D03*
X796925Y479425D03*
X781050Y463550D03*
X565150Y647700D03*
X676275Y517525D03*
X676275Y492125D03*
X555625Y819150D03*
X600075Y819150D03*
X577850Y777875D03*
X727075Y682625D03*
X781050Y708025D03*
X676275Y682625D03*
X250825Y1266825D03*
X250825Y1301750D03*
X120650Y1336675D03*
X57150Y1336675D03*
X130175Y1368425D03*
X444500Y1000125D03*
X492125Y946150D03*
X41275Y755650D03*
X203200Y1225550D03*
X190500Y1225550D03*
X177800Y1225550D03*
X41275Y908050D03*
X41275Y1003300D03*
X165100Y1212850D03*
X165100Y1225550D03*
X269875Y1225550D03*
X301625Y1225550D03*
X165100Y1181100D03*
X165100Y1155700D03*
X165100Y1130300D03*
X165100Y1104900D03*
X165100Y1079500D03*
X165100Y1054100D03*
X165100Y1028700D03*
X165100Y1003300D03*
X165100Y977900D03*
X165100Y952500D03*
X165100Y927100D03*
X165100Y901700D03*
X165100Y876300D03*
X165100Y850900D03*
X165100Y825500D03*
X317500Y825500D03*
X317500Y850900D03*
X317500Y876300D03*
X317500Y901700D03*
X317500Y927100D03*
X317500Y952500D03*
X317500Y1079500D03*
X317500Y1104900D03*
X317500Y1130300D03*
X317500Y1155700D03*
X317500Y1181100D03*
X317500Y1206500D03*
X387350Y927100D03*
X387350Y901700D03*
X387350Y876300D03*
X387350Y850900D03*
X387350Y952500D03*
X396875Y952500D03*
X387350Y977900D03*
X317500Y1054100D03*
X317500Y1028700D03*
X317500Y1003300D03*
X301625Y1047750D03*
X288925Y1035050D03*
X263525Y1009650D03*
X260350Y974725D03*
X260350Y466725D03*
X307975Y466725D03*
X209550Y498475D03*
X104775Y561975D03*
X149225Y520700D03*
X146050Y473075D03*
X149225Y669925D03*
X193675Y688975D03*
X107950Y774700D03*
X82550Y739775D03*
X592138Y1179513D03*
X614363Y1179513D03*
X731838Y334963D03*
X731838Y325438D03*
X792163Y325438D03*
X792163Y334963D03*
X549275Y314325D03*
X511175Y314325D03*
X587375Y314325D03*
X625475Y314325D03*
X625475Y339725D03*
X750888Y1316038D03*
X750888Y1363663D03*
X750888Y1268413D03*
X546100Y571500D03*
X387350Y825500D03*
X53975Y942975D03*
X387350Y1155700D03*
X133350Y1219200D03*
X663575Y742950D03*
X565150Y552450D03*
X612775Y619125D03*
X492125Y1206500D03*
X492125Y1193800D03*
X492125Y1143000D03*
X492125Y1130300D03*
X492125Y1117600D03*
X492125Y1104900D03*
X508000Y1085850D03*
X454025Y1117600D03*
X454025Y1130300D03*
X454025Y1143000D03*
X454025Y1155700D03*
X454025Y1168400D03*
X454025Y1181100D03*
X492125Y1155700D03*
X492125Y1168400D03*
X492125Y1181100D03*
X282575Y1285875D03*
D31*
X671513Y1192213D03*
M02*
