G04 EAGLE Gerber RS-274X export*
G75*
%MOMM*%
%FSLAX34Y34*%
%LPD*%
%INSoldermask Bottom*%
%IPPOS*%
%AMOC8*
5,1,8,0,0,1.08239X$1,22.5*%
G01*
%ADD10C,2.603200*%
%ADD11C,2.082800*%
%ADD12C,1.851700*%
%ADD13C,1.727200*%
%ADD14C,2.743200*%
%ADD15P,2.969212X8X292.500000*%
%ADD16P,1.649562X8X202.500000*%
%ADD17P,1.649562X8X292.500000*%
%ADD18P,1.649562X8X112.500000*%
%ADD19P,1.649562X8X22.500000*%
%ADD20C,1.828800*%
%ADD21P,2.969212X8X22.500000*%
%ADD22P,2.969212X8X202.500000*%
%ADD23C,4.303200*%
%ADD24C,0.959600*%


D10*
X476650Y89600D02*
X476650Y113600D01*
X526650Y113600D02*
X526650Y89600D01*
X375050Y89600D02*
X375050Y113600D01*
X425050Y113600D02*
X425050Y89600D01*
D11*
X209550Y1244600D03*
X209550Y1219200D03*
X209550Y1193800D03*
X209550Y1168400D03*
X209550Y1143000D03*
X209550Y1117600D03*
X209550Y1092200D03*
X209550Y1066800D03*
X209550Y1041400D03*
X209550Y1016000D03*
X209550Y990600D03*
X209550Y965200D03*
X387350Y965200D03*
X387350Y990600D03*
X387350Y1016000D03*
X387350Y1041400D03*
X387350Y1066800D03*
X387350Y1092200D03*
X387350Y1117600D03*
X387350Y1143000D03*
X387350Y1168400D03*
X387350Y1193800D03*
X387350Y1219200D03*
X387350Y1244600D03*
X209550Y939800D03*
X209550Y914400D03*
X209550Y889000D03*
X209550Y863600D03*
X209550Y838200D03*
X209550Y812800D03*
X387350Y812800D03*
X387350Y838200D03*
X387350Y863600D03*
X387350Y889000D03*
X387350Y914400D03*
X387350Y939800D03*
D12*
X438150Y554343D02*
X438150Y537858D01*
X412750Y537858D02*
X412750Y554343D01*
X387350Y554343D02*
X387350Y537858D01*
X361950Y537858D02*
X361950Y554343D01*
X336550Y554343D02*
X336550Y537858D01*
X311150Y537858D02*
X311150Y554343D01*
X285750Y554343D02*
X285750Y537858D01*
X260350Y537858D02*
X260350Y554343D01*
X234950Y554343D02*
X234950Y537858D01*
X209550Y537858D02*
X209550Y554343D01*
X260350Y224143D02*
X260350Y207658D01*
X285750Y207658D02*
X285750Y224143D01*
X311150Y224143D02*
X311150Y207658D01*
X336550Y207658D02*
X336550Y224143D01*
X361950Y224143D02*
X361950Y207658D01*
X387350Y207658D02*
X387350Y224143D01*
X412750Y224143D02*
X412750Y207658D01*
X438150Y207658D02*
X438150Y224143D01*
D10*
X273450Y113600D02*
X273450Y89600D01*
X323450Y89600D02*
X323450Y113600D01*
X171850Y113600D02*
X171850Y89600D01*
X221850Y89600D02*
X221850Y113600D01*
X100900Y1387075D02*
X76900Y1387075D01*
X76900Y1337075D02*
X100900Y1337075D01*
D13*
X773430Y836930D02*
X788670Y836930D01*
X788670Y864870D02*
X773430Y864870D01*
X773430Y760730D02*
X788670Y760730D01*
X788670Y788670D02*
X773430Y788670D01*
X93345Y1143000D02*
X78105Y1143000D01*
X75565Y1117600D02*
X90805Y1117600D01*
X93345Y1092200D02*
X78105Y1092200D01*
X81280Y1016000D02*
X96520Y1016000D01*
X93980Y990600D02*
X78740Y990600D01*
X81280Y965200D02*
X96520Y965200D01*
D11*
X755650Y581025D03*
X781050Y581025D03*
X755650Y555625D03*
X781050Y555625D03*
X755650Y530225D03*
X781050Y530225D03*
X755650Y504825D03*
X781050Y504825D03*
X755650Y479425D03*
X781050Y479425D03*
D13*
X600075Y1043305D02*
X600075Y1058545D01*
X625475Y1058545D02*
X625475Y1043305D01*
X650875Y1043305D02*
X650875Y1058545D01*
D14*
X517525Y1050925D03*
D15*
X517525Y1000125D03*
D14*
X771525Y1050925D03*
D15*
X771525Y1000125D03*
D16*
X565150Y901700D03*
X577850Y882650D03*
X590550Y901700D03*
D17*
X527050Y901700D03*
X527050Y774700D03*
D18*
X692150Y876300D03*
X692150Y1003300D03*
D16*
X565150Y838200D03*
X577850Y819150D03*
X590550Y838200D03*
D18*
X508000Y841375D03*
X508000Y968375D03*
X641350Y838200D03*
X641350Y965200D03*
D13*
X107315Y914400D02*
X92075Y914400D01*
X89535Y889000D02*
X104775Y889000D01*
X107315Y863600D02*
X92075Y863600D01*
X89535Y838200D02*
X104775Y838200D01*
X107315Y812800D02*
X92075Y812800D01*
X89535Y787400D02*
X104775Y787400D01*
X107315Y762000D02*
X92075Y762000D01*
X89535Y736600D02*
X104775Y736600D01*
D19*
X688975Y698500D03*
X815975Y698500D03*
X688975Y663575D03*
X815975Y663575D03*
D18*
X406400Y596900D03*
X406400Y723900D03*
D17*
X279400Y723900D03*
X279400Y596900D03*
D18*
X546100Y1206246D03*
X546100Y1155954D03*
X571500Y1181100D03*
X544513Y1290384D03*
X544513Y1240092D03*
X569913Y1265238D03*
D20*
X612775Y1217613D03*
X612775Y1192213D03*
X688975Y1192213D03*
X688975Y1217613D03*
X612775Y1166813D03*
X612775Y1141413D03*
X688975Y1166813D03*
X688975Y1141413D03*
D14*
X622300Y1303338D03*
D21*
X673100Y1303338D03*
D19*
X731838Y1141413D03*
X782638Y1141413D03*
D14*
X719138Y1277938D03*
D21*
X769938Y1277938D03*
D17*
X808038Y1268413D03*
X808038Y1141413D03*
D14*
X525463Y1352550D03*
D22*
X474663Y1352550D03*
D13*
X93345Y1189355D02*
X78105Y1189355D01*
X78105Y1217295D02*
X93345Y1217295D01*
D23*
X60000Y1940000D03*
X780000Y1940000D03*
X60000Y60000D03*
X780000Y60000D03*
D24*
X228600Y793750D03*
X254000Y571500D03*
X266700Y514350D03*
X266700Y571500D03*
X254000Y514350D03*
X209550Y139700D03*
X234950Y139700D03*
X209550Y69850D03*
X234950Y69850D03*
X222250Y63500D03*
X222250Y146050D03*
X311150Y139700D03*
X336550Y139700D03*
X311150Y69850D03*
X336550Y69850D03*
X323850Y146050D03*
X323850Y63500D03*
X304800Y101600D03*
X342900Y101600D03*
X311150Y241300D03*
X336550Y241300D03*
X323850Y247650D03*
X311150Y190500D03*
X323850Y184150D03*
X336550Y190500D03*
X190500Y1212850D03*
X228600Y1212850D03*
X228600Y1225550D03*
X368300Y1174750D03*
X368300Y1162050D03*
X406400Y1162050D03*
X406400Y1174750D03*
X488950Y1025525D03*
X542925Y1025525D03*
X746125Y1025525D03*
X796925Y1025525D03*
X533400Y1089025D03*
X625475Y1028700D03*
X111125Y1231900D03*
X25400Y1273175D03*
X317500Y793750D03*
X355600Y793750D03*
X171450Y1136650D03*
X171450Y1098550D03*
X184150Y968375D03*
X184150Y1009650D03*
X117475Y968375D03*
X117475Y1009650D03*
X117475Y1098550D03*
X117475Y1136650D03*
X25400Y1143000D03*
X22225Y1016000D03*
X279400Y793750D03*
X317500Y977900D03*
X355600Y977900D03*
X279400Y977900D03*
X228600Y977900D03*
X419100Y1089025D03*
X609600Y857250D03*
X647700Y857250D03*
X685800Y857250D03*
X723900Y857250D03*
X571500Y1089025D03*
X609600Y1089025D03*
X647700Y1089025D03*
X685800Y1089025D03*
X723900Y1089025D03*
X762000Y1089025D03*
X400050Y165100D03*
X400050Y184150D03*
X400050Y146050D03*
X450850Y120650D03*
X450850Y82550D03*
X501650Y120650D03*
X501650Y82550D03*
X463550Y177800D03*
X533400Y165100D03*
X323850Y577850D03*
X266700Y641350D03*
X393700Y514350D03*
X412750Y571500D03*
X323850Y660400D03*
X323850Y514350D03*
X285750Y476250D03*
X209550Y457200D03*
X361950Y457200D03*
X454025Y1089025D03*
X755650Y857250D03*
X781050Y739775D03*
X803275Y771525D03*
X781050Y885825D03*
X800100Y850900D03*
X771525Y812800D03*
X793750Y812800D03*
X38100Y654050D03*
X95250Y654050D03*
X495300Y1089025D03*
X95250Y508000D03*
X44450Y558800D03*
X88900Y1304925D03*
X120650Y901700D03*
X120650Y876300D03*
X120650Y850900D03*
X120650Y825500D03*
X120650Y793750D03*
X431800Y596900D03*
X406400Y742950D03*
X576263Y1141413D03*
X544513Y1223963D03*
X769938Y1258888D03*
X703263Y1223963D03*
X425450Y923925D03*
X463550Y885825D03*
X590550Y682625D03*
X800100Y555625D03*
X736600Y555625D03*
X796925Y504825D03*
X796925Y479425D03*
X781050Y463550D03*
X565150Y647700D03*
X676275Y517525D03*
X676275Y492125D03*
X555625Y819150D03*
X600075Y819150D03*
X577850Y777875D03*
X727075Y682625D03*
X781050Y708025D03*
X676275Y682625D03*
X282575Y1266825D03*
X282575Y1219200D03*
X282575Y1308100D03*
X123825Y1333500D03*
X53975Y1333500D03*
X133350Y1371600D03*
X447675Y993775D03*
X492125Y946150D03*
X282575Y1285875D03*
X815975Y469900D03*
X285750Y511175D03*
M02*
