M48
;GenerationSoftware,Autodesk,EAGLE,9.2.0*%
;CreationDate,2018-12-04T02:34:54Z*%
FMAT,2
ICI,OFF
METRIC,TZ,000.000
T12C0.350
T11C0.795
T10C0.800
T9C0.813
T8C0.900
T7C0.914
T6C1.016
T5C1.048
T4C1.118
T3C1.200
T2C1.600
T1C4.000
%
G90
M71
T1
X88900Y76200
X6350Y76200
X6350Y6350
X88900Y6350
T2
X87630Y19010
X61595Y67945
X87630Y14010
X87630Y29170
X87630Y24170
X87630Y39330
X87630Y34330
X87630Y49490
X87630Y44490
X57785Y67945
X69215Y67945
X73025Y67945
T3
X11430Y67310
X26670Y21590
X11430Y21590
X26670Y67310
T4
X17780Y7620
X3175Y52070
X3175Y54610
X3175Y57150
X35560Y6985
X44450Y6985
X41910Y6985
X33020Y6985
X15240Y7620
X3175Y41910
X3175Y44450
X3175Y46990
T5
X42545Y26670
X75565Y24130
X42545Y29210
X42545Y31750
X42545Y34290
X75565Y29210
X75565Y31750
X75565Y34290
X75565Y36830
X75565Y39370
X42545Y39370
X75565Y26670
X75565Y21590
X42545Y16510
X42545Y19050
X42545Y21590
X42545Y24130
X42545Y36830
T6
X8382Y36830
X8128Y34290
X8382Y31750
X8128Y29210
X8128Y24130
X8128Y64770
X8382Y62230
X8128Y59690
X8382Y57150
X8128Y54610
X8382Y52070
X8128Y49530
X29972Y62230
X29718Y59690
X29972Y57150
X29972Y52070
X29718Y49530
X29972Y46990
X29718Y44450
X29972Y41910
X29718Y39370
X29972Y36830
X29718Y34290
X29972Y31750
X29718Y29210
X29718Y54610
X29718Y24130
X29718Y64770
X8382Y26670
X80010Y8255
X8382Y46990
X8128Y44450
X8382Y41910
X8128Y39370
X29972Y26670
T7
X52070Y62865
X52070Y43815
X54610Y43815
X57150Y43815
X57150Y62865
X54610Y62865
T8
X11430Y39370
X11430Y36830
X11430Y34290
X11430Y31750
X11430Y29210
X11430Y26670
X11430Y24130
X26670Y26670
X26670Y64770
X26670Y62230
X26670Y59690
X26670Y57150
X26670Y54610
X26670Y52070
X26670Y49530
X26670Y46990
X26670Y44450
X26670Y41910
X26670Y39370
X26670Y36830
X26670Y34290
X26670Y31750
X26670Y29210
X26670Y24130
X11430Y64770
X11430Y62230
X11430Y59690
X11430Y57150
X11430Y54610
X11430Y52070
X11430Y49530
X11430Y46990
X11430Y44450
X11430Y41910
T9
X46355Y59055
X59055Y59055
X17780Y14605
X7620Y14605
X46355Y47625
X59055Y47625
X59055Y55245
X46355Y55245
X59055Y51435
X46355Y51435
X44495Y47670
X35515Y38690
X34880Y45675
X43860Y54655
X27305Y72390
X37465Y72390
X27305Y76835
X37465Y76835
X71755Y73025
X61595Y73025
T10
X68525Y53340
X72425Y52070
X68525Y50800
X72425Y49530
X68525Y48260
X72425Y46990
X68525Y45720
X47407Y72608
X46060Y74853
X42019Y77996
X43815Y76200
T11
X65405Y65405
T12
X35560Y43180
X1905Y59055
X4445Y59055
X5080Y31750
X13335Y31750
X26670Y17145
X26670Y10795
X21590Y12700
X41910Y10795
X43180Y10795
X44450Y10795
X46355Y7620
X73025Y26670
X73025Y29210
X78105Y26670
X78105Y29210
X36830Y24130
X40005Y16510
X45085Y16510
X40005Y21590
X78740Y41910
X80645Y41910
X78740Y36830
X80645Y36830
X83820Y29845
X87630Y31115
X87630Y26670
X31750Y25400
X31750Y27940
X3175Y39370
X7620Y12700
X3175Y49530
X6985Y25400
X31750Y30480
X31750Y33020
X31750Y35560
X6985Y27940
X6985Y30480
X6985Y33020
X6985Y35560
X6985Y38100
X35560Y60960
X31750Y57785
X31750Y55880
X31750Y53340
X31750Y50800
X48260Y62865
X45720Y60325
X42545Y61595
X65405Y45720
X45085Y34290
X65405Y53340
X36830Y18415
X36195Y55245
X38735Y57785
X40640Y59690
X87630Y46990
X87630Y11430
X87630Y16510
X87630Y21590
X87630Y36830
X87630Y41910
X71755Y71120
X65405Y67310
X40005Y31750
X34290Y44450
X38100Y40640
X36830Y41910
X36830Y31750
X23495Y31750
X36830Y16510
X7620Y16510
X65405Y62865
X71755Y74930
X45085Y21590
X88265Y53340
X84455Y56515
X74930Y48260
X74930Y50800
X66040Y49530
X62865Y49530
X30480Y10795
X30480Y17145
X20955Y31750
X22225Y31750
X24765Y30480
X24765Y29210
X17145Y31750
X80645Y11430
X78740Y11430
X17145Y26670
X80645Y16510
X36830Y20320
X36830Y22225
X36830Y26035
X36830Y27940
X36830Y29845
X36830Y33655
X36830Y35560
X13335Y26670
X40005Y34290
X39370Y39370
X78740Y16510
X78740Y46990
X80645Y46990
X80645Y20955
X78740Y20955
X83820Y27940
M30