M48
;GenerationSoftware,Autodesk,EAGLE,9.2.0*%
;CreationDate,2018-10-29T03:19:14Z*%
FMAT,2
ICI,OFF
METRIC,TZ,000.000
T11C0.350
T10C0.795
T9C0.800
T8C0.813
T7C0.900
T6C1.016
T5C1.048
T4C1.118
T3C1.200
T2C1.600
T1C4.000
%
G90
M71
T1
X6350Y76200
X88900Y76200
X88900Y6350
X6350Y6350
T2
X87630Y24170
X87630Y39330
X87630Y34330
X87630Y49490
X87630Y44490
X87630Y19010
X87630Y14010
X87630Y29170
T3
X26670Y21590
X11430Y67310
X26670Y67310
X11430Y21590
T4
X5080Y57150
X5080Y41910
X5080Y44450
X5080Y46990
X41910Y6985
X39370Y6985
X33655Y6985
X31115Y6985
X15240Y7620
X17780Y7620
X5080Y52070
X5080Y54610
T5
X40005Y31750
X40005Y34290
X40005Y36830
X40005Y39370
X73025Y24130
X73025Y21590
X73025Y36830
X40005Y19050
X40005Y21590
X40005Y24130
X40005Y26670
X40005Y29210
X40005Y16510
X73025Y39370
X73025Y34290
X73025Y31750
X73025Y29210
X73025Y26670
T6
X66040Y8255
T7
X11430Y49530
X11430Y24130
X11430Y26670
X11430Y29210
X11430Y31750
X11430Y34290
X11430Y36830
X26670Y44450
X26670Y46990
X26670Y49530
X26670Y52070
X26670Y54610
X26670Y57150
X11430Y46990
X26670Y62230
X26670Y64770
X11430Y54610
X11430Y57150
X11430Y59690
X11430Y62230
X11430Y64770
X26670Y24130
X26670Y26670
X11430Y52070
X26670Y29210
X26670Y31750
X26670Y34290
X26670Y36830
X26670Y39370
X26670Y41910
X11430Y44450
X11430Y41910
X11430Y39370
X26670Y59690
T8
X45085Y43180
X57785Y43180
X57785Y55880
X45085Y55880
X51435Y74930
X64135Y74930
X17780Y14605
X5080Y14605
X41955Y48940
X32975Y39960
X33610Y44405
X42590Y53385
X45085Y46990
X57785Y46990
X45085Y52070
X57785Y52070
T9
X72425Y52070
X68525Y53340
X68525Y50800
X72425Y49530
X68525Y48260
X72425Y46990
X68525Y45720
X66675Y71755
X64135Y71755
X61595Y71755
X59055Y71755
X59055Y64135
X61595Y64135
X66675Y64135
T10
X64135Y64135
T11
X84455Y56515
X74930Y48260
X74930Y50800
X66040Y49530
X60325Y49530
X30480Y10795
X49530Y74930
X30480Y17145
X20955Y33020
X22225Y33020
X24765Y33020
X24765Y37465
X30480Y34290
X30480Y29845
X17145Y31750
X80645Y11430
X78740Y11430
X17145Y26670
X80645Y16510
X78740Y16510
X78740Y46990
X80645Y20955
X78740Y20955
X80645Y27305
X78740Y27305
X80645Y30480
X78740Y30480
X80645Y36830
X78740Y36830
X80645Y41910
X78740Y41910
X80645Y46990
X42545Y21590
X42545Y16510
X37465Y16510
X34290Y24130
X76200Y29210
X76200Y26670
X69850Y29210
X69850Y26670
X45085Y7620
X65405Y45720
X37465Y21590
X8890Y52705
X45085Y35560
X42545Y10795
X40640Y10795
X38735Y10795
X26670Y7620
X65405Y53340
X34290Y18415
X34290Y20320
X34290Y22225
X26670Y17145
X26670Y10795
X13335Y31750
X9525Y31750
X5080Y49530
X5080Y59055
X8890Y56515
X9525Y41910
X22860Y45720
X23495Y38735
X29210Y41910
X31115Y40005
X6350Y52070
X23495Y33020
X34290Y16510
X5080Y16510
X34290Y26035
X34290Y27940
X34290Y29845
X34290Y33655
X34290Y35560
X62865Y67945
X88265Y53340
X33020Y38100
M30