M48
;GenerationSoftware,Autodesk,EAGLE,9.2.0*%
;CreationDate,2018-12-05T06:58:30Z*%
FMAT,2
ICI,OFF
METRIC,TZ,000.000
T11C0.350
T10C0.800
T9C0.813
T8C0.900
T7C0.914
T6C1.016
T5C1.048
T4C1.118
T3C1.200
T2C1.600
T1C4.000
%
G90
M71
T1
X6350Y76200
X88900Y76200
X88900Y6350
X6350Y6350
T2
X73025Y71755
X69215Y71755
X87630Y34330
X87630Y19010
X87630Y14010
X87630Y29170
X87630Y24170
X87630Y49490
X87630Y44490
X87630Y39330
X57785Y71755
X61595Y71755
T3
X11430Y21590
X26670Y67310
X11430Y67310
X26670Y21590
T4
X3175Y41910
X3175Y44450
X3175Y46990
X44450Y6985
X41910Y6985
X36830Y6985
X34290Y6985
X27305Y6985
X29845Y6985
X3175Y52070
X3175Y54610
X3175Y57150
T5
X75565Y34290
X75565Y31750
X75565Y29210
X75565Y26670
X75565Y24130
X75565Y21590
X42545Y19050
X42545Y21590
X42545Y24130
X42545Y26670
X42545Y29210
X42545Y31750
X42545Y34290
X42545Y36830
X42545Y39370
X42545Y16510
X75565Y39370
X75565Y36830
T6
X15875Y8890
X29718Y34290
X29972Y31750
X29718Y29210
X29972Y26670
X8128Y44450
X29718Y24130
X8128Y64770
X18415Y8890
X8382Y46990
X29718Y44450
X8382Y41910
X8128Y39370
X8382Y36830
X8128Y34290
X8382Y31750
X8128Y29210
X8382Y26670
X8128Y24130
X8382Y62230
X8128Y59690
X8382Y57150
X80010Y8255
X8382Y52070
X8128Y49530
X29718Y64770
X29972Y62230
X29718Y59690
X29972Y57150
X29718Y54610
X29972Y52070
X29718Y49530
X29972Y46990
X8128Y54610
X29972Y41910
X29718Y39370
X29972Y36830
T7
X20955Y8890
X13335Y8890
X57150Y43815
X54610Y43815
X57150Y65405
X54610Y65405
X52070Y65405
X52070Y43815
T8
X11430Y57150
X11430Y54610
X11430Y52070
X11430Y49530
X11430Y46990
X11430Y44450
X11430Y41910
X11430Y39370
X11430Y36830
X11430Y34290
X11430Y31750
X11430Y29210
X11430Y26670
X11430Y24130
X26670Y26670
X26670Y64770
X26670Y62230
X26670Y59690
X26670Y57150
X26670Y54610
X26670Y52070
X26670Y49530
X26670Y46990
X26670Y44450
X26670Y41910
X26670Y39370
X26670Y36830
X26670Y34290
X26670Y31750
X26670Y29210
X26670Y24130
X11430Y64770
X11430Y62230
X11430Y59690
T9
X46355Y59690
X4445Y18415
X59055Y55880
X46355Y55880
X59055Y52070
X46355Y52070
X37465Y76835
X71755Y78105
X61595Y78105
X6985Y15240
X4445Y15240
X4445Y12700
X12065Y18415
X59055Y59690
X18415Y18415
X28575Y18415
X46355Y48260
X59055Y48260
X44495Y47670
X35515Y38690
X34880Y45675
X43860Y54655
X37465Y72390
X27305Y72390
X27305Y76835
T10
X68525Y53340
X72425Y52070
X68525Y50800
X72425Y49530
X68525Y48260
X72425Y46990
X68525Y45720
X46060Y74853
X42019Y77996
X43815Y76200
X47407Y72608
T11
X12700Y32385
X28892Y11430
X20955Y13335
X41910Y10795
X43180Y10795
X44450Y10795
X49847Y7620
X73025Y26670
X73025Y29210
X78105Y26670
X78105Y29210
X36830Y24130
X40005Y16510
X45085Y16510
X45085Y21590
X40005Y21590
X80645Y41910
X78740Y36830
X80645Y36830
X83820Y29845
X87630Y31115
X87630Y26670
X83820Y27940
X78740Y20955
X80645Y20955
X80645Y46990
X78740Y46990
X78740Y16510
X80645Y16510
X18733Y73343
X54610Y61595
X20955Y71120
X22860Y69215
X21590Y55245
X23495Y57785
X16510Y45720
X16510Y26670
X25400Y65405
X25400Y60960
X13970Y15240
X59690Y46355
X53975Y46355
X59690Y61595
X26670Y18415
X19685Y20003
X3175Y49530
X31750Y25400
X31750Y27940
X31750Y30480
X31750Y33020
X31750Y35560
X6350Y25400
X6350Y27940
X6350Y30480
X65405Y45720
X45085Y34290
X65405Y53340
X36830Y18415
X6350Y35560
X6350Y38100
X6350Y40640
X35878Y60642
X33655Y58102
X31750Y55880
X31750Y53340
X31750Y50800
X45720Y64770
X43815Y62865
X42545Y61595
X36513Y55562
X38735Y57785
X40640Y59690
X87630Y46990
X87630Y11430
X87630Y16510
X87630Y21590
X87630Y36830
X87630Y41910
X71755Y76200
X65405Y74295
X40005Y31750
X34290Y44450
X38100Y40640
X36830Y20320
X36830Y31750
X23495Y31750
X78740Y41910
X36830Y16510
X19685Y26670
X65405Y69215
X71755Y80010
X88265Y53340
X84455Y56515
X74930Y48260
X74930Y50800
X66040Y49530
X62865Y49530
X36830Y22225
X36830Y26035
X36830Y27940
X36830Y29845
X36830Y33655
X3175Y39370
X36830Y35560
X12700Y25400
X40005Y34290
X39370Y39370
X16192Y19368
X30480Y18415
X19685Y31750
X21590Y31750
X24765Y30480
X24765Y28575
X19685Y38735
X80645Y11430
X78740Y11430
X14287Y38735
X35560Y43180
X1905Y59055
X4445Y59055
X6350Y33020
X36830Y41910
M30