G04 EAGLE Gerber RS-274X export*
G75*
%MOMM*%
%FSLAX34Y34*%
%LPD*%
%INTop Copper*%
%IPPOS*%
%AMOC8*
5,1,8,0,0,1.08239X$1,22.5*%
G01*
%ADD10C,1.308000*%
%ADD11P,1.429621X8X22.500000*%
%ADD12C,2.400000*%
%ADD13C,1.648500*%
%ADD14C,1.408000*%
%ADD15P,1.814519X8X22.500000*%
%ADD16C,1.879600*%
%ADD17P,1.429621X8X247.500000*%
%ADD18P,1.429621X8X67.500000*%
%ADD19C,1.879600*%
%ADD20C,2.400000*%
%ADD21C,1.308000*%
%ADD22P,1.814519X8X202.500000*%
%ADD23C,1.422400*%
%ADD24P,2.336880X8X22.500000*%
%ADD25P,1.429621X8X202.500000*%
%ADD26P,0.818720X8X22.500000*%
%ADD27C,0.756400*%
%ADD28C,1.905000*%
%ADD29C,2.540000*%
%ADD30C,0.635000*%
%ADD31C,0.812800*%
%ADD32C,0.609600*%
%ADD33C,1.016000*%
%ADD34C,1.270000*%

G36*
X941770Y10172D02*
X941770Y10172D01*
X941836Y10174D01*
X941879Y10192D01*
X941926Y10200D01*
X941983Y10234D01*
X942043Y10259D01*
X942078Y10290D01*
X942119Y10315D01*
X942161Y10366D01*
X942209Y10410D01*
X942231Y10452D01*
X942260Y10489D01*
X942281Y10551D01*
X942312Y10610D01*
X942320Y10664D01*
X942332Y10701D01*
X942331Y10741D01*
X942339Y10795D01*
X942339Y814705D01*
X942328Y814770D01*
X942326Y814836D01*
X942308Y814879D01*
X942300Y814926D01*
X942266Y814983D01*
X942241Y815043D01*
X942210Y815078D01*
X942185Y815119D01*
X942134Y815161D01*
X942090Y815209D01*
X942048Y815231D01*
X942011Y815260D01*
X941949Y815281D01*
X941890Y815312D01*
X941836Y815320D01*
X941799Y815332D01*
X941759Y815331D01*
X941705Y815339D01*
X10795Y815339D01*
X10730Y815328D01*
X10664Y815326D01*
X10621Y815308D01*
X10574Y815300D01*
X10517Y815266D01*
X10457Y815241D01*
X10422Y815210D01*
X10381Y815185D01*
X10339Y815134D01*
X10291Y815090D01*
X10269Y815048D01*
X10240Y815011D01*
X10219Y814949D01*
X10188Y814890D01*
X10180Y814836D01*
X10168Y814799D01*
X10169Y814759D01*
X10161Y814705D01*
X10161Y576512D01*
X10174Y576441D01*
X10174Y576415D01*
X10176Y576412D01*
X10179Y576362D01*
X10194Y576328D01*
X10200Y576292D01*
X10239Y576226D01*
X10270Y576157D01*
X10296Y576130D01*
X10315Y576098D01*
X10374Y576050D01*
X10427Y575996D01*
X10460Y575980D01*
X10489Y575957D01*
X10561Y575933D01*
X10630Y575900D01*
X10666Y575897D01*
X10701Y575885D01*
X10777Y575887D01*
X10853Y575881D01*
X10889Y575891D01*
X10926Y575892D01*
X10996Y575920D01*
X11069Y575941D01*
X11099Y575962D01*
X11133Y575976D01*
X11190Y576027D01*
X11251Y576072D01*
X11276Y576106D01*
X11299Y576127D01*
X11320Y576168D01*
X11360Y576224D01*
X12141Y577757D01*
X13246Y579278D01*
X14574Y580606D01*
X16095Y581711D01*
X17769Y582564D01*
X19556Y583145D01*
X21412Y583439D01*
X30481Y583439D01*
X30481Y572135D01*
X30492Y572070D01*
X30494Y572005D01*
X30512Y571961D01*
X30520Y571914D01*
X30554Y571858D01*
X30579Y571797D01*
X30610Y571762D01*
X30635Y571721D01*
X30686Y571680D01*
X30730Y571631D01*
X30772Y571609D01*
X30809Y571580D01*
X30871Y571559D01*
X30930Y571529D01*
X30984Y571520D01*
X31021Y571508D01*
X31061Y571509D01*
X31115Y571501D01*
X32385Y571501D01*
X32450Y571513D01*
X32515Y571514D01*
X32559Y571532D01*
X32606Y571541D01*
X32663Y571574D01*
X32723Y571599D01*
X32758Y571631D01*
X32799Y571655D01*
X32840Y571706D01*
X32889Y571750D01*
X32911Y571792D01*
X32940Y571829D01*
X32961Y571891D01*
X32992Y571950D01*
X33000Y572004D01*
X33012Y572041D01*
X33011Y572081D01*
X33019Y572135D01*
X33019Y583439D01*
X42088Y583439D01*
X43944Y583145D01*
X45731Y582564D01*
X47405Y581711D01*
X48268Y581084D01*
X48304Y581067D01*
X48335Y581042D01*
X48404Y581018D01*
X48470Y580986D01*
X48510Y580983D01*
X48547Y580970D01*
X48621Y580972D01*
X48694Y580965D01*
X48732Y580975D01*
X48772Y580976D01*
X48839Y581004D01*
X48910Y581023D01*
X48943Y581046D01*
X48979Y581061D01*
X49034Y581110D01*
X49093Y581153D01*
X49116Y581185D01*
X49145Y581212D01*
X49179Y581277D01*
X49220Y581338D01*
X49229Y581376D01*
X49248Y581412D01*
X49262Y581507D01*
X49262Y581508D01*
X49268Y581526D01*
X49268Y581532D01*
X49274Y581556D01*
X49272Y581574D01*
X49275Y581597D01*
X49275Y614212D01*
X50861Y618040D01*
X63950Y631129D01*
X67778Y632715D01*
X73496Y632715D01*
X73538Y632722D01*
X73580Y632720D01*
X73647Y632742D01*
X73717Y632754D01*
X73753Y632776D01*
X73794Y632789D01*
X73867Y632843D01*
X73910Y632869D01*
X73923Y632885D01*
X73945Y632901D01*
X74805Y633761D01*
X74849Y633825D01*
X74900Y633883D01*
X74913Y633916D01*
X74933Y633945D01*
X74952Y634020D01*
X74980Y634093D01*
X74980Y634128D01*
X74989Y634163D01*
X74981Y634240D01*
X74982Y634317D01*
X74970Y634351D01*
X74966Y634386D01*
X74932Y634455D01*
X74905Y634528D01*
X74882Y634555D01*
X74866Y634587D01*
X74810Y634640D01*
X74760Y634699D01*
X74725Y634720D01*
X74703Y634741D01*
X74660Y634759D01*
X74599Y634796D01*
X73078Y635426D01*
X69006Y639498D01*
X66801Y644820D01*
X66801Y650580D01*
X69006Y655902D01*
X73078Y659974D01*
X78400Y662179D01*
X84160Y662179D01*
X89482Y659974D01*
X90139Y659317D01*
X90174Y659292D01*
X90203Y659261D01*
X90266Y659229D01*
X90324Y659188D01*
X90365Y659178D01*
X90403Y659158D01*
X90492Y659145D01*
X90541Y659132D01*
X90562Y659135D01*
X90588Y659131D01*
X103883Y659131D01*
X103971Y659147D01*
X104060Y659156D01*
X104081Y659166D01*
X104104Y659170D01*
X104181Y659216D01*
X104261Y659255D01*
X104277Y659272D01*
X104297Y659285D01*
X104353Y659354D01*
X104415Y659418D01*
X104424Y659440D01*
X104439Y659459D01*
X104467Y659543D01*
X104502Y659625D01*
X104503Y659649D01*
X104511Y659671D01*
X104508Y659760D01*
X104512Y659849D01*
X104505Y659872D01*
X104504Y659896D01*
X104471Y659978D01*
X104443Y660063D01*
X104428Y660084D01*
X104420Y660103D01*
X104386Y660141D01*
X104332Y660213D01*
X100600Y663946D01*
X98139Y669885D01*
X98139Y676315D01*
X100600Y682254D01*
X105146Y686800D01*
X111085Y689261D01*
X117515Y689261D01*
X123454Y686800D01*
X128000Y682254D01*
X130461Y676315D01*
X130461Y669885D01*
X128000Y663946D01*
X123454Y659400D01*
X121706Y658675D01*
X121641Y658634D01*
X121572Y658599D01*
X121547Y658573D01*
X121517Y658554D01*
X121471Y658492D01*
X121418Y658436D01*
X121404Y658403D01*
X121382Y658375D01*
X121360Y658301D01*
X121330Y658229D01*
X121329Y658194D01*
X121318Y658160D01*
X121324Y658083D01*
X121320Y658005D01*
X121331Y657972D01*
X121333Y657936D01*
X121365Y657865D01*
X121389Y657792D01*
X121413Y657759D01*
X121425Y657731D01*
X121458Y657698D01*
X121500Y657641D01*
X124575Y654566D01*
X126421Y650111D01*
X126421Y645289D01*
X124575Y640834D01*
X121166Y637425D01*
X116727Y635586D01*
X116652Y635538D01*
X116574Y635496D01*
X116558Y635478D01*
X116538Y635465D01*
X116485Y635394D01*
X116426Y635327D01*
X116418Y635304D01*
X116403Y635285D01*
X116378Y635200D01*
X116346Y635117D01*
X116346Y635093D01*
X116339Y635070D01*
X116345Y634982D01*
X116345Y634893D01*
X116353Y634870D01*
X116354Y634847D01*
X116391Y634765D01*
X116421Y634682D01*
X116437Y634664D01*
X116446Y634642D01*
X116509Y634579D01*
X116566Y634511D01*
X116589Y634497D01*
X116604Y634482D01*
X116649Y634461D01*
X116727Y634414D01*
X121166Y632575D01*
X124575Y629166D01*
X126421Y624711D01*
X126421Y619889D01*
X124575Y615434D01*
X121166Y612025D01*
X116727Y610186D01*
X116652Y610138D01*
X116574Y610096D01*
X116558Y610078D01*
X116538Y610065D01*
X116485Y609994D01*
X116426Y609927D01*
X116418Y609904D01*
X116403Y609885D01*
X116378Y609800D01*
X116346Y609717D01*
X116346Y609693D01*
X116339Y609670D01*
X116345Y609582D01*
X116345Y609493D01*
X116353Y609470D01*
X116354Y609447D01*
X116391Y609365D01*
X116421Y609282D01*
X116437Y609264D01*
X116446Y609242D01*
X116509Y609179D01*
X116566Y609111D01*
X116589Y609097D01*
X116604Y609082D01*
X116649Y609061D01*
X116727Y609014D01*
X121166Y607175D01*
X124575Y603766D01*
X126421Y599311D01*
X126421Y594489D01*
X124575Y590034D01*
X121166Y586625D01*
X116727Y584786D01*
X116652Y584738D01*
X116574Y584696D01*
X116558Y584678D01*
X116538Y584665D01*
X116485Y584594D01*
X116426Y584527D01*
X116418Y584504D01*
X116403Y584485D01*
X116378Y584400D01*
X116346Y584317D01*
X116346Y584293D01*
X116339Y584270D01*
X116345Y584182D01*
X116345Y584093D01*
X116353Y584070D01*
X116354Y584047D01*
X116391Y583965D01*
X116421Y583882D01*
X116437Y583864D01*
X116446Y583842D01*
X116509Y583779D01*
X116566Y583711D01*
X116589Y583697D01*
X116604Y583682D01*
X116649Y583661D01*
X116727Y583614D01*
X121166Y581775D01*
X124575Y578366D01*
X126421Y573911D01*
X126421Y569089D01*
X124575Y564634D01*
X121166Y561225D01*
X116727Y559386D01*
X116652Y559338D01*
X116574Y559296D01*
X116558Y559278D01*
X116538Y559265D01*
X116485Y559194D01*
X116426Y559127D01*
X116418Y559104D01*
X116403Y559085D01*
X116378Y559000D01*
X116346Y558917D01*
X116346Y558893D01*
X116339Y558870D01*
X116345Y558782D01*
X116345Y558693D01*
X116353Y558670D01*
X116354Y558647D01*
X116391Y558565D01*
X116421Y558482D01*
X116437Y558464D01*
X116446Y558442D01*
X116509Y558379D01*
X116566Y558311D01*
X116589Y558297D01*
X116604Y558282D01*
X116649Y558261D01*
X116727Y558214D01*
X121166Y556375D01*
X124575Y552966D01*
X126421Y548511D01*
X126421Y543689D01*
X124575Y539234D01*
X121166Y535825D01*
X116727Y533986D01*
X116652Y533938D01*
X116574Y533896D01*
X116558Y533878D01*
X116538Y533865D01*
X116485Y533794D01*
X116426Y533727D01*
X116418Y533704D01*
X116403Y533685D01*
X116378Y533600D01*
X116346Y533517D01*
X116346Y533493D01*
X116339Y533470D01*
X116345Y533382D01*
X116345Y533293D01*
X116353Y533270D01*
X116354Y533247D01*
X116391Y533165D01*
X116421Y533082D01*
X116437Y533064D01*
X116446Y533042D01*
X116509Y532978D01*
X116566Y532911D01*
X116589Y532897D01*
X116604Y532882D01*
X116649Y532861D01*
X116727Y532814D01*
X120713Y531163D01*
X120743Y531156D01*
X120770Y531142D01*
X120888Y531125D01*
X120932Y531115D01*
X120943Y531117D01*
X120956Y531115D01*
X129072Y531115D01*
X132900Y529529D01*
X135829Y526600D01*
X136670Y524570D01*
X136686Y524544D01*
X136696Y524515D01*
X136766Y524420D01*
X136791Y524381D01*
X136800Y524374D01*
X136807Y524364D01*
X189051Y472121D01*
X190501Y468620D01*
X190501Y197101D01*
X190508Y197059D01*
X190506Y197017D01*
X190528Y196950D01*
X190540Y196880D01*
X190562Y196844D01*
X190575Y196803D01*
X190629Y196731D01*
X190655Y196687D01*
X190671Y196674D01*
X190687Y196653D01*
X193478Y193862D01*
X193512Y193837D01*
X193541Y193806D01*
X193604Y193774D01*
X193662Y193733D01*
X193703Y193723D01*
X193741Y193703D01*
X193830Y193690D01*
X193879Y193677D01*
X193900Y193680D01*
X193926Y193676D01*
X198745Y193676D01*
X202246Y192226D01*
X300559Y93913D01*
X300594Y93888D01*
X300622Y93857D01*
X300685Y93825D01*
X300743Y93784D01*
X300784Y93774D01*
X300822Y93754D01*
X300912Y93741D01*
X300960Y93728D01*
X300981Y93731D01*
X301007Y93727D01*
X301330Y93727D01*
X306652Y91522D01*
X310724Y87450D01*
X312929Y82128D01*
X312929Y57572D01*
X310724Y52250D01*
X306652Y48178D01*
X301330Y45973D01*
X295570Y45973D01*
X290248Y48178D01*
X286198Y52227D01*
X286145Y52265D01*
X286097Y52310D01*
X286053Y52329D01*
X286014Y52356D01*
X285951Y52372D01*
X285890Y52398D01*
X285843Y52400D01*
X285797Y52412D01*
X285732Y52405D01*
X285666Y52408D01*
X285621Y52393D01*
X285574Y52388D01*
X285515Y52359D01*
X285452Y52339D01*
X285408Y52306D01*
X285373Y52289D01*
X285346Y52260D01*
X285302Y52227D01*
X284667Y51592D01*
X284642Y51558D01*
X284611Y51529D01*
X284579Y51466D01*
X284538Y51408D01*
X284528Y51367D01*
X284508Y51329D01*
X284495Y51240D01*
X284482Y51191D01*
X284485Y51170D01*
X284481Y51144D01*
X284481Y49447D01*
X284488Y49406D01*
X284486Y49363D01*
X284508Y49296D01*
X284520Y49227D01*
X284542Y49190D01*
X284555Y49150D01*
X284609Y49077D01*
X284635Y49033D01*
X284651Y49020D01*
X284667Y48999D01*
X291569Y42097D01*
X291604Y42072D01*
X291633Y42041D01*
X291695Y42009D01*
X291753Y41968D01*
X291794Y41958D01*
X291832Y41938D01*
X291922Y41925D01*
X291970Y41912D01*
X291991Y41915D01*
X292017Y41911D01*
X365971Y41911D01*
X366013Y41918D01*
X366055Y41916D01*
X366123Y41938D01*
X366192Y41950D01*
X366229Y41972D01*
X366269Y41985D01*
X366342Y42039D01*
X366385Y42065D01*
X366398Y42081D01*
X366420Y42096D01*
X369214Y44891D01*
X369265Y44964D01*
X369321Y45033D01*
X369328Y45055D01*
X369342Y45075D01*
X369364Y45161D01*
X369393Y45245D01*
X369392Y45269D01*
X369398Y45292D01*
X369389Y45381D01*
X369386Y45470D01*
X369377Y45492D01*
X369375Y45515D01*
X369335Y45595D01*
X369302Y45677D01*
X369286Y45695D01*
X369275Y45716D01*
X369210Y45777D01*
X369150Y45843D01*
X369129Y45854D01*
X369112Y45870D01*
X369030Y45905D01*
X368951Y45946D01*
X368925Y45949D01*
X368905Y45958D01*
X368855Y45960D01*
X368765Y45973D01*
X365420Y45973D01*
X360098Y48178D01*
X356048Y52227D01*
X355994Y52265D01*
X355947Y52310D01*
X355903Y52329D01*
X355864Y52356D01*
X355801Y52372D01*
X355740Y52398D01*
X355693Y52400D01*
X355647Y52412D01*
X355582Y52405D01*
X355516Y52408D01*
X355471Y52393D01*
X355424Y52388D01*
X355365Y52359D01*
X355302Y52339D01*
X355258Y52306D01*
X355223Y52289D01*
X355196Y52260D01*
X355152Y52227D01*
X351102Y48178D01*
X345780Y45973D01*
X340020Y45973D01*
X334698Y48178D01*
X330626Y52250D01*
X328421Y57572D01*
X328421Y82128D01*
X330151Y86304D01*
X330158Y86334D01*
X330172Y86361D01*
X330189Y86479D01*
X330199Y86523D01*
X330197Y86534D01*
X330199Y86547D01*
X330199Y354746D01*
X330192Y354788D01*
X330194Y354830D01*
X330172Y354898D01*
X330160Y354967D01*
X330138Y355004D01*
X330125Y355044D01*
X330071Y355117D01*
X330045Y355160D01*
X330029Y355173D01*
X330013Y355195D01*
X315281Y369927D01*
X315208Y369978D01*
X315139Y370034D01*
X315117Y370041D01*
X315097Y370055D01*
X315011Y370077D01*
X314927Y370106D01*
X314903Y370105D01*
X314880Y370111D01*
X314791Y370102D01*
X314702Y370099D01*
X314680Y370090D01*
X314657Y370088D01*
X314577Y370048D01*
X314495Y370015D01*
X314477Y369999D01*
X314456Y369988D01*
X314395Y369923D01*
X314329Y369863D01*
X314318Y369842D01*
X314302Y369825D01*
X314267Y369743D01*
X314226Y369664D01*
X314223Y369637D01*
X314214Y369618D01*
X314212Y369568D01*
X314199Y369478D01*
X314199Y365420D01*
X311994Y360098D01*
X307922Y356026D01*
X306401Y355396D01*
X306335Y355354D01*
X306266Y355319D01*
X306242Y355294D01*
X306212Y355274D01*
X306165Y355212D01*
X306112Y355156D01*
X306098Y355123D01*
X306077Y355095D01*
X306055Y355021D01*
X306025Y354950D01*
X306023Y354914D01*
X306013Y354880D01*
X306018Y354803D01*
X306015Y354725D01*
X306026Y354692D01*
X306028Y354656D01*
X306060Y354586D01*
X306083Y354512D01*
X306107Y354479D01*
X306120Y354451D01*
X306153Y354418D01*
X306195Y354361D01*
X309454Y351102D01*
X311659Y345780D01*
X311659Y340020D01*
X309454Y334698D01*
X306195Y331439D01*
X306151Y331375D01*
X306100Y331317D01*
X306087Y331284D01*
X306067Y331255D01*
X306048Y331180D01*
X306020Y331107D01*
X306020Y331072D01*
X306011Y331037D01*
X306019Y330961D01*
X306018Y330883D01*
X306030Y330850D01*
X306034Y330814D01*
X306068Y330745D01*
X306095Y330672D01*
X306118Y330645D01*
X306134Y330613D01*
X306190Y330560D01*
X306240Y330501D01*
X306275Y330480D01*
X306297Y330459D01*
X306340Y330441D01*
X306401Y330404D01*
X307922Y329774D01*
X311994Y325702D01*
X314199Y320380D01*
X314199Y314620D01*
X311994Y309298D01*
X307922Y305226D01*
X306401Y304596D01*
X306335Y304554D01*
X306266Y304519D01*
X306242Y304494D01*
X306212Y304474D01*
X306165Y304412D01*
X306112Y304356D01*
X306098Y304323D01*
X306077Y304295D01*
X306055Y304221D01*
X306025Y304150D01*
X306023Y304114D01*
X306013Y304080D01*
X306018Y304003D01*
X306015Y303925D01*
X306026Y303892D01*
X306028Y303856D01*
X306060Y303786D01*
X306083Y303712D01*
X306107Y303679D01*
X306120Y303651D01*
X306153Y303618D01*
X306195Y303561D01*
X309454Y300302D01*
X311659Y294980D01*
X311659Y289220D01*
X309454Y283898D01*
X306195Y280639D01*
X306151Y280575D01*
X306100Y280517D01*
X306087Y280484D01*
X306067Y280455D01*
X306048Y280380D01*
X306020Y280307D01*
X306020Y280272D01*
X306011Y280237D01*
X306019Y280161D01*
X306018Y280083D01*
X306030Y280050D01*
X306034Y280014D01*
X306068Y279945D01*
X306095Y279872D01*
X306118Y279845D01*
X306134Y279813D01*
X306190Y279760D01*
X306240Y279701D01*
X306275Y279680D01*
X306297Y279659D01*
X306340Y279641D01*
X306401Y279604D01*
X307922Y278974D01*
X311994Y274902D01*
X314199Y269580D01*
X314199Y263820D01*
X311994Y258498D01*
X307922Y254426D01*
X306401Y253796D01*
X306335Y253754D01*
X306266Y253719D01*
X306242Y253694D01*
X306212Y253674D01*
X306165Y253612D01*
X306112Y253556D01*
X306098Y253523D01*
X306077Y253495D01*
X306055Y253421D01*
X306025Y253350D01*
X306023Y253314D01*
X306013Y253280D01*
X306018Y253203D01*
X306015Y253125D01*
X306026Y253092D01*
X306028Y253056D01*
X306060Y252986D01*
X306083Y252912D01*
X306107Y252879D01*
X306120Y252851D01*
X306153Y252818D01*
X306195Y252761D01*
X309454Y249502D01*
X311659Y244180D01*
X311659Y238420D01*
X309454Y233098D01*
X305382Y229026D01*
X300060Y226821D01*
X294300Y226821D01*
X288978Y229026D01*
X287304Y230699D01*
X287271Y230723D01*
X287246Y230750D01*
X287241Y230755D01*
X287178Y230787D01*
X287120Y230828D01*
X287079Y230838D01*
X287041Y230858D01*
X286952Y230871D01*
X286903Y230884D01*
X286882Y230881D01*
X286856Y230885D01*
X275941Y230885D01*
X275842Y230867D01*
X275742Y230853D01*
X275732Y230848D01*
X275720Y230846D01*
X275633Y230794D01*
X275545Y230746D01*
X275537Y230738D01*
X275527Y230731D01*
X275464Y230654D01*
X275397Y230578D01*
X275393Y230566D01*
X275386Y230557D01*
X275353Y230462D01*
X275318Y230368D01*
X275317Y230356D01*
X275314Y230345D01*
X275317Y230244D01*
X275316Y230144D01*
X275320Y230132D01*
X275320Y230120D01*
X275358Y230027D01*
X275392Y229933D01*
X275400Y229924D01*
X275405Y229913D01*
X275472Y229838D01*
X275538Y229762D01*
X275549Y229755D01*
X275556Y229747D01*
X275597Y229726D01*
X275698Y229665D01*
X275854Y229600D01*
X280400Y225054D01*
X282861Y219115D01*
X282861Y212685D01*
X280400Y206746D01*
X275854Y202200D01*
X269915Y199739D01*
X263485Y199739D01*
X257546Y202200D01*
X253000Y206746D01*
X250539Y212685D01*
X250539Y219115D01*
X253000Y225054D01*
X257546Y229600D01*
X259294Y230325D01*
X259359Y230366D01*
X259428Y230401D01*
X259453Y230427D01*
X259483Y230446D01*
X259529Y230508D01*
X259582Y230564D01*
X259596Y230597D01*
X259618Y230625D01*
X259640Y230699D01*
X259670Y230771D01*
X259671Y230806D01*
X259682Y230840D01*
X259676Y230917D01*
X259680Y230995D01*
X259669Y231028D01*
X259667Y231064D01*
X259635Y231135D01*
X259611Y231208D01*
X259587Y231241D01*
X259575Y231269D01*
X259542Y231302D01*
X259500Y231359D01*
X256425Y234434D01*
X254579Y238889D01*
X254579Y243711D01*
X256425Y248166D01*
X259834Y251575D01*
X264273Y253414D01*
X264348Y253462D01*
X264426Y253505D01*
X264442Y253522D01*
X264462Y253535D01*
X264515Y253606D01*
X264574Y253673D01*
X264582Y253696D01*
X264597Y253715D01*
X264622Y253800D01*
X264654Y253883D01*
X264654Y253907D01*
X264661Y253930D01*
X264655Y254019D01*
X264655Y254107D01*
X264647Y254130D01*
X264646Y254153D01*
X264609Y254235D01*
X264579Y254318D01*
X264563Y254337D01*
X264554Y254358D01*
X264491Y254421D01*
X264434Y254489D01*
X264411Y254503D01*
X264396Y254518D01*
X264351Y254539D01*
X264273Y254586D01*
X259834Y256425D01*
X256425Y259834D01*
X254579Y264289D01*
X254579Y269111D01*
X256425Y273566D01*
X259834Y276975D01*
X264273Y278814D01*
X264348Y278862D01*
X264426Y278905D01*
X264442Y278922D01*
X264462Y278935D01*
X264515Y279006D01*
X264574Y279073D01*
X264582Y279096D01*
X264597Y279115D01*
X264622Y279200D01*
X264654Y279283D01*
X264654Y279307D01*
X264661Y279330D01*
X264655Y279419D01*
X264655Y279507D01*
X264647Y279530D01*
X264646Y279553D01*
X264609Y279635D01*
X264579Y279718D01*
X264563Y279737D01*
X264554Y279758D01*
X264491Y279821D01*
X264434Y279889D01*
X264411Y279903D01*
X264396Y279918D01*
X264351Y279939D01*
X264273Y279986D01*
X259834Y281825D01*
X256425Y285234D01*
X254579Y289689D01*
X254579Y294511D01*
X256425Y298966D01*
X259834Y302375D01*
X264273Y304214D01*
X264348Y304262D01*
X264426Y304305D01*
X264442Y304322D01*
X264462Y304335D01*
X264515Y304406D01*
X264574Y304473D01*
X264582Y304496D01*
X264597Y304515D01*
X264622Y304600D01*
X264654Y304683D01*
X264654Y304707D01*
X264661Y304730D01*
X264655Y304819D01*
X264655Y304907D01*
X264647Y304930D01*
X264646Y304953D01*
X264609Y305035D01*
X264579Y305118D01*
X264563Y305137D01*
X264554Y305158D01*
X264491Y305221D01*
X264434Y305289D01*
X264411Y305303D01*
X264396Y305318D01*
X264351Y305339D01*
X264273Y305386D01*
X259834Y307225D01*
X256425Y310634D01*
X254579Y315089D01*
X254579Y319911D01*
X256425Y324366D01*
X259834Y327775D01*
X264273Y329614D01*
X264348Y329662D01*
X264426Y329705D01*
X264442Y329722D01*
X264462Y329735D01*
X264515Y329806D01*
X264574Y329873D01*
X264582Y329896D01*
X264597Y329915D01*
X264622Y330000D01*
X264654Y330083D01*
X264654Y330107D01*
X264661Y330130D01*
X264655Y330219D01*
X264655Y330307D01*
X264647Y330330D01*
X264646Y330353D01*
X264609Y330435D01*
X264579Y330518D01*
X264563Y330537D01*
X264554Y330558D01*
X264491Y330621D01*
X264434Y330689D01*
X264411Y330703D01*
X264396Y330718D01*
X264351Y330739D01*
X264273Y330786D01*
X259834Y332625D01*
X256425Y336034D01*
X254579Y340489D01*
X254579Y345311D01*
X256425Y349766D01*
X259834Y353175D01*
X264273Y355014D01*
X264348Y355062D01*
X264426Y355104D01*
X264442Y355122D01*
X264462Y355135D01*
X264515Y355206D01*
X264574Y355273D01*
X264582Y355296D01*
X264597Y355315D01*
X264622Y355400D01*
X264654Y355483D01*
X264654Y355507D01*
X264660Y355530D01*
X264655Y355618D01*
X264655Y355707D01*
X264647Y355730D01*
X264646Y355753D01*
X264609Y355835D01*
X264579Y355918D01*
X264563Y355936D01*
X264554Y355958D01*
X264491Y356022D01*
X264434Y356089D01*
X264411Y356103D01*
X264396Y356118D01*
X264351Y356139D01*
X264273Y356186D01*
X259834Y358025D01*
X256425Y361434D01*
X254579Y365889D01*
X254579Y370711D01*
X256425Y375166D01*
X259834Y378575D01*
X264273Y380414D01*
X264348Y380462D01*
X264426Y380505D01*
X264442Y380522D01*
X264462Y380535D01*
X264515Y380606D01*
X264574Y380673D01*
X264582Y380696D01*
X264597Y380715D01*
X264622Y380800D01*
X264654Y380883D01*
X264654Y380907D01*
X264660Y380930D01*
X264655Y381019D01*
X264655Y381107D01*
X264647Y381130D01*
X264646Y381153D01*
X264609Y381235D01*
X264579Y381318D01*
X264563Y381337D01*
X264554Y381358D01*
X264491Y381421D01*
X264434Y381489D01*
X264411Y381503D01*
X264396Y381518D01*
X264351Y381539D01*
X264273Y381586D01*
X259834Y383425D01*
X256425Y386834D01*
X254579Y391289D01*
X254579Y396111D01*
X256425Y400566D01*
X259834Y403975D01*
X264273Y405814D01*
X264348Y405862D01*
X264426Y405905D01*
X264442Y405922D01*
X264462Y405935D01*
X264515Y406006D01*
X264574Y406073D01*
X264582Y406096D01*
X264597Y406115D01*
X264622Y406200D01*
X264654Y406283D01*
X264654Y406307D01*
X264660Y406330D01*
X264655Y406419D01*
X264655Y406507D01*
X264647Y406530D01*
X264646Y406553D01*
X264609Y406635D01*
X264579Y406718D01*
X264563Y406737D01*
X264554Y406758D01*
X264491Y406821D01*
X264434Y406889D01*
X264411Y406903D01*
X264396Y406918D01*
X264351Y406939D01*
X264273Y406986D01*
X259834Y408825D01*
X256425Y412234D01*
X254579Y416689D01*
X254579Y421511D01*
X256425Y425966D01*
X259834Y429375D01*
X264273Y431214D01*
X264348Y431262D01*
X264426Y431305D01*
X264442Y431322D01*
X264462Y431335D01*
X264515Y431406D01*
X264574Y431473D01*
X264582Y431496D01*
X264597Y431515D01*
X264622Y431600D01*
X264654Y431683D01*
X264654Y431707D01*
X264660Y431730D01*
X264655Y431819D01*
X264655Y431907D01*
X264647Y431930D01*
X264646Y431953D01*
X264609Y432035D01*
X264579Y432118D01*
X264563Y432137D01*
X264554Y432158D01*
X264491Y432221D01*
X264434Y432289D01*
X264411Y432303D01*
X264396Y432318D01*
X264351Y432339D01*
X264273Y432386D01*
X259834Y434225D01*
X256425Y437634D01*
X254579Y442089D01*
X254579Y446911D01*
X256425Y451366D01*
X259834Y454775D01*
X264273Y456614D01*
X264348Y456662D01*
X264426Y456705D01*
X264442Y456722D01*
X264462Y456735D01*
X264515Y456806D01*
X264574Y456873D01*
X264582Y456896D01*
X264597Y456915D01*
X264622Y457000D01*
X264654Y457083D01*
X264654Y457107D01*
X264660Y457130D01*
X264655Y457219D01*
X264655Y457307D01*
X264647Y457330D01*
X264646Y457353D01*
X264609Y457435D01*
X264579Y457518D01*
X264563Y457537D01*
X264554Y457558D01*
X264491Y457621D01*
X264434Y457689D01*
X264411Y457703D01*
X264396Y457718D01*
X264351Y457739D01*
X264273Y457786D01*
X259834Y459625D01*
X256425Y463034D01*
X254579Y467489D01*
X254579Y472311D01*
X256425Y476766D01*
X259834Y480175D01*
X264273Y482014D01*
X264348Y482062D01*
X264426Y482105D01*
X264442Y482122D01*
X264462Y482135D01*
X264515Y482206D01*
X264574Y482273D01*
X264582Y482296D01*
X264597Y482315D01*
X264622Y482400D01*
X264654Y482483D01*
X264654Y482507D01*
X264660Y482530D01*
X264655Y482619D01*
X264655Y482707D01*
X264647Y482730D01*
X264646Y482753D01*
X264609Y482835D01*
X264579Y482918D01*
X264563Y482937D01*
X264554Y482958D01*
X264491Y483021D01*
X264434Y483089D01*
X264411Y483103D01*
X264396Y483118D01*
X264351Y483139D01*
X264273Y483186D01*
X259834Y485025D01*
X256425Y488434D01*
X254579Y492889D01*
X254579Y497711D01*
X256425Y502166D01*
X259834Y505575D01*
X264273Y507414D01*
X264348Y507462D01*
X264426Y507505D01*
X264442Y507522D01*
X264462Y507535D01*
X264515Y507606D01*
X264574Y507673D01*
X264582Y507696D01*
X264597Y507715D01*
X264622Y507800D01*
X264654Y507883D01*
X264654Y507907D01*
X264660Y507930D01*
X264655Y508019D01*
X264655Y508107D01*
X264647Y508130D01*
X264646Y508153D01*
X264609Y508235D01*
X264579Y508318D01*
X264563Y508337D01*
X264554Y508358D01*
X264491Y508421D01*
X264434Y508489D01*
X264411Y508503D01*
X264396Y508518D01*
X264351Y508539D01*
X264273Y508586D01*
X259834Y510425D01*
X259270Y510988D01*
X259235Y511013D01*
X259207Y511044D01*
X259144Y511076D01*
X259086Y511117D01*
X259045Y511127D01*
X259007Y511147D01*
X258917Y511160D01*
X258869Y511173D01*
X258848Y511170D01*
X258822Y511174D01*
X226705Y511174D01*
X223204Y512624D01*
X182424Y553404D01*
X180974Y556905D01*
X180974Y718355D01*
X182424Y721857D01*
X236993Y776426D01*
X240495Y777876D01*
X263274Y777876D01*
X263316Y777883D01*
X263358Y777881D01*
X263425Y777903D01*
X263495Y777915D01*
X263531Y777937D01*
X263572Y777950D01*
X263644Y778004D01*
X263688Y778030D01*
X263701Y778046D01*
X263722Y778062D01*
X267474Y781813D01*
X278626Y781813D01*
X286513Y773926D01*
X286513Y762774D01*
X278626Y754887D01*
X267474Y754887D01*
X263722Y758638D01*
X263688Y758663D01*
X263659Y758694D01*
X263596Y758726D01*
X263538Y758767D01*
X263497Y758777D01*
X263459Y758797D01*
X263370Y758810D01*
X263321Y758823D01*
X263300Y758820D01*
X263274Y758824D01*
X246598Y758824D01*
X246556Y758817D01*
X246514Y758819D01*
X246447Y758797D01*
X246377Y758785D01*
X246340Y758763D01*
X246300Y758750D01*
X246227Y758696D01*
X246184Y758670D01*
X246171Y758654D01*
X246149Y758638D01*
X200212Y712701D01*
X200187Y712666D01*
X200156Y712637D01*
X200124Y712574D01*
X200083Y712516D01*
X200073Y712475D01*
X200053Y712438D01*
X200040Y712348D01*
X200027Y712299D01*
X200030Y712278D01*
X200026Y712252D01*
X200026Y697237D01*
X200044Y697138D01*
X200058Y697038D01*
X200063Y697028D01*
X200065Y697016D01*
X200117Y696929D01*
X200165Y696841D01*
X200173Y696833D01*
X200180Y696823D01*
X200258Y696759D01*
X200333Y696693D01*
X200345Y696689D01*
X200354Y696681D01*
X200449Y696649D01*
X200543Y696614D01*
X200555Y696613D01*
X200566Y696610D01*
X200666Y696613D01*
X200767Y696612D01*
X200779Y696616D01*
X200791Y696616D01*
X200883Y696654D01*
X200978Y696688D01*
X200987Y696696D01*
X200998Y696701D01*
X201073Y696768D01*
X201149Y696834D01*
X201156Y696845D01*
X201164Y696852D01*
X201185Y696893D01*
X201246Y696994D01*
X201474Y697546D01*
X235904Y731976D01*
X239405Y733426D01*
X263274Y733426D01*
X263316Y733433D01*
X263358Y733431D01*
X263425Y733453D01*
X263495Y733465D01*
X263531Y733487D01*
X263572Y733500D01*
X263644Y733554D01*
X263688Y733580D01*
X263701Y733596D01*
X263722Y733612D01*
X267474Y737363D01*
X278626Y737363D01*
X286513Y729476D01*
X286513Y718324D01*
X278626Y710437D01*
X267474Y710437D01*
X263722Y714188D01*
X263688Y714213D01*
X263659Y714244D01*
X263596Y714276D01*
X263538Y714317D01*
X263497Y714327D01*
X263459Y714347D01*
X263370Y714360D01*
X263321Y714373D01*
X263300Y714370D01*
X263274Y714374D01*
X245508Y714374D01*
X245467Y714367D01*
X245424Y714369D01*
X245357Y714347D01*
X245288Y714335D01*
X245251Y714313D01*
X245211Y714300D01*
X245138Y714246D01*
X245094Y714220D01*
X245081Y714204D01*
X245060Y714188D01*
X219262Y688390D01*
X219237Y688355D01*
X219206Y688327D01*
X219174Y688264D01*
X219133Y688206D01*
X219123Y688165D01*
X219103Y688127D01*
X219090Y688037D01*
X219077Y687989D01*
X219080Y687968D01*
X219076Y687942D01*
X219076Y588408D01*
X219083Y588367D01*
X219081Y588324D01*
X219103Y588257D01*
X219115Y588188D01*
X219137Y588151D01*
X219150Y588111D01*
X219204Y588038D01*
X219230Y587994D01*
X219246Y587981D01*
X219262Y587960D01*
X251410Y555812D01*
X251445Y555787D01*
X251473Y555756D01*
X251536Y555724D01*
X251594Y555683D01*
X251635Y555673D01*
X251673Y555653D01*
X251763Y555640D01*
X251811Y555627D01*
X251832Y555630D01*
X251858Y555626D01*
X258822Y555626D01*
X258864Y555633D01*
X258906Y555631D01*
X258973Y555653D01*
X259043Y555665D01*
X259079Y555687D01*
X259120Y555700D01*
X259192Y555754D01*
X259236Y555780D01*
X259249Y555796D01*
X259270Y555812D01*
X259834Y556375D01*
X264273Y558214D01*
X264348Y558262D01*
X264426Y558305D01*
X264442Y558322D01*
X264462Y558335D01*
X264515Y558406D01*
X264574Y558473D01*
X264582Y558496D01*
X264597Y558515D01*
X264622Y558600D01*
X264654Y558683D01*
X264654Y558707D01*
X264660Y558730D01*
X264655Y558819D01*
X264655Y558907D01*
X264647Y558930D01*
X264646Y558953D01*
X264609Y559035D01*
X264579Y559118D01*
X264563Y559137D01*
X264554Y559158D01*
X264491Y559222D01*
X264434Y559289D01*
X264411Y559303D01*
X264396Y559318D01*
X264350Y559339D01*
X264273Y559386D01*
X262740Y560021D01*
X262721Y560025D01*
X262716Y560028D01*
X262707Y560029D01*
X262682Y560042D01*
X262565Y560059D01*
X262521Y560069D01*
X262510Y560067D01*
X262497Y560069D01*
X262236Y560069D01*
X258035Y561810D01*
X223070Y596775D01*
X221329Y600976D01*
X221329Y671472D01*
X223070Y675673D01*
X251427Y704030D01*
X255628Y705771D01*
X517232Y705771D01*
X517258Y705775D01*
X517284Y705773D01*
X517415Y705804D01*
X517453Y705810D01*
X517459Y705814D01*
X517467Y705816D01*
X561565Y723370D01*
X561605Y723395D01*
X561649Y723411D01*
X561699Y723454D01*
X561755Y723489D01*
X561784Y723526D01*
X561820Y723556D01*
X561862Y723627D01*
X561893Y723666D01*
X561900Y723690D01*
X561916Y723717D01*
X563370Y727226D01*
X568174Y732030D01*
X574452Y734631D01*
X581248Y734631D01*
X587526Y732030D01*
X592330Y727226D01*
X594931Y720948D01*
X594931Y714152D01*
X592330Y707874D01*
X587526Y703070D01*
X581248Y700469D01*
X574452Y700469D01*
X570474Y702117D01*
X570437Y702125D01*
X570402Y702142D01*
X570328Y702149D01*
X570255Y702165D01*
X570217Y702160D01*
X570179Y702163D01*
X570082Y702141D01*
X570032Y702134D01*
X570017Y702125D01*
X569997Y702121D01*
X523851Y683751D01*
X523848Y683749D01*
X523843Y683748D01*
X521812Y682907D01*
X521806Y682907D01*
X521684Y682879D01*
X519471Y682909D01*
X519467Y682909D01*
X519463Y682909D01*
X281078Y682909D01*
X281002Y682896D01*
X280925Y682890D01*
X280892Y682876D01*
X280857Y682870D01*
X280791Y682830D01*
X280720Y682798D01*
X280695Y682774D01*
X280664Y682755D01*
X280616Y682695D01*
X280560Y682641D01*
X280545Y682609D01*
X280523Y682581D01*
X280498Y682508D01*
X280465Y682438D01*
X280462Y682402D01*
X280451Y682369D01*
X280453Y682291D01*
X280447Y682214D01*
X280457Y682175D01*
X280458Y682144D01*
X280475Y682101D01*
X280492Y682032D01*
X282861Y676315D01*
X282861Y669885D01*
X280400Y663946D01*
X275854Y659400D01*
X275698Y659335D01*
X275613Y659281D01*
X275527Y659229D01*
X275519Y659220D01*
X275509Y659214D01*
X275449Y659133D01*
X275386Y659055D01*
X275382Y659044D01*
X275375Y659034D01*
X275346Y658938D01*
X275314Y658843D01*
X275314Y658831D01*
X275311Y658819D01*
X275317Y658719D01*
X275320Y658618D01*
X275325Y658607D01*
X275326Y658596D01*
X275367Y658503D01*
X275405Y658411D01*
X275413Y658402D01*
X275417Y658391D01*
X275488Y658319D01*
X275556Y658245D01*
X275567Y658240D01*
X275575Y658231D01*
X275666Y658188D01*
X275756Y658142D01*
X275769Y658140D01*
X275778Y658136D01*
X275824Y658132D01*
X275941Y658115D01*
X286856Y658115D01*
X286898Y658122D01*
X286940Y658120D01*
X287007Y658142D01*
X287077Y658154D01*
X287113Y658176D01*
X287154Y658189D01*
X287227Y658243D01*
X287270Y658269D01*
X287283Y658285D01*
X287304Y658301D01*
X288978Y659974D01*
X294300Y662179D01*
X300060Y662179D01*
X305382Y659974D01*
X309454Y655902D01*
X311659Y650580D01*
X311659Y644820D01*
X309454Y639498D01*
X306195Y636239D01*
X306151Y636175D01*
X306100Y636117D01*
X306087Y636084D01*
X306067Y636055D01*
X306048Y635980D01*
X306020Y635907D01*
X306020Y635872D01*
X306011Y635837D01*
X306019Y635761D01*
X306018Y635683D01*
X306030Y635650D01*
X306034Y635614D01*
X306068Y635545D01*
X306095Y635472D01*
X306118Y635445D01*
X306134Y635413D01*
X306190Y635360D01*
X306240Y635301D01*
X306275Y635280D01*
X306297Y635259D01*
X306340Y635241D01*
X306401Y635204D01*
X307922Y634574D01*
X310132Y632365D01*
X310166Y632340D01*
X310195Y632309D01*
X310258Y632277D01*
X310316Y632236D01*
X310357Y632226D01*
X310395Y632206D01*
X310484Y632193D01*
X310533Y632180D01*
X310554Y632183D01*
X310580Y632179D01*
X401029Y632179D01*
X404483Y630748D01*
X407216Y628015D01*
X429227Y606005D01*
X429261Y605980D01*
X429290Y605949D01*
X429353Y605917D01*
X429411Y605876D01*
X429452Y605866D01*
X429490Y605846D01*
X429579Y605833D01*
X429628Y605820D01*
X429649Y605823D01*
X429675Y605819D01*
X455681Y605819D01*
X455723Y605826D01*
X455766Y605824D01*
X455833Y605846D01*
X455902Y605858D01*
X455939Y605880D01*
X455979Y605893D01*
X456052Y605947D01*
X456095Y605973D01*
X456109Y605989D01*
X456130Y606005D01*
X458710Y608585D01*
X468390Y608585D01*
X475235Y601740D01*
X475235Y592060D01*
X473135Y589960D01*
X473110Y589925D01*
X473079Y589896D01*
X473047Y589833D01*
X473006Y589776D01*
X472996Y589735D01*
X472976Y589697D01*
X472963Y589607D01*
X472950Y589558D01*
X472953Y589538D01*
X472949Y589511D01*
X472949Y566189D01*
X472956Y566147D01*
X472954Y566104D01*
X472976Y566037D01*
X472988Y565968D01*
X473010Y565931D01*
X473023Y565891D01*
X473077Y565818D01*
X473103Y565775D01*
X473119Y565761D01*
X473135Y565740D01*
X475235Y563640D01*
X475235Y553960D01*
X468390Y547115D01*
X458710Y547115D01*
X451865Y553960D01*
X451865Y563640D01*
X453965Y565740D01*
X453990Y565775D01*
X454021Y565804D01*
X454053Y565867D01*
X454094Y565924D01*
X454104Y565965D01*
X454124Y566003D01*
X454137Y566093D01*
X454150Y566142D01*
X454147Y566162D01*
X454151Y566189D01*
X454151Y586387D01*
X454140Y586452D01*
X454138Y586518D01*
X454120Y586561D01*
X454112Y586608D01*
X454078Y586665D01*
X454053Y586725D01*
X454022Y586760D01*
X453997Y586801D01*
X453946Y586843D01*
X453902Y586891D01*
X453860Y586913D01*
X453823Y586942D01*
X453761Y586963D01*
X453702Y586994D01*
X453648Y587002D01*
X453611Y587014D01*
X453571Y587013D01*
X453517Y587021D01*
X423650Y587021D01*
X420195Y588452D01*
X417462Y591185D01*
X395452Y613195D01*
X395417Y613220D01*
X395389Y613251D01*
X395326Y613283D01*
X395268Y613324D01*
X395227Y613334D01*
X395189Y613354D01*
X395099Y613367D01*
X395051Y613380D01*
X395030Y613377D01*
X395004Y613381D01*
X311540Y613381D01*
X311498Y613374D01*
X311456Y613376D01*
X311389Y613354D01*
X311319Y613342D01*
X311283Y613320D01*
X311242Y613307D01*
X311169Y613253D01*
X311126Y613227D01*
X311113Y613211D01*
X311092Y613195D01*
X307922Y610026D01*
X306401Y609396D01*
X306335Y609354D01*
X306266Y609319D01*
X306242Y609294D01*
X306212Y609274D01*
X306165Y609212D01*
X306112Y609156D01*
X306098Y609123D01*
X306077Y609095D01*
X306055Y609021D01*
X306025Y608950D01*
X306023Y608914D01*
X306013Y608880D01*
X306018Y608803D01*
X306015Y608725D01*
X306026Y608692D01*
X306028Y608656D01*
X306060Y608585D01*
X306083Y608512D01*
X306107Y608479D01*
X306120Y608451D01*
X306153Y608418D01*
X306195Y608361D01*
X308072Y606484D01*
X308106Y606460D01*
X308135Y606429D01*
X308198Y606397D01*
X308256Y606356D01*
X308297Y606346D01*
X308335Y606326D01*
X308424Y606313D01*
X308473Y606300D01*
X308494Y606303D01*
X308520Y606299D01*
X347456Y606299D01*
X350911Y604868D01*
X425494Y530285D01*
X425529Y530260D01*
X425558Y530229D01*
X425620Y530197D01*
X425678Y530156D01*
X425719Y530146D01*
X425757Y530126D01*
X425847Y530113D01*
X425895Y530100D01*
X425916Y530103D01*
X425942Y530099D01*
X456161Y530099D01*
X456203Y530106D01*
X456246Y530104D01*
X456313Y530126D01*
X456382Y530138D01*
X456419Y530160D01*
X456459Y530173D01*
X456532Y530227D01*
X456575Y530253D01*
X456589Y530269D01*
X456610Y530285D01*
X458710Y532385D01*
X468390Y532385D01*
X475235Y525540D01*
X475235Y515860D01*
X473262Y513887D01*
X473237Y513852D01*
X473206Y513823D01*
X473174Y513760D01*
X473133Y513703D01*
X473123Y513662D01*
X473103Y513624D01*
X473090Y513534D01*
X473077Y513485D01*
X473080Y513465D01*
X473076Y513438D01*
X473076Y489862D01*
X473083Y489820D01*
X473081Y489777D01*
X473103Y489710D01*
X473115Y489641D01*
X473137Y489604D01*
X473150Y489564D01*
X473204Y489491D01*
X473230Y489448D01*
X473246Y489434D01*
X473262Y489413D01*
X475235Y487440D01*
X475235Y477760D01*
X468390Y470915D01*
X458710Y470915D01*
X455179Y474447D01*
X455106Y474497D01*
X455036Y474554D01*
X455014Y474561D01*
X454994Y474575D01*
X454908Y474597D01*
X454824Y474625D01*
X454800Y474625D01*
X454777Y474631D01*
X454689Y474621D01*
X454600Y474619D01*
X454578Y474610D01*
X454554Y474607D01*
X454474Y474568D01*
X454392Y474535D01*
X454374Y474519D01*
X454353Y474508D01*
X454292Y474443D01*
X454226Y474383D01*
X454215Y474362D01*
X454199Y474345D01*
X454164Y474263D01*
X454124Y474184D01*
X454120Y474157D01*
X454112Y474138D01*
X454109Y474088D01*
X454096Y473998D01*
X454096Y472913D01*
X452315Y471132D01*
X446298Y477150D01*
X446244Y477187D01*
X446196Y477232D01*
X446152Y477251D01*
X446114Y477278D01*
X446050Y477294D01*
X445989Y477320D01*
X445942Y477322D01*
X445896Y477334D01*
X445831Y477327D01*
X445765Y477330D01*
X445720Y477315D01*
X445673Y477310D01*
X445614Y477281D01*
X445551Y477261D01*
X445507Y477228D01*
X445472Y477211D01*
X445445Y477182D01*
X445401Y477150D01*
X444951Y476700D01*
X444950Y476701D01*
X445400Y477151D01*
X445437Y477205D01*
X445482Y477253D01*
X445499Y477292D01*
X445503Y477297D01*
X445505Y477302D01*
X445528Y477335D01*
X445544Y477399D01*
X445570Y477459D01*
X445572Y477500D01*
X445575Y477509D01*
X445574Y477517D01*
X445584Y477552D01*
X445577Y477618D01*
X445580Y477683D01*
X445569Y477718D01*
X445568Y477734D01*
X445564Y477745D01*
X445560Y477775D01*
X445531Y477834D01*
X445511Y477897D01*
X445490Y477925D01*
X445484Y477941D01*
X445472Y477954D01*
X445461Y477977D01*
X445432Y478004D01*
X445400Y478048D01*
X439382Y484065D01*
X441163Y485846D01*
X448739Y485846D01*
X450783Y483803D01*
X450856Y483752D01*
X450925Y483696D01*
X450947Y483688D01*
X450967Y483674D01*
X451053Y483652D01*
X451137Y483624D01*
X451161Y483624D01*
X451184Y483618D01*
X451273Y483628D01*
X451362Y483630D01*
X451384Y483639D01*
X451407Y483642D01*
X451487Y483681D01*
X451569Y483715D01*
X451587Y483731D01*
X451608Y483741D01*
X451669Y483806D01*
X451735Y483866D01*
X451746Y483887D01*
X451762Y483904D01*
X451797Y483986D01*
X451838Y484066D01*
X451841Y484092D01*
X451850Y484111D01*
X451852Y484161D01*
X451865Y484251D01*
X451865Y487440D01*
X453838Y489413D01*
X453863Y489448D01*
X453894Y489477D01*
X453926Y489540D01*
X453967Y489597D01*
X453977Y489638D01*
X453997Y489676D01*
X454010Y489766D01*
X454023Y489815D01*
X454020Y489835D01*
X454024Y489862D01*
X454024Y510667D01*
X454013Y510732D01*
X454011Y510798D01*
X453993Y510841D01*
X453985Y510888D01*
X453951Y510945D01*
X453926Y511005D01*
X453895Y511040D01*
X453870Y511081D01*
X453819Y511123D01*
X453775Y511171D01*
X453733Y511193D01*
X453696Y511222D01*
X453634Y511243D01*
X453575Y511274D01*
X453521Y511282D01*
X453484Y511294D01*
X453444Y511293D01*
X453390Y511301D01*
X419917Y511301D01*
X416463Y512732D01*
X341879Y587315D01*
X341845Y587340D01*
X341816Y587371D01*
X341753Y587403D01*
X341695Y587444D01*
X341654Y587454D01*
X341616Y587474D01*
X341527Y587487D01*
X341478Y587500D01*
X341457Y587497D01*
X341431Y587501D01*
X308520Y587501D01*
X308478Y587494D01*
X308436Y587496D01*
X308369Y587474D01*
X308299Y587462D01*
X308263Y587440D01*
X308222Y587427D01*
X308149Y587373D01*
X308106Y587347D01*
X308093Y587331D01*
X308072Y587316D01*
X306195Y585439D01*
X306151Y585375D01*
X306100Y585317D01*
X306087Y585284D01*
X306067Y585255D01*
X306048Y585180D01*
X306020Y585107D01*
X306020Y585072D01*
X306011Y585037D01*
X306019Y584961D01*
X306018Y584883D01*
X306030Y584850D01*
X306034Y584814D01*
X306068Y584745D01*
X306095Y584672D01*
X306118Y584645D01*
X306134Y584613D01*
X306190Y584560D01*
X306240Y584501D01*
X306275Y584480D01*
X306297Y584459D01*
X306340Y584441D01*
X306401Y584404D01*
X307922Y583774D01*
X311994Y579702D01*
X314199Y574380D01*
X314199Y568620D01*
X311994Y563298D01*
X307922Y559226D01*
X306401Y558596D01*
X306335Y558554D01*
X306266Y558519D01*
X306242Y558494D01*
X306212Y558474D01*
X306165Y558412D01*
X306112Y558356D01*
X306098Y558323D01*
X306077Y558295D01*
X306055Y558221D01*
X306025Y558150D01*
X306023Y558114D01*
X306013Y558080D01*
X306018Y558003D01*
X306015Y557925D01*
X306026Y557892D01*
X306028Y557856D01*
X306060Y557786D01*
X306083Y557712D01*
X306107Y557679D01*
X306120Y557651D01*
X306153Y557618D01*
X306195Y557561D01*
X309454Y554302D01*
X311659Y548980D01*
X311659Y543220D01*
X309454Y537898D01*
X306195Y534639D01*
X306151Y534575D01*
X306100Y534517D01*
X306087Y534484D01*
X306067Y534455D01*
X306048Y534380D01*
X306020Y534307D01*
X306020Y534272D01*
X306011Y534237D01*
X306019Y534161D01*
X306018Y534083D01*
X306030Y534050D01*
X306034Y534014D01*
X306068Y533945D01*
X306095Y533872D01*
X306118Y533845D01*
X306134Y533813D01*
X306190Y533760D01*
X306240Y533701D01*
X306275Y533680D01*
X306297Y533659D01*
X306340Y533641D01*
X306401Y533604D01*
X307922Y532974D01*
X311994Y528902D01*
X314199Y523580D01*
X314199Y517820D01*
X311994Y512498D01*
X307922Y508426D01*
X306401Y507796D01*
X306335Y507754D01*
X306266Y507719D01*
X306242Y507694D01*
X306212Y507674D01*
X306165Y507612D01*
X306112Y507556D01*
X306098Y507523D01*
X306077Y507495D01*
X306055Y507421D01*
X306025Y507350D01*
X306023Y507314D01*
X306013Y507280D01*
X306018Y507203D01*
X306015Y507125D01*
X306026Y507092D01*
X306028Y507056D01*
X306060Y506985D01*
X306083Y506912D01*
X306107Y506879D01*
X306120Y506851D01*
X306153Y506818D01*
X306195Y506761D01*
X308072Y504884D01*
X308106Y504860D01*
X308135Y504829D01*
X308198Y504797D01*
X308256Y504756D01*
X308297Y504746D01*
X308335Y504726D01*
X308424Y504713D01*
X308473Y504700D01*
X308494Y504703D01*
X308520Y504699D01*
X312117Y504699D01*
X315571Y503268D01*
X350220Y468619D01*
X350255Y468595D01*
X350284Y468564D01*
X350346Y468531D01*
X350404Y468491D01*
X350445Y468481D01*
X350483Y468461D01*
X350573Y468448D01*
X350622Y468435D01*
X350642Y468437D01*
X350669Y468433D01*
X353639Y468433D01*
X360483Y461589D01*
X360483Y459521D01*
X360491Y459479D01*
X360489Y459437D01*
X360511Y459370D01*
X360523Y459300D01*
X360545Y459264D01*
X360558Y459223D01*
X360612Y459151D01*
X360637Y459107D01*
X360653Y459094D01*
X360669Y459073D01*
X412957Y406784D01*
X413002Y406753D01*
X413040Y406715D01*
X413093Y406690D01*
X413142Y406656D01*
X413194Y406643D01*
X413243Y406620D01*
X413302Y406615D01*
X413359Y406600D01*
X413413Y406606D01*
X413467Y406601D01*
X413536Y406619D01*
X413582Y406624D01*
X413610Y406637D01*
X413649Y406647D01*
X414557Y407023D01*
X436343Y407023D01*
X441240Y404995D01*
X444987Y401247D01*
X447016Y396350D01*
X447016Y391050D01*
X444987Y386153D01*
X441240Y382405D01*
X439262Y381586D01*
X439187Y381538D01*
X439109Y381496D01*
X439093Y381478D01*
X439073Y381465D01*
X439020Y381394D01*
X438961Y381327D01*
X438953Y381304D01*
X438938Y381285D01*
X438913Y381200D01*
X438881Y381117D01*
X438881Y381093D01*
X438874Y381070D01*
X438880Y380982D01*
X438880Y380893D01*
X438888Y380870D01*
X438889Y380847D01*
X438926Y380765D01*
X438956Y380682D01*
X438971Y380664D01*
X438981Y380642D01*
X439044Y380578D01*
X439101Y380511D01*
X439124Y380497D01*
X439139Y380482D01*
X439184Y380461D01*
X439262Y380414D01*
X441240Y379595D01*
X444987Y375847D01*
X447016Y370950D01*
X447016Y365650D01*
X444987Y360753D01*
X441240Y357005D01*
X439262Y356186D01*
X439187Y356138D01*
X439109Y356096D01*
X439093Y356078D01*
X439073Y356065D01*
X439020Y355994D01*
X438961Y355927D01*
X438953Y355904D01*
X438938Y355885D01*
X438913Y355800D01*
X438881Y355717D01*
X438881Y355693D01*
X438874Y355670D01*
X438880Y355582D01*
X438880Y355493D01*
X438888Y355470D01*
X438889Y355447D01*
X438926Y355365D01*
X438956Y355282D01*
X438971Y355264D01*
X438981Y355242D01*
X439044Y355178D01*
X439101Y355111D01*
X439124Y355097D01*
X439139Y355082D01*
X439184Y355061D01*
X439262Y355014D01*
X441240Y354195D01*
X444987Y350447D01*
X447016Y345550D01*
X447016Y340250D01*
X444987Y335353D01*
X441240Y331605D01*
X439262Y330786D01*
X439187Y330738D01*
X439109Y330696D01*
X439093Y330678D01*
X439073Y330665D01*
X439020Y330594D01*
X438961Y330527D01*
X438953Y330504D01*
X438938Y330485D01*
X438913Y330400D01*
X438881Y330317D01*
X438881Y330293D01*
X438874Y330270D01*
X438880Y330182D01*
X438880Y330093D01*
X438888Y330070D01*
X438889Y330047D01*
X438926Y329965D01*
X438956Y329882D01*
X438971Y329864D01*
X438981Y329842D01*
X439044Y329778D01*
X439101Y329711D01*
X439124Y329697D01*
X439139Y329682D01*
X439184Y329661D01*
X439262Y329614D01*
X441240Y328795D01*
X444987Y325047D01*
X447016Y320150D01*
X447016Y314850D01*
X444987Y309953D01*
X441240Y306205D01*
X439262Y305386D01*
X439187Y305338D01*
X439109Y305296D01*
X439093Y305278D01*
X439073Y305265D01*
X439020Y305194D01*
X438961Y305127D01*
X438953Y305104D01*
X438938Y305085D01*
X438913Y305000D01*
X438881Y304917D01*
X438881Y304893D01*
X438874Y304870D01*
X438880Y304782D01*
X438880Y304693D01*
X438888Y304670D01*
X438889Y304647D01*
X438926Y304565D01*
X438956Y304482D01*
X438971Y304464D01*
X438981Y304442D01*
X439044Y304378D01*
X439101Y304311D01*
X439124Y304297D01*
X439139Y304282D01*
X439184Y304261D01*
X439262Y304214D01*
X441240Y303395D01*
X444987Y299647D01*
X447016Y294750D01*
X447016Y289450D01*
X444987Y284553D01*
X441240Y280805D01*
X439262Y279986D01*
X439187Y279938D01*
X439109Y279896D01*
X439093Y279878D01*
X439073Y279865D01*
X439020Y279794D01*
X438961Y279727D01*
X438953Y279704D01*
X438938Y279685D01*
X438913Y279600D01*
X438881Y279517D01*
X438881Y279493D01*
X438874Y279470D01*
X438880Y279382D01*
X438880Y279293D01*
X438888Y279270D01*
X438889Y279247D01*
X438926Y279165D01*
X438956Y279082D01*
X438971Y279064D01*
X438981Y279042D01*
X439044Y278978D01*
X439101Y278911D01*
X439124Y278897D01*
X439139Y278882D01*
X439184Y278861D01*
X439262Y278814D01*
X441240Y277995D01*
X444987Y274247D01*
X447016Y269350D01*
X447016Y264050D01*
X444987Y259153D01*
X441240Y255405D01*
X440795Y255221D01*
X440710Y255167D01*
X440624Y255115D01*
X440616Y255106D01*
X440606Y255100D01*
X440546Y255019D01*
X440482Y254941D01*
X440478Y254930D01*
X440471Y254920D01*
X440442Y254824D01*
X440410Y254729D01*
X440411Y254717D01*
X440407Y254705D01*
X440414Y254605D01*
X440417Y254504D01*
X440421Y254493D01*
X440422Y254482D01*
X440464Y254390D01*
X440501Y254297D01*
X440509Y254288D01*
X440514Y254277D01*
X440585Y254205D01*
X440653Y254131D01*
X440663Y254125D01*
X440672Y254117D01*
X440763Y254075D01*
X440852Y254028D01*
X440865Y254026D01*
X440875Y254022D01*
X440920Y254018D01*
X441038Y254001D01*
X445326Y254001D01*
X445368Y254008D01*
X445411Y254006D01*
X445478Y254028D01*
X445547Y254040D01*
X445584Y254062D01*
X445624Y254075D01*
X445697Y254129D01*
X445740Y254155D01*
X445754Y254171D01*
X445775Y254187D01*
X507813Y316225D01*
X507838Y316260D01*
X507869Y316289D01*
X507901Y316351D01*
X507942Y316409D01*
X507952Y316450D01*
X507972Y316488D01*
X507985Y316578D01*
X507998Y316627D01*
X507995Y316647D01*
X507999Y316674D01*
X507999Y656576D01*
X508459Y657686D01*
X508466Y657716D01*
X508480Y657744D01*
X508497Y657861D01*
X508507Y657905D01*
X508505Y657916D01*
X508507Y657929D01*
X508507Y663587D01*
X510364Y668069D01*
X513793Y671498D01*
X518275Y673355D01*
X523125Y673355D01*
X527607Y671498D01*
X531036Y668069D01*
X532814Y663777D01*
X532862Y663702D01*
X532904Y663624D01*
X532922Y663608D01*
X532935Y663588D01*
X533006Y663535D01*
X533073Y663476D01*
X533096Y663468D01*
X533115Y663454D01*
X533200Y663428D01*
X533283Y663397D01*
X533307Y663396D01*
X533330Y663390D01*
X533418Y663396D01*
X533507Y663395D01*
X533530Y663403D01*
X533553Y663405D01*
X533635Y663441D01*
X533718Y663471D01*
X533736Y663487D01*
X533758Y663497D01*
X533821Y663559D01*
X533889Y663617D01*
X533903Y663639D01*
X533918Y663654D01*
X533939Y663700D01*
X533986Y663777D01*
X535764Y668069D01*
X539193Y671498D01*
X543675Y673355D01*
X548525Y673355D01*
X553007Y671498D01*
X556436Y668069D01*
X558293Y663587D01*
X558293Y644513D01*
X557850Y643445D01*
X557839Y643392D01*
X557818Y643342D01*
X557815Y643283D01*
X557803Y643226D01*
X557810Y643172D01*
X557808Y643118D01*
X557826Y643062D01*
X557834Y643004D01*
X557860Y642956D01*
X557876Y642904D01*
X557919Y642847D01*
X557941Y642806D01*
X557964Y642786D01*
X557988Y642754D01*
X591971Y608771D01*
X592006Y608746D01*
X592035Y608715D01*
X592098Y608683D01*
X592155Y608642D01*
X592197Y608632D01*
X592234Y608612D01*
X592324Y608599D01*
X592373Y608586D01*
X592394Y608589D01*
X592420Y608585D01*
X595390Y608585D01*
X602235Y601740D01*
X602235Y592060D01*
X595390Y585215D01*
X585710Y585215D01*
X578865Y592060D01*
X578865Y595030D01*
X578858Y595072D01*
X578860Y595114D01*
X578838Y595182D01*
X578826Y595251D01*
X578804Y595288D01*
X578791Y595328D01*
X578737Y595401D01*
X578711Y595444D01*
X578695Y595457D01*
X578679Y595479D01*
X540865Y633293D01*
X538132Y636026D01*
X537023Y638703D01*
X537007Y638729D01*
X536997Y638759D01*
X536927Y638854D01*
X536902Y638892D01*
X536893Y638899D01*
X536886Y638909D01*
X535763Y640031D01*
X534621Y642790D01*
X534593Y642834D01*
X534588Y642846D01*
X534578Y642857D01*
X534567Y642874D01*
X534515Y642961D01*
X534506Y642969D01*
X534500Y642979D01*
X534419Y643039D01*
X534341Y643102D01*
X534330Y643106D01*
X534320Y643113D01*
X534224Y643142D01*
X534129Y643174D01*
X534117Y643174D01*
X534105Y643177D01*
X534004Y643171D01*
X533904Y643168D01*
X533893Y643163D01*
X533882Y643162D01*
X533789Y643121D01*
X533697Y643083D01*
X533688Y643075D01*
X533677Y643070D01*
X533605Y643000D01*
X533531Y642932D01*
X533525Y642921D01*
X533517Y642913D01*
X533475Y642822D01*
X533428Y642732D01*
X533426Y642719D01*
X533422Y642710D01*
X533418Y642664D01*
X533410Y642608D01*
X533408Y642602D01*
X533408Y642595D01*
X533401Y642547D01*
X533401Y449653D01*
X533414Y449580D01*
X533414Y449565D01*
X533418Y449556D01*
X533419Y449554D01*
X533433Y449454D01*
X533438Y449444D01*
X533440Y449432D01*
X533491Y449346D01*
X533539Y449257D01*
X533548Y449249D01*
X533555Y449239D01*
X533632Y449176D01*
X533708Y449109D01*
X533720Y449105D01*
X533729Y449098D01*
X533824Y449065D01*
X533918Y449030D01*
X533930Y449029D01*
X533941Y449026D01*
X534041Y449029D01*
X534142Y449028D01*
X534154Y449032D01*
X534166Y449032D01*
X534258Y449070D01*
X534353Y449104D01*
X534362Y449112D01*
X534373Y449117D01*
X534448Y449184D01*
X534524Y449250D01*
X534531Y449261D01*
X534539Y449268D01*
X534560Y449309D01*
X534621Y449410D01*
X535764Y452169D01*
X539193Y455598D01*
X543675Y457455D01*
X548586Y457455D01*
X548627Y457462D01*
X548670Y457460D01*
X548737Y457482D01*
X548806Y457494D01*
X548843Y457516D01*
X548883Y457529D01*
X548956Y457583D01*
X549000Y457609D01*
X549013Y457625D01*
X549034Y457641D01*
X581983Y490589D01*
X582049Y490638D01*
X582088Y490663D01*
X582094Y490672D01*
X582105Y490680D01*
X585710Y494285D01*
X595613Y494285D01*
X595700Y494301D01*
X595789Y494310D01*
X595810Y494320D01*
X595833Y494324D01*
X595910Y494370D01*
X595990Y494409D01*
X596006Y494426D01*
X596027Y494439D01*
X596083Y494508D01*
X596144Y494572D01*
X596153Y494594D01*
X596168Y494613D01*
X596197Y494697D01*
X596231Y494779D01*
X596232Y494803D01*
X596240Y494825D01*
X596237Y494914D01*
X596241Y495003D01*
X596234Y495026D01*
X596233Y495050D01*
X596200Y495132D01*
X596173Y495217D01*
X596157Y495238D01*
X596149Y495257D01*
X596115Y495295D01*
X596061Y495367D01*
X585243Y506185D01*
X582474Y508954D01*
X581024Y512455D01*
X581024Y513438D01*
X581017Y513480D01*
X581019Y513523D01*
X580997Y513590D01*
X580985Y513659D01*
X580963Y513696D01*
X580950Y513736D01*
X580896Y513809D01*
X580870Y513852D01*
X580854Y513866D01*
X580838Y513887D01*
X578865Y515860D01*
X578865Y525540D01*
X585710Y532385D01*
X595390Y532385D01*
X602235Y525540D01*
X602235Y516399D01*
X602242Y516358D01*
X602240Y516315D01*
X602262Y516248D01*
X602274Y516179D01*
X602296Y516142D01*
X602309Y516102D01*
X602363Y516029D01*
X602389Y515985D01*
X602405Y515972D01*
X602421Y515951D01*
X632410Y485962D01*
X632445Y485937D01*
X632473Y485906D01*
X632536Y485874D01*
X632594Y485833D01*
X632635Y485823D01*
X632673Y485803D01*
X632763Y485790D01*
X632811Y485777D01*
X632832Y485780D01*
X632858Y485776D01*
X667023Y485776D01*
X667077Y485785D01*
X667131Y485785D01*
X667186Y485805D01*
X667244Y485815D01*
X667291Y485843D01*
X667342Y485861D01*
X667387Y485900D01*
X667437Y485930D01*
X667472Y485972D01*
X667513Y486007D01*
X667550Y486068D01*
X667579Y486104D01*
X667589Y486133D01*
X667609Y486167D01*
X668858Y489183D01*
X672127Y492452D01*
X676398Y494221D01*
X694102Y494221D01*
X698373Y492452D01*
X701642Y489183D01*
X703411Y484912D01*
X703411Y480288D01*
X701642Y476017D01*
X698373Y472748D01*
X698027Y472605D01*
X697962Y472563D01*
X697892Y472529D01*
X697868Y472503D01*
X697838Y472484D01*
X697791Y472422D01*
X697738Y472366D01*
X697725Y472333D01*
X697703Y472305D01*
X697681Y472230D01*
X697651Y472159D01*
X697649Y472124D01*
X697639Y472090D01*
X697644Y472012D01*
X697641Y471935D01*
X697652Y471901D01*
X697654Y471866D01*
X697686Y471795D01*
X697710Y471721D01*
X697734Y471689D01*
X697746Y471661D01*
X697779Y471628D01*
X697821Y471571D01*
X705255Y464137D01*
X705290Y464112D01*
X705319Y464081D01*
X705382Y464049D01*
X705440Y464008D01*
X705481Y463998D01*
X705518Y463978D01*
X705608Y463965D01*
X705657Y463952D01*
X705678Y463955D01*
X705704Y463951D01*
X706647Y463951D01*
X706723Y463964D01*
X706800Y463970D01*
X706833Y463984D01*
X706868Y463990D01*
X706934Y464030D01*
X707005Y464062D01*
X707030Y464086D01*
X707061Y464105D01*
X707110Y464165D01*
X707165Y464219D01*
X707180Y464251D01*
X707202Y464279D01*
X707227Y464352D01*
X707260Y464422D01*
X707263Y464458D01*
X707274Y464491D01*
X707272Y464569D01*
X707278Y464646D01*
X707268Y464685D01*
X707268Y464716D01*
X707250Y464759D01*
X707233Y464828D01*
X706089Y467588D01*
X706089Y472212D01*
X707858Y476483D01*
X711127Y479752D01*
X715398Y481521D01*
X733102Y481521D01*
X737373Y479752D01*
X740642Y476483D01*
X742411Y472212D01*
X742411Y467588D01*
X741267Y464828D01*
X741251Y464752D01*
X741226Y464679D01*
X741227Y464643D01*
X741219Y464609D01*
X741230Y464532D01*
X741232Y464454D01*
X741246Y464422D01*
X741251Y464386D01*
X741288Y464318D01*
X741317Y464247D01*
X741341Y464220D01*
X741358Y464189D01*
X741416Y464138D01*
X741468Y464081D01*
X741500Y464065D01*
X741526Y464041D01*
X741599Y464014D01*
X741668Y463978D01*
X741708Y463972D01*
X741736Y463962D01*
X741783Y463961D01*
X741853Y463951D01*
X880089Y463951D01*
X884729Y462029D01*
X884759Y462022D01*
X884786Y462008D01*
X884903Y461991D01*
X884948Y461981D01*
X884959Y461983D01*
X884972Y461981D01*
X891698Y461981D01*
X897976Y459380D01*
X902780Y454576D01*
X905381Y448298D01*
X905381Y441502D01*
X902780Y435224D01*
X897976Y430420D01*
X891698Y427819D01*
X884972Y427819D01*
X884941Y427814D01*
X884911Y427816D01*
X884796Y427788D01*
X884751Y427780D01*
X884742Y427774D01*
X884729Y427771D01*
X880089Y425849D01*
X693761Y425849D01*
X686759Y428750D01*
X669100Y446409D01*
X666199Y453411D01*
X666199Y460989D01*
X668211Y465847D01*
X668228Y465923D01*
X668253Y465996D01*
X668252Y466032D01*
X668259Y466067D01*
X668248Y466143D01*
X668246Y466221D01*
X668233Y466253D01*
X668228Y466289D01*
X668191Y466357D01*
X668162Y466428D01*
X668138Y466455D01*
X668121Y466486D01*
X668063Y466537D01*
X668010Y466594D01*
X667979Y466610D01*
X667952Y466634D01*
X667880Y466661D01*
X667811Y466697D01*
X667771Y466703D01*
X667742Y466713D01*
X667696Y466714D01*
X667626Y466724D01*
X626755Y466724D01*
X623254Y468174D01*
X603317Y488111D01*
X603244Y488162D01*
X603175Y488218D01*
X603153Y488226D01*
X603133Y488239D01*
X603047Y488261D01*
X602963Y488290D01*
X602939Y488289D01*
X602916Y488295D01*
X602827Y488286D01*
X602738Y488283D01*
X602716Y488274D01*
X602693Y488272D01*
X602613Y488232D01*
X602531Y488199D01*
X602513Y488183D01*
X602492Y488172D01*
X602431Y488108D01*
X602365Y488048D01*
X602354Y488026D01*
X602338Y488009D01*
X602303Y487927D01*
X602262Y487848D01*
X602259Y487822D01*
X602250Y487803D01*
X602248Y487752D01*
X602235Y487663D01*
X602235Y477760D01*
X595390Y470915D01*
X589155Y470915D01*
X589113Y470908D01*
X589071Y470910D01*
X589004Y470888D01*
X588934Y470876D01*
X588898Y470854D01*
X588857Y470841D01*
X588785Y470787D01*
X588741Y470761D01*
X588728Y470745D01*
X588707Y470729D01*
X573658Y455681D01*
X573642Y455658D01*
X573621Y455641D01*
X573578Y455567D01*
X573530Y455496D01*
X573523Y455470D01*
X573509Y455446D01*
X573495Y455362D01*
X573474Y455279D01*
X573477Y455252D01*
X573472Y455225D01*
X573488Y455141D01*
X573497Y455056D01*
X573509Y455032D01*
X573514Y455005D01*
X573558Y454932D01*
X573596Y454855D01*
X573616Y454836D01*
X573630Y454813D01*
X573698Y454760D01*
X573760Y454701D01*
X573785Y454690D01*
X573806Y454673D01*
X573929Y454629D01*
X573966Y454613D01*
X573974Y454613D01*
X573983Y454610D01*
X574316Y454544D01*
X576072Y453816D01*
X577653Y452760D01*
X578998Y451415D01*
X580054Y449834D01*
X580782Y448078D01*
X581153Y446213D01*
X581153Y439419D01*
X572135Y439419D01*
X572070Y439408D01*
X572005Y439406D01*
X571961Y439388D01*
X571914Y439380D01*
X571858Y439346D01*
X571797Y439321D01*
X571762Y439289D01*
X571721Y439265D01*
X571680Y439214D01*
X571631Y439170D01*
X571609Y439128D01*
X571580Y439091D01*
X571559Y439029D01*
X571529Y438970D01*
X571520Y438916D01*
X571508Y438879D01*
X571509Y438839D01*
X571501Y438785D01*
X571501Y438149D01*
X571499Y438149D01*
X571499Y438785D01*
X571487Y438850D01*
X571486Y438915D01*
X571468Y438959D01*
X571459Y439006D01*
X571426Y439063D01*
X571401Y439123D01*
X571369Y439158D01*
X571345Y439199D01*
X571294Y439240D01*
X571250Y439289D01*
X571208Y439311D01*
X571171Y439340D01*
X571109Y439361D01*
X571050Y439392D01*
X570996Y439400D01*
X570959Y439412D01*
X570919Y439411D01*
X570865Y439419D01*
X561847Y439419D01*
X561847Y442339D01*
X561832Y442427D01*
X561822Y442515D01*
X561812Y442536D01*
X561808Y442560D01*
X561762Y442636D01*
X561723Y442716D01*
X561706Y442732D01*
X561693Y442753D01*
X561624Y442809D01*
X561560Y442870D01*
X561538Y442879D01*
X561519Y442894D01*
X561435Y442923D01*
X561353Y442958D01*
X561329Y442959D01*
X561307Y442966D01*
X561218Y442964D01*
X561129Y442968D01*
X561106Y442960D01*
X561082Y442960D01*
X561000Y442926D01*
X560915Y442899D01*
X560894Y442883D01*
X560875Y442875D01*
X560837Y442841D01*
X560765Y442787D01*
X559494Y441517D01*
X559470Y441482D01*
X559439Y441454D01*
X559407Y441391D01*
X559366Y441333D01*
X559356Y441292D01*
X559336Y441254D01*
X559323Y441165D01*
X559310Y441116D01*
X559313Y441095D01*
X559309Y441069D01*
X559309Y440090D01*
X558341Y437754D01*
X558334Y437724D01*
X558320Y437697D01*
X558303Y437580D01*
X558293Y437535D01*
X558295Y437524D01*
X558293Y437511D01*
X558293Y428613D01*
X556436Y424131D01*
X553007Y420702D01*
X548525Y418845D01*
X543675Y418845D01*
X539193Y420702D01*
X535764Y424131D01*
X534621Y426890D01*
X534567Y426974D01*
X534515Y427061D01*
X534506Y427069D01*
X534500Y427079D01*
X534419Y427139D01*
X534341Y427202D01*
X534330Y427206D01*
X534320Y427213D01*
X534224Y427242D01*
X534129Y427274D01*
X534117Y427274D01*
X534105Y427277D01*
X534004Y427271D01*
X533904Y427268D01*
X533893Y427263D01*
X533882Y427262D01*
X533789Y427221D01*
X533697Y427183D01*
X533688Y427175D01*
X533677Y427171D01*
X533605Y427100D01*
X533531Y427032D01*
X533525Y427021D01*
X533517Y427013D01*
X533475Y426922D01*
X533428Y426832D01*
X533426Y426819D01*
X533422Y426810D01*
X533418Y426764D01*
X533401Y426647D01*
X533401Y308624D01*
X531467Y303956D01*
X458044Y230533D01*
X453376Y228599D01*
X437972Y228599D01*
X437941Y228594D01*
X437911Y228596D01*
X437796Y228568D01*
X437751Y228560D01*
X437742Y228554D01*
X437729Y228551D01*
X436343Y227977D01*
X414557Y227977D01*
X410105Y229821D01*
X410075Y229828D01*
X410048Y229842D01*
X409930Y229859D01*
X409886Y229869D01*
X409875Y229867D01*
X409862Y229869D01*
X402717Y229869D01*
X402652Y229858D01*
X402586Y229856D01*
X402543Y229838D01*
X402496Y229830D01*
X402439Y229796D01*
X402379Y229771D01*
X402344Y229740D01*
X402303Y229715D01*
X402261Y229664D01*
X402213Y229620D01*
X402191Y229578D01*
X402162Y229541D01*
X402141Y229479D01*
X402110Y229420D01*
X402102Y229366D01*
X402090Y229329D01*
X402091Y229289D01*
X402083Y229235D01*
X402083Y225741D01*
X400342Y221540D01*
X396455Y217652D01*
X396430Y217617D01*
X396399Y217589D01*
X396367Y217526D01*
X396326Y217468D01*
X396316Y217427D01*
X396296Y217389D01*
X396283Y217299D01*
X396270Y217251D01*
X396273Y217230D01*
X396269Y217204D01*
X396269Y163796D01*
X396276Y163755D01*
X396274Y163712D01*
X396296Y163645D01*
X396308Y163576D01*
X396330Y163539D01*
X396343Y163499D01*
X396397Y163426D01*
X396423Y163382D01*
X396439Y163369D01*
X396455Y163348D01*
X400342Y159460D01*
X402083Y155259D01*
X402083Y47890D01*
X400342Y43688D01*
X377444Y20790D01*
X373242Y19049D01*
X284746Y19049D01*
X280545Y20790D01*
X263360Y37975D01*
X261619Y42176D01*
X261619Y51144D01*
X261612Y51186D01*
X261614Y51228D01*
X261592Y51295D01*
X261580Y51365D01*
X261558Y51401D01*
X261545Y51442D01*
X261491Y51515D01*
X261465Y51558D01*
X261449Y51571D01*
X261433Y51592D01*
X260776Y52250D01*
X258571Y57572D01*
X258571Y66104D01*
X258564Y66146D01*
X258566Y66189D01*
X258544Y66256D01*
X258532Y66325D01*
X258510Y66362D01*
X258497Y66402D01*
X258443Y66475D01*
X258417Y66518D01*
X258401Y66532D01*
X258385Y66553D01*
X232223Y92715D01*
X232170Y92752D01*
X232122Y92798D01*
X232078Y92816D01*
X232039Y92843D01*
X231976Y92859D01*
X231915Y92885D01*
X231868Y92887D01*
X231822Y92899D01*
X231757Y92892D01*
X231691Y92895D01*
X231646Y92881D01*
X231599Y92876D01*
X231540Y92847D01*
X231477Y92826D01*
X231433Y92794D01*
X231398Y92776D01*
X231371Y92748D01*
X231327Y92715D01*
X225612Y87000D01*
X225587Y86965D01*
X225556Y86936D01*
X225524Y86874D01*
X225483Y86816D01*
X225473Y86775D01*
X225453Y86737D01*
X225440Y86647D01*
X225427Y86598D01*
X225430Y86578D01*
X225426Y86551D01*
X225426Y82324D01*
X216126Y73024D01*
X202974Y73024D01*
X196311Y79688D01*
X196257Y79725D01*
X196209Y79770D01*
X196165Y79789D01*
X196126Y79816D01*
X196063Y79832D01*
X196002Y79858D01*
X195955Y79860D01*
X195909Y79872D01*
X195844Y79865D01*
X195778Y79868D01*
X195733Y79853D01*
X195686Y79848D01*
X195627Y79819D01*
X195564Y79799D01*
X195520Y79766D01*
X195485Y79749D01*
X195458Y79720D01*
X195414Y79688D01*
X192352Y76626D01*
X187030Y74421D01*
X181270Y74421D01*
X175948Y76626D01*
X171898Y80675D01*
X171844Y80713D01*
X171797Y80758D01*
X171753Y80777D01*
X171714Y80804D01*
X171651Y80820D01*
X171590Y80846D01*
X171543Y80848D01*
X171497Y80860D01*
X171432Y80853D01*
X171366Y80856D01*
X171321Y80841D01*
X171274Y80836D01*
X171215Y80807D01*
X171152Y80787D01*
X171108Y80754D01*
X171073Y80737D01*
X171046Y80708D01*
X171002Y80675D01*
X166952Y76626D01*
X161630Y74421D01*
X155870Y74421D01*
X150548Y76626D01*
X147486Y79688D01*
X147432Y79725D01*
X147384Y79770D01*
X147341Y79789D01*
X147302Y79816D01*
X147238Y79832D01*
X147178Y79858D01*
X147131Y79860D01*
X147085Y79872D01*
X147019Y79865D01*
X146954Y79868D01*
X146909Y79853D01*
X146862Y79848D01*
X146803Y79819D01*
X146740Y79799D01*
X146696Y79766D01*
X146661Y79749D01*
X146633Y79720D01*
X146589Y79688D01*
X139926Y73024D01*
X126774Y73024D01*
X117474Y82324D01*
X117474Y88348D01*
X117467Y88389D01*
X117469Y88432D01*
X117447Y88499D01*
X117435Y88568D01*
X117413Y88605D01*
X117400Y88645D01*
X117346Y88718D01*
X117320Y88762D01*
X117304Y88775D01*
X117288Y88796D01*
X90701Y115383D01*
X90666Y115408D01*
X90637Y115439D01*
X90575Y115471D01*
X90517Y115512D01*
X90476Y115522D01*
X90438Y115542D01*
X90348Y115555D01*
X90300Y115568D01*
X90279Y115565D01*
X90253Y115569D01*
X49807Y115569D01*
X49765Y115562D01*
X49722Y115564D01*
X49655Y115542D01*
X49586Y115530D01*
X49549Y115508D01*
X49509Y115495D01*
X49436Y115441D01*
X49393Y115415D01*
X49379Y115399D01*
X49358Y115383D01*
X49290Y115315D01*
X39610Y115315D01*
X32765Y122160D01*
X32765Y131840D01*
X39610Y138685D01*
X49290Y138685D01*
X49358Y138617D01*
X49393Y138592D01*
X49422Y138561D01*
X49485Y138529D01*
X49542Y138488D01*
X49583Y138478D01*
X49621Y138458D01*
X49711Y138445D01*
X49760Y138432D01*
X49780Y138435D01*
X49807Y138431D01*
X97524Y138431D01*
X101725Y136690D01*
X133454Y104962D01*
X133489Y104937D01*
X133518Y104906D01*
X133580Y104874D01*
X133638Y104833D01*
X133679Y104823D01*
X133717Y104803D01*
X133807Y104790D01*
X133855Y104777D01*
X133876Y104780D01*
X133902Y104776D01*
X139926Y104776D01*
X146589Y98112D01*
X146643Y98075D01*
X146691Y98030D01*
X146735Y98011D01*
X146774Y97984D01*
X146837Y97968D01*
X146898Y97942D01*
X146945Y97940D01*
X146991Y97928D01*
X147056Y97935D01*
X147122Y97932D01*
X147167Y97947D01*
X147214Y97952D01*
X147273Y97981D01*
X147336Y98001D01*
X147380Y98034D01*
X147415Y98051D01*
X147442Y98080D01*
X147486Y98112D01*
X150548Y101174D01*
X155870Y103379D01*
X161630Y103379D01*
X166952Y101174D01*
X171002Y97125D01*
X171055Y97087D01*
X171103Y97042D01*
X171147Y97023D01*
X171186Y96996D01*
X171249Y96980D01*
X171310Y96954D01*
X171357Y96952D01*
X171403Y96940D01*
X171468Y96947D01*
X171534Y96944D01*
X171579Y96959D01*
X171626Y96964D01*
X171685Y96993D01*
X171748Y97013D01*
X171792Y97046D01*
X171827Y97063D01*
X171854Y97092D01*
X171898Y97125D01*
X175948Y101174D01*
X181270Y103379D01*
X187030Y103379D01*
X192352Y101174D01*
X195414Y98112D01*
X195468Y98075D01*
X195516Y98030D01*
X195559Y98011D01*
X195598Y97984D01*
X195662Y97968D01*
X195722Y97942D01*
X195769Y97940D01*
X195815Y97928D01*
X195881Y97935D01*
X195946Y97932D01*
X195991Y97947D01*
X196038Y97952D01*
X196097Y97981D01*
X196160Y98001D01*
X196204Y98034D01*
X196239Y98051D01*
X196267Y98080D01*
X196311Y98112D01*
X201283Y103085D01*
X201334Y103158D01*
X201390Y103227D01*
X201397Y103249D01*
X201411Y103269D01*
X201433Y103355D01*
X201462Y103439D01*
X201461Y103463D01*
X201467Y103486D01*
X201458Y103575D01*
X201455Y103664D01*
X201446Y103686D01*
X201444Y103709D01*
X201404Y103789D01*
X201371Y103871D01*
X201355Y103889D01*
X201344Y103910D01*
X201279Y103971D01*
X201219Y104037D01*
X201198Y104048D01*
X201181Y104064D01*
X201099Y104099D01*
X201020Y104140D01*
X200994Y104143D01*
X200974Y104152D01*
X200924Y104154D01*
X200834Y104167D01*
X200197Y104167D01*
X195528Y106101D01*
X131501Y170128D01*
X129567Y174797D01*
X129567Y175011D01*
X129551Y175099D01*
X129542Y175188D01*
X129532Y175209D01*
X129528Y175232D01*
X129482Y175309D01*
X129443Y175389D01*
X129426Y175405D01*
X129413Y175425D01*
X129344Y175482D01*
X129280Y175543D01*
X129258Y175552D01*
X129239Y175567D01*
X129155Y175595D01*
X129073Y175630D01*
X129049Y175631D01*
X129027Y175639D01*
X128938Y175636D01*
X128849Y175640D01*
X128826Y175633D01*
X128802Y175632D01*
X128720Y175599D01*
X128635Y175571D01*
X128614Y175556D01*
X128595Y175548D01*
X128557Y175514D01*
X128485Y175460D01*
X125490Y172465D01*
X115810Y172465D01*
X108965Y179310D01*
X108965Y188990D01*
X115810Y195835D01*
X125490Y195835D01*
X128485Y192840D01*
X128558Y192789D01*
X128627Y192733D01*
X128649Y192726D01*
X128669Y192712D01*
X128755Y192690D01*
X128839Y192661D01*
X128863Y192662D01*
X128886Y192656D01*
X128975Y192665D01*
X129064Y192668D01*
X129086Y192677D01*
X129109Y192679D01*
X129189Y192719D01*
X129271Y192752D01*
X129289Y192768D01*
X129310Y192779D01*
X129371Y192844D01*
X129437Y192904D01*
X129448Y192925D01*
X129464Y192942D01*
X129499Y193024D01*
X129540Y193103D01*
X129543Y193129D01*
X129552Y193149D01*
X129554Y193199D01*
X129567Y193289D01*
X129567Y199853D01*
X131501Y204522D01*
X133163Y206184D01*
X133188Y206219D01*
X133219Y206248D01*
X133251Y206311D01*
X133292Y206368D01*
X133302Y206409D01*
X133322Y206447D01*
X133335Y206537D01*
X133348Y206586D01*
X133345Y206606D01*
X133349Y206633D01*
X133349Y354965D01*
X133338Y355030D01*
X133336Y355096D01*
X133318Y355139D01*
X133310Y355186D01*
X133276Y355243D01*
X133251Y355303D01*
X133220Y355338D01*
X133195Y355379D01*
X133144Y355421D01*
X133100Y355469D01*
X133058Y355491D01*
X133021Y355520D01*
X132959Y355541D01*
X132900Y355572D01*
X132846Y355580D01*
X132809Y355592D01*
X132769Y355591D01*
X132715Y355599D01*
X118503Y355599D01*
X118404Y355581D01*
X118304Y355567D01*
X118294Y355562D01*
X118282Y355560D01*
X118195Y355508D01*
X118107Y355461D01*
X118099Y355452D01*
X118089Y355445D01*
X118026Y355368D01*
X117959Y355292D01*
X117955Y355280D01*
X117947Y355271D01*
X117915Y355176D01*
X117879Y355082D01*
X117879Y355070D01*
X117876Y355059D01*
X117878Y354959D01*
X117878Y354858D01*
X117882Y354846D01*
X117882Y354834D01*
X117920Y354742D01*
X117954Y354647D01*
X117962Y354638D01*
X117966Y354627D01*
X118034Y354553D01*
X118099Y354476D01*
X118111Y354469D01*
X118118Y354461D01*
X118159Y354440D01*
X118260Y354379D01*
X121166Y353175D01*
X124575Y349766D01*
X126421Y345311D01*
X126421Y340489D01*
X124575Y336034D01*
X121166Y332625D01*
X116727Y330786D01*
X116652Y330738D01*
X116574Y330696D01*
X116558Y330678D01*
X116538Y330665D01*
X116485Y330594D01*
X116426Y330527D01*
X116418Y330504D01*
X116403Y330485D01*
X116378Y330400D01*
X116346Y330317D01*
X116346Y330293D01*
X116340Y330270D01*
X116345Y330182D01*
X116345Y330093D01*
X116353Y330070D01*
X116354Y330047D01*
X116391Y329965D01*
X116421Y329882D01*
X116437Y329864D01*
X116446Y329842D01*
X116509Y329778D01*
X116566Y329711D01*
X116589Y329697D01*
X116604Y329682D01*
X116649Y329661D01*
X116727Y329614D01*
X121166Y327775D01*
X124575Y324366D01*
X126421Y319911D01*
X126421Y315089D01*
X124575Y310634D01*
X121166Y307225D01*
X116727Y305386D01*
X116652Y305338D01*
X116574Y305296D01*
X116558Y305278D01*
X116538Y305265D01*
X116485Y305194D01*
X116426Y305127D01*
X116418Y305104D01*
X116403Y305085D01*
X116378Y305000D01*
X116346Y304917D01*
X116346Y304893D01*
X116340Y304870D01*
X116345Y304782D01*
X116345Y304693D01*
X116353Y304670D01*
X116354Y304647D01*
X116391Y304565D01*
X116421Y304482D01*
X116437Y304464D01*
X116446Y304442D01*
X116509Y304378D01*
X116566Y304311D01*
X116589Y304297D01*
X116604Y304282D01*
X116649Y304261D01*
X116727Y304214D01*
X121166Y302375D01*
X124575Y298966D01*
X126421Y294511D01*
X126421Y289689D01*
X124575Y285234D01*
X121166Y281825D01*
X116727Y279986D01*
X116652Y279938D01*
X116574Y279896D01*
X116558Y279878D01*
X116538Y279865D01*
X116485Y279794D01*
X116426Y279727D01*
X116418Y279704D01*
X116403Y279685D01*
X116378Y279600D01*
X116346Y279517D01*
X116346Y279493D01*
X116340Y279470D01*
X116345Y279382D01*
X116345Y279293D01*
X116353Y279270D01*
X116354Y279247D01*
X116391Y279165D01*
X116421Y279082D01*
X116437Y279064D01*
X116446Y279042D01*
X116509Y278978D01*
X116566Y278911D01*
X116589Y278897D01*
X116604Y278882D01*
X116649Y278861D01*
X116727Y278814D01*
X121166Y276975D01*
X124575Y273566D01*
X126421Y269111D01*
X126421Y264289D01*
X124575Y259834D01*
X121166Y256425D01*
X116727Y254586D01*
X116652Y254538D01*
X116574Y254496D01*
X116558Y254478D01*
X116538Y254465D01*
X116485Y254394D01*
X116426Y254327D01*
X116418Y254304D01*
X116403Y254285D01*
X116378Y254200D01*
X116346Y254117D01*
X116346Y254093D01*
X116340Y254070D01*
X116345Y253982D01*
X116345Y253893D01*
X116353Y253870D01*
X116354Y253847D01*
X116391Y253765D01*
X116421Y253682D01*
X116437Y253664D01*
X116446Y253642D01*
X116509Y253578D01*
X116566Y253511D01*
X116589Y253497D01*
X116604Y253482D01*
X116649Y253461D01*
X116727Y253414D01*
X121166Y251575D01*
X124575Y248166D01*
X126421Y243711D01*
X126421Y238889D01*
X124575Y234434D01*
X121500Y231359D01*
X121456Y231296D01*
X121405Y231237D01*
X121392Y231204D01*
X121372Y231175D01*
X121353Y231100D01*
X121325Y231027D01*
X121325Y230992D01*
X121316Y230958D01*
X121324Y230881D01*
X121324Y230803D01*
X121336Y230770D01*
X121340Y230734D01*
X121374Y230665D01*
X121400Y230592D01*
X121423Y230565D01*
X121439Y230533D01*
X121495Y230480D01*
X121545Y230421D01*
X121580Y230400D01*
X121602Y230379D01*
X121645Y230361D01*
X121706Y230325D01*
X123454Y229600D01*
X128000Y225054D01*
X130461Y219115D01*
X130461Y212685D01*
X128000Y206746D01*
X123454Y202200D01*
X117515Y199739D01*
X111085Y199739D01*
X105146Y202200D01*
X100600Y206746D01*
X98139Y212685D01*
X98139Y219115D01*
X100600Y225054D01*
X105146Y229600D01*
X105302Y229665D01*
X105387Y229719D01*
X105473Y229771D01*
X105481Y229780D01*
X105491Y229786D01*
X105551Y229867D01*
X105614Y229945D01*
X105618Y229956D01*
X105625Y229966D01*
X105654Y230062D01*
X105686Y230157D01*
X105686Y230169D01*
X105689Y230181D01*
X105683Y230281D01*
X105680Y230382D01*
X105675Y230393D01*
X105674Y230404D01*
X105633Y230497D01*
X105595Y230589D01*
X105587Y230598D01*
X105583Y230609D01*
X105512Y230681D01*
X105444Y230755D01*
X105433Y230760D01*
X105425Y230769D01*
X105334Y230812D01*
X105244Y230858D01*
X105231Y230860D01*
X105222Y230864D01*
X105176Y230868D01*
X105059Y230885D01*
X91604Y230885D01*
X91562Y230878D01*
X91520Y230880D01*
X91453Y230858D01*
X91383Y230846D01*
X91347Y230824D01*
X91306Y230811D01*
X91233Y230757D01*
X91190Y230731D01*
X91186Y230727D01*
X91184Y230726D01*
X91174Y230713D01*
X91155Y230699D01*
X89482Y229026D01*
X84160Y226821D01*
X78400Y226821D01*
X73078Y229026D01*
X69006Y233098D01*
X66801Y238420D01*
X66801Y244180D01*
X69006Y249502D01*
X73078Y253574D01*
X74599Y254204D01*
X74664Y254246D01*
X74734Y254281D01*
X74758Y254306D01*
X74788Y254326D01*
X74835Y254387D01*
X74888Y254444D01*
X74902Y254477D01*
X74923Y254505D01*
X74945Y254579D01*
X74975Y254650D01*
X74977Y254686D01*
X74987Y254720D01*
X74982Y254797D01*
X74985Y254875D01*
X74974Y254908D01*
X74972Y254944D01*
X74940Y255014D01*
X74917Y255088D01*
X74893Y255121D01*
X74880Y255149D01*
X74847Y255182D01*
X74805Y255239D01*
X71546Y258498D01*
X69341Y263820D01*
X69341Y269580D01*
X71546Y274902D01*
X74805Y278161D01*
X74849Y278225D01*
X74900Y278283D01*
X74913Y278316D01*
X74933Y278345D01*
X74952Y278420D01*
X74980Y278493D01*
X74980Y278528D01*
X74989Y278563D01*
X74981Y278640D01*
X74982Y278717D01*
X74970Y278751D01*
X74966Y278786D01*
X74932Y278855D01*
X74905Y278928D01*
X74882Y278955D01*
X74866Y278987D01*
X74810Y279040D01*
X74760Y279099D01*
X74725Y279120D01*
X74703Y279141D01*
X74660Y279159D01*
X74599Y279196D01*
X73078Y279826D01*
X69006Y283898D01*
X66801Y289220D01*
X66801Y294980D01*
X69006Y300302D01*
X73078Y304374D01*
X74599Y305004D01*
X74664Y305046D01*
X74734Y305081D01*
X74758Y305106D01*
X74788Y305126D01*
X74835Y305187D01*
X74888Y305244D01*
X74902Y305277D01*
X74923Y305305D01*
X74945Y305379D01*
X74975Y305450D01*
X74977Y305486D01*
X74987Y305520D01*
X74982Y305597D01*
X74985Y305675D01*
X74974Y305708D01*
X74972Y305744D01*
X74940Y305814D01*
X74917Y305888D01*
X74893Y305921D01*
X74880Y305949D01*
X74847Y305982D01*
X74805Y306039D01*
X71546Y309298D01*
X69341Y314620D01*
X69341Y320380D01*
X71546Y325702D01*
X74805Y328961D01*
X74849Y329025D01*
X74900Y329083D01*
X74913Y329116D01*
X74933Y329145D01*
X74952Y329220D01*
X74980Y329293D01*
X74980Y329328D01*
X74989Y329363D01*
X74981Y329439D01*
X74982Y329517D01*
X74970Y329550D01*
X74966Y329586D01*
X74932Y329655D01*
X74905Y329728D01*
X74882Y329755D01*
X74866Y329787D01*
X74810Y329840D01*
X74760Y329899D01*
X74725Y329920D01*
X74703Y329941D01*
X74660Y329959D01*
X74599Y329996D01*
X73078Y330626D01*
X69006Y334698D01*
X66801Y340020D01*
X66801Y345780D01*
X69006Y351102D01*
X73078Y355174D01*
X74599Y355804D01*
X74664Y355846D01*
X74734Y355881D01*
X74758Y355906D01*
X74788Y355926D01*
X74835Y355987D01*
X74888Y356044D01*
X74902Y356077D01*
X74923Y356105D01*
X74945Y356179D01*
X74975Y356250D01*
X74977Y356286D01*
X74987Y356320D01*
X74982Y356397D01*
X74985Y356475D01*
X74974Y356508D01*
X74972Y356544D01*
X74940Y356614D01*
X74917Y356688D01*
X74893Y356721D01*
X74880Y356749D01*
X74847Y356782D01*
X74805Y356839D01*
X71546Y360098D01*
X69341Y365420D01*
X69341Y371180D01*
X71546Y376502D01*
X74805Y379761D01*
X74849Y379825D01*
X74900Y379883D01*
X74913Y379916D01*
X74933Y379945D01*
X74952Y380020D01*
X74980Y380093D01*
X74980Y380128D01*
X74989Y380163D01*
X74981Y380239D01*
X74982Y380317D01*
X74970Y380350D01*
X74966Y380386D01*
X74932Y380455D01*
X74905Y380528D01*
X74882Y380555D01*
X74866Y380587D01*
X74810Y380640D01*
X74760Y380699D01*
X74725Y380720D01*
X74703Y380741D01*
X74660Y380759D01*
X74599Y380796D01*
X73078Y381426D01*
X69006Y385498D01*
X66801Y390820D01*
X66801Y396580D01*
X69006Y401902D01*
X73078Y405974D01*
X74599Y406604D01*
X74665Y406646D01*
X74734Y406681D01*
X74758Y406706D01*
X74788Y406726D01*
X74835Y406788D01*
X74888Y406844D01*
X74902Y406877D01*
X74923Y406905D01*
X74945Y406979D01*
X74975Y407050D01*
X74977Y407086D01*
X74987Y407120D01*
X74982Y407197D01*
X74985Y407275D01*
X74974Y407308D01*
X74972Y407344D01*
X74940Y407414D01*
X74917Y407488D01*
X74893Y407521D01*
X74880Y407549D01*
X74847Y407582D01*
X74805Y407639D01*
X71546Y410898D01*
X69341Y416220D01*
X69341Y421381D01*
X69325Y421469D01*
X69316Y421558D01*
X69306Y421579D01*
X69302Y421602D01*
X69256Y421679D01*
X69217Y421759D01*
X69200Y421775D01*
X69187Y421795D01*
X69118Y421852D01*
X69054Y421913D01*
X69032Y421922D01*
X69013Y421937D01*
X68929Y421965D01*
X68847Y422000D01*
X68823Y422001D01*
X68801Y422009D01*
X68712Y422006D01*
X68623Y422010D01*
X68600Y422003D01*
X68576Y422002D01*
X68494Y421969D01*
X68409Y421941D01*
X68388Y421926D01*
X68369Y421918D01*
X68331Y421884D01*
X68259Y421830D01*
X59718Y413290D01*
X56700Y410271D01*
X52872Y408685D01*
X51472Y408685D01*
X51430Y408678D01*
X51388Y408680D01*
X51321Y408658D01*
X51251Y408646D01*
X51215Y408624D01*
X51174Y408611D01*
X51101Y408557D01*
X51058Y408531D01*
X51045Y408515D01*
X51024Y408499D01*
X49350Y406826D01*
X44028Y404621D01*
X19472Y404621D01*
X14150Y406826D01*
X11243Y409733D01*
X11170Y409783D01*
X11101Y409839D01*
X11079Y409847D01*
X11059Y409861D01*
X10973Y409883D01*
X10889Y409911D01*
X10865Y409911D01*
X10842Y409917D01*
X10753Y409907D01*
X10664Y409905D01*
X10642Y409896D01*
X10619Y409893D01*
X10539Y409854D01*
X10457Y409820D01*
X10439Y409804D01*
X10418Y409794D01*
X10357Y409729D01*
X10291Y409669D01*
X10280Y409648D01*
X10264Y409631D01*
X10229Y409549D01*
X10188Y409469D01*
X10185Y409443D01*
X10176Y409424D01*
X10174Y409374D01*
X10161Y409284D01*
X10161Y10795D01*
X10172Y10730D01*
X10174Y10664D01*
X10192Y10621D01*
X10200Y10574D01*
X10234Y10517D01*
X10259Y10457D01*
X10290Y10422D01*
X10315Y10381D01*
X10366Y10339D01*
X10410Y10291D01*
X10452Y10269D01*
X10489Y10240D01*
X10551Y10219D01*
X10610Y10188D01*
X10664Y10180D01*
X10701Y10168D01*
X10741Y10169D01*
X10795Y10161D01*
X941705Y10161D01*
X941770Y10172D01*
G37*
%LPC*%
G36*
X867209Y477790D02*
X867209Y477790D01*
X867206Y477790D01*
X867204Y477792D01*
X867019Y477819D01*
X860902Y477819D01*
X854624Y480420D01*
X849820Y485224D01*
X847219Y491502D01*
X847219Y494128D01*
X847207Y494197D01*
X847204Y494267D01*
X847187Y494307D01*
X847180Y494349D01*
X847144Y494409D01*
X847117Y494474D01*
X847084Y494511D01*
X847065Y494542D01*
X847033Y494569D01*
X846993Y494614D01*
X793346Y539601D01*
X793334Y539608D01*
X793324Y539619D01*
X793236Y539664D01*
X793152Y539712D01*
X793137Y539715D01*
X793124Y539722D01*
X792939Y539749D01*
X707201Y539749D01*
X707108Y539733D01*
X707015Y539721D01*
X706998Y539713D01*
X706980Y539710D01*
X706899Y539662D01*
X706815Y539619D01*
X706803Y539605D01*
X706787Y539595D01*
X706728Y539523D01*
X706664Y539453D01*
X706656Y539434D01*
X706645Y539421D01*
X706629Y539374D01*
X706589Y539281D01*
X702641Y524749D01*
X698075Y518841D01*
X698058Y518808D01*
X698034Y518780D01*
X698007Y518709D01*
X697972Y518642D01*
X697967Y518605D01*
X697954Y518570D01*
X697953Y518495D01*
X697944Y518420D01*
X697952Y518383D01*
X697952Y518346D01*
X697978Y518275D01*
X697995Y518201D01*
X698016Y518170D01*
X698029Y518135D01*
X698078Y518077D01*
X698119Y518014D01*
X698150Y517992D01*
X698174Y517964D01*
X698260Y517912D01*
X698301Y517882D01*
X698317Y517878D01*
X698335Y517867D01*
X698373Y517852D01*
X701642Y514583D01*
X703411Y510312D01*
X703411Y505688D01*
X701642Y501417D01*
X698373Y498148D01*
X694102Y496379D01*
X676398Y496379D01*
X672127Y498148D01*
X668858Y501417D01*
X667609Y504433D01*
X667580Y504478D01*
X667560Y504528D01*
X667520Y504572D01*
X667488Y504622D01*
X667445Y504654D01*
X667408Y504694D01*
X667356Y504721D01*
X667309Y504756D01*
X667257Y504772D01*
X667209Y504797D01*
X667138Y504807D01*
X667094Y504820D01*
X667063Y504818D01*
X667023Y504824D01*
X633105Y504824D01*
X629604Y506274D01*
X588949Y546929D01*
X588914Y546954D01*
X588886Y546985D01*
X588823Y547017D01*
X588765Y547058D01*
X588724Y547068D01*
X588686Y547088D01*
X588596Y547101D01*
X588548Y547114D01*
X588527Y547111D01*
X588501Y547115D01*
X585710Y547115D01*
X578865Y553960D01*
X578865Y563640D01*
X585710Y570485D01*
X595390Y570485D01*
X602235Y563640D01*
X602235Y560849D01*
X602242Y560808D01*
X602240Y560765D01*
X602262Y560698D01*
X602274Y560629D01*
X602296Y560592D01*
X602309Y560552D01*
X602363Y560479D01*
X602389Y560435D01*
X602405Y560422D01*
X602421Y560401D01*
X638760Y524062D01*
X638788Y524042D01*
X638796Y524033D01*
X638800Y524031D01*
X638823Y524006D01*
X638886Y523974D01*
X638944Y523933D01*
X638985Y523923D01*
X639023Y523903D01*
X639113Y523890D01*
X639161Y523877D01*
X639182Y523880D01*
X639208Y523876D01*
X667657Y523876D01*
X667662Y523877D01*
X667667Y523876D01*
X667772Y523896D01*
X667878Y523915D01*
X667882Y523918D01*
X667887Y523919D01*
X667978Y523975D01*
X668071Y524030D01*
X668074Y524034D01*
X668078Y524036D01*
X668144Y524120D01*
X668212Y524204D01*
X668214Y524209D01*
X668217Y524213D01*
X668250Y524315D01*
X668284Y524416D01*
X668284Y524421D01*
X668285Y524426D01*
X668280Y524534D01*
X668277Y524641D01*
X668275Y524645D01*
X668275Y524651D01*
X668207Y524825D01*
X666835Y527220D01*
X665872Y534737D01*
X673077Y561260D01*
X673081Y561303D01*
X673099Y561426D01*
X673099Y562589D01*
X674069Y564930D01*
X674076Y564964D01*
X674095Y565006D01*
X674759Y567451D01*
X675470Y568372D01*
X675490Y568410D01*
X675554Y568517D01*
X676000Y569591D01*
X677791Y571383D01*
X677811Y571411D01*
X677844Y571443D01*
X679393Y573448D01*
X680403Y574026D01*
X680436Y574054D01*
X680536Y574128D01*
X681359Y574950D01*
X683699Y575920D01*
X683728Y575939D01*
X683772Y575956D01*
X685970Y577215D01*
X687124Y577362D01*
X687165Y577375D01*
X687286Y577406D01*
X688361Y577851D01*
X690894Y577851D01*
X690928Y577857D01*
X690975Y577856D01*
X693487Y578178D01*
X694610Y577873D01*
X694653Y577869D01*
X694776Y577851D01*
X799237Y577851D01*
X799262Y577855D01*
X799293Y577853D01*
X802209Y578109D01*
X802936Y577880D01*
X802939Y577880D01*
X802941Y577878D01*
X803127Y577851D01*
X803889Y577851D01*
X806594Y576731D01*
X806618Y576725D01*
X806646Y576712D01*
X809438Y575832D01*
X810022Y575342D01*
X810024Y575341D01*
X810026Y575339D01*
X810187Y575242D01*
X810891Y574950D01*
X812961Y572881D01*
X812981Y572867D01*
X813002Y572843D01*
X885403Y512129D01*
X885416Y512122D01*
X885426Y512111D01*
X885513Y512066D01*
X885598Y512018D01*
X885612Y512015D01*
X885625Y512008D01*
X885811Y511981D01*
X891698Y511981D01*
X897976Y509380D01*
X902780Y504576D01*
X905381Y498298D01*
X905381Y491502D01*
X902780Y485224D01*
X897976Y480420D01*
X891698Y477819D01*
X884902Y477819D01*
X884844Y477809D01*
X884786Y477809D01*
X884724Y477787D01*
X884681Y477780D01*
X884652Y477762D01*
X884609Y477748D01*
X881741Y476254D01*
X874191Y475591D01*
X867209Y477790D01*
G37*
%LPD*%
%LPC*%
G36*
X755649Y292099D02*
X755649Y292099D01*
X755649Y292735D01*
X755637Y292800D01*
X755636Y292865D01*
X755618Y292909D01*
X755609Y292956D01*
X755576Y293013D01*
X755551Y293073D01*
X755519Y293108D01*
X755495Y293149D01*
X755444Y293190D01*
X755400Y293239D01*
X755358Y293261D01*
X755321Y293290D01*
X755259Y293311D01*
X755200Y293342D01*
X755146Y293350D01*
X755109Y293362D01*
X755069Y293361D01*
X755015Y293369D01*
X736691Y293369D01*
X736890Y294625D01*
X737414Y296239D01*
X738185Y297752D01*
X739183Y299125D01*
X740383Y300325D01*
X741756Y301323D01*
X743268Y302093D01*
X744883Y302618D01*
X746431Y302863D01*
X746480Y302880D01*
X746531Y302887D01*
X746585Y302916D01*
X746643Y302937D01*
X746683Y302969D01*
X746728Y302994D01*
X746768Y303040D01*
X746816Y303080D01*
X746842Y303124D01*
X746876Y303163D01*
X746897Y303220D01*
X746928Y303274D01*
X746937Y303325D01*
X746955Y303373D01*
X746956Y303434D01*
X746966Y303495D01*
X746957Y303546D01*
X746957Y303597D01*
X746936Y303655D01*
X746924Y303715D01*
X746898Y303760D01*
X746880Y303808D01*
X746841Y303855D01*
X746809Y303908D01*
X746769Y303940D01*
X746735Y303979D01*
X746671Y304018D01*
X746669Y304019D01*
X746644Y304047D01*
X746581Y304079D01*
X746523Y304119D01*
X746482Y304130D01*
X746444Y304149D01*
X746355Y304162D01*
X746306Y304175D01*
X746285Y304173D01*
X746259Y304177D01*
X744757Y304177D01*
X739860Y306205D01*
X736113Y309953D01*
X734084Y314850D01*
X734084Y320150D01*
X736113Y325047D01*
X739588Y328523D01*
X739613Y328558D01*
X739644Y328586D01*
X739676Y328649D01*
X739717Y328707D01*
X739727Y328748D01*
X739747Y328786D01*
X739760Y328876D01*
X739773Y328924D01*
X739770Y328945D01*
X739774Y328971D01*
X739774Y331429D01*
X739767Y331470D01*
X739769Y331513D01*
X739747Y331580D01*
X739735Y331649D01*
X739713Y331686D01*
X739700Y331726D01*
X739646Y331799D01*
X739620Y331843D01*
X739604Y331856D01*
X739588Y331877D01*
X736113Y335353D01*
X734084Y340250D01*
X734084Y345550D01*
X736113Y350447D01*
X739860Y354195D01*
X741838Y355014D01*
X741913Y355062D01*
X741991Y355104D01*
X742007Y355122D01*
X742027Y355135D01*
X742080Y355206D01*
X742139Y355273D01*
X742147Y355296D01*
X742162Y355315D01*
X742187Y355400D01*
X742219Y355483D01*
X742219Y355507D01*
X742226Y355530D01*
X742220Y355618D01*
X742220Y355707D01*
X742212Y355730D01*
X742211Y355753D01*
X742174Y355835D01*
X742144Y355918D01*
X742129Y355936D01*
X742119Y355958D01*
X742056Y356022D01*
X741999Y356089D01*
X741976Y356103D01*
X741961Y356118D01*
X741916Y356139D01*
X741838Y356186D01*
X739860Y357005D01*
X736113Y360753D01*
X734084Y365650D01*
X734084Y370950D01*
X736113Y375847D01*
X739588Y379323D01*
X739613Y379358D01*
X739644Y379386D01*
X739676Y379449D01*
X739717Y379507D01*
X739727Y379548D01*
X739747Y379586D01*
X739760Y379676D01*
X739773Y379724D01*
X739770Y379745D01*
X739774Y379771D01*
X739774Y382229D01*
X739767Y382270D01*
X739769Y382313D01*
X739747Y382380D01*
X739735Y382449D01*
X739713Y382486D01*
X739700Y382526D01*
X739646Y382599D01*
X739620Y382643D01*
X739604Y382656D01*
X739588Y382677D01*
X736113Y386153D01*
X734084Y391050D01*
X734084Y396350D01*
X736113Y401247D01*
X739860Y404995D01*
X744757Y407023D01*
X746259Y407023D01*
X746301Y407031D01*
X746343Y407029D01*
X746410Y407050D01*
X746480Y407063D01*
X746516Y407084D01*
X746557Y407097D01*
X746617Y407142D01*
X752492Y409576D01*
X858833Y409576D01*
X858863Y409581D01*
X858894Y409579D01*
X859009Y409607D01*
X859054Y409615D01*
X859063Y409621D01*
X859076Y409624D01*
X860902Y410381D01*
X866263Y410381D01*
X866293Y410386D01*
X866324Y410384D01*
X866438Y410412D01*
X866484Y410420D01*
X866493Y410426D01*
X866505Y410429D01*
X872111Y412751D01*
X879689Y412751D01*
X885295Y410429D01*
X885325Y410422D01*
X885352Y410408D01*
X885469Y410391D01*
X885514Y410381D01*
X885524Y410383D01*
X885537Y410381D01*
X891698Y410381D01*
X897976Y407780D01*
X902780Y402976D01*
X905381Y396698D01*
X905381Y389902D01*
X902780Y383624D01*
X897976Y378820D01*
X891698Y376219D01*
X884972Y376219D01*
X884941Y376214D01*
X884911Y376216D01*
X884796Y376188D01*
X884751Y376180D01*
X884742Y376174D01*
X884729Y376171D01*
X880089Y374249D01*
X872511Y374249D01*
X867871Y376171D01*
X867841Y376178D01*
X867814Y376192D01*
X867696Y376209D01*
X867652Y376219D01*
X867641Y376217D01*
X867628Y376219D01*
X860902Y376219D01*
X857144Y377776D01*
X857114Y377783D01*
X857087Y377797D01*
X856970Y377814D01*
X856925Y377824D01*
X856914Y377822D01*
X856901Y377824D01*
X774741Y377824D01*
X774654Y377809D01*
X774565Y377799D01*
X774544Y377789D01*
X774520Y377785D01*
X774444Y377739D01*
X774364Y377700D01*
X774348Y377683D01*
X774327Y377670D01*
X774271Y377601D01*
X774210Y377537D01*
X774201Y377515D01*
X774186Y377496D01*
X774157Y377412D01*
X774123Y377330D01*
X774122Y377306D01*
X774114Y377284D01*
X774117Y377195D01*
X774113Y377106D01*
X774120Y377083D01*
X774121Y377059D01*
X774154Y376977D01*
X774181Y376892D01*
X774197Y376871D01*
X774205Y376852D01*
X774239Y376814D01*
X774293Y376742D01*
X775187Y375847D01*
X777216Y370950D01*
X777216Y365650D01*
X775187Y360753D01*
X774293Y359858D01*
X774242Y359785D01*
X774186Y359716D01*
X774178Y359694D01*
X774165Y359674D01*
X774143Y359588D01*
X774114Y359504D01*
X774115Y359480D01*
X774109Y359457D01*
X774118Y359368D01*
X774121Y359279D01*
X774130Y359257D01*
X774132Y359234D01*
X774172Y359154D01*
X774205Y359072D01*
X774221Y359054D01*
X774231Y359033D01*
X774296Y358972D01*
X774356Y358906D01*
X774377Y358895D01*
X774395Y358879D01*
X774477Y358844D01*
X774556Y358803D01*
X774582Y358800D01*
X774601Y358791D01*
X774652Y358789D01*
X774741Y358776D01*
X856901Y358776D01*
X856932Y358781D01*
X856962Y358779D01*
X857077Y358807D01*
X857122Y358815D01*
X857131Y358821D01*
X857144Y358824D01*
X860902Y360381D01*
X867628Y360381D01*
X867659Y360386D01*
X867689Y360384D01*
X867804Y360412D01*
X867849Y360420D01*
X867858Y360426D01*
X867871Y360429D01*
X872511Y362351D01*
X880089Y362351D01*
X884729Y360429D01*
X884759Y360422D01*
X884786Y360408D01*
X884904Y360391D01*
X884948Y360381D01*
X884959Y360383D01*
X884972Y360381D01*
X891698Y360381D01*
X897976Y357780D01*
X902780Y352976D01*
X905381Y346698D01*
X905381Y339902D01*
X902780Y333624D01*
X897976Y328820D01*
X891698Y326219D01*
X885537Y326219D01*
X885507Y326214D01*
X885476Y326216D01*
X885362Y326188D01*
X885316Y326180D01*
X885307Y326174D01*
X885295Y326171D01*
X879689Y323849D01*
X872111Y323849D01*
X866505Y326171D01*
X866475Y326178D01*
X866448Y326192D01*
X866331Y326209D01*
X866286Y326219D01*
X866276Y326217D01*
X866263Y326219D01*
X860902Y326219D01*
X859076Y326976D01*
X859046Y326983D01*
X859018Y326997D01*
X858901Y327014D01*
X858856Y327024D01*
X858846Y327022D01*
X858833Y327024D01*
X774741Y327024D01*
X774654Y327009D01*
X774565Y326999D01*
X774544Y326989D01*
X774520Y326985D01*
X774444Y326939D01*
X774364Y326900D01*
X774348Y326883D01*
X774327Y326870D01*
X774271Y326801D01*
X774210Y326737D01*
X774201Y326715D01*
X774186Y326696D01*
X774157Y326612D01*
X774123Y326530D01*
X774122Y326506D01*
X774114Y326484D01*
X774117Y326395D01*
X774113Y326306D01*
X774120Y326283D01*
X774121Y326259D01*
X774154Y326177D01*
X774181Y326092D01*
X774197Y326071D01*
X774205Y326052D01*
X774239Y326014D01*
X774293Y325942D01*
X775187Y325047D01*
X777216Y320150D01*
X777216Y314850D01*
X775187Y309953D01*
X771440Y306205D01*
X766543Y304177D01*
X765041Y304177D01*
X764999Y304169D01*
X764957Y304171D01*
X764890Y304150D01*
X764820Y304137D01*
X764784Y304116D01*
X764743Y304103D01*
X764671Y304049D01*
X764642Y304032D01*
X764634Y304029D01*
X764630Y304024D01*
X764627Y304023D01*
X764625Y304020D01*
X764589Y303988D01*
X764537Y303954D01*
X764506Y303913D01*
X764467Y303879D01*
X764439Y303824D01*
X764402Y303775D01*
X764387Y303726D01*
X764363Y303680D01*
X764355Y303619D01*
X764338Y303560D01*
X764341Y303509D01*
X764335Y303458D01*
X764349Y303398D01*
X764353Y303336D01*
X764374Y303289D01*
X764385Y303239D01*
X764419Y303188D01*
X764445Y303131D01*
X764481Y303095D01*
X764509Y303052D01*
X764559Y303015D01*
X764602Y302971D01*
X764649Y302950D01*
X764690Y302919D01*
X764762Y302897D01*
X764805Y302876D01*
X764834Y302874D01*
X764869Y302863D01*
X766417Y302618D01*
X768032Y302093D01*
X769544Y301323D01*
X770917Y300325D01*
X772117Y299125D01*
X773115Y297752D01*
X773886Y296239D01*
X774410Y294625D01*
X774609Y293369D01*
X756285Y293369D01*
X756220Y293358D01*
X756155Y293356D01*
X756111Y293338D01*
X756064Y293330D01*
X756008Y293296D01*
X755947Y293271D01*
X755912Y293239D01*
X755871Y293215D01*
X755830Y293164D01*
X755781Y293120D01*
X755759Y293078D01*
X755730Y293041D01*
X755709Y292979D01*
X755679Y292920D01*
X755670Y292866D01*
X755658Y292829D01*
X755659Y292789D01*
X755651Y292735D01*
X755651Y292099D01*
X755649Y292099D01*
G37*
%LPD*%
%LPC*%
G36*
X752492Y200024D02*
X752492Y200024D01*
X746642Y202447D01*
X746581Y202479D01*
X746523Y202519D01*
X746482Y202530D01*
X746444Y202549D01*
X746355Y202562D01*
X746306Y202575D01*
X746285Y202573D01*
X746259Y202577D01*
X744757Y202577D01*
X739860Y204605D01*
X736113Y208353D01*
X734084Y213250D01*
X734084Y218550D01*
X736113Y223447D01*
X739588Y226923D01*
X739613Y226958D01*
X739644Y226986D01*
X739676Y227049D01*
X739717Y227107D01*
X739727Y227148D01*
X739747Y227186D01*
X739760Y227276D01*
X739773Y227324D01*
X739770Y227345D01*
X739774Y227371D01*
X739774Y229829D01*
X739767Y229870D01*
X739769Y229913D01*
X739747Y229980D01*
X739735Y230049D01*
X739713Y230086D01*
X739700Y230126D01*
X739646Y230199D01*
X739620Y230243D01*
X739604Y230256D01*
X739588Y230277D01*
X736113Y233753D01*
X734084Y238650D01*
X734084Y243950D01*
X736113Y248847D01*
X739860Y252595D01*
X744757Y254623D01*
X746259Y254623D01*
X746301Y254631D01*
X746343Y254629D01*
X746410Y254650D01*
X746480Y254663D01*
X746516Y254684D01*
X746557Y254697D01*
X746629Y254751D01*
X746658Y254768D01*
X746666Y254771D01*
X746670Y254776D01*
X746673Y254777D01*
X746675Y254780D01*
X746711Y254812D01*
X746763Y254846D01*
X746794Y254887D01*
X746833Y254921D01*
X746861Y254976D01*
X746898Y255025D01*
X746913Y255074D01*
X746937Y255120D01*
X746945Y255181D01*
X746962Y255240D01*
X746959Y255291D01*
X746965Y255342D01*
X746951Y255402D01*
X746947Y255464D01*
X746926Y255511D01*
X746915Y255561D01*
X746881Y255612D01*
X746855Y255669D01*
X746819Y255705D01*
X746791Y255748D01*
X746741Y255785D01*
X746698Y255829D01*
X746651Y255850D01*
X746610Y255881D01*
X746538Y255903D01*
X746495Y255924D01*
X746466Y255926D01*
X746431Y255937D01*
X744883Y256182D01*
X743268Y256707D01*
X741756Y257477D01*
X740383Y258475D01*
X739183Y259675D01*
X738185Y261048D01*
X737414Y262561D01*
X736890Y264175D01*
X736691Y265431D01*
X755015Y265431D01*
X755080Y265442D01*
X755145Y265444D01*
X755189Y265462D01*
X755236Y265470D01*
X755292Y265504D01*
X755353Y265529D01*
X755388Y265560D01*
X755429Y265585D01*
X755470Y265636D01*
X755519Y265680D01*
X755541Y265722D01*
X755570Y265759D01*
X755591Y265821D01*
X755621Y265880D01*
X755630Y265934D01*
X755642Y265971D01*
X755641Y266011D01*
X755649Y266065D01*
X755649Y266701D01*
X755651Y266701D01*
X755651Y266065D01*
X755663Y266000D01*
X755664Y265934D01*
X755682Y265891D01*
X755691Y265844D01*
X755724Y265787D01*
X755749Y265727D01*
X755781Y265692D01*
X755805Y265651D01*
X755856Y265610D01*
X755900Y265561D01*
X755942Y265539D01*
X755979Y265510D01*
X756041Y265489D01*
X756100Y265458D01*
X756154Y265450D01*
X756191Y265438D01*
X756231Y265439D01*
X756285Y265431D01*
X774609Y265431D01*
X774410Y264175D01*
X773886Y262561D01*
X773115Y261048D01*
X772117Y259675D01*
X770917Y258475D01*
X770708Y258323D01*
X770690Y258304D01*
X770667Y258290D01*
X770613Y258224D01*
X770553Y258161D01*
X770542Y258137D01*
X770526Y258116D01*
X770498Y258035D01*
X770464Y257955D01*
X770462Y257929D01*
X770454Y257904D01*
X770456Y257818D01*
X770452Y257731D01*
X770460Y257706D01*
X770460Y257679D01*
X770493Y257600D01*
X770518Y257517D01*
X770535Y257496D01*
X770545Y257472D01*
X770603Y257408D01*
X770656Y257340D01*
X770678Y257326D01*
X770696Y257306D01*
X770773Y257266D01*
X770846Y257221D01*
X770872Y257216D01*
X770896Y257203D01*
X771028Y257184D01*
X771066Y257176D01*
X771073Y257177D01*
X771081Y257176D01*
X856901Y257176D01*
X856932Y257181D01*
X856962Y257179D01*
X857077Y257207D01*
X857122Y257215D01*
X857131Y257221D01*
X857144Y257224D01*
X860902Y258781D01*
X867628Y258781D01*
X867659Y258786D01*
X867689Y258784D01*
X867804Y258812D01*
X867849Y258820D01*
X867857Y258825D01*
X867864Y258826D01*
X867866Y258828D01*
X867871Y258829D01*
X872511Y260751D01*
X880089Y260751D01*
X884729Y258829D01*
X884754Y258824D01*
X884772Y258814D01*
X884776Y258814D01*
X884786Y258808D01*
X884904Y258791D01*
X884948Y258781D01*
X884959Y258783D01*
X884972Y258781D01*
X891698Y258781D01*
X897976Y256180D01*
X902780Y251376D01*
X905381Y245098D01*
X905381Y238302D01*
X902780Y232024D01*
X897976Y227220D01*
X891698Y224619D01*
X885537Y224619D01*
X885507Y224614D01*
X885476Y224616D01*
X885362Y224588D01*
X885316Y224580D01*
X885307Y224574D01*
X885295Y224571D01*
X879689Y222249D01*
X872111Y222249D01*
X866505Y224571D01*
X866475Y224578D01*
X866448Y224592D01*
X866331Y224609D01*
X866286Y224619D01*
X866276Y224617D01*
X866263Y224619D01*
X860902Y224619D01*
X859076Y225376D01*
X859046Y225383D01*
X859018Y225397D01*
X858901Y225414D01*
X858856Y225424D01*
X858846Y225422D01*
X858833Y225424D01*
X774741Y225424D01*
X774654Y225409D01*
X774565Y225399D01*
X774544Y225389D01*
X774520Y225385D01*
X774444Y225339D01*
X774364Y225300D01*
X774348Y225283D01*
X774327Y225270D01*
X774271Y225201D01*
X774210Y225137D01*
X774201Y225115D01*
X774186Y225096D01*
X774157Y225012D01*
X774123Y224930D01*
X774122Y224906D01*
X774114Y224884D01*
X774117Y224795D01*
X774113Y224706D01*
X774120Y224683D01*
X774121Y224659D01*
X774154Y224577D01*
X774181Y224492D01*
X774197Y224471D01*
X774205Y224452D01*
X774239Y224414D01*
X774293Y224342D01*
X775187Y223447D01*
X777216Y218550D01*
X777216Y213250D01*
X775187Y208353D01*
X771440Y204605D01*
X766543Y202577D01*
X765041Y202577D01*
X764999Y202569D01*
X764957Y202571D01*
X764890Y202550D01*
X764820Y202537D01*
X764784Y202516D01*
X764743Y202503D01*
X764683Y202458D01*
X758808Y200024D01*
X752492Y200024D01*
G37*
%LPD*%
G36*
X378629Y89711D02*
X378629Y89711D01*
X378718Y89713D01*
X378740Y89722D01*
X378763Y89725D01*
X378843Y89764D01*
X378925Y89798D01*
X378943Y89814D01*
X378964Y89824D01*
X379025Y89889D01*
X379091Y89949D01*
X379102Y89970D01*
X379118Y89987D01*
X379153Y90069D01*
X379194Y90149D01*
X379197Y90175D01*
X379206Y90194D01*
X379208Y90244D01*
X379221Y90334D01*
X379221Y147987D01*
X379214Y148029D01*
X379216Y148072D01*
X379194Y148139D01*
X379182Y148208D01*
X379160Y148245D01*
X379147Y148285D01*
X379093Y148358D01*
X379067Y148401D01*
X379051Y148415D01*
X379036Y148436D01*
X378452Y149019D01*
X375148Y152324D01*
X373407Y156525D01*
X373407Y224475D01*
X375148Y228676D01*
X378452Y231981D01*
X379036Y232564D01*
X379060Y232599D01*
X379091Y232628D01*
X379123Y232690D01*
X379164Y232748D01*
X379174Y232789D01*
X379194Y232827D01*
X379207Y232917D01*
X379220Y232966D01*
X379217Y232986D01*
X379221Y233013D01*
X379221Y243574D01*
X380962Y247775D01*
X384177Y250990D01*
X388378Y252731D01*
X409862Y252731D01*
X409893Y252736D01*
X409923Y252734D01*
X410038Y252762D01*
X410083Y252770D01*
X410092Y252776D01*
X410105Y252779D01*
X411638Y253414D01*
X411713Y253462D01*
X411791Y253505D01*
X411807Y253522D01*
X411827Y253535D01*
X411880Y253606D01*
X411939Y253673D01*
X411947Y253696D01*
X411962Y253715D01*
X411987Y253800D01*
X412019Y253883D01*
X412019Y253907D01*
X412026Y253930D01*
X412020Y254019D01*
X412020Y254107D01*
X412012Y254130D01*
X412011Y254153D01*
X411974Y254235D01*
X411944Y254318D01*
X411929Y254337D01*
X411919Y254358D01*
X411856Y254422D01*
X411799Y254489D01*
X411776Y254503D01*
X411761Y254518D01*
X411716Y254539D01*
X411638Y254586D01*
X409660Y255405D01*
X405913Y259153D01*
X403884Y264050D01*
X403884Y268717D01*
X403877Y268759D01*
X403879Y268801D01*
X403857Y268869D01*
X403845Y268938D01*
X403823Y268975D01*
X403810Y269015D01*
X403756Y269088D01*
X403730Y269131D01*
X403714Y269145D01*
X403698Y269166D01*
X376245Y296619D01*
X373512Y299352D01*
X372081Y302807D01*
X372081Y357970D01*
X372074Y358012D01*
X372076Y358054D01*
X372054Y358121D01*
X372042Y358191D01*
X372020Y358227D01*
X372007Y358268D01*
X371953Y358340D01*
X371927Y358384D01*
X371911Y358397D01*
X371895Y358418D01*
X363033Y367280D01*
X362960Y367331D01*
X362891Y367387D01*
X362869Y367395D01*
X362849Y367408D01*
X362763Y367431D01*
X362679Y367459D01*
X362655Y367458D01*
X362632Y367464D01*
X362543Y367455D01*
X362454Y367452D01*
X362432Y367444D01*
X362409Y367441D01*
X362329Y367402D01*
X362247Y367368D01*
X362229Y367352D01*
X362208Y367342D01*
X362147Y367277D01*
X362081Y367217D01*
X362070Y367196D01*
X362054Y367178D01*
X362019Y367096D01*
X361978Y367017D01*
X361975Y366991D01*
X361966Y366972D01*
X361964Y366921D01*
X361951Y366832D01*
X361951Y105808D01*
X361958Y105767D01*
X361956Y105724D01*
X361978Y105657D01*
X361990Y105588D01*
X362012Y105551D01*
X362025Y105511D01*
X362079Y105438D01*
X362105Y105394D01*
X362121Y105381D01*
X362137Y105360D01*
X373607Y93890D01*
X375512Y91985D01*
X375537Y91967D01*
X375557Y91944D01*
X375658Y91883D01*
X375696Y91857D01*
X375706Y91854D01*
X375717Y91847D01*
X376502Y91522D01*
X378139Y89885D01*
X378212Y89835D01*
X378281Y89779D01*
X378303Y89771D01*
X378323Y89757D01*
X378409Y89735D01*
X378493Y89707D01*
X378517Y89707D01*
X378540Y89701D01*
X378629Y89711D01*
G37*
G36*
X151818Y379744D02*
X151818Y379744D01*
X151896Y379746D01*
X151928Y379759D01*
X151964Y379764D01*
X152032Y379801D01*
X152103Y379830D01*
X152130Y379854D01*
X152161Y379871D01*
X152212Y379929D01*
X152269Y379981D01*
X152285Y380013D01*
X152309Y380040D01*
X152336Y380112D01*
X152372Y380181D01*
X152378Y380221D01*
X152388Y380250D01*
X152389Y380296D01*
X152399Y380366D01*
X152399Y459726D01*
X154333Y464394D01*
X157906Y467967D01*
X162574Y469901D01*
X162797Y469901D01*
X162884Y469917D01*
X162973Y469926D01*
X162994Y469936D01*
X163017Y469940D01*
X163094Y469986D01*
X163174Y470025D01*
X163190Y470042D01*
X163211Y470055D01*
X163267Y470124D01*
X163328Y470188D01*
X163337Y470210D01*
X163352Y470229D01*
X163381Y470313D01*
X163415Y470395D01*
X163416Y470419D01*
X163424Y470441D01*
X163421Y470530D01*
X163425Y470619D01*
X163418Y470642D01*
X163417Y470666D01*
X163384Y470748D01*
X163357Y470833D01*
X163341Y470854D01*
X163333Y470873D01*
X163299Y470911D01*
X163245Y470983D01*
X124129Y510099D01*
X124094Y510124D01*
X124066Y510155D01*
X124003Y510187D01*
X123945Y510228D01*
X123904Y510238D01*
X123866Y510258D01*
X123776Y510271D01*
X123728Y510284D01*
X123707Y510281D01*
X123681Y510285D01*
X120956Y510285D01*
X120925Y510280D01*
X120895Y510282D01*
X120780Y510254D01*
X120735Y510246D01*
X120726Y510240D01*
X120713Y510237D01*
X116727Y508586D01*
X116652Y508538D01*
X116574Y508496D01*
X116558Y508478D01*
X116538Y508465D01*
X116485Y508394D01*
X116426Y508327D01*
X116418Y508304D01*
X116403Y508285D01*
X116378Y508200D01*
X116346Y508117D01*
X116346Y508093D01*
X116339Y508070D01*
X116345Y507982D01*
X116345Y507893D01*
X116353Y507870D01*
X116354Y507847D01*
X116391Y507765D01*
X116421Y507682D01*
X116437Y507664D01*
X116446Y507642D01*
X116509Y507579D01*
X116566Y507511D01*
X116589Y507497D01*
X116604Y507482D01*
X116649Y507461D01*
X116727Y507414D01*
X121166Y505575D01*
X124575Y502166D01*
X126421Y497711D01*
X126421Y492889D01*
X124575Y488434D01*
X121166Y485025D01*
X116727Y483186D01*
X116652Y483138D01*
X116574Y483096D01*
X116558Y483078D01*
X116538Y483065D01*
X116485Y482994D01*
X116426Y482927D01*
X116418Y482904D01*
X116403Y482885D01*
X116378Y482800D01*
X116346Y482717D01*
X116346Y482693D01*
X116339Y482670D01*
X116345Y482582D01*
X116345Y482493D01*
X116353Y482470D01*
X116354Y482447D01*
X116391Y482365D01*
X116421Y482282D01*
X116437Y482264D01*
X116446Y482242D01*
X116509Y482179D01*
X116566Y482111D01*
X116589Y482097D01*
X116604Y482082D01*
X116649Y482061D01*
X116727Y482014D01*
X121166Y480175D01*
X124575Y476766D01*
X126421Y472311D01*
X126421Y467489D01*
X124575Y463034D01*
X121166Y459625D01*
X116727Y457786D01*
X116652Y457738D01*
X116574Y457696D01*
X116558Y457678D01*
X116538Y457665D01*
X116485Y457594D01*
X116426Y457527D01*
X116418Y457504D01*
X116403Y457485D01*
X116378Y457400D01*
X116346Y457317D01*
X116346Y457293D01*
X116339Y457270D01*
X116345Y457182D01*
X116345Y457093D01*
X116353Y457070D01*
X116354Y457047D01*
X116391Y456965D01*
X116421Y456882D01*
X116437Y456864D01*
X116446Y456842D01*
X116509Y456779D01*
X116566Y456711D01*
X116589Y456697D01*
X116604Y456682D01*
X116649Y456661D01*
X116727Y456614D01*
X121166Y454775D01*
X124575Y451366D01*
X126421Y446911D01*
X126421Y442089D01*
X124575Y437634D01*
X121166Y434225D01*
X116727Y432386D01*
X116652Y432338D01*
X116574Y432296D01*
X116558Y432278D01*
X116538Y432265D01*
X116485Y432194D01*
X116426Y432127D01*
X116418Y432104D01*
X116403Y432085D01*
X116378Y432000D01*
X116346Y431917D01*
X116346Y431893D01*
X116339Y431870D01*
X116345Y431782D01*
X116345Y431693D01*
X116353Y431670D01*
X116354Y431647D01*
X116391Y431565D01*
X116421Y431482D01*
X116437Y431464D01*
X116446Y431442D01*
X116509Y431379D01*
X116566Y431311D01*
X116589Y431297D01*
X116604Y431282D01*
X116649Y431261D01*
X116727Y431214D01*
X121166Y429375D01*
X124575Y425966D01*
X126421Y421511D01*
X126421Y416689D01*
X124575Y412234D01*
X121166Y408825D01*
X116727Y406986D01*
X116652Y406938D01*
X116574Y406896D01*
X116558Y406878D01*
X116538Y406865D01*
X116485Y406794D01*
X116426Y406727D01*
X116418Y406704D01*
X116403Y406685D01*
X116378Y406600D01*
X116346Y406517D01*
X116346Y406493D01*
X116340Y406470D01*
X116345Y406382D01*
X116345Y406293D01*
X116353Y406270D01*
X116354Y406247D01*
X116391Y406165D01*
X116421Y406082D01*
X116437Y406064D01*
X116446Y406042D01*
X116509Y405978D01*
X116566Y405911D01*
X116589Y405897D01*
X116604Y405882D01*
X116649Y405861D01*
X116727Y405814D01*
X121166Y403975D01*
X124575Y400566D01*
X126421Y396111D01*
X126421Y391289D01*
X124575Y386834D01*
X121166Y383425D01*
X118260Y382221D01*
X118175Y382167D01*
X118089Y382115D01*
X118081Y382106D01*
X118071Y382100D01*
X118011Y382019D01*
X117947Y381941D01*
X117944Y381930D01*
X117936Y381920D01*
X117908Y381824D01*
X117876Y381729D01*
X117876Y381717D01*
X117872Y381705D01*
X117879Y381604D01*
X117882Y381504D01*
X117887Y381493D01*
X117887Y381482D01*
X117929Y381389D01*
X117966Y381297D01*
X117974Y381288D01*
X117979Y381277D01*
X118050Y381205D01*
X118118Y381131D01*
X118128Y381125D01*
X118137Y381117D01*
X118228Y381075D01*
X118317Y381028D01*
X118330Y381026D01*
X118340Y381022D01*
X118385Y381018D01*
X118503Y381001D01*
X148576Y381001D01*
X151522Y379780D01*
X151598Y379764D01*
X151671Y379739D01*
X151707Y379740D01*
X151742Y379733D01*
X151818Y379744D01*
G37*
%LPC*%
G36*
X885029Y33339D02*
X885029Y33339D01*
X877358Y35395D01*
X870481Y39365D01*
X864865Y44981D01*
X860895Y51858D01*
X858839Y59529D01*
X858839Y67471D01*
X860895Y75142D01*
X864865Y82019D01*
X870481Y87635D01*
X877358Y91605D01*
X885029Y93661D01*
X892971Y93661D01*
X900642Y91605D01*
X907519Y87635D01*
X913135Y82019D01*
X917105Y75142D01*
X919161Y67471D01*
X919161Y59529D01*
X917105Y51858D01*
X913135Y44981D01*
X907519Y39365D01*
X900642Y35395D01*
X892971Y33339D01*
X885029Y33339D01*
G37*
%LPD*%
%LPC*%
G36*
X59529Y731839D02*
X59529Y731839D01*
X51858Y733895D01*
X44981Y737865D01*
X39365Y743481D01*
X35395Y750358D01*
X33339Y758029D01*
X33339Y765971D01*
X35395Y773642D01*
X39365Y780519D01*
X44981Y786135D01*
X51858Y790105D01*
X59529Y792161D01*
X67471Y792161D01*
X75142Y790105D01*
X82019Y786135D01*
X87635Y780519D01*
X91605Y773642D01*
X93661Y765971D01*
X93661Y758029D01*
X91605Y750358D01*
X87635Y743481D01*
X82019Y737865D01*
X75142Y733895D01*
X67471Y731839D01*
X59529Y731839D01*
G37*
%LPD*%
%LPC*%
G36*
X885029Y731839D02*
X885029Y731839D01*
X877358Y733895D01*
X870481Y737865D01*
X864865Y743481D01*
X860895Y750358D01*
X858839Y758029D01*
X858839Y765971D01*
X860895Y773642D01*
X864865Y780519D01*
X870481Y786135D01*
X877358Y790105D01*
X885029Y792161D01*
X892971Y792161D01*
X900642Y790105D01*
X907519Y786135D01*
X913135Y780519D01*
X917105Y773642D01*
X919161Y765971D01*
X919161Y758029D01*
X917105Y750358D01*
X913135Y743481D01*
X907519Y737865D01*
X900642Y733895D01*
X892971Y731839D01*
X885029Y731839D01*
G37*
%LPD*%
%LPC*%
G36*
X59529Y33339D02*
X59529Y33339D01*
X51858Y35395D01*
X44981Y39365D01*
X39365Y44981D01*
X35395Y51858D01*
X33339Y59529D01*
X33339Y67471D01*
X35395Y75142D01*
X39365Y82019D01*
X44981Y87635D01*
X51858Y91605D01*
X59529Y93661D01*
X67471Y93661D01*
X75142Y91605D01*
X82019Y87635D01*
X87635Y82019D01*
X91605Y75142D01*
X93661Y67471D01*
X93661Y59529D01*
X91605Y51858D01*
X87635Y44981D01*
X82019Y39365D01*
X75142Y35395D01*
X67471Y33339D01*
X59529Y33339D01*
G37*
%LPD*%
G36*
X268179Y92959D02*
X268179Y92959D01*
X268233Y92955D01*
X268303Y92972D01*
X268349Y92977D01*
X268376Y92990D01*
X268415Y93000D01*
X270170Y93727D01*
X272271Y93727D01*
X272358Y93743D01*
X272447Y93752D01*
X272468Y93762D01*
X272491Y93766D01*
X272568Y93812D01*
X272648Y93851D01*
X272664Y93868D01*
X272685Y93881D01*
X272741Y93950D01*
X272802Y94014D01*
X272811Y94036D01*
X272826Y94055D01*
X272855Y94139D01*
X272889Y94221D01*
X272890Y94245D01*
X272898Y94267D01*
X272895Y94356D01*
X272899Y94445D01*
X272892Y94468D01*
X272891Y94492D01*
X272858Y94574D01*
X272831Y94659D01*
X272815Y94680D01*
X272807Y94699D01*
X272773Y94737D01*
X272719Y94809D01*
X193732Y173796D01*
X193678Y173834D01*
X193630Y173879D01*
X193587Y173897D01*
X193548Y173924D01*
X193484Y173941D01*
X193424Y173966D01*
X193377Y173968D01*
X193331Y173980D01*
X193265Y173973D01*
X193200Y173976D01*
X193155Y173962D01*
X193108Y173957D01*
X193049Y173928D01*
X192986Y173908D01*
X192942Y173875D01*
X192907Y173858D01*
X192880Y173829D01*
X192835Y173796D01*
X189726Y170687D01*
X178574Y170687D01*
X170687Y178574D01*
X170687Y189726D01*
X171263Y190303D01*
X171288Y190337D01*
X171319Y190366D01*
X171351Y190429D01*
X171392Y190487D01*
X171402Y190528D01*
X171422Y190566D01*
X171435Y190655D01*
X171448Y190704D01*
X171445Y190725D01*
X171449Y190751D01*
X171449Y254634D01*
X171436Y254710D01*
X171430Y254787D01*
X171416Y254819D01*
X171410Y254854D01*
X171370Y254921D01*
X171338Y254992D01*
X171314Y255017D01*
X171295Y255048D01*
X171235Y255096D01*
X171181Y255152D01*
X171149Y255167D01*
X171121Y255189D01*
X171048Y255214D01*
X170978Y255247D01*
X170942Y255249D01*
X170909Y255261D01*
X170831Y255259D01*
X170754Y255265D01*
X170715Y255255D01*
X170684Y255254D01*
X170641Y255237D01*
X170572Y255220D01*
X167626Y253999D01*
X162574Y253999D01*
X159628Y255220D01*
X159552Y255236D01*
X159479Y255261D01*
X159443Y255260D01*
X159409Y255267D01*
X159332Y255257D01*
X159254Y255254D01*
X159222Y255241D01*
X159186Y255236D01*
X159118Y255199D01*
X159047Y255170D01*
X159020Y255146D01*
X158989Y255129D01*
X158938Y255071D01*
X158881Y255019D01*
X158865Y254987D01*
X158841Y254960D01*
X158814Y254888D01*
X158778Y254819D01*
X158772Y254779D01*
X158762Y254750D01*
X158761Y254704D01*
X158751Y254634D01*
X158751Y198583D01*
X156817Y193915D01*
X155155Y192252D01*
X155130Y192217D01*
X155099Y192189D01*
X155067Y192126D01*
X155026Y192068D01*
X155016Y192027D01*
X154996Y191989D01*
X154983Y191899D01*
X154970Y191851D01*
X154973Y191830D01*
X154969Y191804D01*
X154969Y182846D01*
X154976Y182805D01*
X154974Y182762D01*
X154996Y182695D01*
X155008Y182626D01*
X155030Y182589D01*
X155043Y182549D01*
X155097Y182476D01*
X155123Y182432D01*
X155139Y182419D01*
X155155Y182398D01*
X207798Y129755D01*
X207833Y129730D01*
X207861Y129699D01*
X207924Y129667D01*
X207982Y129626D01*
X208023Y129616D01*
X208061Y129596D01*
X208151Y129583D01*
X208199Y129570D01*
X208220Y129573D01*
X208246Y129569D01*
X212944Y129569D01*
X212986Y129576D01*
X213029Y129574D01*
X213096Y129596D01*
X213165Y129608D01*
X213202Y129630D01*
X213242Y129643D01*
X213315Y129697D01*
X213358Y129723D01*
X213372Y129739D01*
X213393Y129755D01*
X215056Y131417D01*
X219724Y133351D01*
X224776Y133351D01*
X229444Y131417D01*
X267724Y93137D01*
X267769Y93107D01*
X267807Y93068D01*
X267860Y93043D01*
X267908Y93009D01*
X267961Y92996D01*
X268010Y92973D01*
X268069Y92968D01*
X268126Y92953D01*
X268179Y92959D01*
G37*
%LPC*%
G36*
X369074Y710437D02*
X369074Y710437D01*
X361187Y718324D01*
X361187Y729476D01*
X369074Y737363D01*
X380226Y737363D01*
X383978Y733612D01*
X384012Y733587D01*
X384041Y733556D01*
X384104Y733524D01*
X384162Y733483D01*
X384203Y733473D01*
X384241Y733453D01*
X384330Y733440D01*
X384379Y733427D01*
X384400Y733430D01*
X384426Y733426D01*
X464721Y733426D01*
X464763Y733433D01*
X464805Y733431D01*
X464872Y733453D01*
X464942Y733465D01*
X464978Y733487D01*
X465019Y733500D01*
X465091Y733554D01*
X465135Y733580D01*
X465148Y733596D01*
X465169Y733612D01*
X467488Y735931D01*
X471759Y737700D01*
X476383Y737700D01*
X480654Y735931D01*
X483923Y732662D01*
X485692Y728390D01*
X485692Y723767D01*
X483923Y719496D01*
X480654Y716227D01*
X476383Y714458D01*
X474116Y714458D01*
X474085Y714453D01*
X474055Y714455D01*
X473940Y714427D01*
X473895Y714419D01*
X473886Y714413D01*
X473873Y714410D01*
X473787Y714374D01*
X384426Y714374D01*
X384384Y714367D01*
X384342Y714369D01*
X384275Y714347D01*
X384205Y714335D01*
X384169Y714313D01*
X384128Y714300D01*
X384056Y714246D01*
X384012Y714220D01*
X383999Y714204D01*
X383978Y714188D01*
X380226Y710437D01*
X369074Y710437D01*
G37*
%LPD*%
%LPC*%
G36*
X416220Y45973D02*
X416220Y45973D01*
X410898Y48178D01*
X406826Y52250D01*
X404621Y57572D01*
X404621Y82128D01*
X406826Y87450D01*
X410898Y91522D01*
X416220Y93727D01*
X421980Y93727D01*
X427302Y91522D01*
X431352Y87473D01*
X431405Y87435D01*
X431453Y87390D01*
X431497Y87371D01*
X431536Y87344D01*
X431599Y87328D01*
X431660Y87302D01*
X431707Y87300D01*
X431753Y87288D01*
X431818Y87295D01*
X431884Y87292D01*
X431929Y87307D01*
X431976Y87312D01*
X432035Y87341D01*
X432098Y87361D01*
X432142Y87394D01*
X432177Y87411D01*
X432204Y87440D01*
X432248Y87473D01*
X436298Y91522D01*
X441620Y93727D01*
X447380Y93727D01*
X452702Y91522D01*
X456774Y87450D01*
X458979Y82128D01*
X458979Y57572D01*
X456774Y52250D01*
X452702Y48178D01*
X447380Y45973D01*
X441620Y45973D01*
X436298Y48178D01*
X432248Y52227D01*
X432194Y52265D01*
X432147Y52310D01*
X432103Y52329D01*
X432064Y52356D01*
X432001Y52372D01*
X431940Y52398D01*
X431893Y52400D01*
X431847Y52412D01*
X431782Y52405D01*
X431716Y52408D01*
X431671Y52393D01*
X431624Y52388D01*
X431565Y52359D01*
X431502Y52339D01*
X431458Y52306D01*
X431423Y52289D01*
X431396Y52260D01*
X431352Y52227D01*
X427302Y48178D01*
X421980Y45973D01*
X416220Y45973D01*
G37*
%LPD*%
%LPC*%
G36*
X612552Y700469D02*
X612552Y700469D01*
X606274Y703070D01*
X601470Y707874D01*
X598869Y714152D01*
X598869Y720948D01*
X601470Y727226D01*
X605349Y731105D01*
X605374Y731140D01*
X605405Y731169D01*
X605437Y731232D01*
X605478Y731289D01*
X605488Y731331D01*
X605508Y731368D01*
X605521Y731458D01*
X605534Y731507D01*
X605531Y731528D01*
X605535Y731554D01*
X605535Y772163D01*
X605528Y772205D01*
X605530Y772247D01*
X605508Y772314D01*
X605496Y772384D01*
X605474Y772420D01*
X605461Y772461D01*
X605407Y772533D01*
X605381Y772577D01*
X605365Y772590D01*
X605349Y772611D01*
X602487Y775474D01*
X602487Y786626D01*
X610374Y794513D01*
X621526Y794513D01*
X629413Y786626D01*
X629413Y775474D01*
X626551Y772611D01*
X626526Y772577D01*
X626495Y772548D01*
X626463Y772485D01*
X626422Y772427D01*
X626412Y772386D01*
X626392Y772348D01*
X626379Y772259D01*
X626366Y772210D01*
X626369Y772189D01*
X626365Y772163D01*
X626365Y731554D01*
X626372Y731512D01*
X626370Y731470D01*
X626392Y731402D01*
X626404Y731333D01*
X626426Y731296D01*
X626439Y731256D01*
X626493Y731183D01*
X626519Y731140D01*
X626535Y731127D01*
X626551Y731105D01*
X630430Y727226D01*
X633031Y720948D01*
X633031Y714152D01*
X630430Y707874D01*
X625626Y703070D01*
X619348Y700469D01*
X612552Y700469D01*
G37*
%LPD*%
%LPC*%
G36*
X860902Y123019D02*
X860902Y123019D01*
X854624Y125620D01*
X849820Y130424D01*
X847219Y136702D01*
X847219Y143498D01*
X849820Y149776D01*
X854624Y154580D01*
X860902Y157181D01*
X891698Y157181D01*
X897976Y154580D01*
X902780Y149776D01*
X905381Y143498D01*
X905381Y136702D01*
X902780Y130424D01*
X897976Y125620D01*
X891698Y123019D01*
X860902Y123019D01*
G37*
%LPD*%
%LPC*%
G36*
X369074Y754887D02*
X369074Y754887D01*
X361187Y762774D01*
X361187Y773926D01*
X369074Y781813D01*
X380226Y781813D01*
X383978Y778062D01*
X384012Y778037D01*
X384041Y778006D01*
X384104Y777974D01*
X384162Y777933D01*
X384203Y777923D01*
X384241Y777903D01*
X384330Y777890D01*
X384379Y777877D01*
X384400Y777880D01*
X384426Y777876D01*
X404371Y777876D01*
X404412Y777883D01*
X404455Y777881D01*
X404522Y777903D01*
X404591Y777915D01*
X404628Y777937D01*
X404668Y777950D01*
X404741Y778004D01*
X404785Y778030D01*
X404798Y778046D01*
X404819Y778062D01*
X408383Y781625D01*
X408407Y781660D01*
X408439Y781689D01*
X408471Y781752D01*
X408511Y781810D01*
X408522Y781851D01*
X408541Y781889D01*
X408554Y781978D01*
X408567Y782027D01*
X408565Y782048D01*
X408569Y782074D01*
X408569Y782272D01*
X410338Y786543D01*
X413607Y789812D01*
X417878Y791581D01*
X422501Y791581D01*
X426772Y789812D01*
X430041Y786543D01*
X431810Y782272D01*
X431810Y777649D01*
X430041Y773378D01*
X426772Y770109D01*
X422501Y768340D01*
X422303Y768340D01*
X422261Y768332D01*
X422219Y768334D01*
X422152Y768313D01*
X422082Y768300D01*
X422046Y768279D01*
X422005Y768266D01*
X421932Y768212D01*
X421889Y768186D01*
X421876Y768170D01*
X421854Y768154D01*
X413975Y760274D01*
X410474Y758824D01*
X384426Y758824D01*
X384384Y758817D01*
X384342Y758819D01*
X384275Y758797D01*
X384205Y758785D01*
X384169Y758763D01*
X384128Y758750D01*
X384056Y758696D01*
X384012Y758670D01*
X383999Y758654D01*
X383978Y758638D01*
X380226Y754887D01*
X369074Y754887D01*
G37*
%LPD*%
%LPC*%
G36*
X39610Y140715D02*
X39610Y140715D01*
X32765Y147560D01*
X32765Y157240D01*
X32833Y157308D01*
X32858Y157343D01*
X32889Y157372D01*
X32921Y157435D01*
X32962Y157492D01*
X32972Y157533D01*
X32992Y157571D01*
X33005Y157661D01*
X33018Y157710D01*
X33015Y157730D01*
X33019Y157757D01*
X33019Y178793D01*
X33012Y178835D01*
X33014Y178878D01*
X32992Y178945D01*
X32980Y179014D01*
X32958Y179051D01*
X32945Y179091D01*
X32891Y179164D01*
X32865Y179207D01*
X32849Y179221D01*
X32833Y179242D01*
X32765Y179310D01*
X32765Y188990D01*
X39610Y195835D01*
X49290Y195835D01*
X56135Y188990D01*
X56135Y179310D01*
X56067Y179242D01*
X56042Y179207D01*
X56011Y179178D01*
X55979Y179115D01*
X55938Y179058D01*
X55928Y179017D01*
X55908Y178979D01*
X55895Y178889D01*
X55882Y178840D01*
X55885Y178820D01*
X55881Y178793D01*
X55881Y157757D01*
X55888Y157715D01*
X55886Y157672D01*
X55908Y157605D01*
X55920Y157536D01*
X55942Y157499D01*
X55955Y157459D01*
X56009Y157386D01*
X56035Y157343D01*
X56051Y157329D01*
X56067Y157308D01*
X56135Y157240D01*
X56135Y147560D01*
X49290Y140715D01*
X39610Y140715D01*
G37*
%LPD*%
G36*
X32450Y469913D02*
X32450Y469913D01*
X32515Y469914D01*
X32559Y469932D01*
X32606Y469941D01*
X32663Y469974D01*
X32723Y469999D01*
X32758Y470031D01*
X32799Y470055D01*
X32840Y470106D01*
X32889Y470150D01*
X32911Y470192D01*
X32940Y470229D01*
X32961Y470291D01*
X32992Y470350D01*
X33000Y470404D01*
X33012Y470441D01*
X33011Y470481D01*
X33019Y470535D01*
X33019Y481839D01*
X42088Y481839D01*
X43944Y481545D01*
X45731Y480964D01*
X47405Y480111D01*
X48268Y479484D01*
X48304Y479467D01*
X48335Y479442D01*
X48404Y479418D01*
X48470Y479386D01*
X48510Y479383D01*
X48547Y479370D01*
X48621Y479372D01*
X48694Y479365D01*
X48732Y479375D01*
X48772Y479376D01*
X48839Y479404D01*
X48910Y479423D01*
X48943Y479446D01*
X48979Y479461D01*
X49034Y479510D01*
X49093Y479553D01*
X49116Y479585D01*
X49145Y479612D01*
X49179Y479677D01*
X49220Y479738D01*
X49229Y479776D01*
X49248Y479812D01*
X49262Y479907D01*
X49274Y479956D01*
X49272Y479974D01*
X49275Y479997D01*
X49275Y507233D01*
X49268Y507275D01*
X49270Y507317D01*
X49248Y507385D01*
X49236Y507454D01*
X49214Y507491D01*
X49201Y507531D01*
X49147Y507604D01*
X49121Y507647D01*
X49105Y507661D01*
X49090Y507682D01*
X48940Y507832D01*
X48895Y507863D01*
X48857Y507901D01*
X48804Y507926D01*
X48755Y507960D01*
X48703Y507973D01*
X48654Y507996D01*
X48595Y508001D01*
X48538Y508016D01*
X48484Y508010D01*
X48430Y508015D01*
X48361Y507998D01*
X48315Y507993D01*
X48287Y507979D01*
X48248Y507969D01*
X44028Y506221D01*
X19472Y506221D01*
X14150Y508426D01*
X11243Y511333D01*
X11170Y511383D01*
X11101Y511439D01*
X11079Y511447D01*
X11059Y511461D01*
X10973Y511483D01*
X10889Y511511D01*
X10865Y511511D01*
X10842Y511517D01*
X10753Y511507D01*
X10664Y511505D01*
X10642Y511496D01*
X10619Y511493D01*
X10539Y511454D01*
X10457Y511420D01*
X10439Y511404D01*
X10418Y511394D01*
X10357Y511329D01*
X10291Y511269D01*
X10280Y511248D01*
X10264Y511231D01*
X10229Y511149D01*
X10188Y511069D01*
X10185Y511043D01*
X10176Y511024D01*
X10174Y510974D01*
X10161Y510884D01*
X10161Y474912D01*
X10174Y474838D01*
X10179Y474762D01*
X10194Y474728D01*
X10200Y474692D01*
X10239Y474626D01*
X10270Y474557D01*
X10296Y474530D01*
X10315Y474498D01*
X10374Y474450D01*
X10427Y474396D01*
X10460Y474380D01*
X10489Y474357D01*
X10561Y474333D01*
X10630Y474300D01*
X10666Y474297D01*
X10701Y474285D01*
X10777Y474287D01*
X10853Y474281D01*
X10889Y474291D01*
X10926Y474292D01*
X10996Y474320D01*
X11069Y474341D01*
X11099Y474362D01*
X11133Y474376D01*
X11190Y474427D01*
X11251Y474472D01*
X11276Y474506D01*
X11299Y474527D01*
X11320Y474568D01*
X11360Y474624D01*
X12141Y476157D01*
X13246Y477678D01*
X14574Y479006D01*
X16095Y480111D01*
X17769Y480964D01*
X19556Y481545D01*
X21412Y481839D01*
X30481Y481839D01*
X30481Y470535D01*
X30492Y470470D01*
X30494Y470405D01*
X30512Y470361D01*
X30520Y470314D01*
X30554Y470258D01*
X30579Y470197D01*
X30610Y470162D01*
X30635Y470121D01*
X30686Y470080D01*
X30730Y470031D01*
X30772Y470009D01*
X30809Y469980D01*
X30871Y469959D01*
X30930Y469929D01*
X30984Y469920D01*
X31021Y469908D01*
X31061Y469909D01*
X31115Y469901D01*
X32385Y469901D01*
X32450Y469913D01*
G37*
G36*
X405872Y376059D02*
X405872Y376059D01*
X405938Y376056D01*
X405983Y376071D01*
X406030Y376076D01*
X406089Y376105D01*
X406152Y376125D01*
X406196Y376158D01*
X406231Y376175D01*
X406258Y376204D01*
X406302Y376237D01*
X409660Y379595D01*
X411638Y380414D01*
X411713Y380462D01*
X411791Y380505D01*
X411807Y380522D01*
X411827Y380535D01*
X411880Y380606D01*
X411939Y380673D01*
X411947Y380696D01*
X411962Y380715D01*
X411987Y380800D01*
X412019Y380883D01*
X412019Y380907D01*
X412026Y380930D01*
X412020Y381019D01*
X412020Y381107D01*
X412012Y381130D01*
X412011Y381153D01*
X411974Y381235D01*
X411944Y381318D01*
X411929Y381337D01*
X411919Y381358D01*
X411856Y381422D01*
X411799Y381489D01*
X411776Y381503D01*
X411761Y381518D01*
X411716Y381539D01*
X411638Y381586D01*
X409660Y382405D01*
X405913Y386153D01*
X405188Y387902D01*
X405172Y387927D01*
X405162Y387957D01*
X405092Y388052D01*
X405067Y388090D01*
X405059Y388097D01*
X405051Y388107D01*
X348280Y444878D01*
X348245Y444902D01*
X348216Y444934D01*
X348154Y444966D01*
X348096Y445006D01*
X348055Y445017D01*
X348017Y445036D01*
X347927Y445050D01*
X347878Y445062D01*
X347858Y445060D01*
X347831Y445064D01*
X343959Y445064D01*
X337114Y451909D01*
X337114Y454879D01*
X337107Y454921D01*
X337108Y454963D01*
X337087Y455030D01*
X337074Y455100D01*
X337053Y455136D01*
X337040Y455177D01*
X336986Y455249D01*
X336960Y455293D01*
X336944Y455306D01*
X336928Y455327D01*
X307754Y484501D01*
X307700Y484539D01*
X307652Y484584D01*
X307609Y484602D01*
X307570Y484629D01*
X307506Y484646D01*
X307446Y484671D01*
X307399Y484674D01*
X307353Y484685D01*
X307287Y484679D01*
X307222Y484681D01*
X307177Y484667D01*
X307130Y484662D01*
X307071Y484633D01*
X307008Y484613D01*
X306964Y484580D01*
X306929Y484563D01*
X306901Y484534D01*
X306857Y484501D01*
X306195Y483839D01*
X306151Y483775D01*
X306100Y483717D01*
X306087Y483684D01*
X306067Y483655D01*
X306048Y483580D01*
X306020Y483507D01*
X306020Y483472D01*
X306011Y483437D01*
X306019Y483361D01*
X306018Y483283D01*
X306030Y483250D01*
X306034Y483214D01*
X306068Y483145D01*
X306095Y483072D01*
X306118Y483045D01*
X306134Y483013D01*
X306190Y482960D01*
X306240Y482901D01*
X306275Y482880D01*
X306297Y482859D01*
X306340Y482841D01*
X306401Y482804D01*
X307922Y482174D01*
X311994Y478102D01*
X314199Y472780D01*
X314199Y467706D01*
X314206Y467664D01*
X314204Y467622D01*
X314226Y467554D01*
X314238Y467485D01*
X314260Y467448D01*
X314273Y467408D01*
X314327Y467335D01*
X314353Y467292D01*
X314369Y467279D01*
X314385Y467257D01*
X405405Y376237D01*
X405459Y376199D01*
X405507Y376154D01*
X405551Y376135D01*
X405589Y376108D01*
X405653Y376092D01*
X405714Y376066D01*
X405761Y376064D01*
X405807Y376053D01*
X405872Y376059D01*
G37*
%LPC*%
G36*
X414557Y177177D02*
X414557Y177177D01*
X409660Y179205D01*
X405913Y182953D01*
X403884Y187850D01*
X403884Y193150D01*
X405913Y198047D01*
X409660Y201795D01*
X414557Y203823D01*
X436343Y203823D01*
X441240Y201795D01*
X444987Y198047D01*
X447016Y193150D01*
X447016Y187850D01*
X444987Y182953D01*
X441240Y179205D01*
X436343Y177177D01*
X414557Y177177D01*
G37*
%LPD*%
%LPC*%
G36*
X688752Y700469D02*
X688752Y700469D01*
X682474Y703070D01*
X677670Y707874D01*
X675069Y714152D01*
X675069Y720948D01*
X677670Y727226D01*
X682474Y732030D01*
X688752Y734631D01*
X695548Y734631D01*
X701826Y732030D01*
X706630Y727226D01*
X709231Y720948D01*
X709231Y714152D01*
X706630Y707874D01*
X701826Y703070D01*
X695548Y700469D01*
X688752Y700469D01*
G37*
%LPD*%
%LPC*%
G36*
X726852Y700469D02*
X726852Y700469D01*
X720574Y703070D01*
X715770Y707874D01*
X713169Y714152D01*
X713169Y720948D01*
X715770Y727226D01*
X720574Y732030D01*
X726852Y734631D01*
X733648Y734631D01*
X739926Y732030D01*
X744730Y727226D01*
X747331Y720948D01*
X747331Y714152D01*
X744730Y707874D01*
X739926Y703070D01*
X733648Y700469D01*
X726852Y700469D01*
G37*
%LPD*%
G36*
X253987Y598504D02*
X253987Y598504D01*
X254076Y598507D01*
X254098Y598516D01*
X254121Y598518D01*
X254201Y598558D01*
X254283Y598591D01*
X254301Y598607D01*
X254322Y598618D01*
X254383Y598682D01*
X254449Y598742D01*
X254460Y598764D01*
X254476Y598781D01*
X254511Y598863D01*
X254552Y598942D01*
X254555Y598968D01*
X254564Y598987D01*
X254566Y599038D01*
X254579Y599127D01*
X254579Y599311D01*
X256425Y603766D01*
X259834Y607175D01*
X264273Y609014D01*
X264348Y609062D01*
X264426Y609105D01*
X264442Y609122D01*
X264462Y609135D01*
X264515Y609206D01*
X264574Y609273D01*
X264582Y609296D01*
X264597Y609315D01*
X264622Y609400D01*
X264654Y609483D01*
X264654Y609507D01*
X264660Y609530D01*
X264655Y609619D01*
X264655Y609707D01*
X264647Y609730D01*
X264646Y609753D01*
X264609Y609835D01*
X264579Y609918D01*
X264563Y609937D01*
X264554Y609958D01*
X264491Y610021D01*
X264434Y610089D01*
X264411Y610103D01*
X264396Y610118D01*
X264351Y610139D01*
X264273Y610186D01*
X259834Y612025D01*
X256425Y615434D01*
X254579Y619889D01*
X254579Y624711D01*
X256425Y629166D01*
X259834Y632575D01*
X264273Y634414D01*
X264348Y634462D01*
X264426Y634505D01*
X264442Y634522D01*
X264462Y634535D01*
X264515Y634606D01*
X264574Y634673D01*
X264582Y634696D01*
X264597Y634715D01*
X264622Y634800D01*
X264654Y634883D01*
X264654Y634907D01*
X264660Y634930D01*
X264655Y635019D01*
X264655Y635107D01*
X264647Y635130D01*
X264646Y635153D01*
X264609Y635235D01*
X264579Y635318D01*
X264563Y635337D01*
X264554Y635358D01*
X264491Y635421D01*
X264434Y635489D01*
X264411Y635503D01*
X264396Y635518D01*
X264351Y635539D01*
X264273Y635586D01*
X259834Y637425D01*
X256425Y640834D01*
X254579Y645289D01*
X254579Y650111D01*
X256425Y654566D01*
X259500Y657641D01*
X259544Y657704D01*
X259595Y657763D01*
X259608Y657796D01*
X259628Y657825D01*
X259647Y657900D01*
X259675Y657973D01*
X259675Y658008D01*
X259684Y658042D01*
X259676Y658119D01*
X259676Y658197D01*
X259664Y658230D01*
X259660Y658266D01*
X259626Y658335D01*
X259600Y658408D01*
X259577Y658435D01*
X259561Y658467D01*
X259505Y658520D01*
X259455Y658579D01*
X259420Y658600D01*
X259398Y658621D01*
X259355Y658639D01*
X259294Y658675D01*
X257546Y659400D01*
X253000Y663946D01*
X250631Y669663D01*
X250589Y669729D01*
X250555Y669798D01*
X250529Y669822D01*
X250510Y669852D01*
X250448Y669899D01*
X250392Y669952D01*
X250359Y669966D01*
X250331Y669987D01*
X250256Y670009D01*
X250185Y670039D01*
X250150Y670041D01*
X250116Y670051D01*
X250038Y670046D01*
X249961Y670049D01*
X249927Y670039D01*
X249892Y670036D01*
X249821Y670004D01*
X249747Y669981D01*
X249715Y669957D01*
X249687Y669944D01*
X249654Y669912D01*
X249597Y669869D01*
X244377Y664649D01*
X244352Y664614D01*
X244321Y664585D01*
X244289Y664523D01*
X244248Y664465D01*
X244238Y664424D01*
X244218Y664386D01*
X244205Y664296D01*
X244192Y664247D01*
X244195Y664227D01*
X244191Y664200D01*
X244191Y608247D01*
X244198Y608206D01*
X244196Y608163D01*
X244204Y608140D01*
X244204Y608128D01*
X244218Y608093D01*
X244230Y608027D01*
X244252Y607990D01*
X244265Y607950D01*
X244319Y607877D01*
X244345Y607833D01*
X244361Y607820D01*
X244377Y607799D01*
X253497Y598679D01*
X253570Y598628D01*
X253639Y598572D01*
X253661Y598564D01*
X253681Y598551D01*
X253767Y598529D01*
X253851Y598500D01*
X253875Y598501D01*
X253898Y598495D01*
X253987Y598504D01*
G37*
G36*
X258864Y530233D02*
X258864Y530233D01*
X258906Y530231D01*
X258973Y530253D01*
X259043Y530265D01*
X259079Y530287D01*
X259120Y530300D01*
X259192Y530354D01*
X259236Y530380D01*
X259248Y530395D01*
X259256Y530400D01*
X259258Y530403D01*
X259270Y530412D01*
X259834Y530975D01*
X264273Y532814D01*
X264348Y532862D01*
X264426Y532905D01*
X264442Y532922D01*
X264462Y532935D01*
X264515Y533006D01*
X264574Y533073D01*
X264582Y533096D01*
X264597Y533115D01*
X264622Y533200D01*
X264654Y533283D01*
X264654Y533307D01*
X264660Y533330D01*
X264655Y533419D01*
X264655Y533507D01*
X264647Y533530D01*
X264646Y533553D01*
X264609Y533635D01*
X264579Y533718D01*
X264563Y533737D01*
X264554Y533758D01*
X264491Y533821D01*
X264434Y533889D01*
X264411Y533903D01*
X264396Y533918D01*
X264351Y533939D01*
X264273Y533986D01*
X259834Y535825D01*
X259270Y536388D01*
X259235Y536413D01*
X259207Y536444D01*
X259144Y536476D01*
X259086Y536517D01*
X259045Y536527D01*
X259007Y536547D01*
X258917Y536560D01*
X258869Y536573D01*
X258848Y536570D01*
X258822Y536574D01*
X245755Y536574D01*
X242254Y538024D01*
X201474Y578804D01*
X201246Y579356D01*
X201217Y579400D01*
X201209Y579421D01*
X201192Y579440D01*
X201140Y579527D01*
X201131Y579535D01*
X201125Y579545D01*
X201044Y579605D01*
X200966Y579669D01*
X200955Y579672D01*
X200945Y579679D01*
X200849Y579708D01*
X200754Y579740D01*
X200742Y579740D01*
X200730Y579743D01*
X200630Y579737D01*
X200529Y579734D01*
X200518Y579729D01*
X200507Y579729D01*
X200415Y579687D01*
X200322Y579649D01*
X200313Y579641D01*
X200302Y579637D01*
X200230Y579566D01*
X200156Y579498D01*
X200150Y579487D01*
X200142Y579479D01*
X200099Y579388D01*
X200053Y579298D01*
X200051Y579286D01*
X200047Y579276D01*
X200043Y579230D01*
X200037Y579190D01*
X200033Y579177D01*
X200033Y579163D01*
X200026Y579113D01*
X200026Y563008D01*
X200033Y562967D01*
X200031Y562924D01*
X200053Y562857D01*
X200065Y562788D01*
X200087Y562751D01*
X200100Y562711D01*
X200154Y562638D01*
X200180Y562594D01*
X200196Y562581D01*
X200212Y562560D01*
X232360Y530412D01*
X232390Y530391D01*
X232403Y530376D01*
X232407Y530374D01*
X232423Y530356D01*
X232486Y530324D01*
X232544Y530283D01*
X232585Y530273D01*
X232623Y530253D01*
X232713Y530240D01*
X232761Y530227D01*
X232782Y530230D01*
X232808Y530226D01*
X258822Y530226D01*
X258864Y530233D01*
G37*
G36*
X403930Y295821D02*
X403930Y295821D01*
X404007Y295820D01*
X404041Y295832D01*
X404076Y295836D01*
X404145Y295870D01*
X404218Y295896D01*
X404245Y295919D01*
X404277Y295935D01*
X404330Y295991D01*
X404389Y296042D01*
X404410Y296076D01*
X404431Y296098D01*
X404449Y296141D01*
X404486Y296202D01*
X405913Y299647D01*
X409660Y303395D01*
X411638Y304214D01*
X411713Y304262D01*
X411791Y304305D01*
X411807Y304322D01*
X411827Y304335D01*
X411880Y304406D01*
X411939Y304473D01*
X411947Y304496D01*
X411962Y304515D01*
X411987Y304600D01*
X412019Y304683D01*
X412019Y304707D01*
X412026Y304730D01*
X412020Y304819D01*
X412020Y304907D01*
X412012Y304930D01*
X412011Y304953D01*
X411974Y305035D01*
X411944Y305118D01*
X411929Y305137D01*
X411919Y305158D01*
X411856Y305222D01*
X411799Y305289D01*
X411776Y305303D01*
X411761Y305318D01*
X411716Y305339D01*
X411638Y305386D01*
X409660Y306205D01*
X405913Y309953D01*
X403884Y314850D01*
X403884Y320150D01*
X405913Y325047D01*
X409660Y328795D01*
X411638Y329614D01*
X411713Y329662D01*
X411791Y329705D01*
X411807Y329722D01*
X411827Y329735D01*
X411880Y329806D01*
X411939Y329873D01*
X411947Y329896D01*
X411962Y329915D01*
X411987Y330000D01*
X412019Y330083D01*
X412019Y330107D01*
X412026Y330130D01*
X412020Y330219D01*
X412020Y330307D01*
X412012Y330330D01*
X412011Y330353D01*
X411974Y330435D01*
X411944Y330518D01*
X411929Y330537D01*
X411919Y330558D01*
X411856Y330622D01*
X411799Y330689D01*
X411776Y330703D01*
X411761Y330718D01*
X411716Y330739D01*
X411638Y330786D01*
X409660Y331605D01*
X405913Y335353D01*
X403884Y340250D01*
X403884Y344917D01*
X403877Y344959D01*
X403879Y345001D01*
X403857Y345069D01*
X403845Y345138D01*
X403823Y345175D01*
X403810Y345215D01*
X403756Y345288D01*
X403730Y345331D01*
X403714Y345345D01*
X403698Y345366D01*
X392869Y356195D01*
X392099Y358055D01*
X392045Y358139D01*
X391993Y358226D01*
X391984Y358233D01*
X391978Y358243D01*
X391897Y358304D01*
X391819Y358367D01*
X391808Y358371D01*
X391798Y358378D01*
X391702Y358407D01*
X391607Y358439D01*
X391595Y358439D01*
X391583Y358442D01*
X391482Y358435D01*
X391382Y358432D01*
X391371Y358428D01*
X391360Y358427D01*
X391267Y358386D01*
X391175Y358348D01*
X391166Y358340D01*
X391155Y358335D01*
X391083Y358265D01*
X391009Y358197D01*
X391003Y358186D01*
X390995Y358178D01*
X390953Y358087D01*
X390906Y357997D01*
X390904Y357984D01*
X390900Y357975D01*
X390896Y357929D01*
X390879Y357812D01*
X390879Y308832D01*
X390886Y308790D01*
X390884Y308748D01*
X390906Y308681D01*
X390918Y308611D01*
X390940Y308574D01*
X390953Y308534D01*
X391007Y308461D01*
X391033Y308418D01*
X391049Y308405D01*
X391065Y308383D01*
X403451Y295997D01*
X403515Y295952D01*
X403573Y295901D01*
X403606Y295889D01*
X403636Y295868D01*
X403711Y295849D01*
X403783Y295822D01*
X403818Y295821D01*
X403853Y295813D01*
X403930Y295821D01*
G37*
%LPC*%
G36*
X715398Y509079D02*
X715398Y509079D01*
X711127Y510848D01*
X707858Y514117D01*
X706089Y518388D01*
X706089Y523012D01*
X707858Y527283D01*
X711127Y530552D01*
X715398Y532321D01*
X733102Y532321D01*
X737373Y530552D01*
X740642Y527283D01*
X742411Y523012D01*
X742411Y518388D01*
X740642Y514117D01*
X737373Y510848D01*
X733102Y509079D01*
X715398Y509079D01*
G37*
%LPD*%
%LPC*%
G36*
X435838Y750379D02*
X435838Y750379D01*
X431567Y752148D01*
X428298Y755417D01*
X426529Y759688D01*
X426529Y764312D01*
X428298Y768583D01*
X431567Y771852D01*
X435838Y773621D01*
X440462Y773621D01*
X444733Y771852D01*
X448002Y768583D01*
X449771Y764312D01*
X449771Y759688D01*
X448002Y755417D01*
X444733Y752148D01*
X440462Y750379D01*
X435838Y750379D01*
G37*
%LPD*%
%LPC*%
G36*
X877569Y292969D02*
X877569Y292969D01*
X877569Y306241D01*
X889444Y306241D01*
X891705Y305883D01*
X893882Y305175D01*
X895921Y304136D01*
X897773Y302791D01*
X899391Y301173D01*
X900736Y299321D01*
X901775Y297282D01*
X902483Y295105D01*
X902821Y292969D01*
X877569Y292969D01*
G37*
%LPD*%
%LPC*%
G36*
X877569Y191369D02*
X877569Y191369D01*
X877569Y204641D01*
X889444Y204641D01*
X891705Y204283D01*
X893882Y203575D01*
X895921Y202536D01*
X897773Y201191D01*
X899391Y199573D01*
X900736Y197721D01*
X901775Y195682D01*
X902483Y193505D01*
X902821Y191369D01*
X877569Y191369D01*
G37*
%LPD*%
%LPC*%
G36*
X849779Y292969D02*
X849779Y292969D01*
X850117Y295105D01*
X850825Y297282D01*
X851864Y299321D01*
X853209Y301173D01*
X854827Y302791D01*
X856679Y304136D01*
X858718Y305175D01*
X860895Y305883D01*
X863156Y306241D01*
X875031Y306241D01*
X875031Y292969D01*
X849779Y292969D01*
G37*
%LPD*%
%LPC*%
G36*
X849779Y191369D02*
X849779Y191369D01*
X850117Y193505D01*
X850825Y195682D01*
X851864Y197721D01*
X853209Y199573D01*
X854827Y201191D01*
X856679Y202536D01*
X858718Y203575D01*
X860895Y204283D01*
X863156Y204641D01*
X875031Y204641D01*
X875031Y191369D01*
X849779Y191369D01*
G37*
%LPD*%
%LPC*%
G36*
X877569Y277159D02*
X877569Y277159D01*
X877569Y290431D01*
X902821Y290431D01*
X902483Y288295D01*
X901775Y286118D01*
X900736Y284079D01*
X899391Y282227D01*
X897773Y280609D01*
X895921Y279264D01*
X893882Y278225D01*
X891705Y277517D01*
X889444Y277159D01*
X877569Y277159D01*
G37*
%LPD*%
%LPC*%
G36*
X877569Y175559D02*
X877569Y175559D01*
X877569Y188831D01*
X902821Y188831D01*
X902483Y186695D01*
X901775Y184518D01*
X900736Y182479D01*
X899391Y180627D01*
X897773Y179009D01*
X895921Y177664D01*
X893882Y176625D01*
X891705Y175917D01*
X889444Y175559D01*
X877569Y175559D01*
G37*
%LPD*%
%LPC*%
G36*
X863156Y175559D02*
X863156Y175559D01*
X860895Y175917D01*
X858718Y176625D01*
X856679Y177664D01*
X854827Y179009D01*
X853209Y180627D01*
X851864Y182479D01*
X850825Y184518D01*
X850117Y186695D01*
X849779Y188831D01*
X875031Y188831D01*
X875031Y175559D01*
X863156Y175559D01*
G37*
%LPD*%
%LPC*%
G36*
X863156Y277159D02*
X863156Y277159D01*
X860895Y277517D01*
X858718Y278225D01*
X856679Y279264D01*
X854827Y280609D01*
X853209Y282227D01*
X851864Y284079D01*
X850825Y286118D01*
X850117Y288295D01*
X849779Y290431D01*
X875031Y290431D01*
X875031Y277159D01*
X863156Y277159D01*
G37*
%LPD*%
%LPC*%
G36*
X426719Y166369D02*
X426719Y166369D01*
X426719Y175883D01*
X434541Y175883D01*
X436217Y175618D01*
X437832Y175093D01*
X439344Y174323D01*
X440717Y173325D01*
X441917Y172125D01*
X442915Y170752D01*
X443686Y169239D01*
X444210Y167625D01*
X444409Y166369D01*
X426719Y166369D01*
G37*
%LPD*%
%LPC*%
G36*
X426719Y217169D02*
X426719Y217169D01*
X426719Y226683D01*
X434541Y226683D01*
X436217Y226418D01*
X437832Y225893D01*
X439344Y225123D01*
X440717Y224125D01*
X441917Y222925D01*
X442915Y221552D01*
X443686Y220039D01*
X444210Y218425D01*
X444409Y217169D01*
X426719Y217169D01*
G37*
%LPD*%
%LPC*%
G36*
X756919Y267969D02*
X756919Y267969D01*
X756919Y277483D01*
X764741Y277483D01*
X766417Y277218D01*
X768032Y276693D01*
X769544Y275923D01*
X770917Y274925D01*
X772117Y273725D01*
X773115Y272352D01*
X773886Y270839D01*
X774410Y269225D01*
X774609Y267969D01*
X756919Y267969D01*
G37*
%LPD*%
%LPC*%
G36*
X406491Y217169D02*
X406491Y217169D01*
X406690Y218425D01*
X407214Y220039D01*
X407985Y221552D01*
X408983Y222925D01*
X410183Y224125D01*
X411556Y225123D01*
X413068Y225893D01*
X414683Y226418D01*
X416359Y226683D01*
X424181Y226683D01*
X424181Y217169D01*
X406491Y217169D01*
G37*
%LPD*%
%LPC*%
G36*
X406491Y166369D02*
X406491Y166369D01*
X406690Y167625D01*
X407214Y169239D01*
X407985Y170752D01*
X408983Y172125D01*
X410183Y173325D01*
X411556Y174323D01*
X413068Y175093D01*
X414683Y175618D01*
X416359Y175883D01*
X424181Y175883D01*
X424181Y166369D01*
X406491Y166369D01*
G37*
%LPD*%
%LPC*%
G36*
X736691Y267969D02*
X736691Y267969D01*
X736890Y269225D01*
X737414Y270839D01*
X738185Y272352D01*
X739183Y273725D01*
X740383Y274925D01*
X741756Y275923D01*
X743268Y276693D01*
X744883Y277218D01*
X746559Y277483D01*
X754381Y277483D01*
X754381Y267969D01*
X736691Y267969D01*
G37*
%LPD*%
%LPC*%
G36*
X426719Y205117D02*
X426719Y205117D01*
X426719Y214631D01*
X444409Y214631D01*
X444210Y213375D01*
X443686Y211761D01*
X442915Y210248D01*
X441917Y208875D01*
X440717Y207675D01*
X439344Y206677D01*
X437832Y205907D01*
X436217Y205382D01*
X434541Y205117D01*
X426719Y205117D01*
G37*
%LPD*%
%LPC*%
G36*
X426719Y154317D02*
X426719Y154317D01*
X426719Y163831D01*
X444409Y163831D01*
X444210Y162575D01*
X443686Y160961D01*
X442915Y159448D01*
X441917Y158075D01*
X440717Y156875D01*
X439344Y155877D01*
X437832Y155107D01*
X436217Y154582D01*
X434541Y154317D01*
X426719Y154317D01*
G37*
%LPD*%
%LPC*%
G36*
X756919Y281317D02*
X756919Y281317D01*
X756919Y290831D01*
X774609Y290831D01*
X774410Y289575D01*
X773886Y287961D01*
X773115Y286448D01*
X772117Y285075D01*
X770917Y283875D01*
X769544Y282877D01*
X768032Y282107D01*
X766417Y281582D01*
X764741Y281317D01*
X756919Y281317D01*
G37*
%LPD*%
%LPC*%
G36*
X416359Y205117D02*
X416359Y205117D01*
X414683Y205382D01*
X413068Y205907D01*
X411556Y206677D01*
X410183Y207675D01*
X408983Y208875D01*
X407985Y210248D01*
X407214Y211761D01*
X406690Y213375D01*
X406491Y214631D01*
X424181Y214631D01*
X424181Y205117D01*
X416359Y205117D01*
G37*
%LPD*%
%LPC*%
G36*
X416359Y154317D02*
X416359Y154317D01*
X414683Y154582D01*
X413068Y155107D01*
X411556Y155877D01*
X410183Y156875D01*
X408983Y158075D01*
X407985Y159448D01*
X407214Y160961D01*
X406690Y162575D01*
X406491Y163831D01*
X424181Y163831D01*
X424181Y154317D01*
X416359Y154317D01*
G37*
%LPD*%
%LPC*%
G36*
X746559Y281317D02*
X746559Y281317D01*
X744883Y281582D01*
X743268Y282107D01*
X741756Y282877D01*
X740383Y283875D01*
X739183Y285075D01*
X738185Y286448D01*
X737414Y287961D01*
X736890Y289575D01*
X736691Y290831D01*
X754381Y290831D01*
X754381Y281317D01*
X746559Y281317D01*
G37*
%LPD*%
%LPC*%
G36*
X572769Y655319D02*
X572769Y655319D01*
X572769Y670751D01*
X574316Y670444D01*
X576072Y669716D01*
X577653Y668660D01*
X578998Y667315D01*
X580054Y665734D01*
X580782Y663978D01*
X581153Y662113D01*
X581153Y655319D01*
X572769Y655319D01*
G37*
%LPD*%
%LPC*%
G36*
X572769Y436881D02*
X572769Y436881D01*
X581153Y436881D01*
X581153Y430087D01*
X580782Y428222D01*
X580054Y426466D01*
X578998Y424885D01*
X577653Y423540D01*
X576072Y422484D01*
X574316Y421756D01*
X572769Y421449D01*
X572769Y436881D01*
G37*
%LPD*%
%LPC*%
G36*
X572769Y652781D02*
X572769Y652781D01*
X581153Y652781D01*
X581153Y645987D01*
X580782Y644122D01*
X580054Y642366D01*
X578998Y640785D01*
X577653Y639440D01*
X576072Y638384D01*
X574316Y637656D01*
X572769Y637349D01*
X572769Y652781D01*
G37*
%LPD*%
%LPC*%
G36*
X561847Y655319D02*
X561847Y655319D01*
X561847Y662113D01*
X562218Y663978D01*
X562946Y665734D01*
X564002Y667315D01*
X565347Y668660D01*
X566928Y669716D01*
X568684Y670444D01*
X570231Y670751D01*
X570231Y655319D01*
X561847Y655319D01*
G37*
%LPD*%
%LPC*%
G36*
X568684Y637656D02*
X568684Y637656D01*
X566928Y638384D01*
X565347Y639440D01*
X564002Y640785D01*
X562946Y642366D01*
X562218Y644122D01*
X561847Y645987D01*
X561847Y652781D01*
X570231Y652781D01*
X570231Y637349D01*
X568684Y637656D01*
G37*
%LPD*%
%LPC*%
G36*
X568684Y421756D02*
X568684Y421756D01*
X566928Y422484D01*
X565347Y423540D01*
X564002Y424885D01*
X562946Y426466D01*
X562218Y428222D01*
X561847Y430087D01*
X561847Y436881D01*
X570231Y436881D01*
X570231Y421449D01*
X568684Y421756D01*
G37*
%LPD*%
%LPC*%
G36*
X725519Y496569D02*
X725519Y496569D01*
X725519Y504381D01*
X731684Y504381D01*
X733439Y504032D01*
X735091Y503347D01*
X736579Y502353D01*
X737843Y501089D01*
X738837Y499601D01*
X739522Y497949D01*
X739796Y496569D01*
X725519Y496569D01*
G37*
%LPD*%
%LPC*%
G36*
X708704Y496569D02*
X708704Y496569D01*
X708978Y497949D01*
X709663Y499601D01*
X710657Y501089D01*
X711921Y502353D01*
X713409Y503347D01*
X715061Y504032D01*
X716816Y504381D01*
X722981Y504381D01*
X722981Y496569D01*
X708704Y496569D01*
G37*
%LPD*%
%LPC*%
G36*
X725519Y486219D02*
X725519Y486219D01*
X725519Y494031D01*
X739796Y494031D01*
X739522Y492651D01*
X738837Y490999D01*
X737843Y489511D01*
X736579Y488247D01*
X735091Y487253D01*
X733439Y486568D01*
X731684Y486219D01*
X725519Y486219D01*
G37*
%LPD*%
%LPC*%
G36*
X716816Y486219D02*
X716816Y486219D01*
X715061Y486568D01*
X713409Y487253D01*
X711921Y488247D01*
X710657Y489511D01*
X709663Y490999D01*
X708978Y492651D01*
X708704Y494031D01*
X722981Y494031D01*
X722981Y486219D01*
X716816Y486219D01*
G37*
%LPD*%
%LPC*%
G36*
X801369Y83819D02*
X801369Y83819D01*
X801369Y94437D01*
X802896Y94195D01*
X804683Y93614D01*
X806357Y92761D01*
X807878Y91656D01*
X809206Y90328D01*
X810311Y88807D01*
X811164Y87133D01*
X811745Y85346D01*
X811987Y83819D01*
X801369Y83819D01*
G37*
%LPD*%
%LPC*%
G36*
X788213Y83819D02*
X788213Y83819D01*
X788455Y85346D01*
X789036Y87133D01*
X789889Y88807D01*
X790994Y90328D01*
X792322Y91656D01*
X793843Y92761D01*
X795517Y93614D01*
X797304Y94195D01*
X798831Y94437D01*
X798831Y83819D01*
X788213Y83819D01*
G37*
%LPD*%
%LPC*%
G36*
X801369Y81281D02*
X801369Y81281D01*
X811987Y81281D01*
X811745Y79754D01*
X811164Y77967D01*
X810311Y76293D01*
X809206Y74772D01*
X807878Y73444D01*
X806357Y72339D01*
X804683Y71486D01*
X802896Y70905D01*
X801369Y70663D01*
X801369Y81281D01*
G37*
%LPD*%
%LPC*%
G36*
X797304Y70905D02*
X797304Y70905D01*
X795517Y71486D01*
X793843Y72339D01*
X792322Y73444D01*
X790994Y74772D01*
X789889Y76293D01*
X789036Y77967D01*
X788455Y79754D01*
X788213Y81281D01*
X798831Y81281D01*
X798831Y70663D01*
X797304Y70905D01*
G37*
%LPD*%
%LPC*%
G36*
X718819Y782319D02*
X718819Y782319D01*
X718819Y791973D01*
X722074Y791973D01*
X728473Y785574D01*
X728473Y782319D01*
X718819Y782319D01*
G37*
%LPD*%
%LPC*%
G36*
X287019Y185419D02*
X287019Y185419D01*
X287019Y195073D01*
X290274Y195073D01*
X296673Y188674D01*
X296673Y185419D01*
X287019Y185419D01*
G37*
%LPD*%
%LPC*%
G36*
X718819Y770127D02*
X718819Y770127D01*
X718819Y779781D01*
X728473Y779781D01*
X728473Y776526D01*
X722074Y770127D01*
X718819Y770127D01*
G37*
%LPD*%
%LPC*%
G36*
X274827Y185419D02*
X274827Y185419D01*
X274827Y188674D01*
X281226Y195073D01*
X284481Y195073D01*
X284481Y185419D01*
X274827Y185419D01*
G37*
%LPD*%
%LPC*%
G36*
X706627Y782319D02*
X706627Y782319D01*
X706627Y785574D01*
X713026Y791973D01*
X716281Y791973D01*
X716281Y782319D01*
X706627Y782319D01*
G37*
%LPD*%
%LPC*%
G36*
X287019Y173227D02*
X287019Y173227D01*
X287019Y182881D01*
X296673Y182881D01*
X296673Y179626D01*
X290274Y173227D01*
X287019Y173227D01*
G37*
%LPD*%
%LPC*%
G36*
X713026Y770127D02*
X713026Y770127D01*
X706627Y776526D01*
X706627Y779781D01*
X716281Y779781D01*
X716281Y770127D01*
X713026Y770127D01*
G37*
%LPD*%
%LPC*%
G36*
X281226Y173227D02*
X281226Y173227D01*
X274827Y179626D01*
X274827Y182881D01*
X284481Y182881D01*
X284481Y173227D01*
X281226Y173227D01*
G37*
%LPD*%
%LPC*%
G36*
X71119Y153669D02*
X71119Y153669D01*
X71119Y161545D01*
X73638Y161545D01*
X78995Y156188D01*
X78995Y153669D01*
X71119Y153669D01*
G37*
%LPD*%
%LPC*%
G36*
X440396Y546551D02*
X440396Y546551D01*
X445965Y552120D01*
X447746Y550339D01*
X447746Y542763D01*
X445965Y540982D01*
X440396Y546551D01*
G37*
%LPD*%
%LPC*%
G36*
X433032Y553915D02*
X433032Y553915D01*
X434813Y555696D01*
X442389Y555696D01*
X444170Y553915D01*
X438601Y548346D01*
X433032Y553915D01*
G37*
%LPD*%
%LPC*%
G36*
X60705Y153669D02*
X60705Y153669D01*
X60705Y156188D01*
X66062Y161545D01*
X68581Y161545D01*
X68581Y153669D01*
X60705Y153669D01*
G37*
%LPD*%
%LPC*%
G36*
X71119Y143255D02*
X71119Y143255D01*
X71119Y151131D01*
X78995Y151131D01*
X78995Y148612D01*
X73638Y143255D01*
X71119Y143255D01*
G37*
%LPD*%
%LPC*%
G36*
X441163Y467557D02*
X441163Y467557D01*
X439382Y469337D01*
X444951Y474906D01*
X450520Y469337D01*
X448739Y467557D01*
X441163Y467557D01*
G37*
%LPD*%
%LPC*%
G36*
X435807Y472913D02*
X435807Y472913D01*
X435807Y480489D01*
X437587Y482270D01*
X443156Y476701D01*
X437587Y471132D01*
X435807Y472913D01*
G37*
%LPD*%
%LPC*%
G36*
X66062Y143255D02*
X66062Y143255D01*
X60705Y148612D01*
X60705Y151131D01*
X68581Y151131D01*
X68581Y143255D01*
X66062Y143255D01*
G37*
%LPD*%
%LPC*%
G36*
X434813Y537407D02*
X434813Y537407D01*
X433032Y539187D01*
X438601Y544756D01*
X444170Y539187D01*
X442389Y537407D01*
X434813Y537407D01*
G37*
%LPD*%
%LPC*%
G36*
X429457Y542763D02*
X429457Y542763D01*
X429457Y550339D01*
X431237Y552120D01*
X436806Y546551D01*
X431237Y540982D01*
X429457Y542763D01*
G37*
%LPD*%
%LPC*%
G36*
X462396Y748530D02*
X462396Y748530D01*
X467866Y754000D01*
X468648Y752831D01*
X469332Y751178D01*
X469681Y749424D01*
X469681Y747635D01*
X469332Y745881D01*
X468648Y744228D01*
X467866Y743059D01*
X462396Y748530D01*
G37*
%LPD*%
%LPC*%
G36*
X455130Y755795D02*
X455130Y755795D01*
X456299Y756577D01*
X457952Y757261D01*
X459706Y757610D01*
X461495Y757610D01*
X463249Y757261D01*
X464902Y756577D01*
X466071Y755795D01*
X460601Y750325D01*
X455130Y755795D01*
G37*
%LPD*%
%LPC*%
G36*
X452553Y744228D02*
X452553Y744228D01*
X451869Y745881D01*
X451520Y747635D01*
X451520Y749424D01*
X451869Y751178D01*
X452553Y752831D01*
X453335Y754000D01*
X458806Y748530D01*
X453335Y743059D01*
X452553Y744228D01*
G37*
%LPD*%
%LPC*%
G36*
X459706Y739449D02*
X459706Y739449D01*
X457952Y739798D01*
X456299Y740482D01*
X455130Y741264D01*
X460601Y746735D01*
X466071Y741264D01*
X464902Y740482D01*
X463249Y739798D01*
X461495Y739449D01*
X459706Y739449D01*
G37*
%LPD*%
%LPC*%
G36*
X438600Y546551D02*
X438600Y546551D01*
X438601Y546553D01*
X438603Y546551D01*
X438601Y546550D01*
X438600Y546551D01*
G37*
%LPD*%
%LPC*%
G36*
X460599Y748530D02*
X460599Y748530D01*
X460601Y748531D01*
X460602Y748530D01*
X460601Y748528D01*
X460599Y748530D01*
G37*
%LPD*%
%LPC*%
G36*
X717549Y781049D02*
X717549Y781049D01*
X717549Y781051D01*
X717551Y781051D01*
X717551Y781049D01*
X717549Y781049D01*
G37*
%LPD*%
%LPC*%
G36*
X571499Y654049D02*
X571499Y654049D01*
X571499Y654051D01*
X571501Y654051D01*
X571501Y654049D01*
X571499Y654049D01*
G37*
%LPD*%
%LPC*%
G36*
X724249Y495299D02*
X724249Y495299D01*
X724249Y495301D01*
X724251Y495301D01*
X724251Y495299D01*
X724249Y495299D01*
G37*
%LPD*%
%LPC*%
G36*
X425449Y215899D02*
X425449Y215899D01*
X425449Y215901D01*
X425451Y215901D01*
X425451Y215899D01*
X425449Y215899D01*
G37*
%LPD*%
%LPC*%
G36*
X876299Y190099D02*
X876299Y190099D01*
X876299Y190101D01*
X876301Y190101D01*
X876301Y190099D01*
X876299Y190099D01*
G37*
%LPD*%
%LPC*%
G36*
X285749Y184149D02*
X285749Y184149D01*
X285749Y184151D01*
X285751Y184151D01*
X285751Y184149D01*
X285749Y184149D01*
G37*
%LPD*%
%LPC*%
G36*
X425449Y165099D02*
X425449Y165099D01*
X425449Y165101D01*
X425451Y165101D01*
X425451Y165099D01*
X425449Y165099D01*
G37*
%LPD*%
%LPC*%
G36*
X876299Y291699D02*
X876299Y291699D01*
X876299Y291701D01*
X876301Y291701D01*
X876301Y291699D01*
X876299Y291699D01*
G37*
%LPD*%
%LPC*%
G36*
X69849Y152399D02*
X69849Y152399D01*
X69849Y152401D01*
X69851Y152401D01*
X69851Y152399D01*
X69849Y152399D01*
G37*
%LPD*%
%LPC*%
G36*
X800099Y82549D02*
X800099Y82549D01*
X800099Y82551D01*
X800101Y82551D01*
X800101Y82549D01*
X800099Y82549D01*
G37*
%LPD*%
D10*
X691790Y457200D02*
X678710Y457200D01*
X717710Y469900D02*
X730790Y469900D01*
X691790Y482600D02*
X678710Y482600D01*
X717710Y495300D02*
X730790Y495300D01*
X691790Y508000D02*
X678710Y508000D01*
X717710Y520700D02*
X730790Y520700D01*
X691790Y533400D02*
X678710Y533400D01*
D11*
X463550Y520700D03*
X590550Y520700D03*
X463550Y558800D03*
X590550Y558800D03*
D12*
X864300Y444900D02*
X888300Y444900D01*
X888300Y494900D02*
X864300Y494900D01*
X864300Y343300D02*
X888300Y343300D01*
X888300Y393300D02*
X864300Y393300D01*
D13*
X433693Y393700D02*
X417208Y393700D01*
X417208Y368300D02*
X433693Y368300D01*
X433693Y342900D02*
X417208Y342900D01*
X417208Y317500D02*
X433693Y317500D01*
X433693Y292100D02*
X417208Y292100D01*
X417208Y266700D02*
X433693Y266700D01*
X433693Y241300D02*
X417208Y241300D01*
X417208Y215900D02*
X433693Y215900D01*
X433693Y190500D02*
X417208Y190500D01*
X417208Y165100D02*
X433693Y165100D01*
X747408Y215900D02*
X763893Y215900D01*
X763893Y241300D02*
X747408Y241300D01*
X747408Y266700D02*
X763893Y266700D01*
X763893Y292100D02*
X747408Y292100D01*
X747408Y317500D02*
X763893Y317500D01*
X763893Y342900D02*
X747408Y342900D01*
X747408Y368300D02*
X763893Y368300D01*
X763893Y393700D02*
X747408Y393700D01*
D14*
X266700Y647700D03*
X266700Y622300D03*
X266700Y596900D03*
X266700Y571500D03*
X266700Y546100D03*
X266700Y520700D03*
X266700Y495300D03*
X266700Y469900D03*
X266700Y444500D03*
X266700Y419100D03*
X266700Y393700D03*
X266700Y368300D03*
X266700Y342900D03*
X266700Y317500D03*
X266700Y292100D03*
X266700Y266700D03*
X266700Y241300D03*
X114300Y647700D03*
X114300Y622300D03*
X114300Y596900D03*
X114300Y571500D03*
X114300Y546100D03*
X114300Y520700D03*
X114300Y495300D03*
X114300Y469900D03*
X114300Y444500D03*
X114300Y419100D03*
X114300Y393700D03*
X114300Y368300D03*
X114300Y342900D03*
X114300Y317500D03*
X114300Y292100D03*
X114300Y266700D03*
X114300Y241300D03*
D11*
X463550Y482600D03*
X590550Y482600D03*
X463550Y596900D03*
X590550Y596900D03*
D12*
X864300Y241700D02*
X888300Y241700D01*
X888300Y291700D02*
X864300Y291700D01*
X864300Y140100D02*
X888300Y140100D01*
X888300Y190100D02*
X864300Y190100D01*
D15*
X184150Y184150D03*
X285750Y184150D03*
D16*
X41148Y571500D02*
X22352Y571500D01*
X22352Y546100D02*
X41148Y546100D01*
X41148Y520700D02*
X22352Y520700D01*
X298450Y79248D02*
X298450Y60452D01*
X273050Y60452D02*
X273050Y79248D01*
X342900Y79248D02*
X342900Y60452D01*
X368300Y60452D02*
X368300Y79248D01*
X419100Y79248D02*
X419100Y60452D01*
X444500Y60452D02*
X444500Y79248D01*
X41148Y469900D02*
X22352Y469900D01*
X22352Y444500D02*
X41148Y444500D01*
X41148Y419100D02*
X22352Y419100D01*
D17*
X444951Y476701D03*
X355149Y386899D03*
D18*
X348799Y456749D03*
X438601Y546551D03*
D19*
X800100Y82550D03*
D20*
X730250Y717550D03*
X692150Y717550D03*
X615950Y717550D03*
X577850Y717550D03*
D19*
X297180Y241300D03*
X299720Y266700D03*
X297180Y292100D03*
X299720Y317500D03*
X297180Y342900D03*
X299720Y368300D03*
X297180Y393700D03*
X299720Y419100D03*
X297180Y444500D03*
X299720Y469900D03*
X297180Y495300D03*
X299720Y520700D03*
X297180Y546100D03*
X299720Y571500D03*
X297180Y596900D03*
X299720Y622300D03*
X297180Y647700D03*
X81280Y495300D03*
X83820Y520700D03*
X81280Y546100D03*
X83820Y571500D03*
X81280Y596900D03*
X83820Y622300D03*
X81280Y647700D03*
X81280Y241300D03*
X83820Y266700D03*
X81280Y292100D03*
X83820Y317500D03*
X81280Y342900D03*
X83820Y368300D03*
X81280Y393700D03*
X83820Y419100D03*
X81280Y444500D03*
X83820Y469900D03*
D21*
X474071Y726079D03*
X460601Y748530D03*
X420189Y779961D03*
X438150Y762000D03*
D15*
X273050Y723900D03*
X374650Y723900D03*
X273050Y768350D03*
X374650Y768350D03*
D22*
X717550Y781050D03*
X615950Y781050D03*
D23*
X520700Y661162D02*
X520700Y646938D01*
X546100Y646938D02*
X546100Y661162D01*
X571500Y661162D02*
X571500Y646938D01*
X520700Y445262D02*
X520700Y431038D01*
X546100Y431038D02*
X546100Y445262D01*
X571500Y445262D02*
X571500Y431038D01*
D24*
X133350Y88900D03*
X209550Y88900D03*
D19*
X158750Y88900D03*
X184150Y88900D03*
D25*
X69850Y152400D03*
X44450Y152400D03*
X44450Y127000D03*
X120650Y184150D03*
X44450Y184150D03*
D26*
X654050Y457200D03*
D27*
X450850Y342900D03*
X654050Y533400D03*
X368300Y184150D03*
X368300Y203200D03*
X368300Y222250D03*
X368300Y260350D03*
X368300Y279400D03*
X368300Y298450D03*
X368300Y336550D03*
X368300Y355600D03*
X127000Y254000D03*
X400050Y342900D03*
X393700Y393700D03*
X355600Y431800D03*
X19050Y590550D03*
X44450Y590550D03*
X63500Y330200D03*
X127000Y323850D03*
X266700Y184150D03*
X288925Y114300D03*
X209550Y133350D03*
X419100Y107950D03*
X431800Y107950D03*
X444500Y107950D03*
X498475Y76200D03*
X730250Y266700D03*
X730250Y292100D03*
X781050Y266700D03*
X781050Y292100D03*
X368300Y241300D03*
X400050Y165100D03*
X450850Y165100D03*
X450850Y215900D03*
X400050Y215900D03*
X787400Y419100D03*
X806450Y419100D03*
X787400Y368300D03*
X806450Y368300D03*
X838200Y298450D03*
X876300Y311150D03*
X876300Y266700D03*
X838200Y279400D03*
X787400Y209550D03*
X806450Y209550D03*
X806450Y469900D03*
X787400Y469900D03*
X787400Y165100D03*
X806450Y165100D03*
X142875Y387350D03*
X787400Y114300D03*
X806450Y114300D03*
X196850Y387350D03*
X247650Y285750D03*
X247650Y304800D03*
X215900Y317500D03*
X196850Y317500D03*
X304800Y184150D03*
X161925Y193675D03*
X628650Y495300D03*
X660400Y495300D03*
X749300Y508000D03*
X749300Y482600D03*
X844550Y565150D03*
X882650Y533400D03*
X717550Y800100D03*
X654050Y692150D03*
X196850Y266700D03*
X368300Y165100D03*
X234950Y317500D03*
X368300Y317500D03*
X368300Y419100D03*
X381000Y406400D03*
X342900Y444500D03*
X400050Y317500D03*
X654050Y742950D03*
X717550Y762000D03*
X876300Y419100D03*
X876300Y368300D03*
X876300Y215900D03*
X876300Y165100D03*
X876300Y114300D03*
X876300Y469900D03*
X406400Y596900D03*
X387350Y577850D03*
X365125Y555625D03*
X425450Y615950D03*
X438150Y628650D03*
X457200Y647700D03*
X317500Y508000D03*
X317500Y533400D03*
X317500Y558800D03*
X336550Y581025D03*
X358775Y606425D03*
X63500Y406400D03*
X63500Y381000D03*
X63500Y355600D03*
X63500Y304800D03*
X63500Y279400D03*
X63500Y254000D03*
X317500Y355600D03*
X317500Y330200D03*
X317500Y304800D03*
X317500Y279400D03*
X317500Y254000D03*
X31750Y495300D03*
X196850Y200025D03*
X31750Y393700D03*
X546100Y615950D03*
X596900Y615950D03*
X539750Y463550D03*
X596900Y463550D03*
X139700Y152400D03*
X254000Y609600D03*
X234950Y577850D03*
X215900Y552450D03*
X228600Y692150D03*
X209550Y711200D03*
X187325Y733425D03*
X254000Y654050D03*
D28*
X755650Y241300D02*
X875900Y241300D01*
D29*
X876300Y241700D01*
D28*
X755650Y241300D02*
X755650Y215900D01*
D30*
X685250Y482600D02*
X678900Y482600D01*
X672550Y476250D01*
X628650Y476250D01*
X590550Y514350D01*
X590550Y520700D01*
X590550Y558800D02*
X635000Y514350D01*
X672550Y514350D01*
X678900Y508000D01*
X685250Y508000D01*
D29*
X697550Y444900D02*
X876300Y444900D01*
X697550Y444900D02*
X685250Y457200D01*
X692150Y558800D02*
X800100Y558800D01*
X876300Y494900D01*
X685250Y533400D02*
X692150Y558800D01*
D31*
X299720Y622300D02*
X266700Y622300D01*
D32*
X399159Y622780D02*
X425519Y596420D01*
X399159Y622780D02*
X300200Y622780D01*
X299720Y622300D01*
X425519Y596420D02*
X463070Y596420D01*
X463550Y596900D01*
X463550Y558800D01*
D30*
X463550Y520700D02*
X463550Y482600D01*
X463550Y501650D01*
D31*
X297180Y596900D02*
X266700Y596900D01*
D32*
X421787Y520700D02*
X463550Y520700D01*
X421787Y520700D02*
X345587Y596900D01*
X297180Y596900D01*
D33*
X257902Y694340D02*
X519545Y694340D01*
D31*
X299720Y571500D02*
X266700Y571500D01*
D33*
X232760Y669198D02*
X257902Y694340D01*
X232760Y669198D02*
X232760Y603250D01*
X264510Y571500D01*
X266700Y571500D01*
X519545Y694340D02*
X577850Y717550D01*
D28*
X755650Y342900D02*
X875900Y342900D01*
D29*
X876300Y343300D01*
D28*
X755650Y342900D02*
X755650Y317500D01*
X755650Y393700D02*
X875900Y393700D01*
D29*
X876300Y393300D01*
D28*
X755650Y393700D02*
X755650Y368300D01*
D32*
X425450Y342900D02*
X419456Y342900D01*
X400837Y361519D01*
X400837Y367513D01*
X299720Y468630D01*
X299720Y469900D01*
D31*
X266700Y469900D01*
D32*
X416421Y275730D02*
X425450Y266700D01*
X416421Y275730D02*
X410427Y275730D01*
X300630Y442976D02*
X298704Y442976D01*
X297180Y444500D01*
X381480Y304676D02*
X410427Y275730D01*
X381480Y304676D02*
X381480Y362126D01*
X355928Y387678D01*
X300630Y442976D01*
D31*
X297180Y444500D02*
X266700Y444500D01*
X355149Y386899D02*
X355928Y387678D01*
D32*
X412750Y393700D02*
X425450Y393700D01*
X412750Y393700D02*
X349701Y456749D01*
X348799Y456749D01*
X310247Y495300D01*
D31*
X297180Y495300D02*
X266700Y495300D01*
D32*
X297180Y495300D02*
X310247Y495300D01*
D33*
X390652Y50163D02*
X370969Y30480D01*
D34*
X425450Y241300D02*
X450850Y241300D01*
D33*
X273050Y44450D02*
X287020Y30480D01*
X273050Y44450D02*
X273050Y69850D01*
X287020Y30480D02*
X370969Y30480D01*
X390652Y241300D02*
X425450Y241300D01*
D34*
X114300Y368300D02*
X83820Y368300D01*
X114300Y368300D02*
X146050Y368300D01*
X450850Y241300D02*
X520700Y311150D01*
X520700Y438150D01*
X520700Y654050D01*
X213332Y116868D02*
X202723Y116868D01*
X213332Y116868D02*
X222250Y107950D01*
X222250Y120650D02*
X273050Y69850D01*
X146050Y201109D02*
X146050Y368300D01*
X146050Y201109D02*
X142268Y197327D01*
X142268Y177323D01*
X202723Y116868D01*
X222250Y101600D02*
X209550Y88900D01*
X222250Y101600D02*
X222250Y107950D01*
X222250Y120650D01*
D33*
X390652Y152985D02*
X390652Y50163D01*
X390652Y152985D02*
X384838Y158799D01*
X384838Y222201D02*
X390652Y228015D01*
X390652Y241300D01*
X384838Y222201D02*
X384838Y158799D01*
D30*
X352425Y101600D02*
X368300Y85725D01*
X368300Y69850D01*
D31*
X299720Y419100D02*
X266700Y419100D01*
D30*
X352425Y366395D02*
X352425Y101600D01*
X352425Y366395D02*
X299720Y419100D01*
D31*
X114300Y292100D02*
X81280Y292100D01*
X266700Y647700D02*
X297180Y647700D01*
X299720Y520700D02*
X266700Y520700D01*
D30*
X190500Y716461D02*
X242389Y768350D01*
X190500Y716461D02*
X190500Y558800D01*
X228600Y520700D01*
X266700Y520700D01*
X273050Y768350D02*
X242389Y768350D01*
D31*
X266700Y546100D02*
X297180Y546100D01*
D30*
X266700Y546100D02*
X247650Y546100D01*
X209550Y584200D01*
X209550Y692150D01*
X241300Y723900D01*
X273050Y723900D01*
X298450Y82550D02*
X298450Y69850D01*
X298450Y82550D02*
X196850Y184150D01*
X184150Y184150D01*
X180975Y187325D02*
X180975Y466725D01*
X180975Y187325D02*
X184150Y184150D01*
X180975Y466725D02*
X127000Y520700D01*
D31*
X114300Y520700D01*
X83820Y520700D01*
X615950Y717550D02*
X615950Y781050D01*
X114300Y444500D02*
X81280Y444500D01*
X81280Y546100D02*
X114300Y546100D01*
X266700Y368300D02*
X299720Y368300D01*
X297180Y342900D02*
X266700Y342900D01*
X266700Y317500D02*
X299720Y317500D01*
X297180Y292100D02*
X266700Y292100D01*
X266700Y266700D02*
X299720Y266700D01*
X297180Y241300D02*
X266700Y241300D01*
X114300Y495300D02*
X81280Y495300D01*
X83820Y571500D02*
X114300Y571500D01*
X114300Y596900D02*
X81280Y596900D01*
D27*
X165100Y266700D03*
D34*
X165100Y457200D01*
D27*
X165100Y457200D03*
D33*
X114300Y647700D02*
X81280Y647700D01*
D31*
X83820Y469900D02*
X114300Y469900D01*
X114300Y419100D02*
X83820Y419100D01*
X81280Y393700D02*
X114300Y393700D01*
X114300Y342900D02*
X81280Y342900D01*
X83820Y266700D02*
X114300Y266700D01*
X114300Y241300D02*
X81280Y241300D01*
X266700Y393700D02*
X297180Y393700D01*
D30*
X339725Y358775D02*
X339725Y73025D01*
X342900Y69850D01*
D32*
X339725Y358775D02*
X304800Y393700D01*
X297180Y393700D01*
D31*
X114300Y317500D02*
X83820Y317500D01*
D30*
X374650Y723900D02*
X471892Y723900D01*
X474071Y726079D01*
X408579Y768350D02*
X374650Y768350D01*
X408579Y768350D02*
X420189Y779961D01*
D31*
X114300Y622300D02*
X83820Y622300D01*
X69850Y622300D01*
X59690Y612140D01*
X59690Y529590D01*
X50800Y520700D01*
X31750Y520700D01*
X59690Y511810D02*
X59690Y427990D01*
X59690Y511810D02*
X50800Y520700D01*
X59690Y427990D02*
X50800Y419100D01*
X31750Y419100D01*
X59690Y511810D02*
X59690Y529590D01*
D32*
X546100Y641350D02*
X590550Y596900D01*
X546100Y641350D02*
X546100Y654050D01*
X549910Y441960D02*
X546100Y438150D01*
X549910Y441960D02*
X549910Y445225D01*
X587285Y482600D01*
X590550Y482600D01*
D33*
X95250Y127000D02*
X44450Y127000D01*
X95250Y127000D02*
X133350Y88900D01*
X44450Y152400D02*
X44450Y184150D01*
M02*
