G04 EAGLE Gerber RS-274X export*
G75*
%MOMM*%
%FSLAX34Y34*%
%LPD*%
%INBottom Copper*%
%IPPOS*%
%AMOC8*
5,1,8,0,0,1.08239X$1,22.5*%
G01*
%ADD10C,1.308000*%
%ADD11P,1.429621X8X22.500000*%
%ADD12C,2.400000*%
%ADD13C,1.648500*%
%ADD14C,1.408000*%
%ADD15P,1.429621X8X202.500000*%
%ADD16C,1.879600*%
%ADD17P,1.429621X8X247.500000*%
%ADD18P,1.429621X8X67.500000*%
%ADD19C,1.879600*%
%ADD20P,0.818720X8X22.500000*%
%ADD21C,0.756400*%
%ADD22C,2.540000*%
%ADD23C,0.635000*%
%ADD24C,1.270000*%
%ADD25C,1.905000*%
%ADD26C,0.812800*%
%ADD27C,0.609600*%

G36*
X941188Y10176D02*
X941188Y10176D01*
X941307Y10183D01*
X941345Y10196D01*
X941386Y10201D01*
X941496Y10244D01*
X941609Y10281D01*
X941644Y10303D01*
X941681Y10318D01*
X941777Y10387D01*
X941878Y10451D01*
X941906Y10481D01*
X941939Y10504D01*
X942015Y10596D01*
X942096Y10683D01*
X942116Y10718D01*
X942141Y10749D01*
X942192Y10857D01*
X942250Y10961D01*
X942260Y11001D01*
X942277Y11037D01*
X942299Y11154D01*
X942329Y11269D01*
X942333Y11329D01*
X942337Y11349D01*
X942335Y11370D01*
X942339Y11430D01*
X942339Y231641D01*
X942331Y231710D01*
X942332Y231780D01*
X942311Y231867D01*
X942299Y231956D01*
X942274Y232021D01*
X942257Y232089D01*
X942215Y232168D01*
X942182Y232252D01*
X942141Y232308D01*
X942109Y232370D01*
X942048Y232436D01*
X941996Y232509D01*
X941942Y232554D01*
X941895Y232605D01*
X941820Y232655D01*
X941751Y232712D01*
X941687Y232742D01*
X941629Y232780D01*
X941544Y232809D01*
X941463Y232847D01*
X941394Y232861D01*
X941328Y232883D01*
X941239Y232890D01*
X941151Y232907D01*
X941081Y232903D01*
X941011Y232908D01*
X940923Y232893D01*
X940833Y232888D01*
X940767Y232866D01*
X940698Y232854D01*
X940616Y232817D01*
X940531Y232789D01*
X940472Y232752D01*
X940408Y232723D01*
X940338Y232667D01*
X940262Y232619D01*
X940214Y232569D01*
X940160Y232525D01*
X940105Y232453D01*
X940044Y232388D01*
X940010Y232327D01*
X939968Y232271D01*
X939897Y232126D01*
X939211Y230468D01*
X936511Y227811D01*
X936509Y227809D01*
X936504Y227804D01*
X933826Y225126D01*
X930317Y223705D01*
X930314Y223703D01*
X930307Y223701D01*
X926807Y222251D01*
X923021Y222281D01*
X923018Y222280D01*
X923011Y222281D01*
X919220Y222281D01*
X919150Y222300D01*
X919146Y222300D01*
X919142Y222301D01*
X918981Y222313D01*
X876232Y222649D01*
X876229Y222649D01*
X876222Y222649D01*
X783117Y222649D01*
X783019Y222637D01*
X782920Y222634D01*
X782861Y222617D01*
X782801Y222609D01*
X782709Y222573D01*
X782614Y222545D01*
X782562Y222515D01*
X782506Y222492D01*
X782426Y222434D01*
X782340Y222384D01*
X782265Y222318D01*
X782248Y222306D01*
X782240Y222296D01*
X782219Y222278D01*
X759691Y199750D01*
X752689Y196849D01*
X726461Y196849D01*
X719459Y199750D01*
X714882Y204326D01*
X714875Y204331D01*
X714869Y204339D01*
X714750Y204429D01*
X714631Y204521D01*
X714623Y204524D01*
X714615Y204530D01*
X714471Y204601D01*
X714460Y204605D01*
X710713Y208353D01*
X708684Y213250D01*
X708684Y218550D01*
X710713Y223447D01*
X714460Y227195D01*
X714471Y227199D01*
X714479Y227204D01*
X714488Y227206D01*
X714616Y227282D01*
X714747Y227357D01*
X714754Y227363D01*
X714762Y227368D01*
X714882Y227474D01*
X715205Y227797D01*
X715236Y227836D01*
X715272Y227870D01*
X715333Y227961D01*
X715400Y228048D01*
X715420Y228094D01*
X715447Y228135D01*
X715483Y228239D01*
X715527Y228340D01*
X715534Y228389D01*
X715550Y228436D01*
X715559Y228546D01*
X715576Y228654D01*
X715572Y228704D01*
X715576Y228753D01*
X715557Y228861D01*
X715547Y228971D01*
X715530Y229018D01*
X715521Y229067D01*
X715476Y229167D01*
X715439Y229270D01*
X715411Y229311D01*
X715391Y229357D01*
X715322Y229442D01*
X715260Y229533D01*
X715223Y229566D01*
X715192Y229605D01*
X715104Y229671D01*
X715022Y229744D01*
X714978Y229766D01*
X714938Y229796D01*
X714793Y229867D01*
X714460Y230005D01*
X710713Y233753D01*
X708684Y238650D01*
X708684Y243950D01*
X710713Y248847D01*
X714461Y252595D01*
X718343Y254203D01*
X718369Y254218D01*
X718397Y254227D01*
X718507Y254297D01*
X718619Y254361D01*
X718641Y254381D01*
X718666Y254397D01*
X718755Y254492D01*
X718848Y254582D01*
X718863Y254607D01*
X718884Y254629D01*
X718946Y254743D01*
X719014Y254853D01*
X719023Y254882D01*
X719037Y254908D01*
X719070Y255033D01*
X719108Y255157D01*
X719109Y255187D01*
X719116Y255216D01*
X719117Y255346D01*
X719123Y255475D01*
X719117Y255504D01*
X719117Y255534D01*
X719085Y255659D01*
X719058Y255786D01*
X719045Y255813D01*
X719038Y255842D01*
X718976Y255955D01*
X718919Y256072D01*
X718899Y256095D01*
X718885Y256121D01*
X718797Y256215D01*
X718712Y256314D01*
X718688Y256331D01*
X718668Y256353D01*
X718558Y256422D01*
X718452Y256497D01*
X718424Y256507D01*
X718399Y256524D01*
X718250Y256583D01*
X717868Y256707D01*
X716356Y257477D01*
X714983Y258475D01*
X713783Y259675D01*
X712785Y261048D01*
X712014Y262561D01*
X711494Y264161D01*
X728980Y264161D01*
X729098Y264176D01*
X729217Y264183D01*
X729255Y264196D01*
X729295Y264201D01*
X729406Y264244D01*
X729519Y264281D01*
X729553Y264303D01*
X729591Y264318D01*
X729687Y264388D01*
X729788Y264451D01*
X729816Y264481D01*
X729848Y264504D01*
X729924Y264596D01*
X730006Y264683D01*
X730025Y264718D01*
X730051Y264749D01*
X730102Y264857D01*
X730159Y264961D01*
X730170Y265001D01*
X730187Y265037D01*
X730209Y265154D01*
X730239Y265269D01*
X730243Y265330D01*
X730247Y265350D01*
X730245Y265370D01*
X730249Y265430D01*
X730249Y266701D01*
X730251Y266701D01*
X730251Y265430D01*
X730266Y265312D01*
X730273Y265193D01*
X730286Y265155D01*
X730291Y265114D01*
X730335Y265004D01*
X730371Y264891D01*
X730393Y264856D01*
X730408Y264819D01*
X730478Y264723D01*
X730541Y264622D01*
X730571Y264594D01*
X730595Y264561D01*
X730686Y264486D01*
X730773Y264404D01*
X730808Y264384D01*
X730840Y264359D01*
X730947Y264308D01*
X731052Y264250D01*
X731091Y264240D01*
X731127Y264223D01*
X731244Y264201D01*
X731359Y264171D01*
X731420Y264167D01*
X731440Y264163D01*
X731460Y264165D01*
X731520Y264161D01*
X749006Y264161D01*
X748486Y262561D01*
X747715Y261048D01*
X746717Y259675D01*
X745517Y258475D01*
X744144Y257477D01*
X742632Y256707D01*
X742250Y256583D01*
X742223Y256570D01*
X742194Y256563D01*
X742080Y256503D01*
X741963Y256447D01*
X741940Y256428D01*
X741913Y256414D01*
X741817Y256327D01*
X741718Y256245D01*
X741700Y256221D01*
X741678Y256201D01*
X741607Y256092D01*
X741531Y255988D01*
X741520Y255960D01*
X741503Y255935D01*
X741461Y255812D01*
X741413Y255692D01*
X741410Y255662D01*
X741400Y255634D01*
X741390Y255505D01*
X741373Y255376D01*
X741377Y255347D01*
X741375Y255317D01*
X741397Y255189D01*
X741413Y255061D01*
X741424Y255033D01*
X741429Y255004D01*
X741482Y254886D01*
X741530Y254765D01*
X741547Y254741D01*
X741560Y254714D01*
X741640Y254613D01*
X741717Y254508D01*
X741740Y254489D01*
X741758Y254465D01*
X741862Y254387D01*
X741961Y254305D01*
X741989Y254292D01*
X742012Y254274D01*
X742157Y254203D01*
X746039Y252595D01*
X749787Y248847D01*
X750559Y246983D01*
X750565Y246973D01*
X750566Y246971D01*
X750570Y246965D01*
X750584Y246940D01*
X750601Y246893D01*
X750663Y246802D01*
X750717Y246707D01*
X750752Y246671D01*
X750779Y246630D01*
X750862Y246558D01*
X750938Y246478D01*
X750981Y246452D01*
X751018Y246420D01*
X751116Y246370D01*
X751209Y246312D01*
X751257Y246298D01*
X751301Y246275D01*
X751408Y246251D01*
X751513Y246219D01*
X751563Y246216D01*
X751611Y246205D01*
X751721Y246209D01*
X751831Y246203D01*
X751880Y246214D01*
X751929Y246215D01*
X752035Y246246D01*
X752142Y246268D01*
X752187Y246290D01*
X752235Y246303D01*
X752329Y246359D01*
X752428Y246407D01*
X752466Y246440D01*
X752509Y246465D01*
X752630Y246571D01*
X758371Y252313D01*
X763909Y257850D01*
X770911Y260751D01*
X872341Y260751D01*
X872346Y260751D01*
X872350Y260751D01*
X872503Y260771D01*
X872578Y260781D01*
X876369Y260751D01*
X876372Y260751D01*
X876379Y260751D01*
X880170Y260751D01*
X880240Y260732D01*
X880244Y260732D01*
X880248Y260730D01*
X880409Y260719D01*
X902760Y260543D01*
X902883Y260558D01*
X903007Y260565D01*
X903041Y260576D01*
X903076Y260580D01*
X903192Y260625D01*
X903309Y260663D01*
X903339Y260682D01*
X903372Y260695D01*
X903473Y260767D01*
X903578Y260833D01*
X903602Y260859D01*
X903631Y260880D01*
X903711Y260975D01*
X903796Y261065D01*
X903813Y261096D01*
X903836Y261123D01*
X903890Y261235D01*
X903950Y261344D01*
X903958Y261378D01*
X903974Y261410D01*
X903998Y261531D01*
X904029Y261651D01*
X904032Y261703D01*
X904036Y261722D01*
X904035Y261743D01*
X904039Y261812D01*
X904039Y285275D01*
X904037Y285294D01*
X904039Y285314D01*
X904017Y285452D01*
X903999Y285590D01*
X903992Y285609D01*
X903989Y285628D01*
X903934Y285756D01*
X903882Y285886D01*
X903871Y285902D01*
X903863Y285920D01*
X903777Y286030D01*
X903696Y286143D01*
X903680Y286156D01*
X903668Y286172D01*
X903558Y286257D01*
X903451Y286346D01*
X903433Y286354D01*
X903417Y286367D01*
X903289Y286422D01*
X903163Y286481D01*
X903143Y286485D01*
X903125Y286493D01*
X902987Y286515D01*
X902851Y286541D01*
X902831Y286540D01*
X902811Y286543D01*
X902672Y286530D01*
X902533Y286522D01*
X902514Y286515D01*
X902494Y286514D01*
X902363Y286466D01*
X902231Y286423D01*
X902214Y286413D01*
X902195Y286406D01*
X902080Y286328D01*
X901962Y286253D01*
X901948Y286239D01*
X901932Y286228D01*
X901840Y286123D01*
X901744Y286022D01*
X901734Y286004D01*
X901721Y285989D01*
X901639Y285851D01*
X900736Y284079D01*
X899391Y282227D01*
X897773Y280609D01*
X895921Y279264D01*
X893882Y278225D01*
X891705Y277517D01*
X889444Y277159D01*
X878839Y277159D01*
X878839Y290430D01*
X878824Y290548D01*
X878817Y290667D01*
X878804Y290705D01*
X878799Y290745D01*
X878756Y290856D01*
X878719Y290969D01*
X878697Y291003D01*
X878682Y291041D01*
X878612Y291137D01*
X878549Y291238D01*
X878519Y291266D01*
X878495Y291298D01*
X878404Y291374D01*
X878317Y291456D01*
X878282Y291475D01*
X878251Y291501D01*
X878143Y291552D01*
X878039Y291609D01*
X877999Y291620D01*
X877963Y291637D01*
X877846Y291659D01*
X877731Y291689D01*
X877670Y291693D01*
X877650Y291697D01*
X877630Y291695D01*
X877570Y291699D01*
X876299Y291699D01*
X876299Y291701D01*
X877570Y291701D01*
X877688Y291716D01*
X877807Y291723D01*
X877845Y291736D01*
X877885Y291741D01*
X877996Y291785D01*
X878109Y291821D01*
X878144Y291843D01*
X878181Y291858D01*
X878277Y291928D01*
X878378Y291991D01*
X878406Y292021D01*
X878439Y292045D01*
X878514Y292136D01*
X878596Y292223D01*
X878616Y292258D01*
X878641Y292290D01*
X878692Y292397D01*
X878750Y292502D01*
X878760Y292541D01*
X878777Y292577D01*
X878799Y292694D01*
X878829Y292809D01*
X878833Y292870D01*
X878837Y292890D01*
X878835Y292910D01*
X878839Y292970D01*
X878839Y306241D01*
X889444Y306241D01*
X891705Y305883D01*
X893882Y305175D01*
X895921Y304136D01*
X897773Y302791D01*
X899391Y301173D01*
X900736Y299321D01*
X901639Y297549D01*
X901650Y297533D01*
X901658Y297514D01*
X901739Y297402D01*
X901818Y297286D01*
X901833Y297273D01*
X901844Y297257D01*
X901952Y297168D01*
X902056Y297076D01*
X902074Y297067D01*
X902089Y297054D01*
X902215Y296995D01*
X902340Y296931D01*
X902359Y296927D01*
X902377Y296919D01*
X902514Y296892D01*
X902650Y296862D01*
X902670Y296862D01*
X902690Y296859D01*
X902829Y296867D01*
X902968Y296872D01*
X902987Y296877D01*
X903007Y296878D01*
X903139Y296921D01*
X903273Y296960D01*
X903291Y296970D01*
X903309Y296977D01*
X903427Y297051D01*
X903547Y297122D01*
X903561Y297136D01*
X903578Y297147D01*
X903674Y297248D01*
X903772Y297347D01*
X903782Y297364D01*
X903796Y297378D01*
X903863Y297500D01*
X903934Y297620D01*
X903940Y297639D01*
X903950Y297657D01*
X903984Y297791D01*
X904023Y297926D01*
X904024Y297945D01*
X904029Y297965D01*
X904039Y298125D01*
X904039Y331819D01*
X904022Y331957D01*
X904009Y332096D01*
X904002Y332115D01*
X903999Y332135D01*
X903948Y332264D01*
X903901Y332395D01*
X903890Y332412D01*
X903882Y332430D01*
X903801Y332543D01*
X903723Y332658D01*
X903707Y332671D01*
X903696Y332688D01*
X903588Y332777D01*
X903484Y332868D01*
X903466Y332878D01*
X903451Y332891D01*
X903325Y332950D01*
X903201Y333013D01*
X903181Y333018D01*
X903163Y333026D01*
X903027Y333052D01*
X902891Y333083D01*
X902870Y333082D01*
X902851Y333086D01*
X902712Y333077D01*
X902573Y333073D01*
X902553Y333067D01*
X902533Y333066D01*
X902401Y333023D01*
X902267Y332985D01*
X902250Y332974D01*
X902231Y332968D01*
X902113Y332894D01*
X901993Y332823D01*
X901972Y332805D01*
X901962Y332798D01*
X901948Y332783D01*
X901873Y332717D01*
X897975Y328820D01*
X891698Y326219D01*
X886687Y326219D01*
X886589Y326207D01*
X886490Y326204D01*
X886431Y326187D01*
X886371Y326179D01*
X886279Y326143D01*
X886184Y326115D01*
X886132Y326085D01*
X886076Y326062D01*
X885996Y326004D01*
X885910Y325954D01*
X885835Y325888D01*
X885818Y325876D01*
X885810Y325866D01*
X885808Y325864D01*
X885803Y325860D01*
X885801Y325858D01*
X885789Y325848D01*
X880341Y320400D01*
X873339Y317499D01*
X753227Y317499D01*
X753129Y317487D01*
X753029Y317484D01*
X752971Y317467D01*
X752911Y317459D01*
X752819Y317423D01*
X752724Y317395D01*
X752672Y317365D01*
X752615Y317342D01*
X752535Y317284D01*
X752450Y317234D01*
X752375Y317168D01*
X752358Y317156D01*
X752350Y317146D01*
X752329Y317128D01*
X752187Y316986D01*
X752127Y316908D01*
X752059Y316835D01*
X752030Y316782D01*
X751993Y316735D01*
X751953Y316644D01*
X751905Y316557D01*
X751890Y316498D01*
X751866Y316443D01*
X751851Y316345D01*
X751826Y316249D01*
X751820Y316149D01*
X751816Y316129D01*
X751818Y316116D01*
X751816Y316088D01*
X751816Y314850D01*
X749787Y309953D01*
X746039Y306205D01*
X742157Y304597D01*
X742131Y304582D01*
X742103Y304573D01*
X741993Y304503D01*
X741881Y304439D01*
X741859Y304419D01*
X741834Y304403D01*
X741745Y304308D01*
X741652Y304218D01*
X741637Y304193D01*
X741616Y304171D01*
X741554Y304057D01*
X741486Y303947D01*
X741477Y303918D01*
X741463Y303892D01*
X741430Y303767D01*
X741392Y303643D01*
X741391Y303613D01*
X741384Y303584D01*
X741383Y303454D01*
X741377Y303325D01*
X741383Y303296D01*
X741383Y303266D01*
X741415Y303141D01*
X741442Y303014D01*
X741455Y302987D01*
X741462Y302958D01*
X741524Y302845D01*
X741581Y302728D01*
X741601Y302705D01*
X741615Y302679D01*
X741703Y302585D01*
X741788Y302486D01*
X741812Y302469D01*
X741832Y302447D01*
X741942Y302378D01*
X742048Y302303D01*
X742076Y302293D01*
X742101Y302276D01*
X742250Y302217D01*
X742632Y302093D01*
X744144Y301323D01*
X745517Y300325D01*
X746717Y299125D01*
X747715Y297752D01*
X748486Y296239D01*
X749006Y294639D01*
X731520Y294639D01*
X731402Y294624D01*
X731283Y294617D01*
X731245Y294604D01*
X731205Y294599D01*
X731094Y294556D01*
X730981Y294519D01*
X730947Y294497D01*
X730909Y294482D01*
X730813Y294412D01*
X730712Y294349D01*
X730684Y294319D01*
X730652Y294295D01*
X730576Y294204D01*
X730494Y294117D01*
X730475Y294082D01*
X730449Y294051D01*
X730398Y293943D01*
X730341Y293839D01*
X730330Y293799D01*
X730313Y293763D01*
X730291Y293646D01*
X730261Y293531D01*
X730257Y293470D01*
X730253Y293450D01*
X730255Y293430D01*
X730251Y293370D01*
X730251Y292099D01*
X730249Y292099D01*
X730249Y293370D01*
X730234Y293488D01*
X730227Y293607D01*
X730214Y293645D01*
X730209Y293685D01*
X730165Y293796D01*
X730129Y293909D01*
X730107Y293944D01*
X730092Y293981D01*
X730022Y294077D01*
X729959Y294178D01*
X729929Y294206D01*
X729905Y294239D01*
X729814Y294314D01*
X729727Y294396D01*
X729692Y294416D01*
X729660Y294441D01*
X729553Y294492D01*
X729448Y294550D01*
X729409Y294560D01*
X729373Y294577D01*
X729256Y294599D01*
X729141Y294629D01*
X729080Y294633D01*
X729060Y294637D01*
X729040Y294635D01*
X728980Y294639D01*
X711494Y294639D01*
X712014Y296239D01*
X712785Y297752D01*
X713783Y299125D01*
X714983Y300325D01*
X716356Y301323D01*
X717868Y302093D01*
X718250Y302217D01*
X718277Y302230D01*
X718306Y302237D01*
X718420Y302297D01*
X718537Y302353D01*
X718560Y302372D01*
X718587Y302386D01*
X718683Y302473D01*
X718782Y302555D01*
X718800Y302579D01*
X718822Y302599D01*
X718893Y302708D01*
X718969Y302812D01*
X718980Y302840D01*
X718997Y302865D01*
X719039Y302988D01*
X719087Y303108D01*
X719090Y303138D01*
X719100Y303166D01*
X719110Y303295D01*
X719127Y303424D01*
X719123Y303453D01*
X719125Y303483D01*
X719103Y303611D01*
X719087Y303739D01*
X719076Y303767D01*
X719071Y303796D01*
X719018Y303914D01*
X718970Y304035D01*
X718953Y304059D01*
X718940Y304086D01*
X718860Y304187D01*
X718783Y304292D01*
X718760Y304311D01*
X718742Y304335D01*
X718638Y304413D01*
X718539Y304495D01*
X718511Y304508D01*
X718488Y304526D01*
X718343Y304597D01*
X714461Y306205D01*
X710713Y309953D01*
X708684Y314850D01*
X708684Y320150D01*
X710713Y325047D01*
X714460Y328795D01*
X715022Y329027D01*
X715142Y329096D01*
X715265Y329161D01*
X715280Y329175D01*
X715298Y329185D01*
X715398Y329282D01*
X715501Y329375D01*
X715512Y329392D01*
X715526Y329406D01*
X715599Y329525D01*
X715675Y329641D01*
X715682Y329660D01*
X715693Y329677D01*
X715734Y329810D01*
X715779Y329942D01*
X715780Y329962D01*
X715786Y329981D01*
X715793Y330120D01*
X715804Y330259D01*
X715800Y330279D01*
X715801Y330299D01*
X715773Y330435D01*
X715750Y330572D01*
X715741Y330591D01*
X715737Y330610D01*
X715676Y330735D01*
X715619Y330862D01*
X715606Y330878D01*
X715597Y330896D01*
X715507Y331002D01*
X715420Y331110D01*
X715404Y331123D01*
X715391Y331138D01*
X715277Y331218D01*
X715166Y331302D01*
X715141Y331314D01*
X715131Y331321D01*
X715112Y331328D01*
X715022Y331373D01*
X714461Y331605D01*
X710713Y335353D01*
X708684Y340250D01*
X708684Y345550D01*
X710713Y350447D01*
X714460Y354195D01*
X715022Y354427D01*
X715142Y354496D01*
X715265Y354561D01*
X715280Y354575D01*
X715298Y354585D01*
X715398Y354682D01*
X715501Y354775D01*
X715512Y354792D01*
X715526Y354806D01*
X715599Y354925D01*
X715675Y355041D01*
X715682Y355060D01*
X715693Y355077D01*
X715734Y355210D01*
X715779Y355342D01*
X715780Y355362D01*
X715786Y355381D01*
X715793Y355520D01*
X715804Y355659D01*
X715800Y355679D01*
X715801Y355699D01*
X715773Y355835D01*
X715750Y355972D01*
X715741Y355991D01*
X715737Y356010D01*
X715676Y356135D01*
X715619Y356262D01*
X715606Y356278D01*
X715597Y356296D01*
X715507Y356402D01*
X715420Y356510D01*
X715404Y356523D01*
X715391Y356538D01*
X715277Y356618D01*
X715166Y356702D01*
X715141Y356714D01*
X715131Y356721D01*
X715112Y356728D01*
X715022Y356773D01*
X714461Y357005D01*
X710713Y360753D01*
X708684Y365650D01*
X708684Y370950D01*
X710713Y375847D01*
X714460Y379595D01*
X715022Y379827D01*
X715142Y379896D01*
X715265Y379961D01*
X715280Y379975D01*
X715298Y379985D01*
X715398Y380082D01*
X715501Y380175D01*
X715512Y380192D01*
X715526Y380206D01*
X715599Y380325D01*
X715675Y380441D01*
X715682Y380460D01*
X715693Y380477D01*
X715734Y380610D01*
X715779Y380742D01*
X715780Y380762D01*
X715786Y380781D01*
X715793Y380920D01*
X715804Y381059D01*
X715800Y381079D01*
X715801Y381099D01*
X715773Y381235D01*
X715750Y381372D01*
X715741Y381391D01*
X715737Y381410D01*
X715676Y381535D01*
X715619Y381662D01*
X715606Y381678D01*
X715597Y381696D01*
X715507Y381802D01*
X715420Y381910D01*
X715404Y381923D01*
X715391Y381938D01*
X715277Y382018D01*
X715166Y382102D01*
X715141Y382114D01*
X715131Y382121D01*
X715112Y382128D01*
X715022Y382173D01*
X714461Y382405D01*
X710713Y386153D01*
X708684Y391050D01*
X708684Y396350D01*
X710713Y401247D01*
X714461Y404995D01*
X719357Y407023D01*
X741143Y407023D01*
X746039Y404995D01*
X749787Y401247D01*
X751824Y396330D01*
X751833Y396258D01*
X751846Y396120D01*
X751853Y396101D01*
X751856Y396080D01*
X751907Y395951D01*
X751954Y395820D01*
X751965Y395804D01*
X751973Y395785D01*
X752054Y395672D01*
X752132Y395557D01*
X752148Y395544D01*
X752159Y395527D01*
X752267Y395439D01*
X752371Y395347D01*
X752389Y395338D01*
X752404Y395325D01*
X752530Y395265D01*
X752654Y395202D01*
X752674Y395198D01*
X752692Y395189D01*
X752829Y395163D01*
X752964Y395133D01*
X752985Y395133D01*
X753004Y395129D01*
X753143Y395138D01*
X753282Y395142D01*
X753302Y395148D01*
X753322Y395149D01*
X753454Y395192D01*
X753588Y395231D01*
X753605Y395241D01*
X753624Y395247D01*
X753742Y395322D01*
X753862Y395392D01*
X753883Y395411D01*
X753893Y395417D01*
X753907Y395432D01*
X753983Y395499D01*
X754169Y395685D01*
X754230Y395763D01*
X754298Y395836D01*
X754327Y395889D01*
X754364Y395937D01*
X754403Y396027D01*
X754451Y396114D01*
X754466Y396173D01*
X754490Y396228D01*
X754506Y396326D01*
X754530Y396419D01*
X757441Y403447D01*
X762800Y408806D01*
X769802Y411707D01*
X870703Y411707D01*
X870713Y411708D01*
X870722Y411707D01*
X870871Y411728D01*
X871019Y411747D01*
X871028Y411750D01*
X871037Y411751D01*
X871189Y411803D01*
X872511Y412351D01*
X880089Y412351D01*
X884612Y410477D01*
X884621Y410475D01*
X884629Y410470D01*
X884774Y410433D01*
X884919Y410393D01*
X884928Y410393D01*
X884937Y410391D01*
X885098Y410381D01*
X891698Y410381D01*
X897975Y407780D01*
X901873Y403883D01*
X901982Y403798D01*
X902089Y403709D01*
X902108Y403701D01*
X902124Y403688D01*
X902252Y403633D01*
X902377Y403574D01*
X902397Y403570D01*
X902416Y403562D01*
X902554Y403540D01*
X902690Y403514D01*
X902710Y403515D01*
X902730Y403512D01*
X902869Y403525D01*
X903007Y403534D01*
X903026Y403540D01*
X903046Y403542D01*
X903178Y403589D01*
X903309Y403632D01*
X903327Y403643D01*
X903346Y403650D01*
X903461Y403728D01*
X903578Y403802D01*
X903592Y403817D01*
X903609Y403828D01*
X903701Y403932D01*
X903796Y404034D01*
X903806Y404051D01*
X903819Y404067D01*
X903883Y404191D01*
X903950Y404312D01*
X903955Y404332D01*
X903964Y404350D01*
X903994Y404486D01*
X904029Y404620D01*
X904031Y404648D01*
X904034Y404660D01*
X904033Y404681D01*
X904039Y404781D01*
X904039Y433419D01*
X904022Y433557D01*
X904009Y433696D01*
X904002Y433715D01*
X903999Y433735D01*
X903948Y433864D01*
X903901Y433995D01*
X903890Y434012D01*
X903882Y434030D01*
X903801Y434143D01*
X903723Y434258D01*
X903707Y434271D01*
X903696Y434288D01*
X903588Y434377D01*
X903484Y434468D01*
X903466Y434478D01*
X903451Y434491D01*
X903325Y434550D01*
X903201Y434613D01*
X903181Y434618D01*
X903163Y434626D01*
X903027Y434652D01*
X902891Y434683D01*
X902870Y434682D01*
X902851Y434686D01*
X902712Y434677D01*
X902573Y434673D01*
X902553Y434667D01*
X902533Y434666D01*
X902401Y434623D01*
X902267Y434585D01*
X902250Y434574D01*
X902231Y434568D01*
X902113Y434494D01*
X901993Y434423D01*
X901972Y434405D01*
X901962Y434398D01*
X901948Y434383D01*
X901873Y434317D01*
X897975Y430420D01*
X891698Y427819D01*
X860902Y427819D01*
X854625Y430420D01*
X849820Y435225D01*
X847219Y441502D01*
X847219Y448298D01*
X849820Y454575D01*
X854625Y459380D01*
X860902Y461981D01*
X891698Y461981D01*
X897975Y459380D01*
X901873Y455483D01*
X901982Y455398D01*
X902089Y455309D01*
X902108Y455301D01*
X902124Y455288D01*
X902252Y455233D01*
X902377Y455174D01*
X902397Y455170D01*
X902416Y455162D01*
X902554Y455140D01*
X902690Y455114D01*
X902710Y455115D01*
X902730Y455112D01*
X902869Y455125D01*
X903007Y455134D01*
X903026Y455140D01*
X903046Y455142D01*
X903178Y455189D01*
X903309Y455232D01*
X903327Y455243D01*
X903346Y455250D01*
X903461Y455328D01*
X903578Y455402D01*
X903592Y455417D01*
X903609Y455428D01*
X903701Y455532D01*
X903796Y455634D01*
X903806Y455651D01*
X903819Y455667D01*
X903883Y455791D01*
X903950Y455912D01*
X903955Y455932D01*
X903964Y455950D01*
X903994Y456086D01*
X904029Y456220D01*
X904031Y456248D01*
X904034Y456260D01*
X904033Y456280D01*
X904039Y456381D01*
X904039Y483419D01*
X904022Y483557D01*
X904009Y483696D01*
X904002Y483715D01*
X903999Y483735D01*
X903948Y483864D01*
X903901Y483995D01*
X903890Y484012D01*
X903882Y484030D01*
X903801Y484143D01*
X903723Y484258D01*
X903707Y484271D01*
X903696Y484288D01*
X903588Y484377D01*
X903484Y484468D01*
X903466Y484478D01*
X903451Y484491D01*
X903325Y484550D01*
X903201Y484613D01*
X903181Y484618D01*
X903163Y484626D01*
X903027Y484652D01*
X902891Y484683D01*
X902870Y484682D01*
X902851Y484686D01*
X902712Y484677D01*
X902573Y484673D01*
X902553Y484667D01*
X902533Y484666D01*
X902401Y484623D01*
X902267Y484585D01*
X902250Y484574D01*
X902231Y484568D01*
X902113Y484494D01*
X901993Y484423D01*
X901972Y484405D01*
X901962Y484398D01*
X901948Y484383D01*
X901873Y484317D01*
X897975Y480420D01*
X891698Y477819D01*
X860902Y477819D01*
X854625Y480420D01*
X849820Y485225D01*
X847219Y491502D01*
X847219Y498298D01*
X849820Y504575D01*
X854625Y509380D01*
X860902Y511981D01*
X891698Y511981D01*
X897975Y509380D01*
X901873Y505483D01*
X901982Y505398D01*
X902089Y505309D01*
X902108Y505301D01*
X902124Y505288D01*
X902252Y505233D01*
X902377Y505174D01*
X902397Y505170D01*
X902416Y505162D01*
X902554Y505140D01*
X902690Y505114D01*
X902710Y505115D01*
X902730Y505112D01*
X902869Y505125D01*
X903007Y505134D01*
X903026Y505140D01*
X903046Y505142D01*
X903178Y505189D01*
X903309Y505232D01*
X903327Y505243D01*
X903346Y505250D01*
X903461Y505328D01*
X903578Y505402D01*
X903592Y505417D01*
X903609Y505428D01*
X903701Y505532D01*
X903796Y505634D01*
X903806Y505651D01*
X903819Y505667D01*
X903883Y505791D01*
X903950Y505912D01*
X903955Y505932D01*
X903964Y505950D01*
X903994Y506086D01*
X904029Y506220D01*
X904031Y506248D01*
X904034Y506260D01*
X904033Y506281D01*
X904039Y506381D01*
X904039Y563083D01*
X904027Y563181D01*
X904024Y563280D01*
X904007Y563339D01*
X903999Y563399D01*
X903963Y563491D01*
X903935Y563586D01*
X903905Y563638D01*
X903882Y563694D01*
X903824Y563774D01*
X903774Y563860D01*
X903708Y563935D01*
X903696Y563952D01*
X903686Y563960D01*
X903668Y563981D01*
X845721Y621928D01*
X845642Y621988D01*
X845570Y622056D01*
X845517Y622085D01*
X845469Y622122D01*
X845378Y622162D01*
X845292Y622210D01*
X845233Y622225D01*
X845178Y622249D01*
X845080Y622264D01*
X844984Y622289D01*
X844884Y622295D01*
X844863Y622299D01*
X844851Y622297D01*
X844823Y622299D01*
X662961Y622299D01*
X655959Y625200D01*
X651472Y629686D01*
X651378Y629759D01*
X651289Y629838D01*
X651253Y629856D01*
X651221Y629881D01*
X651112Y629928D01*
X651006Y629982D01*
X650966Y629991D01*
X650929Y630007D01*
X650811Y630026D01*
X650695Y630052D01*
X650655Y630051D01*
X650615Y630057D01*
X650496Y630046D01*
X650377Y630042D01*
X650339Y630031D01*
X650298Y630027D01*
X650186Y629987D01*
X650072Y629954D01*
X650037Y629933D01*
X649999Y629920D01*
X649901Y629853D01*
X649798Y629792D01*
X649753Y629753D01*
X649736Y629741D01*
X649722Y629726D01*
X649677Y629686D01*
X649357Y629366D01*
X644162Y627214D01*
X638538Y627214D01*
X636756Y627953D01*
X636708Y627966D01*
X636663Y627987D01*
X636555Y628007D01*
X636449Y628036D01*
X636399Y628037D01*
X636350Y628047D01*
X636241Y628040D01*
X636131Y628042D01*
X636083Y628030D01*
X636033Y628027D01*
X635929Y627993D01*
X635822Y627967D01*
X635778Y627944D01*
X635731Y627929D01*
X635638Y627870D01*
X635541Y627819D01*
X635504Y627785D01*
X635462Y627759D01*
X635387Y627679D01*
X635305Y627605D01*
X635278Y627563D01*
X635244Y627527D01*
X635191Y627431D01*
X635131Y627339D01*
X635114Y627292D01*
X635090Y627249D01*
X635063Y627142D01*
X635027Y627038D01*
X635023Y626989D01*
X635011Y626941D01*
X635001Y626780D01*
X635001Y579120D01*
X635016Y579002D01*
X635023Y578883D01*
X635036Y578845D01*
X635041Y578804D01*
X635084Y578694D01*
X635121Y578581D01*
X635143Y578546D01*
X635158Y578509D01*
X635227Y578413D01*
X635291Y578312D01*
X635321Y578284D01*
X635344Y578251D01*
X635436Y578175D01*
X635523Y578094D01*
X635558Y578074D01*
X635589Y578049D01*
X635697Y577998D01*
X635801Y577940D01*
X635841Y577930D01*
X635877Y577913D01*
X635994Y577891D01*
X636109Y577861D01*
X636169Y577857D01*
X636189Y577853D01*
X636210Y577855D01*
X636270Y577851D01*
X715777Y577851D01*
X715807Y577854D01*
X715837Y577852D01*
X715997Y577870D01*
X717983Y578219D01*
X719505Y577881D01*
X719563Y577876D01*
X719619Y577861D01*
X719780Y577851D01*
X721339Y577851D01*
X723202Y577079D01*
X723231Y577071D01*
X723258Y577058D01*
X723413Y577013D01*
X725381Y576575D01*
X726658Y575680D01*
X726710Y575653D01*
X726756Y575618D01*
X726901Y575547D01*
X728341Y574950D01*
X729767Y573525D01*
X729791Y573506D01*
X729810Y573483D01*
X729936Y573383D01*
X731587Y572225D01*
X732425Y570910D01*
X732462Y570865D01*
X732491Y570815D01*
X732598Y570694D01*
X733700Y569591D01*
X734472Y567728D01*
X734487Y567702D01*
X734496Y567674D01*
X734574Y567533D01*
X735657Y565832D01*
X735927Y564296D01*
X735944Y564240D01*
X735952Y564182D01*
X736004Y564030D01*
X736601Y562589D01*
X736601Y560573D01*
X736604Y560543D01*
X736602Y560513D01*
X736620Y560353D01*
X743669Y520267D01*
X742025Y512869D01*
X737675Y506663D01*
X735466Y505257D01*
X735360Y505169D01*
X735251Y505084D01*
X735238Y505067D01*
X735222Y505054D01*
X735141Y504942D01*
X735056Y504833D01*
X735047Y504813D01*
X735035Y504796D01*
X734984Y504667D01*
X734929Y504541D01*
X734926Y504520D01*
X734918Y504501D01*
X734901Y504363D01*
X734879Y504227D01*
X734881Y504206D01*
X734879Y504185D01*
X734896Y504048D01*
X734909Y503910D01*
X734916Y503890D01*
X734919Y503869D01*
X734970Y503741D01*
X735016Y503611D01*
X735028Y503593D01*
X735036Y503574D01*
X735117Y503462D01*
X735195Y503348D01*
X735211Y503334D01*
X735223Y503317D01*
X735330Y503229D01*
X735433Y503137D01*
X735459Y503122D01*
X735468Y503114D01*
X735487Y503105D01*
X735535Y503077D01*
X736706Y502226D01*
X737716Y501216D01*
X738557Y500059D01*
X739205Y498786D01*
X739647Y497426D01*
X739667Y497299D01*
X724980Y497299D01*
X724862Y497284D01*
X724743Y497277D01*
X724705Y497264D01*
X724665Y497259D01*
X724554Y497216D01*
X724441Y497179D01*
X724407Y497157D01*
X724369Y497142D01*
X724273Y497073D01*
X724256Y497062D01*
X724232Y497076D01*
X724200Y497101D01*
X724093Y497152D01*
X723988Y497210D01*
X723949Y497220D01*
X723913Y497237D01*
X723796Y497259D01*
X723680Y497289D01*
X723620Y497293D01*
X723600Y497297D01*
X723580Y497295D01*
X723520Y497299D01*
X708833Y497299D01*
X708853Y497426D01*
X709295Y498786D01*
X709943Y500059D01*
X710784Y501216D01*
X711794Y502226D01*
X712951Y503067D01*
X712960Y503072D01*
X713052Y503134D01*
X713147Y503188D01*
X713183Y503222D01*
X713224Y503250D01*
X713296Y503333D01*
X713375Y503410D01*
X713401Y503452D01*
X713434Y503489D01*
X713484Y503587D01*
X713541Y503681D01*
X713556Y503728D01*
X713578Y503772D01*
X713602Y503880D01*
X713635Y503985D01*
X713637Y504034D01*
X713648Y504082D01*
X713644Y504193D01*
X713650Y504302D01*
X713640Y504351D01*
X713638Y504400D01*
X713607Y504506D01*
X713585Y504614D01*
X713563Y504658D01*
X713549Y504706D01*
X713493Y504801D01*
X713445Y504899D01*
X713413Y504937D01*
X713388Y504980D01*
X713310Y505058D01*
X713238Y505141D01*
X713179Y505189D01*
X713163Y505205D01*
X713148Y505214D01*
X713113Y505242D01*
X710213Y507275D01*
X706143Y513668D01*
X703926Y526277D01*
X703918Y526304D01*
X703915Y526333D01*
X703871Y526456D01*
X703832Y526581D01*
X703817Y526605D01*
X703807Y526633D01*
X703734Y526740D01*
X703666Y526852D01*
X703645Y526872D01*
X703629Y526896D01*
X703531Y526982D01*
X703437Y527073D01*
X703412Y527087D01*
X703390Y527106D01*
X703274Y527165D01*
X703161Y527230D01*
X703133Y527238D01*
X703107Y527251D01*
X702980Y527279D01*
X702854Y527314D01*
X702825Y527314D01*
X702797Y527320D01*
X702666Y527317D01*
X702536Y527318D01*
X702508Y527312D01*
X702479Y527311D01*
X702354Y527275D01*
X702227Y527244D01*
X702201Y527230D01*
X702173Y527222D01*
X702061Y527156D01*
X701946Y527095D01*
X701925Y527076D01*
X701900Y527061D01*
X701779Y526954D01*
X698373Y523548D01*
X694327Y521873D01*
X694206Y521804D01*
X694083Y521739D01*
X694068Y521725D01*
X694051Y521715D01*
X693951Y521618D01*
X693848Y521525D01*
X693837Y521508D01*
X693822Y521494D01*
X693749Y521375D01*
X693673Y521259D01*
X693667Y521240D01*
X693656Y521223D01*
X693615Y521090D01*
X693570Y520958D01*
X693568Y520938D01*
X693562Y520919D01*
X693556Y520780D01*
X693545Y520641D01*
X693548Y520621D01*
X693547Y520601D01*
X693575Y520465D01*
X693599Y520328D01*
X693607Y520309D01*
X693612Y520290D01*
X693673Y520164D01*
X693730Y520038D01*
X693742Y520022D01*
X693751Y520004D01*
X693842Y519898D01*
X693928Y519790D01*
X693944Y519777D01*
X693958Y519762D01*
X694071Y519682D01*
X694182Y519598D01*
X694208Y519586D01*
X694218Y519579D01*
X694237Y519572D01*
X694327Y519527D01*
X698373Y517852D01*
X701642Y514583D01*
X703411Y510312D01*
X703411Y505688D01*
X701642Y501417D01*
X698373Y498148D01*
X694327Y496473D01*
X694206Y496404D01*
X694083Y496339D01*
X694068Y496325D01*
X694051Y496315D01*
X693951Y496218D01*
X693848Y496125D01*
X693837Y496108D01*
X693822Y496094D01*
X693749Y495975D01*
X693673Y495859D01*
X693667Y495840D01*
X693656Y495823D01*
X693615Y495690D01*
X693570Y495558D01*
X693568Y495538D01*
X693562Y495519D01*
X693556Y495380D01*
X693545Y495241D01*
X693548Y495221D01*
X693547Y495201D01*
X693575Y495065D01*
X693599Y494928D01*
X693607Y494909D01*
X693612Y494890D01*
X693673Y494764D01*
X693730Y494638D01*
X693742Y494622D01*
X693751Y494604D01*
X693842Y494498D01*
X693928Y494390D01*
X693944Y494377D01*
X693958Y494362D01*
X694071Y494282D01*
X694182Y494198D01*
X694208Y494186D01*
X694218Y494179D01*
X694237Y494172D01*
X694327Y494127D01*
X698373Y492452D01*
X701642Y489183D01*
X703411Y484912D01*
X703411Y480288D01*
X701642Y476017D01*
X698373Y472748D01*
X694327Y471073D01*
X694206Y471004D01*
X694083Y470939D01*
X694068Y470925D01*
X694051Y470915D01*
X693951Y470818D01*
X693848Y470725D01*
X693837Y470708D01*
X693822Y470694D01*
X693749Y470575D01*
X693673Y470459D01*
X693667Y470440D01*
X693656Y470423D01*
X693615Y470290D01*
X693570Y470158D01*
X693568Y470138D01*
X693562Y470119D01*
X693556Y469980D01*
X693545Y469841D01*
X693548Y469821D01*
X693547Y469801D01*
X693575Y469665D01*
X693599Y469528D01*
X693607Y469509D01*
X693612Y469490D01*
X693673Y469364D01*
X693730Y469238D01*
X693742Y469222D01*
X693751Y469204D01*
X693842Y469098D01*
X693928Y468990D01*
X693944Y468977D01*
X693958Y468962D01*
X694071Y468882D01*
X694182Y468798D01*
X694208Y468786D01*
X694218Y468779D01*
X694237Y468772D01*
X694327Y468727D01*
X698373Y467052D01*
X701642Y463783D01*
X703411Y459512D01*
X703411Y459246D01*
X703428Y459109D01*
X703441Y458970D01*
X703448Y458951D01*
X703451Y458931D01*
X703502Y458802D01*
X703549Y458671D01*
X703560Y458654D01*
X703568Y458635D01*
X703649Y458523D01*
X703727Y458408D01*
X703743Y458394D01*
X703754Y458378D01*
X703862Y458289D01*
X703966Y458197D01*
X703984Y458188D01*
X703999Y458175D01*
X704125Y458116D01*
X704249Y458053D01*
X704269Y458048D01*
X704287Y458039D01*
X704423Y458013D01*
X704559Y457983D01*
X704580Y457983D01*
X704599Y457980D01*
X704738Y457988D01*
X704877Y457993D01*
X704897Y457998D01*
X704917Y457999D01*
X705049Y458042D01*
X705183Y458081D01*
X705200Y458091D01*
X705219Y458097D01*
X705337Y458172D01*
X705457Y458242D01*
X705478Y458261D01*
X705488Y458268D01*
X705502Y458283D01*
X705577Y458349D01*
X708305Y461076D01*
X708378Y461170D01*
X708456Y461259D01*
X708475Y461295D01*
X708500Y461327D01*
X708547Y461437D01*
X708601Y461543D01*
X708610Y461582D01*
X708626Y461619D01*
X708645Y461737D01*
X708671Y461853D01*
X708669Y461893D01*
X708676Y461933D01*
X708665Y462052D01*
X708661Y462171D01*
X708650Y462210D01*
X708646Y462250D01*
X708606Y462362D01*
X708573Y462476D01*
X708552Y462511D01*
X708538Y462549D01*
X708472Y462648D01*
X708411Y462750D01*
X708371Y462796D01*
X708360Y462812D01*
X708345Y462826D01*
X708305Y462871D01*
X707858Y463317D01*
X706089Y467588D01*
X706089Y472212D01*
X707858Y476483D01*
X711127Y479752D01*
X715398Y481521D01*
X733102Y481521D01*
X737373Y479752D01*
X740642Y476483D01*
X742411Y472212D01*
X742411Y467588D01*
X740642Y463317D01*
X737373Y460048D01*
X733102Y458279D01*
X732976Y458279D01*
X732878Y458267D01*
X732779Y458264D01*
X732721Y458247D01*
X732661Y458239D01*
X732569Y458203D01*
X732474Y458175D01*
X732422Y458145D01*
X732365Y458122D01*
X732285Y458064D01*
X732200Y458014D01*
X732124Y457948D01*
X732108Y457936D01*
X732100Y457926D01*
X732079Y457908D01*
X704246Y430074D01*
X700745Y428624D01*
X629820Y428624D01*
X626319Y430074D01*
X591332Y465062D01*
X591238Y465135D01*
X591148Y465214D01*
X591112Y465232D01*
X591080Y465257D01*
X590971Y465304D01*
X590865Y465358D01*
X590826Y465367D01*
X590789Y465383D01*
X590671Y465402D01*
X590555Y465428D01*
X590515Y465427D01*
X590474Y465433D01*
X590356Y465422D01*
X590237Y465418D01*
X590198Y465407D01*
X590158Y465403D01*
X590046Y465363D01*
X589931Y465330D01*
X589897Y465309D01*
X589859Y465296D01*
X589760Y465229D01*
X589658Y465168D01*
X589612Y465129D01*
X589595Y465117D01*
X589582Y465102D01*
X589537Y465062D01*
X582690Y458215D01*
X573010Y458215D01*
X566165Y465060D01*
X566165Y474740D01*
X573012Y481587D01*
X573085Y481681D01*
X573164Y481770D01*
X573182Y481806D01*
X573207Y481838D01*
X573254Y481947D01*
X573308Y482053D01*
X573317Y482093D01*
X573333Y482130D01*
X573352Y482248D01*
X573378Y482364D01*
X573377Y482404D01*
X573383Y482444D01*
X573372Y482563D01*
X573368Y482681D01*
X573357Y482720D01*
X573353Y482761D01*
X573313Y482873D01*
X573280Y482987D01*
X573259Y483022D01*
X573246Y483060D01*
X573179Y483158D01*
X573118Y483261D01*
X573079Y483306D01*
X573067Y483323D01*
X573052Y483336D01*
X573012Y483382D01*
X482091Y574303D01*
X482013Y574363D01*
X481941Y574431D01*
X481888Y574460D01*
X481840Y574497D01*
X481749Y574537D01*
X481662Y574585D01*
X481604Y574600D01*
X481548Y574624D01*
X481450Y574639D01*
X481354Y574664D01*
X481254Y574670D01*
X481234Y574674D01*
X481222Y574672D01*
X481194Y574674D01*
X328305Y574674D01*
X324804Y576124D01*
X280814Y620115D01*
X280775Y620145D01*
X280741Y620182D01*
X280649Y620242D01*
X280563Y620310D01*
X280517Y620329D01*
X280475Y620357D01*
X280372Y620392D01*
X280271Y620436D01*
X280222Y620444D01*
X280175Y620460D01*
X280065Y620469D01*
X279957Y620486D01*
X279907Y620481D01*
X279858Y620485D01*
X279749Y620466D01*
X279640Y620456D01*
X279593Y620439D01*
X279544Y620431D01*
X279444Y620386D01*
X279341Y620349D01*
X279300Y620321D01*
X279254Y620300D01*
X279169Y620232D01*
X279078Y620170D01*
X279045Y620133D01*
X279006Y620102D01*
X278940Y620014D01*
X278867Y619931D01*
X278844Y619887D01*
X278815Y619848D01*
X278744Y619703D01*
X276975Y615434D01*
X273566Y612025D01*
X270543Y610773D01*
X270423Y610704D01*
X270300Y610639D01*
X270285Y610625D01*
X270267Y610615D01*
X270167Y610518D01*
X270064Y610425D01*
X270053Y610408D01*
X270039Y610394D01*
X269966Y610276D01*
X269890Y610159D01*
X269883Y610140D01*
X269873Y610123D01*
X269832Y609990D01*
X269787Y609858D01*
X269785Y609838D01*
X269779Y609819D01*
X269772Y609680D01*
X269761Y609541D01*
X269765Y609521D01*
X269764Y609501D01*
X269792Y609365D01*
X269816Y609228D01*
X269824Y609210D01*
X269828Y609190D01*
X269889Y609064D01*
X269946Y608938D01*
X269959Y608922D01*
X269968Y608904D01*
X270059Y608798D01*
X270145Y608690D01*
X270161Y608677D01*
X270174Y608662D01*
X270288Y608582D01*
X270399Y608498D01*
X270424Y608486D01*
X270434Y608479D01*
X270453Y608472D01*
X270543Y608427D01*
X273566Y607175D01*
X276975Y603766D01*
X278821Y599311D01*
X278821Y594489D01*
X276975Y590034D01*
X273566Y586625D01*
X271301Y585687D01*
X271181Y585618D01*
X271058Y585553D01*
X271043Y585539D01*
X271025Y585529D01*
X270925Y585432D01*
X270822Y585339D01*
X270811Y585322D01*
X270797Y585308D01*
X270724Y585189D01*
X270648Y585073D01*
X270641Y585054D01*
X270630Y585037D01*
X270590Y584904D01*
X270544Y584772D01*
X270543Y584752D01*
X270537Y584733D01*
X270530Y584594D01*
X270519Y584455D01*
X270523Y584435D01*
X270522Y584415D01*
X270550Y584279D01*
X270573Y584142D01*
X270582Y584123D01*
X270586Y584104D01*
X270647Y583978D01*
X270704Y583852D01*
X270717Y583836D01*
X270726Y583818D01*
X270816Y583712D01*
X270903Y583603D01*
X270919Y583591D01*
X270932Y583576D01*
X271046Y583496D01*
X271157Y583412D01*
X271182Y583400D01*
X271192Y583393D01*
X271211Y583385D01*
X271301Y583341D01*
X273894Y582267D01*
X277467Y578694D01*
X279401Y574026D01*
X279401Y568974D01*
X277467Y564306D01*
X273894Y560733D01*
X271301Y559659D01*
X271181Y559590D01*
X271058Y559525D01*
X271043Y559511D01*
X271025Y559501D01*
X270925Y559404D01*
X270822Y559311D01*
X270811Y559294D01*
X270797Y559280D01*
X270724Y559161D01*
X270648Y559045D01*
X270641Y559026D01*
X270630Y559009D01*
X270590Y558876D01*
X270544Y558744D01*
X270543Y558724D01*
X270537Y558705D01*
X270530Y558566D01*
X270519Y558427D01*
X270523Y558407D01*
X270522Y558387D01*
X270550Y558251D01*
X270573Y558114D01*
X270582Y558096D01*
X270586Y558076D01*
X270647Y557950D01*
X270704Y557824D01*
X270717Y557808D01*
X270726Y557790D01*
X270816Y557684D01*
X270903Y557576D01*
X270919Y557563D01*
X270932Y557548D01*
X271040Y557472D01*
X271063Y557451D01*
X271086Y557438D01*
X271157Y557384D01*
X271182Y557372D01*
X271192Y557365D01*
X271211Y557358D01*
X271301Y557313D01*
X273566Y556375D01*
X276975Y552966D01*
X278821Y548511D01*
X278821Y543689D01*
X276975Y539234D01*
X273566Y535825D01*
X270543Y534573D01*
X270423Y534504D01*
X270300Y534439D01*
X270285Y534425D01*
X270267Y534415D01*
X270167Y534318D01*
X270064Y534225D01*
X270053Y534208D01*
X270039Y534194D01*
X269966Y534076D01*
X269890Y533959D01*
X269883Y533940D01*
X269873Y533923D01*
X269832Y533790D01*
X269787Y533658D01*
X269785Y533638D01*
X269779Y533619D01*
X269772Y533480D01*
X269761Y533341D01*
X269765Y533321D01*
X269764Y533301D01*
X269792Y533165D01*
X269816Y533028D01*
X269824Y533010D01*
X269828Y532990D01*
X269889Y532864D01*
X269946Y532738D01*
X269959Y532722D01*
X269968Y532704D01*
X270059Y532598D01*
X270145Y532490D01*
X270161Y532477D01*
X270174Y532462D01*
X270288Y532382D01*
X270399Y532298D01*
X270424Y532286D01*
X270434Y532279D01*
X270453Y532272D01*
X270543Y532227D01*
X273566Y530975D01*
X276975Y527566D01*
X278821Y523111D01*
X278821Y518289D01*
X276975Y513834D01*
X273566Y510425D01*
X270543Y509173D01*
X270423Y509104D01*
X270300Y509039D01*
X270285Y509025D01*
X270267Y509015D01*
X270167Y508918D01*
X270064Y508825D01*
X270053Y508808D01*
X270039Y508794D01*
X269966Y508676D01*
X269890Y508559D01*
X269883Y508540D01*
X269873Y508523D01*
X269832Y508390D01*
X269787Y508258D01*
X269785Y508238D01*
X269779Y508219D01*
X269772Y508080D01*
X269761Y507941D01*
X269765Y507921D01*
X269764Y507901D01*
X269792Y507765D01*
X269816Y507628D01*
X269824Y507610D01*
X269828Y507590D01*
X269889Y507464D01*
X269946Y507338D01*
X269959Y507322D01*
X269968Y507304D01*
X270059Y507198D01*
X270145Y507090D01*
X270161Y507077D01*
X270174Y507062D01*
X270288Y506982D01*
X270399Y506898D01*
X270424Y506886D01*
X270434Y506879D01*
X270453Y506872D01*
X270543Y506827D01*
X273566Y505575D01*
X276975Y502166D01*
X278821Y497711D01*
X278821Y492889D01*
X276975Y488434D01*
X273566Y485025D01*
X270543Y483773D01*
X270423Y483704D01*
X270300Y483639D01*
X270285Y483625D01*
X270267Y483615D01*
X270167Y483518D01*
X270064Y483425D01*
X270053Y483408D01*
X270039Y483394D01*
X269966Y483276D01*
X269890Y483159D01*
X269883Y483140D01*
X269873Y483123D01*
X269832Y482990D01*
X269787Y482858D01*
X269785Y482838D01*
X269779Y482819D01*
X269772Y482680D01*
X269761Y482541D01*
X269765Y482521D01*
X269764Y482501D01*
X269792Y482365D01*
X269816Y482228D01*
X269824Y482210D01*
X269828Y482190D01*
X269889Y482064D01*
X269946Y481938D01*
X269959Y481922D01*
X269968Y481904D01*
X270059Y481798D01*
X270145Y481690D01*
X270161Y481677D01*
X270174Y481662D01*
X270288Y481582D01*
X270399Y481498D01*
X270424Y481486D01*
X270434Y481479D01*
X270453Y481472D01*
X270543Y481427D01*
X273566Y480175D01*
X276975Y476766D01*
X278821Y472311D01*
X278821Y467489D01*
X276975Y463034D01*
X273566Y459625D01*
X270543Y458373D01*
X270423Y458304D01*
X270300Y458239D01*
X270285Y458225D01*
X270267Y458215D01*
X270167Y458118D01*
X270064Y458025D01*
X270053Y458008D01*
X270039Y457994D01*
X269966Y457876D01*
X269890Y457759D01*
X269883Y457740D01*
X269873Y457723D01*
X269832Y457590D01*
X269787Y457458D01*
X269785Y457438D01*
X269779Y457419D01*
X269772Y457280D01*
X269761Y457141D01*
X269765Y457121D01*
X269764Y457101D01*
X269792Y456965D01*
X269816Y456828D01*
X269824Y456810D01*
X269828Y456790D01*
X269889Y456664D01*
X269946Y456538D01*
X269959Y456522D01*
X269968Y456504D01*
X270059Y456398D01*
X270145Y456290D01*
X270161Y456277D01*
X270174Y456262D01*
X270288Y456182D01*
X270399Y456098D01*
X270424Y456086D01*
X270434Y456079D01*
X270453Y456072D01*
X270543Y456027D01*
X273566Y454775D01*
X276975Y451366D01*
X278821Y446911D01*
X278821Y442089D01*
X276975Y437634D01*
X273566Y434225D01*
X270543Y432973D01*
X270423Y432904D01*
X270300Y432839D01*
X270285Y432825D01*
X270267Y432815D01*
X270167Y432718D01*
X270064Y432625D01*
X270053Y432608D01*
X270039Y432594D01*
X269966Y432476D01*
X269890Y432359D01*
X269883Y432340D01*
X269873Y432323D01*
X269832Y432190D01*
X269787Y432058D01*
X269785Y432038D01*
X269779Y432019D01*
X269772Y431880D01*
X269761Y431741D01*
X269765Y431721D01*
X269764Y431701D01*
X269792Y431565D01*
X269816Y431428D01*
X269824Y431410D01*
X269828Y431390D01*
X269889Y431264D01*
X269946Y431138D01*
X269959Y431122D01*
X269968Y431104D01*
X270059Y430998D01*
X270145Y430890D01*
X270161Y430877D01*
X270174Y430862D01*
X270288Y430782D01*
X270399Y430698D01*
X270424Y430686D01*
X270434Y430679D01*
X270453Y430672D01*
X270543Y430627D01*
X273566Y429375D01*
X276975Y425966D01*
X278821Y421511D01*
X278821Y416689D01*
X276975Y412234D01*
X273566Y408825D01*
X270543Y407573D01*
X270423Y407504D01*
X270300Y407439D01*
X270285Y407425D01*
X270267Y407415D01*
X270167Y407318D01*
X270064Y407225D01*
X270053Y407208D01*
X270039Y407194D01*
X269966Y407076D01*
X269890Y406959D01*
X269883Y406940D01*
X269873Y406923D01*
X269832Y406790D01*
X269787Y406658D01*
X269785Y406638D01*
X269779Y406619D01*
X269772Y406480D01*
X269761Y406341D01*
X269765Y406321D01*
X269764Y406301D01*
X269792Y406165D01*
X269816Y406028D01*
X269824Y406010D01*
X269828Y405990D01*
X269889Y405864D01*
X269946Y405738D01*
X269959Y405722D01*
X269968Y405704D01*
X270059Y405598D01*
X270145Y405490D01*
X270161Y405477D01*
X270174Y405462D01*
X270288Y405382D01*
X270399Y405298D01*
X270424Y405286D01*
X270434Y405279D01*
X270453Y405272D01*
X270543Y405227D01*
X273566Y403975D01*
X276975Y400566D01*
X278821Y396111D01*
X278821Y391289D01*
X276975Y386834D01*
X273566Y383425D01*
X269111Y381579D01*
X264289Y381579D01*
X259834Y383425D01*
X256425Y386834D01*
X254579Y391289D01*
X254579Y396111D01*
X256425Y400566D01*
X259834Y403975D01*
X262857Y405227D01*
X262977Y405296D01*
X263100Y405361D01*
X263115Y405375D01*
X263133Y405385D01*
X263233Y405482D01*
X263336Y405575D01*
X263347Y405592D01*
X263361Y405606D01*
X263434Y405725D01*
X263510Y405841D01*
X263517Y405860D01*
X263527Y405877D01*
X263568Y406010D01*
X263613Y406142D01*
X263615Y406162D01*
X263621Y406181D01*
X263628Y406320D01*
X263639Y406459D01*
X263635Y406479D01*
X263636Y406499D01*
X263608Y406635D01*
X263584Y406772D01*
X263576Y406791D01*
X263572Y406810D01*
X263511Y406936D01*
X263454Y407062D01*
X263441Y407078D01*
X263432Y407096D01*
X263342Y407202D01*
X263255Y407310D01*
X263239Y407323D01*
X263226Y407338D01*
X263112Y407418D01*
X263001Y407502D01*
X262976Y407514D01*
X262966Y407521D01*
X262947Y407528D01*
X262857Y407573D01*
X259834Y408825D01*
X256425Y412234D01*
X254579Y416689D01*
X254579Y421511D01*
X256425Y425966D01*
X259834Y429375D01*
X262857Y430627D01*
X262977Y430696D01*
X263100Y430761D01*
X263115Y430775D01*
X263133Y430785D01*
X263233Y430882D01*
X263336Y430975D01*
X263347Y430992D01*
X263361Y431006D01*
X263434Y431125D01*
X263510Y431241D01*
X263517Y431260D01*
X263527Y431277D01*
X263568Y431410D01*
X263613Y431542D01*
X263615Y431562D01*
X263621Y431581D01*
X263628Y431720D01*
X263639Y431859D01*
X263635Y431879D01*
X263636Y431899D01*
X263608Y432035D01*
X263584Y432172D01*
X263576Y432191D01*
X263572Y432210D01*
X263511Y432336D01*
X263454Y432462D01*
X263441Y432478D01*
X263432Y432496D01*
X263342Y432602D01*
X263255Y432710D01*
X263239Y432723D01*
X263226Y432738D01*
X263112Y432818D01*
X263001Y432902D01*
X262976Y432914D01*
X262966Y432921D01*
X262947Y432928D01*
X262857Y432973D01*
X259834Y434225D01*
X256425Y437634D01*
X254579Y442089D01*
X254579Y446911D01*
X256425Y451366D01*
X259834Y454775D01*
X262857Y456027D01*
X262977Y456096D01*
X263100Y456161D01*
X263115Y456175D01*
X263133Y456185D01*
X263233Y456282D01*
X263336Y456375D01*
X263347Y456392D01*
X263361Y456406D01*
X263434Y456525D01*
X263510Y456641D01*
X263517Y456660D01*
X263527Y456677D01*
X263568Y456810D01*
X263613Y456942D01*
X263615Y456962D01*
X263621Y456981D01*
X263628Y457120D01*
X263639Y457259D01*
X263635Y457279D01*
X263636Y457299D01*
X263608Y457435D01*
X263584Y457572D01*
X263576Y457591D01*
X263572Y457610D01*
X263511Y457736D01*
X263454Y457862D01*
X263441Y457878D01*
X263432Y457896D01*
X263342Y458002D01*
X263255Y458110D01*
X263239Y458123D01*
X263226Y458138D01*
X263112Y458218D01*
X263001Y458302D01*
X262976Y458314D01*
X262966Y458321D01*
X262947Y458328D01*
X262857Y458373D01*
X259834Y459625D01*
X256425Y463034D01*
X254579Y467489D01*
X254579Y472311D01*
X256425Y476766D01*
X259834Y480175D01*
X262857Y481427D01*
X262977Y481496D01*
X263100Y481561D01*
X263115Y481575D01*
X263133Y481585D01*
X263233Y481682D01*
X263336Y481775D01*
X263347Y481792D01*
X263361Y481806D01*
X263434Y481925D01*
X263510Y482041D01*
X263517Y482060D01*
X263527Y482077D01*
X263568Y482210D01*
X263613Y482342D01*
X263615Y482362D01*
X263621Y482381D01*
X263628Y482520D01*
X263639Y482659D01*
X263635Y482679D01*
X263636Y482699D01*
X263608Y482835D01*
X263584Y482972D01*
X263576Y482991D01*
X263572Y483010D01*
X263511Y483136D01*
X263454Y483262D01*
X263441Y483278D01*
X263432Y483296D01*
X263342Y483402D01*
X263255Y483510D01*
X263239Y483523D01*
X263226Y483538D01*
X263112Y483618D01*
X263001Y483702D01*
X262976Y483714D01*
X262966Y483721D01*
X262947Y483728D01*
X262857Y483773D01*
X259834Y485025D01*
X256425Y488434D01*
X254579Y492889D01*
X254579Y497711D01*
X256425Y502166D01*
X259834Y505575D01*
X262857Y506827D01*
X262977Y506896D01*
X263100Y506961D01*
X263115Y506975D01*
X263133Y506985D01*
X263233Y507082D01*
X263336Y507175D01*
X263347Y507192D01*
X263361Y507206D01*
X263434Y507325D01*
X263510Y507441D01*
X263517Y507460D01*
X263527Y507477D01*
X263568Y507610D01*
X263613Y507742D01*
X263615Y507762D01*
X263621Y507781D01*
X263628Y507920D01*
X263639Y508059D01*
X263635Y508079D01*
X263636Y508099D01*
X263608Y508235D01*
X263584Y508372D01*
X263576Y508391D01*
X263572Y508410D01*
X263511Y508536D01*
X263454Y508662D01*
X263441Y508678D01*
X263432Y508696D01*
X263342Y508802D01*
X263255Y508910D01*
X263239Y508923D01*
X263226Y508938D01*
X263112Y509018D01*
X263001Y509102D01*
X262976Y509114D01*
X262966Y509121D01*
X262947Y509128D01*
X262857Y509173D01*
X259834Y510425D01*
X256425Y513834D01*
X254579Y518289D01*
X254579Y523111D01*
X256425Y527566D01*
X259834Y530975D01*
X262857Y532227D01*
X262977Y532296D01*
X263100Y532361D01*
X263115Y532375D01*
X263133Y532385D01*
X263233Y532482D01*
X263336Y532575D01*
X263347Y532592D01*
X263361Y532606D01*
X263434Y532725D01*
X263510Y532841D01*
X263517Y532860D01*
X263527Y532877D01*
X263568Y533010D01*
X263613Y533142D01*
X263615Y533162D01*
X263621Y533181D01*
X263628Y533320D01*
X263639Y533459D01*
X263635Y533479D01*
X263636Y533499D01*
X263608Y533635D01*
X263584Y533772D01*
X263576Y533791D01*
X263572Y533810D01*
X263511Y533936D01*
X263454Y534062D01*
X263441Y534078D01*
X263432Y534096D01*
X263342Y534202D01*
X263255Y534310D01*
X263239Y534323D01*
X263226Y534338D01*
X263112Y534418D01*
X263001Y534502D01*
X262976Y534514D01*
X262966Y534521D01*
X262947Y534528D01*
X262857Y534573D01*
X259834Y535825D01*
X256425Y539234D01*
X254579Y543689D01*
X254579Y548511D01*
X256425Y552966D01*
X259850Y556391D01*
X259851Y556392D01*
X259916Y556418D01*
X259989Y556470D01*
X260067Y556515D01*
X260117Y556563D01*
X260173Y556604D01*
X260231Y556674D01*
X260295Y556736D01*
X260332Y556796D01*
X260376Y556849D01*
X260414Y556931D01*
X260461Y557007D01*
X260482Y557074D01*
X260512Y557137D01*
X260529Y557225D01*
X260555Y557311D01*
X260558Y557381D01*
X260572Y557450D01*
X260566Y557539D01*
X260570Y557629D01*
X260556Y557697D01*
X260552Y557767D01*
X260524Y557852D01*
X260506Y557940D01*
X260475Y558003D01*
X260454Y558069D01*
X260406Y558145D01*
X260366Y558226D01*
X260321Y558279D01*
X260284Y558338D01*
X260218Y558400D01*
X260160Y558468D01*
X260103Y558508D01*
X260052Y558556D01*
X259973Y558599D01*
X259900Y558651D01*
X259835Y558676D01*
X259773Y558710D01*
X259687Y558732D01*
X259603Y558764D01*
X259533Y558772D01*
X259466Y558789D01*
X259305Y558799D01*
X257824Y558799D01*
X253156Y560733D01*
X249583Y564306D01*
X247649Y568974D01*
X247649Y570204D01*
X247637Y570302D01*
X247634Y570401D01*
X247617Y570459D01*
X247609Y570519D01*
X247573Y570611D01*
X247545Y570706D01*
X247515Y570758D01*
X247492Y570815D01*
X247434Y570895D01*
X247384Y570980D01*
X247318Y571056D01*
X247306Y571072D01*
X247296Y571080D01*
X247278Y571101D01*
X233224Y585154D01*
X231774Y588655D01*
X231774Y698110D01*
X233224Y701611D01*
X235904Y704291D01*
X239405Y705741D01*
X578255Y705741D01*
X578304Y705747D01*
X578354Y705745D01*
X578461Y705767D01*
X578570Y705781D01*
X578617Y705799D01*
X578665Y705809D01*
X578764Y705857D01*
X578866Y705898D01*
X578906Y705927D01*
X578951Y705949D01*
X579034Y706020D01*
X579123Y706084D01*
X579155Y706123D01*
X579193Y706155D01*
X579256Y706245D01*
X579326Y706329D01*
X579347Y706374D01*
X579376Y706415D01*
X579415Y706518D01*
X579462Y706617D01*
X579471Y706666D01*
X579489Y706712D01*
X579501Y706822D01*
X579522Y706929D01*
X579518Y706979D01*
X579524Y707028D01*
X579509Y707137D01*
X579502Y707247D01*
X579486Y707294D01*
X579480Y707343D01*
X579427Y707496D01*
X578929Y708699D01*
X578929Y726402D01*
X580698Y730673D01*
X583967Y733942D01*
X588238Y735711D01*
X592862Y735711D01*
X597133Y733942D01*
X600402Y730673D01*
X602077Y726627D01*
X602146Y726506D01*
X602211Y726383D01*
X602225Y726368D01*
X602235Y726351D01*
X602332Y726251D01*
X602425Y726148D01*
X602442Y726137D01*
X602456Y726122D01*
X602575Y726049D01*
X602691Y725973D01*
X602710Y725967D01*
X602727Y725956D01*
X602860Y725915D01*
X602992Y725870D01*
X603012Y725868D01*
X603031Y725862D01*
X603170Y725856D01*
X603309Y725845D01*
X603329Y725848D01*
X603349Y725847D01*
X603485Y725875D01*
X603622Y725899D01*
X603641Y725907D01*
X603660Y725912D01*
X603786Y725973D01*
X603912Y726030D01*
X603928Y726042D01*
X603946Y726051D01*
X604052Y726142D01*
X604160Y726228D01*
X604173Y726244D01*
X604188Y726258D01*
X604268Y726371D01*
X604352Y726482D01*
X604364Y726508D01*
X604371Y726518D01*
X604378Y726537D01*
X604423Y726627D01*
X606098Y730673D01*
X609367Y733942D01*
X613638Y735711D01*
X618262Y735711D01*
X622533Y733942D01*
X625802Y730673D01*
X627477Y726627D01*
X627546Y726506D01*
X627611Y726383D01*
X627625Y726368D01*
X627635Y726351D01*
X627732Y726251D01*
X627825Y726148D01*
X627842Y726137D01*
X627856Y726122D01*
X627975Y726049D01*
X628091Y725973D01*
X628110Y725967D01*
X628127Y725956D01*
X628260Y725915D01*
X628392Y725870D01*
X628412Y725868D01*
X628431Y725862D01*
X628570Y725856D01*
X628709Y725845D01*
X628729Y725848D01*
X628749Y725847D01*
X628885Y725875D01*
X629022Y725899D01*
X629041Y725907D01*
X629060Y725912D01*
X629186Y725973D01*
X629312Y726030D01*
X629328Y726042D01*
X629346Y726051D01*
X629452Y726142D01*
X629560Y726228D01*
X629573Y726244D01*
X629588Y726258D01*
X629668Y726371D01*
X629752Y726482D01*
X629764Y726508D01*
X629771Y726518D01*
X629778Y726537D01*
X629823Y726627D01*
X631498Y730673D01*
X634767Y733942D01*
X637741Y735173D01*
X637802Y735208D01*
X637867Y735234D01*
X637939Y735286D01*
X638017Y735331D01*
X638068Y735379D01*
X638124Y735420D01*
X638181Y735490D01*
X638246Y735552D01*
X638282Y735612D01*
X638327Y735665D01*
X638365Y735747D01*
X638412Y735823D01*
X638433Y735890D01*
X638462Y735953D01*
X638479Y736041D01*
X638506Y736127D01*
X638509Y736197D01*
X638522Y736266D01*
X638517Y736355D01*
X638521Y736445D01*
X638507Y736513D01*
X638502Y736583D01*
X638475Y736668D01*
X638457Y736756D01*
X638426Y736819D01*
X638404Y736885D01*
X638356Y736961D01*
X638317Y737042D01*
X638272Y737095D01*
X638234Y737154D01*
X638169Y737216D01*
X638111Y737284D01*
X638054Y737324D01*
X638003Y737372D01*
X637924Y737415D01*
X637851Y737467D01*
X637785Y737492D01*
X637724Y737526D01*
X637637Y737548D01*
X637553Y737580D01*
X637484Y737588D01*
X637416Y737605D01*
X637256Y737615D01*
X636510Y737615D01*
X629665Y744460D01*
X629665Y754140D01*
X636510Y760985D01*
X646190Y760985D01*
X647977Y759197D01*
X648055Y759137D01*
X648128Y759069D01*
X648181Y759040D01*
X648228Y759003D01*
X648319Y758963D01*
X648406Y758915D01*
X648465Y758900D01*
X648520Y758876D01*
X648618Y758861D01*
X648714Y758836D01*
X648814Y758830D01*
X648834Y758826D01*
X648847Y758828D01*
X648875Y758826D01*
X649595Y758826D01*
X653096Y757376D01*
X674826Y735646D01*
X676276Y732145D01*
X676276Y731524D01*
X676288Y731426D01*
X676291Y731327D01*
X676308Y731269D01*
X676316Y731209D01*
X676352Y731117D01*
X676380Y731022D01*
X676410Y730969D01*
X676433Y730913D01*
X676491Y730833D01*
X676541Y730748D01*
X676597Y730684D01*
X678371Y726402D01*
X678371Y708698D01*
X676602Y704427D01*
X673333Y701158D01*
X669062Y699389D01*
X664438Y699389D01*
X660167Y701158D01*
X656898Y704427D01*
X655223Y708473D01*
X655154Y708594D01*
X655089Y708717D01*
X655075Y708732D01*
X655065Y708749D01*
X654968Y708849D01*
X654875Y708952D01*
X654858Y708963D01*
X654844Y708978D01*
X654726Y709050D01*
X654609Y709127D01*
X654590Y709133D01*
X654573Y709144D01*
X654440Y709185D01*
X654308Y709230D01*
X654288Y709232D01*
X654269Y709238D01*
X654130Y709244D01*
X653991Y709255D01*
X653971Y709252D01*
X653951Y709253D01*
X653815Y709225D01*
X653678Y709201D01*
X653659Y709193D01*
X653640Y709188D01*
X653515Y709127D01*
X653388Y709070D01*
X653372Y709058D01*
X653354Y709049D01*
X653248Y708958D01*
X653140Y708872D01*
X653127Y708856D01*
X653112Y708842D01*
X653032Y708729D01*
X652948Y708618D01*
X652936Y708592D01*
X652929Y708582D01*
X652922Y708563D01*
X652877Y708473D01*
X651202Y704427D01*
X647933Y701158D01*
X646306Y700485D01*
X646298Y700480D01*
X646289Y700477D01*
X646161Y700402D01*
X646030Y700327D01*
X646023Y700321D01*
X646015Y700316D01*
X645894Y700210D01*
X643206Y697521D01*
X633824Y688139D01*
X630323Y686689D01*
X279030Y686689D01*
X278892Y686672D01*
X278753Y686659D01*
X278734Y686652D01*
X278714Y686649D01*
X278585Y686598D01*
X278454Y686551D01*
X278437Y686540D01*
X278418Y686532D01*
X278306Y686451D01*
X278191Y686373D01*
X278178Y686357D01*
X278161Y686346D01*
X278072Y686238D01*
X277980Y686134D01*
X277971Y686116D01*
X277958Y686101D01*
X277899Y685975D01*
X277836Y685851D01*
X277831Y685831D01*
X277823Y685813D01*
X277797Y685677D01*
X277766Y685541D01*
X277767Y685520D01*
X277763Y685501D01*
X277772Y685362D01*
X277776Y685223D01*
X277781Y685203D01*
X277783Y685183D01*
X277826Y685051D01*
X277864Y684917D01*
X277875Y684900D01*
X277881Y684881D01*
X277955Y684763D01*
X278026Y684643D01*
X278044Y684622D01*
X278051Y684612D01*
X278066Y684598D01*
X278068Y684595D01*
X278069Y684594D01*
X278071Y684592D01*
X278132Y684523D01*
X280400Y682254D01*
X282861Y676315D01*
X282861Y669885D01*
X280400Y663946D01*
X275854Y659400D01*
X274984Y659039D01*
X274941Y659015D01*
X274894Y658998D01*
X274803Y658936D01*
X274708Y658882D01*
X274672Y658847D01*
X274631Y658819D01*
X274558Y658737D01*
X274479Y658660D01*
X274453Y658618D01*
X274421Y658581D01*
X274371Y658483D01*
X274313Y658389D01*
X274299Y658342D01*
X274276Y658297D01*
X274252Y658190D01*
X274220Y658085D01*
X274217Y658036D01*
X274206Y657987D01*
X274210Y657877D01*
X274204Y657768D01*
X274214Y657719D01*
X274216Y657669D01*
X274246Y657564D01*
X274269Y657456D01*
X274291Y657411D01*
X274304Y657364D01*
X274360Y657269D01*
X274408Y657170D01*
X274441Y657133D01*
X274466Y657090D01*
X274572Y656969D01*
X276975Y654566D01*
X278821Y650111D01*
X278821Y649576D01*
X278833Y649478D01*
X278836Y649379D01*
X278853Y649321D01*
X278861Y649261D01*
X278897Y649169D01*
X278925Y649074D01*
X278955Y649021D01*
X278978Y648965D01*
X279036Y648885D01*
X279086Y648800D01*
X279152Y648724D01*
X279164Y648708D01*
X279174Y648700D01*
X279192Y648679D01*
X333774Y594097D01*
X333852Y594037D01*
X333924Y593969D01*
X333977Y593940D01*
X334025Y593903D01*
X334116Y593863D01*
X334203Y593815D01*
X334261Y593800D01*
X334317Y593776D01*
X334415Y593761D01*
X334511Y593736D01*
X334611Y593730D01*
X334631Y593726D01*
X334643Y593728D01*
X334671Y593726D01*
X487560Y593726D01*
X491061Y592276D01*
X493919Y589417D01*
X563999Y519338D01*
X564108Y519253D01*
X564215Y519164D01*
X564234Y519155D01*
X564250Y519143D01*
X564378Y519088D01*
X564503Y519029D01*
X564523Y519025D01*
X564542Y519017D01*
X564680Y518995D01*
X564816Y518969D01*
X564836Y518970D01*
X564856Y518967D01*
X564995Y518980D01*
X565133Y518989D01*
X565152Y518995D01*
X565172Y518997D01*
X565304Y519044D01*
X565435Y519087D01*
X565453Y519097D01*
X565472Y519104D01*
X565587Y519182D01*
X565704Y519257D01*
X565718Y519272D01*
X565735Y519283D01*
X565827Y519387D01*
X565922Y519488D01*
X565932Y519506D01*
X565945Y519521D01*
X566009Y519645D01*
X566076Y519767D01*
X566081Y519786D01*
X566090Y519805D01*
X566120Y519940D01*
X566155Y520075D01*
X566157Y520103D01*
X566160Y520115D01*
X566159Y520135D01*
X566165Y520235D01*
X566165Y525540D01*
X573010Y532385D01*
X582690Y532385D01*
X589535Y525540D01*
X589535Y515860D01*
X582690Y509015D01*
X577385Y509015D01*
X577248Y508998D01*
X577109Y508985D01*
X577090Y508978D01*
X577070Y508975D01*
X576941Y508924D01*
X576810Y508877D01*
X576793Y508866D01*
X576774Y508858D01*
X576662Y508777D01*
X576547Y508699D01*
X576533Y508683D01*
X576517Y508672D01*
X576428Y508564D01*
X576336Y508460D01*
X576327Y508442D01*
X576314Y508427D01*
X576255Y508301D01*
X576192Y508177D01*
X576187Y508157D01*
X576179Y508139D01*
X576153Y508003D01*
X576122Y507867D01*
X576123Y507846D01*
X576119Y507827D01*
X576127Y507688D01*
X576132Y507549D01*
X576137Y507529D01*
X576139Y507509D01*
X576181Y507377D01*
X576220Y507243D01*
X576230Y507226D01*
X576237Y507207D01*
X576311Y507089D01*
X576382Y506969D01*
X576400Y506948D01*
X576407Y506938D01*
X576422Y506924D01*
X576488Y506849D01*
X635289Y448047D01*
X635367Y447987D01*
X635439Y447919D01*
X635492Y447890D01*
X635540Y447853D01*
X635631Y447813D01*
X635718Y447765D01*
X635776Y447750D01*
X635832Y447726D01*
X635930Y447711D01*
X636026Y447686D01*
X636126Y447680D01*
X636146Y447676D01*
X636159Y447678D01*
X636187Y447676D01*
X668736Y447676D01*
X668874Y447693D01*
X669012Y447706D01*
X669031Y447713D01*
X669051Y447716D01*
X669180Y447767D01*
X669311Y447814D01*
X669328Y447825D01*
X669347Y447833D01*
X669459Y447914D01*
X669575Y447992D01*
X669588Y448008D01*
X669604Y448019D01*
X669693Y448127D01*
X669785Y448231D01*
X669794Y448249D01*
X669807Y448264D01*
X669866Y448390D01*
X669930Y448514D01*
X669934Y448534D01*
X669943Y448552D01*
X669969Y448689D01*
X669999Y448824D01*
X669999Y448845D01*
X670003Y448864D01*
X669994Y449003D01*
X669990Y449142D01*
X669984Y449162D01*
X669983Y449182D01*
X669940Y449314D01*
X669901Y449448D01*
X669891Y449465D01*
X669885Y449484D01*
X669810Y449602D01*
X669740Y449722D01*
X669721Y449743D01*
X669715Y449753D01*
X669700Y449767D01*
X669633Y449842D01*
X668858Y450617D01*
X667089Y454888D01*
X667089Y459512D01*
X668858Y463783D01*
X672127Y467052D01*
X676173Y468727D01*
X676294Y468796D01*
X676417Y468861D01*
X676432Y468875D01*
X676449Y468885D01*
X676549Y468982D01*
X676652Y469075D01*
X676663Y469092D01*
X676678Y469106D01*
X676750Y469224D01*
X676827Y469341D01*
X676833Y469360D01*
X676844Y469377D01*
X676885Y469510D01*
X676930Y469642D01*
X676932Y469662D01*
X676938Y469681D01*
X676944Y469820D01*
X676955Y469959D01*
X676952Y469979D01*
X676953Y469999D01*
X676925Y470135D01*
X676901Y470272D01*
X676893Y470291D01*
X676888Y470310D01*
X676827Y470435D01*
X676770Y470562D01*
X676758Y470578D01*
X676749Y470596D01*
X676658Y470702D01*
X676572Y470810D01*
X676556Y470823D01*
X676542Y470838D01*
X676429Y470918D01*
X676318Y471002D01*
X676292Y471014D01*
X676282Y471021D01*
X676263Y471028D01*
X676173Y471073D01*
X672127Y472748D01*
X668858Y476017D01*
X667089Y480288D01*
X667089Y484912D01*
X668858Y489183D01*
X672127Y492452D01*
X676173Y494127D01*
X676294Y494196D01*
X676417Y494261D01*
X676432Y494275D01*
X676449Y494285D01*
X676549Y494382D01*
X676652Y494475D01*
X676663Y494492D01*
X676678Y494506D01*
X676750Y494624D01*
X676827Y494741D01*
X676833Y494760D01*
X676844Y494777D01*
X676885Y494910D01*
X676930Y495042D01*
X676932Y495062D01*
X676938Y495081D01*
X676944Y495220D01*
X676955Y495359D01*
X676952Y495379D01*
X676953Y495399D01*
X676925Y495535D01*
X676901Y495672D01*
X676893Y495691D01*
X676888Y495710D01*
X676827Y495835D01*
X676770Y495962D01*
X676758Y495978D01*
X676749Y495996D01*
X676658Y496102D01*
X676572Y496210D01*
X676556Y496223D01*
X676542Y496238D01*
X676429Y496318D01*
X676318Y496402D01*
X676292Y496414D01*
X676282Y496421D01*
X676263Y496428D01*
X676173Y496473D01*
X672127Y498148D01*
X668858Y501417D01*
X667089Y505688D01*
X667089Y510312D01*
X668858Y514583D01*
X672127Y517852D01*
X676173Y519527D01*
X676294Y519596D01*
X676417Y519661D01*
X676432Y519675D01*
X676449Y519685D01*
X676549Y519782D01*
X676652Y519875D01*
X676663Y519892D01*
X676678Y519906D01*
X676750Y520024D01*
X676827Y520141D01*
X676833Y520160D01*
X676844Y520177D01*
X676885Y520310D01*
X676930Y520442D01*
X676932Y520462D01*
X676938Y520481D01*
X676944Y520620D01*
X676955Y520759D01*
X676952Y520779D01*
X676953Y520799D01*
X676925Y520935D01*
X676901Y521072D01*
X676893Y521091D01*
X676888Y521110D01*
X676827Y521235D01*
X676770Y521362D01*
X676758Y521378D01*
X676749Y521396D01*
X676658Y521502D01*
X676572Y521610D01*
X676556Y521623D01*
X676542Y521638D01*
X676429Y521718D01*
X676318Y521802D01*
X676292Y521814D01*
X676282Y521821D01*
X676263Y521828D01*
X676173Y521873D01*
X672127Y523548D01*
X668858Y526817D01*
X667089Y531088D01*
X667089Y535712D01*
X668035Y537994D01*
X668048Y538042D01*
X668069Y538087D01*
X668090Y538195D01*
X668119Y538301D01*
X668120Y538351D01*
X668129Y538400D01*
X668122Y538509D01*
X668124Y538619D01*
X668112Y538667D01*
X668109Y538717D01*
X668075Y538821D01*
X668050Y538928D01*
X668026Y538972D01*
X668011Y539019D01*
X667952Y539112D01*
X667901Y539209D01*
X667868Y539246D01*
X667841Y539288D01*
X667761Y539363D01*
X667687Y539445D01*
X667646Y539472D01*
X667609Y539506D01*
X667513Y539559D01*
X667421Y539619D01*
X667374Y539636D01*
X667331Y539660D01*
X667225Y539687D01*
X667121Y539723D01*
X667071Y539727D01*
X667023Y539739D01*
X666862Y539749D01*
X612161Y539749D01*
X605159Y542650D01*
X599800Y548009D01*
X596899Y555011D01*
X596899Y622962D01*
X596893Y623012D01*
X596895Y623061D01*
X596873Y623168D01*
X596859Y623278D01*
X596841Y623324D01*
X596831Y623373D01*
X596783Y623471D01*
X596742Y623573D01*
X596713Y623614D01*
X596691Y623658D01*
X596620Y623742D01*
X596556Y623831D01*
X596517Y623862D01*
X596485Y623900D01*
X596395Y623963D01*
X596311Y624034D01*
X596266Y624055D01*
X596225Y624083D01*
X596122Y624122D01*
X596023Y624169D01*
X595974Y624178D01*
X595928Y624196D01*
X595818Y624208D01*
X595711Y624229D01*
X595661Y624226D01*
X595612Y624231D01*
X595503Y624216D01*
X595393Y624209D01*
X595346Y624194D01*
X595297Y624187D01*
X595144Y624135D01*
X592862Y623189D01*
X588238Y623189D01*
X583967Y624958D01*
X580698Y628227D01*
X578929Y632498D01*
X578929Y650202D01*
X580698Y654473D01*
X583967Y657742D01*
X588238Y659511D01*
X592862Y659511D01*
X597133Y657742D01*
X600369Y654505D01*
X600463Y654432D01*
X600552Y654354D01*
X600588Y654335D01*
X600620Y654311D01*
X600729Y654263D01*
X600835Y654209D01*
X600875Y654200D01*
X600912Y654184D01*
X601030Y654166D01*
X601146Y654139D01*
X601186Y654141D01*
X601226Y654134D01*
X601345Y654146D01*
X601463Y654149D01*
X601502Y654160D01*
X601543Y654164D01*
X601655Y654204D01*
X601769Y654238D01*
X601804Y654258D01*
X601842Y654272D01*
X601941Y654339D01*
X602043Y654399D01*
X602088Y654439D01*
X602105Y654450D01*
X602118Y654466D01*
X602164Y654505D01*
X605159Y657500D01*
X612161Y660401D01*
X619739Y660401D01*
X626741Y657500D01*
X631228Y653014D01*
X631322Y652941D01*
X631411Y652862D01*
X631447Y652844D01*
X631479Y652819D01*
X631588Y652772D01*
X631694Y652718D01*
X631734Y652709D01*
X631771Y652693D01*
X631889Y652674D01*
X632005Y652648D01*
X632045Y652649D01*
X632085Y652643D01*
X632204Y652654D01*
X632323Y652658D01*
X632361Y652669D01*
X632402Y652673D01*
X632514Y652713D01*
X632628Y652746D01*
X632663Y652767D01*
X632701Y652780D01*
X632799Y652847D01*
X632902Y652908D01*
X632947Y652947D01*
X632964Y652959D01*
X632978Y652974D01*
X633023Y653014D01*
X633343Y653334D01*
X638538Y655486D01*
X644162Y655486D01*
X649357Y653334D01*
X649677Y653014D01*
X649771Y652941D01*
X649860Y652862D01*
X649896Y652844D01*
X649928Y652819D01*
X650038Y652772D01*
X650144Y652718D01*
X650183Y652709D01*
X650220Y652693D01*
X650338Y652674D01*
X650454Y652648D01*
X650494Y652649D01*
X650534Y652643D01*
X650653Y652654D01*
X650772Y652658D01*
X650811Y652669D01*
X650851Y652673D01*
X650963Y652713D01*
X651077Y652746D01*
X651112Y652767D01*
X651150Y652780D01*
X651249Y652847D01*
X651351Y652908D01*
X651396Y652947D01*
X651413Y652959D01*
X651427Y652974D01*
X651472Y653014D01*
X655959Y657500D01*
X662961Y660401D01*
X857029Y660401D01*
X864031Y657500D01*
X869569Y651963D01*
X933703Y587829D01*
X939240Y582291D01*
X939897Y580705D01*
X939932Y580645D01*
X939958Y580580D01*
X940010Y580507D01*
X940055Y580429D01*
X940103Y580379D01*
X940144Y580322D01*
X940214Y580265D01*
X940276Y580201D01*
X940336Y580164D01*
X940389Y580120D01*
X940471Y580081D01*
X940547Y580034D01*
X940614Y580014D01*
X940677Y579984D01*
X940765Y579967D01*
X940851Y579941D01*
X940921Y579937D01*
X940990Y579924D01*
X941079Y579930D01*
X941169Y579926D01*
X941237Y579940D01*
X941307Y579944D01*
X941392Y579972D01*
X941480Y579990D01*
X941543Y580021D01*
X941609Y580042D01*
X941685Y580090D01*
X941766Y580130D01*
X941819Y580175D01*
X941878Y580212D01*
X941940Y580278D01*
X942008Y580336D01*
X942048Y580393D01*
X942096Y580444D01*
X942139Y580523D01*
X942191Y580596D01*
X942216Y580661D01*
X942250Y580722D01*
X942272Y580809D01*
X942304Y580893D01*
X942312Y580963D01*
X942329Y581030D01*
X942339Y581191D01*
X942339Y814070D01*
X942324Y814188D01*
X942317Y814307D01*
X942304Y814345D01*
X942299Y814386D01*
X942256Y814496D01*
X942219Y814609D01*
X942197Y814644D01*
X942182Y814681D01*
X942113Y814777D01*
X942049Y814878D01*
X942019Y814906D01*
X941996Y814939D01*
X941904Y815015D01*
X941817Y815096D01*
X941782Y815116D01*
X941751Y815141D01*
X941643Y815192D01*
X941539Y815250D01*
X941499Y815260D01*
X941463Y815277D01*
X941346Y815299D01*
X941231Y815329D01*
X941171Y815333D01*
X941151Y815337D01*
X941130Y815335D01*
X941070Y815339D01*
X11430Y815339D01*
X11312Y815324D01*
X11193Y815317D01*
X11155Y815304D01*
X11114Y815299D01*
X11004Y815256D01*
X10891Y815219D01*
X10856Y815197D01*
X10819Y815182D01*
X10723Y815113D01*
X10622Y815049D01*
X10594Y815019D01*
X10561Y814996D01*
X10485Y814904D01*
X10404Y814817D01*
X10384Y814782D01*
X10359Y814751D01*
X10308Y814643D01*
X10250Y814539D01*
X10240Y814499D01*
X10223Y814463D01*
X10201Y814346D01*
X10171Y814231D01*
X10167Y814171D01*
X10163Y814151D01*
X10165Y814130D01*
X10161Y814070D01*
X10161Y11430D01*
X10176Y11312D01*
X10183Y11193D01*
X10196Y11155D01*
X10201Y11114D01*
X10244Y11004D01*
X10281Y10891D01*
X10303Y10856D01*
X10318Y10819D01*
X10387Y10723D01*
X10451Y10622D01*
X10481Y10594D01*
X10504Y10561D01*
X10596Y10485D01*
X10683Y10404D01*
X10718Y10384D01*
X10749Y10359D01*
X10857Y10308D01*
X10961Y10250D01*
X11001Y10240D01*
X11037Y10223D01*
X11154Y10201D01*
X11269Y10171D01*
X11329Y10167D01*
X11349Y10163D01*
X11370Y10165D01*
X11430Y10161D01*
X941070Y10161D01*
X941188Y10176D01*
G37*
%LPC*%
G36*
X860902Y123019D02*
X860902Y123019D01*
X859192Y123728D01*
X859183Y123730D01*
X859175Y123735D01*
X859030Y123772D01*
X858885Y123812D01*
X858876Y123812D01*
X858867Y123814D01*
X858707Y123824D01*
X238142Y123824D01*
X232307Y126241D01*
X208791Y149757D01*
X206374Y155592D01*
X206374Y274955D01*
X206359Y275073D01*
X206352Y275192D01*
X206339Y275230D01*
X206334Y275271D01*
X206291Y275381D01*
X206254Y275494D01*
X206232Y275529D01*
X206217Y275566D01*
X206148Y275662D01*
X206084Y275763D01*
X206054Y275791D01*
X206031Y275824D01*
X205939Y275900D01*
X205852Y275981D01*
X205817Y276001D01*
X205786Y276026D01*
X205678Y276077D01*
X205574Y276135D01*
X205534Y276145D01*
X205498Y276162D01*
X205381Y276184D01*
X205266Y276214D01*
X205206Y276218D01*
X205186Y276222D01*
X205165Y276220D01*
X205105Y276224D01*
X124981Y276224D01*
X124843Y276207D01*
X124705Y276194D01*
X124686Y276187D01*
X124666Y276184D01*
X124536Y276133D01*
X124406Y276086D01*
X124389Y276075D01*
X124370Y276067D01*
X124257Y275986D01*
X124142Y275908D01*
X124129Y275892D01*
X124113Y275881D01*
X124024Y275773D01*
X123932Y275669D01*
X123923Y275651D01*
X123910Y275636D01*
X123851Y275510D01*
X123787Y275386D01*
X123783Y275366D01*
X123774Y275348D01*
X123748Y275211D01*
X123718Y275076D01*
X123718Y275055D01*
X123715Y275036D01*
X123723Y274897D01*
X123727Y274758D01*
X123733Y274738D01*
X123734Y274718D01*
X123777Y274586D01*
X123816Y274452D01*
X123826Y274435D01*
X123832Y274416D01*
X123907Y274298D01*
X123977Y274178D01*
X123996Y274157D01*
X124003Y274147D01*
X124017Y274133D01*
X124084Y274057D01*
X124575Y273566D01*
X126421Y269111D01*
X126421Y264289D01*
X124575Y259834D01*
X121166Y256425D01*
X118143Y255173D01*
X118023Y255104D01*
X117900Y255039D01*
X117885Y255025D01*
X117867Y255015D01*
X117767Y254918D01*
X117664Y254825D01*
X117653Y254808D01*
X117639Y254794D01*
X117566Y254676D01*
X117490Y254559D01*
X117483Y254540D01*
X117473Y254523D01*
X117432Y254390D01*
X117387Y254258D01*
X117385Y254238D01*
X117379Y254219D01*
X117372Y254080D01*
X117361Y253941D01*
X117365Y253921D01*
X117364Y253901D01*
X117392Y253765D01*
X117416Y253628D01*
X117424Y253610D01*
X117428Y253590D01*
X117489Y253464D01*
X117546Y253338D01*
X117559Y253322D01*
X117568Y253304D01*
X117659Y253198D01*
X117745Y253090D01*
X117761Y253077D01*
X117774Y253062D01*
X117888Y252982D01*
X117999Y252898D01*
X118024Y252886D01*
X118034Y252879D01*
X118053Y252872D01*
X118143Y252827D01*
X121166Y251575D01*
X124575Y248166D01*
X126421Y243711D01*
X126421Y238889D01*
X124575Y234434D01*
X122172Y232031D01*
X122142Y231992D01*
X122105Y231958D01*
X122045Y231867D01*
X121977Y231780D01*
X121958Y231734D01*
X121930Y231693D01*
X121895Y231589D01*
X121851Y231488D01*
X121843Y231439D01*
X121827Y231392D01*
X121818Y231283D01*
X121801Y231174D01*
X121806Y231124D01*
X121802Y231075D01*
X121821Y230967D01*
X121831Y230857D01*
X121848Y230810D01*
X121856Y230761D01*
X121901Y230661D01*
X121939Y230558D01*
X121966Y230517D01*
X121987Y230471D01*
X122056Y230386D01*
X122117Y230295D01*
X122154Y230262D01*
X122185Y230223D01*
X122273Y230157D01*
X122356Y230084D01*
X122400Y230062D01*
X122440Y230032D01*
X122584Y229961D01*
X123454Y229600D01*
X128000Y225054D01*
X130461Y219115D01*
X130461Y212685D01*
X128000Y206746D01*
X123454Y202200D01*
X117515Y199739D01*
X111085Y199739D01*
X105146Y202200D01*
X100600Y206746D01*
X98139Y212685D01*
X98139Y219115D01*
X100600Y225054D01*
X105146Y229600D01*
X106016Y229961D01*
X106059Y229985D01*
X106106Y230002D01*
X106197Y230064D01*
X106292Y230118D01*
X106328Y230153D01*
X106369Y230181D01*
X106442Y230263D01*
X106521Y230340D01*
X106547Y230382D01*
X106579Y230419D01*
X106629Y230517D01*
X106687Y230611D01*
X106701Y230658D01*
X106724Y230703D01*
X106748Y230810D01*
X106780Y230915D01*
X106783Y230964D01*
X106794Y231013D01*
X106790Y231123D01*
X106796Y231232D01*
X106786Y231281D01*
X106784Y231331D01*
X106754Y231436D01*
X106731Y231544D01*
X106709Y231589D01*
X106696Y231636D01*
X106640Y231731D01*
X106592Y231830D01*
X106559Y231867D01*
X106534Y231910D01*
X106428Y232031D01*
X104025Y234434D01*
X102179Y238889D01*
X102179Y243711D01*
X104025Y248166D01*
X107434Y251575D01*
X110457Y252827D01*
X110577Y252896D01*
X110700Y252961D01*
X110715Y252975D01*
X110733Y252985D01*
X110833Y253082D01*
X110936Y253175D01*
X110947Y253192D01*
X110961Y253206D01*
X111034Y253325D01*
X111110Y253441D01*
X111117Y253460D01*
X111127Y253477D01*
X111168Y253610D01*
X111213Y253742D01*
X111215Y253762D01*
X111221Y253781D01*
X111228Y253920D01*
X111239Y254059D01*
X111235Y254079D01*
X111236Y254099D01*
X111208Y254235D01*
X111184Y254372D01*
X111176Y254391D01*
X111172Y254410D01*
X111111Y254536D01*
X111054Y254662D01*
X111041Y254678D01*
X111032Y254696D01*
X110942Y254802D01*
X110855Y254910D01*
X110839Y254923D01*
X110826Y254938D01*
X110712Y255018D01*
X110601Y255102D01*
X110576Y255114D01*
X110566Y255121D01*
X110547Y255128D01*
X110457Y255173D01*
X107434Y256425D01*
X104025Y259834D01*
X102179Y264289D01*
X102179Y269111D01*
X104025Y273566D01*
X106646Y276187D01*
X106676Y276226D01*
X106713Y276260D01*
X106773Y276352D01*
X106841Y276438D01*
X106861Y276484D01*
X106888Y276526D01*
X106923Y276629D01*
X106967Y276730D01*
X106975Y276779D01*
X106991Y276826D01*
X107000Y276936D01*
X107017Y277044D01*
X107012Y277094D01*
X107016Y277143D01*
X106997Y277251D01*
X106987Y277361D01*
X106970Y277408D01*
X106962Y277457D01*
X106917Y277557D01*
X106880Y277660D01*
X106852Y277701D01*
X106831Y277747D01*
X106763Y277832D01*
X106701Y277923D01*
X106664Y277956D01*
X106633Y277995D01*
X106545Y278061D01*
X106463Y278134D01*
X106418Y278157D01*
X106379Y278186D01*
X106234Y278257D01*
X105307Y278641D01*
X100841Y283107D01*
X98424Y288942D01*
X98424Y295258D01*
X100841Y301093D01*
X105307Y305559D01*
X109027Y307100D01*
X109157Y307174D01*
X109287Y307245D01*
X109295Y307252D01*
X109304Y307257D01*
X109411Y307361D01*
X109519Y307463D01*
X109525Y307471D01*
X109532Y307479D01*
X109610Y307605D01*
X109690Y307731D01*
X109693Y307741D01*
X109698Y307750D01*
X109742Y307892D01*
X109788Y308034D01*
X109789Y308044D01*
X109792Y308054D01*
X109799Y308202D01*
X109808Y308351D01*
X109807Y308361D01*
X109807Y308371D01*
X109777Y308517D01*
X109749Y308663D01*
X109745Y308673D01*
X109743Y308683D01*
X109677Y308817D01*
X109614Y308951D01*
X109608Y308959D01*
X109603Y308968D01*
X109506Y309082D01*
X109412Y309197D01*
X109401Y309205D01*
X109397Y309210D01*
X109385Y309219D01*
X109288Y309299D01*
X108059Y310192D01*
X106992Y311259D01*
X106106Y312479D01*
X105421Y313822D01*
X104957Y315251D01*
X113320Y315251D01*
X113438Y315266D01*
X113557Y315273D01*
X113595Y315285D01*
X113635Y315291D01*
X113746Y315334D01*
X113859Y315371D01*
X113893Y315393D01*
X113931Y315408D01*
X114027Y315477D01*
X114128Y315541D01*
X114156Y315571D01*
X114188Y315594D01*
X114264Y315686D01*
X114296Y315720D01*
X114301Y315712D01*
X114331Y315684D01*
X114355Y315651D01*
X114446Y315575D01*
X114533Y315494D01*
X114568Y315474D01*
X114600Y315449D01*
X114707Y315398D01*
X114812Y315340D01*
X114851Y315330D01*
X114887Y315313D01*
X115004Y315291D01*
X115120Y315261D01*
X115180Y315257D01*
X115200Y315253D01*
X115220Y315255D01*
X115280Y315251D01*
X123643Y315251D01*
X123179Y313822D01*
X122494Y312479D01*
X121608Y311259D01*
X120492Y310142D01*
X120407Y310033D01*
X120318Y309926D01*
X120309Y309907D01*
X120297Y309891D01*
X120242Y309764D01*
X120182Y309638D01*
X120178Y309618D01*
X120170Y309599D01*
X120148Y309461D01*
X120122Y309325D01*
X120124Y309305D01*
X120121Y309285D01*
X120134Y309146D01*
X120142Y309008D01*
X120148Y308989D01*
X120150Y308969D01*
X120198Y308837D01*
X120240Y308706D01*
X120251Y308688D01*
X120258Y308669D01*
X120336Y308554D01*
X120410Y308437D01*
X120425Y308423D01*
X120437Y308406D01*
X120541Y308314D01*
X120642Y308219D01*
X120660Y308209D01*
X120675Y308196D01*
X120799Y308133D01*
X120921Y308065D01*
X120940Y308060D01*
X120958Y308051D01*
X121094Y308021D01*
X121228Y307986D01*
X121257Y307984D01*
X121269Y307981D01*
X121289Y307982D01*
X121389Y307976D01*
X225408Y307976D01*
X231243Y305559D01*
X235709Y301093D01*
X238126Y295258D01*
X238126Y165852D01*
X238138Y165754D01*
X238141Y165654D01*
X238158Y165596D01*
X238166Y165536D01*
X238202Y165444D01*
X238230Y165349D01*
X238260Y165297D01*
X238283Y165240D01*
X238341Y165160D01*
X238391Y165075D01*
X238457Y165000D01*
X238469Y164983D01*
X238479Y164975D01*
X238497Y164954D01*
X247504Y155947D01*
X247582Y155887D01*
X247655Y155819D01*
X247708Y155790D01*
X247755Y155753D01*
X247846Y155713D01*
X247933Y155665D01*
X247992Y155650D01*
X248047Y155626D01*
X248145Y155611D01*
X248241Y155586D01*
X248341Y155580D01*
X248361Y155576D01*
X248374Y155578D01*
X248402Y155576D01*
X383018Y155576D01*
X383156Y155593D01*
X383294Y155606D01*
X383313Y155613D01*
X383333Y155616D01*
X383463Y155667D01*
X383593Y155714D01*
X383610Y155725D01*
X383629Y155733D01*
X383741Y155814D01*
X383857Y155892D01*
X383870Y155908D01*
X383886Y155919D01*
X383975Y156026D01*
X384067Y156131D01*
X384076Y156149D01*
X384089Y156164D01*
X384148Y156290D01*
X384212Y156414D01*
X384216Y156434D01*
X384225Y156452D01*
X384251Y156588D01*
X384281Y156724D01*
X384281Y156745D01*
X384284Y156764D01*
X384276Y156903D01*
X384272Y157042D01*
X384266Y157062D01*
X384265Y157082D01*
X384222Y157214D01*
X384183Y157348D01*
X384173Y157365D01*
X384167Y157384D01*
X384092Y157502D01*
X384022Y157622D01*
X384003Y157643D01*
X383997Y157653D01*
X383982Y157667D01*
X383915Y157743D01*
X383583Y158075D01*
X382585Y159448D01*
X381814Y160961D01*
X381294Y162561D01*
X398780Y162561D01*
X398898Y162576D01*
X399017Y162583D01*
X399055Y162596D01*
X399095Y162601D01*
X399206Y162644D01*
X399319Y162681D01*
X399353Y162703D01*
X399391Y162718D01*
X399487Y162788D01*
X399588Y162851D01*
X399616Y162881D01*
X399648Y162904D01*
X399724Y162996D01*
X399806Y163083D01*
X399825Y163118D01*
X399851Y163149D01*
X399902Y163257D01*
X399959Y163361D01*
X399970Y163401D01*
X399987Y163437D01*
X400009Y163554D01*
X400039Y163669D01*
X400043Y163730D01*
X400047Y163750D01*
X400045Y163770D01*
X400049Y163830D01*
X400049Y166370D01*
X400034Y166488D01*
X400027Y166607D01*
X400014Y166645D01*
X400009Y166685D01*
X399965Y166796D01*
X399929Y166909D01*
X399907Y166944D01*
X399892Y166981D01*
X399822Y167077D01*
X399759Y167178D01*
X399729Y167206D01*
X399705Y167239D01*
X399614Y167314D01*
X399527Y167396D01*
X399492Y167416D01*
X399460Y167441D01*
X399353Y167492D01*
X399248Y167550D01*
X399209Y167560D01*
X399173Y167577D01*
X399056Y167599D01*
X398941Y167629D01*
X398880Y167633D01*
X398860Y167637D01*
X398840Y167635D01*
X398780Y167639D01*
X381294Y167639D01*
X381814Y169239D01*
X382585Y170752D01*
X383583Y172125D01*
X384783Y173325D01*
X386156Y174323D01*
X387668Y175093D01*
X388050Y175217D01*
X388077Y175230D01*
X388106Y175237D01*
X388220Y175297D01*
X388337Y175353D01*
X388360Y175372D01*
X388387Y175386D01*
X388483Y175473D01*
X388582Y175555D01*
X388600Y175579D01*
X388622Y175599D01*
X388693Y175708D01*
X388769Y175812D01*
X388780Y175840D01*
X388797Y175865D01*
X388839Y175988D01*
X388887Y176108D01*
X388890Y176138D01*
X388900Y176166D01*
X388910Y176295D01*
X388927Y176424D01*
X388923Y176453D01*
X388925Y176483D01*
X388903Y176611D01*
X388887Y176739D01*
X388876Y176767D01*
X388871Y176796D01*
X388818Y176914D01*
X388770Y177035D01*
X388753Y177059D01*
X388740Y177086D01*
X388660Y177187D01*
X388583Y177292D01*
X388560Y177311D01*
X388542Y177335D01*
X388438Y177413D01*
X388398Y177446D01*
X388385Y177459D01*
X388379Y177462D01*
X388339Y177495D01*
X388311Y177508D01*
X388288Y177526D01*
X388143Y177597D01*
X384261Y179205D01*
X380513Y182953D01*
X378484Y187850D01*
X378484Y193150D01*
X380513Y198047D01*
X384261Y201795D01*
X388143Y203403D01*
X388169Y203418D01*
X388197Y203427D01*
X388307Y203497D01*
X388419Y203561D01*
X388441Y203581D01*
X388466Y203597D01*
X388555Y203692D01*
X388648Y203782D01*
X388663Y203807D01*
X388684Y203829D01*
X388746Y203943D01*
X388814Y204053D01*
X388823Y204082D01*
X388837Y204108D01*
X388870Y204233D01*
X388908Y204357D01*
X388909Y204387D01*
X388916Y204416D01*
X388917Y204546D01*
X388923Y204675D01*
X388917Y204704D01*
X388917Y204734D01*
X388885Y204859D01*
X388858Y204986D01*
X388845Y205013D01*
X388838Y205042D01*
X388776Y205155D01*
X388719Y205272D01*
X388699Y205295D01*
X388685Y205321D01*
X388597Y205415D01*
X388512Y205514D01*
X388488Y205531D01*
X388468Y205553D01*
X388358Y205622D01*
X388252Y205697D01*
X388224Y205707D01*
X388199Y205724D01*
X388050Y205783D01*
X387668Y205907D01*
X386156Y206677D01*
X384783Y207675D01*
X383583Y208875D01*
X382585Y210248D01*
X381814Y211761D01*
X381294Y213361D01*
X398780Y213361D01*
X398898Y213376D01*
X399017Y213383D01*
X399055Y213396D01*
X399095Y213401D01*
X399206Y213444D01*
X399319Y213481D01*
X399353Y213503D01*
X399391Y213518D01*
X399487Y213588D01*
X399588Y213651D01*
X399616Y213681D01*
X399648Y213704D01*
X399724Y213796D01*
X399806Y213883D01*
X399825Y213918D01*
X399851Y213949D01*
X399902Y214057D01*
X399959Y214161D01*
X399970Y214201D01*
X399987Y214237D01*
X400009Y214354D01*
X400039Y214469D01*
X400043Y214530D01*
X400047Y214550D01*
X400045Y214570D01*
X400049Y214630D01*
X400049Y217170D01*
X400034Y217288D01*
X400027Y217407D01*
X400014Y217445D01*
X400009Y217485D01*
X399965Y217596D01*
X399929Y217709D01*
X399907Y217744D01*
X399892Y217781D01*
X399822Y217877D01*
X399759Y217978D01*
X399729Y218006D01*
X399705Y218039D01*
X399614Y218114D01*
X399527Y218196D01*
X399492Y218216D01*
X399460Y218241D01*
X399353Y218292D01*
X399248Y218350D01*
X399209Y218360D01*
X399173Y218377D01*
X399056Y218399D01*
X398941Y218429D01*
X398880Y218433D01*
X398860Y218437D01*
X398840Y218435D01*
X398780Y218439D01*
X381294Y218439D01*
X381814Y220039D01*
X382585Y221552D01*
X383583Y222925D01*
X384783Y224125D01*
X386156Y225123D01*
X387668Y225893D01*
X388050Y226017D01*
X388077Y226030D01*
X388106Y226037D01*
X388220Y226097D01*
X388337Y226153D01*
X388360Y226172D01*
X388387Y226186D01*
X388483Y226273D01*
X388582Y226355D01*
X388600Y226379D01*
X388622Y226399D01*
X388693Y226508D01*
X388769Y226612D01*
X388780Y226640D01*
X388797Y226665D01*
X388839Y226788D01*
X388887Y226908D01*
X388890Y226938D01*
X388900Y226966D01*
X388910Y227095D01*
X388927Y227224D01*
X388923Y227253D01*
X388925Y227283D01*
X388903Y227411D01*
X388887Y227539D01*
X388876Y227567D01*
X388871Y227596D01*
X388818Y227714D01*
X388770Y227835D01*
X388753Y227859D01*
X388740Y227886D01*
X388660Y227987D01*
X388583Y228092D01*
X388560Y228111D01*
X388542Y228135D01*
X388438Y228213D01*
X388339Y228295D01*
X388311Y228308D01*
X388288Y228326D01*
X388143Y228397D01*
X384261Y230005D01*
X380513Y233753D01*
X378484Y238650D01*
X378484Y243950D01*
X380513Y248847D01*
X384261Y252595D01*
X384822Y252827D01*
X384943Y252896D01*
X385065Y252961D01*
X385080Y252975D01*
X385098Y252985D01*
X385198Y253082D01*
X385301Y253175D01*
X385312Y253192D01*
X385326Y253206D01*
X385399Y253325D01*
X385476Y253441D01*
X385482Y253460D01*
X385493Y253477D01*
X385533Y253610D01*
X385579Y253742D01*
X385580Y253762D01*
X385586Y253781D01*
X385593Y253920D01*
X385604Y254059D01*
X385600Y254079D01*
X385601Y254099D01*
X385573Y254235D01*
X385549Y254372D01*
X385541Y254390D01*
X385537Y254410D01*
X385476Y254536D01*
X385419Y254662D01*
X385406Y254678D01*
X385397Y254696D01*
X385307Y254802D01*
X385220Y254910D01*
X385204Y254923D01*
X385191Y254938D01*
X385077Y255018D01*
X384966Y255102D01*
X384941Y255114D01*
X384931Y255121D01*
X384912Y255128D01*
X384822Y255173D01*
X384260Y255405D01*
X380513Y259153D01*
X378484Y264050D01*
X378484Y269350D01*
X380513Y274247D01*
X384261Y277995D01*
X384822Y278227D01*
X384943Y278296D01*
X385065Y278361D01*
X385080Y278375D01*
X385098Y278385D01*
X385198Y278482D01*
X385301Y278575D01*
X385312Y278592D01*
X385326Y278606D01*
X385399Y278725D01*
X385476Y278841D01*
X385482Y278860D01*
X385493Y278877D01*
X385533Y279010D01*
X385579Y279142D01*
X385580Y279162D01*
X385586Y279181D01*
X385593Y279320D01*
X385604Y279459D01*
X385600Y279479D01*
X385601Y279499D01*
X385573Y279635D01*
X385549Y279772D01*
X385541Y279790D01*
X385537Y279810D01*
X385476Y279936D01*
X385419Y280062D01*
X385406Y280078D01*
X385397Y280096D01*
X385307Y280202D01*
X385220Y280310D01*
X385204Y280323D01*
X385191Y280338D01*
X385077Y280418D01*
X384966Y280502D01*
X384941Y280514D01*
X384931Y280521D01*
X384912Y280528D01*
X384822Y280573D01*
X384260Y280805D01*
X380513Y284553D01*
X378484Y289450D01*
X378484Y294750D01*
X380513Y299647D01*
X384261Y303395D01*
X384822Y303627D01*
X384943Y303696D01*
X385065Y303761D01*
X385080Y303775D01*
X385098Y303785D01*
X385198Y303882D01*
X385301Y303975D01*
X385312Y303992D01*
X385326Y304006D01*
X385399Y304125D01*
X385476Y304241D01*
X385482Y304260D01*
X385493Y304277D01*
X385533Y304410D01*
X385579Y304542D01*
X385580Y304562D01*
X385586Y304581D01*
X385593Y304720D01*
X385604Y304859D01*
X385600Y304879D01*
X385601Y304899D01*
X385573Y305035D01*
X385549Y305172D01*
X385541Y305190D01*
X385537Y305210D01*
X385476Y305336D01*
X385419Y305462D01*
X385406Y305478D01*
X385397Y305496D01*
X385307Y305602D01*
X385220Y305710D01*
X385204Y305723D01*
X385191Y305738D01*
X385077Y305818D01*
X384966Y305902D01*
X384941Y305914D01*
X384931Y305921D01*
X384912Y305928D01*
X384822Y305973D01*
X384260Y306205D01*
X383752Y306714D01*
X383674Y306774D01*
X383602Y306842D01*
X383549Y306871D01*
X383501Y306908D01*
X383410Y306948D01*
X383323Y306996D01*
X383265Y307011D01*
X383209Y307035D01*
X383111Y307050D01*
X383015Y307075D01*
X382915Y307081D01*
X382895Y307085D01*
X382883Y307083D01*
X382855Y307085D01*
X307887Y307085D01*
X304059Y308671D01*
X277733Y334997D01*
X277639Y335070D01*
X277550Y335149D01*
X277514Y335167D01*
X277482Y335192D01*
X277372Y335239D01*
X277267Y335293D01*
X277227Y335302D01*
X277190Y335318D01*
X277072Y335337D01*
X276956Y335363D01*
X276916Y335362D01*
X276876Y335368D01*
X276757Y335357D01*
X276638Y335353D01*
X276600Y335342D01*
X276559Y335338D01*
X276447Y335298D01*
X276333Y335265D01*
X276298Y335244D01*
X276260Y335231D01*
X276161Y335164D01*
X276059Y335103D01*
X276014Y335064D01*
X275997Y335052D01*
X275983Y335037D01*
X275938Y334997D01*
X273566Y332625D01*
X270543Y331373D01*
X270423Y331304D01*
X270300Y331239D01*
X270285Y331225D01*
X270267Y331215D01*
X270167Y331118D01*
X270064Y331025D01*
X270053Y331008D01*
X270039Y330994D01*
X269966Y330876D01*
X269890Y330759D01*
X269883Y330740D01*
X269873Y330723D01*
X269832Y330590D01*
X269786Y330458D01*
X269785Y330438D01*
X269779Y330419D01*
X269772Y330280D01*
X269761Y330141D01*
X269765Y330121D01*
X269764Y330101D01*
X269792Y329965D01*
X269816Y329828D01*
X269824Y329809D01*
X269828Y329790D01*
X269889Y329665D01*
X269946Y329538D01*
X269959Y329522D01*
X269968Y329504D01*
X270058Y329398D01*
X270145Y329290D01*
X270161Y329277D01*
X270174Y329262D01*
X270288Y329182D01*
X270399Y329098D01*
X270424Y329086D01*
X270434Y329079D01*
X270453Y329072D01*
X270543Y329027D01*
X273566Y327775D01*
X276975Y324366D01*
X278821Y319911D01*
X278821Y315089D01*
X276975Y310634D01*
X273566Y307225D01*
X270543Y305973D01*
X270423Y305904D01*
X270300Y305839D01*
X270285Y305825D01*
X270267Y305815D01*
X270167Y305718D01*
X270064Y305625D01*
X270053Y305608D01*
X270039Y305594D01*
X269966Y305476D01*
X269890Y305359D01*
X269883Y305340D01*
X269873Y305323D01*
X269832Y305190D01*
X269786Y305058D01*
X269785Y305038D01*
X269779Y305019D01*
X269772Y304880D01*
X269761Y304741D01*
X269765Y304721D01*
X269764Y304701D01*
X269792Y304565D01*
X269816Y304428D01*
X269824Y304409D01*
X269828Y304390D01*
X269889Y304265D01*
X269946Y304138D01*
X269959Y304122D01*
X269968Y304104D01*
X270058Y303998D01*
X270145Y303890D01*
X270161Y303877D01*
X270174Y303862D01*
X270288Y303782D01*
X270399Y303698D01*
X270424Y303686D01*
X270434Y303679D01*
X270453Y303672D01*
X270543Y303627D01*
X273566Y302375D01*
X276975Y298966D01*
X278821Y294511D01*
X278821Y289689D01*
X276975Y285234D01*
X273566Y281825D01*
X270543Y280573D01*
X270423Y280504D01*
X270300Y280439D01*
X270285Y280425D01*
X270267Y280415D01*
X270167Y280318D01*
X270064Y280225D01*
X270053Y280208D01*
X270039Y280194D01*
X269966Y280076D01*
X269890Y279959D01*
X269883Y279940D01*
X269873Y279923D01*
X269832Y279790D01*
X269786Y279658D01*
X269785Y279638D01*
X269779Y279619D01*
X269772Y279480D01*
X269761Y279341D01*
X269765Y279321D01*
X269764Y279301D01*
X269792Y279165D01*
X269816Y279028D01*
X269824Y279009D01*
X269828Y278990D01*
X269889Y278865D01*
X269946Y278738D01*
X269959Y278722D01*
X269968Y278704D01*
X270058Y278598D01*
X270145Y278490D01*
X270161Y278477D01*
X270174Y278462D01*
X270288Y278382D01*
X270399Y278298D01*
X270424Y278286D01*
X270434Y278279D01*
X270453Y278272D01*
X270543Y278227D01*
X273566Y276975D01*
X276975Y273566D01*
X278821Y269111D01*
X278821Y264289D01*
X276975Y259834D01*
X273566Y256425D01*
X270543Y255173D01*
X270423Y255104D01*
X270300Y255039D01*
X270285Y255025D01*
X270267Y255015D01*
X270167Y254918D01*
X270064Y254825D01*
X270053Y254808D01*
X270039Y254794D01*
X269966Y254676D01*
X269890Y254559D01*
X269883Y254540D01*
X269873Y254523D01*
X269832Y254390D01*
X269786Y254258D01*
X269785Y254238D01*
X269779Y254219D01*
X269772Y254080D01*
X269761Y253941D01*
X269765Y253921D01*
X269764Y253901D01*
X269792Y253765D01*
X269816Y253628D01*
X269824Y253609D01*
X269828Y253590D01*
X269889Y253465D01*
X269946Y253338D01*
X269959Y253322D01*
X269968Y253304D01*
X270058Y253198D01*
X270145Y253090D01*
X270161Y253077D01*
X270174Y253062D01*
X270288Y252982D01*
X270399Y252898D01*
X270424Y252886D01*
X270434Y252879D01*
X270453Y252872D01*
X270543Y252827D01*
X273566Y251575D01*
X276975Y248166D01*
X278821Y243711D01*
X278821Y238889D01*
X276975Y234434D01*
X274572Y232031D01*
X274542Y231992D01*
X274505Y231958D01*
X274445Y231866D01*
X274377Y231780D01*
X274358Y231734D01*
X274330Y231693D01*
X274295Y231589D01*
X274251Y231488D01*
X274243Y231439D01*
X274227Y231392D01*
X274218Y231282D01*
X274201Y231174D01*
X274206Y231124D01*
X274202Y231075D01*
X274221Y230967D01*
X274231Y230857D01*
X274248Y230810D01*
X274256Y230761D01*
X274301Y230661D01*
X274339Y230558D01*
X274367Y230517D01*
X274387Y230471D01*
X274455Y230386D01*
X274517Y230295D01*
X274554Y230262D01*
X274585Y230223D01*
X274673Y230157D01*
X274756Y230084D01*
X274800Y230062D01*
X274840Y230032D01*
X274984Y229961D01*
X275854Y229600D01*
X280400Y225054D01*
X282861Y219115D01*
X282861Y212685D01*
X280400Y206746D01*
X275854Y202200D01*
X269915Y199739D01*
X263485Y199739D01*
X257546Y202200D01*
X253000Y206746D01*
X250539Y212685D01*
X250539Y219115D01*
X253000Y225054D01*
X257546Y229600D01*
X258416Y229961D01*
X258459Y229985D01*
X258506Y230002D01*
X258597Y230064D01*
X258692Y230118D01*
X258728Y230153D01*
X258769Y230181D01*
X258842Y230263D01*
X258921Y230340D01*
X258947Y230382D01*
X258979Y230419D01*
X259029Y230517D01*
X259087Y230611D01*
X259101Y230658D01*
X259124Y230703D01*
X259148Y230810D01*
X259180Y230915D01*
X259183Y230964D01*
X259194Y231013D01*
X259190Y231123D01*
X259196Y231232D01*
X259186Y231281D01*
X259184Y231331D01*
X259153Y231437D01*
X259131Y231544D01*
X259109Y231588D01*
X259096Y231636D01*
X259040Y231731D01*
X258992Y231830D01*
X258959Y231867D01*
X258934Y231910D01*
X258828Y232031D01*
X256425Y234434D01*
X254579Y238889D01*
X254579Y243711D01*
X256425Y248166D01*
X259834Y251575D01*
X262857Y252827D01*
X262977Y252896D01*
X263100Y252961D01*
X263115Y252975D01*
X263133Y252985D01*
X263233Y253082D01*
X263336Y253175D01*
X263347Y253192D01*
X263361Y253206D01*
X263434Y253325D01*
X263510Y253441D01*
X263517Y253460D01*
X263527Y253477D01*
X263568Y253610D01*
X263614Y253742D01*
X263615Y253762D01*
X263621Y253781D01*
X263628Y253920D01*
X263639Y254059D01*
X263635Y254079D01*
X263636Y254099D01*
X263608Y254235D01*
X263584Y254372D01*
X263576Y254391D01*
X263572Y254410D01*
X263511Y254536D01*
X263454Y254662D01*
X263441Y254678D01*
X263432Y254696D01*
X263342Y254802D01*
X263255Y254910D01*
X263239Y254923D01*
X263226Y254938D01*
X263112Y255018D01*
X263001Y255102D01*
X262976Y255114D01*
X262966Y255121D01*
X262947Y255128D01*
X262857Y255173D01*
X259834Y256425D01*
X256425Y259834D01*
X254579Y264289D01*
X254579Y269111D01*
X256425Y273566D01*
X259834Y276975D01*
X262857Y278227D01*
X262977Y278296D01*
X263100Y278361D01*
X263115Y278375D01*
X263133Y278385D01*
X263233Y278482D01*
X263336Y278575D01*
X263347Y278592D01*
X263361Y278606D01*
X263434Y278725D01*
X263510Y278841D01*
X263517Y278860D01*
X263527Y278877D01*
X263568Y279010D01*
X263614Y279142D01*
X263615Y279162D01*
X263621Y279181D01*
X263628Y279320D01*
X263639Y279459D01*
X263635Y279479D01*
X263636Y279499D01*
X263608Y279635D01*
X263584Y279772D01*
X263576Y279791D01*
X263572Y279810D01*
X263511Y279936D01*
X263454Y280062D01*
X263441Y280078D01*
X263432Y280096D01*
X263342Y280202D01*
X263255Y280310D01*
X263239Y280323D01*
X263226Y280338D01*
X263112Y280418D01*
X263001Y280502D01*
X262976Y280514D01*
X262966Y280521D01*
X262947Y280528D01*
X262857Y280573D01*
X259834Y281825D01*
X256425Y285234D01*
X254579Y289689D01*
X254579Y294511D01*
X256425Y298966D01*
X259834Y302375D01*
X262857Y303627D01*
X262977Y303696D01*
X263100Y303761D01*
X263115Y303775D01*
X263133Y303785D01*
X263233Y303882D01*
X263336Y303975D01*
X263347Y303992D01*
X263361Y304006D01*
X263434Y304125D01*
X263510Y304241D01*
X263517Y304260D01*
X263527Y304277D01*
X263568Y304410D01*
X263614Y304542D01*
X263615Y304562D01*
X263621Y304581D01*
X263628Y304720D01*
X263639Y304859D01*
X263635Y304879D01*
X263636Y304899D01*
X263608Y305035D01*
X263584Y305172D01*
X263576Y305191D01*
X263572Y305210D01*
X263511Y305336D01*
X263454Y305462D01*
X263441Y305478D01*
X263432Y305496D01*
X263342Y305602D01*
X263255Y305710D01*
X263239Y305723D01*
X263226Y305738D01*
X263112Y305818D01*
X263001Y305902D01*
X262976Y305914D01*
X262966Y305921D01*
X262947Y305928D01*
X262857Y305973D01*
X259834Y307225D01*
X256425Y310634D01*
X254579Y315089D01*
X254579Y319911D01*
X256425Y324366D01*
X259834Y327775D01*
X262857Y329027D01*
X262977Y329096D01*
X263100Y329161D01*
X263115Y329175D01*
X263133Y329185D01*
X263233Y329282D01*
X263336Y329375D01*
X263347Y329392D01*
X263361Y329406D01*
X263434Y329525D01*
X263510Y329641D01*
X263517Y329660D01*
X263527Y329677D01*
X263568Y329810D01*
X263614Y329942D01*
X263615Y329962D01*
X263621Y329981D01*
X263628Y330120D01*
X263639Y330259D01*
X263635Y330279D01*
X263636Y330299D01*
X263608Y330435D01*
X263584Y330572D01*
X263576Y330591D01*
X263572Y330610D01*
X263511Y330736D01*
X263454Y330862D01*
X263441Y330878D01*
X263432Y330896D01*
X263342Y331002D01*
X263255Y331110D01*
X263239Y331123D01*
X263226Y331138D01*
X263112Y331218D01*
X263001Y331302D01*
X262976Y331314D01*
X262966Y331321D01*
X262947Y331328D01*
X262857Y331373D01*
X259834Y332625D01*
X256425Y336034D01*
X254579Y340489D01*
X254579Y343844D01*
X254564Y343962D01*
X254557Y344081D01*
X254544Y344119D01*
X254539Y344160D01*
X254496Y344270D01*
X254459Y344383D01*
X254437Y344418D01*
X254422Y344455D01*
X254353Y344551D01*
X254289Y344652D01*
X254259Y344680D01*
X254236Y344713D01*
X254144Y344789D01*
X254057Y344870D01*
X254022Y344890D01*
X253991Y344915D01*
X253883Y344966D01*
X253779Y345024D01*
X253739Y345034D01*
X253703Y345051D01*
X253586Y345073D01*
X253471Y345103D01*
X253411Y345107D01*
X253391Y345111D01*
X253370Y345109D01*
X253310Y345113D01*
X207478Y345113D01*
X203651Y346699D01*
X200721Y349629D01*
X199135Y353456D01*
X199135Y471410D01*
X199123Y471509D01*
X199120Y471608D01*
X199103Y471666D01*
X199095Y471726D01*
X199059Y471818D01*
X199031Y471913D01*
X199001Y471965D01*
X198978Y472022D01*
X198920Y472102D01*
X198870Y472187D01*
X198804Y472262D01*
X198792Y472279D01*
X198782Y472287D01*
X198764Y472308D01*
X128046Y543026D01*
X128006Y543056D01*
X127973Y543093D01*
X127881Y543153D01*
X127794Y543221D01*
X127749Y543240D01*
X127707Y543268D01*
X127603Y543303D01*
X127502Y543347D01*
X127453Y543355D01*
X127406Y543371D01*
X127297Y543380D01*
X127188Y543397D01*
X127139Y543392D01*
X127089Y543396D01*
X126981Y543377D01*
X126872Y543367D01*
X126825Y543350D01*
X126776Y543342D01*
X126676Y543297D01*
X126572Y543260D01*
X126531Y543232D01*
X126486Y543211D01*
X126400Y543143D01*
X126309Y543081D01*
X126276Y543044D01*
X126238Y543013D01*
X126171Y542925D01*
X126099Y542842D01*
X126076Y542798D01*
X126046Y542759D01*
X125975Y542614D01*
X124575Y539234D01*
X121166Y535825D01*
X118143Y534573D01*
X118023Y534504D01*
X117900Y534439D01*
X117885Y534425D01*
X117867Y534415D01*
X117767Y534318D01*
X117664Y534225D01*
X117653Y534208D01*
X117639Y534194D01*
X117566Y534076D01*
X117490Y533959D01*
X117483Y533940D01*
X117473Y533923D01*
X117432Y533790D01*
X117386Y533658D01*
X117385Y533638D01*
X117379Y533619D01*
X117372Y533480D01*
X117361Y533341D01*
X117365Y533321D01*
X117364Y533301D01*
X117392Y533165D01*
X117416Y533028D01*
X117424Y533009D01*
X117428Y532990D01*
X117489Y532865D01*
X117546Y532738D01*
X117559Y532722D01*
X117568Y532704D01*
X117658Y532598D01*
X117745Y532490D01*
X117761Y532477D01*
X117774Y532462D01*
X117888Y532382D01*
X117999Y532298D01*
X118024Y532286D01*
X118034Y532279D01*
X118053Y532272D01*
X118143Y532227D01*
X121166Y530975D01*
X124575Y527566D01*
X126421Y523111D01*
X126421Y518289D01*
X124575Y513834D01*
X121166Y510425D01*
X118143Y509173D01*
X118023Y509104D01*
X117900Y509039D01*
X117885Y509025D01*
X117867Y509015D01*
X117767Y508918D01*
X117664Y508825D01*
X117653Y508808D01*
X117639Y508794D01*
X117566Y508676D01*
X117490Y508559D01*
X117483Y508540D01*
X117473Y508523D01*
X117432Y508390D01*
X117386Y508258D01*
X117385Y508238D01*
X117379Y508219D01*
X117372Y508080D01*
X117361Y507941D01*
X117365Y507921D01*
X117364Y507901D01*
X117392Y507765D01*
X117416Y507628D01*
X117424Y507609D01*
X117428Y507590D01*
X117489Y507465D01*
X117546Y507338D01*
X117559Y507322D01*
X117568Y507304D01*
X117658Y507198D01*
X117745Y507090D01*
X117761Y507077D01*
X117774Y507062D01*
X117888Y506982D01*
X117999Y506898D01*
X118024Y506886D01*
X118034Y506879D01*
X118053Y506872D01*
X118143Y506827D01*
X121166Y505575D01*
X124575Y502166D01*
X126421Y497711D01*
X126421Y492889D01*
X124575Y488434D01*
X121166Y485025D01*
X118143Y483773D01*
X118023Y483704D01*
X117900Y483639D01*
X117885Y483625D01*
X117867Y483615D01*
X117767Y483518D01*
X117664Y483425D01*
X117653Y483408D01*
X117639Y483394D01*
X117566Y483276D01*
X117490Y483159D01*
X117483Y483140D01*
X117473Y483123D01*
X117432Y482990D01*
X117386Y482858D01*
X117385Y482838D01*
X117379Y482819D01*
X117372Y482680D01*
X117361Y482541D01*
X117365Y482521D01*
X117364Y482501D01*
X117392Y482365D01*
X117416Y482228D01*
X117424Y482209D01*
X117428Y482190D01*
X117489Y482065D01*
X117546Y481938D01*
X117559Y481922D01*
X117568Y481904D01*
X117658Y481798D01*
X117745Y481690D01*
X117761Y481677D01*
X117774Y481662D01*
X117888Y481582D01*
X117999Y481498D01*
X118024Y481486D01*
X118034Y481479D01*
X118053Y481472D01*
X118143Y481427D01*
X121166Y480175D01*
X124575Y476766D01*
X126421Y472311D01*
X126421Y467489D01*
X124575Y463034D01*
X121166Y459625D01*
X118143Y458373D01*
X118023Y458304D01*
X117900Y458239D01*
X117885Y458225D01*
X117867Y458215D01*
X117767Y458118D01*
X117664Y458025D01*
X117653Y458008D01*
X117639Y457994D01*
X117566Y457876D01*
X117490Y457759D01*
X117483Y457740D01*
X117473Y457723D01*
X117432Y457590D01*
X117386Y457458D01*
X117385Y457438D01*
X117379Y457419D01*
X117372Y457280D01*
X117361Y457141D01*
X117365Y457121D01*
X117364Y457101D01*
X117392Y456965D01*
X117416Y456828D01*
X117424Y456809D01*
X117428Y456790D01*
X117489Y456665D01*
X117546Y456538D01*
X117559Y456522D01*
X117568Y456504D01*
X117658Y456398D01*
X117745Y456290D01*
X117761Y456277D01*
X117774Y456262D01*
X117888Y456182D01*
X117999Y456098D01*
X118024Y456086D01*
X118034Y456079D01*
X118053Y456072D01*
X118143Y456027D01*
X121166Y454775D01*
X124575Y451366D01*
X126421Y446911D01*
X126421Y442089D01*
X124575Y437634D01*
X121166Y434225D01*
X118143Y432973D01*
X118023Y432904D01*
X117900Y432839D01*
X117885Y432825D01*
X117867Y432815D01*
X117767Y432718D01*
X117664Y432625D01*
X117653Y432608D01*
X117639Y432594D01*
X117566Y432476D01*
X117490Y432359D01*
X117483Y432340D01*
X117473Y432323D01*
X117432Y432190D01*
X117386Y432058D01*
X117385Y432038D01*
X117379Y432019D01*
X117372Y431880D01*
X117361Y431741D01*
X117365Y431721D01*
X117364Y431701D01*
X117392Y431565D01*
X117416Y431428D01*
X117424Y431409D01*
X117428Y431390D01*
X117489Y431265D01*
X117546Y431138D01*
X117559Y431122D01*
X117568Y431104D01*
X117658Y430998D01*
X117745Y430890D01*
X117761Y430877D01*
X117774Y430862D01*
X117888Y430782D01*
X117999Y430698D01*
X118024Y430686D01*
X118034Y430679D01*
X118053Y430672D01*
X118143Y430627D01*
X121166Y429375D01*
X124575Y425966D01*
X126421Y421511D01*
X126421Y416689D01*
X124575Y412234D01*
X121166Y408825D01*
X118143Y407573D01*
X118023Y407504D01*
X117900Y407439D01*
X117885Y407425D01*
X117867Y407415D01*
X117767Y407318D01*
X117664Y407225D01*
X117653Y407208D01*
X117639Y407194D01*
X117566Y407076D01*
X117490Y406959D01*
X117483Y406940D01*
X117473Y406923D01*
X117432Y406790D01*
X117387Y406658D01*
X117385Y406638D01*
X117379Y406619D01*
X117372Y406480D01*
X117361Y406341D01*
X117365Y406321D01*
X117364Y406301D01*
X117392Y406165D01*
X117416Y406028D01*
X117424Y406010D01*
X117428Y405990D01*
X117489Y405864D01*
X117546Y405738D01*
X117559Y405722D01*
X117568Y405704D01*
X117659Y405598D01*
X117745Y405490D01*
X117761Y405477D01*
X117774Y405462D01*
X117888Y405382D01*
X117999Y405298D01*
X118024Y405286D01*
X118034Y405279D01*
X118053Y405272D01*
X118143Y405227D01*
X121166Y403975D01*
X124575Y400566D01*
X126421Y396111D01*
X126421Y391289D01*
X124575Y386834D01*
X121166Y383425D01*
X118143Y382173D01*
X118023Y382104D01*
X117900Y382039D01*
X117885Y382025D01*
X117867Y382015D01*
X117767Y381918D01*
X117664Y381825D01*
X117653Y381808D01*
X117639Y381794D01*
X117566Y381676D01*
X117490Y381559D01*
X117483Y381540D01*
X117473Y381523D01*
X117432Y381390D01*
X117387Y381258D01*
X117385Y381238D01*
X117379Y381219D01*
X117372Y381080D01*
X117361Y380941D01*
X117365Y380921D01*
X117364Y380901D01*
X117392Y380765D01*
X117416Y380628D01*
X117424Y380610D01*
X117428Y380590D01*
X117489Y380464D01*
X117546Y380338D01*
X117559Y380322D01*
X117568Y380304D01*
X117659Y380198D01*
X117745Y380090D01*
X117761Y380077D01*
X117774Y380062D01*
X117888Y379982D01*
X117999Y379898D01*
X118024Y379886D01*
X118034Y379879D01*
X118053Y379872D01*
X118143Y379827D01*
X121166Y378575D01*
X124575Y375166D01*
X126421Y370711D01*
X126421Y365889D01*
X124575Y361434D01*
X121166Y358025D01*
X118143Y356773D01*
X118023Y356704D01*
X117900Y356639D01*
X117885Y356625D01*
X117867Y356615D01*
X117767Y356518D01*
X117664Y356425D01*
X117653Y356408D01*
X117639Y356394D01*
X117566Y356276D01*
X117490Y356159D01*
X117483Y356140D01*
X117473Y356123D01*
X117432Y355990D01*
X117387Y355858D01*
X117385Y355838D01*
X117379Y355819D01*
X117372Y355680D01*
X117361Y355541D01*
X117365Y355521D01*
X117364Y355501D01*
X117392Y355365D01*
X117416Y355228D01*
X117424Y355210D01*
X117428Y355190D01*
X117489Y355064D01*
X117546Y354938D01*
X117559Y354922D01*
X117568Y354904D01*
X117659Y354798D01*
X117745Y354690D01*
X117761Y354677D01*
X117774Y354662D01*
X117888Y354582D01*
X117999Y354498D01*
X118024Y354486D01*
X118034Y354479D01*
X118053Y354472D01*
X118143Y354427D01*
X121166Y353175D01*
X124575Y349766D01*
X126421Y345311D01*
X126421Y340489D01*
X124575Y336034D01*
X121166Y332625D01*
X116711Y330779D01*
X111889Y330779D01*
X107434Y332625D01*
X104025Y336034D01*
X102179Y340489D01*
X102179Y345311D01*
X104025Y349766D01*
X107434Y353175D01*
X110457Y354427D01*
X110577Y354496D01*
X110700Y354561D01*
X110715Y354575D01*
X110733Y354585D01*
X110833Y354682D01*
X110936Y354775D01*
X110947Y354792D01*
X110961Y354806D01*
X111034Y354925D01*
X111110Y355041D01*
X111117Y355060D01*
X111127Y355077D01*
X111168Y355210D01*
X111213Y355342D01*
X111215Y355362D01*
X111221Y355381D01*
X111228Y355520D01*
X111239Y355659D01*
X111235Y355679D01*
X111236Y355699D01*
X111208Y355835D01*
X111184Y355972D01*
X111176Y355991D01*
X111172Y356010D01*
X111111Y356136D01*
X111054Y356262D01*
X111041Y356278D01*
X111032Y356296D01*
X110942Y356402D01*
X110855Y356510D01*
X110839Y356523D01*
X110826Y356538D01*
X110712Y356618D01*
X110601Y356702D01*
X110576Y356714D01*
X110566Y356721D01*
X110547Y356728D01*
X110457Y356773D01*
X107434Y358025D01*
X104025Y361434D01*
X102179Y365889D01*
X102179Y370711D01*
X104025Y375166D01*
X107434Y378575D01*
X110457Y379827D01*
X110577Y379896D01*
X110700Y379961D01*
X110715Y379975D01*
X110733Y379985D01*
X110833Y380082D01*
X110936Y380175D01*
X110947Y380192D01*
X110961Y380206D01*
X111034Y380325D01*
X111110Y380441D01*
X111117Y380460D01*
X111127Y380477D01*
X111168Y380610D01*
X111213Y380742D01*
X111215Y380762D01*
X111221Y380781D01*
X111228Y380920D01*
X111239Y381059D01*
X111235Y381079D01*
X111236Y381099D01*
X111208Y381235D01*
X111184Y381372D01*
X111176Y381391D01*
X111172Y381410D01*
X111111Y381536D01*
X111054Y381662D01*
X111041Y381678D01*
X111032Y381696D01*
X110942Y381802D01*
X110855Y381910D01*
X110839Y381923D01*
X110826Y381938D01*
X110712Y382018D01*
X110601Y382102D01*
X110576Y382114D01*
X110566Y382121D01*
X110547Y382128D01*
X110457Y382173D01*
X107434Y383425D01*
X104025Y386834D01*
X102179Y391289D01*
X102179Y396111D01*
X104025Y400566D01*
X107434Y403975D01*
X110457Y405227D01*
X110577Y405296D01*
X110700Y405361D01*
X110715Y405375D01*
X110733Y405385D01*
X110833Y405482D01*
X110936Y405575D01*
X110947Y405592D01*
X110961Y405606D01*
X111034Y405725D01*
X111110Y405841D01*
X111117Y405860D01*
X111127Y405877D01*
X111168Y406010D01*
X111213Y406142D01*
X111215Y406162D01*
X111221Y406181D01*
X111228Y406320D01*
X111239Y406459D01*
X111235Y406479D01*
X111236Y406499D01*
X111208Y406635D01*
X111184Y406772D01*
X111176Y406791D01*
X111172Y406810D01*
X111111Y406936D01*
X111054Y407062D01*
X111041Y407078D01*
X111032Y407096D01*
X110942Y407202D01*
X110855Y407310D01*
X110839Y407323D01*
X110826Y407338D01*
X110712Y407418D01*
X110601Y407502D01*
X110576Y407514D01*
X110566Y407521D01*
X110547Y407528D01*
X110457Y407573D01*
X107434Y408825D01*
X104025Y412234D01*
X102179Y416689D01*
X102179Y421511D01*
X104025Y425966D01*
X107434Y429375D01*
X110457Y430627D01*
X110577Y430696D01*
X110700Y430761D01*
X110715Y430775D01*
X110733Y430785D01*
X110833Y430882D01*
X110936Y430975D01*
X110947Y430992D01*
X110961Y431006D01*
X111034Y431125D01*
X111110Y431241D01*
X111117Y431260D01*
X111127Y431277D01*
X111168Y431410D01*
X111214Y431542D01*
X111215Y431562D01*
X111221Y431581D01*
X111228Y431720D01*
X111239Y431859D01*
X111235Y431879D01*
X111236Y431899D01*
X111208Y432035D01*
X111184Y432172D01*
X111176Y432191D01*
X111172Y432210D01*
X111111Y432336D01*
X111054Y432462D01*
X111041Y432478D01*
X111032Y432496D01*
X110942Y432602D01*
X110855Y432710D01*
X110839Y432723D01*
X110826Y432738D01*
X110712Y432818D01*
X110601Y432902D01*
X110576Y432914D01*
X110566Y432921D01*
X110547Y432928D01*
X110457Y432973D01*
X107434Y434225D01*
X106929Y434730D01*
X106851Y434790D01*
X106779Y434858D01*
X106726Y434887D01*
X106678Y434924D01*
X106587Y434964D01*
X106500Y435012D01*
X106442Y435027D01*
X106386Y435051D01*
X106288Y435066D01*
X106192Y435091D01*
X106092Y435097D01*
X106072Y435101D01*
X106060Y435099D01*
X106032Y435101D01*
X71801Y435101D01*
X71703Y435089D01*
X71604Y435086D01*
X71546Y435069D01*
X71485Y435061D01*
X71393Y435025D01*
X71298Y434997D01*
X71246Y434967D01*
X71190Y434944D01*
X71110Y434886D01*
X71024Y434836D01*
X70949Y434770D01*
X70932Y434758D01*
X70925Y434748D01*
X70903Y434730D01*
X68871Y432698D01*
X68798Y432603D01*
X68720Y432514D01*
X68701Y432478D01*
X68677Y432446D01*
X68629Y432337D01*
X68575Y432231D01*
X68566Y432192D01*
X68550Y432154D01*
X68532Y432037D01*
X68505Y431921D01*
X68507Y431880D01*
X68500Y431840D01*
X68512Y431722D01*
X68515Y431603D01*
X68526Y431564D01*
X68530Y431524D01*
X68570Y431411D01*
X68604Y431297D01*
X68624Y431263D01*
X68638Y431224D01*
X68705Y431126D01*
X68765Y431023D01*
X68805Y430978D01*
X68816Y430961D01*
X68832Y430948D01*
X68871Y430903D01*
X72472Y427302D01*
X74677Y421980D01*
X74677Y416220D01*
X72472Y410898D01*
X68400Y406826D01*
X63078Y404621D01*
X38522Y404621D01*
X33200Y406826D01*
X29128Y410898D01*
X26923Y416220D01*
X26923Y421980D01*
X29128Y427302D01*
X32729Y430903D01*
X32802Y430997D01*
X32880Y431086D01*
X32899Y431122D01*
X32923Y431154D01*
X32971Y431263D01*
X33025Y431369D01*
X33034Y431408D01*
X33050Y431446D01*
X33068Y431563D01*
X33095Y431679D01*
X33093Y431720D01*
X33100Y431760D01*
X33088Y431878D01*
X33085Y431997D01*
X33074Y432036D01*
X33070Y432076D01*
X33030Y432189D01*
X32996Y432303D01*
X32976Y432338D01*
X32962Y432376D01*
X32895Y432474D01*
X32835Y432577D01*
X32795Y432622D01*
X32784Y432639D01*
X32768Y432652D01*
X32729Y432698D01*
X29128Y436298D01*
X26923Y441620D01*
X26923Y447380D01*
X29128Y452702D01*
X33200Y456774D01*
X34900Y457478D01*
X35029Y457552D01*
X35160Y457624D01*
X35167Y457631D01*
X35176Y457636D01*
X35284Y457740D01*
X35392Y457841D01*
X35397Y457850D01*
X35405Y457857D01*
X35482Y457984D01*
X35562Y458110D01*
X35565Y458120D01*
X35571Y458128D01*
X35614Y458269D01*
X35661Y458412D01*
X35661Y458422D01*
X35664Y458432D01*
X35671Y458581D01*
X35681Y458730D01*
X35679Y458740D01*
X35680Y458750D01*
X35649Y458896D01*
X35622Y459042D01*
X35617Y459051D01*
X35615Y459061D01*
X35549Y459196D01*
X35487Y459330D01*
X35480Y459338D01*
X35476Y459347D01*
X35378Y459461D01*
X35284Y459575D01*
X35274Y459584D01*
X35269Y459589D01*
X35257Y459598D01*
X35160Y459678D01*
X33625Y460794D01*
X32296Y462122D01*
X31191Y463643D01*
X30338Y465317D01*
X29757Y467104D01*
X29717Y467361D01*
X49530Y467361D01*
X49648Y467376D01*
X49767Y467383D01*
X49805Y467396D01*
X49845Y467401D01*
X49956Y467444D01*
X50069Y467481D01*
X50103Y467503D01*
X50141Y467518D01*
X50237Y467588D01*
X50338Y467651D01*
X50366Y467681D01*
X50398Y467704D01*
X50474Y467796D01*
X50556Y467883D01*
X50575Y467918D01*
X50601Y467949D01*
X50652Y468057D01*
X50709Y468161D01*
X50720Y468201D01*
X50737Y468237D01*
X50759Y468354D01*
X50789Y468469D01*
X50793Y468530D01*
X50797Y468550D01*
X50795Y468570D01*
X50799Y468630D01*
X50799Y469901D01*
X50801Y469901D01*
X50801Y468630D01*
X50816Y468512D01*
X50823Y468393D01*
X50836Y468355D01*
X50841Y468314D01*
X50885Y468204D01*
X50921Y468091D01*
X50943Y468056D01*
X50958Y468019D01*
X51028Y467923D01*
X51091Y467822D01*
X51121Y467794D01*
X51145Y467761D01*
X51236Y467686D01*
X51323Y467604D01*
X51358Y467584D01*
X51390Y467559D01*
X51497Y467508D01*
X51602Y467450D01*
X51641Y467440D01*
X51677Y467423D01*
X51794Y467401D01*
X51909Y467371D01*
X51970Y467367D01*
X51990Y467363D01*
X52010Y467365D01*
X52070Y467361D01*
X71883Y467361D01*
X71843Y467104D01*
X71262Y465317D01*
X70409Y463643D01*
X69304Y462122D01*
X67975Y460794D01*
X66440Y459678D01*
X66332Y459576D01*
X66221Y459476D01*
X66215Y459467D01*
X66208Y459460D01*
X66129Y459335D01*
X66046Y459210D01*
X66043Y459200D01*
X66038Y459192D01*
X65992Y459050D01*
X65943Y458909D01*
X65942Y458899D01*
X65939Y458889D01*
X65930Y458741D01*
X65918Y458592D01*
X65920Y458582D01*
X65919Y458572D01*
X65947Y458426D01*
X65972Y458279D01*
X65977Y458270D01*
X65979Y458259D01*
X66042Y458124D01*
X66103Y457989D01*
X66109Y457981D01*
X66114Y457972D01*
X66209Y457857D01*
X66302Y457741D01*
X66310Y457734D01*
X66316Y457726D01*
X66436Y457639D01*
X66556Y457549D01*
X66568Y457543D01*
X66573Y457539D01*
X66587Y457534D01*
X66700Y457478D01*
X68400Y456774D01*
X70903Y454270D01*
X70982Y454210D01*
X71054Y454142D01*
X71107Y454113D01*
X71155Y454076D01*
X71246Y454036D01*
X71332Y453988D01*
X71391Y453973D01*
X71447Y453949D01*
X71545Y453934D01*
X71640Y453909D01*
X71740Y453903D01*
X71761Y453899D01*
X71773Y453901D01*
X71801Y453899D01*
X106032Y453899D01*
X106130Y453911D01*
X106229Y453914D01*
X106287Y453931D01*
X106347Y453939D01*
X106439Y453975D01*
X106534Y454003D01*
X106587Y454033D01*
X106643Y454056D01*
X106723Y454114D01*
X106808Y454164D01*
X106884Y454230D01*
X106900Y454242D01*
X106908Y454252D01*
X106929Y454270D01*
X107434Y454775D01*
X110457Y456027D01*
X110577Y456096D01*
X110700Y456161D01*
X110715Y456175D01*
X110733Y456185D01*
X110833Y456282D01*
X110936Y456375D01*
X110947Y456392D01*
X110961Y456406D01*
X111034Y456525D01*
X111110Y456641D01*
X111117Y456660D01*
X111127Y456677D01*
X111168Y456810D01*
X111214Y456942D01*
X111215Y456962D01*
X111221Y456981D01*
X111228Y457120D01*
X111239Y457259D01*
X111235Y457279D01*
X111236Y457299D01*
X111208Y457435D01*
X111184Y457572D01*
X111176Y457591D01*
X111172Y457610D01*
X111111Y457736D01*
X111054Y457862D01*
X111041Y457878D01*
X111032Y457896D01*
X110942Y458002D01*
X110855Y458110D01*
X110839Y458123D01*
X110826Y458138D01*
X110712Y458218D01*
X110601Y458302D01*
X110576Y458314D01*
X110566Y458321D01*
X110547Y458328D01*
X110457Y458373D01*
X107434Y459625D01*
X104025Y463034D01*
X102179Y467489D01*
X102179Y472311D01*
X104025Y476766D01*
X107434Y480175D01*
X110457Y481427D01*
X110577Y481496D01*
X110700Y481561D01*
X110715Y481575D01*
X110733Y481585D01*
X110833Y481682D01*
X110936Y481775D01*
X110947Y481792D01*
X110961Y481806D01*
X111034Y481925D01*
X111110Y482041D01*
X111117Y482060D01*
X111127Y482077D01*
X111168Y482210D01*
X111214Y482342D01*
X111215Y482362D01*
X111221Y482381D01*
X111228Y482520D01*
X111239Y482659D01*
X111235Y482679D01*
X111236Y482699D01*
X111208Y482835D01*
X111184Y482972D01*
X111176Y482991D01*
X111172Y483010D01*
X111111Y483136D01*
X111054Y483262D01*
X111041Y483278D01*
X111032Y483296D01*
X110942Y483402D01*
X110855Y483510D01*
X110839Y483523D01*
X110826Y483538D01*
X110712Y483618D01*
X110601Y483702D01*
X110576Y483714D01*
X110566Y483721D01*
X110547Y483728D01*
X110457Y483773D01*
X107434Y485025D01*
X104025Y488434D01*
X102179Y492889D01*
X102179Y497711D01*
X104025Y502166D01*
X107434Y505575D01*
X110457Y506827D01*
X110577Y506896D01*
X110700Y506961D01*
X110715Y506975D01*
X110733Y506985D01*
X110833Y507082D01*
X110936Y507175D01*
X110947Y507192D01*
X110961Y507206D01*
X111034Y507325D01*
X111110Y507441D01*
X111117Y507460D01*
X111127Y507477D01*
X111168Y507610D01*
X111214Y507742D01*
X111215Y507762D01*
X111221Y507781D01*
X111228Y507920D01*
X111239Y508059D01*
X111235Y508079D01*
X111236Y508099D01*
X111208Y508235D01*
X111184Y508372D01*
X111176Y508391D01*
X111172Y508410D01*
X111111Y508536D01*
X111054Y508662D01*
X111041Y508678D01*
X111032Y508696D01*
X110942Y508802D01*
X110855Y508910D01*
X110839Y508923D01*
X110826Y508938D01*
X110712Y509018D01*
X110601Y509102D01*
X110576Y509114D01*
X110566Y509121D01*
X110547Y509128D01*
X110457Y509173D01*
X107434Y510425D01*
X104025Y513834D01*
X102179Y518289D01*
X102179Y523111D01*
X104025Y527566D01*
X107434Y530975D01*
X110457Y532227D01*
X110577Y532296D01*
X110700Y532361D01*
X110715Y532375D01*
X110733Y532385D01*
X110833Y532482D01*
X110936Y532575D01*
X110947Y532592D01*
X110961Y532606D01*
X111034Y532725D01*
X111110Y532841D01*
X111117Y532860D01*
X111127Y532877D01*
X111168Y533010D01*
X111214Y533142D01*
X111215Y533162D01*
X111221Y533181D01*
X111228Y533320D01*
X111239Y533459D01*
X111235Y533479D01*
X111236Y533499D01*
X111208Y533635D01*
X111184Y533772D01*
X111176Y533791D01*
X111172Y533810D01*
X111111Y533936D01*
X111054Y534062D01*
X111041Y534078D01*
X111032Y534096D01*
X110942Y534202D01*
X110855Y534310D01*
X110839Y534323D01*
X110826Y534338D01*
X110712Y534418D01*
X110601Y534502D01*
X110576Y534514D01*
X110566Y534521D01*
X110547Y534528D01*
X110457Y534573D01*
X107434Y535825D01*
X104025Y539234D01*
X102179Y543689D01*
X102179Y548511D01*
X104025Y552966D01*
X107434Y556375D01*
X110457Y557627D01*
X110577Y557696D01*
X110700Y557761D01*
X110715Y557775D01*
X110733Y557785D01*
X110833Y557882D01*
X110936Y557975D01*
X110947Y557992D01*
X110961Y558006D01*
X111034Y558125D01*
X111110Y558241D01*
X111117Y558260D01*
X111127Y558277D01*
X111168Y558410D01*
X111214Y558542D01*
X111215Y558562D01*
X111221Y558581D01*
X111228Y558720D01*
X111239Y558859D01*
X111235Y558879D01*
X111236Y558899D01*
X111208Y559035D01*
X111184Y559172D01*
X111176Y559191D01*
X111172Y559210D01*
X111111Y559336D01*
X111054Y559462D01*
X111041Y559478D01*
X111032Y559496D01*
X110942Y559602D01*
X110855Y559710D01*
X110839Y559723D01*
X110826Y559738D01*
X110712Y559818D01*
X110601Y559902D01*
X110576Y559914D01*
X110566Y559921D01*
X110547Y559928D01*
X110457Y559973D01*
X107434Y561225D01*
X104025Y564634D01*
X102179Y569089D01*
X102179Y573911D01*
X104025Y578366D01*
X107434Y581775D01*
X110457Y583027D01*
X110577Y583096D01*
X110700Y583161D01*
X110715Y583175D01*
X110733Y583185D01*
X110833Y583282D01*
X110936Y583375D01*
X110947Y583392D01*
X110961Y583406D01*
X111034Y583525D01*
X111110Y583641D01*
X111117Y583660D01*
X111127Y583677D01*
X111168Y583810D01*
X111214Y583942D01*
X111215Y583962D01*
X111221Y583981D01*
X111228Y584120D01*
X111239Y584259D01*
X111235Y584279D01*
X111236Y584299D01*
X111208Y584435D01*
X111184Y584572D01*
X111176Y584591D01*
X111172Y584610D01*
X111111Y584736D01*
X111054Y584862D01*
X111041Y584878D01*
X111032Y584896D01*
X110942Y585002D01*
X110855Y585110D01*
X110839Y585123D01*
X110826Y585138D01*
X110712Y585218D01*
X110601Y585302D01*
X110576Y585314D01*
X110566Y585321D01*
X110547Y585328D01*
X110457Y585373D01*
X107434Y586625D01*
X104025Y590034D01*
X102179Y594489D01*
X102179Y599311D01*
X104025Y603766D01*
X107434Y607175D01*
X110457Y608427D01*
X110577Y608496D01*
X110700Y608561D01*
X110715Y608575D01*
X110733Y608585D01*
X110833Y608682D01*
X110936Y608775D01*
X110947Y608792D01*
X110961Y608806D01*
X111034Y608925D01*
X111110Y609041D01*
X111117Y609060D01*
X111127Y609077D01*
X111168Y609210D01*
X111214Y609342D01*
X111215Y609362D01*
X111221Y609381D01*
X111228Y609520D01*
X111239Y609659D01*
X111235Y609679D01*
X111236Y609699D01*
X111208Y609835D01*
X111184Y609972D01*
X111176Y609991D01*
X111172Y610010D01*
X111111Y610136D01*
X111054Y610262D01*
X111041Y610278D01*
X111032Y610296D01*
X110942Y610402D01*
X110855Y610510D01*
X110839Y610523D01*
X110826Y610538D01*
X110712Y610618D01*
X110601Y610702D01*
X110576Y610714D01*
X110566Y610721D01*
X110547Y610728D01*
X110457Y610773D01*
X107434Y612025D01*
X104025Y615434D01*
X102179Y619889D01*
X102179Y624711D01*
X104025Y629166D01*
X107434Y632575D01*
X110457Y633827D01*
X110577Y633896D01*
X110700Y633961D01*
X110715Y633975D01*
X110733Y633985D01*
X110833Y634082D01*
X110936Y634175D01*
X110947Y634192D01*
X110961Y634206D01*
X111034Y634325D01*
X111110Y634441D01*
X111117Y634460D01*
X111127Y634477D01*
X111168Y634610D01*
X111214Y634742D01*
X111215Y634762D01*
X111221Y634781D01*
X111228Y634920D01*
X111239Y635059D01*
X111235Y635079D01*
X111236Y635099D01*
X111208Y635235D01*
X111184Y635372D01*
X111176Y635391D01*
X111172Y635410D01*
X111111Y635536D01*
X111054Y635662D01*
X111041Y635678D01*
X111032Y635696D01*
X110942Y635802D01*
X110855Y635910D01*
X110839Y635923D01*
X110826Y635938D01*
X110712Y636018D01*
X110601Y636102D01*
X110576Y636114D01*
X110566Y636121D01*
X110547Y636128D01*
X110457Y636173D01*
X107434Y637425D01*
X104025Y640834D01*
X102179Y645289D01*
X102179Y650111D01*
X104025Y654566D01*
X106428Y656969D01*
X106458Y657008D01*
X106495Y657042D01*
X106555Y657134D01*
X106623Y657220D01*
X106642Y657266D01*
X106670Y657307D01*
X106705Y657411D01*
X106749Y657512D01*
X106757Y657561D01*
X106773Y657608D01*
X106782Y657718D01*
X106799Y657826D01*
X106794Y657876D01*
X106798Y657925D01*
X106779Y658033D01*
X106769Y658143D01*
X106752Y658190D01*
X106744Y658239D01*
X106699Y658339D01*
X106661Y658442D01*
X106633Y658483D01*
X106613Y658529D01*
X106545Y658614D01*
X106483Y658705D01*
X106446Y658738D01*
X106415Y658777D01*
X106327Y658843D01*
X106244Y658916D01*
X106200Y658938D01*
X106160Y658968D01*
X106016Y659039D01*
X105146Y659400D01*
X100600Y663946D01*
X98139Y669885D01*
X98139Y676315D01*
X100600Y682254D01*
X105146Y686800D01*
X111085Y689261D01*
X117515Y689261D01*
X123454Y686800D01*
X128000Y682254D01*
X130461Y676315D01*
X130461Y669885D01*
X128000Y663946D01*
X123454Y659400D01*
X122584Y659039D01*
X122541Y659015D01*
X122494Y658998D01*
X122403Y658936D01*
X122308Y658882D01*
X122272Y658847D01*
X122231Y658819D01*
X122158Y658737D01*
X122079Y658660D01*
X122053Y658618D01*
X122021Y658581D01*
X121971Y658483D01*
X121913Y658389D01*
X121899Y658342D01*
X121876Y658297D01*
X121852Y658190D01*
X121820Y658085D01*
X121817Y658036D01*
X121806Y657987D01*
X121810Y657877D01*
X121804Y657768D01*
X121814Y657719D01*
X121816Y657669D01*
X121847Y657563D01*
X121869Y657456D01*
X121891Y657412D01*
X121904Y657364D01*
X121960Y657269D01*
X122008Y657170D01*
X122041Y657133D01*
X122066Y657090D01*
X122172Y656969D01*
X124575Y654566D01*
X126421Y650111D01*
X126421Y645289D01*
X124575Y640834D01*
X121166Y637425D01*
X118143Y636173D01*
X118023Y636104D01*
X117900Y636039D01*
X117885Y636025D01*
X117867Y636015D01*
X117767Y635918D01*
X117664Y635825D01*
X117653Y635808D01*
X117639Y635794D01*
X117566Y635676D01*
X117490Y635559D01*
X117483Y635540D01*
X117473Y635523D01*
X117432Y635390D01*
X117386Y635258D01*
X117385Y635238D01*
X117379Y635219D01*
X117372Y635080D01*
X117361Y634941D01*
X117365Y634921D01*
X117364Y634901D01*
X117392Y634765D01*
X117416Y634628D01*
X117424Y634609D01*
X117428Y634590D01*
X117489Y634465D01*
X117546Y634338D01*
X117559Y634322D01*
X117568Y634304D01*
X117658Y634198D01*
X117745Y634090D01*
X117761Y634077D01*
X117774Y634062D01*
X117888Y633982D01*
X117999Y633898D01*
X118024Y633886D01*
X118034Y633879D01*
X118053Y633872D01*
X118143Y633827D01*
X121166Y632575D01*
X124575Y629166D01*
X126421Y624711D01*
X126421Y619889D01*
X124575Y615434D01*
X121166Y612025D01*
X118143Y610773D01*
X118023Y610704D01*
X117900Y610639D01*
X117885Y610625D01*
X117867Y610615D01*
X117767Y610518D01*
X117664Y610425D01*
X117653Y610408D01*
X117639Y610394D01*
X117566Y610276D01*
X117490Y610159D01*
X117483Y610140D01*
X117473Y610123D01*
X117432Y609990D01*
X117386Y609858D01*
X117385Y609838D01*
X117379Y609819D01*
X117372Y609680D01*
X117361Y609541D01*
X117365Y609521D01*
X117364Y609501D01*
X117392Y609365D01*
X117416Y609228D01*
X117424Y609209D01*
X117428Y609190D01*
X117489Y609065D01*
X117546Y608938D01*
X117559Y608922D01*
X117568Y608904D01*
X117658Y608798D01*
X117745Y608690D01*
X117761Y608677D01*
X117774Y608662D01*
X117888Y608582D01*
X117999Y608498D01*
X118024Y608486D01*
X118034Y608479D01*
X118053Y608472D01*
X118143Y608427D01*
X121166Y607175D01*
X124575Y603766D01*
X126421Y599311D01*
X126421Y594489D01*
X124575Y590034D01*
X121166Y586625D01*
X118143Y585373D01*
X118023Y585304D01*
X117900Y585239D01*
X117885Y585225D01*
X117867Y585215D01*
X117767Y585118D01*
X117664Y585025D01*
X117653Y585008D01*
X117639Y584994D01*
X117566Y584876D01*
X117490Y584759D01*
X117483Y584740D01*
X117473Y584723D01*
X117432Y584590D01*
X117386Y584458D01*
X117385Y584438D01*
X117379Y584419D01*
X117372Y584280D01*
X117361Y584141D01*
X117365Y584121D01*
X117364Y584101D01*
X117392Y583965D01*
X117416Y583828D01*
X117424Y583809D01*
X117428Y583790D01*
X117489Y583665D01*
X117546Y583538D01*
X117559Y583522D01*
X117568Y583504D01*
X117658Y583398D01*
X117745Y583290D01*
X117761Y583277D01*
X117774Y583262D01*
X117888Y583182D01*
X117999Y583098D01*
X118024Y583086D01*
X118034Y583079D01*
X118053Y583072D01*
X118143Y583027D01*
X121166Y581775D01*
X124575Y578366D01*
X126185Y574480D01*
X126189Y574472D01*
X126192Y574463D01*
X126200Y574450D01*
X126204Y574438D01*
X126251Y574364D01*
X126268Y574334D01*
X126342Y574204D01*
X126349Y574198D01*
X126354Y574190D01*
X126460Y574069D01*
X218379Y482149D01*
X219965Y478322D01*
X219965Y367212D01*
X219980Y367094D01*
X219987Y366975D01*
X220000Y366937D01*
X220005Y366896D01*
X220048Y366786D01*
X220085Y366673D01*
X220107Y366638D01*
X220122Y366601D01*
X220191Y366505D01*
X220255Y366404D01*
X220285Y366376D01*
X220308Y366343D01*
X220400Y366267D01*
X220487Y366186D01*
X220522Y366166D01*
X220553Y366141D01*
X220661Y366090D01*
X220765Y366032D01*
X220805Y366022D01*
X220841Y366005D01*
X220958Y365983D01*
X221073Y365953D01*
X221133Y365949D01*
X221153Y365945D01*
X221174Y365947D01*
X221234Y365943D01*
X255887Y365943D01*
X255946Y365950D01*
X256006Y365948D01*
X256103Y365970D01*
X256203Y365983D01*
X256258Y366005D01*
X256316Y366018D01*
X256382Y366051D01*
X265720Y366051D01*
X265838Y366066D01*
X265957Y366073D01*
X265995Y366085D01*
X266035Y366091D01*
X266146Y366134D01*
X266259Y366171D01*
X266293Y366193D01*
X266331Y366208D01*
X266427Y366277D01*
X266528Y366341D01*
X266556Y366371D01*
X266588Y366394D01*
X266664Y366486D01*
X266696Y366520D01*
X266701Y366512D01*
X266731Y366484D01*
X266755Y366451D01*
X266846Y366375D01*
X266933Y366294D01*
X266968Y366274D01*
X267000Y366249D01*
X267107Y366198D01*
X267212Y366140D01*
X267251Y366130D01*
X267287Y366113D01*
X267404Y366091D01*
X267520Y366061D01*
X267580Y366057D01*
X267600Y366053D01*
X267620Y366055D01*
X267680Y366051D01*
X276056Y366051D01*
X276055Y366015D01*
X276044Y365887D01*
X276050Y365857D01*
X276049Y365826D01*
X276077Y365700D01*
X276099Y365573D01*
X276111Y365546D01*
X276118Y365516D01*
X276176Y365401D01*
X276229Y365283D01*
X276248Y365260D01*
X276262Y365232D01*
X276347Y365136D01*
X276428Y365035D01*
X276452Y365017D01*
X276473Y364994D01*
X276579Y364921D01*
X276682Y364844D01*
X276721Y364824D01*
X276735Y364815D01*
X276756Y364808D01*
X276827Y364773D01*
X277830Y364357D01*
X313901Y328286D01*
X313979Y328226D01*
X314051Y328158D01*
X314104Y328129D01*
X314152Y328092D01*
X314243Y328052D01*
X314330Y328004D01*
X314388Y327989D01*
X314444Y327965D01*
X314542Y327950D01*
X314638Y327925D01*
X314738Y327919D01*
X314758Y327915D01*
X314770Y327917D01*
X314798Y327915D01*
X382855Y327915D01*
X382953Y327927D01*
X383052Y327930D01*
X383110Y327947D01*
X383170Y327955D01*
X383262Y327991D01*
X383357Y328019D01*
X383409Y328049D01*
X383466Y328072D01*
X383546Y328130D01*
X383631Y328180D01*
X383707Y328246D01*
X383723Y328258D01*
X383731Y328268D01*
X383752Y328286D01*
X384261Y328795D01*
X384822Y329027D01*
X384943Y329096D01*
X385065Y329161D01*
X385080Y329175D01*
X385098Y329185D01*
X385198Y329282D01*
X385301Y329375D01*
X385312Y329392D01*
X385326Y329406D01*
X385399Y329524D01*
X385476Y329641D01*
X385482Y329660D01*
X385493Y329677D01*
X385533Y329810D01*
X385579Y329942D01*
X385580Y329962D01*
X385586Y329981D01*
X385593Y330120D01*
X385604Y330259D01*
X385600Y330279D01*
X385601Y330299D01*
X385573Y330435D01*
X385549Y330572D01*
X385541Y330590D01*
X385537Y330610D01*
X385476Y330736D01*
X385419Y330862D01*
X385406Y330878D01*
X385397Y330896D01*
X385307Y331002D01*
X385220Y331110D01*
X385204Y331123D01*
X385191Y331138D01*
X385077Y331218D01*
X384966Y331302D01*
X384941Y331314D01*
X384931Y331321D01*
X384912Y331328D01*
X384822Y331373D01*
X384260Y331605D01*
X380513Y335353D01*
X378484Y340250D01*
X378484Y345550D01*
X380513Y350447D01*
X384261Y354195D01*
X384822Y354427D01*
X384943Y354496D01*
X385065Y354561D01*
X385080Y354575D01*
X385098Y354585D01*
X385198Y354682D01*
X385301Y354775D01*
X385312Y354792D01*
X385326Y354806D01*
X385399Y354925D01*
X385476Y355041D01*
X385482Y355060D01*
X385493Y355077D01*
X385533Y355210D01*
X385579Y355342D01*
X385580Y355362D01*
X385586Y355381D01*
X385593Y355520D01*
X385604Y355659D01*
X385600Y355679D01*
X385601Y355699D01*
X385573Y355835D01*
X385549Y355972D01*
X385541Y355990D01*
X385537Y356010D01*
X385476Y356136D01*
X385419Y356262D01*
X385406Y356278D01*
X385397Y356296D01*
X385307Y356402D01*
X385220Y356510D01*
X385204Y356523D01*
X385191Y356538D01*
X385077Y356618D01*
X384966Y356702D01*
X384941Y356714D01*
X384931Y356721D01*
X384912Y356728D01*
X384822Y356773D01*
X384260Y357005D01*
X380513Y360753D01*
X378484Y365650D01*
X378484Y370950D01*
X380513Y375847D01*
X384261Y379595D01*
X384822Y379827D01*
X384943Y379896D01*
X385065Y379961D01*
X385080Y379975D01*
X385098Y379985D01*
X385198Y380082D01*
X385301Y380175D01*
X385312Y380192D01*
X385326Y380206D01*
X385399Y380324D01*
X385476Y380441D01*
X385482Y380460D01*
X385493Y380477D01*
X385533Y380610D01*
X385579Y380742D01*
X385580Y380762D01*
X385586Y380781D01*
X385593Y380920D01*
X385604Y381059D01*
X385600Y381079D01*
X385601Y381099D01*
X385573Y381235D01*
X385549Y381372D01*
X385541Y381390D01*
X385537Y381410D01*
X385476Y381536D01*
X385419Y381662D01*
X385406Y381678D01*
X385397Y381696D01*
X385307Y381802D01*
X385220Y381910D01*
X385204Y381923D01*
X385191Y381938D01*
X385077Y382018D01*
X384966Y382102D01*
X384941Y382114D01*
X384931Y382121D01*
X384912Y382128D01*
X384822Y382173D01*
X384260Y382405D01*
X380513Y386153D01*
X378484Y391050D01*
X378484Y396350D01*
X380513Y401247D01*
X384261Y404995D01*
X389157Y407023D01*
X410943Y407023D01*
X415839Y404995D01*
X419587Y401247D01*
X421616Y396350D01*
X421616Y391050D01*
X419587Y386153D01*
X415840Y382405D01*
X415278Y382173D01*
X415158Y382104D01*
X415035Y382039D01*
X415020Y382025D01*
X415002Y382015D01*
X414902Y381918D01*
X414799Y381825D01*
X414788Y381808D01*
X414774Y381794D01*
X414701Y381675D01*
X414625Y381559D01*
X414618Y381540D01*
X414607Y381523D01*
X414566Y381390D01*
X414521Y381258D01*
X414520Y381238D01*
X414514Y381219D01*
X414507Y381080D01*
X414496Y380941D01*
X414500Y380921D01*
X414499Y380901D01*
X414527Y380765D01*
X414550Y380628D01*
X414559Y380609D01*
X414563Y380590D01*
X414624Y380465D01*
X414681Y380338D01*
X414694Y380322D01*
X414703Y380304D01*
X414793Y380198D01*
X414880Y380090D01*
X414896Y380077D01*
X414909Y380062D01*
X415023Y379982D01*
X415134Y379898D01*
X415159Y379886D01*
X415169Y379879D01*
X415188Y379872D01*
X415278Y379827D01*
X415839Y379595D01*
X419587Y375847D01*
X421616Y370950D01*
X421616Y365650D01*
X419587Y360753D01*
X415840Y357005D01*
X415278Y356773D01*
X415158Y356704D01*
X415035Y356639D01*
X415020Y356625D01*
X415002Y356615D01*
X414902Y356518D01*
X414799Y356425D01*
X414788Y356408D01*
X414774Y356394D01*
X414701Y356275D01*
X414625Y356159D01*
X414618Y356140D01*
X414607Y356123D01*
X414566Y355990D01*
X414521Y355858D01*
X414520Y355838D01*
X414514Y355819D01*
X414507Y355680D01*
X414496Y355541D01*
X414500Y355521D01*
X414499Y355501D01*
X414527Y355365D01*
X414550Y355228D01*
X414559Y355209D01*
X414563Y355190D01*
X414624Y355065D01*
X414681Y354938D01*
X414694Y354922D01*
X414703Y354904D01*
X414793Y354798D01*
X414880Y354690D01*
X414896Y354677D01*
X414909Y354662D01*
X415023Y354582D01*
X415134Y354498D01*
X415159Y354486D01*
X415169Y354479D01*
X415188Y354472D01*
X415278Y354427D01*
X415839Y354195D01*
X419587Y350447D01*
X421616Y345550D01*
X421616Y340250D01*
X419587Y335353D01*
X415840Y331605D01*
X415278Y331373D01*
X415158Y331304D01*
X415035Y331239D01*
X415020Y331225D01*
X415002Y331215D01*
X414902Y331118D01*
X414799Y331025D01*
X414788Y331008D01*
X414774Y330994D01*
X414701Y330875D01*
X414625Y330759D01*
X414618Y330740D01*
X414607Y330723D01*
X414566Y330590D01*
X414521Y330458D01*
X414520Y330438D01*
X414514Y330419D01*
X414507Y330280D01*
X414496Y330141D01*
X414500Y330121D01*
X414499Y330101D01*
X414527Y329965D01*
X414550Y329828D01*
X414559Y329809D01*
X414563Y329790D01*
X414624Y329665D01*
X414681Y329538D01*
X414694Y329522D01*
X414703Y329504D01*
X414793Y329398D01*
X414880Y329290D01*
X414896Y329277D01*
X414909Y329262D01*
X415023Y329182D01*
X415134Y329098D01*
X415159Y329086D01*
X415169Y329079D01*
X415188Y329072D01*
X415278Y329027D01*
X415839Y328795D01*
X419587Y325047D01*
X421616Y320150D01*
X421616Y314850D01*
X419587Y309953D01*
X415840Y306205D01*
X415278Y305973D01*
X415158Y305904D01*
X415035Y305839D01*
X415020Y305825D01*
X415002Y305815D01*
X414902Y305718D01*
X414799Y305625D01*
X414788Y305608D01*
X414774Y305594D01*
X414701Y305475D01*
X414625Y305359D01*
X414618Y305340D01*
X414607Y305323D01*
X414566Y305190D01*
X414521Y305058D01*
X414520Y305038D01*
X414514Y305019D01*
X414507Y304880D01*
X414496Y304741D01*
X414500Y304721D01*
X414499Y304701D01*
X414527Y304565D01*
X414550Y304428D01*
X414559Y304409D01*
X414563Y304390D01*
X414624Y304265D01*
X414681Y304138D01*
X414694Y304122D01*
X414703Y304104D01*
X414793Y303998D01*
X414880Y303890D01*
X414896Y303877D01*
X414909Y303862D01*
X415023Y303782D01*
X415134Y303698D01*
X415159Y303686D01*
X415169Y303679D01*
X415188Y303672D01*
X415278Y303627D01*
X415839Y303395D01*
X419587Y299647D01*
X421616Y294750D01*
X421616Y289450D01*
X419587Y284553D01*
X415840Y280805D01*
X415278Y280573D01*
X415158Y280504D01*
X415035Y280439D01*
X415020Y280425D01*
X415002Y280415D01*
X414902Y280318D01*
X414799Y280225D01*
X414788Y280208D01*
X414774Y280194D01*
X414701Y280075D01*
X414625Y279959D01*
X414618Y279940D01*
X414607Y279923D01*
X414566Y279790D01*
X414521Y279658D01*
X414520Y279638D01*
X414514Y279619D01*
X414507Y279480D01*
X414496Y279341D01*
X414500Y279321D01*
X414499Y279301D01*
X414527Y279165D01*
X414550Y279028D01*
X414559Y279009D01*
X414563Y278990D01*
X414624Y278865D01*
X414681Y278738D01*
X414694Y278722D01*
X414703Y278704D01*
X414793Y278598D01*
X414880Y278490D01*
X414896Y278477D01*
X414909Y278462D01*
X415023Y278382D01*
X415134Y278298D01*
X415159Y278286D01*
X415169Y278279D01*
X415188Y278272D01*
X415278Y278227D01*
X415839Y277995D01*
X419587Y274247D01*
X421616Y269350D01*
X421616Y264050D01*
X419587Y259153D01*
X415840Y255405D01*
X415278Y255173D01*
X415158Y255104D01*
X415035Y255039D01*
X415020Y255025D01*
X415002Y255015D01*
X414902Y254918D01*
X414799Y254825D01*
X414788Y254808D01*
X414774Y254794D01*
X414701Y254675D01*
X414625Y254559D01*
X414618Y254540D01*
X414607Y254523D01*
X414566Y254390D01*
X414521Y254258D01*
X414520Y254238D01*
X414514Y254219D01*
X414507Y254080D01*
X414496Y253941D01*
X414500Y253921D01*
X414499Y253901D01*
X414527Y253765D01*
X414550Y253628D01*
X414559Y253609D01*
X414563Y253590D01*
X414624Y253465D01*
X414681Y253338D01*
X414694Y253322D01*
X414703Y253304D01*
X414793Y253198D01*
X414880Y253090D01*
X414896Y253077D01*
X414909Y253062D01*
X415023Y252982D01*
X415134Y252898D01*
X415159Y252886D01*
X415169Y252879D01*
X415188Y252872D01*
X415278Y252827D01*
X415839Y252595D01*
X419587Y248847D01*
X421616Y243950D01*
X421616Y238650D01*
X419587Y233753D01*
X415839Y230005D01*
X411957Y228397D01*
X411931Y228382D01*
X411903Y228373D01*
X411793Y228303D01*
X411681Y228239D01*
X411659Y228219D01*
X411634Y228203D01*
X411545Y228108D01*
X411452Y228018D01*
X411437Y227993D01*
X411416Y227971D01*
X411354Y227857D01*
X411286Y227747D01*
X411277Y227718D01*
X411263Y227692D01*
X411230Y227567D01*
X411192Y227443D01*
X411191Y227413D01*
X411184Y227384D01*
X411183Y227254D01*
X411177Y227125D01*
X411183Y227096D01*
X411183Y227066D01*
X411215Y226941D01*
X411242Y226814D01*
X411255Y226787D01*
X411262Y226758D01*
X411324Y226645D01*
X411381Y226528D01*
X411401Y226505D01*
X411415Y226479D01*
X411503Y226385D01*
X411588Y226286D01*
X411612Y226269D01*
X411632Y226247D01*
X411742Y226178D01*
X411848Y226103D01*
X411876Y226093D01*
X411901Y226076D01*
X412050Y226017D01*
X412432Y225893D01*
X413944Y225123D01*
X415317Y224125D01*
X416517Y222925D01*
X417515Y221552D01*
X418286Y220039D01*
X418806Y218439D01*
X401320Y218439D01*
X401202Y218424D01*
X401083Y218417D01*
X401045Y218404D01*
X401005Y218399D01*
X400894Y218356D01*
X400781Y218319D01*
X400747Y218297D01*
X400709Y218282D01*
X400613Y218212D01*
X400512Y218149D01*
X400484Y218119D01*
X400452Y218095D01*
X400376Y218004D01*
X400294Y217917D01*
X400275Y217882D01*
X400249Y217851D01*
X400198Y217743D01*
X400141Y217639D01*
X400130Y217599D01*
X400113Y217563D01*
X400091Y217446D01*
X400061Y217331D01*
X400057Y217270D01*
X400053Y217250D01*
X400055Y217230D01*
X400051Y217170D01*
X400051Y214630D01*
X400066Y214512D01*
X400073Y214393D01*
X400086Y214355D01*
X400091Y214314D01*
X400135Y214204D01*
X400171Y214091D01*
X400193Y214056D01*
X400208Y214019D01*
X400278Y213923D01*
X400341Y213822D01*
X400371Y213794D01*
X400395Y213761D01*
X400486Y213686D01*
X400573Y213604D01*
X400608Y213584D01*
X400640Y213559D01*
X400747Y213508D01*
X400852Y213450D01*
X400891Y213440D01*
X400927Y213423D01*
X401044Y213401D01*
X401159Y213371D01*
X401220Y213367D01*
X401240Y213363D01*
X401260Y213365D01*
X401320Y213361D01*
X418806Y213361D01*
X418286Y211761D01*
X417515Y210248D01*
X416517Y208875D01*
X415317Y207675D01*
X413944Y206677D01*
X412432Y205907D01*
X412050Y205783D01*
X412023Y205770D01*
X411994Y205763D01*
X411880Y205703D01*
X411763Y205647D01*
X411740Y205629D01*
X411713Y205614D01*
X411617Y205527D01*
X411518Y205445D01*
X411500Y205421D01*
X411478Y205401D01*
X411407Y205292D01*
X411331Y205188D01*
X411320Y205160D01*
X411303Y205135D01*
X411261Y205012D01*
X411213Y204892D01*
X411210Y204862D01*
X411200Y204834D01*
X411190Y204705D01*
X411173Y204576D01*
X411177Y204547D01*
X411175Y204517D01*
X411197Y204389D01*
X411213Y204261D01*
X411224Y204233D01*
X411229Y204204D01*
X411282Y204085D01*
X411330Y203965D01*
X411347Y203941D01*
X411360Y203914D01*
X411441Y203813D01*
X411517Y203708D01*
X411540Y203689D01*
X411558Y203665D01*
X411662Y203587D01*
X411761Y203505D01*
X411789Y203492D01*
X411812Y203474D01*
X411957Y203403D01*
X415839Y201795D01*
X419587Y198047D01*
X421616Y193150D01*
X421616Y187850D01*
X419587Y182953D01*
X415839Y179205D01*
X411957Y177597D01*
X411931Y177582D01*
X411903Y177573D01*
X411870Y177552D01*
X411851Y177545D01*
X411802Y177509D01*
X411793Y177503D01*
X411681Y177439D01*
X411659Y177419D01*
X411634Y177403D01*
X411545Y177308D01*
X411452Y177218D01*
X411437Y177193D01*
X411416Y177171D01*
X411354Y177057D01*
X411286Y176947D01*
X411277Y176918D01*
X411263Y176892D01*
X411230Y176767D01*
X411192Y176643D01*
X411191Y176613D01*
X411184Y176584D01*
X411183Y176454D01*
X411177Y176325D01*
X411183Y176296D01*
X411183Y176266D01*
X411215Y176141D01*
X411242Y176014D01*
X411255Y175987D01*
X411262Y175958D01*
X411324Y175845D01*
X411381Y175728D01*
X411401Y175705D01*
X411415Y175679D01*
X411503Y175585D01*
X411588Y175486D01*
X411612Y175469D01*
X411632Y175447D01*
X411742Y175378D01*
X411848Y175303D01*
X411876Y175293D01*
X411901Y175276D01*
X412050Y175217D01*
X412432Y175093D01*
X413944Y174323D01*
X415317Y173325D01*
X416517Y172125D01*
X417515Y170752D01*
X418286Y169239D01*
X418806Y167639D01*
X401320Y167639D01*
X401202Y167624D01*
X401083Y167617D01*
X401045Y167604D01*
X401005Y167599D01*
X400894Y167556D01*
X400781Y167519D01*
X400747Y167497D01*
X400709Y167482D01*
X400613Y167412D01*
X400512Y167349D01*
X400484Y167319D01*
X400452Y167295D01*
X400376Y167204D01*
X400294Y167117D01*
X400275Y167082D01*
X400249Y167051D01*
X400198Y166943D01*
X400141Y166839D01*
X400130Y166799D01*
X400113Y166763D01*
X400091Y166646D01*
X400061Y166531D01*
X400057Y166470D01*
X400053Y166450D01*
X400055Y166430D01*
X400051Y166370D01*
X400051Y163830D01*
X400066Y163712D01*
X400073Y163593D01*
X400086Y163555D01*
X400091Y163514D01*
X400135Y163404D01*
X400171Y163291D01*
X400193Y163256D01*
X400208Y163219D01*
X400278Y163123D01*
X400341Y163022D01*
X400371Y162994D01*
X400395Y162961D01*
X400486Y162886D01*
X400573Y162804D01*
X400608Y162784D01*
X400640Y162759D01*
X400747Y162708D01*
X400852Y162650D01*
X400891Y162640D01*
X400927Y162623D01*
X401044Y162601D01*
X401159Y162571D01*
X401220Y162567D01*
X401240Y162563D01*
X401260Y162565D01*
X401320Y162561D01*
X418806Y162561D01*
X418286Y160961D01*
X417515Y159448D01*
X416517Y158075D01*
X416185Y157743D01*
X416100Y157633D01*
X416011Y157526D01*
X416002Y157507D01*
X415990Y157491D01*
X415935Y157364D01*
X415875Y157238D01*
X415872Y157218D01*
X415863Y157199D01*
X415842Y157062D01*
X415816Y156925D01*
X415817Y156905D01*
X415814Y156885D01*
X415827Y156746D01*
X415835Y156608D01*
X415842Y156589D01*
X415843Y156569D01*
X415891Y156437D01*
X415933Y156306D01*
X415944Y156289D01*
X415951Y156269D01*
X416029Y156154D01*
X416103Y156037D01*
X416118Y156023D01*
X416130Y156006D01*
X416234Y155914D01*
X416335Y155819D01*
X416353Y155809D01*
X416368Y155796D01*
X416492Y155732D01*
X416614Y155665D01*
X416633Y155660D01*
X416651Y155651D01*
X416787Y155621D01*
X416922Y155586D01*
X416950Y155584D01*
X416962Y155581D01*
X416982Y155582D01*
X417082Y155576D01*
X856775Y155576D01*
X856784Y155577D01*
X856794Y155576D01*
X856942Y155597D01*
X857091Y155616D01*
X857099Y155619D01*
X857109Y155620D01*
X857261Y155672D01*
X860902Y157181D01*
X891698Y157181D01*
X897975Y154580D01*
X902780Y149775D01*
X905381Y143498D01*
X905381Y136702D01*
X902780Y130425D01*
X897975Y125620D01*
X891698Y123019D01*
X860902Y123019D01*
G37*
%LPD*%
%LPC*%
G36*
X385455Y28574D02*
X385455Y28574D01*
X381954Y30024D01*
X379096Y32882D01*
X379096Y32883D01*
X353195Y58783D01*
X353086Y58868D01*
X352979Y58957D01*
X352960Y58966D01*
X352944Y58978D01*
X352816Y59034D01*
X352691Y59093D01*
X352671Y59096D01*
X352652Y59104D01*
X352514Y59126D01*
X352378Y59152D01*
X352358Y59151D01*
X352338Y59154D01*
X352199Y59141D01*
X352061Y59133D01*
X352042Y59126D01*
X352022Y59124D01*
X351890Y59077D01*
X351759Y59035D01*
X351741Y59024D01*
X351722Y59017D01*
X351607Y58939D01*
X351490Y58864D01*
X351476Y58850D01*
X351459Y58838D01*
X351367Y58734D01*
X351272Y58633D01*
X351262Y58615D01*
X351249Y58600D01*
X351185Y58476D01*
X351118Y58354D01*
X351113Y58335D01*
X351104Y58317D01*
X351074Y58181D01*
X351039Y58046D01*
X351037Y58018D01*
X351034Y58006D01*
X351035Y57986D01*
X351029Y57886D01*
X351029Y57572D01*
X348824Y52250D01*
X344752Y48178D01*
X339430Y45973D01*
X333670Y45973D01*
X328348Y48178D01*
X324747Y51779D01*
X324653Y51852D01*
X324564Y51930D01*
X324528Y51949D01*
X324496Y51973D01*
X324387Y52021D01*
X324281Y52075D01*
X324242Y52084D01*
X324204Y52100D01*
X324087Y52118D01*
X323971Y52145D01*
X323930Y52143D01*
X323890Y52150D01*
X323772Y52138D01*
X323653Y52135D01*
X323614Y52124D01*
X323574Y52120D01*
X323461Y52080D01*
X323347Y52046D01*
X323312Y52026D01*
X323274Y52012D01*
X323176Y51945D01*
X323073Y51885D01*
X323028Y51845D01*
X323011Y51834D01*
X322998Y51818D01*
X322952Y51779D01*
X319352Y48178D01*
X314030Y45973D01*
X308270Y45973D01*
X302948Y48178D01*
X298876Y52250D01*
X296671Y57572D01*
X296671Y82128D01*
X298876Y87450D01*
X301253Y89826D01*
X301313Y89905D01*
X301381Y89977D01*
X301410Y90030D01*
X301447Y90078D01*
X301487Y90169D01*
X301535Y90255D01*
X301550Y90314D01*
X301574Y90370D01*
X301589Y90468D01*
X301614Y90563D01*
X301620Y90663D01*
X301624Y90684D01*
X301622Y90696D01*
X301624Y90724D01*
X301624Y90795D01*
X303074Y94296D01*
X318454Y109676D01*
X321955Y111126D01*
X351145Y111126D01*
X354646Y109676D01*
X378749Y85573D01*
X378788Y85542D01*
X378821Y85506D01*
X378913Y85445D01*
X379000Y85378D01*
X379046Y85358D01*
X379087Y85331D01*
X379191Y85295D01*
X379292Y85252D01*
X379341Y85244D01*
X379388Y85228D01*
X379497Y85219D01*
X379606Y85202D01*
X379655Y85206D01*
X379705Y85202D01*
X379813Y85221D01*
X379922Y85231D01*
X379969Y85248D01*
X380018Y85257D01*
X380118Y85302D01*
X380222Y85339D01*
X380263Y85367D01*
X380308Y85387D01*
X380394Y85456D01*
X380485Y85518D01*
X380518Y85555D01*
X380557Y85586D01*
X380623Y85674D01*
X380695Y85756D01*
X380718Y85800D01*
X380748Y85840D01*
X380819Y85985D01*
X381426Y87450D01*
X385498Y91522D01*
X390820Y93727D01*
X396580Y93727D01*
X401902Y91522D01*
X405502Y87921D01*
X405594Y87851D01*
X405618Y87828D01*
X405623Y87825D01*
X405686Y87770D01*
X405722Y87751D01*
X405754Y87727D01*
X405863Y87679D01*
X405969Y87625D01*
X406008Y87616D01*
X406046Y87600D01*
X406163Y87582D01*
X406279Y87555D01*
X406320Y87557D01*
X406360Y87550D01*
X406478Y87562D01*
X406597Y87565D01*
X406636Y87576D01*
X406676Y87580D01*
X406789Y87620D01*
X406903Y87654D01*
X406937Y87674D01*
X406976Y87688D01*
X407074Y87755D01*
X407177Y87815D01*
X407222Y87855D01*
X407239Y87866D01*
X407252Y87882D01*
X407297Y87921D01*
X410898Y91522D01*
X416220Y93727D01*
X421980Y93727D01*
X427302Y91522D01*
X431374Y87450D01*
X433579Y82128D01*
X433579Y57572D01*
X431374Y52250D01*
X427302Y48178D01*
X421980Y45973D01*
X421920Y45973D01*
X421822Y45961D01*
X421723Y45958D01*
X421665Y45941D01*
X421605Y45933D01*
X421513Y45897D01*
X421418Y45869D01*
X421366Y45839D01*
X421309Y45816D01*
X421229Y45758D01*
X421144Y45708D01*
X421068Y45642D01*
X421052Y45630D01*
X421044Y45620D01*
X421023Y45602D01*
X405446Y30024D01*
X401945Y28574D01*
X385455Y28574D01*
G37*
%LPD*%
%LPC*%
G36*
X59529Y731839D02*
X59529Y731839D01*
X51858Y733895D01*
X44981Y737865D01*
X39365Y743481D01*
X35395Y750358D01*
X33339Y758029D01*
X33339Y765971D01*
X35395Y773642D01*
X39365Y780519D01*
X44981Y786135D01*
X51858Y790105D01*
X59529Y792161D01*
X67471Y792161D01*
X75142Y790105D01*
X82019Y786135D01*
X87635Y780519D01*
X91605Y773642D01*
X93661Y765971D01*
X93661Y758029D01*
X91605Y750358D01*
X87635Y743481D01*
X82019Y737865D01*
X75142Y733895D01*
X67471Y731839D01*
X59529Y731839D01*
G37*
%LPD*%
%LPC*%
G36*
X885029Y731839D02*
X885029Y731839D01*
X877358Y733895D01*
X870481Y737865D01*
X864865Y743481D01*
X860895Y750358D01*
X858839Y758029D01*
X858839Y765971D01*
X860895Y773642D01*
X864865Y780519D01*
X870481Y786135D01*
X877358Y790105D01*
X885029Y792161D01*
X892971Y792161D01*
X900642Y790105D01*
X907519Y786135D01*
X913135Y780519D01*
X917105Y773642D01*
X919161Y765971D01*
X919161Y758029D01*
X917105Y750358D01*
X913135Y743481D01*
X907519Y737865D01*
X900642Y733895D01*
X892971Y731839D01*
X885029Y731839D01*
G37*
%LPD*%
%LPC*%
G36*
X885029Y33339D02*
X885029Y33339D01*
X877358Y35395D01*
X870481Y39365D01*
X864865Y44981D01*
X860895Y51858D01*
X858839Y59529D01*
X858839Y67471D01*
X860895Y75142D01*
X864865Y82019D01*
X870481Y87635D01*
X877358Y91605D01*
X885029Y93661D01*
X892971Y93661D01*
X900642Y91605D01*
X907519Y87635D01*
X913135Y82019D01*
X917105Y75142D01*
X919161Y67471D01*
X919161Y59529D01*
X917105Y51858D01*
X913135Y44981D01*
X907519Y39365D01*
X900642Y35395D01*
X892971Y33339D01*
X885029Y33339D01*
G37*
%LPD*%
%LPC*%
G36*
X59529Y33339D02*
X59529Y33339D01*
X51858Y35395D01*
X44981Y39365D01*
X39365Y44981D01*
X35395Y51858D01*
X33339Y59529D01*
X33339Y67471D01*
X35395Y75142D01*
X39365Y82019D01*
X44981Y87635D01*
X51858Y91605D01*
X59529Y93661D01*
X67471Y93661D01*
X75142Y91605D01*
X82019Y87635D01*
X87635Y82019D01*
X91605Y75142D01*
X93661Y67471D01*
X93661Y59529D01*
X91605Y51858D01*
X87635Y44981D01*
X82019Y39365D01*
X75142Y35395D01*
X67471Y33339D01*
X59529Y33339D01*
G37*
%LPD*%
%LPC*%
G36*
X38522Y506221D02*
X38522Y506221D01*
X33200Y508426D01*
X29128Y512498D01*
X26923Y517820D01*
X26923Y523580D01*
X29128Y528902D01*
X32729Y532503D01*
X32802Y532597D01*
X32880Y532686D01*
X32899Y532722D01*
X32923Y532754D01*
X32971Y532863D01*
X33025Y532969D01*
X33034Y533008D01*
X33050Y533046D01*
X33068Y533163D01*
X33095Y533279D01*
X33093Y533320D01*
X33100Y533360D01*
X33088Y533478D01*
X33085Y533597D01*
X33074Y533636D01*
X33070Y533676D01*
X33030Y533789D01*
X32996Y533903D01*
X32976Y533938D01*
X32962Y533976D01*
X32895Y534074D01*
X32835Y534177D01*
X32795Y534222D01*
X32784Y534239D01*
X32768Y534252D01*
X32729Y534298D01*
X29128Y537898D01*
X26923Y543220D01*
X26923Y548980D01*
X29128Y554302D01*
X33200Y558374D01*
X34900Y559078D01*
X35029Y559152D01*
X35160Y559224D01*
X35167Y559231D01*
X35176Y559236D01*
X35284Y559340D01*
X35392Y559441D01*
X35397Y559450D01*
X35405Y559457D01*
X35482Y559584D01*
X35562Y559710D01*
X35565Y559720D01*
X35571Y559728D01*
X35614Y559870D01*
X35661Y560012D01*
X35661Y560022D01*
X35664Y560032D01*
X35671Y560181D01*
X35681Y560330D01*
X35679Y560340D01*
X35680Y560350D01*
X35649Y560496D01*
X35622Y560642D01*
X35617Y560651D01*
X35615Y560661D01*
X35549Y560796D01*
X35487Y560930D01*
X35480Y560938D01*
X35476Y560947D01*
X35378Y561061D01*
X35284Y561175D01*
X35274Y561184D01*
X35269Y561189D01*
X35257Y561198D01*
X35160Y561278D01*
X33625Y562394D01*
X32296Y563722D01*
X31191Y565243D01*
X30338Y566917D01*
X29757Y568704D01*
X29717Y568961D01*
X49530Y568961D01*
X49648Y568976D01*
X49767Y568983D01*
X49805Y568996D01*
X49845Y569001D01*
X49956Y569044D01*
X50069Y569081D01*
X50103Y569103D01*
X50141Y569118D01*
X50237Y569188D01*
X50338Y569251D01*
X50366Y569281D01*
X50398Y569304D01*
X50474Y569396D01*
X50556Y569483D01*
X50575Y569518D01*
X50601Y569549D01*
X50652Y569657D01*
X50709Y569761D01*
X50720Y569801D01*
X50737Y569837D01*
X50759Y569954D01*
X50789Y570069D01*
X50793Y570130D01*
X50797Y570150D01*
X50795Y570170D01*
X50799Y570230D01*
X50799Y571501D01*
X50801Y571501D01*
X50801Y570230D01*
X50816Y570112D01*
X50823Y569993D01*
X50836Y569955D01*
X50841Y569914D01*
X50885Y569804D01*
X50921Y569691D01*
X50943Y569656D01*
X50958Y569619D01*
X51028Y569523D01*
X51091Y569422D01*
X51121Y569394D01*
X51145Y569361D01*
X51236Y569286D01*
X51323Y569204D01*
X51358Y569184D01*
X51390Y569159D01*
X51497Y569108D01*
X51602Y569050D01*
X51641Y569040D01*
X51677Y569023D01*
X51794Y569001D01*
X51909Y568971D01*
X51970Y568967D01*
X51990Y568963D01*
X52010Y568965D01*
X52070Y568961D01*
X71883Y568961D01*
X71843Y568704D01*
X71262Y566917D01*
X70409Y565243D01*
X69304Y563722D01*
X67975Y562394D01*
X66440Y561278D01*
X66332Y561176D01*
X66221Y561076D01*
X66215Y561067D01*
X66208Y561060D01*
X66129Y560935D01*
X66046Y560810D01*
X66043Y560800D01*
X66038Y560792D01*
X65992Y560650D01*
X65943Y560509D01*
X65942Y560499D01*
X65939Y560489D01*
X65930Y560341D01*
X65918Y560192D01*
X65920Y560182D01*
X65919Y560172D01*
X65947Y560026D01*
X65972Y559879D01*
X65977Y559870D01*
X65979Y559859D01*
X66042Y559724D01*
X66103Y559589D01*
X66109Y559581D01*
X66114Y559572D01*
X66209Y559457D01*
X66302Y559341D01*
X66310Y559334D01*
X66316Y559326D01*
X66436Y559239D01*
X66556Y559149D01*
X66568Y559143D01*
X66573Y559139D01*
X66587Y559134D01*
X66700Y559078D01*
X68400Y558374D01*
X72472Y554302D01*
X74677Y548980D01*
X74677Y543220D01*
X72472Y537898D01*
X68871Y534298D01*
X68799Y534203D01*
X68720Y534114D01*
X68701Y534078D01*
X68677Y534046D01*
X68629Y533937D01*
X68575Y533831D01*
X68566Y533792D01*
X68550Y533754D01*
X68532Y533637D01*
X68505Y533521D01*
X68507Y533480D01*
X68500Y533440D01*
X68512Y533322D01*
X68515Y533203D01*
X68526Y533164D01*
X68530Y533124D01*
X68570Y533012D01*
X68604Y532897D01*
X68624Y532863D01*
X68638Y532824D01*
X68705Y532726D01*
X68765Y532623D01*
X68805Y532578D01*
X68816Y532561D01*
X68832Y532548D01*
X68871Y532503D01*
X69171Y532203D01*
X69179Y532197D01*
X69185Y532190D01*
X69305Y532099D01*
X69314Y532092D01*
X69342Y532066D01*
X69362Y532054D01*
X69423Y532008D01*
X69431Y532004D01*
X69439Y531998D01*
X69583Y531927D01*
X70694Y531467D01*
X74267Y527894D01*
X76201Y523226D01*
X76201Y518174D01*
X74267Y513506D01*
X70694Y509933D01*
X69583Y509473D01*
X69575Y509468D01*
X69566Y509465D01*
X69436Y509389D01*
X69307Y509315D01*
X69300Y509309D01*
X69292Y509304D01*
X69171Y509197D01*
X68400Y508426D01*
X63078Y506221D01*
X38522Y506221D01*
G37*
%LPD*%
G36*
X902869Y353525D02*
X902869Y353525D01*
X903007Y353534D01*
X903026Y353540D01*
X903046Y353542D01*
X903178Y353589D01*
X903309Y353632D01*
X903327Y353643D01*
X903346Y353650D01*
X903461Y353728D01*
X903578Y353802D01*
X903592Y353817D01*
X903609Y353828D01*
X903701Y353932D01*
X903796Y354034D01*
X903806Y354051D01*
X903819Y354067D01*
X903883Y354191D01*
X903950Y354312D01*
X903955Y354332D01*
X903964Y354350D01*
X903994Y354486D01*
X904029Y354620D01*
X904031Y354648D01*
X904034Y354660D01*
X904033Y354681D01*
X904039Y354781D01*
X904039Y381819D01*
X904022Y381957D01*
X904009Y382096D01*
X904002Y382115D01*
X903999Y382135D01*
X903948Y382264D01*
X903901Y382395D01*
X903890Y382412D01*
X903882Y382430D01*
X903801Y382543D01*
X903723Y382658D01*
X903707Y382671D01*
X903696Y382688D01*
X903588Y382777D01*
X903484Y382868D01*
X903466Y382878D01*
X903451Y382891D01*
X903325Y382950D01*
X903201Y383013D01*
X903181Y383018D01*
X903163Y383026D01*
X903027Y383052D01*
X902891Y383083D01*
X902870Y383082D01*
X902851Y383086D01*
X902712Y383077D01*
X902573Y383073D01*
X902553Y383067D01*
X902533Y383066D01*
X902401Y383023D01*
X902267Y382985D01*
X902250Y382974D01*
X902231Y382968D01*
X902113Y382894D01*
X901993Y382823D01*
X901972Y382805D01*
X901962Y382798D01*
X901948Y382783D01*
X901873Y382717D01*
X897975Y378820D01*
X891698Y376219D01*
X886009Y376219D01*
X885999Y376218D01*
X885990Y376219D01*
X885841Y376198D01*
X885693Y376179D01*
X885684Y376176D01*
X885675Y376175D01*
X885523Y376123D01*
X879445Y373605D01*
X777518Y373605D01*
X777420Y373593D01*
X777321Y373590D01*
X777263Y373573D01*
X777203Y373565D01*
X777111Y373529D01*
X777016Y373501D01*
X776963Y373471D01*
X776907Y373448D01*
X776827Y373390D01*
X776742Y373340D01*
X776666Y373274D01*
X776650Y373262D01*
X776642Y373252D01*
X776621Y373234D01*
X761155Y357767D01*
X761070Y357658D01*
X760981Y357551D01*
X760972Y357532D01*
X760960Y357516D01*
X760904Y357388D01*
X760845Y357263D01*
X760842Y357243D01*
X760833Y357224D01*
X760812Y357086D01*
X760786Y356950D01*
X760787Y356930D01*
X760784Y356910D01*
X760797Y356771D01*
X760805Y356633D01*
X760812Y356614D01*
X760813Y356594D01*
X760861Y356462D01*
X760903Y356331D01*
X760914Y356313D01*
X760921Y356294D01*
X760999Y356179D01*
X761074Y356062D01*
X761088Y356048D01*
X761100Y356031D01*
X761204Y355939D01*
X761305Y355844D01*
X761323Y355834D01*
X761338Y355821D01*
X761462Y355757D01*
X761584Y355690D01*
X761603Y355685D01*
X761621Y355676D01*
X761757Y355646D01*
X761892Y355611D01*
X761920Y355609D01*
X761932Y355606D01*
X761952Y355607D01*
X762052Y355601D01*
X851919Y355601D01*
X852017Y355613D01*
X852116Y355616D01*
X852175Y355633D01*
X852235Y355641D01*
X852327Y355677D01*
X852422Y355705D01*
X852474Y355735D01*
X852530Y355758D01*
X852610Y355816D01*
X852696Y355866D01*
X852771Y355932D01*
X852788Y355944D01*
X852796Y355954D01*
X852817Y355972D01*
X854625Y357780D01*
X860902Y360381D01*
X867502Y360381D01*
X867511Y360382D01*
X867521Y360381D01*
X867669Y360402D01*
X867818Y360421D01*
X867826Y360424D01*
X867835Y360425D01*
X867988Y360477D01*
X872511Y362351D01*
X880089Y362351D01*
X884612Y360477D01*
X884621Y360475D01*
X884629Y360470D01*
X884774Y360433D01*
X884919Y360393D01*
X884928Y360393D01*
X884937Y360391D01*
X885098Y360381D01*
X891698Y360381D01*
X897975Y357780D01*
X901873Y353883D01*
X901982Y353798D01*
X902089Y353709D01*
X902108Y353701D01*
X902124Y353688D01*
X902252Y353633D01*
X902377Y353574D01*
X902397Y353570D01*
X902416Y353562D01*
X902554Y353540D01*
X902690Y353514D01*
X902710Y353515D01*
X902730Y353512D01*
X902869Y353525D01*
G37*
%LPC*%
G36*
X149520Y52323D02*
X149520Y52323D01*
X144198Y54528D01*
X140126Y58600D01*
X137921Y63922D01*
X137921Y88478D01*
X140126Y93800D01*
X144198Y97872D01*
X149520Y100077D01*
X155280Y100077D01*
X160602Y97872D01*
X164203Y94271D01*
X164292Y94202D01*
X164321Y94174D01*
X164328Y94171D01*
X164386Y94120D01*
X164422Y94101D01*
X164454Y94077D01*
X164563Y94029D01*
X164669Y93975D01*
X164708Y93966D01*
X164746Y93950D01*
X164863Y93932D01*
X164979Y93905D01*
X165020Y93907D01*
X165060Y93900D01*
X165178Y93912D01*
X165297Y93915D01*
X165336Y93926D01*
X165376Y93930D01*
X165489Y93970D01*
X165603Y94004D01*
X165638Y94024D01*
X165676Y94038D01*
X165774Y94105D01*
X165877Y94165D01*
X165922Y94205D01*
X165939Y94216D01*
X165952Y94232D01*
X165998Y94271D01*
X169598Y97872D01*
X174920Y100077D01*
X180680Y100077D01*
X186002Y97872D01*
X190074Y93800D01*
X192279Y88478D01*
X192279Y63922D01*
X190074Y58600D01*
X186002Y54528D01*
X180680Y52323D01*
X174920Y52323D01*
X169598Y54528D01*
X165998Y58129D01*
X165903Y58202D01*
X165814Y58280D01*
X165778Y58299D01*
X165746Y58323D01*
X165637Y58371D01*
X165531Y58425D01*
X165492Y58434D01*
X165454Y58450D01*
X165337Y58468D01*
X165221Y58495D01*
X165180Y58493D01*
X165140Y58500D01*
X165022Y58488D01*
X164903Y58485D01*
X164864Y58474D01*
X164824Y58470D01*
X164711Y58430D01*
X164597Y58396D01*
X164563Y58376D01*
X164524Y58362D01*
X164426Y58295D01*
X164323Y58235D01*
X164278Y58195D01*
X164261Y58184D01*
X164248Y58168D01*
X164203Y58129D01*
X160602Y54528D01*
X155280Y52323D01*
X149520Y52323D01*
G37*
%LPD*%
%LPC*%
G36*
X657520Y68071D02*
X657520Y68071D01*
X652198Y70276D01*
X648126Y74348D01*
X645921Y79670D01*
X645921Y85430D01*
X648126Y90752D01*
X652198Y94824D01*
X657520Y97029D01*
X663280Y97029D01*
X668602Y94824D01*
X672674Y90752D01*
X674879Y85430D01*
X674879Y79670D01*
X672674Y74348D01*
X668602Y70276D01*
X663280Y68071D01*
X657520Y68071D01*
G37*
%LPD*%
%LPC*%
G36*
X446010Y509015D02*
X446010Y509015D01*
X439165Y515860D01*
X439165Y525540D01*
X446010Y532385D01*
X455690Y532385D01*
X462535Y525540D01*
X462535Y515860D01*
X455690Y509015D01*
X446010Y509015D01*
G37*
%LPD*%
%LPC*%
G36*
X172960Y134365D02*
X172960Y134365D01*
X166115Y141210D01*
X166115Y150890D01*
X172960Y157735D01*
X182640Y157735D01*
X189485Y150890D01*
X189485Y141210D01*
X182640Y134365D01*
X172960Y134365D01*
G37*
%LPD*%
%LPC*%
G36*
X446010Y547115D02*
X446010Y547115D01*
X439165Y553960D01*
X439165Y563640D01*
X446010Y570485D01*
X455690Y570485D01*
X462535Y563640D01*
X462535Y553960D01*
X455690Y547115D01*
X446010Y547115D01*
G37*
%LPD*%
%LPC*%
G36*
X573010Y420115D02*
X573010Y420115D01*
X566165Y426960D01*
X566165Y436640D01*
X573010Y443485D01*
X582690Y443485D01*
X589535Y436640D01*
X589535Y426960D01*
X582690Y420115D01*
X573010Y420115D01*
G37*
%LPD*%
%LPC*%
G36*
X446010Y420115D02*
X446010Y420115D01*
X439165Y426960D01*
X439165Y436640D01*
X446010Y443485D01*
X455690Y443485D01*
X462535Y436640D01*
X462535Y426960D01*
X455690Y420115D01*
X446010Y420115D01*
G37*
%LPD*%
%LPC*%
G36*
X446010Y458215D02*
X446010Y458215D01*
X439165Y465060D01*
X439165Y474740D01*
X446010Y481585D01*
X455690Y481585D01*
X462535Y474740D01*
X462535Y465060D01*
X455690Y458215D01*
X446010Y458215D01*
G37*
%LPD*%
%LPC*%
G36*
X331259Y432364D02*
X331259Y432364D01*
X324414Y439209D01*
X324414Y448889D01*
X331259Y455733D01*
X340939Y455733D01*
X347783Y448889D01*
X347783Y439209D01*
X340939Y432364D01*
X331259Y432364D01*
G37*
%LPD*%
%LPC*%
G36*
X324909Y387914D02*
X324909Y387914D01*
X318064Y394759D01*
X318064Y404439D01*
X324909Y411283D01*
X334589Y411283D01*
X341433Y404439D01*
X341433Y394759D01*
X334589Y387914D01*
X324909Y387914D01*
G37*
%LPD*%
%LPC*%
G36*
X878839Y192639D02*
X878839Y192639D01*
X878839Y204641D01*
X889444Y204641D01*
X891705Y204283D01*
X893882Y203575D01*
X895921Y202536D01*
X897773Y201191D01*
X899391Y199573D01*
X900736Y197721D01*
X901775Y195682D01*
X902483Y193505D01*
X902620Y192639D01*
X878839Y192639D01*
G37*
%LPD*%
%LPC*%
G36*
X849980Y294239D02*
X849980Y294239D01*
X850117Y295105D01*
X850825Y297282D01*
X851864Y299321D01*
X853209Y301173D01*
X854827Y302791D01*
X856679Y304136D01*
X858718Y305175D01*
X860895Y305883D01*
X863156Y306241D01*
X873761Y306241D01*
X873761Y294239D01*
X849980Y294239D01*
G37*
%LPD*%
%LPC*%
G36*
X849980Y192639D02*
X849980Y192639D01*
X850117Y193505D01*
X850825Y195682D01*
X851864Y197721D01*
X853209Y199573D01*
X854827Y201191D01*
X856679Y202536D01*
X858718Y203575D01*
X860895Y204283D01*
X863156Y204641D01*
X873761Y204641D01*
X873761Y192639D01*
X849980Y192639D01*
G37*
%LPD*%
%LPC*%
G36*
X878839Y175559D02*
X878839Y175559D01*
X878839Y187561D01*
X902620Y187561D01*
X902483Y186695D01*
X901775Y184518D01*
X900736Y182479D01*
X899391Y180627D01*
X897773Y179009D01*
X895921Y177664D01*
X893882Y176625D01*
X891705Y175917D01*
X889444Y175559D01*
X878839Y175559D01*
G37*
%LPD*%
%LPC*%
G36*
X863156Y175559D02*
X863156Y175559D01*
X860895Y175917D01*
X858718Y176625D01*
X856679Y177664D01*
X854827Y179009D01*
X853209Y180627D01*
X851864Y182479D01*
X850825Y184518D01*
X850117Y186695D01*
X849980Y187561D01*
X873761Y187561D01*
X873761Y175559D01*
X863156Y175559D01*
G37*
%LPD*%
%LPC*%
G36*
X863156Y277159D02*
X863156Y277159D01*
X860895Y277517D01*
X858718Y278225D01*
X856679Y279264D01*
X854827Y280609D01*
X853209Y282227D01*
X851864Y284079D01*
X850825Y286118D01*
X850117Y288295D01*
X849980Y289161D01*
X873761Y289161D01*
X873761Y277159D01*
X863156Y277159D01*
G37*
%LPD*%
%LPC*%
G36*
X53339Y574039D02*
X53339Y574039D01*
X53339Y583439D01*
X61138Y583439D01*
X62994Y583145D01*
X64781Y582564D01*
X66455Y581711D01*
X67976Y580606D01*
X69304Y579278D01*
X70409Y577757D01*
X71262Y576083D01*
X71843Y574296D01*
X71883Y574039D01*
X53339Y574039D01*
G37*
%LPD*%
%LPC*%
G36*
X53339Y472439D02*
X53339Y472439D01*
X53339Y481839D01*
X61138Y481839D01*
X62994Y481545D01*
X64781Y480964D01*
X66455Y480111D01*
X67976Y479006D01*
X69304Y477678D01*
X70409Y476157D01*
X71262Y474483D01*
X71843Y472696D01*
X71883Y472439D01*
X53339Y472439D01*
G37*
%LPD*%
%LPC*%
G36*
X29717Y574039D02*
X29717Y574039D01*
X29757Y574296D01*
X30338Y576083D01*
X31191Y577757D01*
X32296Y579278D01*
X33624Y580606D01*
X35145Y581711D01*
X36819Y582564D01*
X38606Y583145D01*
X40462Y583439D01*
X48261Y583439D01*
X48261Y574039D01*
X29717Y574039D01*
G37*
%LPD*%
%LPC*%
G36*
X29717Y472439D02*
X29717Y472439D01*
X29757Y472696D01*
X30338Y474483D01*
X31191Y476157D01*
X32296Y477678D01*
X33624Y479006D01*
X35145Y480111D01*
X36819Y480964D01*
X38606Y481545D01*
X40462Y481839D01*
X48261Y481839D01*
X48261Y472439D01*
X29717Y472439D01*
G37*
%LPD*%
%LPC*%
G36*
X732789Y269239D02*
X732789Y269239D01*
X732789Y277483D01*
X739341Y277483D01*
X741018Y277218D01*
X742632Y276693D01*
X744144Y275923D01*
X745517Y274925D01*
X746717Y273725D01*
X747715Y272352D01*
X748486Y270839D01*
X749006Y269239D01*
X732789Y269239D01*
G37*
%LPD*%
%LPC*%
G36*
X711494Y269239D02*
X711494Y269239D01*
X712014Y270839D01*
X712785Y272352D01*
X713783Y273725D01*
X714983Y274925D01*
X716356Y275923D01*
X717868Y276693D01*
X719482Y277218D01*
X721159Y277483D01*
X727711Y277483D01*
X727711Y269239D01*
X711494Y269239D01*
G37*
%LPD*%
%LPC*%
G36*
X732789Y281317D02*
X732789Y281317D01*
X732789Y289561D01*
X749006Y289561D01*
X748486Y287961D01*
X747715Y286448D01*
X746717Y285075D01*
X745517Y283875D01*
X744144Y282877D01*
X742632Y282107D01*
X741018Y281582D01*
X739341Y281317D01*
X732789Y281317D01*
G37*
%LPD*%
%LPC*%
G36*
X721159Y281317D02*
X721159Y281317D01*
X719482Y281582D01*
X717868Y282107D01*
X716356Y282877D01*
X714983Y283875D01*
X713783Y285075D01*
X712785Y286448D01*
X712014Y287961D01*
X711494Y289561D01*
X727711Y289561D01*
X727711Y281317D01*
X721159Y281317D01*
G37*
%LPD*%
%LPC*%
G36*
X726249Y486219D02*
X726249Y486219D01*
X726249Y493301D01*
X739667Y493301D01*
X739647Y493174D01*
X739205Y491814D01*
X738557Y490541D01*
X737716Y489384D01*
X736706Y488374D01*
X735549Y487533D01*
X734276Y486885D01*
X732916Y486443D01*
X731505Y486219D01*
X726249Y486219D01*
G37*
%LPD*%
%LPC*%
G36*
X716995Y486219D02*
X716995Y486219D01*
X715584Y486443D01*
X714224Y486885D01*
X712951Y487533D01*
X711794Y488374D01*
X710784Y489384D01*
X709943Y490541D01*
X709295Y491814D01*
X708853Y493174D01*
X708833Y493301D01*
X722251Y493301D01*
X722251Y486219D01*
X716995Y486219D01*
G37*
%LPD*%
%LPC*%
G36*
X516381Y751331D02*
X516381Y751331D01*
X516381Y758445D01*
X518138Y758445D01*
X523495Y753088D01*
X523495Y751331D01*
X516381Y751331D01*
G37*
%LPD*%
%LPC*%
G36*
X52831Y148081D02*
X52831Y148081D01*
X52831Y155195D01*
X54588Y155195D01*
X59945Y149838D01*
X59945Y148081D01*
X52831Y148081D01*
G37*
%LPD*%
%LPC*%
G36*
X579881Y560831D02*
X579881Y560831D01*
X579881Y567945D01*
X581638Y567945D01*
X586995Y562588D01*
X586995Y560831D01*
X579881Y560831D01*
G37*
%LPD*%
%LPC*%
G36*
X41655Y148081D02*
X41655Y148081D01*
X41655Y149838D01*
X47012Y155195D01*
X48769Y155195D01*
X48769Y148081D01*
X41655Y148081D01*
G37*
%LPD*%
%LPC*%
G36*
X568705Y560831D02*
X568705Y560831D01*
X568705Y562588D01*
X574062Y567945D01*
X575819Y567945D01*
X575819Y560831D01*
X568705Y560831D01*
G37*
%LPD*%
%LPC*%
G36*
X505205Y751331D02*
X505205Y751331D01*
X505205Y753088D01*
X510562Y758445D01*
X512319Y758445D01*
X512319Y751331D01*
X505205Y751331D01*
G37*
%LPD*%
%LPC*%
G36*
X579881Y549655D02*
X579881Y549655D01*
X579881Y556769D01*
X586995Y556769D01*
X586995Y555012D01*
X581638Y549655D01*
X579881Y549655D01*
G37*
%LPD*%
%LPC*%
G36*
X516381Y740155D02*
X516381Y740155D01*
X516381Y747269D01*
X523495Y747269D01*
X523495Y745512D01*
X518138Y740155D01*
X516381Y740155D01*
G37*
%LPD*%
%LPC*%
G36*
X52831Y136905D02*
X52831Y136905D01*
X52831Y144019D01*
X59945Y144019D01*
X59945Y142262D01*
X54588Y136905D01*
X52831Y136905D01*
G37*
%LPD*%
%LPC*%
G36*
X510562Y740155D02*
X510562Y740155D01*
X505205Y745512D01*
X505205Y747269D01*
X512319Y747269D01*
X512319Y740155D01*
X510562Y740155D01*
G37*
%LPD*%
%LPC*%
G36*
X574062Y549655D02*
X574062Y549655D01*
X568705Y555012D01*
X568705Y556769D01*
X575819Y556769D01*
X575819Y549655D01*
X574062Y549655D01*
G37*
%LPD*%
%LPC*%
G36*
X47012Y136905D02*
X47012Y136905D01*
X41655Y142262D01*
X41655Y144019D01*
X48769Y144019D01*
X48769Y136905D01*
X47012Y136905D01*
G37*
%LPD*%
%LPC*%
G36*
X420871Y541754D02*
X420871Y541754D01*
X422113Y542996D01*
X429689Y542996D01*
X430931Y541754D01*
X425901Y536724D01*
X420871Y541754D01*
G37*
%LPD*%
%LPC*%
G36*
X422424Y489401D02*
X422424Y489401D01*
X427454Y494431D01*
X428696Y493189D01*
X428696Y485613D01*
X427454Y484371D01*
X422424Y489401D01*
G37*
%LPD*%
%LPC*%
G36*
X414521Y497304D02*
X414521Y497304D01*
X415763Y498546D01*
X423339Y498546D01*
X424581Y497304D01*
X419551Y492274D01*
X414521Y497304D01*
G37*
%LPD*%
%LPC*%
G36*
X428774Y533851D02*
X428774Y533851D01*
X433804Y538881D01*
X435046Y537639D01*
X435046Y530063D01*
X433804Y528821D01*
X428774Y533851D01*
G37*
%LPD*%
%LPC*%
G36*
X415763Y480257D02*
X415763Y480257D01*
X414521Y481499D01*
X419551Y486529D01*
X424581Y481499D01*
X423339Y480257D01*
X415763Y480257D01*
G37*
%LPD*%
%LPC*%
G36*
X410407Y485613D02*
X410407Y485613D01*
X410407Y493189D01*
X411649Y494431D01*
X416679Y489401D01*
X411649Y484371D01*
X410407Y485613D01*
G37*
%LPD*%
%LPC*%
G36*
X422113Y524707D02*
X422113Y524707D01*
X420871Y525949D01*
X425901Y530979D01*
X430931Y525949D01*
X429689Y524707D01*
X422113Y524707D01*
G37*
%LPD*%
%LPC*%
G36*
X416757Y530063D02*
X416757Y530063D01*
X416757Y537639D01*
X417999Y538881D01*
X423029Y533851D01*
X417999Y528821D01*
X416757Y530063D01*
G37*
%LPD*%
%LPC*%
G36*
X116549Y319749D02*
X116549Y319749D01*
X116549Y326843D01*
X117978Y326379D01*
X119321Y325694D01*
X120032Y325178D01*
X120541Y324808D01*
X121608Y323741D01*
X122494Y322521D01*
X123179Y321178D01*
X123643Y319749D01*
X116549Y319749D01*
G37*
%LPD*%
%LPC*%
G36*
X268949Y370549D02*
X268949Y370549D01*
X268949Y377643D01*
X270378Y377179D01*
X271721Y376494D01*
X272941Y375608D01*
X274008Y374541D01*
X274894Y373321D01*
X275579Y371978D01*
X276043Y370549D01*
X268949Y370549D01*
G37*
%LPD*%
%LPC*%
G36*
X257357Y370549D02*
X257357Y370549D01*
X257821Y371978D01*
X258506Y373321D01*
X259392Y374541D01*
X260459Y375608D01*
X261679Y376494D01*
X263022Y377179D01*
X264451Y377643D01*
X264451Y370549D01*
X257357Y370549D01*
G37*
%LPD*%
%LPC*%
G36*
X104957Y319749D02*
X104957Y319749D01*
X105421Y321178D01*
X106106Y322521D01*
X106992Y323741D01*
X108059Y324808D01*
X109279Y325694D01*
X110622Y326379D01*
X112051Y326843D01*
X112051Y319749D01*
X104957Y319749D01*
G37*
%LPD*%
%LPC*%
G36*
X876299Y190099D02*
X876299Y190099D01*
X876299Y190101D01*
X876301Y190101D01*
X876301Y190099D01*
X876299Y190099D01*
G37*
%LPD*%
D10*
X691790Y457200D02*
X678710Y457200D01*
X717710Y469900D02*
X730790Y469900D01*
X691790Y482600D02*
X678710Y482600D01*
X717710Y495300D02*
X730790Y495300D01*
X691790Y508000D02*
X678710Y508000D01*
X717710Y520700D02*
X730790Y520700D01*
X691790Y533400D02*
X678710Y533400D01*
D11*
X450850Y469900D03*
X577850Y469900D03*
X450850Y520700D03*
X577850Y520700D03*
D12*
X864300Y444900D02*
X888300Y444900D01*
X888300Y494900D02*
X864300Y494900D01*
X864300Y343300D02*
X888300Y343300D01*
X888300Y393300D02*
X864300Y393300D01*
D13*
X408293Y393700D02*
X391808Y393700D01*
X391808Y368300D02*
X408293Y368300D01*
X408293Y342900D02*
X391808Y342900D01*
X391808Y317500D02*
X408293Y317500D01*
X408293Y292100D02*
X391808Y292100D01*
X391808Y266700D02*
X408293Y266700D01*
X408293Y241300D02*
X391808Y241300D01*
X391808Y215900D02*
X408293Y215900D01*
X408293Y190500D02*
X391808Y190500D01*
X391808Y165100D02*
X408293Y165100D01*
X722008Y215900D02*
X738493Y215900D01*
X738493Y241300D02*
X722008Y241300D01*
X722008Y266700D02*
X738493Y266700D01*
X738493Y292100D02*
X722008Y292100D01*
X722008Y317500D02*
X738493Y317500D01*
X738493Y342900D02*
X722008Y342900D01*
X722008Y368300D02*
X738493Y368300D01*
X738493Y393700D02*
X722008Y393700D01*
D14*
X266700Y647700D03*
X266700Y622300D03*
X266700Y596900D03*
X266700Y571500D03*
X266700Y546100D03*
X266700Y520700D03*
X266700Y495300D03*
X266700Y469900D03*
X266700Y444500D03*
X266700Y419100D03*
X266700Y393700D03*
X266700Y368300D03*
X266700Y342900D03*
X266700Y317500D03*
X266700Y292100D03*
X266700Y266700D03*
X266700Y241300D03*
X114300Y647700D03*
X114300Y622300D03*
X114300Y596900D03*
X114300Y571500D03*
X114300Y546100D03*
X114300Y520700D03*
X114300Y495300D03*
X114300Y469900D03*
X114300Y444500D03*
X114300Y419100D03*
X114300Y393700D03*
X114300Y368300D03*
X114300Y342900D03*
X114300Y317500D03*
X114300Y292100D03*
X114300Y266700D03*
X114300Y241300D03*
D11*
X450850Y431800D03*
X577850Y431800D03*
D15*
X577850Y558800D03*
X450850Y558800D03*
D12*
X864300Y241700D02*
X888300Y241700D01*
X888300Y291700D02*
X864300Y291700D01*
X864300Y140100D02*
X888300Y140100D01*
X888300Y190100D02*
X864300Y190100D01*
D11*
X514350Y749300D03*
X641350Y749300D03*
D15*
X177800Y146050D03*
X50800Y146050D03*
D16*
X41402Y571500D02*
X60198Y571500D01*
X60198Y546100D02*
X41402Y546100D01*
X41402Y520700D02*
X60198Y520700D01*
X177800Y85598D02*
X177800Y66802D01*
X152400Y66802D02*
X152400Y85598D01*
X311150Y79248D02*
X311150Y60452D01*
X336550Y60452D02*
X336550Y79248D01*
X393700Y79248D02*
X393700Y60452D01*
X419100Y60452D02*
X419100Y79248D01*
X60198Y469900D02*
X41402Y469900D01*
X41402Y444500D02*
X60198Y444500D01*
X60198Y419100D02*
X41402Y419100D01*
D17*
X419551Y489401D03*
X329749Y399599D03*
D18*
X336099Y444049D03*
X425901Y533851D03*
D10*
X666750Y711010D02*
X666750Y724090D01*
X641350Y724090D02*
X641350Y711010D01*
X615950Y711010D02*
X615950Y724090D01*
X590550Y724090D02*
X590550Y711010D01*
X590550Y647890D02*
X590550Y634810D01*
X615950Y634810D02*
X615950Y647890D01*
X666750Y647890D02*
X666750Y634810D01*
D19*
X660400Y82550D03*
D20*
X654050Y457200D03*
X88900Y527050D03*
D21*
X450850Y355600D03*
X654050Y533400D03*
X342900Y184150D03*
X342900Y203200D03*
X342900Y222250D03*
X342900Y260350D03*
X342900Y279400D03*
X342900Y298450D03*
X342900Y336550D03*
X342900Y355600D03*
X330200Y381000D03*
X311150Y400050D03*
X292100Y419100D03*
X234950Y387350D03*
X228600Y457200D03*
X95250Y419100D03*
X88900Y565150D03*
X50800Y590550D03*
X50800Y495300D03*
X95250Y317500D03*
X133350Y317500D03*
X266700Y171450D03*
X266700Y107950D03*
X266700Y76200D03*
X387350Y107950D03*
X406400Y107950D03*
X425450Y107950D03*
X450850Y76200D03*
X698500Y266700D03*
X698500Y292100D03*
X762000Y266700D03*
X762000Y292100D03*
X342900Y241300D03*
X374650Y165100D03*
X425450Y165100D03*
X425450Y215900D03*
X374650Y215900D03*
X787400Y419100D03*
X806450Y419100D03*
X787400Y368300D03*
X806450Y368300D03*
X787400Y304800D03*
X806450Y304800D03*
X787400Y273050D03*
X806450Y273050D03*
X787400Y209550D03*
X806450Y209550D03*
X806450Y469900D03*
X787400Y469900D03*
X787400Y165100D03*
X806450Y165100D03*
X171450Y266700D03*
X787400Y114300D03*
X806450Y114300D03*
X171450Y317500D03*
X304800Y298450D03*
X304800Y342900D03*
X247650Y374650D03*
X247650Y330200D03*
X222250Y330200D03*
X209550Y330200D03*
X304800Y171450D03*
X304800Y107950D03*
X603250Y495300D03*
X660400Y495300D03*
X749300Y508000D03*
X749300Y482600D03*
X844550Y565150D03*
X882650Y533400D03*
X495300Y749300D03*
X628650Y679450D03*
X50800Y165100D03*
X342900Y165100D03*
X234950Y330200D03*
D22*
X666750Y641350D02*
X853240Y641350D01*
X923090Y571500D01*
X923090Y241332D02*
X876300Y241700D01*
X923090Y241332D02*
X923090Y571500D01*
X748900Y215900D02*
X730250Y215900D01*
X748900Y215900D02*
X774700Y241700D01*
X876300Y241700D01*
X717550Y558800D02*
X615950Y558800D01*
X615950Y617825D01*
X717550Y558800D02*
X724250Y520700D01*
X615950Y617825D02*
X615950Y641350D01*
D23*
X241300Y590550D02*
X241300Y696215D01*
X628428Y696215D01*
X260350Y571500D02*
X241300Y590550D01*
D24*
X260350Y571500D02*
X266700Y571500D01*
D23*
X634952Y702738D02*
X641350Y709137D01*
X641350Y717550D01*
X634952Y702738D02*
X628428Y696215D01*
D25*
X749300Y336550D02*
X730250Y317500D01*
D22*
X869550Y336550D02*
X876300Y343300D01*
X869550Y336550D02*
X749300Y336550D01*
D25*
X749236Y368300D02*
X730250Y368300D01*
D22*
X875656Y392656D02*
X876300Y393300D01*
D25*
X773592Y392656D02*
X749236Y368300D01*
D22*
X773592Y392656D02*
X875656Y392656D01*
D26*
X400050Y317500D02*
X309959Y317500D01*
X271931Y355528D01*
X209550Y355528D01*
X209550Y476250D01*
X114300Y571500D01*
D24*
X63500Y520700D02*
X50800Y520700D01*
D21*
X63500Y520700D03*
D23*
X311150Y88900D02*
X311150Y69850D01*
X311150Y88900D02*
X323850Y101600D01*
X349250Y101600D01*
X381000Y69850D02*
X393700Y69850D01*
X381000Y69850D02*
X349250Y101600D01*
X419100Y69850D02*
X419100Y57150D01*
X355600Y69850D02*
X336550Y69850D01*
X355600Y69850D02*
X387350Y38100D01*
X400050Y38100D01*
X419100Y57150D01*
D25*
X222250Y292100D02*
X114300Y292100D01*
X222250Y292100D02*
X222250Y158750D01*
X241300Y139700D01*
X875900Y139700D01*
X876300Y140100D01*
D23*
X698850Y438150D02*
X631715Y438150D01*
X485665Y584200D01*
X330200Y584200D01*
X266700Y647700D01*
X698850Y438150D02*
X724250Y463550D01*
X724250Y469900D01*
X666750Y717550D02*
X666750Y730250D01*
X647700Y749300D01*
X641350Y749300D01*
D27*
X114300Y444500D02*
X50800Y444500D01*
M02*
