G04 EAGLE Gerber RS-274X export*
G75*
%MOMM*%
%FSLAX34Y34*%
%LPD*%
%INTop Copper*%
%IPPOS*%
%AMOC8*
5,1,8,0,0,1.08239X$1,22.5*%
G01*
%ADD10C,1.308000*%
%ADD11P,1.429621X8X22.500000*%
%ADD12C,2.400000*%
%ADD13C,1.648500*%
%ADD14C,1.408000*%
%ADD15P,1.814519X8X202.500000*%
%ADD16C,1.879600*%
%ADD17P,1.429621X8X247.500000*%
%ADD18P,1.429621X8X67.500000*%
%ADD19C,1.879600*%
%ADD20C,2.400000*%
%ADD21C,1.308000*%
%ADD22P,1.814519X8X22.500000*%
%ADD23C,1.422400*%
%ADD24P,0.818720X8X22.500000*%
%ADD25C,0.756400*%
%ADD26C,1.905000*%
%ADD27C,2.540000*%
%ADD28C,0.635000*%
%ADD29C,0.812800*%
%ADD30C,0.609600*%
%ADD31C,1.016000*%
%ADD32C,1.270000*%

G36*
X941770Y10172D02*
X941770Y10172D01*
X941836Y10174D01*
X941879Y10192D01*
X941926Y10200D01*
X941983Y10234D01*
X942043Y10259D01*
X942078Y10290D01*
X942119Y10315D01*
X942161Y10366D01*
X942209Y10410D01*
X942231Y10452D01*
X942260Y10489D01*
X942281Y10551D01*
X942312Y10610D01*
X942320Y10664D01*
X942332Y10701D01*
X942331Y10741D01*
X942339Y10795D01*
X942339Y814705D01*
X942328Y814770D01*
X942326Y814836D01*
X942308Y814879D01*
X942300Y814926D01*
X942266Y814983D01*
X942241Y815043D01*
X942210Y815078D01*
X942185Y815119D01*
X942134Y815161D01*
X942090Y815209D01*
X942048Y815231D01*
X942011Y815260D01*
X941949Y815281D01*
X941890Y815312D01*
X941836Y815320D01*
X941799Y815332D01*
X941759Y815331D01*
X941705Y815339D01*
X10795Y815339D01*
X10730Y815328D01*
X10664Y815326D01*
X10621Y815308D01*
X10574Y815300D01*
X10517Y815266D01*
X10457Y815241D01*
X10422Y815210D01*
X10381Y815185D01*
X10339Y815134D01*
X10291Y815090D01*
X10269Y815048D01*
X10240Y815011D01*
X10219Y814949D01*
X10188Y814890D01*
X10180Y814836D01*
X10168Y814799D01*
X10169Y814759D01*
X10161Y814705D01*
X10161Y576512D01*
X10174Y576441D01*
X10174Y576415D01*
X10176Y576412D01*
X10179Y576362D01*
X10194Y576328D01*
X10200Y576292D01*
X10239Y576226D01*
X10270Y576157D01*
X10296Y576130D01*
X10315Y576098D01*
X10374Y576050D01*
X10427Y575996D01*
X10460Y575980D01*
X10489Y575957D01*
X10561Y575933D01*
X10630Y575900D01*
X10666Y575897D01*
X10701Y575885D01*
X10777Y575887D01*
X10853Y575881D01*
X10889Y575891D01*
X10926Y575892D01*
X10996Y575920D01*
X11069Y575941D01*
X11099Y575962D01*
X11133Y575976D01*
X11190Y576027D01*
X11251Y576072D01*
X11276Y576106D01*
X11299Y576127D01*
X11320Y576168D01*
X11360Y576224D01*
X12141Y577757D01*
X13246Y579278D01*
X14574Y580606D01*
X16095Y581711D01*
X17769Y582564D01*
X19556Y583145D01*
X21412Y583439D01*
X30481Y583439D01*
X30481Y572135D01*
X30492Y572070D01*
X30494Y572005D01*
X30512Y571961D01*
X30520Y571914D01*
X30554Y571858D01*
X30579Y571797D01*
X30610Y571762D01*
X30635Y571721D01*
X30686Y571680D01*
X30730Y571631D01*
X30772Y571609D01*
X30809Y571580D01*
X30871Y571559D01*
X30930Y571529D01*
X30984Y571520D01*
X31021Y571508D01*
X31061Y571509D01*
X31115Y571501D01*
X32385Y571501D01*
X32450Y571513D01*
X32515Y571514D01*
X32559Y571532D01*
X32606Y571541D01*
X32663Y571574D01*
X32723Y571599D01*
X32758Y571631D01*
X32799Y571655D01*
X32840Y571706D01*
X32889Y571750D01*
X32911Y571792D01*
X32940Y571829D01*
X32961Y571891D01*
X32992Y571950D01*
X33000Y572004D01*
X33012Y572041D01*
X33011Y572081D01*
X33019Y572135D01*
X33019Y583439D01*
X42088Y583439D01*
X43944Y583145D01*
X45731Y582564D01*
X47405Y581711D01*
X48268Y581084D01*
X48304Y581067D01*
X48335Y581042D01*
X48404Y581018D01*
X48470Y580986D01*
X48510Y580982D01*
X48547Y580970D01*
X48621Y580972D01*
X48694Y580965D01*
X48732Y580975D01*
X48772Y580976D01*
X48839Y581004D01*
X48910Y581023D01*
X48943Y581046D01*
X48979Y581061D01*
X49034Y581110D01*
X49093Y581152D01*
X49116Y581185D01*
X49145Y581212D01*
X49179Y581277D01*
X49220Y581338D01*
X49229Y581376D01*
X49248Y581412D01*
X49262Y581507D01*
X49262Y581508D01*
X49268Y581526D01*
X49268Y581532D01*
X49274Y581556D01*
X49272Y581574D01*
X49275Y581597D01*
X49275Y614212D01*
X50861Y618040D01*
X63950Y631129D01*
X67778Y632715D01*
X73496Y632715D01*
X73538Y632722D01*
X73580Y632720D01*
X73647Y632742D01*
X73717Y632754D01*
X73753Y632776D01*
X73794Y632789D01*
X73867Y632843D01*
X73910Y632869D01*
X73923Y632885D01*
X73944Y632901D01*
X74805Y633761D01*
X74849Y633825D01*
X74900Y633883D01*
X74913Y633916D01*
X74933Y633945D01*
X74952Y634020D01*
X74980Y634093D01*
X74980Y634128D01*
X74989Y634163D01*
X74981Y634240D01*
X74982Y634317D01*
X74970Y634351D01*
X74966Y634386D01*
X74932Y634455D01*
X74905Y634528D01*
X74882Y634555D01*
X74866Y634587D01*
X74810Y634640D01*
X74760Y634699D01*
X74725Y634720D01*
X74703Y634741D01*
X74660Y634759D01*
X74599Y634796D01*
X73078Y635426D01*
X69006Y639498D01*
X66801Y644820D01*
X66801Y650580D01*
X69006Y655902D01*
X73078Y659974D01*
X78400Y662179D01*
X84160Y662179D01*
X89482Y659974D01*
X91155Y658301D01*
X91190Y658276D01*
X91219Y658245D01*
X91282Y658213D01*
X91340Y658172D01*
X91381Y658162D01*
X91419Y658142D01*
X91508Y658129D01*
X91557Y658116D01*
X91578Y658119D01*
X91604Y658115D01*
X105059Y658115D01*
X105158Y658133D01*
X105258Y658147D01*
X105268Y658152D01*
X105280Y658154D01*
X105366Y658206D01*
X105455Y658254D01*
X105463Y658262D01*
X105473Y658269D01*
X105536Y658346D01*
X105603Y658422D01*
X105607Y658434D01*
X105614Y658443D01*
X105647Y658538D01*
X105682Y658632D01*
X105682Y658644D01*
X105686Y658655D01*
X105683Y658756D01*
X105684Y658856D01*
X105680Y658868D01*
X105680Y658880D01*
X105642Y658973D01*
X105608Y659067D01*
X105600Y659076D01*
X105595Y659087D01*
X105528Y659161D01*
X105462Y659238D01*
X105451Y659245D01*
X105444Y659253D01*
X105403Y659274D01*
X105302Y659335D01*
X105146Y659400D01*
X100600Y663946D01*
X98139Y669885D01*
X98139Y676315D01*
X100600Y682254D01*
X105146Y686800D01*
X111085Y689261D01*
X117515Y689261D01*
X123454Y686800D01*
X128000Y682254D01*
X130461Y676315D01*
X130461Y669885D01*
X128000Y663946D01*
X123454Y659400D01*
X121706Y658675D01*
X121641Y658634D01*
X121572Y658599D01*
X121547Y658573D01*
X121517Y658554D01*
X121471Y658492D01*
X121418Y658436D01*
X121404Y658403D01*
X121382Y658375D01*
X121360Y658301D01*
X121330Y658229D01*
X121329Y658194D01*
X121318Y658160D01*
X121324Y658083D01*
X121320Y658005D01*
X121331Y657972D01*
X121333Y657936D01*
X121365Y657865D01*
X121389Y657792D01*
X121413Y657759D01*
X121425Y657731D01*
X121458Y657698D01*
X121500Y657641D01*
X124575Y654566D01*
X126421Y650111D01*
X126421Y645289D01*
X124575Y640834D01*
X121166Y637425D01*
X116727Y635586D01*
X116652Y635538D01*
X116574Y635496D01*
X116558Y635478D01*
X116538Y635465D01*
X116485Y635394D01*
X116426Y635327D01*
X116418Y635304D01*
X116403Y635285D01*
X116378Y635200D01*
X116346Y635117D01*
X116346Y635093D01*
X116339Y635070D01*
X116345Y634982D01*
X116345Y634893D01*
X116353Y634870D01*
X116354Y634847D01*
X116391Y634765D01*
X116421Y634682D01*
X116437Y634664D01*
X116446Y634642D01*
X116509Y634579D01*
X116566Y634511D01*
X116589Y634497D01*
X116604Y634482D01*
X116649Y634461D01*
X116727Y634414D01*
X121166Y632575D01*
X124575Y629166D01*
X126421Y624711D01*
X126421Y619889D01*
X124575Y615434D01*
X121166Y612025D01*
X116727Y610186D01*
X116652Y610138D01*
X116574Y610096D01*
X116558Y610078D01*
X116538Y610065D01*
X116485Y609994D01*
X116426Y609927D01*
X116418Y609904D01*
X116403Y609885D01*
X116378Y609800D01*
X116346Y609717D01*
X116346Y609693D01*
X116339Y609670D01*
X116345Y609582D01*
X116345Y609493D01*
X116353Y609470D01*
X116354Y609447D01*
X116391Y609365D01*
X116421Y609282D01*
X116437Y609264D01*
X116446Y609242D01*
X116509Y609179D01*
X116566Y609111D01*
X116589Y609097D01*
X116604Y609082D01*
X116649Y609061D01*
X116727Y609014D01*
X121166Y607175D01*
X124575Y603766D01*
X126421Y599311D01*
X126421Y594489D01*
X124575Y590034D01*
X121166Y586625D01*
X116727Y584786D01*
X116652Y584738D01*
X116574Y584696D01*
X116558Y584678D01*
X116538Y584665D01*
X116485Y584594D01*
X116426Y584527D01*
X116418Y584504D01*
X116403Y584485D01*
X116378Y584400D01*
X116346Y584317D01*
X116346Y584293D01*
X116339Y584270D01*
X116345Y584182D01*
X116345Y584093D01*
X116353Y584070D01*
X116354Y584047D01*
X116391Y583965D01*
X116421Y583882D01*
X116437Y583864D01*
X116446Y583842D01*
X116509Y583779D01*
X116566Y583711D01*
X116589Y583697D01*
X116604Y583682D01*
X116649Y583661D01*
X116727Y583614D01*
X121166Y581775D01*
X124575Y578366D01*
X126421Y573911D01*
X126421Y569089D01*
X124575Y564634D01*
X121166Y561225D01*
X116727Y559386D01*
X116652Y559338D01*
X116574Y559296D01*
X116558Y559278D01*
X116538Y559265D01*
X116485Y559194D01*
X116426Y559127D01*
X116418Y559104D01*
X116403Y559085D01*
X116378Y559000D01*
X116346Y558917D01*
X116346Y558893D01*
X116339Y558870D01*
X116345Y558782D01*
X116345Y558693D01*
X116353Y558670D01*
X116354Y558647D01*
X116391Y558565D01*
X116421Y558482D01*
X116437Y558464D01*
X116446Y558442D01*
X116509Y558379D01*
X116566Y558311D01*
X116589Y558297D01*
X116604Y558282D01*
X116649Y558261D01*
X116727Y558214D01*
X121166Y556375D01*
X124575Y552966D01*
X126421Y548511D01*
X126421Y543689D01*
X124575Y539234D01*
X121166Y535825D01*
X116727Y533986D01*
X116652Y533938D01*
X116574Y533896D01*
X116558Y533878D01*
X116538Y533865D01*
X116485Y533794D01*
X116426Y533727D01*
X116418Y533704D01*
X116403Y533685D01*
X116378Y533600D01*
X116346Y533517D01*
X116346Y533493D01*
X116339Y533470D01*
X116345Y533382D01*
X116345Y533293D01*
X116353Y533270D01*
X116354Y533247D01*
X116391Y533165D01*
X116421Y533082D01*
X116437Y533064D01*
X116446Y533042D01*
X116509Y532979D01*
X116566Y532911D01*
X116589Y532897D01*
X116604Y532882D01*
X116649Y532861D01*
X116727Y532814D01*
X120713Y531163D01*
X120743Y531156D01*
X120770Y531142D01*
X120888Y531125D01*
X120932Y531115D01*
X120943Y531117D01*
X120956Y531115D01*
X129072Y531115D01*
X132900Y529529D01*
X135829Y526600D01*
X136670Y524570D01*
X136686Y524544D01*
X136696Y524515D01*
X136766Y524420D01*
X136791Y524381D01*
X136800Y524375D01*
X136807Y524364D01*
X198576Y462596D01*
X200026Y459095D01*
X200026Y156855D01*
X198576Y153354D01*
X191449Y146227D01*
X191424Y146192D01*
X191393Y146164D01*
X191361Y146101D01*
X191320Y146043D01*
X191310Y146002D01*
X191290Y145964D01*
X191277Y145874D01*
X191264Y145826D01*
X191267Y145805D01*
X191263Y145779D01*
X191263Y140474D01*
X187512Y136722D01*
X187487Y136688D01*
X187456Y136659D01*
X187424Y136596D01*
X187383Y136538D01*
X187373Y136497D01*
X187353Y136459D01*
X187340Y136370D01*
X187327Y136321D01*
X187330Y136300D01*
X187326Y136274D01*
X187326Y96811D01*
X187333Y96769D01*
X187331Y96727D01*
X187353Y96660D01*
X187365Y96590D01*
X187387Y96554D01*
X187400Y96513D01*
X187454Y96440D01*
X187480Y96397D01*
X187496Y96384D01*
X187512Y96363D01*
X190074Y93800D01*
X192279Y88478D01*
X192279Y63922D01*
X190074Y58600D01*
X186002Y54528D01*
X180894Y52412D01*
X180829Y52370D01*
X180759Y52336D01*
X180735Y52310D01*
X180705Y52291D01*
X180658Y52229D01*
X180605Y52172D01*
X180592Y52140D01*
X180570Y52111D01*
X180548Y52037D01*
X180518Y51966D01*
X180516Y51930D01*
X180506Y51896D01*
X180511Y51819D01*
X180508Y51742D01*
X180519Y51708D01*
X180521Y51672D01*
X180553Y51602D01*
X180577Y51528D01*
X180601Y51496D01*
X180613Y51468D01*
X180646Y51435D01*
X180688Y51377D01*
X189969Y42097D01*
X190004Y42072D01*
X190033Y42041D01*
X190095Y42009D01*
X190153Y41968D01*
X190194Y41958D01*
X190232Y41938D01*
X190322Y41925D01*
X190370Y41912D01*
X190391Y41915D01*
X190417Y41911D01*
X353271Y41911D01*
X353313Y41918D01*
X353355Y41916D01*
X353423Y41938D01*
X353492Y41950D01*
X353529Y41972D01*
X353569Y41985D01*
X353642Y42039D01*
X353685Y42065D01*
X353699Y42081D01*
X353720Y42097D01*
X356514Y44891D01*
X356565Y44964D01*
X356621Y45033D01*
X356628Y45055D01*
X356642Y45075D01*
X356664Y45161D01*
X356693Y45245D01*
X356692Y45269D01*
X356698Y45292D01*
X356689Y45381D01*
X356686Y45470D01*
X356677Y45492D01*
X356675Y45515D01*
X356635Y45595D01*
X356602Y45677D01*
X356586Y45695D01*
X356575Y45716D01*
X356510Y45777D01*
X356450Y45843D01*
X356429Y45854D01*
X356412Y45870D01*
X356330Y45905D01*
X356251Y45946D01*
X356225Y45949D01*
X356205Y45958D01*
X356155Y45960D01*
X356065Y45973D01*
X352720Y45973D01*
X347398Y48178D01*
X343348Y52227D01*
X343294Y52265D01*
X343247Y52310D01*
X343203Y52329D01*
X343164Y52356D01*
X343101Y52372D01*
X343040Y52398D01*
X342993Y52400D01*
X342947Y52412D01*
X342882Y52405D01*
X342816Y52408D01*
X342771Y52393D01*
X342724Y52388D01*
X342665Y52359D01*
X342602Y52339D01*
X342558Y52306D01*
X342523Y52289D01*
X342496Y52260D01*
X342452Y52227D01*
X338402Y48178D01*
X333080Y45973D01*
X327320Y45973D01*
X321998Y48178D01*
X317926Y52250D01*
X315721Y57572D01*
X315721Y82128D01*
X317926Y87450D01*
X321998Y91522D01*
X326633Y93442D01*
X326678Y93471D01*
X326728Y93492D01*
X326772Y93531D01*
X326822Y93563D01*
X326854Y93607D01*
X326894Y93643D01*
X326921Y93695D01*
X326956Y93743D01*
X326972Y93794D01*
X326997Y93843D01*
X327007Y93913D01*
X327020Y93958D01*
X327018Y93988D01*
X327024Y94028D01*
X327024Y357921D01*
X327017Y357963D01*
X327019Y358005D01*
X326997Y358073D01*
X326985Y358142D01*
X326963Y358179D01*
X326950Y358219D01*
X326896Y358292D01*
X326870Y358335D01*
X326854Y358348D01*
X326838Y358370D01*
X315281Y369927D01*
X315208Y369978D01*
X315139Y370034D01*
X315117Y370041D01*
X315097Y370055D01*
X315011Y370077D01*
X314927Y370106D01*
X314903Y370105D01*
X314880Y370111D01*
X314791Y370102D01*
X314702Y370099D01*
X314680Y370090D01*
X314657Y370088D01*
X314577Y370048D01*
X314495Y370015D01*
X314477Y369999D01*
X314456Y369988D01*
X314395Y369923D01*
X314329Y369863D01*
X314318Y369842D01*
X314302Y369825D01*
X314267Y369743D01*
X314226Y369664D01*
X314223Y369637D01*
X314214Y369618D01*
X314212Y369568D01*
X314199Y369478D01*
X314199Y365420D01*
X311994Y360098D01*
X307922Y356026D01*
X306401Y355396D01*
X306335Y355354D01*
X306266Y355319D01*
X306242Y355294D01*
X306212Y355274D01*
X306165Y355212D01*
X306112Y355156D01*
X306098Y355123D01*
X306077Y355095D01*
X306055Y355021D01*
X306025Y354950D01*
X306023Y354914D01*
X306013Y354880D01*
X306018Y354803D01*
X306015Y354725D01*
X306026Y354692D01*
X306028Y354656D01*
X306060Y354586D01*
X306083Y354512D01*
X306107Y354479D01*
X306120Y354451D01*
X306153Y354418D01*
X306195Y354361D01*
X309454Y351102D01*
X311659Y345780D01*
X311659Y340020D01*
X309454Y334698D01*
X306195Y331439D01*
X306151Y331375D01*
X306100Y331317D01*
X306087Y331284D01*
X306067Y331255D01*
X306048Y331180D01*
X306020Y331107D01*
X306020Y331072D01*
X306011Y331037D01*
X306019Y330961D01*
X306018Y330883D01*
X306030Y330850D01*
X306034Y330814D01*
X306068Y330745D01*
X306095Y330672D01*
X306118Y330645D01*
X306134Y330613D01*
X306190Y330560D01*
X306240Y330501D01*
X306275Y330480D01*
X306297Y330459D01*
X306340Y330441D01*
X306401Y330404D01*
X307922Y329774D01*
X311994Y325702D01*
X314199Y320380D01*
X314199Y314620D01*
X311994Y309298D01*
X307922Y305226D01*
X306401Y304596D01*
X306335Y304554D01*
X306266Y304519D01*
X306242Y304494D01*
X306212Y304474D01*
X306165Y304412D01*
X306112Y304356D01*
X306098Y304323D01*
X306077Y304295D01*
X306055Y304221D01*
X306025Y304150D01*
X306023Y304114D01*
X306013Y304080D01*
X306018Y304003D01*
X306015Y303925D01*
X306026Y303892D01*
X306028Y303856D01*
X306060Y303786D01*
X306083Y303712D01*
X306107Y303679D01*
X306120Y303651D01*
X306153Y303618D01*
X306195Y303561D01*
X309454Y300302D01*
X311659Y294980D01*
X311659Y289220D01*
X309454Y283898D01*
X306195Y280639D01*
X306151Y280575D01*
X306100Y280517D01*
X306087Y280484D01*
X306067Y280455D01*
X306048Y280380D01*
X306020Y280307D01*
X306020Y280272D01*
X306011Y280237D01*
X306019Y280161D01*
X306018Y280083D01*
X306030Y280050D01*
X306034Y280014D01*
X306068Y279945D01*
X306095Y279872D01*
X306118Y279845D01*
X306134Y279813D01*
X306190Y279760D01*
X306240Y279701D01*
X306275Y279680D01*
X306297Y279659D01*
X306340Y279641D01*
X306401Y279604D01*
X307922Y278974D01*
X311994Y274902D01*
X314199Y269580D01*
X314199Y263820D01*
X311994Y258498D01*
X307922Y254426D01*
X306401Y253796D01*
X306335Y253754D01*
X306266Y253719D01*
X306242Y253694D01*
X306212Y253674D01*
X306165Y253612D01*
X306112Y253556D01*
X306098Y253523D01*
X306077Y253495D01*
X306055Y253421D01*
X306025Y253350D01*
X306023Y253314D01*
X306013Y253280D01*
X306018Y253203D01*
X306015Y253125D01*
X306026Y253092D01*
X306028Y253056D01*
X306060Y252986D01*
X306083Y252912D01*
X306107Y252879D01*
X306120Y252851D01*
X306153Y252818D01*
X306195Y252761D01*
X309454Y249502D01*
X311659Y244180D01*
X311659Y238420D01*
X309454Y233098D01*
X305382Y229026D01*
X300060Y226821D01*
X294300Y226821D01*
X288978Y229026D01*
X287304Y230699D01*
X287271Y230723D01*
X287246Y230750D01*
X287241Y230755D01*
X287178Y230787D01*
X287120Y230828D01*
X287079Y230838D01*
X287041Y230858D01*
X286952Y230871D01*
X286903Y230884D01*
X286882Y230881D01*
X286856Y230885D01*
X275941Y230885D01*
X275842Y230867D01*
X275742Y230853D01*
X275732Y230848D01*
X275720Y230846D01*
X275634Y230794D01*
X275545Y230746D01*
X275537Y230738D01*
X275527Y230731D01*
X275464Y230654D01*
X275397Y230578D01*
X275393Y230566D01*
X275386Y230557D01*
X275353Y230462D01*
X275318Y230368D01*
X275318Y230356D01*
X275314Y230345D01*
X275317Y230244D01*
X275316Y230144D01*
X275320Y230132D01*
X275320Y230120D01*
X275358Y230027D01*
X275392Y229933D01*
X275400Y229924D01*
X275405Y229913D01*
X275472Y229839D01*
X275538Y229762D01*
X275549Y229755D01*
X275556Y229747D01*
X275597Y229726D01*
X275698Y229665D01*
X275854Y229600D01*
X280400Y225054D01*
X282861Y219115D01*
X282861Y212685D01*
X280400Y206746D01*
X275854Y202200D01*
X269915Y199739D01*
X263485Y199739D01*
X257546Y202200D01*
X253000Y206746D01*
X250539Y212685D01*
X250539Y219115D01*
X253000Y225054D01*
X257546Y229600D01*
X259294Y230325D01*
X259359Y230366D01*
X259428Y230401D01*
X259453Y230427D01*
X259483Y230446D01*
X259529Y230508D01*
X259582Y230564D01*
X259596Y230597D01*
X259618Y230625D01*
X259640Y230699D01*
X259670Y230771D01*
X259671Y230806D01*
X259682Y230840D01*
X259676Y230917D01*
X259680Y230995D01*
X259669Y231028D01*
X259667Y231064D01*
X259635Y231135D01*
X259611Y231208D01*
X259587Y231241D01*
X259575Y231269D01*
X259542Y231302D01*
X259500Y231359D01*
X256425Y234434D01*
X254579Y238889D01*
X254579Y243711D01*
X256425Y248166D01*
X259834Y251575D01*
X264273Y253414D01*
X264348Y253462D01*
X264426Y253505D01*
X264442Y253522D01*
X264462Y253535D01*
X264515Y253606D01*
X264574Y253673D01*
X264582Y253696D01*
X264597Y253715D01*
X264622Y253800D01*
X264654Y253883D01*
X264654Y253907D01*
X264661Y253930D01*
X264655Y254019D01*
X264655Y254107D01*
X264647Y254130D01*
X264646Y254153D01*
X264609Y254235D01*
X264579Y254318D01*
X264563Y254337D01*
X264554Y254358D01*
X264491Y254421D01*
X264434Y254489D01*
X264411Y254503D01*
X264396Y254518D01*
X264351Y254539D01*
X264273Y254586D01*
X259834Y256425D01*
X256425Y259834D01*
X254579Y264289D01*
X254579Y269111D01*
X256425Y273566D01*
X259834Y276975D01*
X264273Y278814D01*
X264348Y278862D01*
X264426Y278905D01*
X264442Y278922D01*
X264462Y278935D01*
X264515Y279006D01*
X264574Y279073D01*
X264582Y279096D01*
X264597Y279115D01*
X264622Y279200D01*
X264654Y279283D01*
X264654Y279307D01*
X264661Y279330D01*
X264655Y279419D01*
X264655Y279507D01*
X264647Y279530D01*
X264646Y279553D01*
X264609Y279635D01*
X264579Y279718D01*
X264563Y279737D01*
X264554Y279758D01*
X264491Y279821D01*
X264434Y279889D01*
X264411Y279903D01*
X264396Y279918D01*
X264351Y279939D01*
X264273Y279986D01*
X259834Y281825D01*
X256425Y285234D01*
X254579Y289689D01*
X254579Y294511D01*
X256425Y298966D01*
X259834Y302375D01*
X264273Y304214D01*
X264348Y304262D01*
X264426Y304305D01*
X264442Y304322D01*
X264462Y304335D01*
X264515Y304406D01*
X264574Y304473D01*
X264582Y304496D01*
X264597Y304515D01*
X264622Y304600D01*
X264654Y304683D01*
X264654Y304707D01*
X264661Y304730D01*
X264655Y304819D01*
X264655Y304907D01*
X264647Y304930D01*
X264646Y304953D01*
X264609Y305035D01*
X264579Y305118D01*
X264563Y305137D01*
X264554Y305158D01*
X264491Y305221D01*
X264434Y305289D01*
X264411Y305303D01*
X264396Y305318D01*
X264351Y305339D01*
X264273Y305386D01*
X259834Y307225D01*
X256425Y310634D01*
X254579Y315089D01*
X254579Y319911D01*
X256425Y324366D01*
X259834Y327775D01*
X264273Y329614D01*
X264348Y329662D01*
X264426Y329705D01*
X264442Y329722D01*
X264462Y329735D01*
X264515Y329806D01*
X264574Y329873D01*
X264582Y329896D01*
X264597Y329915D01*
X264622Y330000D01*
X264654Y330083D01*
X264654Y330107D01*
X264661Y330130D01*
X264655Y330219D01*
X264655Y330307D01*
X264647Y330330D01*
X264646Y330353D01*
X264609Y330435D01*
X264579Y330518D01*
X264563Y330537D01*
X264554Y330558D01*
X264491Y330621D01*
X264434Y330689D01*
X264411Y330703D01*
X264396Y330718D01*
X264351Y330739D01*
X264273Y330786D01*
X259834Y332625D01*
X256425Y336034D01*
X254579Y340489D01*
X254579Y345311D01*
X256425Y349766D01*
X259834Y353175D01*
X264273Y355014D01*
X264348Y355062D01*
X264426Y355105D01*
X264442Y355122D01*
X264462Y355135D01*
X264515Y355206D01*
X264574Y355273D01*
X264582Y355296D01*
X264597Y355315D01*
X264622Y355400D01*
X264654Y355483D01*
X264654Y355507D01*
X264661Y355530D01*
X264655Y355619D01*
X264655Y355707D01*
X264647Y355730D01*
X264646Y355753D01*
X264609Y355835D01*
X264579Y355918D01*
X264563Y355937D01*
X264554Y355958D01*
X264491Y356021D01*
X264434Y356089D01*
X264411Y356103D01*
X264396Y356118D01*
X264351Y356139D01*
X264273Y356186D01*
X259834Y358025D01*
X256425Y361434D01*
X254579Y365889D01*
X254579Y370711D01*
X256425Y375166D01*
X259834Y378575D01*
X264273Y380414D01*
X264348Y380462D01*
X264426Y380504D01*
X264442Y380522D01*
X264462Y380535D01*
X264515Y380606D01*
X264574Y380673D01*
X264582Y380696D01*
X264597Y380715D01*
X264622Y380800D01*
X264654Y380883D01*
X264654Y380907D01*
X264660Y380930D01*
X264655Y381018D01*
X264655Y381107D01*
X264647Y381130D01*
X264646Y381153D01*
X264609Y381235D01*
X264579Y381318D01*
X264563Y381336D01*
X264554Y381358D01*
X264491Y381422D01*
X264434Y381489D01*
X264411Y381503D01*
X264396Y381518D01*
X264351Y381539D01*
X264273Y381586D01*
X259834Y383425D01*
X256425Y386834D01*
X254579Y391289D01*
X254579Y396111D01*
X256425Y400566D01*
X259834Y403975D01*
X264273Y405814D01*
X264348Y405862D01*
X264426Y405905D01*
X264442Y405922D01*
X264462Y405935D01*
X264515Y406006D01*
X264574Y406073D01*
X264582Y406096D01*
X264597Y406115D01*
X264622Y406200D01*
X264654Y406283D01*
X264654Y406307D01*
X264660Y406330D01*
X264655Y406419D01*
X264655Y406507D01*
X264647Y406530D01*
X264646Y406553D01*
X264609Y406635D01*
X264579Y406718D01*
X264563Y406737D01*
X264554Y406758D01*
X264491Y406821D01*
X264434Y406889D01*
X264411Y406903D01*
X264396Y406918D01*
X264351Y406939D01*
X264273Y406986D01*
X259834Y408825D01*
X256425Y412234D01*
X254579Y416689D01*
X254579Y421511D01*
X256425Y425966D01*
X259834Y429375D01*
X264273Y431214D01*
X264348Y431262D01*
X264426Y431305D01*
X264442Y431322D01*
X264462Y431335D01*
X264515Y431406D01*
X264574Y431473D01*
X264582Y431496D01*
X264597Y431515D01*
X264622Y431600D01*
X264654Y431683D01*
X264654Y431707D01*
X264660Y431730D01*
X264655Y431819D01*
X264655Y431907D01*
X264647Y431930D01*
X264646Y431953D01*
X264609Y432035D01*
X264579Y432118D01*
X264563Y432137D01*
X264554Y432158D01*
X264491Y432221D01*
X264434Y432289D01*
X264411Y432303D01*
X264396Y432318D01*
X264351Y432339D01*
X264273Y432386D01*
X259834Y434225D01*
X256425Y437634D01*
X254579Y442089D01*
X254579Y446911D01*
X256425Y451366D01*
X259834Y454775D01*
X264273Y456614D01*
X264348Y456662D01*
X264426Y456705D01*
X264442Y456722D01*
X264462Y456735D01*
X264515Y456806D01*
X264574Y456873D01*
X264582Y456896D01*
X264597Y456915D01*
X264622Y457000D01*
X264654Y457083D01*
X264654Y457107D01*
X264660Y457130D01*
X264655Y457219D01*
X264655Y457307D01*
X264647Y457330D01*
X264646Y457353D01*
X264609Y457435D01*
X264579Y457518D01*
X264563Y457537D01*
X264554Y457558D01*
X264491Y457621D01*
X264434Y457689D01*
X264411Y457703D01*
X264396Y457718D01*
X264351Y457739D01*
X264273Y457786D01*
X259834Y459625D01*
X256425Y463034D01*
X254579Y467489D01*
X254579Y472311D01*
X256425Y476766D01*
X259834Y480175D01*
X264273Y482014D01*
X264348Y482062D01*
X264426Y482105D01*
X264442Y482122D01*
X264462Y482135D01*
X264515Y482206D01*
X264574Y482273D01*
X264582Y482296D01*
X264597Y482315D01*
X264622Y482400D01*
X264654Y482483D01*
X264654Y482507D01*
X264660Y482530D01*
X264655Y482619D01*
X264655Y482707D01*
X264647Y482730D01*
X264646Y482753D01*
X264609Y482835D01*
X264579Y482918D01*
X264563Y482937D01*
X264554Y482958D01*
X264491Y483021D01*
X264434Y483089D01*
X264411Y483103D01*
X264396Y483118D01*
X264351Y483139D01*
X264273Y483186D01*
X259834Y485025D01*
X256425Y488434D01*
X254579Y492889D01*
X254579Y497711D01*
X256425Y502166D01*
X259834Y505575D01*
X264273Y507414D01*
X264348Y507462D01*
X264426Y507505D01*
X264442Y507522D01*
X264462Y507535D01*
X264515Y507606D01*
X264574Y507673D01*
X264582Y507696D01*
X264597Y507715D01*
X264622Y507800D01*
X264654Y507883D01*
X264654Y507907D01*
X264660Y507930D01*
X264655Y508019D01*
X264655Y508107D01*
X264647Y508130D01*
X264646Y508153D01*
X264609Y508235D01*
X264579Y508318D01*
X264563Y508337D01*
X264554Y508358D01*
X264491Y508421D01*
X264434Y508489D01*
X264411Y508503D01*
X264396Y508518D01*
X264351Y508539D01*
X264273Y508586D01*
X259834Y510425D01*
X259270Y510988D01*
X259235Y511013D01*
X259207Y511044D01*
X259144Y511076D01*
X259086Y511117D01*
X259045Y511127D01*
X259007Y511147D01*
X258917Y511160D01*
X258869Y511173D01*
X258848Y511170D01*
X258822Y511174D01*
X239405Y511174D01*
X235904Y512624D01*
X195124Y553404D01*
X193674Y556905D01*
X193674Y718355D01*
X195124Y721857D01*
X249693Y776426D01*
X253195Y777876D01*
X263274Y777876D01*
X263316Y777883D01*
X263358Y777881D01*
X263425Y777903D01*
X263495Y777915D01*
X263531Y777937D01*
X263572Y777950D01*
X263644Y778004D01*
X263688Y778030D01*
X263701Y778046D01*
X263722Y778062D01*
X267474Y781813D01*
X278626Y781813D01*
X286513Y773926D01*
X286513Y762774D01*
X278626Y754887D01*
X267474Y754887D01*
X263722Y758638D01*
X263688Y758663D01*
X263659Y758694D01*
X263596Y758726D01*
X263538Y758767D01*
X263497Y758777D01*
X263459Y758797D01*
X263370Y758810D01*
X263321Y758823D01*
X263300Y758820D01*
X263274Y758824D01*
X259298Y758824D01*
X259256Y758817D01*
X259214Y758819D01*
X259147Y758797D01*
X259077Y758785D01*
X259040Y758763D01*
X259000Y758750D01*
X258927Y758696D01*
X258884Y758670D01*
X258871Y758654D01*
X258849Y758638D01*
X212912Y712701D01*
X212887Y712666D01*
X212856Y712637D01*
X212824Y712574D01*
X212783Y712516D01*
X212773Y712475D01*
X212753Y712438D01*
X212740Y712348D01*
X212727Y712299D01*
X212730Y712278D01*
X212726Y712252D01*
X212726Y703978D01*
X212739Y703903D01*
X212739Y703900D01*
X212740Y703897D01*
X212742Y703891D01*
X212751Y703802D01*
X212761Y703781D01*
X212765Y703758D01*
X212811Y703681D01*
X212850Y703601D01*
X212867Y703585D01*
X212880Y703564D01*
X212949Y703508D01*
X213013Y703447D01*
X213035Y703438D01*
X213054Y703423D01*
X213138Y703394D01*
X213220Y703360D01*
X213244Y703359D01*
X213266Y703351D01*
X213355Y703354D01*
X213444Y703350D01*
X213467Y703357D01*
X213491Y703358D01*
X213573Y703391D01*
X213658Y703418D01*
X213679Y703434D01*
X213698Y703442D01*
X213736Y703476D01*
X213808Y703530D01*
X239485Y729207D01*
X242254Y731976D01*
X245755Y733426D01*
X263274Y733426D01*
X263316Y733433D01*
X263358Y733431D01*
X263425Y733453D01*
X263495Y733465D01*
X263531Y733487D01*
X263572Y733500D01*
X263644Y733554D01*
X263688Y733580D01*
X263701Y733596D01*
X263722Y733612D01*
X267474Y737363D01*
X278626Y737363D01*
X286513Y729476D01*
X286513Y718324D01*
X278626Y710437D01*
X267474Y710437D01*
X263722Y714188D01*
X263688Y714213D01*
X263659Y714244D01*
X263596Y714276D01*
X263538Y714317D01*
X263497Y714327D01*
X263459Y714347D01*
X263370Y714360D01*
X263321Y714373D01*
X263300Y714370D01*
X263274Y714374D01*
X251858Y714374D01*
X251817Y714367D01*
X251774Y714369D01*
X251707Y714347D01*
X251638Y714335D01*
X251601Y714313D01*
X251561Y714300D01*
X251488Y714246D01*
X251444Y714220D01*
X251431Y714204D01*
X251410Y714188D01*
X225612Y688390D01*
X225587Y688355D01*
X225556Y688327D01*
X225524Y688264D01*
X225483Y688206D01*
X225473Y688165D01*
X225453Y688127D01*
X225440Y688037D01*
X225427Y687989D01*
X225430Y687968D01*
X225426Y687942D01*
X225426Y582058D01*
X225433Y582017D01*
X225431Y581974D01*
X225453Y581907D01*
X225465Y581838D01*
X225487Y581801D01*
X225500Y581761D01*
X225554Y581688D01*
X225580Y581644D01*
X225596Y581631D01*
X225612Y581610D01*
X251410Y555812D01*
X251445Y555787D01*
X251473Y555756D01*
X251536Y555724D01*
X251594Y555683D01*
X251635Y555673D01*
X251673Y555653D01*
X251763Y555640D01*
X251811Y555627D01*
X251832Y555630D01*
X251858Y555626D01*
X258822Y555626D01*
X258864Y555633D01*
X258906Y555631D01*
X258973Y555653D01*
X259043Y555665D01*
X259079Y555687D01*
X259120Y555700D01*
X259192Y555754D01*
X259236Y555780D01*
X259249Y555796D01*
X259270Y555812D01*
X259834Y556375D01*
X264273Y558214D01*
X264348Y558262D01*
X264426Y558305D01*
X264442Y558322D01*
X264462Y558335D01*
X264515Y558406D01*
X264574Y558473D01*
X264582Y558496D01*
X264597Y558515D01*
X264622Y558600D01*
X264654Y558683D01*
X264654Y558707D01*
X264660Y558730D01*
X264655Y558819D01*
X264655Y558907D01*
X264647Y558930D01*
X264646Y558953D01*
X264609Y559035D01*
X264579Y559118D01*
X264563Y559137D01*
X264554Y559158D01*
X264491Y559222D01*
X264434Y559289D01*
X264411Y559303D01*
X264396Y559318D01*
X264350Y559339D01*
X264273Y559386D01*
X262740Y560021D01*
X262721Y560025D01*
X262716Y560028D01*
X262707Y560029D01*
X262682Y560042D01*
X262565Y560059D01*
X262521Y560069D01*
X262510Y560067D01*
X262497Y560069D01*
X262236Y560069D01*
X258035Y561810D01*
X229420Y590425D01*
X227679Y594626D01*
X227679Y677822D01*
X229420Y682023D01*
X251427Y704030D01*
X255628Y705771D01*
X537770Y705771D01*
X541972Y704030D01*
X549379Y696623D01*
X549414Y696599D01*
X549443Y696568D01*
X549505Y696535D01*
X549563Y696495D01*
X549604Y696485D01*
X549642Y696465D01*
X549732Y696452D01*
X549780Y696439D01*
X549801Y696441D01*
X549827Y696437D01*
X574101Y696437D01*
X574131Y696443D01*
X574162Y696440D01*
X574277Y696469D01*
X574322Y696477D01*
X574331Y696483D01*
X574344Y696486D01*
X574452Y696531D01*
X581248Y696531D01*
X587526Y693930D01*
X592330Y689126D01*
X594931Y682848D01*
X594931Y676052D01*
X592330Y669774D01*
X587526Y664970D01*
X581248Y662369D01*
X574452Y662369D01*
X568174Y664970D01*
X563370Y669774D01*
X563009Y670644D01*
X562980Y670690D01*
X562960Y670740D01*
X562920Y670784D01*
X562888Y670833D01*
X562845Y670866D01*
X562808Y670906D01*
X562756Y670933D01*
X562709Y670968D01*
X562657Y670984D01*
X562609Y671008D01*
X562538Y671019D01*
X562494Y671032D01*
X562463Y671030D01*
X562423Y671036D01*
X543574Y671036D01*
X538906Y672970D01*
X535333Y676542D01*
X534111Y679492D01*
X534095Y679518D01*
X534085Y679547D01*
X534015Y679642D01*
X533990Y679681D01*
X533981Y679687D01*
X533974Y679698D01*
X530948Y682724D01*
X530913Y682748D01*
X530884Y682779D01*
X530821Y682811D01*
X530763Y682852D01*
X530722Y682862D01*
X530685Y682882D01*
X530595Y682895D01*
X530546Y682908D01*
X530525Y682905D01*
X530499Y682909D01*
X281078Y682909D01*
X281002Y682896D01*
X280925Y682890D01*
X280892Y682876D01*
X280857Y682870D01*
X280791Y682830D01*
X280720Y682798D01*
X280695Y682774D01*
X280664Y682755D01*
X280616Y682695D01*
X280560Y682641D01*
X280545Y682609D01*
X280523Y682581D01*
X280498Y682508D01*
X280465Y682438D01*
X280462Y682402D01*
X280451Y682369D01*
X280453Y682291D01*
X280447Y682214D01*
X280457Y682175D01*
X280458Y682144D01*
X280475Y682101D01*
X280492Y682032D01*
X282861Y676315D01*
X282861Y669885D01*
X280400Y663946D01*
X275854Y659400D01*
X275698Y659335D01*
X275613Y659281D01*
X275527Y659229D01*
X275519Y659220D01*
X275509Y659214D01*
X275449Y659133D01*
X275386Y659055D01*
X275382Y659044D01*
X275375Y659034D01*
X275346Y658938D01*
X275314Y658843D01*
X275314Y658831D01*
X275311Y658819D01*
X275317Y658719D01*
X275320Y658618D01*
X275325Y658607D01*
X275326Y658596D01*
X275367Y658503D01*
X275405Y658411D01*
X275413Y658402D01*
X275417Y658391D01*
X275488Y658319D01*
X275556Y658245D01*
X275567Y658240D01*
X275575Y658231D01*
X275666Y658188D01*
X275756Y658142D01*
X275769Y658140D01*
X275778Y658136D01*
X275824Y658132D01*
X275941Y658115D01*
X286856Y658115D01*
X286898Y658122D01*
X286940Y658120D01*
X287007Y658142D01*
X287077Y658154D01*
X287113Y658176D01*
X287154Y658189D01*
X287227Y658243D01*
X287270Y658269D01*
X287283Y658285D01*
X287304Y658301D01*
X288978Y659974D01*
X294300Y662179D01*
X300060Y662179D01*
X305382Y659974D01*
X309454Y655902D01*
X311659Y650580D01*
X311659Y644820D01*
X309454Y639498D01*
X306195Y636239D01*
X306151Y636175D01*
X306100Y636117D01*
X306087Y636084D01*
X306067Y636055D01*
X306048Y635980D01*
X306020Y635907D01*
X306020Y635872D01*
X306011Y635837D01*
X306019Y635761D01*
X306018Y635683D01*
X306030Y635650D01*
X306034Y635614D01*
X306068Y635545D01*
X306095Y635472D01*
X306118Y635445D01*
X306134Y635413D01*
X306190Y635360D01*
X306240Y635301D01*
X306275Y635280D01*
X306297Y635259D01*
X306340Y635241D01*
X306401Y635204D01*
X307922Y634574D01*
X310132Y632365D01*
X310166Y632340D01*
X310195Y632309D01*
X310258Y632277D01*
X310316Y632236D01*
X310357Y632226D01*
X310395Y632206D01*
X310484Y632193D01*
X310533Y632180D01*
X310554Y632183D01*
X310580Y632179D01*
X401029Y632179D01*
X404483Y630748D01*
X435577Y599655D01*
X435611Y599630D01*
X435640Y599599D01*
X435703Y599567D01*
X435761Y599526D01*
X435802Y599516D01*
X435840Y599496D01*
X435929Y599483D01*
X435978Y599470D01*
X435999Y599473D01*
X436025Y599469D01*
X455681Y599469D01*
X455723Y599476D01*
X455766Y599474D01*
X455833Y599496D01*
X455902Y599508D01*
X455939Y599530D01*
X455979Y599543D01*
X456052Y599597D01*
X456095Y599623D01*
X456109Y599639D01*
X456130Y599655D01*
X458710Y602235D01*
X468390Y602235D01*
X475235Y595390D01*
X475235Y585710D01*
X473135Y583610D01*
X473110Y583575D01*
X473079Y583546D01*
X473047Y583483D01*
X473006Y583426D01*
X472996Y583385D01*
X472976Y583347D01*
X472963Y583257D01*
X472950Y583208D01*
X472953Y583188D01*
X472949Y583161D01*
X472949Y559839D01*
X472956Y559797D01*
X472954Y559754D01*
X472976Y559687D01*
X472988Y559618D01*
X473010Y559581D01*
X473023Y559541D01*
X473077Y559468D01*
X473103Y559425D01*
X473119Y559411D01*
X473135Y559390D01*
X475235Y557290D01*
X475235Y547610D01*
X468390Y540765D01*
X458710Y540765D01*
X451865Y547610D01*
X451865Y557290D01*
X453965Y559390D01*
X453990Y559425D01*
X454021Y559454D01*
X454053Y559516D01*
X454094Y559574D01*
X454104Y559615D01*
X454124Y559653D01*
X454137Y559743D01*
X454150Y559792D01*
X454147Y559812D01*
X454151Y559839D01*
X454151Y580037D01*
X454140Y580102D01*
X454138Y580168D01*
X454120Y580211D01*
X454112Y580258D01*
X454078Y580315D01*
X454053Y580375D01*
X454022Y580410D01*
X453997Y580451D01*
X453946Y580493D01*
X453902Y580541D01*
X453860Y580563D01*
X453823Y580592D01*
X453761Y580613D01*
X453702Y580644D01*
X453648Y580652D01*
X453611Y580664D01*
X453571Y580663D01*
X453517Y580671D01*
X430000Y580671D01*
X426545Y582102D01*
X395452Y613195D01*
X395417Y613220D01*
X395389Y613251D01*
X395326Y613283D01*
X395268Y613324D01*
X395227Y613334D01*
X395189Y613354D01*
X395099Y613367D01*
X395051Y613380D01*
X395030Y613377D01*
X395004Y613381D01*
X311540Y613381D01*
X311498Y613374D01*
X311456Y613376D01*
X311389Y613354D01*
X311319Y613342D01*
X311283Y613320D01*
X311242Y613307D01*
X311169Y613253D01*
X311126Y613227D01*
X311113Y613211D01*
X311092Y613195D01*
X307922Y610026D01*
X306401Y609396D01*
X306335Y609354D01*
X306266Y609319D01*
X306242Y609294D01*
X306212Y609274D01*
X306165Y609212D01*
X306112Y609156D01*
X306098Y609123D01*
X306077Y609095D01*
X306055Y609021D01*
X306025Y608950D01*
X306023Y608914D01*
X306013Y608880D01*
X306018Y608803D01*
X306015Y608725D01*
X306026Y608692D01*
X306028Y608656D01*
X306060Y608585D01*
X306083Y608512D01*
X306107Y608479D01*
X306120Y608451D01*
X306153Y608418D01*
X306195Y608361D01*
X308072Y606484D01*
X308106Y606460D01*
X308135Y606429D01*
X308198Y606397D01*
X308256Y606356D01*
X308297Y606346D01*
X308335Y606326D01*
X308424Y606313D01*
X308473Y606300D01*
X308494Y606303D01*
X308520Y606299D01*
X347456Y606299D01*
X350911Y604868D01*
X431844Y523935D01*
X431879Y523910D01*
X431908Y523879D01*
X431970Y523847D01*
X432028Y523806D01*
X432069Y523796D01*
X432107Y523776D01*
X432197Y523763D01*
X432245Y523750D01*
X432266Y523753D01*
X432292Y523749D01*
X456161Y523749D01*
X456203Y523756D01*
X456246Y523754D01*
X456313Y523776D01*
X456382Y523788D01*
X456419Y523810D01*
X456459Y523823D01*
X456532Y523877D01*
X456575Y523903D01*
X456589Y523919D01*
X456610Y523935D01*
X458710Y526035D01*
X468390Y526035D01*
X475235Y519190D01*
X475235Y509510D01*
X473262Y507537D01*
X473237Y507502D01*
X473206Y507473D01*
X473174Y507411D01*
X473133Y507353D01*
X473123Y507312D01*
X473103Y507274D01*
X473090Y507184D01*
X473077Y507135D01*
X473080Y507115D01*
X473076Y507088D01*
X473076Y483512D01*
X473083Y483470D01*
X473081Y483427D01*
X473103Y483360D01*
X473115Y483291D01*
X473137Y483254D01*
X473150Y483214D01*
X473204Y483141D01*
X473230Y483098D01*
X473246Y483084D01*
X473262Y483063D01*
X475235Y481090D01*
X475235Y471410D01*
X468390Y464565D01*
X458710Y464565D01*
X451854Y471421D01*
X451838Y471471D01*
X451826Y471540D01*
X451804Y471577D01*
X451791Y471617D01*
X451737Y471690D01*
X451711Y471733D01*
X451695Y471747D01*
X451679Y471768D01*
X446746Y476701D01*
X452324Y482279D01*
X452334Y482271D01*
X452377Y482252D01*
X452416Y482225D01*
X452480Y482209D01*
X452540Y482183D01*
X452587Y482181D01*
X452633Y482169D01*
X452699Y482176D01*
X452764Y482173D01*
X452809Y482188D01*
X452856Y482193D01*
X452915Y482222D01*
X452978Y482242D01*
X453022Y482275D01*
X453058Y482292D01*
X453085Y482321D01*
X453129Y482353D01*
X453839Y483063D01*
X453863Y483098D01*
X453894Y483127D01*
X453926Y483190D01*
X453967Y483247D01*
X453977Y483288D01*
X453997Y483326D01*
X454010Y483416D01*
X454023Y483465D01*
X454020Y483485D01*
X454024Y483512D01*
X454024Y504317D01*
X454013Y504382D01*
X454011Y504448D01*
X453993Y504491D01*
X453985Y504538D01*
X453951Y504595D01*
X453926Y504655D01*
X453895Y504690D01*
X453870Y504731D01*
X453819Y504773D01*
X453775Y504821D01*
X453733Y504843D01*
X453696Y504872D01*
X453634Y504893D01*
X453575Y504924D01*
X453521Y504932D01*
X453484Y504944D01*
X453444Y504943D01*
X453390Y504951D01*
X426267Y504951D01*
X422813Y506382D01*
X341879Y587315D01*
X341845Y587340D01*
X341816Y587371D01*
X341753Y587403D01*
X341695Y587444D01*
X341654Y587454D01*
X341616Y587474D01*
X341527Y587487D01*
X341478Y587500D01*
X341457Y587497D01*
X341431Y587501D01*
X308520Y587501D01*
X308478Y587494D01*
X308436Y587496D01*
X308369Y587474D01*
X308299Y587462D01*
X308263Y587440D01*
X308222Y587427D01*
X308149Y587373D01*
X308106Y587347D01*
X308093Y587331D01*
X308072Y587316D01*
X306195Y585439D01*
X306151Y585375D01*
X306100Y585317D01*
X306087Y585284D01*
X306067Y585255D01*
X306048Y585180D01*
X306020Y585107D01*
X306020Y585072D01*
X306011Y585037D01*
X306019Y584961D01*
X306018Y584883D01*
X306030Y584850D01*
X306034Y584814D01*
X306068Y584745D01*
X306095Y584672D01*
X306118Y584645D01*
X306134Y584613D01*
X306190Y584560D01*
X306240Y584501D01*
X306275Y584480D01*
X306297Y584459D01*
X306340Y584441D01*
X306401Y584404D01*
X307922Y583774D01*
X311994Y579702D01*
X314199Y574380D01*
X314199Y568620D01*
X311994Y563298D01*
X307922Y559226D01*
X306401Y558596D01*
X306335Y558554D01*
X306266Y558519D01*
X306242Y558494D01*
X306212Y558474D01*
X306165Y558412D01*
X306112Y558356D01*
X306098Y558323D01*
X306077Y558295D01*
X306055Y558221D01*
X306025Y558150D01*
X306023Y558114D01*
X306013Y558080D01*
X306018Y558003D01*
X306015Y557925D01*
X306026Y557892D01*
X306028Y557856D01*
X306060Y557786D01*
X306083Y557712D01*
X306107Y557679D01*
X306120Y557651D01*
X306153Y557618D01*
X306195Y557561D01*
X309454Y554302D01*
X311659Y548980D01*
X311659Y543220D01*
X309454Y537898D01*
X306195Y534639D01*
X306151Y534575D01*
X306100Y534517D01*
X306087Y534484D01*
X306067Y534455D01*
X306048Y534380D01*
X306020Y534307D01*
X306020Y534272D01*
X306011Y534237D01*
X306019Y534161D01*
X306018Y534083D01*
X306030Y534050D01*
X306034Y534014D01*
X306068Y533945D01*
X306095Y533872D01*
X306118Y533845D01*
X306134Y533813D01*
X306190Y533760D01*
X306240Y533701D01*
X306275Y533680D01*
X306297Y533659D01*
X306340Y533641D01*
X306401Y533604D01*
X307922Y532974D01*
X311994Y528902D01*
X314199Y523580D01*
X314199Y517820D01*
X311994Y512498D01*
X307922Y508426D01*
X306401Y507796D01*
X306335Y507754D01*
X306266Y507719D01*
X306242Y507694D01*
X306212Y507674D01*
X306165Y507612D01*
X306112Y507556D01*
X306098Y507523D01*
X306077Y507495D01*
X306055Y507421D01*
X306025Y507350D01*
X306023Y507314D01*
X306013Y507280D01*
X306018Y507203D01*
X306015Y507125D01*
X306026Y507092D01*
X306028Y507056D01*
X306060Y506985D01*
X306083Y506912D01*
X306107Y506879D01*
X306120Y506851D01*
X306153Y506818D01*
X306195Y506761D01*
X308072Y504884D01*
X308106Y504860D01*
X308135Y504829D01*
X308198Y504797D01*
X308256Y504756D01*
X308297Y504746D01*
X308335Y504726D01*
X308424Y504713D01*
X308473Y504700D01*
X308494Y504703D01*
X308520Y504699D01*
X312117Y504699D01*
X315571Y503268D01*
X318304Y500535D01*
X318305Y500535D01*
X350220Y468619D01*
X350255Y468595D01*
X350284Y468564D01*
X350346Y468531D01*
X350404Y468491D01*
X350445Y468481D01*
X350483Y468461D01*
X350573Y468448D01*
X350622Y468435D01*
X350642Y468437D01*
X350669Y468433D01*
X353639Y468433D01*
X360483Y461589D01*
X360483Y459521D01*
X360491Y459479D01*
X360489Y459437D01*
X360511Y459370D01*
X360523Y459300D01*
X360545Y459264D01*
X360558Y459223D01*
X360612Y459151D01*
X360637Y459107D01*
X360653Y459094D01*
X360669Y459073D01*
X412957Y406784D01*
X413002Y406753D01*
X413040Y406715D01*
X413093Y406690D01*
X413142Y406656D01*
X413194Y406643D01*
X413243Y406620D01*
X413302Y406615D01*
X413359Y406600D01*
X413413Y406606D01*
X413467Y406601D01*
X413536Y406619D01*
X413582Y406624D01*
X413610Y406637D01*
X413649Y406647D01*
X414557Y407023D01*
X436343Y407023D01*
X441240Y404995D01*
X444987Y401247D01*
X447016Y396350D01*
X447016Y391050D01*
X444987Y386153D01*
X441240Y382405D01*
X439262Y381586D01*
X439187Y381538D01*
X439109Y381496D01*
X439093Y381478D01*
X439073Y381465D01*
X439020Y381394D01*
X438961Y381327D01*
X438953Y381304D01*
X438938Y381285D01*
X438913Y381200D01*
X438881Y381117D01*
X438881Y381093D01*
X438874Y381070D01*
X438880Y380982D01*
X438880Y380893D01*
X438888Y380870D01*
X438889Y380847D01*
X438926Y380765D01*
X438956Y380682D01*
X438971Y380664D01*
X438981Y380642D01*
X439044Y380578D01*
X439101Y380511D01*
X439124Y380497D01*
X439139Y380482D01*
X439184Y380461D01*
X439262Y380414D01*
X441240Y379595D01*
X444987Y375847D01*
X447016Y370950D01*
X447016Y365650D01*
X444987Y360753D01*
X441240Y357005D01*
X439262Y356186D01*
X439187Y356138D01*
X439109Y356096D01*
X439093Y356078D01*
X439073Y356065D01*
X439020Y355994D01*
X438961Y355927D01*
X438953Y355904D01*
X438938Y355885D01*
X438913Y355800D01*
X438881Y355717D01*
X438881Y355693D01*
X438874Y355670D01*
X438880Y355582D01*
X438880Y355493D01*
X438888Y355470D01*
X438889Y355447D01*
X438926Y355365D01*
X438956Y355282D01*
X438971Y355264D01*
X438981Y355242D01*
X439044Y355178D01*
X439101Y355111D01*
X439124Y355097D01*
X439139Y355082D01*
X439184Y355061D01*
X439262Y355014D01*
X441240Y354195D01*
X444987Y350447D01*
X447016Y345550D01*
X447016Y340250D01*
X444987Y335353D01*
X441240Y331605D01*
X439262Y330786D01*
X439187Y330738D01*
X439109Y330696D01*
X439093Y330678D01*
X439073Y330665D01*
X439020Y330594D01*
X438961Y330527D01*
X438953Y330504D01*
X438938Y330485D01*
X438913Y330400D01*
X438881Y330317D01*
X438881Y330293D01*
X438874Y330270D01*
X438880Y330182D01*
X438880Y330093D01*
X438888Y330070D01*
X438889Y330047D01*
X438926Y329965D01*
X438956Y329882D01*
X438971Y329864D01*
X438981Y329842D01*
X439044Y329778D01*
X439101Y329711D01*
X439124Y329697D01*
X439139Y329682D01*
X439184Y329661D01*
X439262Y329614D01*
X441240Y328795D01*
X444987Y325047D01*
X447016Y320150D01*
X447016Y314850D01*
X444987Y309953D01*
X441240Y306205D01*
X439262Y305386D01*
X439187Y305338D01*
X439109Y305296D01*
X439093Y305278D01*
X439073Y305265D01*
X439020Y305194D01*
X438961Y305127D01*
X438953Y305104D01*
X438938Y305085D01*
X438913Y305000D01*
X438881Y304917D01*
X438881Y304893D01*
X438874Y304870D01*
X438880Y304782D01*
X438880Y304693D01*
X438888Y304670D01*
X438889Y304647D01*
X438926Y304565D01*
X438956Y304482D01*
X438971Y304464D01*
X438981Y304442D01*
X439044Y304378D01*
X439101Y304311D01*
X439124Y304297D01*
X439139Y304282D01*
X439184Y304261D01*
X439262Y304214D01*
X441240Y303395D01*
X444987Y299647D01*
X447016Y294750D01*
X447016Y289450D01*
X444987Y284553D01*
X441240Y280805D01*
X439262Y279986D01*
X439187Y279938D01*
X439109Y279896D01*
X439093Y279878D01*
X439073Y279865D01*
X439020Y279794D01*
X438961Y279727D01*
X438953Y279704D01*
X438938Y279685D01*
X438913Y279600D01*
X438881Y279517D01*
X438881Y279493D01*
X438874Y279470D01*
X438880Y279382D01*
X438880Y279293D01*
X438888Y279270D01*
X438889Y279247D01*
X438926Y279165D01*
X438956Y279082D01*
X438971Y279064D01*
X438981Y279042D01*
X439044Y278978D01*
X439101Y278911D01*
X439124Y278897D01*
X439139Y278882D01*
X439184Y278861D01*
X439262Y278814D01*
X441240Y277995D01*
X444987Y274247D01*
X447016Y269350D01*
X447016Y264050D01*
X444987Y259153D01*
X441240Y255405D01*
X440795Y255221D01*
X440710Y255167D01*
X440624Y255115D01*
X440616Y255106D01*
X440606Y255100D01*
X440545Y255019D01*
X440482Y254941D01*
X440478Y254930D01*
X440471Y254920D01*
X440442Y254824D01*
X440410Y254729D01*
X440411Y254717D01*
X440407Y254705D01*
X440414Y254605D01*
X440417Y254504D01*
X440421Y254493D01*
X440422Y254482D01*
X440463Y254390D01*
X440501Y254297D01*
X440509Y254288D01*
X440514Y254277D01*
X440585Y254205D01*
X440653Y254131D01*
X440663Y254125D01*
X440672Y254117D01*
X440763Y254074D01*
X440852Y254028D01*
X440865Y254026D01*
X440875Y254022D01*
X440920Y254018D01*
X441038Y254001D01*
X445326Y254001D01*
X445368Y254008D01*
X445411Y254006D01*
X445478Y254028D01*
X445547Y254040D01*
X445584Y254062D01*
X445624Y254075D01*
X445697Y254129D01*
X445740Y254155D01*
X445754Y254171D01*
X445775Y254187D01*
X507813Y316225D01*
X507838Y316260D01*
X507869Y316289D01*
X507901Y316351D01*
X507942Y316409D01*
X507952Y316450D01*
X507972Y316488D01*
X507985Y316578D01*
X507998Y316627D01*
X507995Y316647D01*
X507999Y316674D01*
X507999Y631176D01*
X508459Y632286D01*
X508466Y632316D01*
X508480Y632344D01*
X508497Y632461D01*
X508507Y632505D01*
X508505Y632516D01*
X508507Y632529D01*
X508507Y638187D01*
X510364Y642669D01*
X513793Y646098D01*
X518275Y647955D01*
X523125Y647955D01*
X527607Y646098D01*
X531036Y642669D01*
X532814Y638377D01*
X532862Y638302D01*
X532904Y638224D01*
X532922Y638208D01*
X532935Y638188D01*
X533006Y638135D01*
X533073Y638076D01*
X533096Y638068D01*
X533115Y638054D01*
X533200Y638028D01*
X533283Y637997D01*
X533307Y637996D01*
X533330Y637990D01*
X533418Y637996D01*
X533507Y637995D01*
X533530Y638003D01*
X533553Y638005D01*
X533635Y638041D01*
X533718Y638071D01*
X533736Y638087D01*
X533758Y638097D01*
X533821Y638159D01*
X533889Y638217D01*
X533903Y638239D01*
X533918Y638254D01*
X533939Y638300D01*
X533986Y638377D01*
X535764Y642669D01*
X539193Y646098D01*
X543675Y647955D01*
X548525Y647955D01*
X553007Y646098D01*
X556436Y642669D01*
X558293Y638187D01*
X558293Y636362D01*
X558300Y636320D01*
X558298Y636278D01*
X558320Y636210D01*
X558332Y636141D01*
X558354Y636104D01*
X558367Y636064D01*
X558421Y635991D01*
X558447Y635948D01*
X558463Y635935D01*
X558479Y635913D01*
X560765Y633627D01*
X560838Y633576D01*
X560907Y633520D01*
X560929Y633513D01*
X560949Y633499D01*
X561035Y633477D01*
X561119Y633448D01*
X561143Y633449D01*
X561166Y633443D01*
X561255Y633452D01*
X561344Y633455D01*
X561366Y633464D01*
X561389Y633466D01*
X561469Y633506D01*
X561551Y633539D01*
X561569Y633555D01*
X561590Y633566D01*
X561651Y633631D01*
X561717Y633691D01*
X561728Y633712D01*
X561744Y633729D01*
X561779Y633811D01*
X561820Y633890D01*
X561823Y633917D01*
X561832Y633936D01*
X561834Y633986D01*
X561847Y634076D01*
X561847Y636713D01*
X562218Y638578D01*
X562946Y640334D01*
X564002Y641915D01*
X565347Y643260D01*
X566928Y644316D01*
X568684Y645044D01*
X570231Y645351D01*
X570231Y629285D01*
X570242Y629220D01*
X570244Y629155D01*
X570262Y629111D01*
X570270Y629064D01*
X570304Y629008D01*
X570329Y628947D01*
X570360Y628912D01*
X570385Y628871D01*
X570436Y628830D01*
X570480Y628781D01*
X570522Y628759D01*
X570559Y628730D01*
X570621Y628709D01*
X570680Y628679D01*
X570734Y628670D01*
X570771Y628658D01*
X570811Y628659D01*
X570865Y628651D01*
X571501Y628651D01*
X571501Y628015D01*
X571513Y627950D01*
X571514Y627884D01*
X571532Y627841D01*
X571541Y627794D01*
X571574Y627737D01*
X571599Y627677D01*
X571631Y627642D01*
X571655Y627601D01*
X571706Y627560D01*
X571750Y627511D01*
X571792Y627489D01*
X571829Y627460D01*
X571891Y627439D01*
X571950Y627408D01*
X572004Y627400D01*
X572041Y627388D01*
X572081Y627389D01*
X572135Y627381D01*
X581153Y627381D01*
X581153Y620587D01*
X580782Y618722D01*
X580054Y616966D01*
X579086Y615517D01*
X579080Y615503D01*
X579070Y615491D01*
X579035Y615400D01*
X578996Y615311D01*
X578996Y615296D01*
X578990Y615282D01*
X578989Y615184D01*
X578984Y615087D01*
X578989Y615073D01*
X578988Y615057D01*
X579022Y614966D01*
X579050Y614873D01*
X579060Y614861D01*
X579065Y614846D01*
X579128Y614772D01*
X579187Y614695D01*
X579200Y614687D01*
X579210Y614675D01*
X579371Y614579D01*
X580126Y614266D01*
X582859Y611533D01*
X591971Y602421D01*
X592006Y602396D01*
X592035Y602365D01*
X592098Y602333D01*
X592155Y602292D01*
X592197Y602282D01*
X592234Y602262D01*
X592324Y602249D01*
X592373Y602236D01*
X592394Y602239D01*
X592420Y602235D01*
X595390Y602235D01*
X602235Y595390D01*
X602235Y585710D01*
X595390Y578865D01*
X585710Y578865D01*
X578865Y585710D01*
X578865Y588680D01*
X578858Y588722D01*
X578860Y588764D01*
X578838Y588832D01*
X578826Y588901D01*
X578804Y588938D01*
X578791Y588978D01*
X578737Y589051D01*
X578711Y589094D01*
X578695Y589107D01*
X578679Y589129D01*
X571095Y596713D01*
X571060Y596738D01*
X571031Y596769D01*
X570968Y596801D01*
X570910Y596842D01*
X570869Y596852D01*
X570832Y596872D01*
X570742Y596885D01*
X570693Y596898D01*
X570672Y596895D01*
X570646Y596899D01*
X563318Y596899D01*
X559863Y598330D01*
X551025Y607168D01*
X549034Y609159D01*
X548999Y609184D01*
X548971Y609215D01*
X548908Y609247D01*
X548850Y609288D01*
X548809Y609298D01*
X548771Y609318D01*
X548681Y609331D01*
X548633Y609344D01*
X548612Y609341D01*
X548586Y609345D01*
X543675Y609345D01*
X539193Y611202D01*
X535764Y614631D01*
X534621Y617390D01*
X534592Y617435D01*
X534575Y617476D01*
X534548Y617506D01*
X534515Y617561D01*
X534506Y617569D01*
X534500Y617579D01*
X534442Y617622D01*
X534424Y617642D01*
X534402Y617653D01*
X534341Y617702D01*
X534330Y617706D01*
X534320Y617713D01*
X534236Y617739D01*
X534224Y617745D01*
X534211Y617747D01*
X534129Y617774D01*
X534117Y617774D01*
X534105Y617777D01*
X534004Y617771D01*
X533904Y617768D01*
X533893Y617763D01*
X533882Y617762D01*
X533816Y617733D01*
X533814Y617733D01*
X533811Y617731D01*
X533789Y617721D01*
X533697Y617683D01*
X533688Y617675D01*
X533677Y617670D01*
X533629Y617623D01*
X533621Y617618D01*
X533609Y617603D01*
X533605Y617600D01*
X533531Y617532D01*
X533525Y617521D01*
X533517Y617513D01*
X533492Y617460D01*
X533480Y617444D01*
X533467Y617408D01*
X533428Y617332D01*
X533426Y617319D01*
X533422Y617310D01*
X533418Y617264D01*
X533418Y617262D01*
X533408Y617232D01*
X533409Y617200D01*
X533401Y617147D01*
X533401Y449653D01*
X533414Y449580D01*
X533414Y449565D01*
X533418Y449556D01*
X533419Y449554D01*
X533433Y449454D01*
X533438Y449444D01*
X533440Y449432D01*
X533491Y449346D01*
X533539Y449257D01*
X533548Y449249D01*
X533555Y449239D01*
X533632Y449176D01*
X533708Y449109D01*
X533720Y449105D01*
X533729Y449098D01*
X533824Y449065D01*
X533918Y449030D01*
X533930Y449029D01*
X533941Y449026D01*
X534041Y449029D01*
X534142Y449028D01*
X534154Y449032D01*
X534166Y449032D01*
X534258Y449070D01*
X534353Y449104D01*
X534362Y449112D01*
X534373Y449117D01*
X534448Y449184D01*
X534524Y449250D01*
X534531Y449261D01*
X534539Y449268D01*
X534560Y449309D01*
X534621Y449410D01*
X535764Y452169D01*
X539193Y455598D01*
X543675Y457455D01*
X548586Y457455D01*
X548627Y457462D01*
X548670Y457460D01*
X548737Y457482D01*
X548806Y457494D01*
X548843Y457516D01*
X548883Y457529D01*
X548956Y457583D01*
X549000Y457609D01*
X549013Y457625D01*
X549034Y457641D01*
X575611Y484218D01*
X579066Y485649D01*
X583161Y485649D01*
X583203Y485656D01*
X583246Y485654D01*
X583313Y485676D01*
X583382Y485688D01*
X583419Y485710D01*
X583459Y485723D01*
X583532Y485777D01*
X583575Y485803D01*
X583589Y485819D01*
X583610Y485835D01*
X585710Y487935D01*
X595390Y487935D01*
X602235Y481090D01*
X602235Y471410D01*
X595390Y464565D01*
X585710Y464565D01*
X584575Y465701D01*
X584521Y465738D01*
X584473Y465783D01*
X584429Y465802D01*
X584391Y465829D01*
X584327Y465845D01*
X584266Y465871D01*
X584219Y465873D01*
X584173Y465885D01*
X584108Y465878D01*
X584042Y465881D01*
X583997Y465866D01*
X583950Y465861D01*
X583891Y465832D01*
X583828Y465812D01*
X583784Y465779D01*
X583749Y465762D01*
X583722Y465733D01*
X583678Y465701D01*
X573658Y455681D01*
X573642Y455658D01*
X573621Y455641D01*
X573578Y455567D01*
X573530Y455496D01*
X573523Y455470D01*
X573509Y455446D01*
X573495Y455362D01*
X573474Y455279D01*
X573477Y455252D01*
X573472Y455225D01*
X573488Y455141D01*
X573497Y455056D01*
X573509Y455032D01*
X573514Y455005D01*
X573558Y454932D01*
X573596Y454855D01*
X573616Y454836D01*
X573630Y454813D01*
X573698Y454760D01*
X573760Y454701D01*
X573785Y454690D01*
X573806Y454673D01*
X573929Y454629D01*
X573966Y454613D01*
X573974Y454613D01*
X573983Y454610D01*
X574316Y454544D01*
X576072Y453816D01*
X577653Y452760D01*
X578998Y451415D01*
X580054Y449834D01*
X580782Y448078D01*
X581153Y446213D01*
X581153Y439419D01*
X572135Y439419D01*
X572070Y439408D01*
X572005Y439406D01*
X571961Y439388D01*
X571914Y439380D01*
X571858Y439346D01*
X571797Y439321D01*
X571762Y439289D01*
X571721Y439265D01*
X571680Y439214D01*
X571631Y439170D01*
X571609Y439128D01*
X571580Y439091D01*
X571559Y439029D01*
X571529Y438970D01*
X571520Y438916D01*
X571508Y438879D01*
X571509Y438839D01*
X571501Y438785D01*
X571501Y438149D01*
X571499Y438149D01*
X571499Y438785D01*
X571487Y438850D01*
X571486Y438915D01*
X571468Y438959D01*
X571459Y439006D01*
X571426Y439063D01*
X571401Y439123D01*
X571369Y439158D01*
X571345Y439199D01*
X571294Y439240D01*
X571250Y439289D01*
X571208Y439311D01*
X571171Y439340D01*
X571109Y439361D01*
X571050Y439392D01*
X570996Y439400D01*
X570959Y439412D01*
X570919Y439411D01*
X570865Y439419D01*
X561739Y439419D01*
X561723Y439452D01*
X561706Y439468D01*
X561693Y439488D01*
X561624Y439544D01*
X561560Y439605D01*
X561538Y439615D01*
X561519Y439630D01*
X561435Y439658D01*
X561353Y439693D01*
X561329Y439694D01*
X561307Y439702D01*
X561218Y439699D01*
X561129Y439703D01*
X561106Y439696D01*
X561082Y439695D01*
X561000Y439661D01*
X560915Y439634D01*
X560894Y439618D01*
X560875Y439611D01*
X560837Y439577D01*
X560764Y439523D01*
X558478Y437237D01*
X558454Y437202D01*
X558423Y437173D01*
X558391Y437110D01*
X558350Y437052D01*
X558340Y437011D01*
X558320Y436974D01*
X558307Y436884D01*
X558294Y436835D01*
X558297Y436814D01*
X558293Y436788D01*
X558293Y428613D01*
X556436Y424131D01*
X553007Y420702D01*
X548525Y418845D01*
X543675Y418845D01*
X539193Y420702D01*
X535764Y424131D01*
X534621Y426890D01*
X534567Y426974D01*
X534515Y427061D01*
X534506Y427069D01*
X534500Y427079D01*
X534419Y427139D01*
X534341Y427202D01*
X534330Y427206D01*
X534320Y427213D01*
X534224Y427242D01*
X534129Y427274D01*
X534117Y427274D01*
X534105Y427277D01*
X534004Y427271D01*
X533904Y427268D01*
X533893Y427263D01*
X533882Y427262D01*
X533789Y427221D01*
X533697Y427183D01*
X533688Y427175D01*
X533677Y427171D01*
X533605Y427100D01*
X533531Y427032D01*
X533525Y427021D01*
X533517Y427013D01*
X533475Y426922D01*
X533428Y426832D01*
X533426Y426819D01*
X533422Y426810D01*
X533418Y426764D01*
X533401Y426647D01*
X533401Y308624D01*
X531467Y303956D01*
X458044Y230533D01*
X453376Y228599D01*
X437972Y228599D01*
X437941Y228594D01*
X437911Y228596D01*
X437796Y228568D01*
X437751Y228560D01*
X437742Y228554D01*
X437729Y228551D01*
X436343Y227977D01*
X414557Y227977D01*
X410105Y229821D01*
X410075Y229828D01*
X410048Y229842D01*
X409930Y229859D01*
X409886Y229869D01*
X409875Y229867D01*
X409862Y229869D01*
X396367Y229869D01*
X396302Y229858D01*
X396236Y229856D01*
X396193Y229838D01*
X396146Y229830D01*
X396089Y229796D01*
X396029Y229771D01*
X395994Y229740D01*
X395953Y229715D01*
X395911Y229664D01*
X395863Y229620D01*
X395841Y229578D01*
X395812Y229541D01*
X395791Y229479D01*
X395760Y229420D01*
X395752Y229366D01*
X395740Y229329D01*
X395741Y229289D01*
X395733Y229235D01*
X395733Y54240D01*
X393992Y50038D01*
X368048Y24094D01*
X364744Y20790D01*
X360542Y19049D01*
X183146Y19049D01*
X178945Y20790D01*
X175640Y24094D01*
X148361Y51374D01*
X148336Y51391D01*
X148316Y51415D01*
X148214Y51476D01*
X148177Y51502D01*
X148166Y51504D01*
X148155Y51511D01*
X145206Y52733D01*
X141633Y56306D01*
X141124Y57533D01*
X141108Y57559D01*
X141098Y57589D01*
X141028Y57684D01*
X141003Y57722D01*
X140995Y57729D01*
X140987Y57739D01*
X140126Y58600D01*
X137921Y63922D01*
X137921Y88478D01*
X139651Y92654D01*
X139658Y92684D01*
X139672Y92711D01*
X139689Y92829D01*
X139699Y92873D01*
X139697Y92884D01*
X139699Y92897D01*
X139699Y354965D01*
X139688Y355030D01*
X139686Y355096D01*
X139668Y355139D01*
X139660Y355186D01*
X139626Y355243D01*
X139601Y355303D01*
X139570Y355338D01*
X139545Y355379D01*
X139494Y355421D01*
X139450Y355469D01*
X139408Y355491D01*
X139371Y355520D01*
X139309Y355541D01*
X139250Y355572D01*
X139196Y355580D01*
X139159Y355592D01*
X139119Y355591D01*
X139065Y355599D01*
X118503Y355599D01*
X118404Y355581D01*
X118304Y355567D01*
X118294Y355562D01*
X118282Y355560D01*
X118195Y355508D01*
X118107Y355461D01*
X118099Y355452D01*
X118089Y355445D01*
X118026Y355368D01*
X117959Y355292D01*
X117955Y355280D01*
X117947Y355271D01*
X117915Y355176D01*
X117879Y355082D01*
X117879Y355070D01*
X117876Y355059D01*
X117878Y354959D01*
X117878Y354858D01*
X117882Y354846D01*
X117882Y354834D01*
X117920Y354742D01*
X117954Y354647D01*
X117962Y354638D01*
X117966Y354627D01*
X118034Y354553D01*
X118099Y354476D01*
X118111Y354469D01*
X118118Y354461D01*
X118159Y354440D01*
X118260Y354379D01*
X121166Y353175D01*
X124575Y349766D01*
X126421Y345311D01*
X126421Y340489D01*
X124575Y336034D01*
X121166Y332625D01*
X116727Y330786D01*
X116652Y330738D01*
X116574Y330696D01*
X116558Y330678D01*
X116538Y330665D01*
X116485Y330594D01*
X116426Y330527D01*
X116418Y330504D01*
X116403Y330485D01*
X116378Y330400D01*
X116346Y330317D01*
X116346Y330293D01*
X116340Y330270D01*
X116345Y330182D01*
X116345Y330093D01*
X116353Y330070D01*
X116354Y330047D01*
X116391Y329965D01*
X116421Y329882D01*
X116437Y329864D01*
X116446Y329842D01*
X116509Y329778D01*
X116566Y329711D01*
X116589Y329697D01*
X116604Y329682D01*
X116649Y329661D01*
X116727Y329614D01*
X121166Y327775D01*
X124575Y324366D01*
X126421Y319911D01*
X126421Y315089D01*
X124575Y310634D01*
X121166Y307225D01*
X116727Y305386D01*
X116652Y305338D01*
X116574Y305296D01*
X116558Y305278D01*
X116538Y305265D01*
X116485Y305194D01*
X116426Y305127D01*
X116418Y305104D01*
X116403Y305085D01*
X116378Y305000D01*
X116346Y304917D01*
X116346Y304893D01*
X116340Y304870D01*
X116345Y304782D01*
X116345Y304693D01*
X116353Y304670D01*
X116354Y304647D01*
X116391Y304565D01*
X116421Y304482D01*
X116437Y304464D01*
X116446Y304442D01*
X116509Y304378D01*
X116566Y304311D01*
X116589Y304297D01*
X116604Y304282D01*
X116649Y304261D01*
X116727Y304214D01*
X121166Y302375D01*
X124575Y298966D01*
X126421Y294511D01*
X126421Y289689D01*
X124575Y285234D01*
X121166Y281825D01*
X116727Y279986D01*
X116652Y279938D01*
X116574Y279896D01*
X116558Y279878D01*
X116538Y279865D01*
X116485Y279794D01*
X116426Y279727D01*
X116418Y279704D01*
X116403Y279685D01*
X116378Y279600D01*
X116346Y279517D01*
X116346Y279493D01*
X116340Y279470D01*
X116345Y279382D01*
X116345Y279293D01*
X116353Y279270D01*
X116354Y279247D01*
X116391Y279165D01*
X116421Y279082D01*
X116437Y279064D01*
X116446Y279042D01*
X116509Y278978D01*
X116566Y278911D01*
X116589Y278897D01*
X116604Y278882D01*
X116649Y278861D01*
X116727Y278814D01*
X121166Y276975D01*
X124575Y273566D01*
X126421Y269111D01*
X126421Y264289D01*
X124575Y259834D01*
X121166Y256425D01*
X116727Y254586D01*
X116652Y254538D01*
X116574Y254496D01*
X116558Y254478D01*
X116538Y254465D01*
X116485Y254394D01*
X116426Y254327D01*
X116418Y254304D01*
X116403Y254285D01*
X116378Y254200D01*
X116346Y254117D01*
X116346Y254093D01*
X116340Y254070D01*
X116345Y253982D01*
X116345Y253893D01*
X116353Y253870D01*
X116354Y253847D01*
X116391Y253765D01*
X116421Y253682D01*
X116437Y253664D01*
X116446Y253642D01*
X116509Y253578D01*
X116566Y253511D01*
X116589Y253497D01*
X116604Y253482D01*
X116649Y253461D01*
X116727Y253414D01*
X121166Y251575D01*
X124575Y248166D01*
X126421Y243711D01*
X126421Y238889D01*
X124575Y234434D01*
X121500Y231359D01*
X121456Y231296D01*
X121405Y231237D01*
X121392Y231204D01*
X121372Y231175D01*
X121353Y231100D01*
X121325Y231027D01*
X121325Y230992D01*
X121316Y230958D01*
X121324Y230881D01*
X121324Y230803D01*
X121336Y230770D01*
X121340Y230734D01*
X121374Y230665D01*
X121400Y230592D01*
X121423Y230565D01*
X121439Y230533D01*
X121495Y230480D01*
X121545Y230421D01*
X121580Y230400D01*
X121602Y230379D01*
X121645Y230361D01*
X121706Y230325D01*
X123454Y229600D01*
X128000Y225054D01*
X130461Y219115D01*
X130461Y212685D01*
X128000Y206746D01*
X123454Y202200D01*
X117515Y199739D01*
X111085Y199739D01*
X105146Y202200D01*
X100600Y206746D01*
X98139Y212685D01*
X98139Y219115D01*
X100600Y225054D01*
X105146Y229600D01*
X105302Y229665D01*
X105387Y229719D01*
X105473Y229771D01*
X105481Y229780D01*
X105491Y229786D01*
X105551Y229867D01*
X105614Y229945D01*
X105618Y229956D01*
X105625Y229966D01*
X105654Y230062D01*
X105686Y230157D01*
X105686Y230169D01*
X105689Y230181D01*
X105683Y230281D01*
X105680Y230382D01*
X105675Y230393D01*
X105674Y230404D01*
X105633Y230497D01*
X105595Y230589D01*
X105587Y230598D01*
X105583Y230609D01*
X105512Y230681D01*
X105444Y230755D01*
X105433Y230760D01*
X105425Y230769D01*
X105334Y230812D01*
X105244Y230858D01*
X105231Y230860D01*
X105222Y230864D01*
X105176Y230868D01*
X105059Y230885D01*
X91604Y230885D01*
X91562Y230878D01*
X91520Y230880D01*
X91453Y230858D01*
X91383Y230846D01*
X91347Y230824D01*
X91306Y230811D01*
X91233Y230757D01*
X91190Y230731D01*
X91186Y230727D01*
X91184Y230726D01*
X91174Y230713D01*
X91155Y230699D01*
X89482Y229026D01*
X84160Y226821D01*
X78400Y226821D01*
X73078Y229026D01*
X69006Y233098D01*
X66801Y238420D01*
X66801Y244180D01*
X69006Y249502D01*
X73078Y253574D01*
X74599Y254204D01*
X74664Y254246D01*
X74734Y254281D01*
X74758Y254306D01*
X74788Y254326D01*
X74835Y254387D01*
X74888Y254444D01*
X74902Y254477D01*
X74923Y254505D01*
X74945Y254579D01*
X74975Y254650D01*
X74977Y254686D01*
X74987Y254720D01*
X74982Y254797D01*
X74985Y254875D01*
X74974Y254908D01*
X74972Y254944D01*
X74940Y255014D01*
X74917Y255088D01*
X74893Y255121D01*
X74880Y255149D01*
X74847Y255182D01*
X74805Y255239D01*
X71546Y258498D01*
X69341Y263820D01*
X69341Y269580D01*
X71546Y274902D01*
X74805Y278161D01*
X74849Y278225D01*
X74900Y278283D01*
X74913Y278316D01*
X74933Y278345D01*
X74952Y278420D01*
X74980Y278493D01*
X74980Y278528D01*
X74989Y278563D01*
X74981Y278639D01*
X74982Y278717D01*
X74970Y278750D01*
X74966Y278786D01*
X74932Y278855D01*
X74905Y278928D01*
X74882Y278955D01*
X74866Y278987D01*
X74810Y279040D01*
X74760Y279099D01*
X74725Y279120D01*
X74703Y279141D01*
X74660Y279159D01*
X74599Y279196D01*
X73078Y279826D01*
X69006Y283898D01*
X66801Y289220D01*
X66801Y294980D01*
X69006Y300302D01*
X73078Y304374D01*
X74599Y305004D01*
X74664Y305046D01*
X74734Y305081D01*
X74758Y305106D01*
X74788Y305126D01*
X74835Y305187D01*
X74888Y305244D01*
X74902Y305277D01*
X74923Y305305D01*
X74945Y305379D01*
X74975Y305450D01*
X74977Y305486D01*
X74987Y305520D01*
X74982Y305597D01*
X74985Y305675D01*
X74974Y305708D01*
X74972Y305744D01*
X74940Y305814D01*
X74917Y305888D01*
X74893Y305921D01*
X74880Y305949D01*
X74847Y305982D01*
X74805Y306039D01*
X71546Y309298D01*
X69341Y314620D01*
X69341Y320380D01*
X71546Y325702D01*
X74805Y328961D01*
X74849Y329025D01*
X74900Y329083D01*
X74913Y329116D01*
X74933Y329145D01*
X74952Y329220D01*
X74980Y329293D01*
X74980Y329328D01*
X74989Y329363D01*
X74981Y329439D01*
X74982Y329517D01*
X74970Y329550D01*
X74966Y329586D01*
X74932Y329655D01*
X74905Y329728D01*
X74882Y329755D01*
X74866Y329787D01*
X74810Y329840D01*
X74760Y329899D01*
X74725Y329920D01*
X74703Y329941D01*
X74660Y329959D01*
X74599Y329996D01*
X73078Y330626D01*
X69006Y334698D01*
X66801Y340020D01*
X66801Y345780D01*
X69006Y351102D01*
X73078Y355174D01*
X74599Y355804D01*
X74665Y355846D01*
X74734Y355881D01*
X74758Y355906D01*
X74788Y355926D01*
X74835Y355988D01*
X74888Y356044D01*
X74902Y356077D01*
X74923Y356105D01*
X74945Y356179D01*
X74975Y356250D01*
X74977Y356286D01*
X74987Y356320D01*
X74982Y356397D01*
X74985Y356475D01*
X74974Y356508D01*
X74972Y356544D01*
X74940Y356614D01*
X74917Y356688D01*
X74893Y356721D01*
X74880Y356749D01*
X74847Y356782D01*
X74805Y356839D01*
X71546Y360098D01*
X69341Y365420D01*
X69341Y371180D01*
X71546Y376502D01*
X74805Y379761D01*
X74849Y379825D01*
X74900Y379883D01*
X74913Y379916D01*
X74933Y379945D01*
X74952Y380020D01*
X74980Y380093D01*
X74980Y380128D01*
X74989Y380163D01*
X74981Y380239D01*
X74982Y380317D01*
X74970Y380350D01*
X74966Y380386D01*
X74932Y380455D01*
X74905Y380528D01*
X74882Y380555D01*
X74866Y380587D01*
X74810Y380640D01*
X74760Y380699D01*
X74725Y380720D01*
X74703Y380741D01*
X74660Y380759D01*
X74599Y380796D01*
X73078Y381426D01*
X69006Y385498D01*
X66801Y390820D01*
X66801Y396580D01*
X69006Y401902D01*
X73078Y405974D01*
X74599Y406604D01*
X74665Y406646D01*
X74734Y406681D01*
X74758Y406706D01*
X74788Y406726D01*
X74835Y406788D01*
X74888Y406844D01*
X74902Y406877D01*
X74923Y406905D01*
X74945Y406979D01*
X74975Y407050D01*
X74977Y407086D01*
X74987Y407120D01*
X74982Y407197D01*
X74985Y407275D01*
X74974Y407308D01*
X74972Y407344D01*
X74940Y407414D01*
X74917Y407488D01*
X74893Y407521D01*
X74880Y407549D01*
X74847Y407582D01*
X74805Y407639D01*
X71546Y410898D01*
X69341Y416220D01*
X69341Y421381D01*
X69325Y421469D01*
X69316Y421558D01*
X69306Y421579D01*
X69302Y421602D01*
X69256Y421679D01*
X69217Y421759D01*
X69200Y421775D01*
X69187Y421795D01*
X69118Y421852D01*
X69054Y421913D01*
X69032Y421922D01*
X69013Y421937D01*
X68929Y421965D01*
X68847Y422000D01*
X68823Y422001D01*
X68801Y422009D01*
X68712Y422006D01*
X68623Y422010D01*
X68600Y422003D01*
X68576Y422002D01*
X68494Y421969D01*
X68409Y421941D01*
X68388Y421926D01*
X68369Y421918D01*
X68331Y421884D01*
X68259Y421830D01*
X59718Y413290D01*
X56700Y410271D01*
X52872Y408685D01*
X51472Y408685D01*
X51430Y408678D01*
X51388Y408680D01*
X51321Y408658D01*
X51251Y408646D01*
X51215Y408624D01*
X51174Y408611D01*
X51101Y408557D01*
X51058Y408531D01*
X51045Y408515D01*
X51024Y408499D01*
X49350Y406826D01*
X44028Y404621D01*
X19472Y404621D01*
X14150Y406826D01*
X11243Y409733D01*
X11170Y409783D01*
X11101Y409839D01*
X11079Y409847D01*
X11059Y409861D01*
X10973Y409883D01*
X10889Y409911D01*
X10865Y409911D01*
X10842Y409917D01*
X10753Y409907D01*
X10664Y409905D01*
X10642Y409896D01*
X10619Y409893D01*
X10539Y409854D01*
X10457Y409820D01*
X10439Y409804D01*
X10418Y409794D01*
X10357Y409729D01*
X10291Y409669D01*
X10280Y409648D01*
X10264Y409631D01*
X10229Y409549D01*
X10188Y409469D01*
X10185Y409443D01*
X10176Y409424D01*
X10174Y409374D01*
X10161Y409284D01*
X10161Y10795D01*
X10172Y10730D01*
X10174Y10664D01*
X10192Y10621D01*
X10200Y10574D01*
X10234Y10517D01*
X10259Y10457D01*
X10290Y10422D01*
X10315Y10381D01*
X10366Y10339D01*
X10410Y10291D01*
X10452Y10269D01*
X10489Y10240D01*
X10551Y10219D01*
X10610Y10188D01*
X10664Y10180D01*
X10701Y10168D01*
X10741Y10169D01*
X10795Y10161D01*
X941705Y10161D01*
X941770Y10172D01*
G37*
%LPC*%
G36*
X867209Y477790D02*
X867209Y477790D01*
X867206Y477790D01*
X867204Y477792D01*
X867019Y477819D01*
X860902Y477819D01*
X854624Y480420D01*
X849820Y485224D01*
X847219Y491502D01*
X847219Y494128D01*
X847207Y494197D01*
X847204Y494267D01*
X847187Y494307D01*
X847180Y494349D01*
X847144Y494409D01*
X847117Y494474D01*
X847084Y494511D01*
X847065Y494542D01*
X847033Y494569D01*
X846993Y494614D01*
X793346Y539601D01*
X793334Y539608D01*
X793324Y539619D01*
X793236Y539664D01*
X793152Y539712D01*
X793137Y539715D01*
X793124Y539722D01*
X792939Y539749D01*
X707201Y539749D01*
X707108Y539733D01*
X707015Y539721D01*
X706998Y539713D01*
X706980Y539710D01*
X706899Y539662D01*
X706815Y539619D01*
X706803Y539605D01*
X706787Y539595D01*
X706728Y539523D01*
X706664Y539453D01*
X706656Y539434D01*
X706645Y539421D01*
X706629Y539374D01*
X706589Y539281D01*
X702641Y524749D01*
X698075Y518841D01*
X698058Y518808D01*
X698034Y518780D01*
X698007Y518709D01*
X697972Y518642D01*
X697967Y518605D01*
X697954Y518570D01*
X697953Y518495D01*
X697944Y518420D01*
X697952Y518383D01*
X697952Y518346D01*
X697978Y518275D01*
X697995Y518201D01*
X698016Y518170D01*
X698029Y518135D01*
X698078Y518077D01*
X698119Y518014D01*
X698150Y517992D01*
X698174Y517964D01*
X698260Y517912D01*
X698301Y517882D01*
X698317Y517878D01*
X698335Y517867D01*
X698373Y517852D01*
X701642Y514583D01*
X703411Y510312D01*
X703411Y505688D01*
X701642Y501417D01*
X698373Y498148D01*
X694102Y496379D01*
X676398Y496379D01*
X672127Y498148D01*
X668858Y501417D01*
X667609Y504433D01*
X667580Y504478D01*
X667560Y504528D01*
X667520Y504572D01*
X667488Y504622D01*
X667445Y504654D01*
X667408Y504694D01*
X667356Y504721D01*
X667309Y504756D01*
X667257Y504772D01*
X667209Y504797D01*
X667138Y504807D01*
X667094Y504820D01*
X667063Y504818D01*
X667023Y504824D01*
X626755Y504824D01*
X623254Y506274D01*
X588949Y540579D01*
X588914Y540604D01*
X588886Y540635D01*
X588823Y540667D01*
X588765Y540708D01*
X588724Y540718D01*
X588686Y540738D01*
X588596Y540751D01*
X588548Y540764D01*
X588527Y540761D01*
X588501Y540765D01*
X585710Y540765D01*
X578865Y547610D01*
X578865Y557290D01*
X585710Y564135D01*
X595390Y564135D01*
X602235Y557290D01*
X602235Y554499D01*
X602242Y554458D01*
X602240Y554415D01*
X602262Y554348D01*
X602274Y554279D01*
X602296Y554242D01*
X602309Y554202D01*
X602363Y554129D01*
X602389Y554085D01*
X602405Y554072D01*
X602421Y554051D01*
X632410Y524062D01*
X632438Y524042D01*
X632446Y524033D01*
X632450Y524031D01*
X632473Y524006D01*
X632536Y523974D01*
X632594Y523933D01*
X632635Y523923D01*
X632673Y523903D01*
X632763Y523890D01*
X632811Y523877D01*
X632832Y523880D01*
X632858Y523876D01*
X667657Y523876D01*
X667662Y523877D01*
X667667Y523876D01*
X667772Y523896D01*
X667878Y523915D01*
X667882Y523918D01*
X667887Y523919D01*
X667978Y523975D01*
X668071Y524030D01*
X668074Y524034D01*
X668078Y524036D01*
X668144Y524120D01*
X668212Y524204D01*
X668214Y524209D01*
X668217Y524213D01*
X668250Y524315D01*
X668284Y524416D01*
X668284Y524421D01*
X668285Y524426D01*
X668280Y524534D01*
X668277Y524641D01*
X668275Y524645D01*
X668275Y524651D01*
X668207Y524825D01*
X666835Y527220D01*
X665872Y534737D01*
X673077Y561260D01*
X673081Y561303D01*
X673099Y561426D01*
X673099Y562589D01*
X674069Y564930D01*
X674076Y564964D01*
X674095Y565006D01*
X674759Y567451D01*
X675470Y568372D01*
X675490Y568410D01*
X675554Y568517D01*
X676000Y569591D01*
X677791Y571383D01*
X677811Y571411D01*
X677844Y571443D01*
X679393Y573448D01*
X680403Y574026D01*
X680436Y574054D01*
X680536Y574128D01*
X681359Y574950D01*
X683699Y575920D01*
X683728Y575939D01*
X683772Y575956D01*
X685970Y577215D01*
X687124Y577362D01*
X687165Y577375D01*
X687286Y577406D01*
X688361Y577851D01*
X690894Y577851D01*
X690928Y577857D01*
X690975Y577856D01*
X693487Y578178D01*
X694610Y577873D01*
X694653Y577869D01*
X694776Y577851D01*
X799237Y577851D01*
X799262Y577855D01*
X799293Y577853D01*
X802209Y578109D01*
X802936Y577880D01*
X802939Y577880D01*
X802941Y577878D01*
X803127Y577851D01*
X803889Y577851D01*
X806594Y576731D01*
X806618Y576725D01*
X806646Y576712D01*
X809438Y575832D01*
X810022Y575342D01*
X810024Y575341D01*
X810026Y575339D01*
X810187Y575242D01*
X810891Y574950D01*
X812961Y572881D01*
X812981Y572867D01*
X813002Y572843D01*
X885403Y512129D01*
X885416Y512122D01*
X885426Y512111D01*
X885513Y512066D01*
X885598Y512018D01*
X885612Y512015D01*
X885625Y512008D01*
X885811Y511981D01*
X891698Y511981D01*
X897976Y509380D01*
X902780Y504576D01*
X905381Y498298D01*
X905381Y491502D01*
X902780Y485224D01*
X897976Y480420D01*
X891698Y477819D01*
X884902Y477819D01*
X884844Y477809D01*
X884786Y477809D01*
X884724Y477787D01*
X884681Y477780D01*
X884652Y477762D01*
X884609Y477748D01*
X881741Y476254D01*
X874191Y475591D01*
X867209Y477790D01*
G37*
%LPD*%
%LPC*%
G36*
X755649Y292099D02*
X755649Y292099D01*
X755649Y292735D01*
X755637Y292800D01*
X755636Y292865D01*
X755618Y292909D01*
X755609Y292956D01*
X755576Y293013D01*
X755551Y293073D01*
X755519Y293108D01*
X755495Y293149D01*
X755444Y293190D01*
X755400Y293239D01*
X755358Y293261D01*
X755321Y293290D01*
X755259Y293311D01*
X755200Y293342D01*
X755146Y293350D01*
X755109Y293362D01*
X755069Y293361D01*
X755015Y293369D01*
X736691Y293369D01*
X736890Y294625D01*
X737414Y296239D01*
X738185Y297752D01*
X739183Y299125D01*
X740383Y300325D01*
X741756Y301323D01*
X743268Y302093D01*
X744883Y302618D01*
X746431Y302863D01*
X746480Y302880D01*
X746531Y302887D01*
X746585Y302916D01*
X746643Y302937D01*
X746683Y302969D01*
X746728Y302994D01*
X746768Y303040D01*
X746816Y303080D01*
X746842Y303124D01*
X746876Y303163D01*
X746897Y303220D01*
X746928Y303274D01*
X746937Y303325D01*
X746955Y303373D01*
X746956Y303434D01*
X746966Y303495D01*
X746957Y303546D01*
X746957Y303597D01*
X746936Y303655D01*
X746924Y303715D01*
X746898Y303760D01*
X746880Y303808D01*
X746841Y303855D01*
X746809Y303908D01*
X746769Y303940D01*
X746735Y303979D01*
X746671Y304018D01*
X746669Y304019D01*
X746644Y304047D01*
X746581Y304079D01*
X746523Y304119D01*
X746482Y304130D01*
X746444Y304149D01*
X746355Y304162D01*
X746306Y304175D01*
X746285Y304173D01*
X746259Y304177D01*
X744757Y304177D01*
X739860Y306205D01*
X736113Y309953D01*
X734084Y314850D01*
X734084Y320150D01*
X736113Y325047D01*
X739588Y328523D01*
X739613Y328558D01*
X739644Y328586D01*
X739676Y328649D01*
X739717Y328707D01*
X739727Y328748D01*
X739747Y328786D01*
X739760Y328876D01*
X739773Y328924D01*
X739770Y328945D01*
X739774Y328971D01*
X739774Y331429D01*
X739767Y331470D01*
X739769Y331513D01*
X739747Y331580D01*
X739735Y331649D01*
X739713Y331686D01*
X739700Y331726D01*
X739646Y331799D01*
X739620Y331843D01*
X739604Y331856D01*
X739588Y331877D01*
X736113Y335353D01*
X734084Y340250D01*
X734084Y345550D01*
X736113Y350447D01*
X739860Y354195D01*
X741838Y355014D01*
X741913Y355062D01*
X741991Y355104D01*
X742007Y355122D01*
X742027Y355135D01*
X742080Y355206D01*
X742139Y355273D01*
X742147Y355296D01*
X742162Y355315D01*
X742187Y355400D01*
X742219Y355483D01*
X742219Y355507D01*
X742226Y355530D01*
X742220Y355618D01*
X742220Y355707D01*
X742212Y355730D01*
X742211Y355753D01*
X742174Y355835D01*
X742144Y355918D01*
X742129Y355936D01*
X742119Y355958D01*
X742056Y356022D01*
X741999Y356089D01*
X741976Y356103D01*
X741961Y356118D01*
X741916Y356139D01*
X741838Y356186D01*
X739860Y357005D01*
X736113Y360753D01*
X734084Y365650D01*
X734084Y370950D01*
X736113Y375847D01*
X739588Y379323D01*
X739613Y379358D01*
X739644Y379386D01*
X739676Y379449D01*
X739717Y379507D01*
X739727Y379548D01*
X739747Y379586D01*
X739760Y379676D01*
X739773Y379724D01*
X739770Y379745D01*
X739774Y379771D01*
X739774Y382229D01*
X739767Y382270D01*
X739769Y382313D01*
X739747Y382380D01*
X739735Y382449D01*
X739713Y382486D01*
X739700Y382526D01*
X739646Y382599D01*
X739620Y382643D01*
X739604Y382656D01*
X739588Y382677D01*
X736113Y386153D01*
X734084Y391050D01*
X734084Y396350D01*
X736113Y401247D01*
X739860Y404995D01*
X744757Y407023D01*
X746259Y407023D01*
X746301Y407031D01*
X746343Y407029D01*
X746410Y407050D01*
X746480Y407063D01*
X746516Y407084D01*
X746557Y407097D01*
X746617Y407142D01*
X752492Y409576D01*
X858833Y409576D01*
X858863Y409581D01*
X858894Y409579D01*
X859009Y409607D01*
X859054Y409615D01*
X859063Y409621D01*
X859076Y409624D01*
X860902Y410381D01*
X866263Y410381D01*
X866293Y410386D01*
X866324Y410384D01*
X866438Y410412D01*
X866484Y410420D01*
X866493Y410426D01*
X866505Y410429D01*
X872111Y412751D01*
X879689Y412751D01*
X885295Y410429D01*
X885325Y410422D01*
X885352Y410408D01*
X885469Y410391D01*
X885514Y410381D01*
X885524Y410383D01*
X885537Y410381D01*
X891698Y410381D01*
X897976Y407780D01*
X902780Y402976D01*
X905381Y396698D01*
X905381Y389902D01*
X902780Y383624D01*
X897976Y378820D01*
X891698Y376219D01*
X884972Y376219D01*
X884941Y376214D01*
X884911Y376216D01*
X884796Y376188D01*
X884751Y376180D01*
X884742Y376174D01*
X884729Y376171D01*
X880089Y374249D01*
X872511Y374249D01*
X867871Y376171D01*
X867841Y376178D01*
X867814Y376192D01*
X867696Y376209D01*
X867652Y376219D01*
X867641Y376217D01*
X867628Y376219D01*
X860902Y376219D01*
X857144Y377776D01*
X857114Y377783D01*
X857087Y377797D01*
X856970Y377814D01*
X856925Y377824D01*
X856914Y377822D01*
X856901Y377824D01*
X774741Y377824D01*
X774654Y377809D01*
X774565Y377799D01*
X774544Y377789D01*
X774520Y377785D01*
X774444Y377739D01*
X774364Y377700D01*
X774348Y377683D01*
X774327Y377670D01*
X774271Y377601D01*
X774210Y377537D01*
X774201Y377515D01*
X774186Y377496D01*
X774157Y377412D01*
X774123Y377330D01*
X774122Y377306D01*
X774114Y377284D01*
X774117Y377195D01*
X774113Y377106D01*
X774120Y377083D01*
X774121Y377059D01*
X774154Y376977D01*
X774181Y376892D01*
X774197Y376871D01*
X774205Y376852D01*
X774239Y376814D01*
X774293Y376742D01*
X775187Y375847D01*
X777216Y370950D01*
X777216Y365650D01*
X775187Y360753D01*
X774293Y359858D01*
X774242Y359785D01*
X774186Y359716D01*
X774178Y359694D01*
X774165Y359674D01*
X774143Y359588D01*
X774114Y359504D01*
X774115Y359480D01*
X774109Y359457D01*
X774118Y359368D01*
X774121Y359279D01*
X774130Y359257D01*
X774132Y359234D01*
X774172Y359154D01*
X774205Y359072D01*
X774221Y359054D01*
X774231Y359033D01*
X774296Y358972D01*
X774356Y358906D01*
X774377Y358895D01*
X774395Y358879D01*
X774477Y358844D01*
X774556Y358803D01*
X774582Y358800D01*
X774601Y358791D01*
X774652Y358789D01*
X774741Y358776D01*
X856901Y358776D01*
X856932Y358781D01*
X856962Y358779D01*
X857077Y358807D01*
X857122Y358815D01*
X857131Y358821D01*
X857144Y358824D01*
X860902Y360381D01*
X867628Y360381D01*
X867659Y360386D01*
X867689Y360384D01*
X867804Y360412D01*
X867849Y360420D01*
X867858Y360426D01*
X867871Y360429D01*
X872511Y362351D01*
X880089Y362351D01*
X884729Y360429D01*
X884759Y360422D01*
X884786Y360408D01*
X884904Y360391D01*
X884948Y360381D01*
X884959Y360383D01*
X884972Y360381D01*
X891698Y360381D01*
X897976Y357780D01*
X902780Y352976D01*
X905381Y346698D01*
X905381Y339902D01*
X902780Y333624D01*
X897976Y328820D01*
X891698Y326219D01*
X885537Y326219D01*
X885507Y326214D01*
X885476Y326216D01*
X885362Y326188D01*
X885316Y326180D01*
X885307Y326174D01*
X885295Y326171D01*
X879689Y323849D01*
X872111Y323849D01*
X866505Y326171D01*
X866475Y326178D01*
X866448Y326192D01*
X866331Y326209D01*
X866286Y326219D01*
X866276Y326217D01*
X866263Y326219D01*
X860902Y326219D01*
X859076Y326976D01*
X859046Y326983D01*
X859018Y326997D01*
X858901Y327014D01*
X858856Y327024D01*
X858846Y327022D01*
X858833Y327024D01*
X774741Y327024D01*
X774654Y327009D01*
X774565Y326999D01*
X774544Y326989D01*
X774520Y326985D01*
X774444Y326939D01*
X774364Y326900D01*
X774348Y326883D01*
X774327Y326870D01*
X774271Y326801D01*
X774210Y326737D01*
X774201Y326715D01*
X774186Y326696D01*
X774157Y326612D01*
X774123Y326530D01*
X774122Y326506D01*
X774114Y326484D01*
X774117Y326395D01*
X774113Y326306D01*
X774120Y326283D01*
X774121Y326259D01*
X774154Y326177D01*
X774181Y326092D01*
X774197Y326071D01*
X774205Y326052D01*
X774239Y326014D01*
X774293Y325942D01*
X775187Y325047D01*
X777216Y320150D01*
X777216Y314850D01*
X775187Y309953D01*
X771440Y306205D01*
X766543Y304177D01*
X765041Y304177D01*
X764999Y304169D01*
X764957Y304171D01*
X764890Y304150D01*
X764820Y304137D01*
X764784Y304116D01*
X764743Y304103D01*
X764671Y304049D01*
X764642Y304032D01*
X764634Y304029D01*
X764630Y304024D01*
X764627Y304023D01*
X764625Y304020D01*
X764589Y303988D01*
X764537Y303954D01*
X764506Y303913D01*
X764467Y303879D01*
X764439Y303824D01*
X764402Y303775D01*
X764387Y303726D01*
X764363Y303680D01*
X764355Y303619D01*
X764338Y303560D01*
X764341Y303509D01*
X764335Y303458D01*
X764349Y303398D01*
X764353Y303336D01*
X764374Y303289D01*
X764385Y303239D01*
X764419Y303188D01*
X764445Y303131D01*
X764481Y303095D01*
X764509Y303052D01*
X764559Y303015D01*
X764602Y302971D01*
X764649Y302950D01*
X764690Y302919D01*
X764762Y302897D01*
X764805Y302876D01*
X764834Y302874D01*
X764869Y302863D01*
X766417Y302618D01*
X768032Y302093D01*
X769544Y301323D01*
X770917Y300325D01*
X772117Y299125D01*
X773115Y297752D01*
X773886Y296239D01*
X774410Y294625D01*
X774609Y293369D01*
X756285Y293369D01*
X756220Y293358D01*
X756155Y293356D01*
X756111Y293338D01*
X756064Y293330D01*
X756008Y293296D01*
X755947Y293271D01*
X755912Y293239D01*
X755871Y293215D01*
X755830Y293164D01*
X755781Y293120D01*
X755759Y293078D01*
X755730Y293041D01*
X755709Y292979D01*
X755679Y292920D01*
X755670Y292866D01*
X755658Y292829D01*
X755659Y292789D01*
X755651Y292735D01*
X755651Y292099D01*
X755649Y292099D01*
G37*
%LPD*%
%LPC*%
G36*
X693761Y425849D02*
X693761Y425849D01*
X686759Y428750D01*
X669100Y446409D01*
X666199Y453411D01*
X666199Y460989D01*
X668211Y465847D01*
X668228Y465923D01*
X668253Y465996D01*
X668252Y466032D01*
X668259Y466067D01*
X668248Y466143D01*
X668246Y466221D01*
X668233Y466253D01*
X668228Y466289D01*
X668191Y466357D01*
X668162Y466428D01*
X668138Y466455D01*
X668121Y466486D01*
X668063Y466537D01*
X668010Y466594D01*
X667979Y466610D01*
X667952Y466634D01*
X667880Y466661D01*
X667811Y466697D01*
X667771Y466703D01*
X667742Y466713D01*
X667696Y466714D01*
X667625Y466724D01*
X626755Y466724D01*
X623254Y468174D01*
X588949Y502479D01*
X588914Y502504D01*
X588886Y502535D01*
X588823Y502567D01*
X588765Y502608D01*
X588724Y502618D01*
X588686Y502638D01*
X588596Y502651D01*
X588548Y502664D01*
X588527Y502661D01*
X588501Y502665D01*
X585710Y502665D01*
X578865Y509510D01*
X578865Y519190D01*
X585710Y526035D01*
X595390Y526035D01*
X602235Y519190D01*
X602235Y516399D01*
X602242Y516358D01*
X602240Y516315D01*
X602262Y516248D01*
X602274Y516179D01*
X602296Y516142D01*
X602309Y516102D01*
X602363Y516029D01*
X602389Y515985D01*
X602405Y515972D01*
X602421Y515951D01*
X632410Y485962D01*
X632445Y485937D01*
X632473Y485906D01*
X632536Y485874D01*
X632594Y485833D01*
X632635Y485823D01*
X632673Y485803D01*
X632763Y485790D01*
X632811Y485777D01*
X632832Y485780D01*
X632858Y485776D01*
X661992Y485776D01*
X662033Y485783D01*
X662076Y485781D01*
X662143Y485803D01*
X662212Y485815D01*
X662249Y485837D01*
X662289Y485850D01*
X662362Y485904D01*
X662406Y485930D01*
X662419Y485946D01*
X662440Y485962D01*
X667154Y490676D01*
X670655Y492126D01*
X671539Y492126D01*
X671581Y492133D01*
X671623Y492131D01*
X671690Y492153D01*
X671760Y492165D01*
X671796Y492187D01*
X671837Y492200D01*
X671909Y492254D01*
X671953Y492280D01*
X671966Y492296D01*
X671987Y492312D01*
X672127Y492452D01*
X676398Y494221D01*
X694102Y494221D01*
X698373Y492452D01*
X701642Y489183D01*
X703411Y484912D01*
X703411Y480288D01*
X701642Y476017D01*
X698373Y472748D01*
X698027Y472605D01*
X697962Y472563D01*
X697892Y472529D01*
X697868Y472503D01*
X697838Y472484D01*
X697791Y472422D01*
X697738Y472366D01*
X697725Y472333D01*
X697703Y472305D01*
X697681Y472230D01*
X697651Y472159D01*
X697649Y472124D01*
X697639Y472090D01*
X697644Y472012D01*
X697641Y471935D01*
X697652Y471901D01*
X697654Y471866D01*
X697686Y471795D01*
X697710Y471721D01*
X697734Y471689D01*
X697746Y471661D01*
X697779Y471628D01*
X697821Y471571D01*
X705255Y464137D01*
X705290Y464112D01*
X705319Y464081D01*
X705382Y464049D01*
X705440Y464008D01*
X705481Y463998D01*
X705518Y463978D01*
X705608Y463965D01*
X705657Y463952D01*
X705678Y463955D01*
X705704Y463951D01*
X706647Y463951D01*
X706723Y463964D01*
X706800Y463970D01*
X706833Y463984D01*
X706868Y463990D01*
X706934Y464030D01*
X707005Y464062D01*
X707030Y464086D01*
X707061Y464105D01*
X707110Y464165D01*
X707165Y464219D01*
X707180Y464251D01*
X707202Y464279D01*
X707227Y464352D01*
X707260Y464422D01*
X707263Y464458D01*
X707274Y464491D01*
X707272Y464569D01*
X707278Y464646D01*
X707268Y464685D01*
X707268Y464716D01*
X707250Y464759D01*
X707233Y464828D01*
X706089Y467588D01*
X706089Y472212D01*
X707858Y476483D01*
X711127Y479752D01*
X715398Y481521D01*
X733102Y481521D01*
X737373Y479752D01*
X740642Y476483D01*
X742411Y472212D01*
X742411Y467588D01*
X741267Y464828D01*
X741251Y464752D01*
X741226Y464679D01*
X741227Y464643D01*
X741219Y464609D01*
X741230Y464532D01*
X741232Y464454D01*
X741246Y464422D01*
X741251Y464386D01*
X741288Y464318D01*
X741317Y464247D01*
X741341Y464220D01*
X741358Y464189D01*
X741416Y464138D01*
X741468Y464081D01*
X741500Y464065D01*
X741526Y464041D01*
X741599Y464014D01*
X741668Y463978D01*
X741708Y463972D01*
X741736Y463962D01*
X741783Y463961D01*
X741853Y463951D01*
X880089Y463951D01*
X884729Y462029D01*
X884759Y462022D01*
X884786Y462008D01*
X884904Y461991D01*
X884948Y461981D01*
X884959Y461983D01*
X884972Y461981D01*
X891698Y461981D01*
X897976Y459380D01*
X902780Y454576D01*
X905381Y448298D01*
X905381Y441502D01*
X902780Y435224D01*
X897976Y430420D01*
X891698Y427819D01*
X884972Y427819D01*
X884941Y427814D01*
X884911Y427816D01*
X884796Y427788D01*
X884751Y427780D01*
X884742Y427774D01*
X884729Y427771D01*
X880089Y425849D01*
X693761Y425849D01*
G37*
%LPD*%
G36*
X165842Y153300D02*
X165842Y153300D01*
X165866Y153300D01*
X165948Y153334D01*
X166033Y153361D01*
X166054Y153377D01*
X166073Y153385D01*
X166111Y153419D01*
X166183Y153473D01*
X172224Y159513D01*
X177529Y159513D01*
X177570Y159520D01*
X177613Y159518D01*
X177680Y159540D01*
X177749Y159552D01*
X177786Y159574D01*
X177826Y159587D01*
X177899Y159641D01*
X177943Y159667D01*
X177956Y159683D01*
X177977Y159699D01*
X180788Y162510D01*
X180813Y162545D01*
X180844Y162573D01*
X180876Y162636D01*
X180917Y162694D01*
X180927Y162735D01*
X180947Y162773D01*
X180960Y162863D01*
X180973Y162911D01*
X180970Y162932D01*
X180974Y162958D01*
X180974Y452992D01*
X180967Y453033D01*
X180969Y453076D01*
X180947Y453143D01*
X180935Y453212D01*
X180913Y453249D01*
X180900Y453289D01*
X180846Y453362D01*
X180820Y453406D01*
X180804Y453419D01*
X180788Y453440D01*
X124129Y510099D01*
X124094Y510124D01*
X124066Y510155D01*
X124003Y510187D01*
X123945Y510228D01*
X123904Y510238D01*
X123866Y510258D01*
X123776Y510271D01*
X123728Y510284D01*
X123707Y510281D01*
X123681Y510285D01*
X120956Y510285D01*
X120925Y510280D01*
X120895Y510282D01*
X120780Y510254D01*
X120735Y510246D01*
X120726Y510240D01*
X120713Y510237D01*
X116727Y508586D01*
X116652Y508538D01*
X116574Y508496D01*
X116558Y508478D01*
X116538Y508465D01*
X116485Y508394D01*
X116426Y508327D01*
X116418Y508304D01*
X116403Y508285D01*
X116378Y508200D01*
X116346Y508117D01*
X116346Y508093D01*
X116339Y508070D01*
X116345Y507982D01*
X116345Y507893D01*
X116353Y507870D01*
X116354Y507847D01*
X116391Y507765D01*
X116421Y507682D01*
X116437Y507664D01*
X116446Y507642D01*
X116509Y507579D01*
X116566Y507511D01*
X116589Y507497D01*
X116604Y507482D01*
X116649Y507461D01*
X116727Y507414D01*
X121166Y505575D01*
X124575Y502166D01*
X126421Y497711D01*
X126421Y492889D01*
X124575Y488434D01*
X121166Y485025D01*
X116727Y483186D01*
X116652Y483138D01*
X116574Y483096D01*
X116558Y483078D01*
X116538Y483065D01*
X116485Y482994D01*
X116426Y482927D01*
X116418Y482904D01*
X116403Y482885D01*
X116378Y482800D01*
X116346Y482717D01*
X116346Y482693D01*
X116339Y482670D01*
X116345Y482582D01*
X116345Y482493D01*
X116353Y482470D01*
X116354Y482447D01*
X116391Y482365D01*
X116421Y482282D01*
X116437Y482264D01*
X116446Y482242D01*
X116509Y482179D01*
X116566Y482111D01*
X116589Y482097D01*
X116604Y482082D01*
X116649Y482061D01*
X116727Y482014D01*
X121166Y480175D01*
X124575Y476766D01*
X126421Y472311D01*
X126421Y467489D01*
X124575Y463034D01*
X121166Y459625D01*
X116727Y457786D01*
X116652Y457738D01*
X116574Y457696D01*
X116558Y457678D01*
X116538Y457665D01*
X116485Y457594D01*
X116426Y457527D01*
X116418Y457504D01*
X116403Y457485D01*
X116378Y457400D01*
X116346Y457317D01*
X116346Y457293D01*
X116339Y457270D01*
X116345Y457182D01*
X116345Y457093D01*
X116353Y457070D01*
X116354Y457047D01*
X116391Y456965D01*
X116421Y456882D01*
X116437Y456864D01*
X116446Y456842D01*
X116509Y456779D01*
X116566Y456711D01*
X116589Y456697D01*
X116604Y456682D01*
X116649Y456661D01*
X116727Y456614D01*
X121166Y454775D01*
X124575Y451366D01*
X126421Y446911D01*
X126421Y442089D01*
X124575Y437634D01*
X121166Y434225D01*
X116727Y432386D01*
X116652Y432338D01*
X116574Y432296D01*
X116558Y432278D01*
X116538Y432265D01*
X116485Y432194D01*
X116426Y432127D01*
X116418Y432104D01*
X116403Y432085D01*
X116378Y432000D01*
X116346Y431917D01*
X116346Y431893D01*
X116340Y431870D01*
X116345Y431782D01*
X116345Y431693D01*
X116353Y431670D01*
X116354Y431647D01*
X116391Y431565D01*
X116421Y431482D01*
X116437Y431464D01*
X116446Y431442D01*
X116509Y431378D01*
X116566Y431311D01*
X116589Y431297D01*
X116604Y431282D01*
X116649Y431261D01*
X116727Y431214D01*
X121166Y429375D01*
X124575Y425966D01*
X126421Y421511D01*
X126421Y416689D01*
X124575Y412234D01*
X121166Y408825D01*
X116727Y406986D01*
X116652Y406938D01*
X116574Y406896D01*
X116558Y406878D01*
X116538Y406865D01*
X116485Y406794D01*
X116426Y406727D01*
X116418Y406704D01*
X116403Y406685D01*
X116378Y406600D01*
X116346Y406517D01*
X116346Y406493D01*
X116340Y406470D01*
X116345Y406382D01*
X116345Y406293D01*
X116353Y406270D01*
X116354Y406247D01*
X116391Y406165D01*
X116421Y406082D01*
X116437Y406064D01*
X116446Y406042D01*
X116509Y405978D01*
X116566Y405911D01*
X116589Y405897D01*
X116604Y405882D01*
X116649Y405861D01*
X116727Y405814D01*
X121166Y403975D01*
X124575Y400566D01*
X126421Y396111D01*
X126421Y391289D01*
X124575Y386834D01*
X121166Y383425D01*
X118260Y382221D01*
X118175Y382167D01*
X118089Y382115D01*
X118081Y382106D01*
X118071Y382100D01*
X118011Y382019D01*
X117947Y381941D01*
X117944Y381930D01*
X117936Y381920D01*
X117908Y381824D01*
X117876Y381729D01*
X117876Y381717D01*
X117872Y381705D01*
X117879Y381604D01*
X117882Y381504D01*
X117887Y381493D01*
X117887Y381482D01*
X117929Y381389D01*
X117966Y381297D01*
X117974Y381288D01*
X117979Y381277D01*
X118050Y381205D01*
X118118Y381131D01*
X118128Y381125D01*
X118137Y381117D01*
X118228Y381075D01*
X118317Y381028D01*
X118330Y381026D01*
X118340Y381022D01*
X118385Y381018D01*
X118503Y381001D01*
X154926Y381001D01*
X159594Y379067D01*
X163167Y375494D01*
X165101Y370826D01*
X165101Y153921D01*
X165117Y153833D01*
X165126Y153745D01*
X165136Y153724D01*
X165140Y153700D01*
X165186Y153623D01*
X165225Y153544D01*
X165242Y153527D01*
X165255Y153507D01*
X165324Y153451D01*
X165388Y153390D01*
X165410Y153381D01*
X165429Y153366D01*
X165513Y153337D01*
X165595Y153302D01*
X165619Y153301D01*
X165641Y153294D01*
X165730Y153296D01*
X165819Y153292D01*
X165842Y153300D01*
G37*
%LPC*%
G36*
X752492Y200024D02*
X752492Y200024D01*
X746642Y202447D01*
X746581Y202479D01*
X746523Y202519D01*
X746482Y202530D01*
X746444Y202549D01*
X746355Y202562D01*
X746306Y202575D01*
X746285Y202573D01*
X746259Y202577D01*
X744757Y202577D01*
X739860Y204605D01*
X736113Y208353D01*
X734084Y213250D01*
X734084Y218550D01*
X736113Y223447D01*
X739588Y226923D01*
X739613Y226958D01*
X739644Y226986D01*
X739676Y227049D01*
X739717Y227107D01*
X739727Y227148D01*
X739747Y227186D01*
X739760Y227276D01*
X739773Y227324D01*
X739770Y227345D01*
X739774Y227371D01*
X739774Y229829D01*
X739767Y229870D01*
X739769Y229913D01*
X739747Y229980D01*
X739735Y230049D01*
X739713Y230086D01*
X739700Y230126D01*
X739646Y230199D01*
X739620Y230243D01*
X739604Y230256D01*
X739588Y230277D01*
X736113Y233753D01*
X734084Y238650D01*
X734084Y243950D01*
X736113Y248847D01*
X739860Y252595D01*
X744757Y254623D01*
X746259Y254623D01*
X746301Y254631D01*
X746343Y254629D01*
X746410Y254650D01*
X746480Y254663D01*
X746516Y254684D01*
X746557Y254697D01*
X746629Y254751D01*
X746658Y254768D01*
X746666Y254771D01*
X746670Y254776D01*
X746673Y254777D01*
X746675Y254780D01*
X746711Y254812D01*
X746763Y254846D01*
X746794Y254887D01*
X746833Y254921D01*
X746861Y254976D01*
X746898Y255025D01*
X746913Y255074D01*
X746937Y255120D01*
X746945Y255181D01*
X746962Y255240D01*
X746959Y255291D01*
X746965Y255342D01*
X746951Y255402D01*
X746947Y255464D01*
X746926Y255511D01*
X746915Y255561D01*
X746881Y255612D01*
X746855Y255669D01*
X746819Y255705D01*
X746791Y255748D01*
X746741Y255785D01*
X746698Y255829D01*
X746651Y255850D01*
X746610Y255881D01*
X746538Y255903D01*
X746495Y255924D01*
X746466Y255926D01*
X746431Y255937D01*
X744883Y256182D01*
X743268Y256707D01*
X741756Y257477D01*
X740383Y258475D01*
X739183Y259675D01*
X738185Y261048D01*
X737414Y262561D01*
X736890Y264175D01*
X736691Y265431D01*
X755015Y265431D01*
X755080Y265442D01*
X755145Y265444D01*
X755189Y265462D01*
X755236Y265470D01*
X755292Y265504D01*
X755353Y265529D01*
X755388Y265560D01*
X755429Y265585D01*
X755470Y265636D01*
X755519Y265680D01*
X755541Y265722D01*
X755570Y265759D01*
X755591Y265821D01*
X755621Y265880D01*
X755630Y265934D01*
X755642Y265971D01*
X755641Y266011D01*
X755649Y266065D01*
X755649Y266701D01*
X755651Y266701D01*
X755651Y266065D01*
X755663Y266000D01*
X755664Y265934D01*
X755682Y265891D01*
X755691Y265844D01*
X755724Y265787D01*
X755749Y265727D01*
X755781Y265692D01*
X755805Y265651D01*
X755856Y265610D01*
X755900Y265561D01*
X755942Y265539D01*
X755979Y265510D01*
X756041Y265489D01*
X756100Y265458D01*
X756154Y265450D01*
X756191Y265438D01*
X756231Y265439D01*
X756285Y265431D01*
X774609Y265431D01*
X774410Y264175D01*
X773886Y262561D01*
X773115Y261048D01*
X772117Y259675D01*
X770917Y258475D01*
X770708Y258323D01*
X770690Y258304D01*
X770667Y258290D01*
X770613Y258224D01*
X770553Y258161D01*
X770542Y258137D01*
X770526Y258116D01*
X770498Y258035D01*
X770464Y257955D01*
X770462Y257929D01*
X770454Y257904D01*
X770456Y257818D01*
X770452Y257731D01*
X770460Y257706D01*
X770460Y257679D01*
X770493Y257600D01*
X770518Y257517D01*
X770535Y257496D01*
X770545Y257472D01*
X770603Y257408D01*
X770656Y257340D01*
X770678Y257326D01*
X770696Y257306D01*
X770773Y257266D01*
X770846Y257221D01*
X770872Y257216D01*
X770896Y257203D01*
X771028Y257184D01*
X771066Y257176D01*
X771073Y257177D01*
X771081Y257176D01*
X856901Y257176D01*
X856932Y257181D01*
X856962Y257179D01*
X857077Y257207D01*
X857122Y257215D01*
X857131Y257221D01*
X857144Y257224D01*
X860902Y258781D01*
X867628Y258781D01*
X867659Y258786D01*
X867689Y258784D01*
X867804Y258812D01*
X867849Y258820D01*
X867858Y258825D01*
X867864Y258826D01*
X867866Y258828D01*
X867871Y258829D01*
X872511Y260751D01*
X880089Y260751D01*
X884729Y258829D01*
X884754Y258824D01*
X884772Y258814D01*
X884776Y258814D01*
X884786Y258808D01*
X884903Y258791D01*
X884948Y258781D01*
X884959Y258783D01*
X884972Y258781D01*
X891698Y258781D01*
X897976Y256180D01*
X902780Y251376D01*
X905381Y245098D01*
X905381Y238302D01*
X902780Y232024D01*
X897976Y227220D01*
X891698Y224619D01*
X885537Y224619D01*
X885507Y224614D01*
X885476Y224616D01*
X885362Y224588D01*
X885316Y224580D01*
X885307Y224574D01*
X885295Y224571D01*
X879689Y222249D01*
X872111Y222249D01*
X866505Y224571D01*
X866475Y224578D01*
X866448Y224592D01*
X866331Y224609D01*
X866286Y224619D01*
X866276Y224617D01*
X866263Y224619D01*
X860902Y224619D01*
X859076Y225376D01*
X859046Y225383D01*
X859018Y225397D01*
X858901Y225414D01*
X858856Y225424D01*
X858846Y225422D01*
X858833Y225424D01*
X774741Y225424D01*
X774654Y225409D01*
X774565Y225399D01*
X774544Y225389D01*
X774520Y225385D01*
X774444Y225339D01*
X774364Y225300D01*
X774348Y225283D01*
X774327Y225270D01*
X774271Y225201D01*
X774210Y225137D01*
X774201Y225115D01*
X774186Y225096D01*
X774157Y225012D01*
X774123Y224930D01*
X774122Y224906D01*
X774114Y224884D01*
X774117Y224795D01*
X774113Y224706D01*
X774120Y224683D01*
X774121Y224659D01*
X774154Y224577D01*
X774181Y224492D01*
X774197Y224471D01*
X774205Y224452D01*
X774239Y224414D01*
X774293Y224342D01*
X775187Y223447D01*
X777216Y218550D01*
X777216Y213250D01*
X775187Y208353D01*
X771440Y204605D01*
X766543Y202577D01*
X765041Y202577D01*
X764999Y202569D01*
X764957Y202571D01*
X764890Y202550D01*
X764820Y202537D01*
X764784Y202516D01*
X764743Y202503D01*
X764683Y202458D01*
X758808Y200024D01*
X752492Y200024D01*
G37*
%LPD*%
G36*
X370820Y59365D02*
X370820Y59365D01*
X370844Y59366D01*
X370926Y59399D01*
X371011Y59427D01*
X371032Y59442D01*
X371051Y59450D01*
X371089Y59484D01*
X371161Y59538D01*
X372686Y61062D01*
X372710Y61097D01*
X372741Y61126D01*
X372773Y61189D01*
X372814Y61246D01*
X372824Y61288D01*
X372844Y61325D01*
X372857Y61415D01*
X372862Y61434D01*
X372864Y61441D01*
X372864Y61443D01*
X372870Y61464D01*
X372867Y61485D01*
X372871Y61511D01*
X372871Y243574D01*
X374612Y247775D01*
X377827Y250990D01*
X382028Y252731D01*
X409862Y252731D01*
X409893Y252736D01*
X409923Y252734D01*
X410038Y252762D01*
X410083Y252770D01*
X410092Y252776D01*
X410105Y252779D01*
X411638Y253414D01*
X411713Y253462D01*
X411791Y253505D01*
X411807Y253522D01*
X411827Y253535D01*
X411880Y253606D01*
X411939Y253673D01*
X411947Y253696D01*
X411962Y253715D01*
X411987Y253800D01*
X412019Y253883D01*
X412019Y253907D01*
X412026Y253930D01*
X412020Y254019D01*
X412020Y254107D01*
X412012Y254130D01*
X412011Y254153D01*
X411974Y254235D01*
X411944Y254318D01*
X411929Y254337D01*
X411919Y254358D01*
X411856Y254422D01*
X411799Y254489D01*
X411776Y254503D01*
X411761Y254518D01*
X411716Y254539D01*
X411638Y254586D01*
X409660Y255405D01*
X405913Y259153D01*
X403884Y264050D01*
X403884Y268717D01*
X403877Y268759D01*
X403879Y268801D01*
X403857Y268869D01*
X403845Y268938D01*
X403823Y268975D01*
X403810Y269015D01*
X403756Y269088D01*
X403730Y269131D01*
X403714Y269145D01*
X403698Y269166D01*
X373512Y299352D01*
X372081Y302807D01*
X372081Y357970D01*
X372074Y358012D01*
X372076Y358054D01*
X372054Y358121D01*
X372042Y358191D01*
X372020Y358227D01*
X372007Y358268D01*
X371953Y358340D01*
X371927Y358384D01*
X371911Y358397D01*
X371895Y358418D01*
X359858Y370455D01*
X359785Y370506D01*
X359716Y370562D01*
X359694Y370570D01*
X359674Y370583D01*
X359588Y370606D01*
X359504Y370634D01*
X359480Y370633D01*
X359457Y370639D01*
X359368Y370630D01*
X359279Y370627D01*
X359257Y370619D01*
X359234Y370616D01*
X359154Y370577D01*
X359072Y370543D01*
X359054Y370527D01*
X359033Y370517D01*
X358972Y370452D01*
X358906Y370392D01*
X358895Y370371D01*
X358879Y370353D01*
X358844Y370271D01*
X358803Y370192D01*
X358800Y370166D01*
X358791Y370147D01*
X358789Y370096D01*
X358776Y370007D01*
X358776Y99458D01*
X358783Y99417D01*
X358781Y99374D01*
X358803Y99307D01*
X358815Y99238D01*
X358837Y99201D01*
X358850Y99161D01*
X358904Y99088D01*
X358930Y99044D01*
X358946Y99031D01*
X358962Y99010D01*
X363676Y94296D01*
X365126Y90795D01*
X365126Y90461D01*
X365133Y90419D01*
X365131Y90377D01*
X365153Y90310D01*
X365165Y90240D01*
X365187Y90204D01*
X365200Y90163D01*
X365254Y90090D01*
X365280Y90047D01*
X365296Y90034D01*
X365312Y90013D01*
X367874Y87450D01*
X370079Y82128D01*
X370079Y59987D01*
X370094Y59899D01*
X370104Y59810D01*
X370114Y59789D01*
X370118Y59766D01*
X370164Y59689D01*
X370203Y59609D01*
X370220Y59593D01*
X370233Y59573D01*
X370302Y59516D01*
X370366Y59455D01*
X370388Y59446D01*
X370407Y59431D01*
X370491Y59403D01*
X370573Y59368D01*
X370597Y59367D01*
X370619Y59359D01*
X370708Y59362D01*
X370797Y59358D01*
X370820Y59365D01*
G37*
%LPC*%
G36*
X59529Y731839D02*
X59529Y731839D01*
X51858Y733895D01*
X44981Y737865D01*
X39365Y743481D01*
X35395Y750358D01*
X33339Y758029D01*
X33339Y765971D01*
X35395Y773642D01*
X39365Y780519D01*
X44981Y786135D01*
X51858Y790105D01*
X59529Y792161D01*
X67471Y792161D01*
X75142Y790105D01*
X82019Y786135D01*
X87635Y780519D01*
X91605Y773642D01*
X93661Y765971D01*
X93661Y758029D01*
X91605Y750358D01*
X87635Y743481D01*
X82019Y737865D01*
X75142Y733895D01*
X67471Y731839D01*
X59529Y731839D01*
G37*
%LPD*%
%LPC*%
G36*
X885029Y731839D02*
X885029Y731839D01*
X877358Y733895D01*
X870481Y737865D01*
X864865Y743481D01*
X860895Y750358D01*
X858839Y758029D01*
X858839Y765971D01*
X860895Y773642D01*
X864865Y780519D01*
X870481Y786135D01*
X877358Y790105D01*
X885029Y792161D01*
X892971Y792161D01*
X900642Y790105D01*
X907519Y786135D01*
X913135Y780519D01*
X917105Y773642D01*
X919161Y765971D01*
X919161Y758029D01*
X917105Y750358D01*
X913135Y743481D01*
X907519Y737865D01*
X900642Y733895D01*
X892971Y731839D01*
X885029Y731839D01*
G37*
%LPD*%
%LPC*%
G36*
X59529Y33339D02*
X59529Y33339D01*
X51858Y35395D01*
X44981Y39365D01*
X39365Y44981D01*
X35395Y51858D01*
X33339Y59529D01*
X33339Y67471D01*
X35395Y75142D01*
X39365Y82019D01*
X44981Y87635D01*
X51858Y91605D01*
X59529Y93661D01*
X67471Y93661D01*
X75142Y91605D01*
X82019Y87635D01*
X87635Y82019D01*
X91605Y75142D01*
X93661Y67471D01*
X93661Y59529D01*
X91605Y51858D01*
X87635Y44981D01*
X82019Y39365D01*
X75142Y35395D01*
X67471Y33339D01*
X59529Y33339D01*
G37*
%LPD*%
%LPC*%
G36*
X885029Y33339D02*
X885029Y33339D01*
X877358Y35395D01*
X870481Y39365D01*
X864865Y44981D01*
X860895Y51858D01*
X858839Y59529D01*
X858839Y67471D01*
X860895Y75142D01*
X864865Y82019D01*
X870481Y87635D01*
X877358Y91605D01*
X885029Y93661D01*
X892971Y93661D01*
X900642Y91605D01*
X907519Y87635D01*
X913135Y82019D01*
X917105Y75142D01*
X919161Y67471D01*
X919161Y59529D01*
X917105Y51858D01*
X913135Y44981D01*
X907519Y39365D01*
X900642Y35395D01*
X892971Y33339D01*
X885029Y33339D01*
G37*
%LPD*%
%LPC*%
G36*
X369074Y710437D02*
X369074Y710437D01*
X361187Y718324D01*
X361187Y729476D01*
X369074Y737363D01*
X380226Y737363D01*
X383978Y733612D01*
X384012Y733587D01*
X384041Y733556D01*
X384104Y733524D01*
X384162Y733483D01*
X384203Y733473D01*
X384241Y733453D01*
X384330Y733440D01*
X384379Y733427D01*
X384400Y733430D01*
X384426Y733426D01*
X464721Y733426D01*
X464763Y733433D01*
X464805Y733431D01*
X464872Y733453D01*
X464942Y733465D01*
X464978Y733487D01*
X465019Y733500D01*
X465091Y733554D01*
X465135Y733580D01*
X465148Y733596D01*
X465169Y733612D01*
X467488Y735931D01*
X471759Y737700D01*
X476383Y737700D01*
X480654Y735931D01*
X483923Y732662D01*
X485692Y728390D01*
X485692Y723767D01*
X483923Y719496D01*
X480654Y716227D01*
X476383Y714458D01*
X474116Y714458D01*
X474085Y714453D01*
X474055Y714455D01*
X473940Y714427D01*
X473895Y714419D01*
X473886Y714413D01*
X473873Y714410D01*
X473787Y714374D01*
X384426Y714374D01*
X384384Y714367D01*
X384342Y714369D01*
X384275Y714347D01*
X384205Y714335D01*
X384169Y714313D01*
X384128Y714300D01*
X384056Y714246D01*
X384012Y714220D01*
X383999Y714204D01*
X383978Y714188D01*
X380226Y710437D01*
X369074Y710437D01*
G37*
%LPD*%
%LPC*%
G36*
X416220Y45973D02*
X416220Y45973D01*
X410898Y48178D01*
X406826Y52250D01*
X404621Y57572D01*
X404621Y82128D01*
X406826Y87450D01*
X410898Y91522D01*
X416220Y93727D01*
X421980Y93727D01*
X427302Y91522D01*
X431352Y87473D01*
X431405Y87435D01*
X431453Y87390D01*
X431497Y87371D01*
X431536Y87344D01*
X431599Y87328D01*
X431660Y87302D01*
X431707Y87300D01*
X431753Y87288D01*
X431818Y87295D01*
X431884Y87292D01*
X431929Y87307D01*
X431976Y87312D01*
X432035Y87341D01*
X432098Y87361D01*
X432142Y87394D01*
X432177Y87411D01*
X432204Y87440D01*
X432248Y87473D01*
X436298Y91522D01*
X441620Y93727D01*
X447380Y93727D01*
X452702Y91522D01*
X456774Y87450D01*
X458979Y82128D01*
X458979Y57572D01*
X456774Y52250D01*
X452702Y48178D01*
X447380Y45973D01*
X441620Y45973D01*
X436298Y48178D01*
X432248Y52227D01*
X432194Y52265D01*
X432147Y52310D01*
X432103Y52329D01*
X432064Y52356D01*
X432001Y52372D01*
X431940Y52398D01*
X431893Y52400D01*
X431847Y52412D01*
X431782Y52405D01*
X431716Y52408D01*
X431671Y52393D01*
X431624Y52388D01*
X431565Y52359D01*
X431502Y52339D01*
X431458Y52306D01*
X431423Y52289D01*
X431396Y52260D01*
X431352Y52227D01*
X427302Y48178D01*
X421980Y45973D01*
X416220Y45973D01*
G37*
%LPD*%
%LPC*%
G36*
X612552Y662369D02*
X612552Y662369D01*
X606274Y664970D01*
X601470Y669774D01*
X598869Y676052D01*
X598869Y682848D01*
X601470Y689126D01*
X605349Y693005D01*
X605374Y693040D01*
X605405Y693069D01*
X605437Y693132D01*
X605478Y693190D01*
X605488Y693231D01*
X605508Y693268D01*
X605521Y693358D01*
X605534Y693407D01*
X605531Y693428D01*
X605535Y693454D01*
X605535Y721363D01*
X605528Y721405D01*
X605530Y721447D01*
X605508Y721514D01*
X605496Y721584D01*
X605474Y721620D01*
X605461Y721661D01*
X605407Y721733D01*
X605381Y721777D01*
X605365Y721790D01*
X605349Y721811D01*
X602487Y724674D01*
X602487Y735826D01*
X610374Y743713D01*
X621526Y743713D01*
X629413Y735826D01*
X629413Y724674D01*
X626551Y721811D01*
X626526Y721777D01*
X626495Y721748D01*
X626463Y721685D01*
X626422Y721627D01*
X626412Y721586D01*
X626392Y721548D01*
X626379Y721459D01*
X626366Y721410D01*
X626369Y721389D01*
X626365Y721363D01*
X626365Y693454D01*
X626372Y693412D01*
X626370Y693370D01*
X626392Y693302D01*
X626404Y693233D01*
X626426Y693196D01*
X626439Y693156D01*
X626493Y693083D01*
X626519Y693040D01*
X626535Y693027D01*
X626551Y693005D01*
X630430Y689126D01*
X633031Y682848D01*
X633031Y676052D01*
X630430Y669774D01*
X625626Y664970D01*
X619348Y662369D01*
X612552Y662369D01*
G37*
%LPD*%
%LPC*%
G36*
X860902Y123019D02*
X860902Y123019D01*
X854624Y125620D01*
X849820Y130424D01*
X847219Y136702D01*
X847219Y143498D01*
X849820Y149776D01*
X854624Y154580D01*
X860902Y157181D01*
X891698Y157181D01*
X897976Y154580D01*
X902780Y149776D01*
X905381Y143498D01*
X905381Y136702D01*
X902780Y130424D01*
X897976Y125620D01*
X891698Y123019D01*
X860902Y123019D01*
G37*
%LPD*%
%LPC*%
G36*
X369074Y754887D02*
X369074Y754887D01*
X361187Y762774D01*
X361187Y773926D01*
X369074Y781813D01*
X380226Y781813D01*
X383978Y778062D01*
X384012Y778037D01*
X384041Y778006D01*
X384104Y777974D01*
X384162Y777933D01*
X384203Y777923D01*
X384241Y777903D01*
X384330Y777890D01*
X384379Y777877D01*
X384400Y777880D01*
X384426Y777876D01*
X404371Y777876D01*
X404412Y777883D01*
X404455Y777881D01*
X404522Y777903D01*
X404591Y777915D01*
X404628Y777937D01*
X404668Y777950D01*
X404741Y778004D01*
X404785Y778030D01*
X404798Y778046D01*
X404819Y778062D01*
X408383Y781625D01*
X408407Y781660D01*
X408439Y781689D01*
X408471Y781752D01*
X408511Y781810D01*
X408522Y781851D01*
X408541Y781889D01*
X408554Y781978D01*
X408567Y782027D01*
X408565Y782048D01*
X408569Y782074D01*
X408569Y782272D01*
X410338Y786543D01*
X413607Y789812D01*
X417878Y791581D01*
X422501Y791581D01*
X426772Y789812D01*
X430041Y786543D01*
X431810Y782272D01*
X431810Y777649D01*
X430041Y773378D01*
X426772Y770109D01*
X422501Y768340D01*
X422303Y768340D01*
X422261Y768332D01*
X422219Y768334D01*
X422152Y768313D01*
X422082Y768300D01*
X422045Y768279D01*
X422005Y768266D01*
X421932Y768212D01*
X421889Y768186D01*
X421876Y768170D01*
X421854Y768154D01*
X416744Y763043D01*
X413975Y760274D01*
X410474Y758824D01*
X384426Y758824D01*
X384384Y758817D01*
X384342Y758819D01*
X384275Y758797D01*
X384205Y758785D01*
X384169Y758763D01*
X384128Y758750D01*
X384056Y758696D01*
X384012Y758670D01*
X383999Y758654D01*
X383978Y758638D01*
X380226Y754887D01*
X369074Y754887D01*
G37*
%LPD*%
G36*
X32450Y469913D02*
X32450Y469913D01*
X32515Y469914D01*
X32559Y469932D01*
X32606Y469941D01*
X32663Y469974D01*
X32723Y469999D01*
X32758Y470031D01*
X32799Y470055D01*
X32840Y470106D01*
X32889Y470150D01*
X32911Y470192D01*
X32940Y470229D01*
X32961Y470291D01*
X32992Y470350D01*
X33000Y470404D01*
X33012Y470441D01*
X33011Y470481D01*
X33019Y470535D01*
X33019Y481839D01*
X42088Y481839D01*
X43944Y481545D01*
X45731Y480964D01*
X47405Y480111D01*
X48268Y479484D01*
X48304Y479467D01*
X48335Y479442D01*
X48404Y479418D01*
X48470Y479386D01*
X48510Y479383D01*
X48547Y479370D01*
X48621Y479372D01*
X48694Y479365D01*
X48732Y479375D01*
X48772Y479376D01*
X48839Y479404D01*
X48910Y479423D01*
X48943Y479446D01*
X48979Y479461D01*
X49034Y479510D01*
X49093Y479553D01*
X49116Y479585D01*
X49145Y479612D01*
X49179Y479677D01*
X49220Y479738D01*
X49229Y479776D01*
X49248Y479812D01*
X49262Y479907D01*
X49274Y479956D01*
X49272Y479974D01*
X49275Y479997D01*
X49275Y507233D01*
X49268Y507275D01*
X49270Y507317D01*
X49248Y507385D01*
X49236Y507454D01*
X49214Y507491D01*
X49201Y507531D01*
X49147Y507604D01*
X49121Y507647D01*
X49105Y507661D01*
X49090Y507682D01*
X48940Y507832D01*
X48895Y507863D01*
X48857Y507901D01*
X48804Y507926D01*
X48755Y507960D01*
X48703Y507973D01*
X48654Y507996D01*
X48595Y508001D01*
X48538Y508016D01*
X48484Y508010D01*
X48430Y508015D01*
X48361Y507998D01*
X48315Y507993D01*
X48287Y507979D01*
X48248Y507969D01*
X44028Y506221D01*
X19472Y506221D01*
X14150Y508426D01*
X11243Y511333D01*
X11170Y511383D01*
X11101Y511439D01*
X11079Y511447D01*
X11059Y511461D01*
X10973Y511483D01*
X10889Y511511D01*
X10865Y511511D01*
X10842Y511517D01*
X10753Y511507D01*
X10664Y511505D01*
X10642Y511496D01*
X10619Y511493D01*
X10539Y511454D01*
X10457Y511420D01*
X10439Y511404D01*
X10418Y511394D01*
X10357Y511329D01*
X10291Y511269D01*
X10280Y511248D01*
X10264Y511231D01*
X10229Y511149D01*
X10188Y511069D01*
X10185Y511043D01*
X10176Y511024D01*
X10174Y510974D01*
X10161Y510884D01*
X10161Y474912D01*
X10174Y474838D01*
X10179Y474762D01*
X10194Y474728D01*
X10200Y474692D01*
X10239Y474626D01*
X10270Y474557D01*
X10296Y474530D01*
X10315Y474498D01*
X10374Y474450D01*
X10427Y474396D01*
X10460Y474380D01*
X10489Y474357D01*
X10561Y474333D01*
X10630Y474300D01*
X10666Y474297D01*
X10701Y474285D01*
X10777Y474287D01*
X10853Y474281D01*
X10889Y474291D01*
X10926Y474292D01*
X10996Y474320D01*
X11069Y474341D01*
X11099Y474362D01*
X11133Y474376D01*
X11190Y474427D01*
X11251Y474472D01*
X11276Y474506D01*
X11299Y474527D01*
X11320Y474568D01*
X11360Y474624D01*
X12141Y476157D01*
X13246Y477678D01*
X14574Y479006D01*
X16095Y480111D01*
X17769Y480964D01*
X19556Y481545D01*
X21412Y481839D01*
X30481Y481839D01*
X30481Y470535D01*
X30492Y470470D01*
X30494Y470405D01*
X30512Y470361D01*
X30520Y470314D01*
X30554Y470258D01*
X30579Y470197D01*
X30610Y470162D01*
X30635Y470121D01*
X30686Y470080D01*
X30730Y470031D01*
X30772Y470009D01*
X30809Y469980D01*
X30871Y469959D01*
X30930Y469929D01*
X30984Y469920D01*
X31021Y469908D01*
X31061Y469909D01*
X31115Y469901D01*
X32385Y469901D01*
X32450Y469913D01*
G37*
G36*
X405872Y376059D02*
X405872Y376059D01*
X405938Y376056D01*
X405983Y376071D01*
X406030Y376076D01*
X406089Y376105D01*
X406152Y376125D01*
X406196Y376158D01*
X406231Y376175D01*
X406258Y376204D01*
X406302Y376237D01*
X409660Y379595D01*
X411638Y380414D01*
X411713Y380462D01*
X411791Y380505D01*
X411807Y380522D01*
X411827Y380535D01*
X411880Y380606D01*
X411939Y380673D01*
X411947Y380696D01*
X411962Y380715D01*
X411987Y380800D01*
X412019Y380883D01*
X412019Y380907D01*
X412026Y380930D01*
X412020Y381019D01*
X412020Y381107D01*
X412012Y381130D01*
X412011Y381153D01*
X411974Y381235D01*
X411944Y381318D01*
X411929Y381337D01*
X411919Y381358D01*
X411856Y381422D01*
X411799Y381489D01*
X411776Y381503D01*
X411761Y381518D01*
X411716Y381539D01*
X411638Y381586D01*
X409660Y382405D01*
X405913Y386153D01*
X405188Y387902D01*
X405172Y387927D01*
X405162Y387957D01*
X405092Y388052D01*
X405067Y388090D01*
X405059Y388097D01*
X405051Y388107D01*
X348280Y444878D01*
X348245Y444902D01*
X348216Y444934D01*
X348154Y444966D01*
X348096Y445006D01*
X348055Y445017D01*
X348017Y445036D01*
X347927Y445050D01*
X347878Y445062D01*
X347858Y445060D01*
X347831Y445064D01*
X343959Y445064D01*
X337114Y451909D01*
X337114Y454879D01*
X337107Y454921D01*
X337108Y454963D01*
X337087Y455030D01*
X337074Y455100D01*
X337053Y455136D01*
X337040Y455177D01*
X336986Y455249D01*
X336960Y455293D01*
X336944Y455306D01*
X336928Y455327D01*
X307754Y484501D01*
X307700Y484539D01*
X307652Y484584D01*
X307609Y484602D01*
X307570Y484629D01*
X307506Y484646D01*
X307446Y484671D01*
X307399Y484674D01*
X307353Y484685D01*
X307287Y484679D01*
X307222Y484681D01*
X307177Y484667D01*
X307130Y484662D01*
X307071Y484633D01*
X307008Y484613D01*
X306964Y484580D01*
X306929Y484563D01*
X306901Y484534D01*
X306857Y484501D01*
X306195Y483839D01*
X306151Y483775D01*
X306100Y483717D01*
X306087Y483684D01*
X306067Y483655D01*
X306048Y483580D01*
X306020Y483507D01*
X306020Y483472D01*
X306011Y483437D01*
X306019Y483361D01*
X306018Y483283D01*
X306030Y483250D01*
X306034Y483214D01*
X306068Y483145D01*
X306095Y483072D01*
X306118Y483045D01*
X306134Y483013D01*
X306190Y482960D01*
X306240Y482901D01*
X306275Y482880D01*
X306297Y482859D01*
X306340Y482841D01*
X306401Y482804D01*
X307922Y482174D01*
X311994Y478102D01*
X314199Y472780D01*
X314199Y467706D01*
X314206Y467664D01*
X314204Y467622D01*
X314226Y467554D01*
X314238Y467485D01*
X314260Y467448D01*
X314273Y467408D01*
X314327Y467335D01*
X314353Y467292D01*
X314369Y467279D01*
X314385Y467257D01*
X405405Y376237D01*
X405459Y376199D01*
X405507Y376154D01*
X405551Y376135D01*
X405589Y376108D01*
X405653Y376092D01*
X405714Y376066D01*
X405761Y376064D01*
X405807Y376053D01*
X405872Y376059D01*
G37*
%LPC*%
G36*
X414557Y177177D02*
X414557Y177177D01*
X409660Y179205D01*
X405913Y182953D01*
X403884Y187850D01*
X403884Y193150D01*
X405913Y198047D01*
X409660Y201795D01*
X414557Y203823D01*
X436343Y203823D01*
X441240Y201795D01*
X444987Y198047D01*
X447016Y193150D01*
X447016Y187850D01*
X444987Y182953D01*
X441240Y179205D01*
X436343Y177177D01*
X414557Y177177D01*
G37*
%LPD*%
%LPC*%
G36*
X726852Y662369D02*
X726852Y662369D01*
X720574Y664970D01*
X715770Y669774D01*
X713169Y676052D01*
X713169Y682848D01*
X715770Y689126D01*
X720574Y693930D01*
X726852Y696531D01*
X733648Y696531D01*
X739926Y693930D01*
X744730Y689126D01*
X747331Y682848D01*
X747331Y676052D01*
X744730Y669774D01*
X739926Y664970D01*
X733648Y662369D01*
X726852Y662369D01*
G37*
%LPD*%
%LPC*%
G36*
X688752Y662369D02*
X688752Y662369D01*
X682474Y664970D01*
X677670Y669774D01*
X675069Y676052D01*
X675069Y682848D01*
X677670Y689126D01*
X682474Y693930D01*
X688752Y696531D01*
X695548Y696531D01*
X701826Y693930D01*
X706630Y689126D01*
X709231Y682848D01*
X709231Y676052D01*
X706630Y669774D01*
X701826Y664970D01*
X695548Y662369D01*
X688752Y662369D01*
G37*
%LPD*%
G36*
X403930Y295821D02*
X403930Y295821D01*
X404007Y295820D01*
X404041Y295832D01*
X404076Y295836D01*
X404145Y295870D01*
X404218Y295896D01*
X404245Y295919D01*
X404277Y295935D01*
X404330Y295991D01*
X404389Y296042D01*
X404410Y296076D01*
X404431Y296098D01*
X404449Y296141D01*
X404486Y296202D01*
X405913Y299647D01*
X409660Y303395D01*
X411638Y304214D01*
X411713Y304262D01*
X411791Y304305D01*
X411807Y304322D01*
X411827Y304335D01*
X411880Y304406D01*
X411939Y304473D01*
X411947Y304496D01*
X411962Y304515D01*
X411987Y304600D01*
X412019Y304683D01*
X412019Y304707D01*
X412026Y304730D01*
X412020Y304819D01*
X412020Y304907D01*
X412012Y304930D01*
X412011Y304953D01*
X411974Y305035D01*
X411944Y305118D01*
X411929Y305137D01*
X411919Y305158D01*
X411856Y305222D01*
X411799Y305289D01*
X411776Y305303D01*
X411761Y305318D01*
X411716Y305339D01*
X411638Y305386D01*
X409660Y306205D01*
X405913Y309953D01*
X403884Y314850D01*
X403884Y320150D01*
X405913Y325047D01*
X409660Y328795D01*
X411638Y329614D01*
X411713Y329662D01*
X411791Y329705D01*
X411807Y329722D01*
X411827Y329735D01*
X411880Y329806D01*
X411939Y329873D01*
X411947Y329896D01*
X411962Y329915D01*
X411987Y330000D01*
X412019Y330083D01*
X412019Y330107D01*
X412026Y330130D01*
X412020Y330219D01*
X412020Y330307D01*
X412012Y330330D01*
X412011Y330353D01*
X411974Y330435D01*
X411944Y330518D01*
X411929Y330537D01*
X411919Y330558D01*
X411856Y330622D01*
X411799Y330689D01*
X411776Y330703D01*
X411761Y330718D01*
X411716Y330739D01*
X411638Y330786D01*
X409660Y331605D01*
X405913Y335353D01*
X403884Y340250D01*
X403884Y344917D01*
X403877Y344959D01*
X403879Y345001D01*
X403857Y345069D01*
X403845Y345138D01*
X403823Y345175D01*
X403810Y345215D01*
X403756Y345288D01*
X403730Y345331D01*
X403714Y345345D01*
X403698Y345366D01*
X392869Y356195D01*
X392099Y358055D01*
X392045Y358139D01*
X391993Y358226D01*
X391984Y358233D01*
X391978Y358243D01*
X391897Y358304D01*
X391819Y358367D01*
X391808Y358371D01*
X391798Y358378D01*
X391702Y358407D01*
X391607Y358439D01*
X391595Y358439D01*
X391583Y358442D01*
X391482Y358435D01*
X391382Y358432D01*
X391371Y358428D01*
X391360Y358427D01*
X391267Y358386D01*
X391175Y358348D01*
X391166Y358340D01*
X391155Y358335D01*
X391083Y358265D01*
X391009Y358197D01*
X391003Y358186D01*
X390995Y358178D01*
X390953Y358087D01*
X390906Y357997D01*
X390904Y357984D01*
X390900Y357975D01*
X390896Y357929D01*
X390879Y357812D01*
X390879Y308832D01*
X390886Y308790D01*
X390884Y308748D01*
X390906Y308681D01*
X390918Y308611D01*
X390940Y308574D01*
X390953Y308534D01*
X391007Y308461D01*
X391033Y308418D01*
X391049Y308405D01*
X391065Y308383D01*
X403451Y295997D01*
X403515Y295952D01*
X403573Y295901D01*
X403606Y295889D01*
X403636Y295868D01*
X403711Y295849D01*
X403783Y295822D01*
X403818Y295821D01*
X403853Y295813D01*
X403930Y295821D01*
G37*
%LPC*%
G36*
X715398Y509079D02*
X715398Y509079D01*
X711127Y510848D01*
X707858Y514117D01*
X706089Y518388D01*
X706089Y523012D01*
X707858Y527283D01*
X711127Y530552D01*
X715398Y532321D01*
X733102Y532321D01*
X737373Y530552D01*
X740642Y527283D01*
X742411Y523012D01*
X742411Y518388D01*
X740642Y514117D01*
X737373Y510848D01*
X733102Y509079D01*
X715398Y509079D01*
G37*
%LPD*%
%LPC*%
G36*
X651238Y639914D02*
X651238Y639914D01*
X646043Y642066D01*
X642066Y646043D01*
X639914Y651238D01*
X639914Y656862D01*
X642066Y662057D01*
X646043Y666034D01*
X651238Y668186D01*
X656862Y668186D01*
X662057Y666034D01*
X666034Y662057D01*
X668186Y656862D01*
X668186Y651238D01*
X666034Y646043D01*
X662057Y642066D01*
X656862Y639914D01*
X651238Y639914D01*
G37*
%LPD*%
%LPC*%
G36*
X435838Y750379D02*
X435838Y750379D01*
X431567Y752148D01*
X428298Y755417D01*
X426529Y759688D01*
X426529Y764312D01*
X428298Y768583D01*
X431567Y771852D01*
X435838Y773621D01*
X440462Y773621D01*
X444733Y771852D01*
X448002Y768583D01*
X449771Y764312D01*
X449771Y759688D01*
X448002Y755417D01*
X444733Y752148D01*
X440462Y750379D01*
X435838Y750379D01*
G37*
%LPD*%
%LPC*%
G36*
X877569Y292969D02*
X877569Y292969D01*
X877569Y306241D01*
X889444Y306241D01*
X891705Y305883D01*
X893882Y305175D01*
X895921Y304136D01*
X897773Y302791D01*
X899391Y301173D01*
X900736Y299321D01*
X901775Y297282D01*
X902483Y295105D01*
X902821Y292969D01*
X877569Y292969D01*
G37*
%LPD*%
%LPC*%
G36*
X877569Y191369D02*
X877569Y191369D01*
X877569Y204641D01*
X889444Y204641D01*
X891705Y204283D01*
X893882Y203575D01*
X895921Y202536D01*
X897773Y201191D01*
X899391Y199573D01*
X900736Y197721D01*
X901775Y195682D01*
X902483Y193505D01*
X902821Y191369D01*
X877569Y191369D01*
G37*
%LPD*%
%LPC*%
G36*
X849779Y292969D02*
X849779Y292969D01*
X850117Y295105D01*
X850825Y297282D01*
X851864Y299321D01*
X853209Y301173D01*
X854827Y302791D01*
X856679Y304136D01*
X858718Y305175D01*
X860895Y305883D01*
X863156Y306241D01*
X875031Y306241D01*
X875031Y292969D01*
X849779Y292969D01*
G37*
%LPD*%
%LPC*%
G36*
X849779Y191369D02*
X849779Y191369D01*
X850117Y193505D01*
X850825Y195682D01*
X851864Y197721D01*
X853209Y199573D01*
X854827Y201191D01*
X856679Y202536D01*
X858718Y203575D01*
X860895Y204283D01*
X863156Y204641D01*
X875031Y204641D01*
X875031Y191369D01*
X849779Y191369D01*
G37*
%LPD*%
%LPC*%
G36*
X877569Y175559D02*
X877569Y175559D01*
X877569Y188831D01*
X902821Y188831D01*
X902483Y186695D01*
X901775Y184518D01*
X900736Y182479D01*
X899391Y180627D01*
X897773Y179009D01*
X895921Y177664D01*
X893882Y176625D01*
X891705Y175917D01*
X889444Y175559D01*
X877569Y175559D01*
G37*
%LPD*%
%LPC*%
G36*
X877569Y277159D02*
X877569Y277159D01*
X877569Y290431D01*
X902821Y290431D01*
X902483Y288295D01*
X901775Y286118D01*
X900736Y284079D01*
X899391Y282227D01*
X897773Y280609D01*
X895921Y279264D01*
X893882Y278225D01*
X891705Y277517D01*
X889444Y277159D01*
X877569Y277159D01*
G37*
%LPD*%
%LPC*%
G36*
X863156Y175559D02*
X863156Y175559D01*
X860895Y175917D01*
X858718Y176625D01*
X856679Y177664D01*
X854827Y179009D01*
X853209Y180627D01*
X851864Y182479D01*
X850825Y184518D01*
X850117Y186695D01*
X849779Y188831D01*
X875031Y188831D01*
X875031Y175559D01*
X863156Y175559D01*
G37*
%LPD*%
%LPC*%
G36*
X863156Y277159D02*
X863156Y277159D01*
X860895Y277517D01*
X858718Y278225D01*
X856679Y279264D01*
X854827Y280609D01*
X853209Y282227D01*
X851864Y284079D01*
X850825Y286118D01*
X850117Y288295D01*
X849779Y290431D01*
X875031Y290431D01*
X875031Y277159D01*
X863156Y277159D01*
G37*
%LPD*%
%LPC*%
G36*
X426719Y166369D02*
X426719Y166369D01*
X426719Y175883D01*
X434541Y175883D01*
X436217Y175618D01*
X437832Y175093D01*
X439344Y174323D01*
X440717Y173325D01*
X441917Y172125D01*
X442915Y170752D01*
X443686Y169239D01*
X444210Y167625D01*
X444409Y166369D01*
X426719Y166369D01*
G37*
%LPD*%
%LPC*%
G36*
X426719Y217169D02*
X426719Y217169D01*
X426719Y226683D01*
X434541Y226683D01*
X436217Y226418D01*
X437832Y225893D01*
X439344Y225123D01*
X440717Y224125D01*
X441917Y222925D01*
X442915Y221552D01*
X443686Y220039D01*
X444210Y218425D01*
X444409Y217169D01*
X426719Y217169D01*
G37*
%LPD*%
%LPC*%
G36*
X756919Y267969D02*
X756919Y267969D01*
X756919Y277483D01*
X764741Y277483D01*
X766417Y277218D01*
X768032Y276693D01*
X769544Y275923D01*
X770917Y274925D01*
X772117Y273725D01*
X773115Y272352D01*
X773886Y270839D01*
X774410Y269225D01*
X774609Y267969D01*
X756919Y267969D01*
G37*
%LPD*%
%LPC*%
G36*
X406491Y166369D02*
X406491Y166369D01*
X406690Y167625D01*
X407214Y169239D01*
X407985Y170752D01*
X408983Y172125D01*
X410183Y173325D01*
X411556Y174323D01*
X413068Y175093D01*
X414683Y175618D01*
X416359Y175883D01*
X424181Y175883D01*
X424181Y166369D01*
X406491Y166369D01*
G37*
%LPD*%
%LPC*%
G36*
X736691Y267969D02*
X736691Y267969D01*
X736890Y269225D01*
X737414Y270839D01*
X738185Y272352D01*
X739183Y273725D01*
X740383Y274925D01*
X741756Y275923D01*
X743268Y276693D01*
X744883Y277218D01*
X746559Y277483D01*
X754381Y277483D01*
X754381Y267969D01*
X736691Y267969D01*
G37*
%LPD*%
%LPC*%
G36*
X406491Y217169D02*
X406491Y217169D01*
X406690Y218425D01*
X407214Y220039D01*
X407985Y221552D01*
X408983Y222925D01*
X410183Y224125D01*
X411556Y225123D01*
X413068Y225893D01*
X414683Y226418D01*
X416359Y226683D01*
X424181Y226683D01*
X424181Y217169D01*
X406491Y217169D01*
G37*
%LPD*%
%LPC*%
G36*
X756919Y281317D02*
X756919Y281317D01*
X756919Y290831D01*
X774609Y290831D01*
X774410Y289575D01*
X773886Y287961D01*
X773115Y286448D01*
X772117Y285075D01*
X770917Y283875D01*
X769544Y282877D01*
X768032Y282107D01*
X766417Y281582D01*
X764741Y281317D01*
X756919Y281317D01*
G37*
%LPD*%
%LPC*%
G36*
X426719Y205117D02*
X426719Y205117D01*
X426719Y214631D01*
X444409Y214631D01*
X444210Y213375D01*
X443686Y211761D01*
X442915Y210248D01*
X441917Y208875D01*
X440717Y207675D01*
X439344Y206677D01*
X437832Y205907D01*
X436217Y205382D01*
X434541Y205117D01*
X426719Y205117D01*
G37*
%LPD*%
%LPC*%
G36*
X426719Y154317D02*
X426719Y154317D01*
X426719Y163831D01*
X444409Y163831D01*
X444210Y162575D01*
X443686Y160961D01*
X442915Y159448D01*
X441917Y158075D01*
X440717Y156875D01*
X439344Y155877D01*
X437832Y155107D01*
X436217Y154582D01*
X434541Y154317D01*
X426719Y154317D01*
G37*
%LPD*%
%LPC*%
G36*
X416359Y154317D02*
X416359Y154317D01*
X414683Y154582D01*
X413068Y155107D01*
X411556Y155877D01*
X410183Y156875D01*
X408983Y158075D01*
X407985Y159448D01*
X407214Y160961D01*
X406690Y162575D01*
X406491Y163831D01*
X424181Y163831D01*
X424181Y154317D01*
X416359Y154317D01*
G37*
%LPD*%
%LPC*%
G36*
X416359Y205117D02*
X416359Y205117D01*
X414683Y205382D01*
X413068Y205907D01*
X411556Y206677D01*
X410183Y207675D01*
X408983Y208875D01*
X407985Y210248D01*
X407214Y211761D01*
X406690Y213375D01*
X406491Y214631D01*
X424181Y214631D01*
X424181Y205117D01*
X416359Y205117D01*
G37*
%LPD*%
%LPC*%
G36*
X746559Y281317D02*
X746559Y281317D01*
X744883Y281582D01*
X743268Y282107D01*
X741756Y282877D01*
X740383Y283875D01*
X739183Y285075D01*
X738185Y286448D01*
X737414Y287961D01*
X736890Y289575D01*
X736691Y290831D01*
X754381Y290831D01*
X754381Y281317D01*
X746559Y281317D01*
G37*
%LPD*%
%LPC*%
G36*
X572769Y629919D02*
X572769Y629919D01*
X572769Y645351D01*
X574316Y645044D01*
X576072Y644316D01*
X577653Y643260D01*
X578998Y641915D01*
X580054Y640334D01*
X580782Y638578D01*
X581153Y636713D01*
X581153Y629919D01*
X572769Y629919D01*
G37*
%LPD*%
%LPC*%
G36*
X572769Y436881D02*
X572769Y436881D01*
X581153Y436881D01*
X581153Y430087D01*
X580782Y428222D01*
X580054Y426466D01*
X578998Y424885D01*
X577653Y423540D01*
X576072Y422484D01*
X574316Y421756D01*
X572769Y421449D01*
X572769Y436881D01*
G37*
%LPD*%
%LPC*%
G36*
X568684Y421756D02*
X568684Y421756D01*
X566928Y422484D01*
X565347Y423540D01*
X564002Y424885D01*
X562946Y426466D01*
X562218Y428222D01*
X561847Y430087D01*
X561847Y436881D01*
X570231Y436881D01*
X570231Y421449D01*
X568684Y421756D01*
G37*
%LPD*%
%LPC*%
G36*
X725519Y496569D02*
X725519Y496569D01*
X725519Y504381D01*
X731684Y504381D01*
X733439Y504032D01*
X735091Y503347D01*
X736579Y502353D01*
X737843Y501089D01*
X738837Y499601D01*
X739522Y497949D01*
X739796Y496569D01*
X725519Y496569D01*
G37*
%LPD*%
%LPC*%
G36*
X708704Y496569D02*
X708704Y496569D01*
X708978Y497949D01*
X709663Y499601D01*
X710657Y501089D01*
X711921Y502353D01*
X713409Y503347D01*
X715061Y504032D01*
X716816Y504381D01*
X722981Y504381D01*
X722981Y496569D01*
X708704Y496569D01*
G37*
%LPD*%
%LPC*%
G36*
X725519Y486219D02*
X725519Y486219D01*
X725519Y494031D01*
X739796Y494031D01*
X739522Y492651D01*
X738837Y490999D01*
X737843Y489511D01*
X736579Y488247D01*
X735091Y487253D01*
X733439Y486568D01*
X731684Y486219D01*
X725519Y486219D01*
G37*
%LPD*%
%LPC*%
G36*
X716816Y486219D02*
X716816Y486219D01*
X715061Y486568D01*
X713409Y487253D01*
X711921Y488247D01*
X710657Y489511D01*
X709663Y490999D01*
X708978Y492651D01*
X708704Y494031D01*
X722981Y494031D01*
X722981Y486219D01*
X716816Y486219D01*
G37*
%LPD*%
%LPC*%
G36*
X801369Y83819D02*
X801369Y83819D01*
X801369Y94437D01*
X802896Y94195D01*
X804683Y93614D01*
X806357Y92761D01*
X807878Y91656D01*
X809206Y90328D01*
X810311Y88807D01*
X811164Y87133D01*
X811745Y85346D01*
X811987Y83819D01*
X801369Y83819D01*
G37*
%LPD*%
%LPC*%
G36*
X788213Y83819D02*
X788213Y83819D01*
X788455Y85346D01*
X789036Y87133D01*
X789889Y88807D01*
X790994Y90328D01*
X792322Y91656D01*
X793843Y92761D01*
X795517Y93614D01*
X797304Y94195D01*
X798831Y94437D01*
X798831Y83819D01*
X788213Y83819D01*
G37*
%LPD*%
%LPC*%
G36*
X801369Y81281D02*
X801369Y81281D01*
X811987Y81281D01*
X811745Y79754D01*
X811164Y77967D01*
X810311Y76293D01*
X809206Y74772D01*
X807878Y73444D01*
X806357Y72339D01*
X804683Y71486D01*
X802896Y70905D01*
X801369Y70663D01*
X801369Y81281D01*
G37*
%LPD*%
%LPC*%
G36*
X797304Y70905D02*
X797304Y70905D01*
X795517Y71486D01*
X793843Y72339D01*
X792322Y73444D01*
X790994Y74772D01*
X789889Y76293D01*
X789036Y77967D01*
X788455Y79754D01*
X788213Y81281D01*
X798831Y81281D01*
X798831Y70663D01*
X797304Y70905D01*
G37*
%LPD*%
%LPC*%
G36*
X718819Y731519D02*
X718819Y731519D01*
X718819Y741173D01*
X722074Y741173D01*
X728473Y734774D01*
X728473Y731519D01*
X718819Y731519D01*
G37*
%LPD*%
%LPC*%
G36*
X77469Y147319D02*
X77469Y147319D01*
X77469Y156973D01*
X80724Y156973D01*
X87123Y150574D01*
X87123Y147319D01*
X77469Y147319D01*
G37*
%LPD*%
%LPC*%
G36*
X706627Y731519D02*
X706627Y731519D01*
X706627Y734774D01*
X713026Y741173D01*
X716281Y741173D01*
X716281Y731519D01*
X706627Y731519D01*
G37*
%LPD*%
%LPC*%
G36*
X65277Y147319D02*
X65277Y147319D01*
X65277Y150574D01*
X71676Y156973D01*
X74931Y156973D01*
X74931Y147319D01*
X65277Y147319D01*
G37*
%LPD*%
%LPC*%
G36*
X77469Y135127D02*
X77469Y135127D01*
X77469Y144781D01*
X87123Y144781D01*
X87123Y141526D01*
X80724Y135127D01*
X77469Y135127D01*
G37*
%LPD*%
%LPC*%
G36*
X718819Y719327D02*
X718819Y719327D01*
X718819Y728981D01*
X728473Y728981D01*
X728473Y725726D01*
X722074Y719327D01*
X718819Y719327D01*
G37*
%LPD*%
%LPC*%
G36*
X71676Y135127D02*
X71676Y135127D01*
X65277Y141526D01*
X65277Y144781D01*
X74931Y144781D01*
X74931Y135127D01*
X71676Y135127D01*
G37*
%LPD*%
%LPC*%
G36*
X713026Y719327D02*
X713026Y719327D01*
X706627Y725726D01*
X706627Y728981D01*
X716281Y728981D01*
X716281Y719327D01*
X713026Y719327D01*
G37*
%LPD*%
%LPC*%
G36*
X439382Y484065D02*
X439382Y484065D01*
X441163Y485846D01*
X448739Y485846D01*
X450520Y484065D01*
X444951Y478496D01*
X439382Y484065D01*
G37*
%LPD*%
%LPC*%
G36*
X433032Y553915D02*
X433032Y553915D01*
X434813Y555696D01*
X442389Y555696D01*
X444170Y553915D01*
X438601Y548346D01*
X433032Y553915D01*
G37*
%LPD*%
%LPC*%
G36*
X440396Y546551D02*
X440396Y546551D01*
X445965Y552120D01*
X447746Y550339D01*
X447746Y542763D01*
X445965Y540982D01*
X440396Y546551D01*
G37*
%LPD*%
%LPC*%
G36*
X435807Y472913D02*
X435807Y472913D01*
X435807Y480489D01*
X437587Y482270D01*
X443156Y476701D01*
X437587Y471132D01*
X435807Y472913D01*
G37*
%LPD*%
%LPC*%
G36*
X429457Y542763D02*
X429457Y542763D01*
X429457Y550339D01*
X431237Y552120D01*
X436806Y546551D01*
X431237Y540982D01*
X429457Y542763D01*
G37*
%LPD*%
%LPC*%
G36*
X434813Y537407D02*
X434813Y537407D01*
X433032Y539187D01*
X438601Y544756D01*
X444170Y539187D01*
X442389Y537407D01*
X434813Y537407D01*
G37*
%LPD*%
%LPC*%
G36*
X441163Y467557D02*
X441163Y467557D01*
X439382Y469337D01*
X444951Y474906D01*
X450520Y469337D01*
X448739Y467557D01*
X441163Y467557D01*
G37*
%LPD*%
%LPC*%
G36*
X462396Y748530D02*
X462396Y748530D01*
X467866Y754000D01*
X468648Y752831D01*
X469332Y751178D01*
X469681Y749424D01*
X469681Y747635D01*
X469332Y745881D01*
X468648Y744228D01*
X467866Y743059D01*
X462396Y748530D01*
G37*
%LPD*%
%LPC*%
G36*
X455130Y755795D02*
X455130Y755795D01*
X456299Y756577D01*
X457952Y757261D01*
X459706Y757610D01*
X461495Y757610D01*
X463249Y757261D01*
X464902Y756577D01*
X466071Y755795D01*
X460601Y750325D01*
X455130Y755795D01*
G37*
%LPD*%
%LPC*%
G36*
X452553Y744228D02*
X452553Y744228D01*
X451869Y745881D01*
X451520Y747635D01*
X451520Y749424D01*
X451869Y751178D01*
X452553Y752831D01*
X453335Y754000D01*
X458806Y748530D01*
X453335Y743059D01*
X452553Y744228D01*
G37*
%LPD*%
%LPC*%
G36*
X459706Y739449D02*
X459706Y739449D01*
X457952Y739798D01*
X456299Y740482D01*
X455130Y741264D01*
X460601Y746735D01*
X466071Y741264D01*
X464902Y740482D01*
X463249Y739798D01*
X461495Y739449D01*
X459706Y739449D01*
G37*
%LPD*%
%LPC*%
G36*
X460599Y748530D02*
X460599Y748530D01*
X460601Y748531D01*
X460602Y748530D01*
X460601Y748528D01*
X460599Y748530D01*
G37*
%LPD*%
%LPC*%
G36*
X438600Y546551D02*
X438600Y546551D01*
X438601Y546553D01*
X438603Y546551D01*
X438601Y546550D01*
X438600Y546551D01*
G37*
%LPD*%
%LPC*%
G36*
X425449Y165099D02*
X425449Y165099D01*
X425449Y165101D01*
X425451Y165101D01*
X425451Y165099D01*
X425449Y165099D01*
G37*
%LPD*%
%LPC*%
G36*
X425449Y215899D02*
X425449Y215899D01*
X425449Y215901D01*
X425451Y215901D01*
X425451Y215899D01*
X425449Y215899D01*
G37*
%LPD*%
%LPC*%
G36*
X724249Y495299D02*
X724249Y495299D01*
X724249Y495301D01*
X724251Y495301D01*
X724251Y495299D01*
X724249Y495299D01*
G37*
%LPD*%
%LPC*%
G36*
X876299Y190099D02*
X876299Y190099D01*
X876299Y190101D01*
X876301Y190101D01*
X876301Y190099D01*
X876299Y190099D01*
G37*
%LPD*%
%LPC*%
G36*
X876299Y291699D02*
X876299Y291699D01*
X876299Y291701D01*
X876301Y291701D01*
X876301Y291699D01*
X876299Y291699D01*
G37*
%LPD*%
%LPC*%
G36*
X717549Y730249D02*
X717549Y730249D01*
X717549Y730251D01*
X717551Y730251D01*
X717551Y730249D01*
X717549Y730249D01*
G37*
%LPD*%
%LPC*%
G36*
X800099Y82549D02*
X800099Y82549D01*
X800099Y82551D01*
X800101Y82551D01*
X800101Y82549D01*
X800099Y82549D01*
G37*
%LPD*%
%LPC*%
G36*
X76199Y146049D02*
X76199Y146049D01*
X76199Y146051D01*
X76201Y146051D01*
X76201Y146049D01*
X76199Y146049D01*
G37*
%LPD*%
%LPC*%
G36*
X444950Y476701D02*
X444950Y476701D01*
X444951Y476703D01*
X444952Y476701D01*
X444951Y476700D01*
X444950Y476701D01*
G37*
%LPD*%
D10*
X691790Y457200D02*
X678710Y457200D01*
X717710Y469900D02*
X730790Y469900D01*
X691790Y482600D02*
X678710Y482600D01*
X717710Y495300D02*
X730790Y495300D01*
X691790Y508000D02*
X678710Y508000D01*
X717710Y520700D02*
X730790Y520700D01*
X691790Y533400D02*
X678710Y533400D01*
D11*
X463550Y514350D03*
X590550Y514350D03*
X463550Y552450D03*
X590550Y552450D03*
D12*
X864300Y444900D02*
X888300Y444900D01*
X888300Y494900D02*
X864300Y494900D01*
X864300Y343300D02*
X888300Y343300D01*
X888300Y393300D02*
X864300Y393300D01*
D13*
X433693Y393700D02*
X417208Y393700D01*
X417208Y368300D02*
X433693Y368300D01*
X433693Y342900D02*
X417208Y342900D01*
X417208Y317500D02*
X433693Y317500D01*
X433693Y292100D02*
X417208Y292100D01*
X417208Y266700D02*
X433693Y266700D01*
X433693Y241300D02*
X417208Y241300D01*
X417208Y215900D02*
X433693Y215900D01*
X433693Y190500D02*
X417208Y190500D01*
X417208Y165100D02*
X433693Y165100D01*
X747408Y215900D02*
X763893Y215900D01*
X763893Y241300D02*
X747408Y241300D01*
X747408Y266700D02*
X763893Y266700D01*
X763893Y292100D02*
X747408Y292100D01*
X747408Y317500D02*
X763893Y317500D01*
X763893Y342900D02*
X747408Y342900D01*
X747408Y368300D02*
X763893Y368300D01*
X763893Y393700D02*
X747408Y393700D01*
D14*
X266700Y647700D03*
X266700Y622300D03*
X266700Y596900D03*
X266700Y571500D03*
X266700Y546100D03*
X266700Y520700D03*
X266700Y495300D03*
X266700Y469900D03*
X266700Y444500D03*
X266700Y419100D03*
X266700Y393700D03*
X266700Y368300D03*
X266700Y342900D03*
X266700Y317500D03*
X266700Y292100D03*
X266700Y266700D03*
X266700Y241300D03*
X114300Y647700D03*
X114300Y622300D03*
X114300Y596900D03*
X114300Y571500D03*
X114300Y546100D03*
X114300Y520700D03*
X114300Y495300D03*
X114300Y469900D03*
X114300Y444500D03*
X114300Y419100D03*
X114300Y393700D03*
X114300Y368300D03*
X114300Y342900D03*
X114300Y317500D03*
X114300Y292100D03*
X114300Y266700D03*
X114300Y241300D03*
D11*
X463550Y476250D03*
X590550Y476250D03*
X463550Y590550D03*
X590550Y590550D03*
D12*
X864300Y241700D02*
X888300Y241700D01*
X888300Y291700D02*
X864300Y291700D01*
X864300Y140100D02*
X888300Y140100D01*
X888300Y190100D02*
X864300Y190100D01*
D15*
X177800Y146050D03*
X76200Y146050D03*
D16*
X41148Y571500D02*
X22352Y571500D01*
X22352Y546100D02*
X41148Y546100D01*
X41148Y520700D02*
X22352Y520700D01*
X177800Y85598D02*
X177800Y66802D01*
X152400Y66802D02*
X152400Y85598D01*
X330200Y79248D02*
X330200Y60452D01*
X355600Y60452D02*
X355600Y79248D01*
X419100Y79248D02*
X419100Y60452D01*
X444500Y60452D02*
X444500Y79248D01*
X41148Y469900D02*
X22352Y469900D01*
X22352Y444500D02*
X41148Y444500D01*
X41148Y419100D02*
X22352Y419100D01*
D17*
X444951Y476701D03*
X355149Y386899D03*
D18*
X348799Y456749D03*
X438601Y546551D03*
D19*
X800100Y82550D03*
D20*
X730250Y679450D03*
X692150Y679450D03*
X615950Y679450D03*
X577850Y679450D03*
D19*
X297180Y241300D03*
X299720Y266700D03*
X297180Y292100D03*
X299720Y317500D03*
X297180Y342900D03*
X299720Y368300D03*
X297180Y393700D03*
X299720Y419100D03*
X297180Y444500D03*
X299720Y469900D03*
X297180Y495300D03*
X299720Y520700D03*
X297180Y546100D03*
X299720Y571500D03*
X297180Y596900D03*
X299720Y622300D03*
X297180Y647700D03*
X81280Y495300D03*
X83820Y520700D03*
X81280Y546100D03*
X83820Y571500D03*
X81280Y596900D03*
X83820Y622300D03*
X81280Y647700D03*
X81280Y241300D03*
X83820Y266700D03*
X81280Y292100D03*
X83820Y317500D03*
X81280Y342900D03*
X83820Y368300D03*
X81280Y393700D03*
X83820Y419100D03*
X81280Y444500D03*
X83820Y469900D03*
D21*
X474071Y726079D03*
X460601Y748530D03*
X420189Y779961D03*
X438150Y762000D03*
D22*
X273050Y723900D03*
X374650Y723900D03*
X273050Y768350D03*
X374650Y768350D03*
D15*
X717550Y730250D03*
X615950Y730250D03*
D23*
X520700Y635762D02*
X520700Y621538D01*
X546100Y621538D02*
X546100Y635762D01*
X571500Y635762D02*
X571500Y621538D01*
X520700Y445262D02*
X520700Y431038D01*
X546100Y431038D02*
X546100Y445262D01*
X571500Y445262D02*
X571500Y431038D01*
D24*
X654050Y457200D03*
D25*
X450850Y342900D03*
X654050Y533400D03*
X368300Y184150D03*
X368300Y203200D03*
X368300Y222250D03*
X368300Y260350D03*
X368300Y279400D03*
X368300Y298450D03*
X368300Y336550D03*
X368300Y355600D03*
X133350Y266700D03*
X400050Y342900D03*
X393700Y393700D03*
X355600Y431800D03*
X19050Y590550D03*
X44450Y590550D03*
X50800Y317500D03*
X133350Y317500D03*
X266700Y171450D03*
X266700Y107950D03*
X215900Y127000D03*
X419100Y107950D03*
X431800Y107950D03*
X444500Y107950D03*
X463550Y76200D03*
X730250Y266700D03*
X730250Y292100D03*
X781050Y266700D03*
X781050Y292100D03*
X368300Y241300D03*
X400050Y165100D03*
X450850Y165100D03*
X450850Y215900D03*
X400050Y215900D03*
X787400Y419100D03*
X806450Y419100D03*
X787400Y368300D03*
X806450Y368300D03*
X838200Y298450D03*
X876300Y311150D03*
X876300Y266700D03*
X838200Y279400D03*
X787400Y209550D03*
X806450Y209550D03*
X806450Y469900D03*
X787400Y469900D03*
X787400Y165100D03*
X806450Y165100D03*
X171450Y266700D03*
X787400Y114300D03*
X806450Y114300D03*
X171450Y317500D03*
X247650Y292100D03*
X247650Y304800D03*
X222250Y317500D03*
X209550Y317500D03*
X304800Y171450D03*
X304800Y107950D03*
X628650Y495300D03*
X660400Y495300D03*
X749300Y508000D03*
X749300Y482600D03*
X844550Y565150D03*
X882650Y533400D03*
X717550Y749300D03*
X654050Y628650D03*
X76200Y165100D03*
X368300Y165100D03*
X234950Y317500D03*
X368300Y317500D03*
X368300Y419100D03*
X381000Y406400D03*
X342900Y444500D03*
X400050Y317500D03*
X654050Y673100D03*
X717550Y711200D03*
X876300Y419100D03*
X876300Y368300D03*
X876300Y215900D03*
X876300Y165100D03*
X876300Y114300D03*
X876300Y469900D03*
X406400Y596900D03*
X387350Y577850D03*
X361950Y552450D03*
X425450Y615950D03*
X457200Y603250D03*
X482600Y628650D03*
X317500Y508000D03*
X317500Y533400D03*
X317500Y558800D03*
X317500Y577850D03*
X355600Y609600D03*
X69850Y381000D03*
X69850Y355600D03*
X69850Y330200D03*
X69850Y304800D03*
X69850Y279400D03*
X69850Y254000D03*
X317500Y355600D03*
X317500Y330200D03*
X317500Y304800D03*
X317500Y279400D03*
X317500Y254000D03*
X31750Y495300D03*
X76200Y127000D03*
X31750Y393700D03*
D26*
X755650Y241300D02*
X875900Y241300D01*
D27*
X876300Y241700D01*
D26*
X755650Y241300D02*
X755650Y215900D01*
D28*
X685250Y482600D02*
X672550Y482600D01*
X666200Y476250D01*
X628650Y476250D01*
X590550Y514350D01*
X628650Y514350D02*
X590550Y552450D01*
X628650Y514350D02*
X672550Y514350D01*
X678900Y508000D01*
X685250Y508000D01*
D27*
X697550Y444900D02*
X876300Y444900D01*
X697550Y444900D02*
X685250Y457200D01*
X692150Y558800D02*
X800100Y558800D01*
X876300Y494900D01*
X685250Y533400D02*
X692150Y558800D01*
D29*
X299720Y622300D02*
X266700Y622300D01*
D30*
X399159Y622780D02*
X431869Y590070D01*
X399159Y622780D02*
X300200Y622780D01*
X299720Y622300D01*
X431869Y590070D02*
X463070Y590070D01*
X463550Y590550D01*
X463550Y552450D01*
D28*
X463550Y514350D02*
X463550Y476250D01*
X463550Y495300D01*
D29*
X297180Y596900D02*
X266700Y596900D01*
D30*
X428137Y514350D02*
X463550Y514350D01*
X428137Y514350D02*
X345587Y596900D01*
X297180Y596900D01*
D31*
X257902Y694340D02*
X535497Y694340D01*
X546100Y683737D01*
D32*
X573563Y683737D02*
X577850Y679450D01*
X573563Y683737D02*
X546100Y683737D01*
D29*
X299720Y571500D02*
X266700Y571500D01*
D31*
X239110Y675548D02*
X257902Y694340D01*
X239110Y675548D02*
X239110Y596900D01*
X264510Y571500D01*
X266700Y571500D01*
D26*
X755650Y342900D02*
X875900Y342900D01*
D27*
X876300Y343300D01*
D26*
X755650Y342900D02*
X755650Y317500D01*
X755650Y393700D02*
X875900Y393700D01*
D27*
X876300Y393300D01*
D26*
X755650Y393700D02*
X755650Y368300D01*
D30*
X425450Y342900D02*
X419456Y342900D01*
X400837Y361519D01*
X400837Y367513D01*
X299720Y468630D01*
X299720Y469900D01*
D29*
X266700Y469900D01*
D30*
X416421Y275730D02*
X425450Y266700D01*
X416421Y275730D02*
X410427Y275730D01*
X300630Y442976D02*
X298704Y442976D01*
X297180Y444500D01*
X381480Y304676D02*
X410427Y275730D01*
X381480Y304676D02*
X381480Y362126D01*
X355928Y387678D01*
X300630Y442976D01*
D29*
X297180Y444500D02*
X266700Y444500D01*
X355149Y386899D02*
X355928Y387678D01*
D30*
X412750Y393700D02*
X425450Y393700D01*
X412750Y393700D02*
X349701Y456749D01*
X348799Y456749D01*
X310247Y495300D01*
D29*
X297180Y495300D02*
X266700Y495300D01*
D30*
X297180Y495300D02*
X310247Y495300D01*
D32*
X152400Y368300D02*
X152400Y76200D01*
D31*
X384302Y56513D02*
X384302Y241300D01*
X384302Y56513D02*
X358269Y30480D01*
D32*
X425450Y241300D02*
X450850Y241300D01*
X152400Y76200D02*
X152400Y63500D01*
D31*
X185420Y30480D01*
X358269Y30480D01*
X384302Y241300D02*
X425450Y241300D01*
D32*
X114300Y368300D02*
X83820Y368300D01*
X114300Y368300D02*
X152400Y368300D01*
X450850Y241300D02*
X520700Y311150D01*
X520700Y438150D01*
X520700Y628650D01*
D28*
X349250Y95250D02*
X355600Y88900D01*
X355600Y69850D01*
D29*
X299720Y419100D02*
X266700Y419100D01*
D28*
X349250Y369570D02*
X349250Y95250D01*
X349250Y369570D02*
X299720Y419100D01*
D29*
X114300Y292100D02*
X81280Y292100D01*
X266700Y647700D02*
X297180Y647700D01*
X299720Y520700D02*
X266700Y520700D01*
D28*
X203200Y716461D02*
X255089Y768350D01*
X203200Y716461D02*
X203200Y558800D01*
X241300Y520700D01*
X266700Y520700D01*
X273050Y768350D02*
X255089Y768350D01*
D29*
X266700Y546100D02*
X297180Y546100D01*
D28*
X266700Y546100D02*
X247650Y546100D01*
X215900Y577850D01*
X215900Y692150D01*
X247650Y723900D01*
X273050Y723900D01*
X177800Y146050D02*
X177800Y76200D01*
X190500Y158750D02*
X190500Y457200D01*
X127000Y520700D01*
D29*
X114300Y520700D01*
X83820Y520700D01*
D28*
X190500Y158750D02*
X177800Y146050D01*
D29*
X615950Y679450D02*
X615950Y730250D01*
X114300Y444500D02*
X81280Y444500D01*
X81280Y546100D02*
X114300Y546100D01*
X266700Y368300D02*
X299720Y368300D01*
X297180Y342900D02*
X266700Y342900D01*
X266700Y317500D02*
X299720Y317500D01*
X297180Y292100D02*
X266700Y292100D01*
X266700Y266700D02*
X299720Y266700D01*
X297180Y241300D02*
X266700Y241300D01*
X114300Y495300D02*
X81280Y495300D01*
X83820Y571500D02*
X114300Y571500D01*
X114300Y596900D02*
X81280Y596900D01*
X81280Y647700D02*
X114300Y647700D01*
X114300Y469900D02*
X83820Y469900D01*
X83820Y419100D02*
X114300Y419100D01*
X114300Y393700D02*
X81280Y393700D01*
X81280Y342900D02*
X114300Y342900D01*
X114300Y266700D02*
X83820Y266700D01*
X81280Y241300D02*
X114300Y241300D01*
X266700Y393700D02*
X297180Y393700D01*
D28*
X336550Y361950D02*
X336550Y76200D01*
X330200Y69850D01*
D30*
X336550Y361950D02*
X304800Y393700D01*
X297180Y393700D01*
D29*
X114300Y317500D02*
X83820Y317500D01*
D28*
X374650Y723900D02*
X471892Y723900D01*
X474071Y726079D01*
X408579Y768350D02*
X374650Y768350D01*
X408579Y768350D02*
X420189Y779961D01*
D29*
X114300Y622300D02*
X83820Y622300D01*
X69850Y622300D01*
X59690Y612140D01*
X59690Y529590D01*
X50800Y520700D01*
X31750Y520700D01*
X59690Y511810D02*
X59690Y427990D01*
X59690Y511810D02*
X50800Y520700D01*
X59690Y427990D02*
X50800Y419100D01*
X31750Y419100D01*
X59690Y511810D02*
X59690Y529590D01*
D30*
X546100Y628650D02*
X552450Y628650D01*
X574802Y606298D02*
X590550Y590550D01*
X574802Y606298D02*
X565187Y606298D01*
X556260Y615225D01*
X556260Y624840D01*
X552450Y628650D01*
X556260Y448310D02*
X546100Y438150D01*
X556260Y448310D02*
X556260Y451575D01*
X580935Y476250D01*
X590550Y476250D01*
M02*
