G04 EAGLE Gerber RS-274X export*
G75*
%MOMM*%
%FSLAX34Y34*%
%LPD*%
%IN*%
%IPPOS*%
%AMOC8*
5,1,8,0,0,1.08239X$1,22.5*%
G01*
%ADD10C,0.254000*%


D10*
X0Y0D02*
X952500Y0D01*
X952500Y825500D01*
X0Y825500D01*
X0Y0D01*
X83500Y761396D02*
X83427Y760189D01*
X83281Y758989D01*
X83063Y757800D01*
X82774Y756627D01*
X82415Y755473D01*
X81986Y754343D01*
X81490Y753241D01*
X80928Y752170D01*
X80303Y751136D01*
X79616Y750141D01*
X78871Y749190D01*
X78069Y748285D01*
X77215Y747431D01*
X76310Y746629D01*
X75359Y745884D01*
X74364Y745197D01*
X73330Y744572D01*
X72259Y744010D01*
X71157Y743514D01*
X70027Y743085D01*
X68873Y742726D01*
X67700Y742437D01*
X66511Y742219D01*
X65311Y742073D01*
X64104Y742000D01*
X62896Y742000D01*
X61689Y742073D01*
X60489Y742219D01*
X59300Y742437D01*
X58127Y742726D01*
X56973Y743085D01*
X55843Y743514D01*
X54741Y744010D01*
X53670Y744572D01*
X52636Y745197D01*
X51641Y745884D01*
X50690Y746629D01*
X49785Y747431D01*
X48931Y748285D01*
X48129Y749190D01*
X47384Y750141D01*
X46697Y751136D01*
X46072Y752170D01*
X45510Y753241D01*
X45014Y754343D01*
X44585Y755473D01*
X44226Y756627D01*
X43937Y757800D01*
X43719Y758989D01*
X43573Y760189D01*
X43500Y761396D01*
X43500Y762604D01*
X43573Y763811D01*
X43719Y765011D01*
X43937Y766200D01*
X44226Y767373D01*
X44585Y768527D01*
X45014Y769657D01*
X45510Y770759D01*
X46072Y771830D01*
X46697Y772864D01*
X47384Y773859D01*
X48129Y774810D01*
X48931Y775715D01*
X49785Y776569D01*
X50690Y777371D01*
X51641Y778116D01*
X52636Y778803D01*
X53670Y779428D01*
X54741Y779990D01*
X55843Y780486D01*
X56973Y780915D01*
X58127Y781274D01*
X59300Y781563D01*
X60489Y781781D01*
X61689Y781927D01*
X62896Y782000D01*
X64104Y782000D01*
X65311Y781927D01*
X66511Y781781D01*
X67700Y781563D01*
X68873Y781274D01*
X70027Y780915D01*
X71157Y780486D01*
X72259Y779990D01*
X73330Y779428D01*
X74364Y778803D01*
X75359Y778116D01*
X76310Y777371D01*
X77215Y776569D01*
X78069Y775715D01*
X78871Y774810D01*
X79616Y773859D01*
X80303Y772864D01*
X80928Y771830D01*
X81490Y770759D01*
X81986Y769657D01*
X82415Y768527D01*
X82774Y767373D01*
X83063Y766200D01*
X83281Y765011D01*
X83427Y763811D01*
X83500Y762604D01*
X83500Y761396D01*
X909000Y761396D02*
X908927Y760189D01*
X908781Y758989D01*
X908563Y757800D01*
X908274Y756627D01*
X907915Y755473D01*
X907486Y754343D01*
X906990Y753241D01*
X906428Y752170D01*
X905803Y751136D01*
X905116Y750141D01*
X904371Y749190D01*
X903569Y748285D01*
X902715Y747431D01*
X901810Y746629D01*
X900859Y745884D01*
X899864Y745197D01*
X898830Y744572D01*
X897759Y744010D01*
X896657Y743514D01*
X895527Y743085D01*
X894373Y742726D01*
X893200Y742437D01*
X892011Y742219D01*
X890811Y742073D01*
X889604Y742000D01*
X888396Y742000D01*
X887189Y742073D01*
X885989Y742219D01*
X884800Y742437D01*
X883627Y742726D01*
X882473Y743085D01*
X881343Y743514D01*
X880241Y744010D01*
X879170Y744572D01*
X878136Y745197D01*
X877141Y745884D01*
X876190Y746629D01*
X875285Y747431D01*
X874431Y748285D01*
X873629Y749190D01*
X872884Y750141D01*
X872197Y751136D01*
X871572Y752170D01*
X871010Y753241D01*
X870514Y754343D01*
X870085Y755473D01*
X869726Y756627D01*
X869437Y757800D01*
X869219Y758989D01*
X869073Y760189D01*
X869000Y761396D01*
X869000Y762604D01*
X869073Y763811D01*
X869219Y765011D01*
X869437Y766200D01*
X869726Y767373D01*
X870085Y768527D01*
X870514Y769657D01*
X871010Y770759D01*
X871572Y771830D01*
X872197Y772864D01*
X872884Y773859D01*
X873629Y774810D01*
X874431Y775715D01*
X875285Y776569D01*
X876190Y777371D01*
X877141Y778116D01*
X878136Y778803D01*
X879170Y779428D01*
X880241Y779990D01*
X881343Y780486D01*
X882473Y780915D01*
X883627Y781274D01*
X884800Y781563D01*
X885989Y781781D01*
X887189Y781927D01*
X888396Y782000D01*
X889604Y782000D01*
X890811Y781927D01*
X892011Y781781D01*
X893200Y781563D01*
X894373Y781274D01*
X895527Y780915D01*
X896657Y780486D01*
X897759Y779990D01*
X898830Y779428D01*
X899864Y778803D01*
X900859Y778116D01*
X901810Y777371D01*
X902715Y776569D01*
X903569Y775715D01*
X904371Y774810D01*
X905116Y773859D01*
X905803Y772864D01*
X906428Y771830D01*
X906990Y770759D01*
X907486Y769657D01*
X907915Y768527D01*
X908274Y767373D01*
X908563Y766200D01*
X908781Y765011D01*
X908927Y763811D01*
X909000Y762604D01*
X909000Y761396D01*
X909000Y62896D02*
X908927Y61689D01*
X908781Y60489D01*
X908563Y59300D01*
X908274Y58127D01*
X907915Y56973D01*
X907486Y55843D01*
X906990Y54741D01*
X906428Y53670D01*
X905803Y52636D01*
X905116Y51641D01*
X904371Y50690D01*
X903569Y49785D01*
X902715Y48931D01*
X901810Y48129D01*
X900859Y47384D01*
X899864Y46697D01*
X898830Y46072D01*
X897759Y45510D01*
X896657Y45014D01*
X895527Y44585D01*
X894373Y44226D01*
X893200Y43937D01*
X892011Y43719D01*
X890811Y43573D01*
X889604Y43500D01*
X888396Y43500D01*
X887189Y43573D01*
X885989Y43719D01*
X884800Y43937D01*
X883627Y44226D01*
X882473Y44585D01*
X881343Y45014D01*
X880241Y45510D01*
X879170Y46072D01*
X878136Y46697D01*
X877141Y47384D01*
X876190Y48129D01*
X875285Y48931D01*
X874431Y49785D01*
X873629Y50690D01*
X872884Y51641D01*
X872197Y52636D01*
X871572Y53670D01*
X871010Y54741D01*
X870514Y55843D01*
X870085Y56973D01*
X869726Y58127D01*
X869437Y59300D01*
X869219Y60489D01*
X869073Y61689D01*
X869000Y62896D01*
X869000Y64104D01*
X869073Y65311D01*
X869219Y66511D01*
X869437Y67700D01*
X869726Y68873D01*
X870085Y70027D01*
X870514Y71157D01*
X871010Y72259D01*
X871572Y73330D01*
X872197Y74364D01*
X872884Y75359D01*
X873629Y76310D01*
X874431Y77215D01*
X875285Y78069D01*
X876190Y78871D01*
X877141Y79616D01*
X878136Y80303D01*
X879170Y80928D01*
X880241Y81490D01*
X881343Y81986D01*
X882473Y82415D01*
X883627Y82774D01*
X884800Y83063D01*
X885989Y83281D01*
X887189Y83427D01*
X888396Y83500D01*
X889604Y83500D01*
X890811Y83427D01*
X892011Y83281D01*
X893200Y83063D01*
X894373Y82774D01*
X895527Y82415D01*
X896657Y81986D01*
X897759Y81490D01*
X898830Y80928D01*
X899864Y80303D01*
X900859Y79616D01*
X901810Y78871D01*
X902715Y78069D01*
X903569Y77215D01*
X904371Y76310D01*
X905116Y75359D01*
X905803Y74364D01*
X906428Y73330D01*
X906990Y72259D01*
X907486Y71157D01*
X907915Y70027D01*
X908274Y68873D01*
X908563Y67700D01*
X908781Y66511D01*
X908927Y65311D01*
X909000Y64104D01*
X909000Y62896D01*
X83500Y62896D02*
X83427Y61689D01*
X83281Y60489D01*
X83063Y59300D01*
X82774Y58127D01*
X82415Y56973D01*
X81986Y55843D01*
X81490Y54741D01*
X80928Y53670D01*
X80303Y52636D01*
X79616Y51641D01*
X78871Y50690D01*
X78069Y49785D01*
X77215Y48931D01*
X76310Y48129D01*
X75359Y47384D01*
X74364Y46697D01*
X73330Y46072D01*
X72259Y45510D01*
X71157Y45014D01*
X70027Y44585D01*
X68873Y44226D01*
X67700Y43937D01*
X66511Y43719D01*
X65311Y43573D01*
X64104Y43500D01*
X62896Y43500D01*
X61689Y43573D01*
X60489Y43719D01*
X59300Y43937D01*
X58127Y44226D01*
X56973Y44585D01*
X55843Y45014D01*
X54741Y45510D01*
X53670Y46072D01*
X52636Y46697D01*
X51641Y47384D01*
X50690Y48129D01*
X49785Y48931D01*
X48931Y49785D01*
X48129Y50690D01*
X47384Y51641D01*
X46697Y52636D01*
X46072Y53670D01*
X45510Y54741D01*
X45014Y55843D01*
X44585Y56973D01*
X44226Y58127D01*
X43937Y59300D01*
X43719Y60489D01*
X43573Y61689D01*
X43500Y62896D01*
X43500Y64104D01*
X43573Y65311D01*
X43719Y66511D01*
X43937Y67700D01*
X44226Y68873D01*
X44585Y70027D01*
X45014Y71157D01*
X45510Y72259D01*
X46072Y73330D01*
X46697Y74364D01*
X47384Y75359D01*
X48129Y76310D01*
X48931Y77215D01*
X49785Y78069D01*
X50690Y78871D01*
X51641Y79616D01*
X52636Y80303D01*
X53670Y80928D01*
X54741Y81490D01*
X55843Y81986D01*
X56973Y82415D01*
X58127Y82774D01*
X59300Y83063D01*
X60489Y83281D01*
X61689Y83427D01*
X62896Y83500D01*
X64104Y83500D01*
X65311Y83427D01*
X66511Y83281D01*
X67700Y83063D01*
X68873Y82774D01*
X70027Y82415D01*
X71157Y81986D01*
X72259Y81490D01*
X73330Y80928D01*
X74364Y80303D01*
X75359Y79616D01*
X76310Y78871D01*
X77215Y78069D01*
X78069Y77215D01*
X78871Y76310D01*
X79616Y75359D01*
X80303Y74364D01*
X80928Y73330D01*
X81490Y72259D01*
X81986Y71157D01*
X82415Y70027D01*
X82774Y68873D01*
X83063Y67700D01*
X83281Y66511D01*
X83427Y65311D01*
X83500Y64104D01*
X83500Y62896D01*
X260700Y673437D02*
X260775Y674107D01*
X260925Y674764D01*
X261148Y675400D01*
X261440Y676007D01*
X261799Y676578D01*
X262219Y677104D01*
X262696Y677581D01*
X263223Y678001D01*
X263793Y678360D01*
X264400Y678652D01*
X265036Y678875D01*
X265693Y679025D01*
X266363Y679100D01*
X267037Y679100D01*
X267707Y679025D01*
X268364Y678875D01*
X269000Y678652D01*
X269607Y678360D01*
X270178Y678001D01*
X270704Y677581D01*
X271181Y677104D01*
X271601Y676578D01*
X271960Y676007D01*
X272252Y675400D01*
X272475Y674764D01*
X272625Y674107D01*
X272700Y673437D01*
X272700Y672763D01*
X272625Y672093D01*
X272475Y671436D01*
X272252Y670800D01*
X271960Y670193D01*
X271601Y669623D01*
X271181Y669096D01*
X270704Y668619D01*
X270178Y668199D01*
X269607Y667840D01*
X269000Y667548D01*
X268364Y667325D01*
X267707Y667175D01*
X267037Y667100D01*
X266363Y667100D01*
X265693Y667175D01*
X265036Y667325D01*
X264400Y667548D01*
X263793Y667840D01*
X263223Y668199D01*
X262696Y668619D01*
X262219Y669096D01*
X261799Y669623D01*
X261440Y670193D01*
X261148Y670800D01*
X260925Y671436D01*
X260775Y672093D01*
X260700Y672763D01*
X260700Y673437D01*
X108300Y673437D02*
X108375Y674107D01*
X108525Y674764D01*
X108748Y675400D01*
X109040Y676007D01*
X109399Y676578D01*
X109819Y677104D01*
X110296Y677581D01*
X110823Y678001D01*
X111393Y678360D01*
X112000Y678652D01*
X112636Y678875D01*
X113293Y679025D01*
X113963Y679100D01*
X114637Y679100D01*
X115307Y679025D01*
X115964Y678875D01*
X116600Y678652D01*
X117207Y678360D01*
X117778Y678001D01*
X118304Y677581D01*
X118781Y677104D01*
X119201Y676578D01*
X119560Y676007D01*
X119852Y675400D01*
X120075Y674764D01*
X120225Y674107D01*
X120300Y673437D01*
X120300Y672763D01*
X120225Y672093D01*
X120075Y671436D01*
X119852Y670800D01*
X119560Y670193D01*
X119201Y669623D01*
X118781Y669096D01*
X118304Y668619D01*
X117778Y668199D01*
X117207Y667840D01*
X116600Y667548D01*
X115964Y667325D01*
X115307Y667175D01*
X114637Y667100D01*
X113963Y667100D01*
X113293Y667175D01*
X112636Y667325D01*
X112000Y667548D01*
X111393Y667840D01*
X110823Y668199D01*
X110296Y668619D01*
X109819Y669096D01*
X109399Y669623D01*
X109040Y670193D01*
X108748Y670800D01*
X108525Y671436D01*
X108375Y672093D01*
X108300Y672763D01*
X108300Y673437D01*
X260700Y216237D02*
X260775Y216907D01*
X260925Y217564D01*
X261148Y218200D01*
X261440Y218807D01*
X261799Y219378D01*
X262219Y219904D01*
X262696Y220381D01*
X263223Y220801D01*
X263793Y221160D01*
X264400Y221452D01*
X265036Y221675D01*
X265693Y221825D01*
X266363Y221900D01*
X267037Y221900D01*
X267707Y221825D01*
X268364Y221675D01*
X269000Y221452D01*
X269607Y221160D01*
X270178Y220801D01*
X270704Y220381D01*
X271181Y219904D01*
X271601Y219378D01*
X271960Y218807D01*
X272252Y218200D01*
X272475Y217564D01*
X272625Y216907D01*
X272700Y216237D01*
X272700Y215563D01*
X272625Y214893D01*
X272475Y214236D01*
X272252Y213600D01*
X271960Y212993D01*
X271601Y212423D01*
X271181Y211896D01*
X270704Y211419D01*
X270178Y210999D01*
X269607Y210640D01*
X269000Y210348D01*
X268364Y210125D01*
X267707Y209975D01*
X267037Y209900D01*
X266363Y209900D01*
X265693Y209975D01*
X265036Y210125D01*
X264400Y210348D01*
X263793Y210640D01*
X263223Y210999D01*
X262696Y211419D01*
X262219Y211896D01*
X261799Y212423D01*
X261440Y212993D01*
X261148Y213600D01*
X260925Y214236D01*
X260775Y214893D01*
X260700Y215563D01*
X260700Y216237D01*
X108300Y216237D02*
X108375Y216907D01*
X108525Y217564D01*
X108748Y218200D01*
X109040Y218807D01*
X109399Y219378D01*
X109819Y219904D01*
X110296Y220381D01*
X110823Y220801D01*
X111393Y221160D01*
X112000Y221452D01*
X112636Y221675D01*
X113293Y221825D01*
X113963Y221900D01*
X114637Y221900D01*
X115307Y221825D01*
X115964Y221675D01*
X116600Y221452D01*
X117207Y221160D01*
X117778Y220801D01*
X118304Y220381D01*
X118781Y219904D01*
X119201Y219378D01*
X119560Y218807D01*
X119852Y218200D01*
X120075Y217564D01*
X120225Y216907D01*
X120300Y216237D01*
X120300Y215563D01*
X120225Y214893D01*
X120075Y214236D01*
X119852Y213600D01*
X119560Y212993D01*
X119201Y212423D01*
X118781Y211896D01*
X118304Y211419D01*
X117778Y210999D01*
X117207Y210640D01*
X116600Y210348D01*
X115964Y210125D01*
X115307Y209975D01*
X114637Y209900D01*
X113963Y209900D01*
X113293Y209975D01*
X112636Y210125D01*
X112000Y210348D01*
X111393Y210640D01*
X110823Y210999D01*
X110296Y211419D01*
X109819Y211896D01*
X109399Y212423D01*
X109040Y212993D01*
X108748Y213600D01*
X108525Y214236D01*
X108375Y214893D01*
X108300Y215563D01*
X108300Y216237D01*
M02*
