G04 EAGLE Gerber RS-274X export*
G75*
%MOMM*%
%FSLAX34Y34*%
%LPD*%
%INSilkscreen Top*%
%IPPOS*%
%AMOC8*
5,1,8,0,0,1.08239X$1,22.5*%
G01*
%ADD10C,0.152400*%
%ADD11C,0.203200*%
%ADD12R,1.275000X10.000000*%
%ADD13C,0.101600*%
%ADD14C,0.609600*%
%ADD15R,0.863600X0.609600*%
%ADD16C,0.127000*%
%ADD17C,0.500000*%
%ADD18C,0.120000*%
%ADD19C,1.200000*%


D10*
X781981Y239494D02*
X792819Y239494D01*
X787400Y244912D02*
X787400Y234075D01*
X781981Y341094D02*
X792819Y341094D01*
X787400Y346512D02*
X787400Y335675D01*
X781981Y442694D02*
X792819Y442694D01*
X787400Y448112D02*
X787400Y437275D01*
X781981Y137894D02*
X792819Y137894D01*
X787400Y143312D02*
X787400Y132475D01*
X789206Y185081D02*
X789206Y195919D01*
X789206Y286681D02*
X789206Y297519D01*
X789206Y388281D02*
X789206Y399119D01*
X789206Y489881D02*
X789206Y500719D01*
D11*
X683250Y446300D02*
X652750Y446300D01*
X652750Y544300D02*
X683250Y544300D01*
D12*
X646625Y495300D03*
D13*
X637667Y451429D02*
X625983Y451429D01*
X625983Y454674D02*
X625983Y448183D01*
X625983Y459255D02*
X637667Y459255D01*
X637667Y464447D01*
X637667Y469161D02*
X637667Y474353D01*
X637667Y469161D02*
X625983Y469161D01*
X625983Y474353D01*
X631176Y473055D02*
X631176Y469161D01*
X637667Y478663D02*
X637667Y482558D01*
X637665Y482657D01*
X637659Y482757D01*
X637650Y482856D01*
X637637Y482954D01*
X637620Y483052D01*
X637599Y483150D01*
X637574Y483246D01*
X637546Y483341D01*
X637514Y483435D01*
X637479Y483528D01*
X637440Y483620D01*
X637397Y483710D01*
X637352Y483798D01*
X637302Y483885D01*
X637250Y483969D01*
X637194Y484052D01*
X637136Y484132D01*
X637074Y484210D01*
X637009Y484285D01*
X636941Y484358D01*
X636871Y484428D01*
X636798Y484496D01*
X636723Y484561D01*
X636645Y484623D01*
X636565Y484681D01*
X636482Y484737D01*
X636398Y484789D01*
X636311Y484839D01*
X636223Y484884D01*
X636133Y484927D01*
X636041Y484966D01*
X635948Y485001D01*
X635854Y485033D01*
X635759Y485061D01*
X635663Y485086D01*
X635565Y485107D01*
X635467Y485124D01*
X635369Y485137D01*
X635270Y485146D01*
X635170Y485152D01*
X635071Y485154D01*
X633772Y485154D01*
X633673Y485152D01*
X633573Y485146D01*
X633474Y485137D01*
X633376Y485124D01*
X633278Y485107D01*
X633180Y485086D01*
X633084Y485061D01*
X632989Y485033D01*
X632895Y485001D01*
X632802Y484966D01*
X632710Y484927D01*
X632620Y484884D01*
X632532Y484839D01*
X632445Y484789D01*
X632361Y484737D01*
X632278Y484681D01*
X632198Y484623D01*
X632120Y484561D01*
X632045Y484496D01*
X631972Y484428D01*
X631902Y484358D01*
X631834Y484285D01*
X631769Y484210D01*
X631707Y484132D01*
X631649Y484052D01*
X631593Y483969D01*
X631541Y483885D01*
X631491Y483798D01*
X631446Y483710D01*
X631403Y483620D01*
X631364Y483528D01*
X631329Y483435D01*
X631297Y483341D01*
X631269Y483246D01*
X631244Y483150D01*
X631223Y483052D01*
X631206Y482954D01*
X631193Y482856D01*
X631184Y482757D01*
X631178Y482657D01*
X631176Y482558D01*
X631176Y478663D01*
X625983Y478663D01*
X625983Y485154D01*
X625983Y493663D02*
X625985Y493770D01*
X625991Y493876D01*
X626001Y493982D01*
X626014Y494088D01*
X626032Y494194D01*
X626053Y494298D01*
X626078Y494402D01*
X626107Y494505D01*
X626139Y494606D01*
X626176Y494706D01*
X626216Y494805D01*
X626259Y494903D01*
X626306Y494999D01*
X626357Y495093D01*
X626411Y495185D01*
X626468Y495275D01*
X626528Y495363D01*
X626592Y495448D01*
X626659Y495531D01*
X626729Y495612D01*
X626801Y495690D01*
X626877Y495766D01*
X626955Y495838D01*
X627036Y495908D01*
X627119Y495975D01*
X627204Y496039D01*
X627292Y496099D01*
X627382Y496156D01*
X627474Y496210D01*
X627568Y496261D01*
X627664Y496308D01*
X627762Y496351D01*
X627861Y496391D01*
X627961Y496428D01*
X628062Y496460D01*
X628165Y496489D01*
X628269Y496514D01*
X628373Y496535D01*
X628479Y496553D01*
X628585Y496566D01*
X628691Y496576D01*
X628797Y496582D01*
X628904Y496584D01*
X625983Y493663D02*
X625985Y493542D01*
X625991Y493421D01*
X626001Y493301D01*
X626014Y493180D01*
X626032Y493061D01*
X626053Y492941D01*
X626078Y492823D01*
X626107Y492706D01*
X626140Y492589D01*
X626176Y492474D01*
X626217Y492360D01*
X626260Y492247D01*
X626308Y492135D01*
X626359Y492026D01*
X626414Y491918D01*
X626472Y491811D01*
X626533Y491707D01*
X626598Y491605D01*
X626666Y491505D01*
X626737Y491407D01*
X626811Y491311D01*
X626888Y491218D01*
X626969Y491128D01*
X627052Y491040D01*
X627138Y490955D01*
X627227Y490872D01*
X627318Y490793D01*
X627412Y490716D01*
X627508Y490643D01*
X627606Y490573D01*
X627707Y490506D01*
X627810Y490442D01*
X627915Y490382D01*
X628022Y490324D01*
X628130Y490271D01*
X628240Y490221D01*
X628352Y490175D01*
X628465Y490132D01*
X628580Y490093D01*
X631176Y495610D02*
X631098Y495689D01*
X631018Y495765D01*
X630935Y495838D01*
X630849Y495908D01*
X630762Y495975D01*
X630671Y496039D01*
X630579Y496099D01*
X630485Y496157D01*
X630388Y496211D01*
X630290Y496261D01*
X630190Y496308D01*
X630089Y496352D01*
X629986Y496392D01*
X629881Y496428D01*
X629776Y496460D01*
X629669Y496489D01*
X629562Y496514D01*
X629453Y496536D01*
X629344Y496553D01*
X629235Y496567D01*
X629125Y496576D01*
X629014Y496582D01*
X628904Y496584D01*
X631176Y495610D02*
X637667Y490093D01*
X637667Y496584D01*
X631825Y501523D02*
X631595Y501526D01*
X631365Y501534D01*
X631136Y501548D01*
X630907Y501567D01*
X630678Y501592D01*
X630450Y501622D01*
X630223Y501657D01*
X629997Y501698D01*
X629772Y501744D01*
X629548Y501796D01*
X629325Y501853D01*
X629104Y501915D01*
X628884Y501983D01*
X628666Y502056D01*
X628450Y502134D01*
X628236Y502217D01*
X628024Y502305D01*
X627813Y502398D01*
X627606Y502497D01*
X627606Y502496D02*
X627516Y502529D01*
X627427Y502565D01*
X627339Y502605D01*
X627254Y502649D01*
X627170Y502696D01*
X627088Y502746D01*
X627008Y502800D01*
X626931Y502856D01*
X626855Y502916D01*
X626782Y502979D01*
X626712Y503044D01*
X626644Y503113D01*
X626580Y503184D01*
X626518Y503257D01*
X626459Y503333D01*
X626403Y503411D01*
X626350Y503492D01*
X626301Y503574D01*
X626255Y503658D01*
X626212Y503745D01*
X626173Y503832D01*
X626137Y503922D01*
X626105Y504012D01*
X626077Y504104D01*
X626052Y504197D01*
X626031Y504291D01*
X626014Y504385D01*
X626000Y504480D01*
X625991Y504576D01*
X625985Y504672D01*
X625983Y504768D01*
X625985Y504864D01*
X625991Y504960D01*
X626000Y505056D01*
X626014Y505151D01*
X626031Y505245D01*
X626052Y505339D01*
X626077Y505432D01*
X626105Y505524D01*
X626137Y505614D01*
X626173Y505704D01*
X626212Y505792D01*
X626255Y505878D01*
X626301Y505962D01*
X626350Y506044D01*
X626403Y506125D01*
X626459Y506203D01*
X626518Y506279D01*
X626580Y506352D01*
X626644Y506423D01*
X626712Y506492D01*
X626782Y506557D01*
X626855Y506620D01*
X626931Y506680D01*
X627008Y506736D01*
X627088Y506790D01*
X627170Y506840D01*
X627254Y506887D01*
X627339Y506931D01*
X627427Y506971D01*
X627516Y507007D01*
X627606Y507040D01*
X627813Y507139D01*
X628024Y507232D01*
X628236Y507320D01*
X628450Y507403D01*
X628666Y507481D01*
X628884Y507554D01*
X629104Y507622D01*
X629325Y507684D01*
X629548Y507741D01*
X629772Y507793D01*
X629997Y507839D01*
X630223Y507880D01*
X630450Y507915D01*
X630678Y507945D01*
X630907Y507970D01*
X631136Y507989D01*
X631365Y508003D01*
X631595Y508011D01*
X631825Y508014D01*
X631825Y501523D02*
X632055Y501526D01*
X632285Y501534D01*
X632514Y501548D01*
X632743Y501567D01*
X632972Y501592D01*
X633200Y501622D01*
X633427Y501657D01*
X633653Y501698D01*
X633878Y501744D01*
X634102Y501796D01*
X634325Y501853D01*
X634546Y501915D01*
X634766Y501983D01*
X634984Y502056D01*
X635200Y502134D01*
X635414Y502217D01*
X635626Y502305D01*
X635837Y502398D01*
X636044Y502497D01*
X636044Y502496D02*
X636134Y502529D01*
X636223Y502565D01*
X636311Y502606D01*
X636396Y502649D01*
X636480Y502696D01*
X636562Y502746D01*
X636642Y502800D01*
X636719Y502856D01*
X636795Y502916D01*
X636868Y502979D01*
X636938Y503044D01*
X637006Y503113D01*
X637070Y503184D01*
X637132Y503257D01*
X637191Y503333D01*
X637247Y503411D01*
X637300Y503492D01*
X637349Y503574D01*
X637395Y503658D01*
X637438Y503745D01*
X637477Y503832D01*
X637513Y503922D01*
X637545Y504012D01*
X637573Y504104D01*
X637598Y504197D01*
X637619Y504291D01*
X637636Y504385D01*
X637650Y504480D01*
X637659Y504576D01*
X637665Y504672D01*
X637667Y504768D01*
X636044Y507040D02*
X635837Y507139D01*
X635626Y507232D01*
X635414Y507320D01*
X635200Y507403D01*
X634984Y507481D01*
X634766Y507554D01*
X634546Y507622D01*
X634325Y507684D01*
X634102Y507741D01*
X633878Y507793D01*
X633653Y507839D01*
X633427Y507880D01*
X633200Y507915D01*
X632972Y507945D01*
X632743Y507970D01*
X632514Y507989D01*
X632285Y508003D01*
X632055Y508011D01*
X631825Y508014D01*
X636044Y507040D02*
X636134Y507007D01*
X636223Y506971D01*
X636311Y506931D01*
X636396Y506887D01*
X636480Y506840D01*
X636562Y506790D01*
X636642Y506736D01*
X636719Y506680D01*
X636795Y506620D01*
X636868Y506557D01*
X636938Y506492D01*
X637006Y506423D01*
X637070Y506352D01*
X637132Y506279D01*
X637191Y506203D01*
X637247Y506125D01*
X637300Y506044D01*
X637349Y505962D01*
X637395Y505878D01*
X637438Y505791D01*
X637477Y505704D01*
X637513Y505614D01*
X637545Y505524D01*
X637573Y505432D01*
X637598Y505339D01*
X637619Y505245D01*
X637636Y505151D01*
X637650Y505056D01*
X637659Y504960D01*
X637665Y504864D01*
X637667Y504768D01*
X635071Y502172D02*
X628579Y507365D01*
X637667Y512953D02*
X637667Y516848D01*
X637665Y516947D01*
X637659Y517047D01*
X637650Y517146D01*
X637637Y517244D01*
X637620Y517342D01*
X637599Y517440D01*
X637574Y517536D01*
X637546Y517631D01*
X637514Y517725D01*
X637479Y517818D01*
X637440Y517910D01*
X637397Y518000D01*
X637352Y518088D01*
X637302Y518175D01*
X637250Y518259D01*
X637194Y518342D01*
X637136Y518422D01*
X637074Y518500D01*
X637009Y518575D01*
X636941Y518648D01*
X636871Y518718D01*
X636798Y518786D01*
X636723Y518851D01*
X636645Y518913D01*
X636565Y518971D01*
X636482Y519027D01*
X636398Y519079D01*
X636311Y519129D01*
X636223Y519174D01*
X636133Y519217D01*
X636041Y519256D01*
X635948Y519291D01*
X635854Y519323D01*
X635759Y519351D01*
X635663Y519376D01*
X635565Y519397D01*
X635467Y519414D01*
X635369Y519427D01*
X635270Y519436D01*
X635170Y519442D01*
X635071Y519444D01*
X633772Y519444D01*
X633673Y519442D01*
X633573Y519436D01*
X633474Y519427D01*
X633376Y519414D01*
X633278Y519397D01*
X633180Y519376D01*
X633084Y519351D01*
X632989Y519323D01*
X632895Y519291D01*
X632802Y519256D01*
X632710Y519217D01*
X632620Y519174D01*
X632532Y519129D01*
X632445Y519079D01*
X632361Y519027D01*
X632278Y518971D01*
X632198Y518913D01*
X632120Y518851D01*
X632045Y518786D01*
X631972Y518718D01*
X631902Y518648D01*
X631834Y518575D01*
X631769Y518500D01*
X631707Y518422D01*
X631649Y518342D01*
X631593Y518259D01*
X631541Y518175D01*
X631491Y518088D01*
X631446Y518000D01*
X631403Y517910D01*
X631364Y517818D01*
X631329Y517725D01*
X631297Y517631D01*
X631269Y517536D01*
X631244Y517440D01*
X631223Y517342D01*
X631206Y517244D01*
X631193Y517146D01*
X631184Y517047D01*
X631178Y516947D01*
X631176Y516848D01*
X631176Y512953D01*
X625983Y512953D01*
X625983Y519444D01*
D10*
X485140Y481330D02*
X485040Y481328D01*
X484941Y481322D01*
X484841Y481312D01*
X484743Y481299D01*
X484644Y481281D01*
X484547Y481260D01*
X484451Y481235D01*
X484355Y481206D01*
X484261Y481173D01*
X484168Y481137D01*
X484077Y481097D01*
X483987Y481053D01*
X483899Y481006D01*
X483813Y480956D01*
X483729Y480902D01*
X483647Y480845D01*
X483568Y480785D01*
X483490Y480721D01*
X483416Y480655D01*
X483344Y480586D01*
X483275Y480514D01*
X483209Y480440D01*
X483145Y480362D01*
X483085Y480283D01*
X483028Y480201D01*
X482974Y480117D01*
X482924Y480031D01*
X482877Y479943D01*
X482833Y479853D01*
X482793Y479762D01*
X482757Y479669D01*
X482724Y479575D01*
X482695Y479479D01*
X482670Y479383D01*
X482649Y479286D01*
X482631Y479187D01*
X482618Y479089D01*
X482608Y478989D01*
X482602Y478890D01*
X482600Y478790D01*
X482600Y461010D02*
X482602Y460910D01*
X482608Y460811D01*
X482618Y460711D01*
X482631Y460613D01*
X482649Y460514D01*
X482670Y460417D01*
X482695Y460321D01*
X482724Y460225D01*
X482757Y460131D01*
X482793Y460038D01*
X482833Y459947D01*
X482877Y459857D01*
X482924Y459769D01*
X482974Y459683D01*
X483028Y459599D01*
X483085Y459517D01*
X483145Y459438D01*
X483209Y459360D01*
X483275Y459286D01*
X483344Y459214D01*
X483416Y459145D01*
X483490Y459079D01*
X483568Y459015D01*
X483647Y458955D01*
X483729Y458898D01*
X483813Y458844D01*
X483899Y458794D01*
X483987Y458747D01*
X484077Y458703D01*
X484168Y458663D01*
X484261Y458627D01*
X484355Y458594D01*
X484451Y458565D01*
X484547Y458540D01*
X484644Y458519D01*
X484743Y458501D01*
X484841Y458488D01*
X484941Y458478D01*
X485040Y458472D01*
X485140Y458470D01*
X543560Y458470D02*
X543660Y458472D01*
X543759Y458478D01*
X543859Y458488D01*
X543957Y458501D01*
X544056Y458519D01*
X544153Y458540D01*
X544249Y458565D01*
X544345Y458594D01*
X544439Y458627D01*
X544532Y458663D01*
X544623Y458703D01*
X544713Y458747D01*
X544801Y458794D01*
X544887Y458844D01*
X544971Y458898D01*
X545053Y458955D01*
X545132Y459015D01*
X545210Y459079D01*
X545284Y459145D01*
X545356Y459214D01*
X545425Y459286D01*
X545491Y459360D01*
X545555Y459438D01*
X545615Y459517D01*
X545672Y459599D01*
X545726Y459683D01*
X545776Y459769D01*
X545823Y459857D01*
X545867Y459947D01*
X545907Y460038D01*
X545943Y460131D01*
X545976Y460225D01*
X546005Y460321D01*
X546030Y460417D01*
X546051Y460514D01*
X546069Y460613D01*
X546082Y460711D01*
X546092Y460811D01*
X546098Y460910D01*
X546100Y461010D01*
X546100Y478790D02*
X546098Y478890D01*
X546092Y478989D01*
X546082Y479089D01*
X546069Y479187D01*
X546051Y479286D01*
X546030Y479383D01*
X546005Y479479D01*
X545976Y479575D01*
X545943Y479669D01*
X545907Y479762D01*
X545867Y479853D01*
X545823Y479943D01*
X545776Y480031D01*
X545726Y480117D01*
X545672Y480201D01*
X545615Y480283D01*
X545555Y480362D01*
X545491Y480440D01*
X545425Y480514D01*
X545356Y480586D01*
X545284Y480655D01*
X545210Y480721D01*
X545132Y480785D01*
X545053Y480845D01*
X544971Y480902D01*
X544887Y480956D01*
X544801Y481006D01*
X544713Y481053D01*
X544623Y481097D01*
X544532Y481137D01*
X544439Y481173D01*
X544345Y481206D01*
X544249Y481235D01*
X544153Y481260D01*
X544056Y481281D01*
X543957Y481299D01*
X543859Y481312D01*
X543759Y481322D01*
X543660Y481328D01*
X543560Y481330D01*
X482600Y478790D02*
X482600Y461010D01*
X485140Y481330D02*
X488950Y481330D01*
X490220Y480060D01*
X488950Y458470D02*
X485140Y458470D01*
X488950Y458470D02*
X490220Y459740D01*
X538480Y480060D02*
X539750Y481330D01*
X538480Y480060D02*
X490220Y480060D01*
X538480Y459740D02*
X539750Y458470D01*
X538480Y459740D02*
X490220Y459740D01*
X539750Y481330D02*
X543560Y481330D01*
X543560Y458470D02*
X539750Y458470D01*
X546100Y461010D02*
X546100Y478790D01*
D14*
X554990Y469900D02*
X558800Y469900D01*
X473710Y469900D02*
X469900Y469900D01*
D15*
X550418Y469900D03*
X478282Y469900D03*
X563118Y469900D03*
X465582Y469900D03*
D16*
X483235Y484505D02*
X483235Y495935D01*
X486410Y495935D01*
X486521Y495933D01*
X486631Y495927D01*
X486742Y495918D01*
X486852Y495904D01*
X486961Y495887D01*
X487070Y495866D01*
X487178Y495841D01*
X487285Y495812D01*
X487391Y495780D01*
X487496Y495744D01*
X487599Y495704D01*
X487701Y495661D01*
X487802Y495614D01*
X487901Y495563D01*
X487998Y495510D01*
X488092Y495453D01*
X488185Y495392D01*
X488276Y495329D01*
X488365Y495262D01*
X488451Y495192D01*
X488534Y495119D01*
X488616Y495044D01*
X488694Y494966D01*
X488769Y494884D01*
X488842Y494801D01*
X488912Y494715D01*
X488979Y494626D01*
X489042Y494535D01*
X489103Y494442D01*
X489160Y494347D01*
X489213Y494251D01*
X489264Y494152D01*
X489311Y494051D01*
X489354Y493949D01*
X489394Y493846D01*
X489430Y493741D01*
X489462Y493635D01*
X489491Y493528D01*
X489516Y493420D01*
X489537Y493311D01*
X489554Y493202D01*
X489568Y493092D01*
X489577Y492981D01*
X489583Y492871D01*
X489585Y492760D01*
X489583Y492649D01*
X489577Y492539D01*
X489568Y492428D01*
X489554Y492318D01*
X489537Y492209D01*
X489516Y492100D01*
X489491Y491992D01*
X489462Y491885D01*
X489430Y491779D01*
X489394Y491674D01*
X489354Y491571D01*
X489311Y491469D01*
X489264Y491368D01*
X489213Y491269D01*
X489160Y491172D01*
X489103Y491078D01*
X489042Y490985D01*
X488979Y490894D01*
X488912Y490805D01*
X488842Y490719D01*
X488769Y490636D01*
X488694Y490554D01*
X488616Y490476D01*
X488534Y490401D01*
X488451Y490328D01*
X488365Y490258D01*
X488276Y490191D01*
X488185Y490128D01*
X488092Y490067D01*
X487998Y490010D01*
X487901Y489957D01*
X487802Y489906D01*
X487701Y489859D01*
X487599Y489816D01*
X487496Y489776D01*
X487391Y489740D01*
X487285Y489708D01*
X487178Y489679D01*
X487070Y489654D01*
X486961Y489633D01*
X486852Y489616D01*
X486742Y489602D01*
X486631Y489593D01*
X486521Y489587D01*
X486410Y489585D01*
X483235Y489585D01*
X487045Y489585D02*
X489585Y484505D01*
X494582Y494665D02*
X494582Y495935D01*
X500932Y495935D01*
X497757Y484505D01*
D10*
X482600Y529590D02*
X482602Y529690D01*
X482608Y529789D01*
X482618Y529889D01*
X482631Y529987D01*
X482649Y530086D01*
X482670Y530183D01*
X482695Y530279D01*
X482724Y530375D01*
X482757Y530469D01*
X482793Y530562D01*
X482833Y530653D01*
X482877Y530743D01*
X482924Y530831D01*
X482974Y530917D01*
X483028Y531001D01*
X483085Y531083D01*
X483145Y531162D01*
X483209Y531240D01*
X483275Y531314D01*
X483344Y531386D01*
X483416Y531455D01*
X483490Y531521D01*
X483568Y531585D01*
X483647Y531645D01*
X483729Y531702D01*
X483813Y531756D01*
X483899Y531806D01*
X483987Y531853D01*
X484077Y531897D01*
X484168Y531937D01*
X484261Y531973D01*
X484355Y532006D01*
X484451Y532035D01*
X484547Y532060D01*
X484644Y532081D01*
X484743Y532099D01*
X484841Y532112D01*
X484941Y532122D01*
X485040Y532128D01*
X485140Y532130D01*
X482600Y511810D02*
X482602Y511710D01*
X482608Y511611D01*
X482618Y511511D01*
X482631Y511413D01*
X482649Y511314D01*
X482670Y511217D01*
X482695Y511121D01*
X482724Y511025D01*
X482757Y510931D01*
X482793Y510838D01*
X482833Y510747D01*
X482877Y510657D01*
X482924Y510569D01*
X482974Y510483D01*
X483028Y510399D01*
X483085Y510317D01*
X483145Y510238D01*
X483209Y510160D01*
X483275Y510086D01*
X483344Y510014D01*
X483416Y509945D01*
X483490Y509879D01*
X483568Y509815D01*
X483647Y509755D01*
X483729Y509698D01*
X483813Y509644D01*
X483899Y509594D01*
X483987Y509547D01*
X484077Y509503D01*
X484168Y509463D01*
X484261Y509427D01*
X484355Y509394D01*
X484451Y509365D01*
X484547Y509340D01*
X484644Y509319D01*
X484743Y509301D01*
X484841Y509288D01*
X484941Y509278D01*
X485040Y509272D01*
X485140Y509270D01*
X543560Y509270D02*
X543660Y509272D01*
X543759Y509278D01*
X543859Y509288D01*
X543957Y509301D01*
X544056Y509319D01*
X544153Y509340D01*
X544249Y509365D01*
X544345Y509394D01*
X544439Y509427D01*
X544532Y509463D01*
X544623Y509503D01*
X544713Y509547D01*
X544801Y509594D01*
X544887Y509644D01*
X544971Y509698D01*
X545053Y509755D01*
X545132Y509815D01*
X545210Y509879D01*
X545284Y509945D01*
X545356Y510014D01*
X545425Y510086D01*
X545491Y510160D01*
X545555Y510238D01*
X545615Y510317D01*
X545672Y510399D01*
X545726Y510483D01*
X545776Y510569D01*
X545823Y510657D01*
X545867Y510747D01*
X545907Y510838D01*
X545943Y510931D01*
X545976Y511025D01*
X546005Y511121D01*
X546030Y511217D01*
X546051Y511314D01*
X546069Y511413D01*
X546082Y511511D01*
X546092Y511611D01*
X546098Y511710D01*
X546100Y511810D01*
X546100Y529590D02*
X546098Y529690D01*
X546092Y529789D01*
X546082Y529889D01*
X546069Y529987D01*
X546051Y530086D01*
X546030Y530183D01*
X546005Y530279D01*
X545976Y530375D01*
X545943Y530469D01*
X545907Y530562D01*
X545867Y530653D01*
X545823Y530743D01*
X545776Y530831D01*
X545726Y530917D01*
X545672Y531001D01*
X545615Y531083D01*
X545555Y531162D01*
X545491Y531240D01*
X545425Y531314D01*
X545356Y531386D01*
X545284Y531455D01*
X545210Y531521D01*
X545132Y531585D01*
X545053Y531645D01*
X544971Y531702D01*
X544887Y531756D01*
X544801Y531806D01*
X544713Y531853D01*
X544623Y531897D01*
X544532Y531937D01*
X544439Y531973D01*
X544345Y532006D01*
X544249Y532035D01*
X544153Y532060D01*
X544056Y532081D01*
X543957Y532099D01*
X543859Y532112D01*
X543759Y532122D01*
X543660Y532128D01*
X543560Y532130D01*
X482600Y529590D02*
X482600Y511810D01*
X485140Y532130D02*
X488950Y532130D01*
X490220Y530860D01*
X488950Y509270D02*
X485140Y509270D01*
X488950Y509270D02*
X490220Y510540D01*
X538480Y530860D02*
X539750Y532130D01*
X538480Y530860D02*
X490220Y530860D01*
X538480Y510540D02*
X539750Y509270D01*
X538480Y510540D02*
X490220Y510540D01*
X539750Y532130D02*
X543560Y532130D01*
X543560Y509270D02*
X539750Y509270D01*
X546100Y511810D02*
X546100Y529590D01*
D14*
X554990Y520700D02*
X558800Y520700D01*
X473710Y520700D02*
X469900Y520700D01*
D15*
X550418Y520700D03*
X478282Y520700D03*
X563118Y520700D03*
X465582Y520700D03*
D16*
X483235Y535305D02*
X483235Y546735D01*
X486410Y546735D01*
X486521Y546733D01*
X486631Y546727D01*
X486742Y546718D01*
X486852Y546704D01*
X486961Y546687D01*
X487070Y546666D01*
X487178Y546641D01*
X487285Y546612D01*
X487391Y546580D01*
X487496Y546544D01*
X487599Y546504D01*
X487701Y546461D01*
X487802Y546414D01*
X487901Y546363D01*
X487998Y546310D01*
X488092Y546253D01*
X488185Y546192D01*
X488276Y546129D01*
X488365Y546062D01*
X488451Y545992D01*
X488534Y545919D01*
X488616Y545844D01*
X488694Y545766D01*
X488769Y545684D01*
X488842Y545601D01*
X488912Y545515D01*
X488979Y545426D01*
X489042Y545335D01*
X489103Y545242D01*
X489160Y545147D01*
X489213Y545051D01*
X489264Y544952D01*
X489311Y544851D01*
X489354Y544749D01*
X489394Y544646D01*
X489430Y544541D01*
X489462Y544435D01*
X489491Y544328D01*
X489516Y544220D01*
X489537Y544111D01*
X489554Y544002D01*
X489568Y543892D01*
X489577Y543781D01*
X489583Y543671D01*
X489585Y543560D01*
X489583Y543449D01*
X489577Y543339D01*
X489568Y543228D01*
X489554Y543118D01*
X489537Y543009D01*
X489516Y542900D01*
X489491Y542792D01*
X489462Y542685D01*
X489430Y542579D01*
X489394Y542474D01*
X489354Y542371D01*
X489311Y542269D01*
X489264Y542168D01*
X489213Y542069D01*
X489160Y541973D01*
X489103Y541878D01*
X489042Y541785D01*
X488979Y541694D01*
X488912Y541605D01*
X488842Y541519D01*
X488769Y541436D01*
X488694Y541354D01*
X488616Y541276D01*
X488534Y541201D01*
X488451Y541128D01*
X488365Y541058D01*
X488276Y540991D01*
X488185Y540928D01*
X488092Y540867D01*
X487998Y540810D01*
X487901Y540757D01*
X487802Y540706D01*
X487701Y540659D01*
X487599Y540616D01*
X487496Y540576D01*
X487391Y540540D01*
X487285Y540508D01*
X487178Y540479D01*
X487070Y540454D01*
X486961Y540433D01*
X486852Y540416D01*
X486742Y540402D01*
X486631Y540393D01*
X486521Y540387D01*
X486410Y540385D01*
X483235Y540385D01*
X487045Y540385D02*
X489585Y535305D01*
X494582Y538480D02*
X494584Y538591D01*
X494590Y538701D01*
X494599Y538812D01*
X494613Y538922D01*
X494630Y539031D01*
X494651Y539140D01*
X494676Y539248D01*
X494705Y539355D01*
X494737Y539461D01*
X494773Y539566D01*
X494813Y539669D01*
X494856Y539771D01*
X494903Y539872D01*
X494954Y539971D01*
X495007Y540068D01*
X495064Y540162D01*
X495125Y540255D01*
X495188Y540346D01*
X495255Y540435D01*
X495325Y540521D01*
X495398Y540604D01*
X495473Y540686D01*
X495551Y540764D01*
X495633Y540839D01*
X495716Y540912D01*
X495802Y540982D01*
X495891Y541049D01*
X495982Y541112D01*
X496075Y541173D01*
X496170Y541230D01*
X496266Y541283D01*
X496365Y541334D01*
X496466Y541381D01*
X496568Y541424D01*
X496671Y541464D01*
X496776Y541500D01*
X496882Y541532D01*
X496989Y541561D01*
X497097Y541586D01*
X497206Y541607D01*
X497315Y541624D01*
X497425Y541638D01*
X497536Y541647D01*
X497646Y541653D01*
X497757Y541655D01*
X497868Y541653D01*
X497978Y541647D01*
X498089Y541638D01*
X498199Y541624D01*
X498308Y541607D01*
X498417Y541586D01*
X498525Y541561D01*
X498632Y541532D01*
X498738Y541500D01*
X498843Y541464D01*
X498946Y541424D01*
X499048Y541381D01*
X499149Y541334D01*
X499248Y541283D01*
X499345Y541230D01*
X499439Y541173D01*
X499532Y541112D01*
X499623Y541049D01*
X499712Y540982D01*
X499798Y540912D01*
X499881Y540839D01*
X499963Y540764D01*
X500041Y540686D01*
X500116Y540604D01*
X500189Y540521D01*
X500259Y540435D01*
X500326Y540346D01*
X500389Y540255D01*
X500450Y540162D01*
X500507Y540068D01*
X500560Y539971D01*
X500611Y539872D01*
X500658Y539771D01*
X500701Y539669D01*
X500741Y539566D01*
X500777Y539461D01*
X500809Y539355D01*
X500838Y539248D01*
X500863Y539140D01*
X500884Y539031D01*
X500901Y538922D01*
X500915Y538812D01*
X500924Y538701D01*
X500930Y538591D01*
X500932Y538480D01*
X500930Y538369D01*
X500924Y538259D01*
X500915Y538148D01*
X500901Y538038D01*
X500884Y537929D01*
X500863Y537820D01*
X500838Y537712D01*
X500809Y537605D01*
X500777Y537499D01*
X500741Y537394D01*
X500701Y537291D01*
X500658Y537189D01*
X500611Y537088D01*
X500560Y536989D01*
X500507Y536893D01*
X500450Y536798D01*
X500389Y536705D01*
X500326Y536614D01*
X500259Y536525D01*
X500189Y536439D01*
X500116Y536356D01*
X500041Y536274D01*
X499963Y536196D01*
X499881Y536121D01*
X499798Y536048D01*
X499712Y535978D01*
X499623Y535911D01*
X499532Y535848D01*
X499439Y535787D01*
X499344Y535730D01*
X499248Y535677D01*
X499149Y535626D01*
X499048Y535579D01*
X498946Y535536D01*
X498843Y535496D01*
X498738Y535460D01*
X498632Y535428D01*
X498525Y535399D01*
X498417Y535374D01*
X498308Y535353D01*
X498199Y535336D01*
X498089Y535322D01*
X497978Y535313D01*
X497868Y535307D01*
X497757Y535305D01*
X497646Y535307D01*
X497536Y535313D01*
X497425Y535322D01*
X497315Y535336D01*
X497206Y535353D01*
X497097Y535374D01*
X496989Y535399D01*
X496882Y535428D01*
X496776Y535460D01*
X496671Y535496D01*
X496568Y535536D01*
X496466Y535579D01*
X496365Y535626D01*
X496266Y535677D01*
X496170Y535730D01*
X496075Y535787D01*
X495982Y535848D01*
X495891Y535911D01*
X495802Y535978D01*
X495716Y536048D01*
X495633Y536121D01*
X495551Y536196D01*
X495473Y536274D01*
X495398Y536356D01*
X495325Y536439D01*
X495255Y536525D01*
X495188Y536614D01*
X495125Y536705D01*
X495064Y536798D01*
X495007Y536893D01*
X494954Y536989D01*
X494903Y537088D01*
X494856Y537189D01*
X494813Y537291D01*
X494773Y537394D01*
X494737Y537499D01*
X494705Y537605D01*
X494676Y537712D01*
X494651Y537820D01*
X494630Y537929D01*
X494613Y538038D01*
X494599Y538148D01*
X494590Y538259D01*
X494584Y538369D01*
X494582Y538480D01*
X495217Y544195D02*
X495219Y544295D01*
X495225Y544394D01*
X495235Y544494D01*
X495248Y544592D01*
X495266Y544691D01*
X495287Y544788D01*
X495312Y544884D01*
X495341Y544980D01*
X495374Y545074D01*
X495410Y545167D01*
X495450Y545258D01*
X495494Y545348D01*
X495541Y545436D01*
X495591Y545522D01*
X495645Y545606D01*
X495702Y545688D01*
X495762Y545767D01*
X495826Y545845D01*
X495892Y545919D01*
X495961Y545991D01*
X496033Y546060D01*
X496107Y546126D01*
X496185Y546190D01*
X496264Y546250D01*
X496346Y546307D01*
X496430Y546361D01*
X496516Y546411D01*
X496604Y546458D01*
X496694Y546502D01*
X496785Y546542D01*
X496878Y546578D01*
X496972Y546611D01*
X497068Y546640D01*
X497164Y546665D01*
X497261Y546686D01*
X497360Y546704D01*
X497458Y546717D01*
X497558Y546727D01*
X497657Y546733D01*
X497757Y546735D01*
X497857Y546733D01*
X497956Y546727D01*
X498056Y546717D01*
X498154Y546704D01*
X498253Y546686D01*
X498350Y546665D01*
X498446Y546640D01*
X498542Y546611D01*
X498636Y546578D01*
X498729Y546542D01*
X498820Y546502D01*
X498910Y546458D01*
X498998Y546411D01*
X499084Y546361D01*
X499168Y546307D01*
X499250Y546250D01*
X499329Y546190D01*
X499407Y546126D01*
X499481Y546060D01*
X499553Y545991D01*
X499622Y545919D01*
X499688Y545845D01*
X499752Y545767D01*
X499812Y545688D01*
X499869Y545606D01*
X499923Y545522D01*
X499973Y545436D01*
X500020Y545348D01*
X500064Y545258D01*
X500104Y545167D01*
X500140Y545074D01*
X500173Y544980D01*
X500202Y544884D01*
X500227Y544788D01*
X500248Y544691D01*
X500266Y544592D01*
X500279Y544494D01*
X500289Y544394D01*
X500295Y544295D01*
X500297Y544195D01*
X500295Y544095D01*
X500289Y543996D01*
X500279Y543896D01*
X500266Y543798D01*
X500248Y543699D01*
X500227Y543602D01*
X500202Y543506D01*
X500173Y543410D01*
X500140Y543316D01*
X500104Y543223D01*
X500064Y543132D01*
X500020Y543042D01*
X499973Y542954D01*
X499923Y542868D01*
X499869Y542784D01*
X499812Y542702D01*
X499752Y542623D01*
X499688Y542545D01*
X499622Y542471D01*
X499553Y542399D01*
X499481Y542330D01*
X499407Y542264D01*
X499329Y542200D01*
X499250Y542140D01*
X499168Y542083D01*
X499084Y542029D01*
X498998Y541979D01*
X498910Y541932D01*
X498820Y541888D01*
X498729Y541848D01*
X498636Y541812D01*
X498542Y541779D01*
X498446Y541750D01*
X498350Y541725D01*
X498253Y541704D01*
X498154Y541686D01*
X498056Y541673D01*
X497956Y541663D01*
X497857Y541657D01*
X497757Y541655D01*
X497657Y541657D01*
X497558Y541663D01*
X497458Y541673D01*
X497360Y541686D01*
X497261Y541704D01*
X497164Y541725D01*
X497068Y541750D01*
X496972Y541779D01*
X496878Y541812D01*
X496785Y541848D01*
X496694Y541888D01*
X496604Y541932D01*
X496516Y541979D01*
X496430Y542029D01*
X496346Y542083D01*
X496264Y542140D01*
X496185Y542200D01*
X496107Y542264D01*
X496033Y542330D01*
X495961Y542399D01*
X495892Y542471D01*
X495826Y542545D01*
X495762Y542623D01*
X495702Y542702D01*
X495645Y542784D01*
X495591Y542868D01*
X495541Y542954D01*
X495494Y543042D01*
X495450Y543132D01*
X495410Y543223D01*
X495374Y543316D01*
X495341Y543410D01*
X495312Y543506D01*
X495287Y543602D01*
X495266Y543699D01*
X495248Y543798D01*
X495235Y543896D01*
X495225Y543996D01*
X495219Y544095D01*
X495217Y544195D01*
D11*
X895317Y518900D02*
X895317Y420900D01*
X899840Y420900D02*
X899840Y518900D01*
X854380Y518900D02*
X854380Y420900D01*
X849515Y420900D02*
X849515Y518900D01*
X815781Y494900D02*
X815788Y494302D01*
X815810Y493705D01*
X815847Y493109D01*
X815898Y492514D01*
X815964Y491920D01*
X816044Y491328D01*
X816139Y490739D01*
X816140Y490739D02*
X816234Y490233D01*
X816338Y489730D01*
X816454Y489229D01*
X816581Y488731D01*
X816718Y488236D01*
X816867Y487744D01*
X817026Y487255D01*
X817196Y486770D01*
X817374Y486300D01*
X817562Y485834D01*
X817761Y485372D01*
X817971Y484915D01*
X818191Y484463D01*
X818421Y484017D01*
X818662Y483575D01*
X818913Y483140D01*
X819136Y482773D01*
X819367Y482412D01*
X819606Y482056D01*
X819853Y481706D01*
X820108Y481360D01*
X820370Y481021D01*
X820639Y480687D01*
X820916Y480360D01*
X821200Y480038D01*
X821200Y480039D02*
X821481Y479737D01*
X821769Y479441D01*
X822064Y479153D01*
X822366Y478872D01*
X822675Y478598D01*
X822990Y478331D01*
X823312Y478073D01*
X823639Y477822D01*
X823973Y477579D01*
X824281Y477368D01*
X824593Y477164D01*
X824911Y476967D01*
X825233Y476779D01*
X825559Y476598D01*
X825890Y476425D01*
X826225Y476261D01*
X826564Y476104D01*
X826564Y476105D02*
X826860Y475977D01*
X827159Y475856D01*
X827460Y475742D01*
X827764Y475635D01*
X828071Y475535D01*
X828379Y475442D01*
X828690Y475356D01*
X829002Y475277D01*
X829316Y475205D01*
X829629Y475141D01*
X829942Y475085D01*
X830258Y475036D01*
X830574Y474995D01*
X830891Y474961D01*
X831208Y474934D01*
X831527Y474915D01*
X831845Y474904D01*
X832164Y474900D01*
X829316Y514595D02*
X829628Y514659D01*
X829942Y514715D01*
X830257Y514764D01*
X830573Y514805D01*
X830891Y514839D01*
X831208Y514866D01*
X831527Y514885D01*
X831845Y514896D01*
X832164Y514900D01*
X829316Y514595D02*
X829002Y514523D01*
X828689Y514444D01*
X828379Y514358D01*
X828070Y514265D01*
X827764Y514165D01*
X827460Y514058D01*
X827159Y513943D01*
X826860Y513822D01*
X826564Y513695D01*
X826563Y513695D02*
X826262Y513557D01*
X825963Y513412D01*
X825668Y513261D01*
X825376Y513103D01*
X825088Y512939D01*
X824803Y512769D01*
X824522Y512593D01*
X824245Y512410D01*
X823972Y512221D01*
X823973Y512221D02*
X823639Y511978D01*
X823311Y511728D01*
X822989Y511469D01*
X822674Y511203D01*
X822365Y510929D01*
X822063Y510648D01*
X821768Y510359D01*
X821480Y510063D01*
X821200Y509761D01*
X820916Y509440D01*
X820638Y509113D01*
X820369Y508780D01*
X820106Y508441D01*
X819852Y508096D01*
X819605Y507745D01*
X819366Y507389D01*
X819136Y507027D01*
X818913Y506660D01*
X818662Y506225D01*
X818420Y505784D01*
X818189Y505337D01*
X817969Y504885D01*
X817759Y504428D01*
X817561Y503967D01*
X817373Y503500D01*
X817196Y503030D01*
X817025Y502545D01*
X816866Y502057D01*
X816717Y501565D01*
X816580Y501069D01*
X816453Y500571D01*
X816337Y500070D01*
X816233Y499567D01*
X816140Y499061D01*
X816056Y498545D01*
X815983Y498027D01*
X815921Y497508D01*
X815871Y496988D01*
X815831Y496467D01*
X815803Y495945D01*
X815786Y495422D01*
X815781Y494900D01*
X828756Y464462D02*
X829060Y464537D01*
X829366Y464606D01*
X829673Y464667D01*
X829981Y464721D01*
X830291Y464768D01*
X830602Y464808D01*
X830913Y464841D01*
X831225Y464867D01*
X831538Y464885D01*
X831851Y464896D01*
X832164Y464900D01*
X828756Y464462D02*
X828418Y464369D01*
X828082Y464268D01*
X827749Y464159D01*
X827418Y464042D01*
X827091Y463917D01*
X826766Y463784D01*
X826445Y463643D01*
X826128Y463494D01*
X825814Y463337D01*
X825505Y463173D01*
X825204Y463009D01*
X824906Y462839D01*
X824613Y462661D01*
X824324Y462476D01*
X824040Y462285D01*
X823760Y462087D01*
X823485Y461882D01*
X823215Y461671D01*
X822950Y461453D01*
X822691Y461229D01*
X822437Y460999D01*
X822188Y460763D01*
X822187Y460764D02*
X821874Y460463D01*
X821569Y460154D01*
X821271Y459839D01*
X820980Y459516D01*
X820698Y459187D01*
X820423Y458851D01*
X820156Y458509D01*
X819897Y458160D01*
X819646Y457806D01*
X819404Y457446D01*
X819170Y457080D01*
X819170Y457081D02*
X818908Y456652D01*
X818656Y456217D01*
X818415Y455776D01*
X818184Y455330D01*
X817964Y454878D01*
X817755Y454422D01*
X817556Y453960D01*
X817369Y453494D01*
X817192Y453024D01*
X817027Y452550D01*
X817027Y452549D02*
X816850Y452003D01*
X816686Y451453D01*
X816536Y450899D01*
X816399Y450342D01*
X816276Y449782D01*
X816167Y449219D01*
X816071Y448653D01*
X815990Y448085D01*
X815922Y447516D01*
X815867Y446936D01*
X815825Y446355D01*
X815798Y445773D01*
X815784Y445191D01*
X815784Y444609D01*
X815798Y444027D01*
X815825Y443445D01*
X815867Y442864D01*
X815922Y442284D01*
X815922Y442285D02*
X815991Y441715D01*
X816073Y441147D01*
X816169Y440582D01*
X816278Y440019D01*
X816401Y439458D01*
X816538Y438901D01*
X816688Y438347D01*
X816851Y437797D01*
X817027Y437252D01*
X817027Y437251D02*
X817194Y436777D01*
X817371Y436307D01*
X817559Y435841D01*
X817758Y435380D01*
X817968Y434923D01*
X818188Y434472D01*
X818418Y434025D01*
X818659Y433585D01*
X818910Y433149D01*
X819170Y432720D01*
X819405Y432355D01*
X819648Y431996D01*
X819900Y431642D01*
X820159Y431294D01*
X820426Y430952D01*
X820701Y430616D01*
X820984Y430287D01*
X821274Y429964D01*
X821571Y429648D01*
X821876Y429339D01*
X822187Y429036D01*
X822188Y429036D02*
X822494Y428762D01*
X822806Y428496D01*
X823125Y428236D01*
X823449Y427983D01*
X823779Y427738D01*
X824114Y427500D01*
X824454Y427270D01*
X824800Y427048D01*
X825150Y426833D01*
X825505Y426626D01*
X825506Y426627D02*
X825816Y426464D01*
X826129Y426307D01*
X826447Y426159D01*
X826768Y426018D01*
X827092Y425885D01*
X827420Y425760D01*
X827750Y425642D01*
X828083Y425533D01*
X828419Y425432D01*
X828756Y425338D01*
X829060Y425263D01*
X829366Y425194D01*
X829673Y425133D01*
X829981Y425079D01*
X830291Y425032D01*
X830602Y424992D01*
X830913Y424959D01*
X831225Y424934D01*
X831538Y424915D01*
X831851Y424904D01*
X832164Y424900D01*
X832483Y424904D01*
X832802Y424915D01*
X833121Y424934D01*
X833438Y424961D01*
X833756Y424995D01*
X834072Y425036D01*
X834387Y425085D01*
X834701Y425141D01*
X835013Y425205D01*
X835328Y425277D01*
X835640Y425355D01*
X835950Y425442D01*
X836259Y425535D01*
X836565Y425635D01*
X836869Y425742D01*
X837170Y425856D01*
X837469Y425977D01*
X837764Y426105D01*
X838066Y426243D01*
X838365Y426388D01*
X838660Y426539D01*
X838952Y426697D01*
X839240Y426861D01*
X839525Y427032D01*
X839806Y427208D01*
X840083Y427391D01*
X840355Y427580D01*
X840356Y427579D02*
X840690Y427821D01*
X841018Y428072D01*
X841340Y428330D01*
X841655Y428597D01*
X841964Y428871D01*
X842266Y429152D01*
X842561Y429441D01*
X842849Y429736D01*
X843129Y430039D01*
X843414Y430360D01*
X843691Y430687D01*
X843961Y431021D01*
X844223Y431360D01*
X844477Y431705D01*
X844724Y432056D01*
X844963Y432412D01*
X845194Y432774D01*
X845416Y433140D01*
X845667Y433576D01*
X845909Y434017D01*
X846139Y434463D01*
X846360Y434915D01*
X846569Y435372D01*
X846768Y435834D01*
X846956Y436300D01*
X847133Y436770D01*
X847304Y437255D01*
X847463Y437743D01*
X847612Y438235D01*
X847749Y438731D01*
X847876Y439229D01*
X847992Y439730D01*
X848096Y440233D01*
X848189Y440739D01*
X848273Y441254D01*
X848346Y441772D01*
X848408Y442291D01*
X848458Y442811D01*
X848498Y443333D01*
X848526Y443854D01*
X848543Y444377D01*
X848548Y444900D01*
X835573Y475338D02*
X835269Y475263D01*
X834964Y475194D01*
X834656Y475133D01*
X834348Y475079D01*
X834038Y475032D01*
X833727Y474992D01*
X833416Y474959D01*
X833104Y474933D01*
X832791Y474915D01*
X832478Y474904D01*
X832164Y474900D01*
X835573Y475338D02*
X835911Y475431D01*
X836247Y475532D01*
X836580Y475641D01*
X836911Y475758D01*
X837238Y475883D01*
X837562Y476016D01*
X837883Y476157D01*
X838201Y476306D01*
X838514Y476463D01*
X838824Y476627D01*
X839125Y476790D01*
X839423Y476961D01*
X839716Y477138D01*
X840005Y477323D01*
X840289Y477514D01*
X840569Y477712D01*
X840844Y477917D01*
X841114Y478128D01*
X841379Y478346D01*
X841638Y478570D01*
X841893Y478800D01*
X842141Y479036D01*
X842454Y479338D01*
X842759Y479646D01*
X843057Y479962D01*
X843348Y480284D01*
X843631Y480613D01*
X843906Y480949D01*
X844173Y481292D01*
X844432Y481640D01*
X844683Y481994D01*
X844925Y482355D01*
X845159Y482720D01*
X845421Y483149D01*
X845673Y483584D01*
X845914Y484024D01*
X846145Y484470D01*
X846365Y484922D01*
X846574Y485379D01*
X846773Y485840D01*
X846960Y486306D01*
X847137Y486777D01*
X847302Y487251D01*
X847479Y487796D01*
X847643Y488346D01*
X847793Y488900D01*
X847930Y489457D01*
X848053Y490017D01*
X848162Y490581D01*
X848258Y491146D01*
X848339Y491714D01*
X848407Y492284D01*
X848462Y492864D01*
X848504Y493445D01*
X848531Y494027D01*
X848545Y494609D01*
X848545Y495191D01*
X848531Y495773D01*
X848504Y496355D01*
X848462Y496936D01*
X848407Y497516D01*
X848338Y498086D01*
X848256Y498654D01*
X848160Y499219D01*
X848051Y499782D01*
X847928Y500343D01*
X847791Y500900D01*
X847641Y501453D01*
X847478Y502003D01*
X847302Y502549D01*
X847135Y503023D01*
X846958Y503493D01*
X846770Y503958D01*
X846571Y504420D01*
X846361Y504876D01*
X846141Y505328D01*
X845911Y505774D01*
X845670Y506215D01*
X845419Y506650D01*
X845159Y507080D01*
X844924Y507445D01*
X844681Y507804D01*
X844429Y508158D01*
X844170Y508506D01*
X843903Y508848D01*
X843628Y509184D01*
X843345Y509513D01*
X843055Y509836D01*
X842757Y510152D01*
X842453Y510461D01*
X842141Y510764D01*
X841835Y511038D01*
X841522Y511304D01*
X841204Y511564D01*
X840880Y511816D01*
X840550Y512062D01*
X840215Y512299D01*
X839875Y512529D01*
X839530Y512752D01*
X839179Y512966D01*
X838824Y513173D01*
X838825Y513173D02*
X838515Y513337D01*
X838201Y513493D01*
X837883Y513642D01*
X837562Y513783D01*
X837238Y513916D01*
X836911Y514041D01*
X836580Y514159D01*
X836247Y514268D01*
X835912Y514369D01*
X835574Y514462D01*
X835573Y514462D02*
X835269Y514537D01*
X834964Y514606D01*
X834656Y514667D01*
X834348Y514721D01*
X834038Y514768D01*
X833727Y514808D01*
X833416Y514841D01*
X833104Y514867D01*
X832791Y514885D01*
X832478Y514896D01*
X832164Y514900D01*
X848189Y449061D02*
X848284Y448472D01*
X848364Y447880D01*
X848430Y447286D01*
X848481Y446691D01*
X848518Y446095D01*
X848540Y445498D01*
X848547Y444900D01*
X848189Y449061D02*
X848095Y449567D01*
X847991Y450070D01*
X847875Y450571D01*
X847748Y451069D01*
X847611Y451564D01*
X847462Y452056D01*
X847303Y452545D01*
X847133Y453030D01*
X846956Y453500D01*
X846768Y453966D01*
X846569Y454428D01*
X846359Y454885D01*
X846139Y455337D01*
X845908Y455783D01*
X845667Y456224D01*
X845416Y456660D01*
X845416Y456659D02*
X845192Y457026D01*
X844961Y457387D01*
X844722Y457743D01*
X844475Y458093D01*
X844221Y458438D01*
X843959Y458778D01*
X843689Y459111D01*
X843413Y459439D01*
X843129Y459760D01*
X843129Y459761D02*
X842848Y460063D01*
X842560Y460359D01*
X842265Y460647D01*
X841963Y460928D01*
X841654Y461202D01*
X841339Y461468D01*
X841017Y461727D01*
X840690Y461978D01*
X840356Y462221D01*
X840048Y462433D01*
X839735Y462637D01*
X839418Y462833D01*
X839096Y463022D01*
X838769Y463202D01*
X838438Y463375D01*
X838103Y463540D01*
X837764Y463696D01*
X837764Y463695D02*
X837468Y463822D01*
X837170Y463943D01*
X836868Y464057D01*
X836564Y464164D01*
X836258Y464264D01*
X835950Y464357D01*
X835639Y464444D01*
X835327Y464523D01*
X835013Y464595D01*
X834701Y464659D01*
X834387Y464715D01*
X834072Y464763D01*
X833755Y464805D01*
X833438Y464839D01*
X833120Y464865D01*
X832802Y464884D01*
X832483Y464895D01*
X832164Y464899D01*
X945300Y420900D02*
X945300Y518900D01*
X899840Y518900D01*
X895317Y518900D01*
X854380Y518900D01*
X849515Y518900D01*
X813300Y518900D01*
X813300Y420900D01*
X849515Y420900D01*
X854380Y420900D01*
X895317Y420900D01*
X899840Y420900D01*
X945300Y420900D01*
X930300Y429900D02*
X930300Y459900D01*
X913800Y459900D01*
X913800Y429900D01*
X930300Y429900D01*
X938300Y427900D02*
X938300Y461900D01*
X906300Y461900D01*
X906300Y427900D01*
X938300Y427900D01*
X939300Y519900D02*
X939300Y521900D01*
X940800Y523900D01*
X940800Y526400D01*
X895300Y526400D01*
X895300Y524400D01*
X896800Y521900D01*
X896800Y519900D01*
X864800Y519900D02*
X864800Y521900D01*
X866800Y523900D01*
X866800Y526400D01*
X838800Y526400D01*
X838800Y523900D01*
X840300Y521900D01*
X840300Y519900D01*
X927800Y479900D02*
X930300Y479900D01*
X930300Y509900D01*
X913800Y509900D01*
X913800Y479900D01*
X927800Y479900D01*
X938300Y477900D02*
X938300Y511900D01*
X906300Y511900D01*
X906300Y477900D01*
X938300Y477900D01*
D13*
X805942Y419608D02*
X794258Y419608D01*
X800749Y423503D01*
X794258Y427397D01*
X805942Y427397D01*
X802696Y432830D02*
X797504Y432830D01*
X797391Y432832D01*
X797278Y432838D01*
X797165Y432848D01*
X797052Y432862D01*
X796940Y432879D01*
X796829Y432901D01*
X796719Y432926D01*
X796609Y432956D01*
X796501Y432989D01*
X796394Y433026D01*
X796288Y433066D01*
X796184Y433111D01*
X796081Y433159D01*
X795980Y433210D01*
X795881Y433265D01*
X795784Y433323D01*
X795689Y433385D01*
X795596Y433450D01*
X795506Y433518D01*
X795418Y433589D01*
X795332Y433664D01*
X795249Y433741D01*
X795169Y433821D01*
X795092Y433904D01*
X795017Y433990D01*
X794946Y434078D01*
X794878Y434168D01*
X794813Y434261D01*
X794751Y434356D01*
X794693Y434453D01*
X794638Y434552D01*
X794587Y434653D01*
X794539Y434756D01*
X794494Y434860D01*
X794454Y434966D01*
X794417Y435073D01*
X794384Y435181D01*
X794354Y435291D01*
X794329Y435401D01*
X794307Y435512D01*
X794290Y435624D01*
X794276Y435737D01*
X794266Y435850D01*
X794260Y435963D01*
X794258Y436076D01*
X794260Y436189D01*
X794266Y436302D01*
X794276Y436415D01*
X794290Y436528D01*
X794307Y436640D01*
X794329Y436751D01*
X794354Y436861D01*
X794384Y436971D01*
X794417Y437079D01*
X794454Y437186D01*
X794494Y437292D01*
X794539Y437396D01*
X794587Y437499D01*
X794638Y437600D01*
X794693Y437699D01*
X794751Y437796D01*
X794813Y437891D01*
X794878Y437984D01*
X794946Y438074D01*
X795017Y438162D01*
X795092Y438248D01*
X795169Y438331D01*
X795249Y438411D01*
X795332Y438488D01*
X795418Y438563D01*
X795506Y438634D01*
X795596Y438702D01*
X795689Y438767D01*
X795784Y438829D01*
X795881Y438887D01*
X795980Y438942D01*
X796081Y438993D01*
X796184Y439041D01*
X796288Y439086D01*
X796394Y439126D01*
X796501Y439163D01*
X796609Y439196D01*
X796719Y439226D01*
X796829Y439251D01*
X796940Y439273D01*
X797052Y439290D01*
X797165Y439304D01*
X797278Y439314D01*
X797391Y439320D01*
X797504Y439322D01*
X797504Y439321D02*
X802696Y439321D01*
X802696Y439322D02*
X802809Y439320D01*
X802922Y439314D01*
X803035Y439304D01*
X803148Y439290D01*
X803260Y439273D01*
X803371Y439251D01*
X803481Y439226D01*
X803591Y439196D01*
X803699Y439163D01*
X803806Y439126D01*
X803912Y439086D01*
X804016Y439041D01*
X804119Y438993D01*
X804220Y438942D01*
X804319Y438887D01*
X804416Y438829D01*
X804511Y438767D01*
X804604Y438702D01*
X804694Y438634D01*
X804782Y438563D01*
X804868Y438488D01*
X804951Y438411D01*
X805031Y438331D01*
X805108Y438248D01*
X805183Y438162D01*
X805254Y438074D01*
X805322Y437984D01*
X805387Y437891D01*
X805449Y437796D01*
X805507Y437699D01*
X805562Y437600D01*
X805613Y437499D01*
X805661Y437396D01*
X805706Y437292D01*
X805746Y437186D01*
X805783Y437079D01*
X805816Y436971D01*
X805846Y436861D01*
X805871Y436751D01*
X805893Y436640D01*
X805910Y436528D01*
X805924Y436415D01*
X805934Y436302D01*
X805940Y436189D01*
X805942Y436076D01*
X805940Y435963D01*
X805934Y435850D01*
X805924Y435737D01*
X805910Y435624D01*
X805893Y435512D01*
X805871Y435401D01*
X805846Y435291D01*
X805816Y435181D01*
X805783Y435073D01*
X805746Y434966D01*
X805706Y434860D01*
X805661Y434756D01*
X805613Y434653D01*
X805562Y434552D01*
X805507Y434453D01*
X805449Y434356D01*
X805387Y434261D01*
X805322Y434168D01*
X805254Y434078D01*
X805183Y433990D01*
X805108Y433904D01*
X805031Y433821D01*
X804951Y433741D01*
X804868Y433664D01*
X804782Y433589D01*
X804694Y433518D01*
X804604Y433450D01*
X804511Y433385D01*
X804416Y433323D01*
X804319Y433265D01*
X804220Y433210D01*
X804119Y433159D01*
X804016Y433111D01*
X803912Y433066D01*
X803806Y433026D01*
X803699Y432989D01*
X803591Y432956D01*
X803481Y432926D01*
X803371Y432901D01*
X803260Y432879D01*
X803148Y432862D01*
X803035Y432848D01*
X802922Y432838D01*
X802809Y432832D01*
X802696Y432830D01*
X805942Y446744D02*
X794258Y446744D01*
X794258Y449989D02*
X794258Y443498D01*
X797504Y454166D02*
X802696Y454166D01*
X797504Y454166D02*
X797391Y454168D01*
X797278Y454174D01*
X797165Y454184D01*
X797052Y454198D01*
X796940Y454215D01*
X796829Y454237D01*
X796719Y454262D01*
X796609Y454292D01*
X796501Y454325D01*
X796394Y454362D01*
X796288Y454402D01*
X796184Y454447D01*
X796081Y454495D01*
X795980Y454546D01*
X795881Y454601D01*
X795784Y454659D01*
X795689Y454721D01*
X795596Y454786D01*
X795506Y454854D01*
X795418Y454925D01*
X795332Y455000D01*
X795249Y455077D01*
X795169Y455157D01*
X795092Y455240D01*
X795017Y455326D01*
X794946Y455414D01*
X794878Y455504D01*
X794813Y455597D01*
X794751Y455692D01*
X794693Y455789D01*
X794638Y455888D01*
X794587Y455989D01*
X794539Y456092D01*
X794494Y456196D01*
X794454Y456302D01*
X794417Y456409D01*
X794384Y456517D01*
X794354Y456627D01*
X794329Y456737D01*
X794307Y456848D01*
X794290Y456960D01*
X794276Y457073D01*
X794266Y457186D01*
X794260Y457299D01*
X794258Y457412D01*
X794260Y457525D01*
X794266Y457638D01*
X794276Y457751D01*
X794290Y457864D01*
X794307Y457976D01*
X794329Y458087D01*
X794354Y458197D01*
X794384Y458307D01*
X794417Y458415D01*
X794454Y458522D01*
X794494Y458628D01*
X794539Y458732D01*
X794587Y458835D01*
X794638Y458936D01*
X794693Y459035D01*
X794751Y459132D01*
X794813Y459227D01*
X794878Y459320D01*
X794946Y459410D01*
X795017Y459498D01*
X795092Y459584D01*
X795169Y459667D01*
X795249Y459747D01*
X795332Y459824D01*
X795418Y459899D01*
X795506Y459970D01*
X795596Y460038D01*
X795689Y460103D01*
X795784Y460165D01*
X795881Y460223D01*
X795980Y460278D01*
X796081Y460329D01*
X796184Y460377D01*
X796288Y460422D01*
X796394Y460462D01*
X796501Y460499D01*
X796609Y460532D01*
X796719Y460562D01*
X796829Y460587D01*
X796940Y460609D01*
X797052Y460626D01*
X797165Y460640D01*
X797278Y460650D01*
X797391Y460656D01*
X797504Y460658D01*
X797504Y460657D02*
X802696Y460657D01*
X802696Y460658D02*
X802809Y460656D01*
X802922Y460650D01*
X803035Y460640D01*
X803148Y460626D01*
X803260Y460609D01*
X803371Y460587D01*
X803481Y460562D01*
X803591Y460532D01*
X803699Y460499D01*
X803806Y460462D01*
X803912Y460422D01*
X804016Y460377D01*
X804119Y460329D01*
X804220Y460278D01*
X804319Y460223D01*
X804416Y460165D01*
X804511Y460103D01*
X804604Y460038D01*
X804694Y459970D01*
X804782Y459899D01*
X804868Y459824D01*
X804951Y459747D01*
X805031Y459667D01*
X805108Y459584D01*
X805183Y459498D01*
X805254Y459410D01*
X805322Y459320D01*
X805387Y459227D01*
X805449Y459132D01*
X805507Y459035D01*
X805562Y458936D01*
X805613Y458835D01*
X805661Y458732D01*
X805706Y458628D01*
X805746Y458522D01*
X805783Y458415D01*
X805816Y458307D01*
X805846Y458197D01*
X805871Y458087D01*
X805893Y457976D01*
X805910Y457864D01*
X805924Y457751D01*
X805934Y457638D01*
X805940Y457525D01*
X805942Y457412D01*
X805940Y457299D01*
X805934Y457186D01*
X805924Y457073D01*
X805910Y456960D01*
X805893Y456848D01*
X805871Y456737D01*
X805846Y456627D01*
X805816Y456517D01*
X805783Y456409D01*
X805746Y456302D01*
X805706Y456196D01*
X805661Y456092D01*
X805613Y455989D01*
X805562Y455888D01*
X805507Y455789D01*
X805449Y455692D01*
X805387Y455597D01*
X805322Y455504D01*
X805254Y455414D01*
X805183Y455326D01*
X805108Y455240D01*
X805031Y455157D01*
X804951Y455077D01*
X804868Y455000D01*
X804782Y454925D01*
X804694Y454854D01*
X804604Y454786D01*
X804511Y454721D01*
X804416Y454659D01*
X804319Y454601D01*
X804220Y454546D01*
X804119Y454495D01*
X804016Y454447D01*
X803912Y454402D01*
X803806Y454362D01*
X803699Y454325D01*
X803591Y454292D01*
X803481Y454262D01*
X803371Y454237D01*
X803260Y454215D01*
X803148Y454198D01*
X803035Y454184D01*
X802922Y454174D01*
X802809Y454168D01*
X802696Y454166D01*
X805942Y466051D02*
X794258Y466051D01*
X794258Y469296D01*
X794260Y469409D01*
X794266Y469522D01*
X794276Y469635D01*
X794290Y469748D01*
X794307Y469860D01*
X794329Y469971D01*
X794354Y470081D01*
X794384Y470191D01*
X794417Y470299D01*
X794454Y470406D01*
X794494Y470512D01*
X794539Y470616D01*
X794587Y470719D01*
X794638Y470820D01*
X794693Y470919D01*
X794751Y471016D01*
X794813Y471111D01*
X794878Y471204D01*
X794946Y471294D01*
X795017Y471382D01*
X795092Y471468D01*
X795169Y471551D01*
X795249Y471631D01*
X795332Y471708D01*
X795418Y471783D01*
X795506Y471854D01*
X795596Y471922D01*
X795689Y471987D01*
X795784Y472049D01*
X795881Y472107D01*
X795980Y472162D01*
X796081Y472213D01*
X796184Y472261D01*
X796288Y472306D01*
X796394Y472346D01*
X796501Y472383D01*
X796609Y472416D01*
X796719Y472446D01*
X796829Y472471D01*
X796940Y472493D01*
X797052Y472510D01*
X797165Y472524D01*
X797278Y472534D01*
X797391Y472540D01*
X797504Y472542D01*
X797617Y472540D01*
X797730Y472534D01*
X797843Y472524D01*
X797956Y472510D01*
X798068Y472493D01*
X798179Y472471D01*
X798289Y472446D01*
X798399Y472416D01*
X798507Y472383D01*
X798614Y472346D01*
X798720Y472306D01*
X798824Y472261D01*
X798927Y472213D01*
X799028Y472162D01*
X799127Y472107D01*
X799224Y472049D01*
X799319Y471987D01*
X799412Y471922D01*
X799502Y471854D01*
X799590Y471783D01*
X799676Y471708D01*
X799759Y471631D01*
X799839Y471551D01*
X799916Y471468D01*
X799991Y471382D01*
X800062Y471294D01*
X800130Y471204D01*
X800195Y471111D01*
X800257Y471016D01*
X800315Y470919D01*
X800370Y470820D01*
X800421Y470719D01*
X800469Y470616D01*
X800514Y470512D01*
X800554Y470406D01*
X800591Y470299D01*
X800624Y470191D01*
X800654Y470081D01*
X800679Y469971D01*
X800701Y469860D01*
X800718Y469748D01*
X800732Y469635D01*
X800742Y469522D01*
X800748Y469409D01*
X800750Y469296D01*
X800749Y469296D02*
X800749Y466051D01*
X800749Y469945D02*
X805942Y472542D01*
X796854Y477407D02*
X794258Y480653D01*
X805942Y480653D01*
X805942Y483898D02*
X805942Y477407D01*
D11*
X895317Y417300D02*
X895317Y319300D01*
X899840Y319300D02*
X899840Y417300D01*
X854380Y417300D02*
X854380Y319300D01*
X849515Y319300D02*
X849515Y417300D01*
X815781Y393300D02*
X815788Y392702D01*
X815810Y392105D01*
X815847Y391509D01*
X815898Y390914D01*
X815964Y390320D01*
X816044Y389728D01*
X816139Y389139D01*
X816140Y389139D02*
X816234Y388633D01*
X816338Y388130D01*
X816454Y387629D01*
X816581Y387131D01*
X816718Y386636D01*
X816867Y386144D01*
X817026Y385655D01*
X817196Y385170D01*
X817374Y384700D01*
X817562Y384234D01*
X817761Y383772D01*
X817971Y383315D01*
X818191Y382863D01*
X818421Y382417D01*
X818662Y381975D01*
X818913Y381540D01*
X819136Y381173D01*
X819367Y380812D01*
X819606Y380456D01*
X819853Y380106D01*
X820108Y379760D01*
X820370Y379421D01*
X820639Y379087D01*
X820916Y378760D01*
X821200Y378438D01*
X821200Y378439D02*
X821481Y378137D01*
X821769Y377841D01*
X822064Y377553D01*
X822366Y377272D01*
X822675Y376998D01*
X822990Y376731D01*
X823312Y376473D01*
X823639Y376222D01*
X823973Y375979D01*
X824281Y375768D01*
X824593Y375564D01*
X824911Y375367D01*
X825233Y375179D01*
X825559Y374998D01*
X825890Y374825D01*
X826225Y374661D01*
X826564Y374504D01*
X826564Y374505D02*
X826860Y374377D01*
X827159Y374256D01*
X827460Y374142D01*
X827764Y374035D01*
X828071Y373935D01*
X828379Y373842D01*
X828690Y373756D01*
X829002Y373677D01*
X829316Y373605D01*
X829629Y373541D01*
X829942Y373485D01*
X830258Y373436D01*
X830574Y373395D01*
X830891Y373361D01*
X831208Y373334D01*
X831527Y373315D01*
X831845Y373304D01*
X832164Y373300D01*
X829316Y412995D02*
X829628Y413059D01*
X829942Y413115D01*
X830257Y413164D01*
X830573Y413205D01*
X830891Y413239D01*
X831208Y413266D01*
X831527Y413285D01*
X831845Y413296D01*
X832164Y413300D01*
X829316Y412995D02*
X829002Y412923D01*
X828689Y412844D01*
X828379Y412758D01*
X828070Y412665D01*
X827764Y412565D01*
X827460Y412458D01*
X827159Y412343D01*
X826860Y412222D01*
X826564Y412095D01*
X826563Y412095D02*
X826262Y411957D01*
X825963Y411812D01*
X825668Y411661D01*
X825376Y411503D01*
X825088Y411339D01*
X824803Y411169D01*
X824522Y410993D01*
X824245Y410810D01*
X823972Y410621D01*
X823973Y410621D02*
X823639Y410378D01*
X823311Y410128D01*
X822989Y409869D01*
X822674Y409603D01*
X822365Y409329D01*
X822063Y409048D01*
X821768Y408759D01*
X821480Y408463D01*
X821200Y408161D01*
X820916Y407840D01*
X820638Y407513D01*
X820369Y407180D01*
X820106Y406841D01*
X819852Y406496D01*
X819605Y406145D01*
X819366Y405789D01*
X819136Y405427D01*
X818913Y405060D01*
X818662Y404625D01*
X818420Y404184D01*
X818189Y403737D01*
X817969Y403285D01*
X817759Y402828D01*
X817561Y402367D01*
X817373Y401900D01*
X817196Y401430D01*
X817025Y400945D01*
X816866Y400457D01*
X816717Y399965D01*
X816580Y399469D01*
X816453Y398971D01*
X816337Y398470D01*
X816233Y397967D01*
X816140Y397461D01*
X816056Y396945D01*
X815983Y396427D01*
X815921Y395908D01*
X815871Y395388D01*
X815831Y394867D01*
X815803Y394345D01*
X815786Y393822D01*
X815781Y393300D01*
X828756Y362862D02*
X829060Y362937D01*
X829366Y363006D01*
X829673Y363067D01*
X829981Y363121D01*
X830291Y363168D01*
X830602Y363208D01*
X830913Y363241D01*
X831225Y363267D01*
X831538Y363285D01*
X831851Y363296D01*
X832164Y363300D01*
X828756Y362862D02*
X828418Y362769D01*
X828082Y362668D01*
X827749Y362559D01*
X827418Y362442D01*
X827091Y362317D01*
X826766Y362184D01*
X826445Y362043D01*
X826128Y361894D01*
X825814Y361737D01*
X825505Y361573D01*
X825204Y361409D01*
X824906Y361239D01*
X824613Y361061D01*
X824324Y360876D01*
X824040Y360685D01*
X823760Y360487D01*
X823485Y360282D01*
X823215Y360071D01*
X822950Y359853D01*
X822691Y359629D01*
X822437Y359399D01*
X822188Y359163D01*
X822187Y359164D02*
X821874Y358863D01*
X821569Y358554D01*
X821271Y358239D01*
X820980Y357916D01*
X820698Y357587D01*
X820423Y357251D01*
X820156Y356909D01*
X819897Y356560D01*
X819646Y356206D01*
X819404Y355846D01*
X819170Y355480D01*
X819170Y355481D02*
X818908Y355052D01*
X818656Y354617D01*
X818415Y354176D01*
X818184Y353730D01*
X817964Y353278D01*
X817755Y352822D01*
X817556Y352360D01*
X817369Y351894D01*
X817192Y351424D01*
X817027Y350950D01*
X817027Y350949D02*
X816850Y350403D01*
X816686Y349853D01*
X816536Y349299D01*
X816399Y348742D01*
X816276Y348182D01*
X816167Y347619D01*
X816071Y347053D01*
X815990Y346485D01*
X815922Y345916D01*
X815867Y345336D01*
X815825Y344755D01*
X815798Y344173D01*
X815784Y343591D01*
X815784Y343009D01*
X815798Y342427D01*
X815825Y341845D01*
X815867Y341264D01*
X815922Y340684D01*
X815922Y340685D02*
X815991Y340115D01*
X816073Y339547D01*
X816169Y338982D01*
X816278Y338419D01*
X816401Y337858D01*
X816538Y337301D01*
X816688Y336747D01*
X816851Y336197D01*
X817027Y335652D01*
X817027Y335651D02*
X817194Y335177D01*
X817371Y334707D01*
X817559Y334241D01*
X817758Y333780D01*
X817968Y333323D01*
X818188Y332872D01*
X818418Y332425D01*
X818659Y331985D01*
X818910Y331549D01*
X819170Y331120D01*
X819405Y330755D01*
X819648Y330396D01*
X819900Y330042D01*
X820159Y329694D01*
X820426Y329352D01*
X820701Y329016D01*
X820984Y328687D01*
X821274Y328364D01*
X821571Y328048D01*
X821876Y327739D01*
X822187Y327436D01*
X822188Y327436D02*
X822494Y327162D01*
X822806Y326896D01*
X823125Y326636D01*
X823449Y326383D01*
X823779Y326138D01*
X824114Y325900D01*
X824454Y325670D01*
X824800Y325448D01*
X825150Y325233D01*
X825505Y325026D01*
X825506Y325027D02*
X825816Y324864D01*
X826129Y324707D01*
X826447Y324559D01*
X826768Y324418D01*
X827092Y324285D01*
X827420Y324160D01*
X827750Y324042D01*
X828083Y323933D01*
X828419Y323832D01*
X828756Y323738D01*
X829060Y323663D01*
X829366Y323594D01*
X829673Y323533D01*
X829981Y323479D01*
X830291Y323432D01*
X830602Y323392D01*
X830913Y323359D01*
X831225Y323334D01*
X831538Y323315D01*
X831851Y323304D01*
X832164Y323300D01*
X832483Y323304D01*
X832802Y323315D01*
X833121Y323334D01*
X833438Y323361D01*
X833756Y323395D01*
X834072Y323436D01*
X834387Y323485D01*
X834701Y323541D01*
X835013Y323605D01*
X835328Y323677D01*
X835640Y323755D01*
X835950Y323842D01*
X836259Y323935D01*
X836565Y324035D01*
X836869Y324142D01*
X837170Y324256D01*
X837469Y324377D01*
X837764Y324505D01*
X838066Y324643D01*
X838365Y324788D01*
X838660Y324939D01*
X838952Y325097D01*
X839240Y325261D01*
X839525Y325432D01*
X839806Y325608D01*
X840083Y325791D01*
X840355Y325980D01*
X840356Y325979D02*
X840690Y326221D01*
X841018Y326472D01*
X841340Y326730D01*
X841655Y326997D01*
X841964Y327271D01*
X842266Y327552D01*
X842561Y327841D01*
X842849Y328136D01*
X843129Y328439D01*
X843414Y328760D01*
X843691Y329087D01*
X843961Y329421D01*
X844223Y329760D01*
X844477Y330105D01*
X844724Y330456D01*
X844963Y330812D01*
X845194Y331174D01*
X845416Y331540D01*
X845667Y331976D01*
X845909Y332417D01*
X846139Y332863D01*
X846360Y333315D01*
X846569Y333772D01*
X846768Y334234D01*
X846956Y334700D01*
X847133Y335170D01*
X847304Y335655D01*
X847463Y336143D01*
X847612Y336635D01*
X847749Y337131D01*
X847876Y337629D01*
X847992Y338130D01*
X848096Y338633D01*
X848189Y339139D01*
X848273Y339654D01*
X848346Y340172D01*
X848408Y340691D01*
X848458Y341211D01*
X848498Y341733D01*
X848526Y342254D01*
X848543Y342777D01*
X848548Y343300D01*
X835573Y373738D02*
X835269Y373663D01*
X834964Y373594D01*
X834656Y373533D01*
X834348Y373479D01*
X834038Y373432D01*
X833727Y373392D01*
X833416Y373359D01*
X833104Y373333D01*
X832791Y373315D01*
X832478Y373304D01*
X832164Y373300D01*
X835573Y373738D02*
X835911Y373831D01*
X836247Y373932D01*
X836580Y374041D01*
X836911Y374158D01*
X837238Y374283D01*
X837562Y374416D01*
X837883Y374557D01*
X838201Y374706D01*
X838514Y374863D01*
X838824Y375027D01*
X839125Y375190D01*
X839423Y375361D01*
X839716Y375538D01*
X840005Y375723D01*
X840289Y375914D01*
X840569Y376112D01*
X840844Y376317D01*
X841114Y376528D01*
X841379Y376746D01*
X841638Y376970D01*
X841893Y377200D01*
X842141Y377436D01*
X842454Y377738D01*
X842759Y378046D01*
X843057Y378362D01*
X843348Y378684D01*
X843631Y379013D01*
X843906Y379349D01*
X844173Y379692D01*
X844432Y380040D01*
X844683Y380394D01*
X844925Y380755D01*
X845159Y381120D01*
X845421Y381549D01*
X845673Y381984D01*
X845914Y382424D01*
X846145Y382870D01*
X846365Y383322D01*
X846574Y383779D01*
X846773Y384240D01*
X846960Y384706D01*
X847137Y385177D01*
X847302Y385651D01*
X847479Y386196D01*
X847643Y386746D01*
X847793Y387300D01*
X847930Y387857D01*
X848053Y388417D01*
X848162Y388981D01*
X848258Y389546D01*
X848339Y390114D01*
X848407Y390684D01*
X848462Y391264D01*
X848504Y391845D01*
X848531Y392427D01*
X848545Y393009D01*
X848545Y393591D01*
X848531Y394173D01*
X848504Y394755D01*
X848462Y395336D01*
X848407Y395916D01*
X848338Y396486D01*
X848256Y397054D01*
X848160Y397619D01*
X848051Y398182D01*
X847928Y398743D01*
X847791Y399300D01*
X847641Y399853D01*
X847478Y400403D01*
X847302Y400949D01*
X847135Y401423D01*
X846958Y401893D01*
X846770Y402358D01*
X846571Y402820D01*
X846361Y403276D01*
X846141Y403728D01*
X845911Y404174D01*
X845670Y404615D01*
X845419Y405050D01*
X845159Y405480D01*
X844924Y405845D01*
X844681Y406204D01*
X844429Y406558D01*
X844170Y406906D01*
X843903Y407248D01*
X843628Y407584D01*
X843345Y407913D01*
X843055Y408236D01*
X842757Y408552D01*
X842453Y408861D01*
X842141Y409164D01*
X841835Y409438D01*
X841522Y409704D01*
X841204Y409964D01*
X840880Y410216D01*
X840550Y410462D01*
X840215Y410699D01*
X839875Y410929D01*
X839530Y411152D01*
X839179Y411366D01*
X838824Y411573D01*
X838825Y411573D02*
X838515Y411737D01*
X838201Y411893D01*
X837883Y412042D01*
X837562Y412183D01*
X837238Y412316D01*
X836911Y412441D01*
X836580Y412559D01*
X836247Y412668D01*
X835912Y412769D01*
X835574Y412862D01*
X835573Y412862D02*
X835269Y412937D01*
X834964Y413006D01*
X834656Y413067D01*
X834348Y413121D01*
X834038Y413168D01*
X833727Y413208D01*
X833416Y413241D01*
X833104Y413267D01*
X832791Y413285D01*
X832478Y413296D01*
X832164Y413300D01*
X848189Y347461D02*
X848284Y346872D01*
X848364Y346280D01*
X848430Y345686D01*
X848481Y345091D01*
X848518Y344495D01*
X848540Y343898D01*
X848547Y343300D01*
X848189Y347461D02*
X848095Y347967D01*
X847991Y348470D01*
X847875Y348971D01*
X847748Y349469D01*
X847611Y349964D01*
X847462Y350456D01*
X847303Y350945D01*
X847133Y351430D01*
X846956Y351900D01*
X846768Y352366D01*
X846569Y352828D01*
X846359Y353285D01*
X846139Y353737D01*
X845908Y354183D01*
X845667Y354624D01*
X845416Y355060D01*
X845416Y355059D02*
X845192Y355426D01*
X844961Y355787D01*
X844722Y356143D01*
X844475Y356493D01*
X844221Y356838D01*
X843959Y357178D01*
X843689Y357511D01*
X843413Y357839D01*
X843129Y358160D01*
X843129Y358161D02*
X842848Y358463D01*
X842560Y358759D01*
X842265Y359047D01*
X841963Y359328D01*
X841654Y359602D01*
X841339Y359868D01*
X841017Y360127D01*
X840690Y360378D01*
X840356Y360621D01*
X840048Y360833D01*
X839735Y361037D01*
X839418Y361233D01*
X839096Y361422D01*
X838769Y361602D01*
X838438Y361775D01*
X838103Y361940D01*
X837764Y362096D01*
X837764Y362095D02*
X837468Y362222D01*
X837170Y362343D01*
X836868Y362457D01*
X836564Y362564D01*
X836258Y362664D01*
X835950Y362757D01*
X835639Y362844D01*
X835327Y362923D01*
X835013Y362995D01*
X834701Y363059D01*
X834387Y363115D01*
X834072Y363163D01*
X833755Y363205D01*
X833438Y363239D01*
X833120Y363265D01*
X832802Y363284D01*
X832483Y363295D01*
X832164Y363299D01*
X945300Y319300D02*
X945300Y417300D01*
X899840Y417300D01*
X895317Y417300D01*
X854380Y417300D01*
X849515Y417300D01*
X813300Y417300D01*
X813300Y319300D01*
X849515Y319300D01*
X854380Y319300D01*
X895317Y319300D01*
X899840Y319300D01*
X945300Y319300D01*
X930300Y328300D02*
X930300Y358300D01*
X913800Y358300D01*
X913800Y328300D01*
X930300Y328300D01*
X938300Y326300D02*
X938300Y360300D01*
X906300Y360300D01*
X906300Y326300D01*
X938300Y326300D01*
X939300Y418300D02*
X939300Y420300D01*
X940800Y422300D01*
X940800Y424800D01*
X895300Y424800D01*
X895300Y422800D01*
X896800Y420300D01*
X896800Y418300D01*
X864800Y418300D02*
X864800Y420300D01*
X866800Y422300D01*
X866800Y424800D01*
X838800Y424800D01*
X838800Y422300D01*
X840300Y420300D01*
X840300Y418300D01*
X927800Y378300D02*
X930300Y378300D01*
X930300Y408300D01*
X913800Y408300D01*
X913800Y378300D01*
X927800Y378300D01*
X938300Y376300D02*
X938300Y410300D01*
X906300Y410300D01*
X906300Y376300D01*
X938300Y376300D01*
D13*
X805942Y318008D02*
X794258Y318008D01*
X794258Y321254D01*
X794260Y321367D01*
X794266Y321480D01*
X794276Y321593D01*
X794290Y321706D01*
X794307Y321818D01*
X794329Y321929D01*
X794354Y322039D01*
X794384Y322149D01*
X794417Y322257D01*
X794454Y322364D01*
X794494Y322470D01*
X794539Y322574D01*
X794587Y322677D01*
X794638Y322778D01*
X794693Y322877D01*
X794751Y322974D01*
X794813Y323069D01*
X794878Y323162D01*
X794946Y323252D01*
X795017Y323340D01*
X795092Y323426D01*
X795169Y323509D01*
X795249Y323589D01*
X795332Y323666D01*
X795418Y323741D01*
X795506Y323812D01*
X795596Y323880D01*
X795689Y323945D01*
X795784Y324007D01*
X795881Y324065D01*
X795980Y324120D01*
X796081Y324171D01*
X796184Y324219D01*
X796288Y324264D01*
X796394Y324304D01*
X796501Y324341D01*
X796609Y324374D01*
X796719Y324404D01*
X796829Y324429D01*
X796940Y324451D01*
X797052Y324468D01*
X797165Y324482D01*
X797278Y324492D01*
X797391Y324498D01*
X797504Y324500D01*
X797617Y324498D01*
X797730Y324492D01*
X797843Y324482D01*
X797956Y324468D01*
X798068Y324451D01*
X798179Y324429D01*
X798289Y324404D01*
X798399Y324374D01*
X798507Y324341D01*
X798614Y324304D01*
X798720Y324264D01*
X798824Y324219D01*
X798927Y324171D01*
X799028Y324120D01*
X799127Y324065D01*
X799224Y324007D01*
X799319Y323945D01*
X799412Y323880D01*
X799502Y323812D01*
X799590Y323741D01*
X799676Y323666D01*
X799759Y323589D01*
X799839Y323509D01*
X799916Y323426D01*
X799991Y323340D01*
X800062Y323252D01*
X800130Y323162D01*
X800195Y323069D01*
X800257Y322974D01*
X800315Y322877D01*
X800370Y322778D01*
X800421Y322677D01*
X800469Y322574D01*
X800514Y322470D01*
X800554Y322364D01*
X800591Y322257D01*
X800624Y322149D01*
X800654Y322039D01*
X800679Y321929D01*
X800701Y321818D01*
X800718Y321706D01*
X800732Y321593D01*
X800742Y321480D01*
X800748Y321367D01*
X800750Y321254D01*
X800749Y321254D02*
X800749Y318008D01*
X805942Y329291D02*
X805942Y334484D01*
X805942Y329291D02*
X794258Y329291D01*
X794258Y334484D01*
X799451Y333186D02*
X799451Y329291D01*
X794258Y339197D02*
X805942Y339197D01*
X805942Y344390D01*
X805942Y351183D02*
X794258Y351183D01*
X794258Y347938D02*
X794258Y354429D01*
X794258Y359565D02*
X805942Y359565D01*
X805942Y358267D02*
X805942Y360863D01*
X794258Y360863D02*
X794258Y358267D01*
X805942Y365867D02*
X805942Y371060D01*
X805942Y365867D02*
X794258Y365867D01*
X794258Y371060D01*
X799451Y369762D02*
X799451Y365867D01*
X794258Y375824D02*
X805942Y375824D01*
X794258Y375824D02*
X794258Y379070D01*
X794260Y379183D01*
X794266Y379296D01*
X794276Y379409D01*
X794290Y379522D01*
X794307Y379634D01*
X794329Y379745D01*
X794354Y379855D01*
X794384Y379965D01*
X794417Y380073D01*
X794454Y380180D01*
X794494Y380286D01*
X794539Y380390D01*
X794587Y380493D01*
X794638Y380594D01*
X794693Y380693D01*
X794751Y380790D01*
X794813Y380885D01*
X794878Y380978D01*
X794946Y381068D01*
X795017Y381156D01*
X795092Y381242D01*
X795169Y381325D01*
X795249Y381405D01*
X795332Y381482D01*
X795418Y381557D01*
X795506Y381628D01*
X795596Y381696D01*
X795689Y381761D01*
X795784Y381823D01*
X795881Y381881D01*
X795980Y381936D01*
X796081Y381987D01*
X796184Y382035D01*
X796288Y382080D01*
X796394Y382120D01*
X796501Y382157D01*
X796609Y382190D01*
X796719Y382220D01*
X796829Y382245D01*
X796940Y382267D01*
X797052Y382284D01*
X797165Y382298D01*
X797278Y382308D01*
X797391Y382314D01*
X797504Y382316D01*
X797617Y382314D01*
X797730Y382308D01*
X797843Y382298D01*
X797956Y382284D01*
X798068Y382267D01*
X798179Y382245D01*
X798289Y382220D01*
X798399Y382190D01*
X798507Y382157D01*
X798614Y382120D01*
X798720Y382080D01*
X798824Y382035D01*
X798927Y381987D01*
X799028Y381936D01*
X799127Y381881D01*
X799224Y381823D01*
X799319Y381761D01*
X799412Y381696D01*
X799502Y381628D01*
X799590Y381557D01*
X799676Y381482D01*
X799759Y381405D01*
X799839Y381325D01*
X799916Y381242D01*
X799991Y381156D01*
X800062Y381068D01*
X800130Y380978D01*
X800195Y380885D01*
X800257Y380790D01*
X800315Y380693D01*
X800370Y380594D01*
X800421Y380493D01*
X800469Y380390D01*
X800514Y380286D01*
X800554Y380180D01*
X800591Y380073D01*
X800624Y379965D01*
X800654Y379855D01*
X800679Y379745D01*
X800701Y379634D01*
X800718Y379522D01*
X800732Y379409D01*
X800742Y379296D01*
X800748Y379183D01*
X800750Y379070D01*
X800749Y379070D02*
X800749Y375824D01*
X800749Y379719D02*
X805942Y382315D01*
X796854Y387181D02*
X794258Y390426D01*
X805942Y390426D01*
X805942Y387181D02*
X805942Y393672D01*
D17*
X385110Y393700D03*
D18*
X390150Y405083D02*
X740150Y405083D01*
X740150Y153717D02*
X390150Y153717D01*
D13*
X530423Y411941D02*
X526528Y423625D01*
X534317Y423625D02*
X530423Y411941D01*
X538988Y411941D02*
X538988Y423625D01*
X545479Y411941D01*
X545479Y423625D01*
X551180Y423625D02*
X551180Y411941D01*
X551180Y418432D02*
X557671Y418432D01*
X557671Y423625D02*
X557671Y411941D01*
X562991Y411941D02*
X566886Y411941D01*
X566985Y411943D01*
X567085Y411949D01*
X567184Y411958D01*
X567282Y411971D01*
X567380Y411988D01*
X567478Y412009D01*
X567574Y412034D01*
X567669Y412062D01*
X567763Y412094D01*
X567856Y412129D01*
X567948Y412168D01*
X568038Y412211D01*
X568126Y412256D01*
X568213Y412306D01*
X568297Y412358D01*
X568380Y412414D01*
X568460Y412472D01*
X568538Y412534D01*
X568613Y412599D01*
X568686Y412667D01*
X568756Y412737D01*
X568824Y412810D01*
X568889Y412885D01*
X568951Y412963D01*
X569009Y413043D01*
X569065Y413126D01*
X569117Y413210D01*
X569167Y413297D01*
X569212Y413385D01*
X569255Y413475D01*
X569294Y413567D01*
X569329Y413660D01*
X569361Y413754D01*
X569389Y413849D01*
X569414Y413945D01*
X569435Y414043D01*
X569452Y414141D01*
X569465Y414239D01*
X569474Y414338D01*
X569480Y414438D01*
X569482Y414537D01*
X569482Y415836D01*
X569480Y415935D01*
X569474Y416035D01*
X569465Y416134D01*
X569452Y416232D01*
X569435Y416330D01*
X569414Y416428D01*
X569389Y416524D01*
X569361Y416619D01*
X569329Y416713D01*
X569294Y416806D01*
X569255Y416898D01*
X569212Y416988D01*
X569167Y417076D01*
X569117Y417163D01*
X569065Y417247D01*
X569009Y417330D01*
X568951Y417410D01*
X568889Y417488D01*
X568824Y417563D01*
X568756Y417636D01*
X568686Y417706D01*
X568613Y417774D01*
X568538Y417839D01*
X568460Y417901D01*
X568380Y417959D01*
X568297Y418015D01*
X568213Y418067D01*
X568126Y418117D01*
X568038Y418162D01*
X567948Y418205D01*
X567856Y418244D01*
X567763Y418279D01*
X567669Y418311D01*
X567574Y418339D01*
X567478Y418364D01*
X567380Y418385D01*
X567282Y418402D01*
X567184Y418415D01*
X567085Y418424D01*
X566985Y418430D01*
X566886Y418432D01*
X562991Y418432D01*
X562991Y423625D01*
X569482Y423625D01*
X575395Y422002D02*
X575296Y421794D01*
X575203Y421584D01*
X575115Y421372D01*
X575032Y421158D01*
X574954Y420941D01*
X574881Y420723D01*
X574813Y420504D01*
X574751Y420282D01*
X574694Y420060D01*
X574642Y419836D01*
X574596Y419611D01*
X574555Y419385D01*
X574520Y419157D01*
X574490Y418930D01*
X574465Y418701D01*
X574446Y418472D01*
X574432Y418243D01*
X574424Y418013D01*
X574421Y417783D01*
X575395Y422002D02*
X575428Y422092D01*
X575464Y422181D01*
X575504Y422269D01*
X575548Y422354D01*
X575595Y422438D01*
X575645Y422520D01*
X575699Y422600D01*
X575755Y422677D01*
X575815Y422753D01*
X575878Y422826D01*
X575943Y422896D01*
X576012Y422964D01*
X576083Y423028D01*
X576156Y423090D01*
X576232Y423149D01*
X576310Y423205D01*
X576391Y423258D01*
X576473Y423307D01*
X576557Y423353D01*
X576644Y423396D01*
X576731Y423435D01*
X576821Y423471D01*
X576911Y423503D01*
X577003Y423531D01*
X577096Y423556D01*
X577190Y423577D01*
X577284Y423594D01*
X577379Y423608D01*
X577475Y423617D01*
X577571Y423623D01*
X577667Y423625D01*
X577763Y423623D01*
X577859Y423617D01*
X577955Y423608D01*
X578050Y423594D01*
X578144Y423577D01*
X578238Y423556D01*
X578331Y423531D01*
X578423Y423503D01*
X578513Y423471D01*
X578603Y423435D01*
X578690Y423396D01*
X578777Y423353D01*
X578861Y423307D01*
X578943Y423258D01*
X579024Y423205D01*
X579102Y423149D01*
X579178Y423090D01*
X579251Y423028D01*
X579322Y422964D01*
X579391Y422896D01*
X579456Y422826D01*
X579519Y422753D01*
X579579Y422677D01*
X579635Y422600D01*
X579689Y422520D01*
X579739Y422438D01*
X579786Y422354D01*
X579830Y422269D01*
X579870Y422181D01*
X579906Y422092D01*
X579939Y422002D01*
X580038Y421795D01*
X580131Y421585D01*
X580219Y421372D01*
X580302Y421158D01*
X580380Y420942D01*
X580453Y420724D01*
X580521Y420504D01*
X580583Y420283D01*
X580640Y420060D01*
X580692Y419836D01*
X580738Y419611D01*
X580779Y419385D01*
X580814Y419158D01*
X580844Y418930D01*
X580869Y418701D01*
X580888Y418472D01*
X580902Y418243D01*
X580910Y418013D01*
X580913Y417783D01*
X574421Y417783D02*
X574424Y417553D01*
X574432Y417323D01*
X574446Y417094D01*
X574465Y416865D01*
X574490Y416636D01*
X574520Y416408D01*
X574555Y416181D01*
X574596Y415955D01*
X574642Y415730D01*
X574694Y415506D01*
X574751Y415283D01*
X574813Y415062D01*
X574881Y414842D01*
X574954Y414624D01*
X575032Y414408D01*
X575115Y414194D01*
X575203Y413982D01*
X575296Y413771D01*
X575395Y413564D01*
X575428Y413474D01*
X575464Y413385D01*
X575505Y413297D01*
X575548Y413212D01*
X575595Y413128D01*
X575645Y413046D01*
X575699Y412966D01*
X575755Y412889D01*
X575815Y412813D01*
X575878Y412740D01*
X575943Y412670D01*
X576012Y412602D01*
X576083Y412538D01*
X576156Y412476D01*
X576232Y412417D01*
X576310Y412361D01*
X576391Y412308D01*
X576473Y412259D01*
X576557Y412213D01*
X576644Y412170D01*
X576731Y412131D01*
X576821Y412095D01*
X576911Y412063D01*
X577003Y412035D01*
X577096Y412010D01*
X577190Y411989D01*
X577284Y411972D01*
X577379Y411958D01*
X577475Y411949D01*
X577571Y411943D01*
X577667Y411941D01*
X579938Y413564D02*
X580037Y413771D01*
X580130Y413982D01*
X580218Y414194D01*
X580301Y414408D01*
X580379Y414624D01*
X580452Y414842D01*
X580520Y415062D01*
X580582Y415283D01*
X580639Y415506D01*
X580691Y415730D01*
X580737Y415955D01*
X580778Y416181D01*
X580813Y416408D01*
X580843Y416636D01*
X580868Y416865D01*
X580887Y417094D01*
X580901Y417323D01*
X580909Y417553D01*
X580912Y417783D01*
X579939Y413564D02*
X579906Y413474D01*
X579870Y413385D01*
X579830Y413297D01*
X579786Y413212D01*
X579739Y413128D01*
X579689Y413046D01*
X579635Y412966D01*
X579579Y412889D01*
X579519Y412813D01*
X579456Y412740D01*
X579391Y412670D01*
X579322Y412602D01*
X579251Y412538D01*
X579178Y412476D01*
X579102Y412417D01*
X579024Y412361D01*
X578943Y412308D01*
X578861Y412259D01*
X578777Y412213D01*
X578690Y412170D01*
X578603Y412131D01*
X578513Y412095D01*
X578423Y412063D01*
X578331Y412035D01*
X578238Y412010D01*
X578144Y411989D01*
X578050Y411972D01*
X577955Y411958D01*
X577859Y411949D01*
X577763Y411943D01*
X577667Y411941D01*
X575070Y414537D02*
X580263Y421029D01*
X585851Y421029D02*
X589097Y423625D01*
X589097Y411941D01*
X592342Y411941D02*
X585851Y411941D01*
X599877Y417134D02*
X603772Y417134D01*
X599877Y417134D02*
X599778Y417136D01*
X599678Y417142D01*
X599579Y417151D01*
X599481Y417164D01*
X599383Y417181D01*
X599285Y417202D01*
X599189Y417227D01*
X599094Y417255D01*
X599000Y417287D01*
X598907Y417322D01*
X598815Y417361D01*
X598725Y417404D01*
X598637Y417449D01*
X598550Y417499D01*
X598466Y417551D01*
X598383Y417607D01*
X598303Y417665D01*
X598225Y417727D01*
X598150Y417792D01*
X598077Y417860D01*
X598007Y417930D01*
X597939Y418003D01*
X597874Y418078D01*
X597812Y418156D01*
X597754Y418236D01*
X597698Y418319D01*
X597646Y418403D01*
X597596Y418490D01*
X597551Y418578D01*
X597508Y418668D01*
X597469Y418760D01*
X597434Y418853D01*
X597402Y418947D01*
X597374Y419042D01*
X597349Y419138D01*
X597328Y419236D01*
X597311Y419334D01*
X597298Y419432D01*
X597289Y419531D01*
X597283Y419631D01*
X597281Y419730D01*
X597281Y420379D01*
X597280Y420379D02*
X597282Y420492D01*
X597288Y420605D01*
X597298Y420718D01*
X597312Y420831D01*
X597329Y420943D01*
X597351Y421054D01*
X597376Y421164D01*
X597406Y421274D01*
X597439Y421382D01*
X597476Y421489D01*
X597516Y421595D01*
X597561Y421699D01*
X597609Y421802D01*
X597660Y421903D01*
X597715Y422002D01*
X597773Y422099D01*
X597835Y422194D01*
X597900Y422287D01*
X597968Y422377D01*
X598039Y422465D01*
X598114Y422551D01*
X598191Y422634D01*
X598271Y422714D01*
X598354Y422791D01*
X598440Y422866D01*
X598528Y422937D01*
X598618Y423005D01*
X598711Y423070D01*
X598806Y423132D01*
X598903Y423190D01*
X599002Y423245D01*
X599103Y423296D01*
X599206Y423344D01*
X599310Y423389D01*
X599416Y423429D01*
X599523Y423466D01*
X599631Y423499D01*
X599741Y423529D01*
X599851Y423554D01*
X599962Y423576D01*
X600074Y423593D01*
X600187Y423607D01*
X600300Y423617D01*
X600413Y423623D01*
X600526Y423625D01*
X600639Y423623D01*
X600752Y423617D01*
X600865Y423607D01*
X600978Y423593D01*
X601090Y423576D01*
X601201Y423554D01*
X601311Y423529D01*
X601421Y423499D01*
X601529Y423466D01*
X601636Y423429D01*
X601742Y423389D01*
X601846Y423344D01*
X601949Y423296D01*
X602050Y423245D01*
X602149Y423190D01*
X602246Y423132D01*
X602341Y423070D01*
X602434Y423005D01*
X602524Y422937D01*
X602612Y422866D01*
X602698Y422791D01*
X602781Y422714D01*
X602861Y422634D01*
X602938Y422551D01*
X603013Y422465D01*
X603084Y422377D01*
X603152Y422287D01*
X603217Y422194D01*
X603279Y422099D01*
X603337Y422002D01*
X603392Y421903D01*
X603443Y421802D01*
X603491Y421699D01*
X603536Y421595D01*
X603576Y421489D01*
X603613Y421382D01*
X603646Y421274D01*
X603676Y421164D01*
X603701Y421054D01*
X603723Y420943D01*
X603740Y420831D01*
X603754Y420718D01*
X603764Y420605D01*
X603770Y420492D01*
X603772Y420379D01*
X603772Y417134D01*
X603770Y416991D01*
X603764Y416848D01*
X603754Y416705D01*
X603740Y416563D01*
X603723Y416421D01*
X603701Y416279D01*
X603676Y416138D01*
X603646Y415998D01*
X603613Y415859D01*
X603576Y415721D01*
X603535Y415584D01*
X603491Y415448D01*
X603442Y415313D01*
X603390Y415180D01*
X603335Y415048D01*
X603275Y414918D01*
X603212Y414789D01*
X603146Y414662D01*
X603076Y414537D01*
X603003Y414415D01*
X602926Y414294D01*
X602846Y414175D01*
X602763Y414059D01*
X602677Y413944D01*
X602588Y413833D01*
X602495Y413723D01*
X602400Y413617D01*
X602301Y413513D01*
X602200Y413412D01*
X602096Y413313D01*
X601990Y413218D01*
X601880Y413125D01*
X601769Y413036D01*
X601654Y412950D01*
X601538Y412867D01*
X601419Y412787D01*
X601298Y412710D01*
X601176Y412637D01*
X601051Y412567D01*
X600924Y412501D01*
X600795Y412438D01*
X600665Y412378D01*
X600533Y412323D01*
X600400Y412271D01*
X600265Y412222D01*
X600129Y412178D01*
X599992Y412137D01*
X599854Y412100D01*
X599715Y412067D01*
X599575Y412037D01*
X599434Y412012D01*
X599292Y411990D01*
X599150Y411973D01*
X599008Y411959D01*
X598865Y411949D01*
X598722Y411943D01*
X598579Y411941D01*
D16*
X279400Y203200D02*
X279400Y685800D01*
X101600Y685800D01*
X101600Y203200D01*
X279400Y203200D01*
D13*
X221460Y195707D02*
X221460Y184023D01*
X225355Y189216D02*
X221460Y195707D01*
X225355Y189216D02*
X229249Y195707D01*
X229249Y184023D01*
X235642Y184023D02*
X235642Y195707D01*
X234343Y184023D02*
X236940Y184023D01*
X236940Y195707D02*
X234343Y195707D01*
X244103Y184023D02*
X246700Y184023D01*
X244103Y184023D02*
X244004Y184025D01*
X243904Y184031D01*
X243805Y184040D01*
X243707Y184053D01*
X243609Y184070D01*
X243511Y184091D01*
X243415Y184116D01*
X243320Y184144D01*
X243226Y184176D01*
X243133Y184211D01*
X243041Y184250D01*
X242951Y184293D01*
X242863Y184338D01*
X242776Y184388D01*
X242692Y184440D01*
X242609Y184496D01*
X242529Y184554D01*
X242451Y184616D01*
X242376Y184681D01*
X242303Y184749D01*
X242233Y184819D01*
X242165Y184892D01*
X242100Y184967D01*
X242038Y185045D01*
X241980Y185125D01*
X241924Y185208D01*
X241872Y185292D01*
X241822Y185379D01*
X241777Y185467D01*
X241734Y185557D01*
X241695Y185649D01*
X241660Y185742D01*
X241628Y185836D01*
X241600Y185931D01*
X241575Y186027D01*
X241554Y186125D01*
X241537Y186223D01*
X241524Y186321D01*
X241515Y186420D01*
X241509Y186520D01*
X241507Y186619D01*
X241507Y193111D01*
X241509Y193210D01*
X241515Y193310D01*
X241524Y193409D01*
X241537Y193507D01*
X241554Y193605D01*
X241575Y193703D01*
X241600Y193799D01*
X241628Y193894D01*
X241660Y193988D01*
X241695Y194081D01*
X241734Y194173D01*
X241777Y194263D01*
X241822Y194351D01*
X241872Y194438D01*
X241924Y194522D01*
X241980Y194605D01*
X242038Y194685D01*
X242100Y194763D01*
X242165Y194838D01*
X242233Y194911D01*
X242303Y194981D01*
X242376Y195049D01*
X242451Y195114D01*
X242529Y195176D01*
X242609Y195234D01*
X242692Y195290D01*
X242776Y195342D01*
X242863Y195392D01*
X242951Y195437D01*
X243041Y195480D01*
X243133Y195519D01*
X243225Y195554D01*
X243320Y195586D01*
X243415Y195614D01*
X243511Y195639D01*
X243609Y195660D01*
X243707Y195677D01*
X243805Y195690D01*
X243904Y195699D01*
X244004Y195705D01*
X244103Y195707D01*
X246700Y195707D01*
X251520Y195707D02*
X251520Y184023D01*
X251520Y195707D02*
X254765Y195707D01*
X254878Y195705D01*
X254991Y195699D01*
X255104Y195689D01*
X255217Y195675D01*
X255329Y195658D01*
X255440Y195636D01*
X255550Y195611D01*
X255660Y195581D01*
X255768Y195548D01*
X255875Y195511D01*
X255981Y195471D01*
X256085Y195426D01*
X256188Y195378D01*
X256289Y195327D01*
X256388Y195272D01*
X256485Y195214D01*
X256580Y195152D01*
X256673Y195087D01*
X256763Y195019D01*
X256851Y194948D01*
X256937Y194873D01*
X257020Y194796D01*
X257100Y194716D01*
X257177Y194633D01*
X257252Y194547D01*
X257323Y194459D01*
X257391Y194369D01*
X257456Y194276D01*
X257518Y194181D01*
X257576Y194084D01*
X257631Y193985D01*
X257682Y193884D01*
X257730Y193781D01*
X257775Y193677D01*
X257815Y193571D01*
X257852Y193464D01*
X257885Y193356D01*
X257915Y193246D01*
X257940Y193136D01*
X257962Y193025D01*
X257979Y192913D01*
X257993Y192800D01*
X258003Y192687D01*
X258009Y192574D01*
X258011Y192461D01*
X258009Y192348D01*
X258003Y192235D01*
X257993Y192122D01*
X257979Y192009D01*
X257962Y191897D01*
X257940Y191786D01*
X257915Y191676D01*
X257885Y191566D01*
X257852Y191458D01*
X257815Y191351D01*
X257775Y191245D01*
X257730Y191141D01*
X257682Y191038D01*
X257631Y190937D01*
X257576Y190838D01*
X257518Y190741D01*
X257456Y190646D01*
X257391Y190553D01*
X257323Y190463D01*
X257252Y190375D01*
X257177Y190289D01*
X257100Y190206D01*
X257020Y190126D01*
X256937Y190049D01*
X256851Y189974D01*
X256763Y189903D01*
X256673Y189835D01*
X256580Y189770D01*
X256485Y189708D01*
X256388Y189650D01*
X256289Y189595D01*
X256188Y189544D01*
X256085Y189496D01*
X255981Y189451D01*
X255875Y189411D01*
X255768Y189374D01*
X255660Y189341D01*
X255550Y189311D01*
X255440Y189286D01*
X255329Y189264D01*
X255217Y189247D01*
X255104Y189233D01*
X254991Y189223D01*
X254878Y189217D01*
X254765Y189215D01*
X254765Y189216D02*
X251520Y189216D01*
X255414Y189216D02*
X258011Y184023D01*
X262876Y187269D02*
X262876Y192461D01*
X262875Y192461D02*
X262877Y192574D01*
X262883Y192687D01*
X262893Y192800D01*
X262907Y192913D01*
X262924Y193025D01*
X262946Y193136D01*
X262971Y193246D01*
X263001Y193356D01*
X263034Y193464D01*
X263071Y193571D01*
X263111Y193677D01*
X263156Y193781D01*
X263204Y193884D01*
X263255Y193985D01*
X263310Y194084D01*
X263368Y194181D01*
X263430Y194276D01*
X263495Y194369D01*
X263563Y194459D01*
X263634Y194547D01*
X263709Y194633D01*
X263786Y194716D01*
X263866Y194796D01*
X263949Y194873D01*
X264035Y194948D01*
X264123Y195019D01*
X264213Y195087D01*
X264306Y195152D01*
X264401Y195214D01*
X264498Y195272D01*
X264597Y195327D01*
X264698Y195378D01*
X264801Y195426D01*
X264905Y195471D01*
X265011Y195511D01*
X265118Y195548D01*
X265226Y195581D01*
X265336Y195611D01*
X265446Y195636D01*
X265557Y195658D01*
X265669Y195675D01*
X265782Y195689D01*
X265895Y195699D01*
X266008Y195705D01*
X266121Y195707D01*
X266234Y195705D01*
X266347Y195699D01*
X266460Y195689D01*
X266573Y195675D01*
X266685Y195658D01*
X266796Y195636D01*
X266906Y195611D01*
X267016Y195581D01*
X267124Y195548D01*
X267231Y195511D01*
X267337Y195471D01*
X267441Y195426D01*
X267544Y195378D01*
X267645Y195327D01*
X267744Y195272D01*
X267841Y195214D01*
X267936Y195152D01*
X268029Y195087D01*
X268119Y195019D01*
X268207Y194948D01*
X268293Y194873D01*
X268376Y194796D01*
X268456Y194716D01*
X268533Y194633D01*
X268608Y194547D01*
X268679Y194459D01*
X268747Y194369D01*
X268812Y194276D01*
X268874Y194181D01*
X268932Y194084D01*
X268987Y193985D01*
X269038Y193884D01*
X269086Y193781D01*
X269131Y193677D01*
X269171Y193571D01*
X269208Y193464D01*
X269241Y193356D01*
X269271Y193246D01*
X269296Y193136D01*
X269318Y193025D01*
X269335Y192913D01*
X269349Y192800D01*
X269359Y192687D01*
X269365Y192574D01*
X269367Y192461D01*
X269367Y187269D01*
X269365Y187156D01*
X269359Y187043D01*
X269349Y186930D01*
X269335Y186817D01*
X269318Y186705D01*
X269296Y186594D01*
X269271Y186484D01*
X269241Y186374D01*
X269208Y186266D01*
X269171Y186159D01*
X269131Y186053D01*
X269086Y185949D01*
X269038Y185846D01*
X268987Y185745D01*
X268932Y185646D01*
X268874Y185549D01*
X268812Y185454D01*
X268747Y185361D01*
X268679Y185271D01*
X268608Y185183D01*
X268533Y185097D01*
X268456Y185014D01*
X268376Y184934D01*
X268293Y184857D01*
X268207Y184782D01*
X268119Y184711D01*
X268029Y184643D01*
X267936Y184578D01*
X267841Y184516D01*
X267744Y184458D01*
X267645Y184403D01*
X267544Y184352D01*
X267441Y184304D01*
X267337Y184259D01*
X267231Y184219D01*
X267124Y184182D01*
X267016Y184149D01*
X266906Y184119D01*
X266796Y184094D01*
X266685Y184072D01*
X266573Y184055D01*
X266460Y184041D01*
X266347Y184031D01*
X266234Y184025D01*
X266121Y184023D01*
X266008Y184025D01*
X265895Y184031D01*
X265782Y184041D01*
X265669Y184055D01*
X265557Y184072D01*
X265446Y184094D01*
X265336Y184119D01*
X265226Y184149D01*
X265118Y184182D01*
X265011Y184219D01*
X264905Y184259D01*
X264801Y184304D01*
X264698Y184352D01*
X264597Y184403D01*
X264498Y184458D01*
X264401Y184516D01*
X264306Y184578D01*
X264213Y184643D01*
X264123Y184711D01*
X264035Y184782D01*
X263949Y184857D01*
X263866Y184934D01*
X263786Y185014D01*
X263709Y185097D01*
X263634Y185183D01*
X263563Y185271D01*
X263495Y185361D01*
X263430Y185454D01*
X263368Y185549D01*
X263310Y185646D01*
X263255Y185745D01*
X263204Y185846D01*
X263156Y185949D01*
X263111Y186053D01*
X263071Y186159D01*
X263034Y186266D01*
X263001Y186374D01*
X262971Y186484D01*
X262946Y186594D01*
X262924Y186705D01*
X262907Y186817D01*
X262893Y186930D01*
X262883Y187043D01*
X262877Y187156D01*
X262875Y187269D01*
D10*
X482600Y440690D02*
X482602Y440790D01*
X482608Y440889D01*
X482618Y440989D01*
X482631Y441087D01*
X482649Y441186D01*
X482670Y441283D01*
X482695Y441379D01*
X482724Y441475D01*
X482757Y441569D01*
X482793Y441662D01*
X482833Y441753D01*
X482877Y441843D01*
X482924Y441931D01*
X482974Y442017D01*
X483028Y442101D01*
X483085Y442183D01*
X483145Y442262D01*
X483209Y442340D01*
X483275Y442414D01*
X483344Y442486D01*
X483416Y442555D01*
X483490Y442621D01*
X483568Y442685D01*
X483647Y442745D01*
X483729Y442802D01*
X483813Y442856D01*
X483899Y442906D01*
X483987Y442953D01*
X484077Y442997D01*
X484168Y443037D01*
X484261Y443073D01*
X484355Y443106D01*
X484451Y443135D01*
X484547Y443160D01*
X484644Y443181D01*
X484743Y443199D01*
X484841Y443212D01*
X484941Y443222D01*
X485040Y443228D01*
X485140Y443230D01*
X482600Y422910D02*
X482602Y422810D01*
X482608Y422711D01*
X482618Y422611D01*
X482631Y422513D01*
X482649Y422414D01*
X482670Y422317D01*
X482695Y422221D01*
X482724Y422125D01*
X482757Y422031D01*
X482793Y421938D01*
X482833Y421847D01*
X482877Y421757D01*
X482924Y421669D01*
X482974Y421583D01*
X483028Y421499D01*
X483085Y421417D01*
X483145Y421338D01*
X483209Y421260D01*
X483275Y421186D01*
X483344Y421114D01*
X483416Y421045D01*
X483490Y420979D01*
X483568Y420915D01*
X483647Y420855D01*
X483729Y420798D01*
X483813Y420744D01*
X483899Y420694D01*
X483987Y420647D01*
X484077Y420603D01*
X484168Y420563D01*
X484261Y420527D01*
X484355Y420494D01*
X484451Y420465D01*
X484547Y420440D01*
X484644Y420419D01*
X484743Y420401D01*
X484841Y420388D01*
X484941Y420378D01*
X485040Y420372D01*
X485140Y420370D01*
X543560Y420370D02*
X543660Y420372D01*
X543759Y420378D01*
X543859Y420388D01*
X543957Y420401D01*
X544056Y420419D01*
X544153Y420440D01*
X544249Y420465D01*
X544345Y420494D01*
X544439Y420527D01*
X544532Y420563D01*
X544623Y420603D01*
X544713Y420647D01*
X544801Y420694D01*
X544887Y420744D01*
X544971Y420798D01*
X545053Y420855D01*
X545132Y420915D01*
X545210Y420979D01*
X545284Y421045D01*
X545356Y421114D01*
X545425Y421186D01*
X545491Y421260D01*
X545555Y421338D01*
X545615Y421417D01*
X545672Y421499D01*
X545726Y421583D01*
X545776Y421669D01*
X545823Y421757D01*
X545867Y421847D01*
X545907Y421938D01*
X545943Y422031D01*
X545976Y422125D01*
X546005Y422221D01*
X546030Y422317D01*
X546051Y422414D01*
X546069Y422513D01*
X546082Y422611D01*
X546092Y422711D01*
X546098Y422810D01*
X546100Y422910D01*
X546100Y440690D02*
X546098Y440790D01*
X546092Y440889D01*
X546082Y440989D01*
X546069Y441087D01*
X546051Y441186D01*
X546030Y441283D01*
X546005Y441379D01*
X545976Y441475D01*
X545943Y441569D01*
X545907Y441662D01*
X545867Y441753D01*
X545823Y441843D01*
X545776Y441931D01*
X545726Y442017D01*
X545672Y442101D01*
X545615Y442183D01*
X545555Y442262D01*
X545491Y442340D01*
X545425Y442414D01*
X545356Y442486D01*
X545284Y442555D01*
X545210Y442621D01*
X545132Y442685D01*
X545053Y442745D01*
X544971Y442802D01*
X544887Y442856D01*
X544801Y442906D01*
X544713Y442953D01*
X544623Y442997D01*
X544532Y443037D01*
X544439Y443073D01*
X544345Y443106D01*
X544249Y443135D01*
X544153Y443160D01*
X544056Y443181D01*
X543957Y443199D01*
X543859Y443212D01*
X543759Y443222D01*
X543660Y443228D01*
X543560Y443230D01*
X482600Y440690D02*
X482600Y422910D01*
X485140Y443230D02*
X488950Y443230D01*
X490220Y441960D01*
X488950Y420370D02*
X485140Y420370D01*
X488950Y420370D02*
X490220Y421640D01*
X538480Y441960D02*
X539750Y443230D01*
X538480Y441960D02*
X490220Y441960D01*
X538480Y421640D02*
X539750Y420370D01*
X538480Y421640D02*
X490220Y421640D01*
X539750Y443230D02*
X543560Y443230D01*
X543560Y420370D02*
X539750Y420370D01*
X546100Y422910D02*
X546100Y440690D01*
D14*
X554990Y431800D02*
X558800Y431800D01*
X473710Y431800D02*
X469900Y431800D01*
D15*
X550418Y431800D03*
X478282Y431800D03*
X563118Y431800D03*
X465582Y431800D03*
D16*
X483235Y446405D02*
X483235Y457835D01*
X486410Y457835D01*
X486521Y457833D01*
X486631Y457827D01*
X486742Y457818D01*
X486852Y457804D01*
X486961Y457787D01*
X487070Y457766D01*
X487178Y457741D01*
X487285Y457712D01*
X487391Y457680D01*
X487496Y457644D01*
X487599Y457604D01*
X487701Y457561D01*
X487802Y457514D01*
X487901Y457463D01*
X487998Y457410D01*
X488092Y457353D01*
X488185Y457292D01*
X488276Y457229D01*
X488365Y457162D01*
X488451Y457092D01*
X488534Y457019D01*
X488616Y456944D01*
X488694Y456866D01*
X488769Y456784D01*
X488842Y456701D01*
X488912Y456615D01*
X488979Y456526D01*
X489042Y456435D01*
X489103Y456342D01*
X489160Y456247D01*
X489213Y456151D01*
X489264Y456052D01*
X489311Y455951D01*
X489354Y455849D01*
X489394Y455746D01*
X489430Y455641D01*
X489462Y455535D01*
X489491Y455428D01*
X489516Y455320D01*
X489537Y455211D01*
X489554Y455102D01*
X489568Y454992D01*
X489577Y454881D01*
X489583Y454771D01*
X489585Y454660D01*
X489583Y454549D01*
X489577Y454439D01*
X489568Y454328D01*
X489554Y454218D01*
X489537Y454109D01*
X489516Y454000D01*
X489491Y453892D01*
X489462Y453785D01*
X489430Y453679D01*
X489394Y453574D01*
X489354Y453471D01*
X489311Y453369D01*
X489264Y453268D01*
X489213Y453169D01*
X489160Y453072D01*
X489103Y452978D01*
X489042Y452885D01*
X488979Y452794D01*
X488912Y452705D01*
X488842Y452619D01*
X488769Y452536D01*
X488694Y452454D01*
X488616Y452376D01*
X488534Y452301D01*
X488451Y452228D01*
X488365Y452158D01*
X488276Y452091D01*
X488185Y452028D01*
X488092Y451967D01*
X487998Y451910D01*
X487901Y451857D01*
X487802Y451806D01*
X487701Y451759D01*
X487599Y451716D01*
X487496Y451676D01*
X487391Y451640D01*
X487285Y451608D01*
X487178Y451579D01*
X487070Y451554D01*
X486961Y451533D01*
X486852Y451516D01*
X486742Y451502D01*
X486631Y451493D01*
X486521Y451487D01*
X486410Y451485D01*
X483235Y451485D01*
X487045Y451485D02*
X489585Y446405D01*
X497122Y451485D02*
X500932Y451485D01*
X497122Y451485D02*
X497022Y451487D01*
X496923Y451493D01*
X496823Y451503D01*
X496725Y451516D01*
X496626Y451534D01*
X496529Y451555D01*
X496433Y451580D01*
X496337Y451609D01*
X496243Y451642D01*
X496150Y451678D01*
X496059Y451718D01*
X495969Y451762D01*
X495881Y451809D01*
X495795Y451859D01*
X495711Y451913D01*
X495629Y451970D01*
X495550Y452030D01*
X495472Y452094D01*
X495398Y452160D01*
X495326Y452229D01*
X495257Y452301D01*
X495191Y452375D01*
X495127Y452453D01*
X495067Y452532D01*
X495010Y452614D01*
X494956Y452698D01*
X494906Y452784D01*
X494859Y452872D01*
X494815Y452962D01*
X494775Y453053D01*
X494739Y453146D01*
X494706Y453240D01*
X494677Y453336D01*
X494652Y453432D01*
X494631Y453529D01*
X494613Y453628D01*
X494600Y453726D01*
X494590Y453826D01*
X494584Y453925D01*
X494582Y454025D01*
X494582Y454660D01*
X494584Y454771D01*
X494590Y454881D01*
X494599Y454992D01*
X494613Y455102D01*
X494630Y455211D01*
X494651Y455320D01*
X494676Y455428D01*
X494705Y455535D01*
X494737Y455641D01*
X494773Y455746D01*
X494813Y455849D01*
X494856Y455951D01*
X494903Y456052D01*
X494954Y456151D01*
X495007Y456248D01*
X495064Y456342D01*
X495125Y456435D01*
X495188Y456526D01*
X495255Y456615D01*
X495325Y456701D01*
X495398Y456784D01*
X495473Y456866D01*
X495551Y456944D01*
X495633Y457019D01*
X495716Y457092D01*
X495802Y457162D01*
X495891Y457229D01*
X495982Y457292D01*
X496075Y457353D01*
X496170Y457410D01*
X496266Y457463D01*
X496365Y457514D01*
X496466Y457561D01*
X496568Y457604D01*
X496671Y457644D01*
X496776Y457680D01*
X496882Y457712D01*
X496989Y457741D01*
X497097Y457766D01*
X497206Y457787D01*
X497315Y457804D01*
X497425Y457818D01*
X497536Y457827D01*
X497646Y457833D01*
X497757Y457835D01*
X497868Y457833D01*
X497978Y457827D01*
X498089Y457818D01*
X498199Y457804D01*
X498308Y457787D01*
X498417Y457766D01*
X498525Y457741D01*
X498632Y457712D01*
X498738Y457680D01*
X498843Y457644D01*
X498946Y457604D01*
X499048Y457561D01*
X499149Y457514D01*
X499248Y457463D01*
X499345Y457410D01*
X499439Y457353D01*
X499532Y457292D01*
X499623Y457229D01*
X499712Y457162D01*
X499798Y457092D01*
X499881Y457019D01*
X499963Y456944D01*
X500041Y456866D01*
X500116Y456784D01*
X500189Y456701D01*
X500259Y456615D01*
X500326Y456526D01*
X500389Y456435D01*
X500450Y456342D01*
X500507Y456248D01*
X500560Y456151D01*
X500611Y456052D01*
X500658Y455951D01*
X500701Y455849D01*
X500741Y455746D01*
X500777Y455641D01*
X500809Y455535D01*
X500838Y455428D01*
X500863Y455320D01*
X500884Y455211D01*
X500901Y455102D01*
X500915Y454992D01*
X500924Y454881D01*
X500930Y454771D01*
X500932Y454660D01*
X500932Y451485D01*
X500930Y451345D01*
X500924Y451205D01*
X500915Y451065D01*
X500901Y450926D01*
X500884Y450787D01*
X500863Y450649D01*
X500838Y450511D01*
X500809Y450374D01*
X500777Y450238D01*
X500740Y450103D01*
X500700Y449969D01*
X500657Y449836D01*
X500609Y449704D01*
X500559Y449573D01*
X500504Y449444D01*
X500446Y449317D01*
X500385Y449191D01*
X500320Y449067D01*
X500251Y448945D01*
X500180Y448825D01*
X500105Y448707D01*
X500027Y448590D01*
X499945Y448476D01*
X499861Y448365D01*
X499773Y448256D01*
X499683Y448149D01*
X499589Y448044D01*
X499493Y447943D01*
X499394Y447844D01*
X499293Y447748D01*
X499188Y447654D01*
X499081Y447564D01*
X498972Y447476D01*
X498861Y447392D01*
X498747Y447310D01*
X498630Y447232D01*
X498512Y447157D01*
X498392Y447086D01*
X498270Y447017D01*
X498146Y446952D01*
X498020Y446891D01*
X497893Y446833D01*
X497764Y446778D01*
X497633Y446728D01*
X497501Y446680D01*
X497368Y446637D01*
X497234Y446597D01*
X497099Y446560D01*
X496963Y446528D01*
X496826Y446499D01*
X496688Y446474D01*
X496550Y446453D01*
X496411Y446436D01*
X496272Y446422D01*
X496132Y446413D01*
X495992Y446407D01*
X495852Y446405D01*
D10*
X543560Y547370D02*
X543660Y547372D01*
X543759Y547378D01*
X543859Y547388D01*
X543957Y547401D01*
X544056Y547419D01*
X544153Y547440D01*
X544249Y547465D01*
X544345Y547494D01*
X544439Y547527D01*
X544532Y547563D01*
X544623Y547603D01*
X544713Y547647D01*
X544801Y547694D01*
X544887Y547744D01*
X544971Y547798D01*
X545053Y547855D01*
X545132Y547915D01*
X545210Y547979D01*
X545284Y548045D01*
X545356Y548114D01*
X545425Y548186D01*
X545491Y548260D01*
X545555Y548338D01*
X545615Y548417D01*
X545672Y548499D01*
X545726Y548583D01*
X545776Y548669D01*
X545823Y548757D01*
X545867Y548847D01*
X545907Y548938D01*
X545943Y549031D01*
X545976Y549125D01*
X546005Y549221D01*
X546030Y549317D01*
X546051Y549414D01*
X546069Y549513D01*
X546082Y549611D01*
X546092Y549711D01*
X546098Y549810D01*
X546100Y549910D01*
X546100Y567690D02*
X546098Y567790D01*
X546092Y567889D01*
X546082Y567989D01*
X546069Y568087D01*
X546051Y568186D01*
X546030Y568283D01*
X546005Y568379D01*
X545976Y568475D01*
X545943Y568569D01*
X545907Y568662D01*
X545867Y568753D01*
X545823Y568843D01*
X545776Y568931D01*
X545726Y569017D01*
X545672Y569101D01*
X545615Y569183D01*
X545555Y569262D01*
X545491Y569340D01*
X545425Y569414D01*
X545356Y569486D01*
X545284Y569555D01*
X545210Y569621D01*
X545132Y569685D01*
X545053Y569745D01*
X544971Y569802D01*
X544887Y569856D01*
X544801Y569906D01*
X544713Y569953D01*
X544623Y569997D01*
X544532Y570037D01*
X544439Y570073D01*
X544345Y570106D01*
X544249Y570135D01*
X544153Y570160D01*
X544056Y570181D01*
X543957Y570199D01*
X543859Y570212D01*
X543759Y570222D01*
X543660Y570228D01*
X543560Y570230D01*
X485140Y570230D02*
X485040Y570228D01*
X484941Y570222D01*
X484841Y570212D01*
X484743Y570199D01*
X484644Y570181D01*
X484547Y570160D01*
X484451Y570135D01*
X484355Y570106D01*
X484261Y570073D01*
X484168Y570037D01*
X484077Y569997D01*
X483987Y569953D01*
X483899Y569906D01*
X483813Y569856D01*
X483729Y569802D01*
X483647Y569745D01*
X483568Y569685D01*
X483490Y569621D01*
X483416Y569555D01*
X483344Y569486D01*
X483275Y569414D01*
X483209Y569340D01*
X483145Y569262D01*
X483085Y569183D01*
X483028Y569101D01*
X482974Y569017D01*
X482924Y568931D01*
X482877Y568843D01*
X482833Y568753D01*
X482793Y568662D01*
X482757Y568569D01*
X482724Y568475D01*
X482695Y568379D01*
X482670Y568283D01*
X482649Y568186D01*
X482631Y568087D01*
X482618Y567989D01*
X482608Y567889D01*
X482602Y567790D01*
X482600Y567690D01*
X482600Y549910D02*
X482602Y549810D01*
X482608Y549711D01*
X482618Y549611D01*
X482631Y549513D01*
X482649Y549414D01*
X482670Y549317D01*
X482695Y549221D01*
X482724Y549125D01*
X482757Y549031D01*
X482793Y548938D01*
X482833Y548847D01*
X482877Y548757D01*
X482924Y548669D01*
X482974Y548583D01*
X483028Y548499D01*
X483085Y548417D01*
X483145Y548338D01*
X483209Y548260D01*
X483275Y548186D01*
X483344Y548114D01*
X483416Y548045D01*
X483490Y547979D01*
X483568Y547915D01*
X483647Y547855D01*
X483729Y547798D01*
X483813Y547744D01*
X483899Y547694D01*
X483987Y547647D01*
X484077Y547603D01*
X484168Y547563D01*
X484261Y547527D01*
X484355Y547494D01*
X484451Y547465D01*
X484547Y547440D01*
X484644Y547419D01*
X484743Y547401D01*
X484841Y547388D01*
X484941Y547378D01*
X485040Y547372D01*
X485140Y547370D01*
X546100Y549910D02*
X546100Y567690D01*
X543560Y547370D02*
X539750Y547370D01*
X538480Y548640D01*
X539750Y570230D02*
X543560Y570230D01*
X539750Y570230D02*
X538480Y568960D01*
X490220Y548640D02*
X488950Y547370D01*
X490220Y548640D02*
X538480Y548640D01*
X490220Y568960D02*
X488950Y570230D01*
X490220Y568960D02*
X538480Y568960D01*
X488950Y547370D02*
X485140Y547370D01*
X485140Y570230D02*
X488950Y570230D01*
X482600Y567690D02*
X482600Y549910D01*
D14*
X473710Y558800D02*
X469900Y558800D01*
X554990Y558800D02*
X558800Y558800D01*
D15*
X478282Y558800D03*
X550418Y558800D03*
X465582Y558800D03*
X563118Y558800D03*
D16*
X516338Y544195D02*
X516338Y532765D01*
X516338Y544195D02*
X519513Y544195D01*
X519624Y544193D01*
X519734Y544187D01*
X519845Y544178D01*
X519955Y544164D01*
X520064Y544147D01*
X520173Y544126D01*
X520281Y544101D01*
X520388Y544072D01*
X520494Y544040D01*
X520599Y544004D01*
X520702Y543964D01*
X520804Y543921D01*
X520905Y543874D01*
X521004Y543823D01*
X521101Y543770D01*
X521195Y543713D01*
X521288Y543652D01*
X521379Y543589D01*
X521468Y543522D01*
X521554Y543452D01*
X521637Y543379D01*
X521719Y543304D01*
X521797Y543226D01*
X521872Y543144D01*
X521945Y543061D01*
X522015Y542975D01*
X522082Y542886D01*
X522145Y542795D01*
X522206Y542702D01*
X522263Y542607D01*
X522316Y542511D01*
X522367Y542412D01*
X522414Y542311D01*
X522457Y542209D01*
X522497Y542106D01*
X522533Y542001D01*
X522565Y541895D01*
X522594Y541788D01*
X522619Y541680D01*
X522640Y541571D01*
X522657Y541462D01*
X522671Y541352D01*
X522680Y541241D01*
X522686Y541131D01*
X522688Y541020D01*
X522686Y540909D01*
X522680Y540799D01*
X522671Y540688D01*
X522657Y540578D01*
X522640Y540469D01*
X522619Y540360D01*
X522594Y540252D01*
X522565Y540145D01*
X522533Y540039D01*
X522497Y539934D01*
X522457Y539831D01*
X522414Y539729D01*
X522367Y539628D01*
X522316Y539529D01*
X522263Y539433D01*
X522206Y539338D01*
X522145Y539245D01*
X522082Y539154D01*
X522015Y539065D01*
X521945Y538979D01*
X521872Y538896D01*
X521797Y538814D01*
X521719Y538736D01*
X521637Y538661D01*
X521554Y538588D01*
X521468Y538518D01*
X521379Y538451D01*
X521288Y538388D01*
X521195Y538327D01*
X521101Y538270D01*
X521004Y538217D01*
X520905Y538166D01*
X520804Y538119D01*
X520702Y538076D01*
X520599Y538036D01*
X520494Y538000D01*
X520388Y537968D01*
X520281Y537939D01*
X520173Y537914D01*
X520064Y537893D01*
X519955Y537876D01*
X519845Y537862D01*
X519734Y537853D01*
X519624Y537847D01*
X519513Y537845D01*
X516338Y537845D01*
X520148Y537845D02*
X522688Y532765D01*
X527685Y541655D02*
X530860Y544195D01*
X530860Y532765D01*
X527685Y532765D02*
X534035Y532765D01*
X539115Y538480D02*
X539118Y538705D01*
X539126Y538930D01*
X539139Y539154D01*
X539158Y539378D01*
X539182Y539602D01*
X539211Y539825D01*
X539246Y540047D01*
X539286Y540268D01*
X539332Y540488D01*
X539382Y540707D01*
X539438Y540925D01*
X539499Y541142D01*
X539565Y541357D01*
X539636Y541570D01*
X539713Y541781D01*
X539794Y541991D01*
X539880Y542199D01*
X539971Y542404D01*
X540067Y542607D01*
X540067Y542608D02*
X540099Y542696D01*
X540135Y542783D01*
X540174Y542869D01*
X540217Y542953D01*
X540263Y543035D01*
X540312Y543115D01*
X540364Y543193D01*
X540420Y543269D01*
X540478Y543343D01*
X540540Y543414D01*
X540604Y543483D01*
X540671Y543549D01*
X540740Y543612D01*
X540812Y543673D01*
X540886Y543731D01*
X540963Y543785D01*
X541041Y543837D01*
X541122Y543885D01*
X541204Y543930D01*
X541289Y543972D01*
X541375Y544010D01*
X541462Y544045D01*
X541550Y544077D01*
X541640Y544104D01*
X541731Y544129D01*
X541823Y544149D01*
X541915Y544166D01*
X542009Y544179D01*
X542102Y544188D01*
X542196Y544194D01*
X542290Y544196D01*
X542384Y544194D01*
X542478Y544188D01*
X542571Y544179D01*
X542665Y544166D01*
X542757Y544149D01*
X542849Y544129D01*
X542940Y544104D01*
X543030Y544077D01*
X543118Y544045D01*
X543205Y544010D01*
X543291Y543972D01*
X543376Y543930D01*
X543458Y543885D01*
X543539Y543837D01*
X543617Y543785D01*
X543694Y543731D01*
X543768Y543673D01*
X543840Y543612D01*
X543909Y543549D01*
X543976Y543483D01*
X544040Y543414D01*
X544102Y543343D01*
X544160Y543269D01*
X544216Y543193D01*
X544268Y543115D01*
X544317Y543035D01*
X544363Y542953D01*
X544406Y542869D01*
X544445Y542783D01*
X544481Y542696D01*
X544513Y542608D01*
X544513Y542607D02*
X544609Y542404D01*
X544700Y542199D01*
X544786Y541991D01*
X544867Y541781D01*
X544944Y541570D01*
X545015Y541357D01*
X545081Y541142D01*
X545142Y540925D01*
X545198Y540707D01*
X545248Y540488D01*
X545294Y540268D01*
X545334Y540047D01*
X545369Y539825D01*
X545398Y539602D01*
X545422Y539378D01*
X545441Y539154D01*
X545454Y538930D01*
X545462Y538705D01*
X545465Y538480D01*
X539115Y538480D02*
X539118Y538255D01*
X539126Y538030D01*
X539139Y537806D01*
X539158Y537582D01*
X539182Y537358D01*
X539211Y537135D01*
X539246Y536913D01*
X539286Y536692D01*
X539332Y536472D01*
X539382Y536253D01*
X539438Y536035D01*
X539499Y535818D01*
X539565Y535603D01*
X539636Y535390D01*
X539713Y535179D01*
X539794Y534969D01*
X539880Y534761D01*
X539971Y534556D01*
X540067Y534353D01*
X540099Y534265D01*
X540135Y534178D01*
X540174Y534092D01*
X540217Y534008D01*
X540263Y533926D01*
X540312Y533846D01*
X540364Y533768D01*
X540420Y533692D01*
X540478Y533618D01*
X540540Y533547D01*
X540604Y533478D01*
X540671Y533412D01*
X540740Y533349D01*
X540812Y533288D01*
X540886Y533230D01*
X540963Y533176D01*
X541041Y533124D01*
X541122Y533076D01*
X541204Y533031D01*
X541289Y532989D01*
X541375Y532951D01*
X541462Y532916D01*
X541550Y532884D01*
X541640Y532857D01*
X541731Y532832D01*
X541823Y532812D01*
X541915Y532795D01*
X542009Y532782D01*
X542102Y532773D01*
X542196Y532767D01*
X542290Y532765D01*
X544513Y534353D02*
X544609Y534556D01*
X544700Y534761D01*
X544786Y534969D01*
X544867Y535179D01*
X544944Y535390D01*
X545015Y535603D01*
X545081Y535818D01*
X545142Y536035D01*
X545198Y536253D01*
X545248Y536472D01*
X545294Y536692D01*
X545334Y536913D01*
X545369Y537135D01*
X545398Y537358D01*
X545422Y537582D01*
X545441Y537806D01*
X545454Y538030D01*
X545462Y538255D01*
X545465Y538480D01*
X544513Y534353D02*
X544481Y534265D01*
X544445Y534178D01*
X544406Y534092D01*
X544363Y534008D01*
X544317Y533926D01*
X544268Y533846D01*
X544216Y533768D01*
X544160Y533692D01*
X544102Y533618D01*
X544040Y533547D01*
X543976Y533478D01*
X543909Y533412D01*
X543840Y533349D01*
X543768Y533288D01*
X543694Y533230D01*
X543617Y533176D01*
X543539Y533124D01*
X543458Y533076D01*
X543376Y533031D01*
X543291Y532989D01*
X543205Y532951D01*
X543118Y532916D01*
X543030Y532884D01*
X542940Y532857D01*
X542849Y532832D01*
X542757Y532812D01*
X542665Y532795D01*
X542571Y532782D01*
X542478Y532773D01*
X542384Y532767D01*
X542290Y532765D01*
X539750Y535305D02*
X544830Y541655D01*
D11*
X895317Y315700D02*
X895317Y217700D01*
X899840Y217700D02*
X899840Y315700D01*
X854380Y315700D02*
X854380Y217700D01*
X849515Y217700D02*
X849515Y315700D01*
X815781Y291700D02*
X815788Y291102D01*
X815810Y290505D01*
X815847Y289909D01*
X815898Y289314D01*
X815964Y288720D01*
X816044Y288128D01*
X816139Y287539D01*
X816140Y287539D02*
X816234Y287033D01*
X816338Y286530D01*
X816454Y286029D01*
X816581Y285531D01*
X816718Y285036D01*
X816867Y284544D01*
X817026Y284055D01*
X817196Y283570D01*
X817374Y283100D01*
X817562Y282634D01*
X817761Y282172D01*
X817971Y281715D01*
X818191Y281263D01*
X818421Y280817D01*
X818662Y280375D01*
X818913Y279940D01*
X819136Y279573D01*
X819367Y279212D01*
X819606Y278856D01*
X819853Y278506D01*
X820108Y278160D01*
X820370Y277821D01*
X820639Y277487D01*
X820916Y277160D01*
X821200Y276838D01*
X821200Y276839D02*
X821481Y276537D01*
X821769Y276241D01*
X822064Y275953D01*
X822366Y275672D01*
X822675Y275398D01*
X822990Y275131D01*
X823312Y274873D01*
X823639Y274622D01*
X823973Y274379D01*
X824281Y274168D01*
X824593Y273964D01*
X824911Y273767D01*
X825233Y273579D01*
X825559Y273398D01*
X825890Y273225D01*
X826225Y273061D01*
X826564Y272904D01*
X826564Y272905D02*
X826860Y272777D01*
X827159Y272656D01*
X827460Y272542D01*
X827764Y272435D01*
X828071Y272335D01*
X828379Y272242D01*
X828690Y272156D01*
X829002Y272077D01*
X829316Y272005D01*
X829629Y271941D01*
X829942Y271885D01*
X830258Y271836D01*
X830574Y271795D01*
X830891Y271761D01*
X831208Y271734D01*
X831527Y271715D01*
X831845Y271704D01*
X832164Y271700D01*
X829316Y311395D02*
X829628Y311459D01*
X829942Y311515D01*
X830257Y311564D01*
X830573Y311605D01*
X830891Y311639D01*
X831208Y311666D01*
X831527Y311685D01*
X831845Y311696D01*
X832164Y311700D01*
X829316Y311395D02*
X829002Y311323D01*
X828689Y311244D01*
X828379Y311158D01*
X828070Y311065D01*
X827764Y310965D01*
X827460Y310858D01*
X827159Y310743D01*
X826860Y310622D01*
X826564Y310495D01*
X826563Y310495D02*
X826262Y310357D01*
X825963Y310212D01*
X825668Y310061D01*
X825376Y309903D01*
X825088Y309739D01*
X824803Y309569D01*
X824522Y309393D01*
X824245Y309210D01*
X823972Y309021D01*
X823973Y309021D02*
X823639Y308778D01*
X823311Y308528D01*
X822989Y308269D01*
X822674Y308003D01*
X822365Y307729D01*
X822063Y307448D01*
X821768Y307159D01*
X821480Y306863D01*
X821200Y306561D01*
X820916Y306240D01*
X820638Y305913D01*
X820369Y305580D01*
X820106Y305241D01*
X819852Y304896D01*
X819605Y304545D01*
X819366Y304189D01*
X819136Y303827D01*
X818913Y303460D01*
X818662Y303025D01*
X818420Y302584D01*
X818189Y302137D01*
X817969Y301685D01*
X817759Y301228D01*
X817561Y300767D01*
X817373Y300300D01*
X817196Y299830D01*
X817025Y299345D01*
X816866Y298857D01*
X816717Y298365D01*
X816580Y297869D01*
X816453Y297371D01*
X816337Y296870D01*
X816233Y296367D01*
X816140Y295861D01*
X816056Y295345D01*
X815983Y294827D01*
X815921Y294308D01*
X815871Y293788D01*
X815831Y293267D01*
X815803Y292745D01*
X815786Y292222D01*
X815781Y291700D01*
X828756Y261262D02*
X829060Y261337D01*
X829366Y261406D01*
X829673Y261467D01*
X829981Y261521D01*
X830291Y261568D01*
X830602Y261608D01*
X830913Y261641D01*
X831225Y261667D01*
X831538Y261685D01*
X831851Y261696D01*
X832164Y261700D01*
X828756Y261262D02*
X828418Y261169D01*
X828082Y261068D01*
X827749Y260959D01*
X827418Y260842D01*
X827091Y260717D01*
X826766Y260584D01*
X826445Y260443D01*
X826128Y260294D01*
X825814Y260137D01*
X825505Y259973D01*
X825204Y259809D01*
X824906Y259639D01*
X824613Y259461D01*
X824324Y259276D01*
X824040Y259085D01*
X823760Y258887D01*
X823485Y258682D01*
X823215Y258471D01*
X822950Y258253D01*
X822691Y258029D01*
X822437Y257799D01*
X822188Y257563D01*
X822187Y257564D02*
X821874Y257263D01*
X821569Y256954D01*
X821271Y256639D01*
X820980Y256316D01*
X820698Y255987D01*
X820423Y255651D01*
X820156Y255309D01*
X819897Y254960D01*
X819646Y254606D01*
X819404Y254246D01*
X819170Y253880D01*
X819170Y253881D02*
X818908Y253452D01*
X818656Y253017D01*
X818415Y252576D01*
X818184Y252130D01*
X817964Y251678D01*
X817755Y251222D01*
X817556Y250760D01*
X817369Y250294D01*
X817192Y249824D01*
X817027Y249350D01*
X817027Y249349D02*
X816850Y248803D01*
X816686Y248253D01*
X816536Y247699D01*
X816399Y247142D01*
X816276Y246582D01*
X816167Y246019D01*
X816071Y245453D01*
X815990Y244885D01*
X815922Y244316D01*
X815867Y243736D01*
X815825Y243155D01*
X815798Y242573D01*
X815784Y241991D01*
X815784Y241409D01*
X815798Y240827D01*
X815825Y240245D01*
X815867Y239664D01*
X815922Y239084D01*
X815922Y239085D02*
X815991Y238515D01*
X816073Y237947D01*
X816169Y237382D01*
X816278Y236819D01*
X816401Y236258D01*
X816538Y235701D01*
X816688Y235147D01*
X816851Y234597D01*
X817027Y234052D01*
X817027Y234051D02*
X817194Y233577D01*
X817371Y233107D01*
X817559Y232641D01*
X817758Y232180D01*
X817968Y231723D01*
X818188Y231272D01*
X818418Y230825D01*
X818659Y230385D01*
X818910Y229949D01*
X819170Y229520D01*
X819405Y229155D01*
X819648Y228796D01*
X819900Y228442D01*
X820159Y228094D01*
X820426Y227752D01*
X820701Y227416D01*
X820984Y227087D01*
X821274Y226764D01*
X821571Y226448D01*
X821876Y226139D01*
X822187Y225836D01*
X822188Y225836D02*
X822494Y225562D01*
X822806Y225296D01*
X823125Y225036D01*
X823449Y224783D01*
X823779Y224538D01*
X824114Y224300D01*
X824454Y224070D01*
X824800Y223848D01*
X825150Y223633D01*
X825505Y223426D01*
X825506Y223427D02*
X825816Y223264D01*
X826129Y223107D01*
X826447Y222959D01*
X826768Y222818D01*
X827092Y222685D01*
X827420Y222560D01*
X827750Y222442D01*
X828083Y222333D01*
X828419Y222232D01*
X828756Y222138D01*
X829060Y222063D01*
X829366Y221994D01*
X829673Y221933D01*
X829981Y221879D01*
X830291Y221832D01*
X830602Y221792D01*
X830913Y221759D01*
X831225Y221734D01*
X831538Y221715D01*
X831851Y221704D01*
X832164Y221700D01*
X832483Y221704D01*
X832802Y221715D01*
X833121Y221734D01*
X833438Y221761D01*
X833756Y221795D01*
X834072Y221836D01*
X834387Y221885D01*
X834701Y221941D01*
X835013Y222005D01*
X835328Y222077D01*
X835640Y222155D01*
X835950Y222242D01*
X836259Y222335D01*
X836565Y222435D01*
X836869Y222542D01*
X837170Y222656D01*
X837469Y222777D01*
X837764Y222905D01*
X838066Y223043D01*
X838365Y223188D01*
X838660Y223339D01*
X838952Y223497D01*
X839240Y223661D01*
X839525Y223832D01*
X839806Y224008D01*
X840083Y224191D01*
X840355Y224380D01*
X840356Y224379D02*
X840690Y224621D01*
X841018Y224872D01*
X841340Y225130D01*
X841655Y225397D01*
X841964Y225671D01*
X842266Y225952D01*
X842561Y226241D01*
X842849Y226536D01*
X843129Y226839D01*
X843414Y227160D01*
X843691Y227487D01*
X843961Y227821D01*
X844223Y228160D01*
X844477Y228505D01*
X844724Y228856D01*
X844963Y229212D01*
X845194Y229574D01*
X845416Y229940D01*
X845667Y230376D01*
X845909Y230817D01*
X846139Y231263D01*
X846360Y231715D01*
X846569Y232172D01*
X846768Y232634D01*
X846956Y233100D01*
X847133Y233570D01*
X847304Y234055D01*
X847463Y234543D01*
X847612Y235035D01*
X847749Y235531D01*
X847876Y236029D01*
X847992Y236530D01*
X848096Y237033D01*
X848189Y237539D01*
X848273Y238054D01*
X848346Y238572D01*
X848408Y239091D01*
X848458Y239611D01*
X848498Y240133D01*
X848526Y240654D01*
X848543Y241177D01*
X848548Y241700D01*
X835573Y272138D02*
X835269Y272063D01*
X834964Y271994D01*
X834656Y271933D01*
X834348Y271879D01*
X834038Y271832D01*
X833727Y271792D01*
X833416Y271759D01*
X833104Y271733D01*
X832791Y271715D01*
X832478Y271704D01*
X832164Y271700D01*
X835573Y272138D02*
X835911Y272231D01*
X836247Y272332D01*
X836580Y272441D01*
X836911Y272558D01*
X837238Y272683D01*
X837562Y272816D01*
X837883Y272957D01*
X838201Y273106D01*
X838514Y273263D01*
X838824Y273427D01*
X839125Y273590D01*
X839423Y273761D01*
X839716Y273938D01*
X840005Y274123D01*
X840289Y274314D01*
X840569Y274512D01*
X840844Y274717D01*
X841114Y274928D01*
X841379Y275146D01*
X841638Y275370D01*
X841893Y275600D01*
X842141Y275836D01*
X842454Y276138D01*
X842759Y276446D01*
X843057Y276762D01*
X843348Y277084D01*
X843631Y277413D01*
X843906Y277749D01*
X844173Y278092D01*
X844432Y278440D01*
X844683Y278794D01*
X844925Y279155D01*
X845159Y279520D01*
X845421Y279949D01*
X845673Y280384D01*
X845914Y280824D01*
X846145Y281270D01*
X846365Y281722D01*
X846574Y282179D01*
X846773Y282640D01*
X846960Y283106D01*
X847137Y283577D01*
X847302Y284051D01*
X847479Y284596D01*
X847643Y285146D01*
X847793Y285700D01*
X847930Y286257D01*
X848053Y286817D01*
X848162Y287381D01*
X848258Y287946D01*
X848339Y288514D01*
X848407Y289084D01*
X848462Y289664D01*
X848504Y290245D01*
X848531Y290827D01*
X848545Y291409D01*
X848545Y291991D01*
X848531Y292573D01*
X848504Y293155D01*
X848462Y293736D01*
X848407Y294316D01*
X848338Y294886D01*
X848256Y295454D01*
X848160Y296019D01*
X848051Y296582D01*
X847928Y297143D01*
X847791Y297700D01*
X847641Y298253D01*
X847478Y298803D01*
X847302Y299349D01*
X847135Y299823D01*
X846958Y300293D01*
X846770Y300758D01*
X846571Y301220D01*
X846361Y301676D01*
X846141Y302128D01*
X845911Y302574D01*
X845670Y303015D01*
X845419Y303450D01*
X845159Y303880D01*
X844924Y304245D01*
X844681Y304604D01*
X844429Y304958D01*
X844170Y305306D01*
X843903Y305648D01*
X843628Y305984D01*
X843345Y306313D01*
X843055Y306636D01*
X842757Y306952D01*
X842453Y307261D01*
X842141Y307564D01*
X841835Y307838D01*
X841522Y308104D01*
X841204Y308364D01*
X840880Y308616D01*
X840550Y308862D01*
X840215Y309099D01*
X839875Y309329D01*
X839530Y309552D01*
X839179Y309766D01*
X838824Y309973D01*
X838825Y309973D02*
X838515Y310137D01*
X838201Y310293D01*
X837883Y310442D01*
X837562Y310583D01*
X837238Y310716D01*
X836911Y310841D01*
X836580Y310959D01*
X836247Y311068D01*
X835912Y311169D01*
X835574Y311262D01*
X835573Y311262D02*
X835269Y311337D01*
X834964Y311406D01*
X834656Y311467D01*
X834348Y311521D01*
X834038Y311568D01*
X833727Y311608D01*
X833416Y311641D01*
X833104Y311667D01*
X832791Y311685D01*
X832478Y311696D01*
X832164Y311700D01*
X848189Y245861D02*
X848284Y245272D01*
X848364Y244680D01*
X848430Y244086D01*
X848481Y243491D01*
X848518Y242895D01*
X848540Y242298D01*
X848547Y241700D01*
X848189Y245861D02*
X848095Y246367D01*
X847991Y246870D01*
X847875Y247371D01*
X847748Y247869D01*
X847611Y248364D01*
X847462Y248856D01*
X847303Y249345D01*
X847133Y249830D01*
X846956Y250300D01*
X846768Y250766D01*
X846569Y251228D01*
X846359Y251685D01*
X846139Y252137D01*
X845908Y252583D01*
X845667Y253024D01*
X845416Y253460D01*
X845416Y253459D02*
X845192Y253826D01*
X844961Y254187D01*
X844722Y254543D01*
X844475Y254893D01*
X844221Y255238D01*
X843959Y255578D01*
X843689Y255911D01*
X843413Y256239D01*
X843129Y256560D01*
X843129Y256561D02*
X842848Y256863D01*
X842560Y257159D01*
X842265Y257447D01*
X841963Y257728D01*
X841654Y258002D01*
X841339Y258268D01*
X841017Y258527D01*
X840690Y258778D01*
X840356Y259021D01*
X840048Y259233D01*
X839735Y259437D01*
X839418Y259633D01*
X839096Y259822D01*
X838769Y260002D01*
X838438Y260175D01*
X838103Y260340D01*
X837764Y260496D01*
X837764Y260495D02*
X837468Y260622D01*
X837170Y260743D01*
X836868Y260857D01*
X836564Y260964D01*
X836258Y261064D01*
X835950Y261157D01*
X835639Y261244D01*
X835327Y261323D01*
X835013Y261395D01*
X834701Y261459D01*
X834387Y261515D01*
X834072Y261563D01*
X833755Y261605D01*
X833438Y261639D01*
X833120Y261665D01*
X832802Y261684D01*
X832483Y261695D01*
X832164Y261699D01*
X945300Y217700D02*
X945300Y315700D01*
X899840Y315700D01*
X895317Y315700D01*
X854380Y315700D01*
X849515Y315700D01*
X813300Y315700D01*
X813300Y217700D01*
X849515Y217700D01*
X854380Y217700D01*
X895317Y217700D01*
X899840Y217700D01*
X945300Y217700D01*
X930300Y226700D02*
X930300Y256700D01*
X913800Y256700D01*
X913800Y226700D01*
X930300Y226700D01*
X938300Y224700D02*
X938300Y258700D01*
X906300Y258700D01*
X906300Y224700D01*
X938300Y224700D01*
X939300Y316700D02*
X939300Y318700D01*
X940800Y320700D01*
X940800Y323200D01*
X895300Y323200D01*
X895300Y321200D01*
X896800Y318700D01*
X896800Y316700D01*
X864800Y316700D02*
X864800Y318700D01*
X866800Y320700D01*
X866800Y323200D01*
X838800Y323200D01*
X838800Y320700D01*
X840300Y318700D01*
X840300Y316700D01*
X927800Y276700D02*
X930300Y276700D01*
X930300Y306700D01*
X913800Y306700D01*
X913800Y276700D01*
X927800Y276700D01*
X938300Y274700D02*
X938300Y308700D01*
X906300Y308700D01*
X906300Y274700D01*
X938300Y274700D01*
D13*
X796854Y216408D02*
X794258Y219654D01*
X805942Y219654D01*
X805942Y222899D02*
X805942Y216408D01*
X794258Y231408D02*
X794260Y231515D01*
X794266Y231621D01*
X794276Y231727D01*
X794289Y231833D01*
X794307Y231939D01*
X794328Y232043D01*
X794353Y232147D01*
X794382Y232250D01*
X794414Y232351D01*
X794451Y232451D01*
X794491Y232550D01*
X794534Y232648D01*
X794581Y232744D01*
X794632Y232838D01*
X794686Y232930D01*
X794743Y233020D01*
X794803Y233108D01*
X794867Y233193D01*
X794934Y233276D01*
X795004Y233357D01*
X795076Y233435D01*
X795152Y233511D01*
X795230Y233583D01*
X795311Y233653D01*
X795394Y233720D01*
X795479Y233784D01*
X795567Y233844D01*
X795657Y233901D01*
X795749Y233955D01*
X795843Y234006D01*
X795939Y234053D01*
X796037Y234096D01*
X796136Y234136D01*
X796236Y234173D01*
X796337Y234205D01*
X796440Y234234D01*
X796544Y234259D01*
X796648Y234280D01*
X796754Y234298D01*
X796860Y234311D01*
X796966Y234321D01*
X797072Y234327D01*
X797179Y234329D01*
X794258Y231408D02*
X794260Y231287D01*
X794266Y231166D01*
X794276Y231046D01*
X794289Y230925D01*
X794307Y230806D01*
X794328Y230686D01*
X794353Y230568D01*
X794382Y230451D01*
X794415Y230334D01*
X794451Y230219D01*
X794492Y230105D01*
X794535Y229992D01*
X794583Y229880D01*
X794634Y229771D01*
X794689Y229663D01*
X794747Y229556D01*
X794808Y229452D01*
X794873Y229350D01*
X794941Y229250D01*
X795012Y229152D01*
X795086Y229056D01*
X795163Y228963D01*
X795244Y228873D01*
X795327Y228785D01*
X795413Y228700D01*
X795502Y228617D01*
X795593Y228538D01*
X795687Y228461D01*
X795783Y228388D01*
X795881Y228318D01*
X795982Y228251D01*
X796085Y228187D01*
X796190Y228127D01*
X796297Y228069D01*
X796405Y228016D01*
X796515Y227966D01*
X796627Y227920D01*
X796740Y227877D01*
X796855Y227838D01*
X799451Y233355D02*
X799373Y233434D01*
X799293Y233510D01*
X799210Y233583D01*
X799124Y233653D01*
X799037Y233720D01*
X798946Y233784D01*
X798854Y233844D01*
X798760Y233902D01*
X798663Y233956D01*
X798565Y234006D01*
X798465Y234053D01*
X798364Y234097D01*
X798261Y234137D01*
X798156Y234173D01*
X798051Y234205D01*
X797944Y234234D01*
X797837Y234259D01*
X797728Y234281D01*
X797619Y234298D01*
X797510Y234312D01*
X797400Y234321D01*
X797289Y234327D01*
X797179Y234329D01*
X799451Y233355D02*
X805942Y227838D01*
X805942Y234329D01*
X805942Y242514D02*
X794258Y238619D01*
X794258Y246408D02*
X805942Y242514D01*
D11*
X895317Y214100D02*
X895317Y116100D01*
X899840Y116100D02*
X899840Y214100D01*
X854380Y214100D02*
X854380Y116100D01*
X849515Y116100D02*
X849515Y214100D01*
X815781Y190100D02*
X815788Y189502D01*
X815810Y188905D01*
X815847Y188309D01*
X815898Y187714D01*
X815964Y187120D01*
X816044Y186528D01*
X816139Y185939D01*
X816140Y185939D02*
X816234Y185433D01*
X816338Y184930D01*
X816454Y184429D01*
X816581Y183931D01*
X816718Y183436D01*
X816867Y182944D01*
X817026Y182455D01*
X817196Y181970D01*
X817374Y181500D01*
X817562Y181034D01*
X817761Y180572D01*
X817971Y180115D01*
X818191Y179663D01*
X818421Y179217D01*
X818662Y178775D01*
X818913Y178340D01*
X819136Y177973D01*
X819367Y177612D01*
X819606Y177256D01*
X819853Y176906D01*
X820108Y176560D01*
X820370Y176221D01*
X820639Y175887D01*
X820916Y175560D01*
X821200Y175238D01*
X821200Y175239D02*
X821481Y174937D01*
X821769Y174641D01*
X822064Y174353D01*
X822366Y174072D01*
X822675Y173798D01*
X822990Y173531D01*
X823312Y173273D01*
X823639Y173022D01*
X823973Y172779D01*
X824281Y172568D01*
X824593Y172364D01*
X824911Y172167D01*
X825233Y171979D01*
X825559Y171798D01*
X825890Y171625D01*
X826225Y171461D01*
X826564Y171304D01*
X826564Y171305D02*
X826860Y171177D01*
X827159Y171056D01*
X827460Y170942D01*
X827764Y170835D01*
X828071Y170735D01*
X828379Y170642D01*
X828690Y170556D01*
X829002Y170477D01*
X829316Y170405D01*
X829629Y170341D01*
X829942Y170285D01*
X830258Y170236D01*
X830574Y170195D01*
X830891Y170161D01*
X831208Y170134D01*
X831527Y170115D01*
X831845Y170104D01*
X832164Y170100D01*
X829316Y209795D02*
X829628Y209859D01*
X829942Y209915D01*
X830257Y209964D01*
X830573Y210005D01*
X830891Y210039D01*
X831208Y210066D01*
X831527Y210085D01*
X831845Y210096D01*
X832164Y210100D01*
X829316Y209795D02*
X829002Y209723D01*
X828689Y209644D01*
X828379Y209558D01*
X828070Y209465D01*
X827764Y209365D01*
X827460Y209258D01*
X827159Y209143D01*
X826860Y209022D01*
X826564Y208895D01*
X826563Y208895D02*
X826262Y208757D01*
X825963Y208612D01*
X825668Y208461D01*
X825376Y208303D01*
X825088Y208139D01*
X824803Y207969D01*
X824522Y207793D01*
X824245Y207610D01*
X823972Y207421D01*
X823973Y207421D02*
X823639Y207178D01*
X823311Y206928D01*
X822989Y206669D01*
X822674Y206403D01*
X822365Y206129D01*
X822063Y205848D01*
X821768Y205559D01*
X821480Y205263D01*
X821200Y204961D01*
X820916Y204640D01*
X820638Y204313D01*
X820369Y203980D01*
X820106Y203641D01*
X819852Y203296D01*
X819605Y202945D01*
X819366Y202589D01*
X819136Y202227D01*
X818913Y201860D01*
X818662Y201425D01*
X818420Y200984D01*
X818189Y200537D01*
X817969Y200085D01*
X817759Y199628D01*
X817561Y199167D01*
X817373Y198700D01*
X817196Y198230D01*
X817025Y197745D01*
X816866Y197257D01*
X816717Y196765D01*
X816580Y196269D01*
X816453Y195771D01*
X816337Y195270D01*
X816233Y194767D01*
X816140Y194261D01*
X816056Y193745D01*
X815983Y193227D01*
X815921Y192708D01*
X815871Y192188D01*
X815831Y191667D01*
X815803Y191145D01*
X815786Y190622D01*
X815781Y190100D01*
X828756Y159662D02*
X829060Y159737D01*
X829366Y159806D01*
X829673Y159867D01*
X829981Y159921D01*
X830291Y159968D01*
X830602Y160008D01*
X830913Y160041D01*
X831225Y160067D01*
X831538Y160085D01*
X831851Y160096D01*
X832164Y160100D01*
X828756Y159662D02*
X828418Y159569D01*
X828082Y159468D01*
X827749Y159359D01*
X827418Y159242D01*
X827091Y159117D01*
X826766Y158984D01*
X826445Y158843D01*
X826128Y158694D01*
X825814Y158537D01*
X825505Y158373D01*
X825204Y158209D01*
X824906Y158039D01*
X824613Y157861D01*
X824324Y157676D01*
X824040Y157485D01*
X823760Y157287D01*
X823485Y157082D01*
X823215Y156871D01*
X822950Y156653D01*
X822691Y156429D01*
X822437Y156199D01*
X822188Y155963D01*
X822187Y155964D02*
X821874Y155663D01*
X821569Y155354D01*
X821271Y155039D01*
X820980Y154716D01*
X820698Y154387D01*
X820423Y154051D01*
X820156Y153709D01*
X819897Y153360D01*
X819646Y153006D01*
X819404Y152646D01*
X819170Y152280D01*
X819170Y152281D02*
X818908Y151852D01*
X818656Y151417D01*
X818415Y150976D01*
X818184Y150530D01*
X817964Y150078D01*
X817755Y149622D01*
X817556Y149160D01*
X817369Y148694D01*
X817192Y148224D01*
X817027Y147750D01*
X817027Y147749D02*
X816850Y147203D01*
X816686Y146653D01*
X816536Y146099D01*
X816399Y145542D01*
X816276Y144982D01*
X816167Y144419D01*
X816071Y143853D01*
X815990Y143285D01*
X815922Y142716D01*
X815867Y142136D01*
X815825Y141555D01*
X815798Y140973D01*
X815784Y140391D01*
X815784Y139809D01*
X815798Y139227D01*
X815825Y138645D01*
X815867Y138064D01*
X815922Y137484D01*
X815922Y137485D02*
X815991Y136915D01*
X816073Y136347D01*
X816169Y135782D01*
X816278Y135219D01*
X816401Y134658D01*
X816538Y134101D01*
X816688Y133547D01*
X816851Y132997D01*
X817027Y132452D01*
X817027Y132451D02*
X817194Y131977D01*
X817371Y131507D01*
X817559Y131041D01*
X817758Y130580D01*
X817968Y130123D01*
X818188Y129672D01*
X818418Y129225D01*
X818659Y128785D01*
X818910Y128349D01*
X819170Y127920D01*
X819405Y127555D01*
X819648Y127196D01*
X819900Y126842D01*
X820159Y126494D01*
X820426Y126152D01*
X820701Y125816D01*
X820984Y125487D01*
X821274Y125164D01*
X821571Y124848D01*
X821876Y124539D01*
X822187Y124236D01*
X822188Y124236D02*
X822494Y123962D01*
X822806Y123696D01*
X823125Y123436D01*
X823449Y123183D01*
X823779Y122938D01*
X824114Y122700D01*
X824454Y122470D01*
X824800Y122248D01*
X825150Y122033D01*
X825505Y121826D01*
X825506Y121827D02*
X825816Y121664D01*
X826129Y121507D01*
X826447Y121359D01*
X826768Y121218D01*
X827092Y121085D01*
X827420Y120960D01*
X827750Y120842D01*
X828083Y120733D01*
X828419Y120632D01*
X828756Y120538D01*
X829060Y120463D01*
X829366Y120394D01*
X829673Y120333D01*
X829981Y120279D01*
X830291Y120232D01*
X830602Y120192D01*
X830913Y120159D01*
X831225Y120134D01*
X831538Y120115D01*
X831851Y120104D01*
X832164Y120100D01*
X832483Y120104D01*
X832802Y120115D01*
X833121Y120134D01*
X833438Y120161D01*
X833756Y120195D01*
X834072Y120236D01*
X834387Y120285D01*
X834701Y120341D01*
X835013Y120405D01*
X835328Y120477D01*
X835640Y120555D01*
X835950Y120642D01*
X836259Y120735D01*
X836565Y120835D01*
X836869Y120942D01*
X837170Y121056D01*
X837469Y121177D01*
X837764Y121305D01*
X838066Y121443D01*
X838365Y121588D01*
X838660Y121739D01*
X838952Y121897D01*
X839240Y122061D01*
X839525Y122232D01*
X839806Y122408D01*
X840083Y122591D01*
X840355Y122780D01*
X840356Y122779D02*
X840690Y123021D01*
X841018Y123272D01*
X841340Y123530D01*
X841655Y123797D01*
X841964Y124071D01*
X842266Y124352D01*
X842561Y124641D01*
X842849Y124936D01*
X843129Y125239D01*
X843414Y125560D01*
X843691Y125887D01*
X843961Y126221D01*
X844223Y126560D01*
X844477Y126905D01*
X844724Y127256D01*
X844963Y127612D01*
X845194Y127974D01*
X845416Y128340D01*
X845667Y128776D01*
X845909Y129217D01*
X846139Y129663D01*
X846360Y130115D01*
X846569Y130572D01*
X846768Y131034D01*
X846956Y131500D01*
X847133Y131970D01*
X847304Y132455D01*
X847463Y132943D01*
X847612Y133435D01*
X847749Y133931D01*
X847876Y134429D01*
X847992Y134930D01*
X848096Y135433D01*
X848189Y135939D01*
X848273Y136454D01*
X848346Y136972D01*
X848408Y137491D01*
X848458Y138011D01*
X848498Y138533D01*
X848526Y139054D01*
X848543Y139577D01*
X848548Y140100D01*
X835573Y170538D02*
X835269Y170463D01*
X834964Y170394D01*
X834656Y170333D01*
X834348Y170279D01*
X834038Y170232D01*
X833727Y170192D01*
X833416Y170159D01*
X833104Y170133D01*
X832791Y170115D01*
X832478Y170104D01*
X832164Y170100D01*
X835573Y170538D02*
X835911Y170631D01*
X836247Y170732D01*
X836580Y170841D01*
X836911Y170958D01*
X837238Y171083D01*
X837562Y171216D01*
X837883Y171357D01*
X838201Y171506D01*
X838514Y171663D01*
X838824Y171827D01*
X839125Y171990D01*
X839423Y172161D01*
X839716Y172338D01*
X840005Y172523D01*
X840289Y172714D01*
X840569Y172912D01*
X840844Y173117D01*
X841114Y173328D01*
X841379Y173546D01*
X841638Y173770D01*
X841893Y174000D01*
X842141Y174236D01*
X842454Y174538D01*
X842759Y174846D01*
X843057Y175162D01*
X843348Y175484D01*
X843631Y175813D01*
X843906Y176149D01*
X844173Y176492D01*
X844432Y176840D01*
X844683Y177194D01*
X844925Y177555D01*
X845159Y177920D01*
X845421Y178349D01*
X845673Y178784D01*
X845914Y179224D01*
X846145Y179670D01*
X846365Y180122D01*
X846574Y180579D01*
X846773Y181040D01*
X846960Y181506D01*
X847137Y181977D01*
X847302Y182451D01*
X847479Y182996D01*
X847643Y183546D01*
X847793Y184100D01*
X847930Y184657D01*
X848053Y185217D01*
X848162Y185781D01*
X848258Y186346D01*
X848339Y186914D01*
X848407Y187484D01*
X848462Y188064D01*
X848504Y188645D01*
X848531Y189227D01*
X848545Y189809D01*
X848545Y190391D01*
X848531Y190973D01*
X848504Y191555D01*
X848462Y192136D01*
X848407Y192716D01*
X848338Y193286D01*
X848256Y193854D01*
X848160Y194419D01*
X848051Y194982D01*
X847928Y195543D01*
X847791Y196100D01*
X847641Y196653D01*
X847478Y197203D01*
X847302Y197749D01*
X847135Y198223D01*
X846958Y198693D01*
X846770Y199158D01*
X846571Y199620D01*
X846361Y200076D01*
X846141Y200528D01*
X845911Y200974D01*
X845670Y201415D01*
X845419Y201850D01*
X845159Y202280D01*
X844924Y202645D01*
X844681Y203004D01*
X844429Y203358D01*
X844170Y203706D01*
X843903Y204048D01*
X843628Y204384D01*
X843345Y204713D01*
X843055Y205036D01*
X842757Y205352D01*
X842453Y205661D01*
X842141Y205964D01*
X841835Y206238D01*
X841522Y206504D01*
X841204Y206764D01*
X840880Y207016D01*
X840550Y207262D01*
X840215Y207499D01*
X839875Y207729D01*
X839530Y207952D01*
X839179Y208166D01*
X838824Y208373D01*
X838825Y208373D02*
X838515Y208537D01*
X838201Y208693D01*
X837883Y208842D01*
X837562Y208983D01*
X837238Y209116D01*
X836911Y209241D01*
X836580Y209359D01*
X836247Y209468D01*
X835912Y209569D01*
X835574Y209662D01*
X835573Y209662D02*
X835269Y209737D01*
X834964Y209806D01*
X834656Y209867D01*
X834348Y209921D01*
X834038Y209968D01*
X833727Y210008D01*
X833416Y210041D01*
X833104Y210067D01*
X832791Y210085D01*
X832478Y210096D01*
X832164Y210100D01*
X848189Y144261D02*
X848284Y143672D01*
X848364Y143080D01*
X848430Y142486D01*
X848481Y141891D01*
X848518Y141295D01*
X848540Y140698D01*
X848547Y140100D01*
X848189Y144261D02*
X848095Y144767D01*
X847991Y145270D01*
X847875Y145771D01*
X847748Y146269D01*
X847611Y146764D01*
X847462Y147256D01*
X847303Y147745D01*
X847133Y148230D01*
X846956Y148700D01*
X846768Y149166D01*
X846569Y149628D01*
X846359Y150085D01*
X846139Y150537D01*
X845908Y150983D01*
X845667Y151424D01*
X845416Y151860D01*
X845416Y151859D02*
X845192Y152226D01*
X844961Y152587D01*
X844722Y152943D01*
X844475Y153293D01*
X844221Y153638D01*
X843959Y153978D01*
X843689Y154311D01*
X843413Y154639D01*
X843129Y154960D01*
X843129Y154961D02*
X842848Y155263D01*
X842560Y155559D01*
X842265Y155847D01*
X841963Y156128D01*
X841654Y156402D01*
X841339Y156668D01*
X841017Y156927D01*
X840690Y157178D01*
X840356Y157421D01*
X840048Y157633D01*
X839735Y157837D01*
X839418Y158033D01*
X839096Y158222D01*
X838769Y158402D01*
X838438Y158575D01*
X838103Y158740D01*
X837764Y158896D01*
X837764Y158895D02*
X837468Y159022D01*
X837170Y159143D01*
X836868Y159257D01*
X836564Y159364D01*
X836258Y159464D01*
X835950Y159557D01*
X835639Y159644D01*
X835327Y159723D01*
X835013Y159795D01*
X834701Y159859D01*
X834387Y159915D01*
X834072Y159963D01*
X833755Y160005D01*
X833438Y160039D01*
X833120Y160065D01*
X832802Y160084D01*
X832483Y160095D01*
X832164Y160099D01*
X945300Y116100D02*
X945300Y214100D01*
X899840Y214100D01*
X895317Y214100D01*
X854380Y214100D01*
X849515Y214100D01*
X813300Y214100D01*
X813300Y116100D01*
X849515Y116100D01*
X854380Y116100D01*
X895317Y116100D01*
X899840Y116100D01*
X945300Y116100D01*
X930300Y125100D02*
X930300Y155100D01*
X913800Y155100D01*
X913800Y125100D01*
X930300Y125100D01*
X938300Y123100D02*
X938300Y157100D01*
X906300Y157100D01*
X906300Y123100D01*
X938300Y123100D01*
X939300Y215100D02*
X939300Y217100D01*
X940800Y219100D01*
X940800Y221600D01*
X895300Y221600D01*
X895300Y219600D01*
X896800Y217100D01*
X896800Y215100D01*
X864800Y215100D02*
X864800Y217100D01*
X866800Y219100D01*
X866800Y221600D01*
X838800Y221600D01*
X838800Y219100D01*
X840300Y217100D01*
X840300Y215100D01*
X927800Y175100D02*
X930300Y175100D01*
X930300Y205100D01*
X913800Y205100D01*
X913800Y175100D01*
X927800Y175100D01*
X938300Y173100D02*
X938300Y207100D01*
X906300Y207100D01*
X906300Y173100D01*
X938300Y173100D01*
D13*
X805942Y118703D02*
X794258Y114808D01*
X794258Y122597D02*
X805942Y118703D01*
X805942Y127847D02*
X794258Y127847D01*
X805942Y126548D02*
X805942Y129145D01*
X794258Y129145D02*
X794258Y126548D01*
X794258Y134126D02*
X805942Y134126D01*
X805942Y140617D02*
X794258Y134126D01*
X794258Y140617D02*
X805942Y140617D01*
D10*
X546100Y758190D02*
X546102Y758290D01*
X546108Y758389D01*
X546118Y758489D01*
X546131Y758587D01*
X546149Y758686D01*
X546170Y758783D01*
X546195Y758879D01*
X546224Y758975D01*
X546257Y759069D01*
X546293Y759162D01*
X546333Y759253D01*
X546377Y759343D01*
X546424Y759431D01*
X546474Y759517D01*
X546528Y759601D01*
X546585Y759683D01*
X546645Y759762D01*
X546709Y759840D01*
X546775Y759914D01*
X546844Y759986D01*
X546916Y760055D01*
X546990Y760121D01*
X547068Y760185D01*
X547147Y760245D01*
X547229Y760302D01*
X547313Y760356D01*
X547399Y760406D01*
X547487Y760453D01*
X547577Y760497D01*
X547668Y760537D01*
X547761Y760573D01*
X547855Y760606D01*
X547951Y760635D01*
X548047Y760660D01*
X548144Y760681D01*
X548243Y760699D01*
X548341Y760712D01*
X548441Y760722D01*
X548540Y760728D01*
X548640Y760730D01*
X546100Y740410D02*
X546102Y740310D01*
X546108Y740211D01*
X546118Y740111D01*
X546131Y740013D01*
X546149Y739914D01*
X546170Y739817D01*
X546195Y739721D01*
X546224Y739625D01*
X546257Y739531D01*
X546293Y739438D01*
X546333Y739347D01*
X546377Y739257D01*
X546424Y739169D01*
X546474Y739083D01*
X546528Y738999D01*
X546585Y738917D01*
X546645Y738838D01*
X546709Y738760D01*
X546775Y738686D01*
X546844Y738614D01*
X546916Y738545D01*
X546990Y738479D01*
X547068Y738415D01*
X547147Y738355D01*
X547229Y738298D01*
X547313Y738244D01*
X547399Y738194D01*
X547487Y738147D01*
X547577Y738103D01*
X547668Y738063D01*
X547761Y738027D01*
X547855Y737994D01*
X547951Y737965D01*
X548047Y737940D01*
X548144Y737919D01*
X548243Y737901D01*
X548341Y737888D01*
X548441Y737878D01*
X548540Y737872D01*
X548640Y737870D01*
X607060Y737870D02*
X607160Y737872D01*
X607259Y737878D01*
X607359Y737888D01*
X607457Y737901D01*
X607556Y737919D01*
X607653Y737940D01*
X607749Y737965D01*
X607845Y737994D01*
X607939Y738027D01*
X608032Y738063D01*
X608123Y738103D01*
X608213Y738147D01*
X608301Y738194D01*
X608387Y738244D01*
X608471Y738298D01*
X608553Y738355D01*
X608632Y738415D01*
X608710Y738479D01*
X608784Y738545D01*
X608856Y738614D01*
X608925Y738686D01*
X608991Y738760D01*
X609055Y738838D01*
X609115Y738917D01*
X609172Y738999D01*
X609226Y739083D01*
X609276Y739169D01*
X609323Y739257D01*
X609367Y739347D01*
X609407Y739438D01*
X609443Y739531D01*
X609476Y739625D01*
X609505Y739721D01*
X609530Y739817D01*
X609551Y739914D01*
X609569Y740013D01*
X609582Y740111D01*
X609592Y740211D01*
X609598Y740310D01*
X609600Y740410D01*
X609600Y758190D02*
X609598Y758290D01*
X609592Y758389D01*
X609582Y758489D01*
X609569Y758587D01*
X609551Y758686D01*
X609530Y758783D01*
X609505Y758879D01*
X609476Y758975D01*
X609443Y759069D01*
X609407Y759162D01*
X609367Y759253D01*
X609323Y759343D01*
X609276Y759431D01*
X609226Y759517D01*
X609172Y759601D01*
X609115Y759683D01*
X609055Y759762D01*
X608991Y759840D01*
X608925Y759914D01*
X608856Y759986D01*
X608784Y760055D01*
X608710Y760121D01*
X608632Y760185D01*
X608553Y760245D01*
X608471Y760302D01*
X608387Y760356D01*
X608301Y760406D01*
X608213Y760453D01*
X608123Y760497D01*
X608032Y760537D01*
X607939Y760573D01*
X607845Y760606D01*
X607749Y760635D01*
X607653Y760660D01*
X607556Y760681D01*
X607457Y760699D01*
X607359Y760712D01*
X607259Y760722D01*
X607160Y760728D01*
X607060Y760730D01*
X546100Y758190D02*
X546100Y740410D01*
X548640Y760730D02*
X552450Y760730D01*
X553720Y759460D01*
X552450Y737870D02*
X548640Y737870D01*
X552450Y737870D02*
X553720Y739140D01*
X601980Y759460D02*
X603250Y760730D01*
X601980Y759460D02*
X553720Y759460D01*
X601980Y739140D02*
X603250Y737870D01*
X601980Y739140D02*
X553720Y739140D01*
X603250Y760730D02*
X607060Y760730D01*
X607060Y737870D02*
X603250Y737870D01*
X609600Y740410D02*
X609600Y758190D01*
D14*
X618490Y749300D02*
X622300Y749300D01*
X537210Y749300D02*
X533400Y749300D01*
D15*
X613918Y749300D03*
X541782Y749300D03*
X626618Y749300D03*
X529082Y749300D03*
D16*
X546735Y763905D02*
X546735Y775335D01*
X549910Y775335D01*
X550021Y775333D01*
X550131Y775327D01*
X550242Y775318D01*
X550352Y775304D01*
X550461Y775287D01*
X550570Y775266D01*
X550678Y775241D01*
X550785Y775212D01*
X550891Y775180D01*
X550996Y775144D01*
X551099Y775104D01*
X551201Y775061D01*
X551302Y775014D01*
X551401Y774963D01*
X551498Y774910D01*
X551592Y774853D01*
X551685Y774792D01*
X551776Y774729D01*
X551865Y774662D01*
X551951Y774592D01*
X552034Y774519D01*
X552116Y774444D01*
X552194Y774366D01*
X552269Y774284D01*
X552342Y774201D01*
X552412Y774115D01*
X552479Y774026D01*
X552542Y773935D01*
X552603Y773842D01*
X552660Y773747D01*
X552713Y773651D01*
X552764Y773552D01*
X552811Y773451D01*
X552854Y773349D01*
X552894Y773246D01*
X552930Y773141D01*
X552962Y773035D01*
X552991Y772928D01*
X553016Y772820D01*
X553037Y772711D01*
X553054Y772602D01*
X553068Y772492D01*
X553077Y772381D01*
X553083Y772271D01*
X553085Y772160D01*
X553083Y772049D01*
X553077Y771939D01*
X553068Y771828D01*
X553054Y771718D01*
X553037Y771609D01*
X553016Y771500D01*
X552991Y771392D01*
X552962Y771285D01*
X552930Y771179D01*
X552894Y771074D01*
X552854Y770971D01*
X552811Y770869D01*
X552764Y770768D01*
X552713Y770669D01*
X552660Y770573D01*
X552603Y770478D01*
X552542Y770385D01*
X552479Y770294D01*
X552412Y770205D01*
X552342Y770119D01*
X552269Y770036D01*
X552194Y769954D01*
X552116Y769876D01*
X552034Y769801D01*
X551951Y769728D01*
X551865Y769658D01*
X551776Y769591D01*
X551685Y769528D01*
X551592Y769467D01*
X551498Y769410D01*
X551401Y769357D01*
X551302Y769306D01*
X551201Y769259D01*
X551099Y769216D01*
X550996Y769176D01*
X550891Y769140D01*
X550785Y769108D01*
X550678Y769079D01*
X550570Y769054D01*
X550461Y769033D01*
X550352Y769016D01*
X550242Y769002D01*
X550131Y768993D01*
X550021Y768987D01*
X549910Y768985D01*
X546735Y768985D01*
X550545Y768985D02*
X553085Y763905D01*
X558082Y772795D02*
X561257Y775335D01*
X561257Y763905D01*
X558082Y763905D02*
X564432Y763905D01*
D10*
X146050Y137160D02*
X146048Y137060D01*
X146042Y136961D01*
X146032Y136861D01*
X146019Y136763D01*
X146001Y136664D01*
X145980Y136567D01*
X145955Y136471D01*
X145926Y136375D01*
X145893Y136281D01*
X145857Y136188D01*
X145817Y136097D01*
X145773Y136007D01*
X145726Y135919D01*
X145676Y135833D01*
X145622Y135749D01*
X145565Y135667D01*
X145505Y135588D01*
X145441Y135510D01*
X145375Y135436D01*
X145306Y135364D01*
X145234Y135295D01*
X145160Y135229D01*
X145082Y135165D01*
X145003Y135105D01*
X144921Y135048D01*
X144837Y134994D01*
X144751Y134944D01*
X144663Y134897D01*
X144573Y134853D01*
X144482Y134813D01*
X144389Y134777D01*
X144295Y134744D01*
X144199Y134715D01*
X144103Y134690D01*
X144006Y134669D01*
X143907Y134651D01*
X143809Y134638D01*
X143709Y134628D01*
X143610Y134622D01*
X143510Y134620D01*
X146050Y154940D02*
X146048Y155040D01*
X146042Y155139D01*
X146032Y155239D01*
X146019Y155337D01*
X146001Y155436D01*
X145980Y155533D01*
X145955Y155629D01*
X145926Y155725D01*
X145893Y155819D01*
X145857Y155912D01*
X145817Y156003D01*
X145773Y156093D01*
X145726Y156181D01*
X145676Y156267D01*
X145622Y156351D01*
X145565Y156433D01*
X145505Y156512D01*
X145441Y156590D01*
X145375Y156664D01*
X145306Y156736D01*
X145234Y156805D01*
X145160Y156871D01*
X145082Y156935D01*
X145003Y156995D01*
X144921Y157052D01*
X144837Y157106D01*
X144751Y157156D01*
X144663Y157203D01*
X144573Y157247D01*
X144482Y157287D01*
X144389Y157323D01*
X144295Y157356D01*
X144199Y157385D01*
X144103Y157410D01*
X144006Y157431D01*
X143907Y157449D01*
X143809Y157462D01*
X143709Y157472D01*
X143610Y157478D01*
X143510Y157480D01*
X85090Y157480D02*
X84990Y157478D01*
X84891Y157472D01*
X84791Y157462D01*
X84693Y157449D01*
X84594Y157431D01*
X84497Y157410D01*
X84401Y157385D01*
X84305Y157356D01*
X84211Y157323D01*
X84118Y157287D01*
X84027Y157247D01*
X83937Y157203D01*
X83849Y157156D01*
X83763Y157106D01*
X83679Y157052D01*
X83597Y156995D01*
X83518Y156935D01*
X83440Y156871D01*
X83366Y156805D01*
X83294Y156736D01*
X83225Y156664D01*
X83159Y156590D01*
X83095Y156512D01*
X83035Y156433D01*
X82978Y156351D01*
X82924Y156267D01*
X82874Y156181D01*
X82827Y156093D01*
X82783Y156003D01*
X82743Y155912D01*
X82707Y155819D01*
X82674Y155725D01*
X82645Y155629D01*
X82620Y155533D01*
X82599Y155436D01*
X82581Y155337D01*
X82568Y155239D01*
X82558Y155139D01*
X82552Y155040D01*
X82550Y154940D01*
X82550Y137160D02*
X82552Y137060D01*
X82558Y136961D01*
X82568Y136861D01*
X82581Y136763D01*
X82599Y136664D01*
X82620Y136567D01*
X82645Y136471D01*
X82674Y136375D01*
X82707Y136281D01*
X82743Y136188D01*
X82783Y136097D01*
X82827Y136007D01*
X82874Y135919D01*
X82924Y135833D01*
X82978Y135749D01*
X83035Y135667D01*
X83095Y135588D01*
X83159Y135510D01*
X83225Y135436D01*
X83294Y135364D01*
X83366Y135295D01*
X83440Y135229D01*
X83518Y135165D01*
X83597Y135105D01*
X83679Y135048D01*
X83763Y134994D01*
X83849Y134944D01*
X83937Y134897D01*
X84027Y134853D01*
X84118Y134813D01*
X84211Y134777D01*
X84305Y134744D01*
X84401Y134715D01*
X84497Y134690D01*
X84594Y134669D01*
X84693Y134651D01*
X84791Y134638D01*
X84891Y134628D01*
X84990Y134622D01*
X85090Y134620D01*
X146050Y137160D02*
X146050Y154940D01*
X143510Y134620D02*
X139700Y134620D01*
X138430Y135890D01*
X139700Y157480D02*
X143510Y157480D01*
X139700Y157480D02*
X138430Y156210D01*
X90170Y135890D02*
X88900Y134620D01*
X90170Y135890D02*
X138430Y135890D01*
X90170Y156210D02*
X88900Y157480D01*
X90170Y156210D02*
X138430Y156210D01*
X88900Y134620D02*
X85090Y134620D01*
X85090Y157480D02*
X88900Y157480D01*
X82550Y154940D02*
X82550Y137160D01*
D14*
X73660Y146050D02*
X69850Y146050D01*
X154940Y146050D02*
X158750Y146050D01*
D15*
X78232Y146050D03*
X150368Y146050D03*
X65532Y146050D03*
X163068Y146050D03*
D16*
X127718Y131445D02*
X127718Y120015D01*
X127718Y131445D02*
X130893Y131445D01*
X131004Y131443D01*
X131114Y131437D01*
X131225Y131428D01*
X131335Y131414D01*
X131444Y131397D01*
X131553Y131376D01*
X131661Y131351D01*
X131768Y131322D01*
X131874Y131290D01*
X131979Y131254D01*
X132082Y131214D01*
X132184Y131171D01*
X132285Y131124D01*
X132384Y131073D01*
X132481Y131020D01*
X132575Y130963D01*
X132668Y130902D01*
X132759Y130839D01*
X132848Y130772D01*
X132934Y130702D01*
X133017Y130629D01*
X133099Y130554D01*
X133177Y130476D01*
X133252Y130394D01*
X133325Y130311D01*
X133395Y130225D01*
X133462Y130136D01*
X133525Y130045D01*
X133586Y129952D01*
X133643Y129857D01*
X133696Y129761D01*
X133747Y129662D01*
X133794Y129561D01*
X133837Y129459D01*
X133877Y129356D01*
X133913Y129251D01*
X133945Y129145D01*
X133974Y129038D01*
X133999Y128930D01*
X134020Y128821D01*
X134037Y128712D01*
X134051Y128602D01*
X134060Y128491D01*
X134066Y128381D01*
X134068Y128270D01*
X134066Y128159D01*
X134060Y128049D01*
X134051Y127938D01*
X134037Y127828D01*
X134020Y127719D01*
X133999Y127610D01*
X133974Y127502D01*
X133945Y127395D01*
X133913Y127289D01*
X133877Y127184D01*
X133837Y127081D01*
X133794Y126979D01*
X133747Y126878D01*
X133696Y126779D01*
X133643Y126682D01*
X133586Y126588D01*
X133525Y126495D01*
X133462Y126404D01*
X133395Y126315D01*
X133325Y126229D01*
X133252Y126146D01*
X133177Y126064D01*
X133099Y125986D01*
X133017Y125911D01*
X132934Y125838D01*
X132848Y125768D01*
X132759Y125701D01*
X132668Y125638D01*
X132575Y125577D01*
X132480Y125520D01*
X132384Y125467D01*
X132285Y125416D01*
X132184Y125369D01*
X132082Y125326D01*
X131979Y125286D01*
X131874Y125250D01*
X131768Y125218D01*
X131661Y125189D01*
X131553Y125164D01*
X131444Y125143D01*
X131335Y125126D01*
X131225Y125112D01*
X131114Y125103D01*
X131004Y125097D01*
X130893Y125095D01*
X127718Y125095D01*
X131528Y125095D02*
X134068Y120015D01*
X139065Y120015D02*
X142240Y120015D01*
X142351Y120017D01*
X142461Y120023D01*
X142572Y120032D01*
X142682Y120046D01*
X142791Y120063D01*
X142900Y120084D01*
X143008Y120109D01*
X143115Y120138D01*
X143221Y120170D01*
X143326Y120206D01*
X143429Y120246D01*
X143531Y120289D01*
X143632Y120336D01*
X143731Y120387D01*
X143827Y120440D01*
X143922Y120497D01*
X144015Y120558D01*
X144106Y120621D01*
X144195Y120688D01*
X144281Y120758D01*
X144364Y120831D01*
X144446Y120906D01*
X144524Y120984D01*
X144599Y121066D01*
X144672Y121149D01*
X144742Y121235D01*
X144809Y121324D01*
X144872Y121415D01*
X144933Y121508D01*
X144990Y121602D01*
X145043Y121699D01*
X145094Y121798D01*
X145141Y121899D01*
X145184Y122001D01*
X145224Y122104D01*
X145260Y122209D01*
X145292Y122315D01*
X145321Y122422D01*
X145346Y122530D01*
X145367Y122639D01*
X145384Y122748D01*
X145398Y122858D01*
X145407Y122969D01*
X145413Y123079D01*
X145415Y123190D01*
X145413Y123301D01*
X145407Y123411D01*
X145398Y123522D01*
X145384Y123632D01*
X145367Y123741D01*
X145346Y123850D01*
X145321Y123958D01*
X145292Y124065D01*
X145260Y124171D01*
X145224Y124276D01*
X145184Y124379D01*
X145141Y124481D01*
X145094Y124582D01*
X145043Y124681D01*
X144990Y124777D01*
X144933Y124872D01*
X144872Y124965D01*
X144809Y125056D01*
X144742Y125145D01*
X144672Y125231D01*
X144599Y125314D01*
X144524Y125396D01*
X144446Y125474D01*
X144364Y125549D01*
X144281Y125622D01*
X144195Y125692D01*
X144106Y125759D01*
X144015Y125822D01*
X143922Y125883D01*
X143828Y125940D01*
X143731Y125993D01*
X143632Y126044D01*
X143531Y126091D01*
X143429Y126134D01*
X143326Y126174D01*
X143221Y126210D01*
X143115Y126242D01*
X143008Y126271D01*
X142900Y126296D01*
X142791Y126317D01*
X142682Y126334D01*
X142572Y126348D01*
X142461Y126357D01*
X142351Y126363D01*
X142240Y126365D01*
X142875Y131445D02*
X139065Y131445D01*
X142875Y131445D02*
X142975Y131443D01*
X143074Y131437D01*
X143174Y131427D01*
X143272Y131414D01*
X143371Y131396D01*
X143468Y131375D01*
X143564Y131350D01*
X143660Y131321D01*
X143754Y131288D01*
X143847Y131252D01*
X143938Y131212D01*
X144028Y131168D01*
X144116Y131121D01*
X144202Y131071D01*
X144286Y131017D01*
X144368Y130960D01*
X144447Y130900D01*
X144525Y130836D01*
X144599Y130770D01*
X144671Y130701D01*
X144740Y130629D01*
X144806Y130555D01*
X144870Y130477D01*
X144930Y130398D01*
X144987Y130316D01*
X145041Y130232D01*
X145091Y130146D01*
X145138Y130058D01*
X145182Y129968D01*
X145222Y129877D01*
X145258Y129784D01*
X145291Y129690D01*
X145320Y129594D01*
X145345Y129498D01*
X145366Y129401D01*
X145384Y129302D01*
X145397Y129204D01*
X145407Y129104D01*
X145413Y129005D01*
X145415Y128905D01*
X145413Y128805D01*
X145407Y128706D01*
X145397Y128606D01*
X145384Y128508D01*
X145366Y128409D01*
X145345Y128312D01*
X145320Y128216D01*
X145291Y128120D01*
X145258Y128026D01*
X145222Y127933D01*
X145182Y127842D01*
X145138Y127752D01*
X145091Y127664D01*
X145041Y127578D01*
X144987Y127494D01*
X144930Y127412D01*
X144870Y127333D01*
X144806Y127255D01*
X144740Y127181D01*
X144671Y127109D01*
X144599Y127040D01*
X144525Y126974D01*
X144447Y126910D01*
X144368Y126850D01*
X144286Y126793D01*
X144202Y126739D01*
X144116Y126689D01*
X144028Y126642D01*
X143938Y126598D01*
X143847Y126558D01*
X143754Y126522D01*
X143660Y126489D01*
X143564Y126460D01*
X143468Y126435D01*
X143371Y126414D01*
X143272Y126396D01*
X143174Y126383D01*
X143074Y126373D01*
X142975Y126367D01*
X142875Y126365D01*
X140335Y126365D01*
D11*
X57150Y584200D02*
X44450Y584200D01*
X44450Y508000D02*
X57150Y508000D01*
D16*
X71755Y523337D02*
X76581Y523337D01*
X71755Y521997D02*
X71755Y524678D01*
X76581Y527320D02*
X76581Y529465D01*
X76581Y527320D02*
X71755Y527320D01*
X71755Y529465D01*
X73900Y528929D02*
X73900Y527320D01*
X71755Y532153D02*
X76581Y532153D01*
X74436Y533762D02*
X71755Y532153D01*
X74436Y533762D02*
X71755Y535370D01*
X76581Y535370D01*
X76581Y538785D02*
X71755Y538785D01*
X71755Y540126D01*
X71757Y540197D01*
X71763Y540269D01*
X71772Y540339D01*
X71785Y540409D01*
X71802Y540479D01*
X71823Y540547D01*
X71847Y540614D01*
X71875Y540680D01*
X71906Y540744D01*
X71941Y540807D01*
X71979Y540867D01*
X72020Y540926D01*
X72064Y540982D01*
X72111Y541036D01*
X72160Y541087D01*
X72213Y541135D01*
X72268Y541181D01*
X72325Y541223D01*
X72385Y541263D01*
X72446Y541299D01*
X72510Y541332D01*
X72575Y541361D01*
X72641Y541387D01*
X72709Y541410D01*
X72778Y541429D01*
X72848Y541444D01*
X72918Y541455D01*
X72989Y541463D01*
X73060Y541467D01*
X73132Y541467D01*
X73203Y541463D01*
X73274Y541455D01*
X73344Y541444D01*
X73414Y541429D01*
X73483Y541410D01*
X73551Y541387D01*
X73617Y541361D01*
X73682Y541332D01*
X73746Y541299D01*
X73807Y541263D01*
X73867Y541223D01*
X73924Y541181D01*
X73979Y541135D01*
X74032Y541087D01*
X74081Y541036D01*
X74128Y540982D01*
X74172Y540926D01*
X74213Y540867D01*
X74251Y540807D01*
X74286Y540744D01*
X74317Y540680D01*
X74345Y540614D01*
X74369Y540547D01*
X74390Y540479D01*
X74407Y540409D01*
X74420Y540339D01*
X74429Y540269D01*
X74435Y540197D01*
X74437Y540126D01*
X74436Y540126D02*
X74436Y538785D01*
X76581Y544145D02*
X76581Y546290D01*
X76581Y544145D02*
X71755Y544145D01*
X71755Y546290D01*
X73900Y545753D02*
X73900Y544145D01*
X71755Y548944D02*
X76581Y548944D01*
X71755Y548944D02*
X71755Y550284D01*
X71757Y550355D01*
X71763Y550427D01*
X71772Y550497D01*
X71785Y550567D01*
X71802Y550637D01*
X71823Y550705D01*
X71847Y550772D01*
X71875Y550838D01*
X71906Y550902D01*
X71941Y550965D01*
X71979Y551025D01*
X72020Y551084D01*
X72064Y551140D01*
X72111Y551194D01*
X72160Y551245D01*
X72213Y551293D01*
X72268Y551339D01*
X72325Y551381D01*
X72385Y551421D01*
X72446Y551457D01*
X72510Y551490D01*
X72575Y551519D01*
X72641Y551545D01*
X72709Y551568D01*
X72778Y551587D01*
X72848Y551602D01*
X72918Y551613D01*
X72989Y551621D01*
X73060Y551625D01*
X73132Y551625D01*
X73203Y551621D01*
X73274Y551613D01*
X73344Y551602D01*
X73414Y551587D01*
X73483Y551568D01*
X73551Y551545D01*
X73617Y551519D01*
X73682Y551490D01*
X73746Y551457D01*
X73807Y551421D01*
X73867Y551381D01*
X73924Y551339D01*
X73979Y551293D01*
X74032Y551245D01*
X74081Y551194D01*
X74128Y551140D01*
X74172Y551084D01*
X74213Y551025D01*
X74251Y550965D01*
X74286Y550902D01*
X74317Y550838D01*
X74345Y550772D01*
X74369Y550705D01*
X74390Y550637D01*
X74407Y550567D01*
X74420Y550497D01*
X74429Y550427D01*
X74435Y550355D01*
X74437Y550284D01*
X74436Y550284D02*
X74436Y548944D01*
X74436Y550552D02*
X76581Y551625D01*
X76581Y554098D02*
X71755Y555707D01*
X76581Y557316D01*
X75375Y556914D02*
X75375Y554501D01*
X76581Y560828D02*
X71755Y560828D01*
X71755Y562168D02*
X71755Y559487D01*
X71755Y564791D02*
X75240Y564791D01*
X75240Y564790D02*
X75311Y564792D01*
X75383Y564798D01*
X75453Y564807D01*
X75523Y564820D01*
X75593Y564837D01*
X75661Y564858D01*
X75728Y564882D01*
X75794Y564910D01*
X75858Y564941D01*
X75921Y564976D01*
X75981Y565014D01*
X76040Y565055D01*
X76096Y565099D01*
X76150Y565146D01*
X76201Y565195D01*
X76249Y565248D01*
X76295Y565303D01*
X76337Y565360D01*
X76377Y565420D01*
X76413Y565481D01*
X76446Y565545D01*
X76475Y565610D01*
X76501Y565676D01*
X76524Y565744D01*
X76543Y565813D01*
X76558Y565883D01*
X76569Y565953D01*
X76577Y566024D01*
X76581Y566095D01*
X76581Y566167D01*
X76577Y566238D01*
X76569Y566309D01*
X76558Y566379D01*
X76543Y566449D01*
X76524Y566518D01*
X76501Y566586D01*
X76475Y566652D01*
X76446Y566717D01*
X76413Y566781D01*
X76377Y566842D01*
X76337Y566902D01*
X76295Y566959D01*
X76249Y567014D01*
X76201Y567067D01*
X76150Y567116D01*
X76096Y567163D01*
X76040Y567207D01*
X75981Y567248D01*
X75921Y567286D01*
X75858Y567321D01*
X75794Y567352D01*
X75728Y567380D01*
X75661Y567404D01*
X75593Y567425D01*
X75523Y567442D01*
X75453Y567455D01*
X75383Y567464D01*
X75311Y567470D01*
X75240Y567472D01*
X71755Y567472D01*
X71755Y570706D02*
X76581Y570706D01*
X71755Y570706D02*
X71755Y572047D01*
X71757Y572118D01*
X71763Y572190D01*
X71772Y572260D01*
X71785Y572330D01*
X71802Y572400D01*
X71823Y572468D01*
X71847Y572535D01*
X71875Y572601D01*
X71906Y572665D01*
X71941Y572728D01*
X71979Y572788D01*
X72020Y572847D01*
X72064Y572903D01*
X72111Y572957D01*
X72160Y573008D01*
X72213Y573056D01*
X72268Y573102D01*
X72325Y573144D01*
X72385Y573184D01*
X72446Y573220D01*
X72510Y573253D01*
X72575Y573282D01*
X72641Y573308D01*
X72709Y573331D01*
X72778Y573350D01*
X72848Y573365D01*
X72918Y573376D01*
X72989Y573384D01*
X73060Y573388D01*
X73132Y573388D01*
X73203Y573384D01*
X73274Y573376D01*
X73344Y573365D01*
X73414Y573350D01*
X73483Y573331D01*
X73551Y573308D01*
X73617Y573282D01*
X73682Y573253D01*
X73746Y573220D01*
X73807Y573184D01*
X73867Y573144D01*
X73924Y573102D01*
X73979Y573056D01*
X74032Y573008D01*
X74081Y572957D01*
X74128Y572903D01*
X74172Y572847D01*
X74213Y572788D01*
X74251Y572728D01*
X74286Y572665D01*
X74317Y572601D01*
X74345Y572535D01*
X74369Y572468D01*
X74390Y572400D01*
X74407Y572330D01*
X74420Y572260D01*
X74429Y572190D01*
X74435Y572118D01*
X74437Y572047D01*
X74436Y572047D02*
X74436Y570706D01*
X74436Y572315D02*
X76581Y573388D01*
X76581Y576332D02*
X76581Y578476D01*
X76581Y576332D02*
X71755Y576332D01*
X71755Y578476D01*
X73900Y577940D02*
X73900Y576332D01*
X72827Y580884D02*
X71755Y582224D01*
X76581Y582224D01*
X76581Y580884D02*
X76581Y583565D01*
X164810Y51491D02*
X164808Y51426D01*
X164802Y51362D01*
X164792Y51298D01*
X164779Y51234D01*
X164761Y51172D01*
X164740Y51111D01*
X164716Y51051D01*
X164687Y50993D01*
X164655Y50936D01*
X164620Y50882D01*
X164582Y50830D01*
X164540Y50780D01*
X164496Y50733D01*
X164449Y50689D01*
X164399Y50647D01*
X164347Y50609D01*
X164293Y50574D01*
X164236Y50542D01*
X164178Y50513D01*
X164118Y50489D01*
X164057Y50468D01*
X163995Y50450D01*
X163931Y50437D01*
X163867Y50427D01*
X163803Y50421D01*
X163738Y50419D01*
X163644Y50421D01*
X163550Y50427D01*
X163456Y50437D01*
X163363Y50450D01*
X163271Y50468D01*
X163179Y50489D01*
X163088Y50514D01*
X162998Y50543D01*
X162910Y50576D01*
X162823Y50612D01*
X162738Y50652D01*
X162654Y50695D01*
X162573Y50742D01*
X162493Y50792D01*
X162415Y50845D01*
X162340Y50902D01*
X162267Y50961D01*
X162197Y51024D01*
X162129Y51089D01*
X162264Y54173D02*
X162266Y54238D01*
X162272Y54302D01*
X162282Y54366D01*
X162295Y54430D01*
X162313Y54492D01*
X162334Y54553D01*
X162358Y54613D01*
X162387Y54671D01*
X162419Y54728D01*
X162454Y54782D01*
X162492Y54834D01*
X162534Y54884D01*
X162578Y54931D01*
X162625Y54975D01*
X162675Y55017D01*
X162727Y55055D01*
X162781Y55090D01*
X162838Y55122D01*
X162896Y55151D01*
X162956Y55175D01*
X163017Y55196D01*
X163079Y55214D01*
X163143Y55227D01*
X163207Y55237D01*
X163271Y55243D01*
X163336Y55245D01*
X163422Y55243D01*
X163508Y55238D01*
X163594Y55228D01*
X163679Y55215D01*
X163764Y55199D01*
X163848Y55179D01*
X163931Y55155D01*
X164013Y55128D01*
X164093Y55097D01*
X164173Y55063D01*
X164250Y55025D01*
X164326Y54984D01*
X164400Y54940D01*
X164472Y54893D01*
X164543Y54843D01*
X162800Y53235D02*
X162747Y53268D01*
X162696Y53305D01*
X162647Y53344D01*
X162600Y53386D01*
X162556Y53431D01*
X162515Y53478D01*
X162476Y53527D01*
X162440Y53579D01*
X162407Y53633D01*
X162378Y53688D01*
X162352Y53745D01*
X162329Y53804D01*
X162309Y53863D01*
X162293Y53924D01*
X162280Y53985D01*
X162271Y54048D01*
X162266Y54110D01*
X162264Y54173D01*
X164274Y52429D02*
X164327Y52396D01*
X164378Y52359D01*
X164427Y52320D01*
X164474Y52278D01*
X164518Y52233D01*
X164559Y52186D01*
X164598Y52137D01*
X164634Y52085D01*
X164667Y52031D01*
X164696Y51976D01*
X164722Y51919D01*
X164745Y51860D01*
X164765Y51801D01*
X164781Y51740D01*
X164794Y51679D01*
X164803Y51616D01*
X164808Y51554D01*
X164810Y51491D01*
X164274Y52430D02*
X162800Y53234D01*
X167360Y55245D02*
X168433Y50419D01*
X169505Y53636D01*
X170577Y50419D01*
X171650Y55245D01*
X174626Y55245D02*
X174626Y50419D01*
X175162Y50419D02*
X174089Y50419D01*
X174089Y55245D02*
X175162Y55245D01*
X178649Y55245D02*
X178649Y50419D01*
X177308Y55245D02*
X179990Y55245D01*
X183473Y50419D02*
X184545Y50419D01*
X183473Y50419D02*
X183408Y50421D01*
X183344Y50427D01*
X183280Y50437D01*
X183216Y50450D01*
X183154Y50468D01*
X183093Y50489D01*
X183033Y50513D01*
X182975Y50542D01*
X182918Y50574D01*
X182864Y50609D01*
X182812Y50647D01*
X182762Y50689D01*
X182715Y50733D01*
X182671Y50780D01*
X182629Y50830D01*
X182591Y50882D01*
X182556Y50936D01*
X182524Y50993D01*
X182495Y51051D01*
X182471Y51111D01*
X182450Y51172D01*
X182432Y51234D01*
X182419Y51298D01*
X182409Y51362D01*
X182403Y51426D01*
X182401Y51491D01*
X182400Y51491D02*
X182400Y54173D01*
X182401Y54173D02*
X182403Y54238D01*
X182409Y54302D01*
X182419Y54366D01*
X182432Y54430D01*
X182450Y54492D01*
X182471Y54553D01*
X182495Y54613D01*
X182524Y54671D01*
X182556Y54728D01*
X182591Y54782D01*
X182629Y54834D01*
X182671Y54884D01*
X182715Y54931D01*
X182762Y54975D01*
X182812Y55017D01*
X182864Y55055D01*
X182918Y55090D01*
X182975Y55122D01*
X183033Y55151D01*
X183093Y55175D01*
X183154Y55196D01*
X183216Y55214D01*
X183280Y55227D01*
X183344Y55237D01*
X183408Y55243D01*
X183473Y55245D01*
X184545Y55245D01*
X187184Y55245D02*
X187184Y50419D01*
X187184Y53100D02*
X189865Y53100D01*
X189865Y55245D02*
X189865Y50419D01*
X300694Y90805D02*
X300759Y90807D01*
X300823Y90813D01*
X300887Y90823D01*
X300951Y90836D01*
X301013Y90854D01*
X301074Y90875D01*
X301134Y90899D01*
X301192Y90928D01*
X301249Y90960D01*
X301303Y90995D01*
X301355Y91033D01*
X301405Y91075D01*
X301452Y91119D01*
X301496Y91166D01*
X301538Y91216D01*
X301576Y91268D01*
X301611Y91322D01*
X301643Y91379D01*
X301672Y91437D01*
X301696Y91497D01*
X301717Y91558D01*
X301735Y91620D01*
X301748Y91684D01*
X301758Y91748D01*
X301764Y91812D01*
X301766Y91877D01*
X300694Y90805D02*
X300600Y90807D01*
X300506Y90813D01*
X300412Y90823D01*
X300319Y90836D01*
X300227Y90854D01*
X300135Y90875D01*
X300044Y90900D01*
X299954Y90929D01*
X299866Y90962D01*
X299779Y90998D01*
X299694Y91038D01*
X299610Y91081D01*
X299529Y91128D01*
X299449Y91178D01*
X299371Y91231D01*
X299296Y91288D01*
X299223Y91347D01*
X299153Y91410D01*
X299085Y91475D01*
X299219Y94559D02*
X299221Y94624D01*
X299227Y94688D01*
X299237Y94752D01*
X299250Y94816D01*
X299268Y94878D01*
X299289Y94939D01*
X299313Y94999D01*
X299342Y95057D01*
X299374Y95114D01*
X299409Y95168D01*
X299447Y95220D01*
X299489Y95270D01*
X299533Y95317D01*
X299580Y95361D01*
X299630Y95403D01*
X299682Y95441D01*
X299736Y95476D01*
X299793Y95508D01*
X299851Y95537D01*
X299911Y95561D01*
X299972Y95582D01*
X300034Y95600D01*
X300098Y95613D01*
X300162Y95623D01*
X300226Y95629D01*
X300291Y95631D01*
X300377Y95629D01*
X300463Y95624D01*
X300549Y95614D01*
X300634Y95601D01*
X300719Y95585D01*
X300803Y95565D01*
X300886Y95541D01*
X300968Y95514D01*
X301048Y95483D01*
X301128Y95449D01*
X301205Y95411D01*
X301281Y95370D01*
X301355Y95326D01*
X301427Y95279D01*
X301498Y95229D01*
X299755Y93621D02*
X299702Y93654D01*
X299651Y93691D01*
X299602Y93730D01*
X299555Y93772D01*
X299511Y93817D01*
X299470Y93864D01*
X299431Y93913D01*
X299395Y93965D01*
X299362Y94019D01*
X299333Y94074D01*
X299307Y94131D01*
X299284Y94190D01*
X299264Y94249D01*
X299248Y94310D01*
X299235Y94371D01*
X299226Y94434D01*
X299221Y94496D01*
X299219Y94559D01*
X301230Y92815D02*
X301283Y92782D01*
X301334Y92745D01*
X301383Y92706D01*
X301430Y92664D01*
X301474Y92619D01*
X301515Y92572D01*
X301554Y92523D01*
X301590Y92471D01*
X301623Y92417D01*
X301652Y92362D01*
X301678Y92305D01*
X301701Y92246D01*
X301721Y92187D01*
X301737Y92126D01*
X301750Y92065D01*
X301759Y92002D01*
X301764Y91940D01*
X301766Y91877D01*
X301230Y92816D02*
X299755Y93620D01*
X304571Y95631D02*
X304571Y90805D01*
X304571Y95631D02*
X305912Y95631D01*
X305982Y95629D01*
X306052Y95624D01*
X306122Y95614D01*
X306191Y95602D01*
X306259Y95585D01*
X306326Y95565D01*
X306393Y95542D01*
X306457Y95515D01*
X306521Y95485D01*
X306583Y95451D01*
X306642Y95415D01*
X306700Y95375D01*
X306756Y95332D01*
X306809Y95287D01*
X306860Y95238D01*
X306909Y95187D01*
X306954Y95134D01*
X306997Y95078D01*
X307037Y95020D01*
X307073Y94961D01*
X307107Y94899D01*
X307137Y94835D01*
X307164Y94771D01*
X307187Y94704D01*
X307207Y94637D01*
X307224Y94569D01*
X307236Y94500D01*
X307246Y94430D01*
X307251Y94360D01*
X307253Y94290D01*
X307252Y94290D02*
X307252Y92146D01*
X307253Y92146D02*
X307251Y92076D01*
X307246Y92006D01*
X307236Y91936D01*
X307224Y91867D01*
X307207Y91799D01*
X307187Y91732D01*
X307164Y91665D01*
X307137Y91601D01*
X307107Y91537D01*
X307073Y91475D01*
X307037Y91416D01*
X306997Y91358D01*
X306954Y91302D01*
X306909Y91249D01*
X306860Y91198D01*
X306809Y91149D01*
X306756Y91104D01*
X306700Y91061D01*
X306642Y91021D01*
X306582Y90985D01*
X306521Y90951D01*
X306457Y90921D01*
X306393Y90894D01*
X306326Y90871D01*
X306259Y90851D01*
X306191Y90834D01*
X306122Y90822D01*
X306052Y90812D01*
X305982Y90807D01*
X305912Y90805D01*
X304571Y90805D01*
X309973Y90805D02*
X311581Y95631D01*
X313190Y90805D01*
X312788Y92012D02*
X310375Y92012D01*
X315446Y90269D02*
X317591Y90269D01*
X319836Y90269D02*
X321980Y90269D01*
X325931Y90805D02*
X325996Y90807D01*
X326060Y90813D01*
X326124Y90823D01*
X326188Y90836D01*
X326250Y90854D01*
X326311Y90875D01*
X326371Y90899D01*
X326429Y90928D01*
X326486Y90960D01*
X326540Y90995D01*
X326592Y91033D01*
X326642Y91075D01*
X326689Y91119D01*
X326733Y91166D01*
X326775Y91216D01*
X326813Y91268D01*
X326848Y91322D01*
X326880Y91379D01*
X326909Y91437D01*
X326933Y91497D01*
X326954Y91558D01*
X326972Y91620D01*
X326985Y91684D01*
X326995Y91748D01*
X327001Y91812D01*
X327003Y91877D01*
X325931Y90805D02*
X325837Y90807D01*
X325743Y90813D01*
X325649Y90823D01*
X325556Y90836D01*
X325464Y90854D01*
X325372Y90875D01*
X325281Y90900D01*
X325191Y90929D01*
X325103Y90962D01*
X325016Y90998D01*
X324931Y91038D01*
X324847Y91081D01*
X324766Y91128D01*
X324686Y91178D01*
X324608Y91231D01*
X324533Y91288D01*
X324460Y91347D01*
X324390Y91410D01*
X324322Y91475D01*
X324457Y94559D02*
X324459Y94624D01*
X324465Y94688D01*
X324475Y94752D01*
X324488Y94816D01*
X324506Y94878D01*
X324527Y94939D01*
X324551Y94999D01*
X324580Y95057D01*
X324612Y95114D01*
X324647Y95168D01*
X324685Y95220D01*
X324727Y95270D01*
X324771Y95317D01*
X324818Y95361D01*
X324868Y95403D01*
X324920Y95441D01*
X324974Y95476D01*
X325031Y95508D01*
X325089Y95537D01*
X325149Y95561D01*
X325210Y95582D01*
X325272Y95600D01*
X325336Y95613D01*
X325400Y95623D01*
X325464Y95629D01*
X325529Y95631D01*
X325615Y95629D01*
X325701Y95624D01*
X325787Y95614D01*
X325872Y95601D01*
X325957Y95585D01*
X326041Y95565D01*
X326124Y95541D01*
X326206Y95514D01*
X326286Y95483D01*
X326366Y95449D01*
X326443Y95411D01*
X326519Y95370D01*
X326593Y95326D01*
X326665Y95279D01*
X326736Y95229D01*
X324992Y93621D02*
X324939Y93654D01*
X324888Y93691D01*
X324839Y93730D01*
X324792Y93772D01*
X324748Y93817D01*
X324707Y93864D01*
X324668Y93913D01*
X324632Y93965D01*
X324599Y94019D01*
X324570Y94074D01*
X324544Y94131D01*
X324521Y94190D01*
X324501Y94249D01*
X324485Y94310D01*
X324472Y94371D01*
X324463Y94434D01*
X324458Y94496D01*
X324456Y94559D01*
X326467Y92815D02*
X326520Y92782D01*
X326571Y92745D01*
X326620Y92706D01*
X326667Y92664D01*
X326711Y92619D01*
X326752Y92572D01*
X326791Y92523D01*
X326827Y92471D01*
X326860Y92417D01*
X326889Y92362D01*
X326915Y92305D01*
X326938Y92246D01*
X326958Y92187D01*
X326974Y92126D01*
X326987Y92065D01*
X326996Y92002D01*
X327001Y91940D01*
X327003Y91877D01*
X326467Y92816D02*
X324993Y93620D01*
X330669Y90805D02*
X331742Y90805D01*
X330669Y90805D02*
X330604Y90807D01*
X330540Y90813D01*
X330476Y90823D01*
X330412Y90836D01*
X330350Y90854D01*
X330289Y90875D01*
X330229Y90899D01*
X330171Y90928D01*
X330114Y90960D01*
X330060Y90995D01*
X330008Y91033D01*
X329958Y91075D01*
X329911Y91119D01*
X329867Y91166D01*
X329825Y91216D01*
X329787Y91268D01*
X329752Y91322D01*
X329720Y91379D01*
X329691Y91437D01*
X329667Y91497D01*
X329646Y91558D01*
X329628Y91620D01*
X329615Y91684D01*
X329605Y91748D01*
X329599Y91812D01*
X329597Y91877D01*
X329597Y94559D01*
X329599Y94624D01*
X329605Y94688D01*
X329615Y94752D01*
X329628Y94816D01*
X329646Y94878D01*
X329667Y94939D01*
X329691Y94999D01*
X329720Y95057D01*
X329752Y95114D01*
X329787Y95168D01*
X329825Y95220D01*
X329867Y95270D01*
X329911Y95317D01*
X329958Y95361D01*
X330008Y95403D01*
X330060Y95441D01*
X330114Y95476D01*
X330171Y95508D01*
X330229Y95537D01*
X330289Y95561D01*
X330350Y95582D01*
X330412Y95600D01*
X330476Y95613D01*
X330540Y95623D01*
X330604Y95629D01*
X330669Y95631D01*
X331742Y95631D01*
X334400Y95631D02*
X334400Y90805D01*
X336545Y90805D01*
X340427Y95631D02*
X340495Y95629D01*
X340562Y95623D01*
X340629Y95614D01*
X340696Y95601D01*
X340761Y95584D01*
X340826Y95563D01*
X340889Y95539D01*
X340951Y95511D01*
X341011Y95480D01*
X341069Y95446D01*
X341125Y95408D01*
X341180Y95368D01*
X341231Y95324D01*
X341280Y95277D01*
X341327Y95228D01*
X341371Y95177D01*
X341411Y95122D01*
X341449Y95066D01*
X341483Y95008D01*
X341514Y94948D01*
X341542Y94886D01*
X341566Y94823D01*
X341587Y94758D01*
X341604Y94693D01*
X341617Y94626D01*
X341626Y94559D01*
X341632Y94492D01*
X341634Y94424D01*
X340427Y95631D02*
X340349Y95629D01*
X340271Y95623D01*
X340194Y95613D01*
X340117Y95600D01*
X340041Y95582D01*
X339966Y95561D01*
X339892Y95536D01*
X339820Y95507D01*
X339749Y95475D01*
X339680Y95439D01*
X339612Y95400D01*
X339547Y95357D01*
X339484Y95311D01*
X339423Y95262D01*
X339365Y95210D01*
X339310Y95155D01*
X339257Y95098D01*
X339208Y95038D01*
X339161Y94975D01*
X339118Y94911D01*
X339078Y94844D01*
X339041Y94775D01*
X339008Y94704D01*
X338978Y94632D01*
X338952Y94559D01*
X341232Y93486D02*
X341281Y93535D01*
X341328Y93587D01*
X341371Y93642D01*
X341412Y93699D01*
X341450Y93758D01*
X341484Y93819D01*
X341515Y93882D01*
X341543Y93946D01*
X341567Y94012D01*
X341587Y94078D01*
X341604Y94146D01*
X341617Y94215D01*
X341626Y94284D01*
X341632Y94354D01*
X341634Y94424D01*
X341231Y93486D02*
X338953Y90805D01*
X341634Y90805D01*
X383244Y90805D02*
X383309Y90807D01*
X383373Y90813D01*
X383437Y90823D01*
X383501Y90836D01*
X383563Y90854D01*
X383624Y90875D01*
X383684Y90899D01*
X383742Y90928D01*
X383799Y90960D01*
X383853Y90995D01*
X383905Y91033D01*
X383955Y91075D01*
X384002Y91119D01*
X384046Y91166D01*
X384088Y91216D01*
X384126Y91268D01*
X384161Y91322D01*
X384193Y91379D01*
X384222Y91437D01*
X384246Y91497D01*
X384267Y91558D01*
X384285Y91620D01*
X384298Y91684D01*
X384308Y91748D01*
X384314Y91812D01*
X384316Y91877D01*
X383244Y90805D02*
X383150Y90807D01*
X383056Y90813D01*
X382962Y90823D01*
X382869Y90836D01*
X382777Y90854D01*
X382685Y90875D01*
X382594Y90900D01*
X382504Y90929D01*
X382416Y90962D01*
X382329Y90998D01*
X382244Y91038D01*
X382160Y91081D01*
X382079Y91128D01*
X381999Y91178D01*
X381921Y91231D01*
X381846Y91288D01*
X381773Y91347D01*
X381703Y91410D01*
X381635Y91475D01*
X381769Y94559D02*
X381771Y94624D01*
X381777Y94688D01*
X381787Y94752D01*
X381800Y94816D01*
X381818Y94878D01*
X381839Y94939D01*
X381863Y94999D01*
X381892Y95057D01*
X381924Y95114D01*
X381959Y95168D01*
X381997Y95220D01*
X382039Y95270D01*
X382083Y95317D01*
X382130Y95361D01*
X382180Y95403D01*
X382232Y95441D01*
X382286Y95476D01*
X382343Y95508D01*
X382401Y95537D01*
X382461Y95561D01*
X382522Y95582D01*
X382584Y95600D01*
X382648Y95613D01*
X382712Y95623D01*
X382776Y95629D01*
X382841Y95631D01*
X382927Y95629D01*
X383013Y95624D01*
X383099Y95614D01*
X383184Y95601D01*
X383269Y95585D01*
X383353Y95565D01*
X383436Y95541D01*
X383518Y95514D01*
X383598Y95483D01*
X383678Y95449D01*
X383755Y95411D01*
X383831Y95370D01*
X383905Y95326D01*
X383977Y95279D01*
X384048Y95229D01*
X382305Y93621D02*
X382252Y93654D01*
X382201Y93691D01*
X382152Y93730D01*
X382105Y93772D01*
X382061Y93817D01*
X382020Y93864D01*
X381981Y93913D01*
X381945Y93965D01*
X381912Y94019D01*
X381883Y94074D01*
X381857Y94131D01*
X381834Y94190D01*
X381814Y94249D01*
X381798Y94310D01*
X381785Y94371D01*
X381776Y94434D01*
X381771Y94496D01*
X381769Y94559D01*
X383780Y92815D02*
X383833Y92782D01*
X383884Y92745D01*
X383933Y92706D01*
X383980Y92664D01*
X384024Y92619D01*
X384065Y92572D01*
X384104Y92523D01*
X384140Y92471D01*
X384173Y92417D01*
X384202Y92362D01*
X384228Y92305D01*
X384251Y92246D01*
X384271Y92187D01*
X384287Y92126D01*
X384300Y92065D01*
X384309Y92002D01*
X384314Y91940D01*
X384316Y91877D01*
X383780Y92816D02*
X382305Y93620D01*
X387121Y95631D02*
X387121Y90805D01*
X387121Y95631D02*
X388462Y95631D01*
X388532Y95629D01*
X388602Y95624D01*
X388672Y95614D01*
X388741Y95602D01*
X388809Y95585D01*
X388876Y95565D01*
X388943Y95542D01*
X389007Y95515D01*
X389071Y95485D01*
X389133Y95451D01*
X389192Y95415D01*
X389250Y95375D01*
X389306Y95332D01*
X389359Y95287D01*
X389410Y95238D01*
X389459Y95187D01*
X389504Y95134D01*
X389547Y95078D01*
X389587Y95020D01*
X389623Y94961D01*
X389657Y94899D01*
X389687Y94835D01*
X389714Y94771D01*
X389737Y94704D01*
X389757Y94637D01*
X389774Y94569D01*
X389786Y94500D01*
X389796Y94430D01*
X389801Y94360D01*
X389803Y94290D01*
X389802Y94290D02*
X389802Y92146D01*
X389803Y92146D02*
X389801Y92076D01*
X389796Y92006D01*
X389786Y91936D01*
X389774Y91867D01*
X389757Y91799D01*
X389737Y91732D01*
X389714Y91665D01*
X389687Y91601D01*
X389657Y91537D01*
X389623Y91475D01*
X389587Y91416D01*
X389547Y91358D01*
X389504Y91302D01*
X389459Y91249D01*
X389410Y91198D01*
X389359Y91149D01*
X389306Y91104D01*
X389250Y91061D01*
X389192Y91021D01*
X389132Y90985D01*
X389071Y90951D01*
X389007Y90921D01*
X388943Y90894D01*
X388876Y90871D01*
X388809Y90851D01*
X388741Y90834D01*
X388672Y90822D01*
X388602Y90812D01*
X388532Y90807D01*
X388462Y90805D01*
X387121Y90805D01*
X392523Y90805D02*
X394131Y95631D01*
X395740Y90805D01*
X395338Y92012D02*
X392925Y92012D01*
X397996Y90269D02*
X400141Y90269D01*
X402386Y90269D02*
X404530Y90269D01*
X408481Y90805D02*
X408546Y90807D01*
X408610Y90813D01*
X408674Y90823D01*
X408738Y90836D01*
X408800Y90854D01*
X408861Y90875D01*
X408921Y90899D01*
X408979Y90928D01*
X409036Y90960D01*
X409090Y90995D01*
X409142Y91033D01*
X409192Y91075D01*
X409239Y91119D01*
X409283Y91166D01*
X409325Y91216D01*
X409363Y91268D01*
X409398Y91322D01*
X409430Y91379D01*
X409459Y91437D01*
X409483Y91497D01*
X409504Y91558D01*
X409522Y91620D01*
X409535Y91684D01*
X409545Y91748D01*
X409551Y91812D01*
X409553Y91877D01*
X408481Y90805D02*
X408387Y90807D01*
X408293Y90813D01*
X408199Y90823D01*
X408106Y90836D01*
X408014Y90854D01*
X407922Y90875D01*
X407831Y90900D01*
X407741Y90929D01*
X407653Y90962D01*
X407566Y90998D01*
X407481Y91038D01*
X407397Y91081D01*
X407316Y91128D01*
X407236Y91178D01*
X407158Y91231D01*
X407083Y91288D01*
X407010Y91347D01*
X406940Y91410D01*
X406872Y91475D01*
X407007Y94559D02*
X407009Y94624D01*
X407015Y94688D01*
X407025Y94752D01*
X407038Y94816D01*
X407056Y94878D01*
X407077Y94939D01*
X407101Y94999D01*
X407130Y95057D01*
X407162Y95114D01*
X407197Y95168D01*
X407235Y95220D01*
X407277Y95270D01*
X407321Y95317D01*
X407368Y95361D01*
X407418Y95403D01*
X407470Y95441D01*
X407524Y95476D01*
X407581Y95508D01*
X407639Y95537D01*
X407699Y95561D01*
X407760Y95582D01*
X407822Y95600D01*
X407886Y95613D01*
X407950Y95623D01*
X408014Y95629D01*
X408079Y95631D01*
X408165Y95629D01*
X408251Y95624D01*
X408337Y95614D01*
X408422Y95601D01*
X408507Y95585D01*
X408591Y95565D01*
X408674Y95541D01*
X408756Y95514D01*
X408836Y95483D01*
X408916Y95449D01*
X408993Y95411D01*
X409069Y95370D01*
X409143Y95326D01*
X409215Y95279D01*
X409286Y95229D01*
X407542Y93621D02*
X407489Y93654D01*
X407438Y93691D01*
X407389Y93730D01*
X407342Y93772D01*
X407298Y93817D01*
X407257Y93864D01*
X407218Y93913D01*
X407182Y93965D01*
X407149Y94019D01*
X407120Y94074D01*
X407094Y94131D01*
X407071Y94190D01*
X407051Y94249D01*
X407035Y94310D01*
X407022Y94371D01*
X407013Y94434D01*
X407008Y94496D01*
X407006Y94559D01*
X409017Y92815D02*
X409070Y92782D01*
X409121Y92745D01*
X409170Y92706D01*
X409217Y92664D01*
X409261Y92619D01*
X409302Y92572D01*
X409341Y92523D01*
X409377Y92471D01*
X409410Y92417D01*
X409439Y92362D01*
X409465Y92305D01*
X409488Y92246D01*
X409508Y92187D01*
X409524Y92126D01*
X409537Y92065D01*
X409546Y92002D01*
X409551Y91940D01*
X409553Y91877D01*
X409017Y92816D02*
X407543Y93620D01*
X413219Y90805D02*
X414292Y90805D01*
X413219Y90805D02*
X413154Y90807D01*
X413090Y90813D01*
X413026Y90823D01*
X412962Y90836D01*
X412900Y90854D01*
X412839Y90875D01*
X412779Y90899D01*
X412721Y90928D01*
X412664Y90960D01*
X412610Y90995D01*
X412558Y91033D01*
X412508Y91075D01*
X412461Y91119D01*
X412417Y91166D01*
X412375Y91216D01*
X412337Y91268D01*
X412302Y91322D01*
X412270Y91379D01*
X412241Y91437D01*
X412217Y91497D01*
X412196Y91558D01*
X412178Y91620D01*
X412165Y91684D01*
X412155Y91748D01*
X412149Y91812D01*
X412147Y91877D01*
X412147Y94559D01*
X412149Y94624D01*
X412155Y94688D01*
X412165Y94752D01*
X412178Y94816D01*
X412196Y94878D01*
X412217Y94939D01*
X412241Y94999D01*
X412270Y95057D01*
X412302Y95114D01*
X412337Y95168D01*
X412375Y95220D01*
X412417Y95270D01*
X412461Y95317D01*
X412508Y95361D01*
X412558Y95403D01*
X412610Y95441D01*
X412664Y95476D01*
X412721Y95508D01*
X412779Y95537D01*
X412839Y95561D01*
X412900Y95582D01*
X412962Y95600D01*
X413026Y95613D01*
X413090Y95623D01*
X413154Y95629D01*
X413219Y95631D01*
X414292Y95631D01*
X416950Y95631D02*
X416950Y90805D01*
X419095Y90805D01*
X421503Y94559D02*
X422843Y95631D01*
X422843Y90805D01*
X421503Y90805D02*
X424184Y90805D01*
D11*
X57150Y482600D02*
X44450Y482600D01*
X44450Y406400D02*
X57150Y406400D01*
D16*
X71755Y421737D02*
X76581Y421737D01*
X71755Y420397D02*
X71755Y423078D01*
X76581Y425720D02*
X76581Y427865D01*
X76581Y425720D02*
X71755Y425720D01*
X71755Y427865D01*
X73900Y427329D02*
X73900Y425720D01*
X71755Y430553D02*
X76581Y430553D01*
X74436Y432162D02*
X71755Y430553D01*
X74436Y432162D02*
X71755Y433770D01*
X76581Y433770D01*
X76581Y437185D02*
X71755Y437185D01*
X71755Y438526D01*
X71757Y438597D01*
X71763Y438669D01*
X71772Y438739D01*
X71785Y438809D01*
X71802Y438879D01*
X71823Y438947D01*
X71847Y439014D01*
X71875Y439080D01*
X71906Y439144D01*
X71941Y439207D01*
X71979Y439267D01*
X72020Y439326D01*
X72064Y439382D01*
X72111Y439436D01*
X72160Y439487D01*
X72213Y439535D01*
X72268Y439581D01*
X72325Y439623D01*
X72385Y439663D01*
X72446Y439699D01*
X72510Y439732D01*
X72575Y439761D01*
X72641Y439787D01*
X72709Y439810D01*
X72778Y439829D01*
X72848Y439844D01*
X72918Y439855D01*
X72989Y439863D01*
X73060Y439867D01*
X73132Y439867D01*
X73203Y439863D01*
X73274Y439855D01*
X73344Y439844D01*
X73414Y439829D01*
X73483Y439810D01*
X73551Y439787D01*
X73617Y439761D01*
X73682Y439732D01*
X73746Y439699D01*
X73807Y439663D01*
X73867Y439623D01*
X73924Y439581D01*
X73979Y439535D01*
X74032Y439487D01*
X74081Y439436D01*
X74128Y439382D01*
X74172Y439326D01*
X74213Y439267D01*
X74251Y439207D01*
X74286Y439144D01*
X74317Y439080D01*
X74345Y439014D01*
X74369Y438947D01*
X74390Y438879D01*
X74407Y438809D01*
X74420Y438739D01*
X74429Y438669D01*
X74435Y438597D01*
X74437Y438526D01*
X74436Y438526D02*
X74436Y437185D01*
X76581Y442545D02*
X76581Y444690D01*
X76581Y442545D02*
X71755Y442545D01*
X71755Y444690D01*
X73900Y444153D02*
X73900Y442545D01*
X71755Y447344D02*
X76581Y447344D01*
X71755Y447344D02*
X71755Y448684D01*
X71757Y448755D01*
X71763Y448827D01*
X71772Y448897D01*
X71785Y448967D01*
X71802Y449037D01*
X71823Y449105D01*
X71847Y449172D01*
X71875Y449238D01*
X71906Y449302D01*
X71941Y449365D01*
X71979Y449425D01*
X72020Y449484D01*
X72064Y449540D01*
X72111Y449594D01*
X72160Y449645D01*
X72213Y449693D01*
X72268Y449739D01*
X72325Y449781D01*
X72385Y449821D01*
X72446Y449857D01*
X72510Y449890D01*
X72575Y449919D01*
X72641Y449945D01*
X72709Y449968D01*
X72778Y449987D01*
X72848Y450002D01*
X72918Y450013D01*
X72989Y450021D01*
X73060Y450025D01*
X73132Y450025D01*
X73203Y450021D01*
X73274Y450013D01*
X73344Y450002D01*
X73414Y449987D01*
X73483Y449968D01*
X73551Y449945D01*
X73617Y449919D01*
X73682Y449890D01*
X73746Y449857D01*
X73807Y449821D01*
X73867Y449781D01*
X73924Y449739D01*
X73979Y449693D01*
X74032Y449645D01*
X74081Y449594D01*
X74128Y449540D01*
X74172Y449484D01*
X74213Y449425D01*
X74251Y449365D01*
X74286Y449302D01*
X74317Y449238D01*
X74345Y449172D01*
X74369Y449105D01*
X74390Y449037D01*
X74407Y448967D01*
X74420Y448897D01*
X74429Y448827D01*
X74435Y448755D01*
X74437Y448684D01*
X74436Y448684D02*
X74436Y447344D01*
X74436Y448952D02*
X76581Y450025D01*
X76581Y452498D02*
X71755Y454107D01*
X76581Y455716D01*
X75375Y455314D02*
X75375Y452901D01*
X76581Y459228D02*
X71755Y459228D01*
X71755Y460568D02*
X71755Y457887D01*
X71755Y463191D02*
X75240Y463191D01*
X75240Y463190D02*
X75311Y463192D01*
X75383Y463198D01*
X75453Y463207D01*
X75523Y463220D01*
X75593Y463237D01*
X75661Y463258D01*
X75728Y463282D01*
X75794Y463310D01*
X75858Y463341D01*
X75921Y463376D01*
X75981Y463414D01*
X76040Y463455D01*
X76096Y463499D01*
X76150Y463546D01*
X76201Y463595D01*
X76249Y463648D01*
X76295Y463703D01*
X76337Y463760D01*
X76377Y463820D01*
X76413Y463881D01*
X76446Y463945D01*
X76475Y464010D01*
X76501Y464076D01*
X76524Y464144D01*
X76543Y464213D01*
X76558Y464283D01*
X76569Y464353D01*
X76577Y464424D01*
X76581Y464495D01*
X76581Y464567D01*
X76577Y464638D01*
X76569Y464709D01*
X76558Y464779D01*
X76543Y464849D01*
X76524Y464918D01*
X76501Y464986D01*
X76475Y465052D01*
X76446Y465117D01*
X76413Y465181D01*
X76377Y465242D01*
X76337Y465302D01*
X76295Y465359D01*
X76249Y465414D01*
X76201Y465467D01*
X76150Y465516D01*
X76096Y465563D01*
X76040Y465607D01*
X75981Y465648D01*
X75921Y465686D01*
X75858Y465721D01*
X75794Y465752D01*
X75728Y465780D01*
X75661Y465804D01*
X75593Y465825D01*
X75523Y465842D01*
X75453Y465855D01*
X75383Y465864D01*
X75311Y465870D01*
X75240Y465872D01*
X71755Y465872D01*
X71755Y469106D02*
X76581Y469106D01*
X71755Y469106D02*
X71755Y470447D01*
X71757Y470518D01*
X71763Y470590D01*
X71772Y470660D01*
X71785Y470730D01*
X71802Y470800D01*
X71823Y470868D01*
X71847Y470935D01*
X71875Y471001D01*
X71906Y471065D01*
X71941Y471128D01*
X71979Y471188D01*
X72020Y471247D01*
X72064Y471303D01*
X72111Y471357D01*
X72160Y471408D01*
X72213Y471456D01*
X72268Y471502D01*
X72325Y471544D01*
X72385Y471584D01*
X72446Y471620D01*
X72510Y471653D01*
X72575Y471682D01*
X72641Y471708D01*
X72709Y471731D01*
X72778Y471750D01*
X72848Y471765D01*
X72918Y471776D01*
X72989Y471784D01*
X73060Y471788D01*
X73132Y471788D01*
X73203Y471784D01*
X73274Y471776D01*
X73344Y471765D01*
X73414Y471750D01*
X73483Y471731D01*
X73551Y471708D01*
X73617Y471682D01*
X73682Y471653D01*
X73746Y471620D01*
X73807Y471584D01*
X73867Y471544D01*
X73924Y471502D01*
X73979Y471456D01*
X74032Y471408D01*
X74081Y471357D01*
X74128Y471303D01*
X74172Y471247D01*
X74213Y471188D01*
X74251Y471128D01*
X74286Y471065D01*
X74317Y471001D01*
X74345Y470935D01*
X74369Y470868D01*
X74390Y470800D01*
X74407Y470730D01*
X74420Y470660D01*
X74429Y470590D01*
X74435Y470518D01*
X74437Y470447D01*
X74436Y470447D02*
X74436Y469106D01*
X74436Y470715D02*
X76581Y471788D01*
X76581Y474732D02*
X76581Y476876D01*
X76581Y474732D02*
X71755Y474732D01*
X71755Y476876D01*
X73900Y476340D02*
X73900Y474732D01*
X71755Y480758D02*
X71757Y480826D01*
X71763Y480893D01*
X71772Y480960D01*
X71785Y481027D01*
X71802Y481092D01*
X71823Y481157D01*
X71847Y481220D01*
X71875Y481282D01*
X71906Y481342D01*
X71940Y481400D01*
X71978Y481456D01*
X72018Y481511D01*
X72062Y481562D01*
X72109Y481611D01*
X72158Y481658D01*
X72209Y481702D01*
X72264Y481742D01*
X72320Y481780D01*
X72378Y481814D01*
X72438Y481845D01*
X72500Y481873D01*
X72563Y481897D01*
X72628Y481918D01*
X72693Y481935D01*
X72760Y481948D01*
X72827Y481957D01*
X72894Y481963D01*
X72962Y481965D01*
X71755Y480758D02*
X71757Y480680D01*
X71763Y480602D01*
X71773Y480525D01*
X71786Y480448D01*
X71804Y480372D01*
X71825Y480297D01*
X71850Y480223D01*
X71879Y480151D01*
X71911Y480080D01*
X71947Y480011D01*
X71986Y479943D01*
X72029Y479878D01*
X72075Y479815D01*
X72124Y479754D01*
X72176Y479696D01*
X72231Y479641D01*
X72288Y479588D01*
X72348Y479539D01*
X72411Y479492D01*
X72476Y479449D01*
X72542Y479409D01*
X72611Y479372D01*
X72682Y479339D01*
X72754Y479309D01*
X72828Y479283D01*
X73900Y481563D02*
X73851Y481612D01*
X73799Y481659D01*
X73744Y481702D01*
X73687Y481743D01*
X73628Y481781D01*
X73567Y481815D01*
X73504Y481846D01*
X73440Y481874D01*
X73374Y481898D01*
X73308Y481918D01*
X73240Y481935D01*
X73171Y481948D01*
X73102Y481957D01*
X73032Y481963D01*
X72962Y481965D01*
X73900Y481563D02*
X76581Y479284D01*
X76581Y481965D01*
D10*
X403387Y460664D02*
X403456Y460592D01*
X403522Y460518D01*
X403586Y460440D01*
X403646Y460361D01*
X403703Y460279D01*
X403757Y460195D01*
X403807Y460109D01*
X403854Y460021D01*
X403898Y459931D01*
X403938Y459840D01*
X403974Y459747D01*
X404007Y459653D01*
X404036Y459557D01*
X404061Y459461D01*
X404082Y459364D01*
X404100Y459265D01*
X404113Y459167D01*
X404123Y459067D01*
X404129Y458968D01*
X404131Y458868D01*
X404129Y458768D01*
X404123Y458669D01*
X404113Y458569D01*
X404100Y458471D01*
X404082Y458372D01*
X404061Y458275D01*
X404036Y458179D01*
X404007Y458083D01*
X403974Y457989D01*
X403938Y457896D01*
X403898Y457805D01*
X403854Y457715D01*
X403807Y457627D01*
X403757Y457541D01*
X403703Y457457D01*
X403646Y457375D01*
X403586Y457296D01*
X403522Y457218D01*
X403456Y457144D01*
X403387Y457072D01*
X390814Y473237D02*
X390742Y473306D01*
X390668Y473372D01*
X390590Y473436D01*
X390511Y473496D01*
X390429Y473553D01*
X390345Y473607D01*
X390259Y473657D01*
X390171Y473704D01*
X390081Y473748D01*
X389990Y473788D01*
X389897Y473824D01*
X389803Y473857D01*
X389707Y473886D01*
X389611Y473911D01*
X389514Y473932D01*
X389415Y473950D01*
X389317Y473963D01*
X389217Y473973D01*
X389118Y473979D01*
X389018Y473981D01*
X388918Y473979D01*
X388819Y473973D01*
X388719Y473963D01*
X388621Y473950D01*
X388522Y473932D01*
X388425Y473911D01*
X388329Y473886D01*
X388233Y473857D01*
X388139Y473824D01*
X388046Y473788D01*
X387955Y473748D01*
X387865Y473704D01*
X387777Y473657D01*
X387691Y473607D01*
X387607Y473553D01*
X387525Y473496D01*
X387446Y473436D01*
X387368Y473372D01*
X387294Y473306D01*
X387222Y473237D01*
X345913Y431928D02*
X345844Y431856D01*
X345778Y431782D01*
X345714Y431704D01*
X345654Y431625D01*
X345597Y431543D01*
X345543Y431459D01*
X345493Y431373D01*
X345446Y431285D01*
X345402Y431195D01*
X345362Y431104D01*
X345326Y431011D01*
X345293Y430917D01*
X345264Y430821D01*
X345239Y430725D01*
X345218Y430628D01*
X345200Y430529D01*
X345187Y430431D01*
X345177Y430331D01*
X345171Y430232D01*
X345169Y430132D01*
X345171Y430032D01*
X345177Y429933D01*
X345187Y429833D01*
X345200Y429735D01*
X345218Y429636D01*
X345239Y429539D01*
X345264Y429443D01*
X345293Y429347D01*
X345326Y429253D01*
X345362Y429160D01*
X345402Y429069D01*
X345446Y428979D01*
X345493Y428891D01*
X345543Y428805D01*
X345597Y428721D01*
X345654Y428639D01*
X345714Y428560D01*
X345778Y428482D01*
X345844Y428408D01*
X345913Y428336D01*
X358486Y415763D02*
X358558Y415694D01*
X358632Y415628D01*
X358710Y415564D01*
X358789Y415504D01*
X358871Y415447D01*
X358955Y415393D01*
X359041Y415343D01*
X359129Y415296D01*
X359219Y415252D01*
X359310Y415212D01*
X359403Y415176D01*
X359497Y415143D01*
X359593Y415114D01*
X359689Y415089D01*
X359786Y415068D01*
X359885Y415050D01*
X359983Y415037D01*
X360083Y415027D01*
X360182Y415021D01*
X360282Y415019D01*
X360382Y415021D01*
X360481Y415027D01*
X360581Y415037D01*
X360679Y415050D01*
X360778Y415068D01*
X360875Y415089D01*
X360971Y415114D01*
X361067Y415143D01*
X361161Y415176D01*
X361254Y415212D01*
X361345Y415252D01*
X361435Y415296D01*
X361523Y415343D01*
X361609Y415393D01*
X361693Y415447D01*
X361775Y415504D01*
X361854Y415564D01*
X361932Y415628D01*
X362006Y415694D01*
X362078Y415763D01*
X403387Y460664D02*
X390814Y473237D01*
X403387Y457072D02*
X400693Y454378D01*
X398897Y454378D01*
X384528Y470543D02*
X387222Y473237D01*
X384528Y470543D02*
X384528Y468747D01*
X364772Y420253D02*
X364772Y418457D01*
X364772Y420253D02*
X398897Y454378D01*
X350403Y434622D02*
X348607Y434622D01*
X350403Y434622D02*
X384528Y468747D01*
X364772Y418457D02*
X362078Y415763D01*
X345913Y431928D02*
X348607Y434622D01*
X345913Y428336D02*
X358486Y415763D01*
D14*
X345913Y415763D02*
X343219Y413069D01*
X403387Y473237D02*
X406081Y475931D01*
D15*
G36*
X343938Y418098D02*
X350044Y424204D01*
X354354Y419894D01*
X348248Y413788D01*
X343938Y418098D01*
G37*
G36*
X394946Y469106D02*
X401052Y475212D01*
X405362Y470902D01*
X399256Y464796D01*
X394946Y469106D01*
G37*
G36*
X334958Y409118D02*
X341064Y415224D01*
X345374Y410914D01*
X339268Y404808D01*
X334958Y409118D01*
G37*
G36*
X403926Y478086D02*
X410032Y484192D01*
X414342Y479882D01*
X408236Y473776D01*
X403926Y478086D01*
G37*
D16*
X394465Y443661D02*
X402547Y435578D01*
X394465Y443661D02*
X396710Y445906D01*
X396791Y445984D01*
X396874Y446059D01*
X396960Y446131D01*
X397048Y446200D01*
X397139Y446265D01*
X397232Y446328D01*
X397327Y446387D01*
X397424Y446443D01*
X397524Y446495D01*
X397624Y446544D01*
X397727Y446589D01*
X397831Y446630D01*
X397937Y446668D01*
X398043Y446702D01*
X398151Y446733D01*
X398260Y446759D01*
X398370Y446782D01*
X398480Y446800D01*
X398592Y446815D01*
X398703Y446826D01*
X398815Y446833D01*
X398927Y446836D01*
X399039Y446835D01*
X399151Y446830D01*
X399263Y446821D01*
X399374Y446808D01*
X399485Y446791D01*
X399595Y446771D01*
X399704Y446746D01*
X399813Y446718D01*
X399920Y446686D01*
X400026Y446650D01*
X400131Y446610D01*
X400234Y446567D01*
X400336Y446520D01*
X400436Y446469D01*
X400534Y446415D01*
X400631Y446358D01*
X400725Y446297D01*
X400817Y446233D01*
X400906Y446166D01*
X400993Y446095D01*
X401078Y446022D01*
X401160Y445945D01*
X401239Y445866D01*
X401316Y445784D01*
X401389Y445699D01*
X401460Y445612D01*
X401527Y445523D01*
X401591Y445431D01*
X401652Y445337D01*
X401709Y445240D01*
X401763Y445142D01*
X401814Y445042D01*
X401861Y444940D01*
X401904Y444837D01*
X401944Y444732D01*
X401980Y444626D01*
X402012Y444519D01*
X402040Y444410D01*
X402065Y444301D01*
X402085Y444191D01*
X402102Y444080D01*
X402115Y443969D01*
X402124Y443857D01*
X402129Y443745D01*
X402130Y443633D01*
X402127Y443521D01*
X402120Y443409D01*
X402109Y443298D01*
X402094Y443186D01*
X402076Y443076D01*
X402053Y442966D01*
X402027Y442857D01*
X401996Y442749D01*
X401962Y442643D01*
X401924Y442537D01*
X401883Y442433D01*
X401838Y442330D01*
X401789Y442230D01*
X401737Y442130D01*
X401681Y442033D01*
X401622Y441938D01*
X401559Y441845D01*
X401494Y441754D01*
X401425Y441666D01*
X401353Y441580D01*
X401278Y441497D01*
X401200Y441416D01*
X401200Y441415D02*
X398955Y439170D01*
X401649Y441864D02*
X407037Y440068D01*
X406081Y448092D02*
X408775Y450786D01*
X408847Y450855D01*
X408921Y450921D01*
X408999Y450985D01*
X409078Y451045D01*
X409160Y451102D01*
X409244Y451156D01*
X409330Y451206D01*
X409418Y451253D01*
X409508Y451297D01*
X409599Y451337D01*
X409692Y451373D01*
X409786Y451406D01*
X409882Y451435D01*
X409978Y451460D01*
X410075Y451481D01*
X410174Y451499D01*
X410272Y451512D01*
X410372Y451522D01*
X410471Y451528D01*
X410571Y451530D01*
X410671Y451528D01*
X410770Y451522D01*
X410870Y451512D01*
X410968Y451499D01*
X411067Y451481D01*
X411164Y451460D01*
X411260Y451435D01*
X411356Y451406D01*
X411450Y451373D01*
X411543Y451337D01*
X411634Y451297D01*
X411724Y451253D01*
X411812Y451206D01*
X411898Y451156D01*
X411982Y451102D01*
X412064Y451045D01*
X412143Y450985D01*
X412221Y450921D01*
X412295Y450855D01*
X412367Y450786D01*
X412816Y450337D01*
X412893Y450257D01*
X412967Y450175D01*
X413038Y450090D01*
X413107Y450003D01*
X413172Y449913D01*
X413234Y449821D01*
X413292Y449727D01*
X413348Y449631D01*
X413400Y449533D01*
X413448Y449434D01*
X413494Y449333D01*
X413535Y449230D01*
X413573Y449126D01*
X413607Y449020D01*
X413638Y448914D01*
X413665Y448806D01*
X413688Y448698D01*
X413707Y448589D01*
X413722Y448479D01*
X413734Y448369D01*
X413742Y448258D01*
X413746Y448147D01*
X413746Y448037D01*
X413742Y447926D01*
X413734Y447815D01*
X413722Y447705D01*
X413707Y447595D01*
X413688Y447486D01*
X413665Y447378D01*
X413638Y447270D01*
X413607Y447164D01*
X413573Y447058D01*
X413535Y446954D01*
X413494Y446851D01*
X413449Y446750D01*
X413400Y446651D01*
X413348Y446553D01*
X413293Y446457D01*
X413234Y446363D01*
X413172Y446271D01*
X413107Y446181D01*
X413038Y446094D01*
X412967Y446009D01*
X412893Y445927D01*
X412816Y445847D01*
X412736Y445770D01*
X412654Y445696D01*
X412569Y445625D01*
X412482Y445556D01*
X412392Y445491D01*
X412300Y445429D01*
X412206Y445370D01*
X412110Y445315D01*
X412012Y445263D01*
X411913Y445214D01*
X411812Y445169D01*
X411709Y445128D01*
X411605Y445090D01*
X411499Y445056D01*
X411393Y445025D01*
X411285Y444998D01*
X411177Y444975D01*
X411068Y444956D01*
X410958Y444941D01*
X410848Y444929D01*
X410737Y444921D01*
X410626Y444917D01*
X410516Y444917D01*
X410405Y444921D01*
X410294Y444929D01*
X410184Y444941D01*
X410074Y444956D01*
X409965Y444975D01*
X409857Y444998D01*
X409749Y445025D01*
X409643Y445056D01*
X409537Y445090D01*
X409433Y445128D01*
X409330Y445169D01*
X409229Y445215D01*
X409129Y445263D01*
X409032Y445315D01*
X408936Y445371D01*
X408842Y445429D01*
X408750Y445491D01*
X408660Y445556D01*
X408573Y445625D01*
X408488Y445696D01*
X408406Y445770D01*
X408326Y445847D01*
X406081Y448092D01*
X405983Y448192D01*
X405888Y448295D01*
X405797Y448401D01*
X405708Y448509D01*
X405622Y448619D01*
X405539Y448732D01*
X405459Y448847D01*
X405382Y448964D01*
X405309Y449084D01*
X405239Y449205D01*
X405172Y449328D01*
X405109Y449453D01*
X405049Y449579D01*
X404993Y449708D01*
X404941Y449837D01*
X404891Y449968D01*
X404846Y450101D01*
X404804Y450234D01*
X404766Y450369D01*
X404732Y450505D01*
X404701Y450642D01*
X404674Y450779D01*
X404651Y450917D01*
X404632Y451056D01*
X404617Y451195D01*
X404605Y451334D01*
X404597Y451474D01*
X404593Y451614D01*
X404593Y451754D01*
X404597Y451894D01*
X404605Y452034D01*
X404617Y452173D01*
X404632Y452312D01*
X404651Y452451D01*
X404674Y452589D01*
X404701Y452726D01*
X404732Y452863D01*
X404766Y452999D01*
X404804Y453134D01*
X404846Y453267D01*
X404891Y453400D01*
X404941Y453531D01*
X404993Y453660D01*
X405049Y453789D01*
X405109Y453915D01*
X405172Y454040D01*
X405239Y454163D01*
X405309Y454284D01*
X405382Y454404D01*
X405459Y454521D01*
X405539Y454636D01*
X405622Y454749D01*
X405708Y454859D01*
X405797Y454967D01*
X405888Y455073D01*
X405983Y455176D01*
X406081Y455276D01*
D10*
X352263Y472786D02*
X352194Y472858D01*
X352128Y472932D01*
X352064Y473010D01*
X352004Y473089D01*
X351947Y473171D01*
X351893Y473255D01*
X351843Y473341D01*
X351796Y473429D01*
X351752Y473519D01*
X351712Y473610D01*
X351676Y473703D01*
X351643Y473797D01*
X351614Y473893D01*
X351589Y473989D01*
X351568Y474086D01*
X351550Y474185D01*
X351537Y474283D01*
X351527Y474383D01*
X351521Y474482D01*
X351519Y474582D01*
X351521Y474682D01*
X351527Y474781D01*
X351537Y474881D01*
X351550Y474979D01*
X351568Y475078D01*
X351589Y475175D01*
X351614Y475271D01*
X351643Y475367D01*
X351676Y475461D01*
X351712Y475554D01*
X351752Y475645D01*
X351796Y475735D01*
X351843Y475823D01*
X351893Y475909D01*
X351947Y475993D01*
X352004Y476075D01*
X352064Y476154D01*
X352128Y476232D01*
X352194Y476306D01*
X352263Y476378D01*
X364836Y460213D02*
X364908Y460144D01*
X364982Y460078D01*
X365060Y460014D01*
X365139Y459954D01*
X365221Y459897D01*
X365305Y459843D01*
X365391Y459793D01*
X365479Y459746D01*
X365569Y459702D01*
X365660Y459662D01*
X365753Y459626D01*
X365847Y459593D01*
X365943Y459564D01*
X366039Y459539D01*
X366136Y459518D01*
X366235Y459500D01*
X366333Y459487D01*
X366433Y459477D01*
X366532Y459471D01*
X366632Y459469D01*
X366732Y459471D01*
X366831Y459477D01*
X366931Y459487D01*
X367029Y459500D01*
X367128Y459518D01*
X367225Y459539D01*
X367321Y459564D01*
X367417Y459593D01*
X367511Y459626D01*
X367604Y459662D01*
X367695Y459702D01*
X367785Y459746D01*
X367873Y459793D01*
X367959Y459843D01*
X368043Y459897D01*
X368125Y459954D01*
X368204Y460014D01*
X368282Y460078D01*
X368356Y460144D01*
X368428Y460213D01*
X409737Y501522D02*
X409806Y501594D01*
X409872Y501668D01*
X409936Y501746D01*
X409996Y501825D01*
X410053Y501907D01*
X410107Y501991D01*
X410157Y502077D01*
X410204Y502165D01*
X410248Y502255D01*
X410288Y502346D01*
X410324Y502439D01*
X410357Y502533D01*
X410386Y502629D01*
X410411Y502725D01*
X410432Y502822D01*
X410450Y502921D01*
X410463Y503019D01*
X410473Y503119D01*
X410479Y503218D01*
X410481Y503318D01*
X410479Y503418D01*
X410473Y503517D01*
X410463Y503617D01*
X410450Y503715D01*
X410432Y503814D01*
X410411Y503911D01*
X410386Y504007D01*
X410357Y504103D01*
X410324Y504197D01*
X410288Y504290D01*
X410248Y504381D01*
X410204Y504471D01*
X410157Y504559D01*
X410107Y504645D01*
X410053Y504729D01*
X409996Y504811D01*
X409936Y504890D01*
X409872Y504968D01*
X409806Y505042D01*
X409737Y505114D01*
X397164Y517687D02*
X397092Y517756D01*
X397018Y517822D01*
X396940Y517886D01*
X396861Y517946D01*
X396779Y518003D01*
X396695Y518057D01*
X396609Y518107D01*
X396521Y518154D01*
X396431Y518198D01*
X396340Y518238D01*
X396247Y518274D01*
X396153Y518307D01*
X396057Y518336D01*
X395961Y518361D01*
X395864Y518382D01*
X395765Y518400D01*
X395667Y518413D01*
X395567Y518423D01*
X395468Y518429D01*
X395368Y518431D01*
X395268Y518429D01*
X395169Y518423D01*
X395069Y518413D01*
X394971Y518400D01*
X394872Y518382D01*
X394775Y518361D01*
X394679Y518336D01*
X394583Y518307D01*
X394489Y518274D01*
X394396Y518238D01*
X394305Y518198D01*
X394215Y518154D01*
X394127Y518107D01*
X394041Y518057D01*
X393957Y518003D01*
X393875Y517946D01*
X393796Y517886D01*
X393718Y517822D01*
X393644Y517756D01*
X393572Y517687D01*
X352263Y472786D02*
X364836Y460213D01*
X352263Y476378D02*
X354957Y479072D01*
X356753Y479072D01*
X371122Y462907D02*
X368428Y460213D01*
X371122Y462907D02*
X371122Y464703D01*
X390878Y513197D02*
X390878Y514993D01*
X390878Y513197D02*
X356753Y479072D01*
X405247Y498828D02*
X407043Y498828D01*
X405247Y498828D02*
X371122Y464703D01*
X390878Y514993D02*
X393572Y517687D01*
X409737Y501522D02*
X407043Y498828D01*
X409737Y505114D02*
X397164Y517687D01*
D14*
X409737Y517687D02*
X412431Y520381D01*
X352263Y460213D02*
X349569Y457519D01*
D15*
G36*
X411712Y515352D02*
X405606Y509246D01*
X401296Y513556D01*
X407402Y519662D01*
X411712Y515352D01*
G37*
G36*
X360704Y464344D02*
X354598Y458238D01*
X350288Y462548D01*
X356394Y468654D01*
X360704Y464344D01*
G37*
G36*
X420692Y524332D02*
X414586Y518226D01*
X410276Y522536D01*
X416382Y528642D01*
X420692Y524332D01*
G37*
G36*
X351724Y455364D02*
X345618Y449258D01*
X341308Y453568D01*
X347414Y459674D01*
X351724Y455364D01*
G37*
D16*
X348671Y477276D02*
X340589Y485358D01*
X342834Y487603D01*
X342915Y487681D01*
X342998Y487756D01*
X343084Y487828D01*
X343172Y487897D01*
X343263Y487962D01*
X343356Y488025D01*
X343451Y488084D01*
X343548Y488140D01*
X343648Y488192D01*
X343748Y488241D01*
X343851Y488286D01*
X343955Y488327D01*
X344061Y488365D01*
X344167Y488399D01*
X344275Y488430D01*
X344384Y488456D01*
X344494Y488479D01*
X344604Y488497D01*
X344716Y488512D01*
X344827Y488523D01*
X344939Y488530D01*
X345051Y488533D01*
X345163Y488532D01*
X345275Y488527D01*
X345387Y488518D01*
X345498Y488505D01*
X345609Y488488D01*
X345719Y488468D01*
X345828Y488443D01*
X345937Y488415D01*
X346044Y488383D01*
X346150Y488347D01*
X346255Y488307D01*
X346358Y488264D01*
X346460Y488217D01*
X346560Y488166D01*
X346658Y488112D01*
X346755Y488055D01*
X346849Y487994D01*
X346941Y487930D01*
X347030Y487863D01*
X347117Y487792D01*
X347202Y487719D01*
X347284Y487642D01*
X347363Y487563D01*
X347440Y487481D01*
X347513Y487396D01*
X347584Y487309D01*
X347651Y487220D01*
X347715Y487128D01*
X347776Y487034D01*
X347833Y486937D01*
X347887Y486839D01*
X347938Y486739D01*
X347985Y486637D01*
X348028Y486534D01*
X348068Y486429D01*
X348104Y486323D01*
X348136Y486216D01*
X348164Y486107D01*
X348189Y485998D01*
X348209Y485888D01*
X348226Y485777D01*
X348239Y485666D01*
X348248Y485554D01*
X348253Y485442D01*
X348254Y485330D01*
X348251Y485218D01*
X348244Y485106D01*
X348233Y484995D01*
X348218Y484883D01*
X348200Y484773D01*
X348177Y484663D01*
X348151Y484554D01*
X348120Y484446D01*
X348086Y484340D01*
X348048Y484234D01*
X348007Y484130D01*
X347962Y484027D01*
X347913Y483927D01*
X347861Y483827D01*
X347805Y483730D01*
X347746Y483635D01*
X347683Y483542D01*
X347618Y483451D01*
X347549Y483363D01*
X347477Y483277D01*
X347402Y483194D01*
X347324Y483113D01*
X345079Y480868D01*
X347773Y483562D02*
X353161Y481766D01*
X350408Y491585D02*
X350857Y495627D01*
X358940Y487544D01*
X356695Y485299D02*
X361185Y489789D01*
X358491Y499668D02*
X358940Y503709D01*
X367022Y495627D01*
X369267Y497872D02*
X364777Y493381D01*
D10*
X580350Y710890D02*
X676950Y710890D01*
X580350Y710890D02*
X580350Y648010D01*
X676950Y648010D01*
X676950Y710890D01*
D19*
X667050Y697450D03*
D10*
X691276Y691590D02*
X703722Y691590D01*
X698882Y691590D02*
X691276Y698504D01*
X696116Y694356D02*
X703722Y698504D01*
X694042Y703524D02*
X691276Y706981D01*
X703722Y706981D01*
X703722Y703524D02*
X703722Y710438D01*
D11*
X666750Y95250D02*
X673100Y88900D01*
X666750Y95250D02*
X654050Y95250D01*
X647700Y88900D01*
X647700Y76200D01*
X654050Y69850D01*
X666750Y69850D01*
X673100Y76200D01*
X673100Y88900D01*
D16*
X651016Y99836D02*
X650212Y99836D01*
X651016Y99836D02*
X651016Y97155D01*
X649407Y97155D01*
X649342Y97157D01*
X649278Y97163D01*
X649214Y97173D01*
X649150Y97186D01*
X649088Y97204D01*
X649027Y97225D01*
X648967Y97249D01*
X648909Y97278D01*
X648852Y97310D01*
X648798Y97345D01*
X648746Y97383D01*
X648696Y97425D01*
X648649Y97469D01*
X648605Y97516D01*
X648563Y97566D01*
X648525Y97618D01*
X648490Y97672D01*
X648458Y97729D01*
X648429Y97787D01*
X648405Y97847D01*
X648384Y97908D01*
X648366Y97970D01*
X648353Y98034D01*
X648343Y98098D01*
X648337Y98162D01*
X648335Y98227D01*
X648335Y100909D01*
X648337Y100974D01*
X648343Y101038D01*
X648353Y101102D01*
X648366Y101166D01*
X648384Y101228D01*
X648405Y101289D01*
X648429Y101349D01*
X648458Y101407D01*
X648490Y101464D01*
X648525Y101518D01*
X648563Y101570D01*
X648605Y101620D01*
X648649Y101667D01*
X648696Y101711D01*
X648746Y101753D01*
X648798Y101791D01*
X648852Y101826D01*
X648909Y101858D01*
X648967Y101887D01*
X649027Y101911D01*
X649088Y101932D01*
X649150Y101950D01*
X649214Y101963D01*
X649278Y101973D01*
X649342Y101979D01*
X649407Y101981D01*
X651016Y101981D01*
X654187Y101981D02*
X654187Y97155D01*
X656868Y97155D02*
X654187Y101981D01*
X656868Y101981D02*
X656868Y97155D01*
X660039Y97155D02*
X660039Y101981D01*
X661380Y101981D01*
X661450Y101979D01*
X661520Y101974D01*
X661590Y101964D01*
X661659Y101952D01*
X661727Y101935D01*
X661794Y101915D01*
X661861Y101892D01*
X661925Y101865D01*
X661989Y101835D01*
X662051Y101801D01*
X662110Y101765D01*
X662168Y101725D01*
X662224Y101682D01*
X662277Y101637D01*
X662328Y101588D01*
X662377Y101537D01*
X662422Y101484D01*
X662465Y101428D01*
X662505Y101370D01*
X662541Y101311D01*
X662575Y101249D01*
X662605Y101185D01*
X662632Y101121D01*
X662655Y101054D01*
X662675Y100987D01*
X662692Y100919D01*
X662704Y100850D01*
X662714Y100780D01*
X662719Y100710D01*
X662721Y100640D01*
X662720Y100640D02*
X662720Y98496D01*
X662721Y98496D02*
X662719Y98426D01*
X662714Y98356D01*
X662704Y98286D01*
X662692Y98217D01*
X662675Y98149D01*
X662655Y98082D01*
X662632Y98015D01*
X662605Y97951D01*
X662575Y97887D01*
X662541Y97825D01*
X662505Y97766D01*
X662465Y97708D01*
X662422Y97652D01*
X662377Y97599D01*
X662328Y97548D01*
X662277Y97499D01*
X662224Y97454D01*
X662168Y97411D01*
X662110Y97371D01*
X662050Y97335D01*
X661989Y97301D01*
X661925Y97271D01*
X661861Y97244D01*
X661794Y97221D01*
X661727Y97201D01*
X661659Y97184D01*
X661590Y97172D01*
X661520Y97162D01*
X661450Y97157D01*
X661380Y97155D01*
X660039Y97155D01*
M02*
