G04 EAGLE Gerber RS-274X export*
G75*
%MOMM*%
%FSLAX34Y34*%
%LPD*%
%INSoldermask Top*%
%IPPOS*%
%AMOC8*
5,1,8,0,0,1.08239X$1,22.5*%
G01*
%ADD10C,4.203200*%
%ADD11C,0.998219*%
%ADD12C,1.511200*%
%ADD13P,1.649562X8X22.500000*%
%ADD14C,2.603200*%
%ADD15C,1.851700*%
%ADD16C,1.611200*%
%ADD17C,1.403200*%
%ADD18P,1.649562X8X202.500000*%
%ADD19C,2.082800*%
%ADD20P,1.649562X8X247.500000*%
%ADD21P,1.649562X8X67.500000*%
%ADD22C,2.082800*%
%ADD23P,1.038661X8X22.500000*%
%ADD24C,0.959600*%


D10*
X63500Y762000D03*
X889000Y762000D03*
X889000Y63500D03*
X63500Y63500D03*
D11*
X641350Y641350D03*
D12*
X678710Y457200D02*
X691790Y457200D01*
X717710Y469900D02*
X730790Y469900D01*
X691790Y482600D02*
X678710Y482600D01*
X717710Y495300D02*
X730790Y495300D01*
X691790Y508000D02*
X678710Y508000D01*
X717710Y520700D02*
X730790Y520700D01*
X691790Y533400D02*
X678710Y533400D01*
D13*
X450850Y469900D03*
X577850Y469900D03*
X450850Y520700D03*
X577850Y520700D03*
D14*
X864300Y444900D02*
X888300Y444900D01*
X888300Y494900D02*
X864300Y494900D01*
X864300Y343300D02*
X888300Y343300D01*
X888300Y393300D02*
X864300Y393300D01*
D15*
X408293Y393700D02*
X391808Y393700D01*
X391808Y368300D02*
X408293Y368300D01*
X408293Y342900D02*
X391808Y342900D01*
X391808Y317500D02*
X408293Y317500D01*
X408293Y292100D02*
X391808Y292100D01*
X391808Y266700D02*
X408293Y266700D01*
X408293Y241300D02*
X391808Y241300D01*
X391808Y215900D02*
X408293Y215900D01*
X408293Y190500D02*
X391808Y190500D01*
X391808Y165100D02*
X408293Y165100D01*
X722008Y215900D02*
X738493Y215900D01*
X738493Y241300D02*
X722008Y241300D01*
X722008Y266700D02*
X738493Y266700D01*
X738493Y292100D02*
X722008Y292100D01*
X722008Y317500D02*
X738493Y317500D01*
X738493Y342900D02*
X722008Y342900D01*
X722008Y368300D02*
X738493Y368300D01*
X738493Y393700D02*
X722008Y393700D01*
D16*
X266700Y647700D03*
X266700Y622300D03*
X266700Y596900D03*
X266700Y571500D03*
X266700Y546100D03*
X266700Y520700D03*
X266700Y495300D03*
X266700Y469900D03*
X266700Y444500D03*
X266700Y419100D03*
X266700Y393700D03*
X266700Y368300D03*
X266700Y342900D03*
X266700Y317500D03*
X266700Y292100D03*
X266700Y266700D03*
X266700Y241300D03*
X114300Y647700D03*
X114300Y622300D03*
X114300Y596900D03*
X114300Y571500D03*
X114300Y546100D03*
X114300Y520700D03*
X114300Y495300D03*
X114300Y469900D03*
X114300Y444500D03*
X114300Y419100D03*
X114300Y393700D03*
X114300Y368300D03*
X114300Y342900D03*
X114300Y317500D03*
X114300Y292100D03*
X114300Y266700D03*
X114300Y241300D03*
D17*
X266700Y673100D03*
X114300Y673100D03*
X266700Y215900D03*
X114300Y215900D03*
D13*
X450850Y431800D03*
X577850Y431800D03*
D18*
X577850Y558800D03*
X450850Y558800D03*
D14*
X864300Y241700D02*
X888300Y241700D01*
X888300Y291700D02*
X864300Y291700D01*
X864300Y140100D02*
X888300Y140100D01*
X888300Y190100D02*
X864300Y190100D01*
D13*
X514350Y749300D03*
X641350Y749300D03*
D18*
X177800Y146050D03*
X50800Y146050D03*
D19*
X41402Y571500D02*
X60198Y571500D01*
X60198Y546100D02*
X41402Y546100D01*
X41402Y520700D02*
X60198Y520700D01*
X177800Y85598D02*
X177800Y66802D01*
X152400Y66802D02*
X152400Y85598D01*
X311150Y79248D02*
X311150Y60452D01*
X336550Y60452D02*
X336550Y79248D01*
X393700Y79248D02*
X393700Y60452D01*
X419100Y60452D02*
X419100Y79248D01*
X60198Y469900D02*
X41402Y469900D01*
X41402Y444500D02*
X60198Y444500D01*
X60198Y419100D02*
X41402Y419100D01*
D20*
X419551Y489401D03*
X329749Y399599D03*
D21*
X336099Y444049D03*
X425901Y533851D03*
D12*
X666750Y711010D02*
X666750Y724090D01*
X641350Y724090D02*
X641350Y711010D01*
X615950Y711010D02*
X615950Y724090D01*
X590550Y724090D02*
X590550Y711010D01*
X590550Y647890D02*
X590550Y634810D01*
X615950Y634810D02*
X615950Y647890D01*
X666750Y647890D02*
X666750Y634810D01*
D22*
X660400Y82550D03*
D23*
X654050Y457200D03*
X88900Y527050D03*
D24*
X450850Y355600D03*
X654050Y533400D03*
X342900Y184150D03*
X342900Y203200D03*
X342900Y222250D03*
X342900Y260350D03*
X342900Y279400D03*
X342900Y298450D03*
X342900Y336550D03*
X342900Y355600D03*
X330200Y381000D03*
X311150Y400050D03*
X292100Y419100D03*
X234950Y387350D03*
X228600Y457200D03*
X95250Y419100D03*
X88900Y565150D03*
X50800Y590550D03*
X50800Y495300D03*
X95250Y317500D03*
X133350Y317500D03*
X266700Y171450D03*
X266700Y107950D03*
X266700Y76200D03*
X387350Y107950D03*
X406400Y107950D03*
X425450Y107950D03*
X450850Y76200D03*
X698500Y266700D03*
X698500Y292100D03*
X762000Y266700D03*
X762000Y292100D03*
X342900Y241300D03*
X374650Y165100D03*
X425450Y165100D03*
X425450Y215900D03*
X374650Y215900D03*
X787400Y419100D03*
X806450Y419100D03*
X787400Y368300D03*
X806450Y368300D03*
X787400Y304800D03*
X806450Y304800D03*
X787400Y273050D03*
X806450Y273050D03*
X787400Y209550D03*
X806450Y209550D03*
X806450Y469900D03*
X787400Y469900D03*
X787400Y165100D03*
X806450Y165100D03*
X171450Y266700D03*
X787400Y114300D03*
X806450Y114300D03*
X171450Y317500D03*
X304800Y298450D03*
X304800Y342900D03*
X247650Y374650D03*
X247650Y330200D03*
X222250Y330200D03*
X209550Y330200D03*
X304800Y171450D03*
X304800Y107950D03*
X603250Y495300D03*
X660400Y495300D03*
X749300Y508000D03*
X749300Y482600D03*
X844550Y565150D03*
X882650Y533400D03*
X495300Y749300D03*
X628650Y679450D03*
X50800Y165100D03*
X342900Y165100D03*
X234950Y330200D03*
X63500Y520700D03*
M02*
