G04 EAGLE Gerber RS-274X export*
G75*
%MOMM*%
%FSLAX34Y34*%
%LPD*%
%INSoldermask Top*%
%IPNEG*%
%AMOC8*
5,1,8,0,0,1.08239X$1,22.5*%
G01*
%ADD10C,4.203200*%
%ADD11C,0.998219*%
%ADD12C,1.511200*%
%ADD13P,1.649562X8X22.500000*%
%ADD14C,2.603200*%
%ADD15C,1.851700*%
%ADD16C,1.611200*%
%ADD17C,1.403200*%
%ADD18P,2.034460X8X202.500000*%
%ADD19C,2.082800*%
%ADD20P,1.649562X8X247.500000*%
%ADD21P,1.649562X8X67.500000*%
%ADD22C,2.082800*%
%ADD23C,2.603200*%
%ADD24C,1.511200*%
%ADD25P,2.034460X8X22.500000*%
%ADD26C,1.625600*%
%ADD27P,1.038661X8X22.500000*%
%ADD28C,0.959600*%


D10*
X63500Y762000D03*
X889000Y762000D03*
X889000Y63500D03*
X63500Y63500D03*
D11*
X654050Y654050D03*
D12*
X678710Y457200D02*
X691790Y457200D01*
X717710Y469900D02*
X730790Y469900D01*
X691790Y482600D02*
X678710Y482600D01*
X717710Y495300D02*
X730790Y495300D01*
X691790Y508000D02*
X678710Y508000D01*
X717710Y520700D02*
X730790Y520700D01*
X691790Y533400D02*
X678710Y533400D01*
D13*
X463550Y514350D03*
X590550Y514350D03*
X463550Y552450D03*
X590550Y552450D03*
D14*
X864300Y444900D02*
X888300Y444900D01*
X888300Y494900D02*
X864300Y494900D01*
X864300Y343300D02*
X888300Y343300D01*
X888300Y393300D02*
X864300Y393300D01*
D15*
X433693Y393700D02*
X417208Y393700D01*
X417208Y368300D02*
X433693Y368300D01*
X433693Y342900D02*
X417208Y342900D01*
X417208Y317500D02*
X433693Y317500D01*
X433693Y292100D02*
X417208Y292100D01*
X417208Y266700D02*
X433693Y266700D01*
X433693Y241300D02*
X417208Y241300D01*
X417208Y215900D02*
X433693Y215900D01*
X433693Y190500D02*
X417208Y190500D01*
X417208Y165100D02*
X433693Y165100D01*
X747408Y215900D02*
X763893Y215900D01*
X763893Y241300D02*
X747408Y241300D01*
X747408Y266700D02*
X763893Y266700D01*
X763893Y292100D02*
X747408Y292100D01*
X747408Y317500D02*
X763893Y317500D01*
X763893Y342900D02*
X747408Y342900D01*
X747408Y368300D02*
X763893Y368300D01*
X763893Y393700D02*
X747408Y393700D01*
D16*
X266700Y647700D03*
X266700Y622300D03*
X266700Y596900D03*
X266700Y571500D03*
X266700Y546100D03*
X266700Y520700D03*
X266700Y495300D03*
X266700Y469900D03*
X266700Y444500D03*
X266700Y419100D03*
X266700Y393700D03*
X266700Y368300D03*
X266700Y342900D03*
X266700Y317500D03*
X266700Y292100D03*
X266700Y266700D03*
X266700Y241300D03*
X114300Y647700D03*
X114300Y622300D03*
X114300Y596900D03*
X114300Y571500D03*
X114300Y546100D03*
X114300Y520700D03*
X114300Y495300D03*
X114300Y469900D03*
X114300Y444500D03*
X114300Y419100D03*
X114300Y393700D03*
X114300Y368300D03*
X114300Y342900D03*
X114300Y317500D03*
X114300Y292100D03*
X114300Y266700D03*
X114300Y241300D03*
D17*
X266700Y673100D03*
X114300Y673100D03*
X266700Y215900D03*
X114300Y215900D03*
D13*
X463550Y476250D03*
X590550Y476250D03*
X463550Y590550D03*
X590550Y590550D03*
D14*
X864300Y241700D02*
X888300Y241700D01*
X888300Y291700D02*
X864300Y291700D01*
X864300Y140100D02*
X888300Y140100D01*
X888300Y190100D02*
X864300Y190100D01*
D18*
X177800Y146050D03*
X76200Y146050D03*
D19*
X41148Y571500D02*
X22352Y571500D01*
X22352Y546100D02*
X41148Y546100D01*
X41148Y520700D02*
X22352Y520700D01*
X177800Y85598D02*
X177800Y66802D01*
X152400Y66802D02*
X152400Y85598D01*
X330200Y79248D02*
X330200Y60452D01*
X355600Y60452D02*
X355600Y79248D01*
X419100Y79248D02*
X419100Y60452D01*
X444500Y60452D02*
X444500Y79248D01*
X41148Y469900D02*
X22352Y469900D01*
X22352Y444500D02*
X41148Y444500D01*
X41148Y419100D02*
X22352Y419100D01*
D20*
X444951Y476701D03*
X355149Y386899D03*
D21*
X348799Y456749D03*
X438601Y546551D03*
D22*
X800100Y82550D03*
D23*
X730250Y679450D03*
X692150Y679450D03*
X615950Y679450D03*
X577850Y679450D03*
D22*
X297180Y241300D03*
X299720Y266700D03*
X297180Y292100D03*
X299720Y317500D03*
X297180Y342900D03*
X299720Y368300D03*
X297180Y393700D03*
X299720Y419100D03*
X297180Y444500D03*
X299720Y469900D03*
X297180Y495300D03*
X299720Y520700D03*
X297180Y546100D03*
X299720Y571500D03*
X297180Y596900D03*
X299720Y622300D03*
X297180Y647700D03*
X81280Y495300D03*
X83820Y520700D03*
X81280Y546100D03*
X83820Y571500D03*
X81280Y596900D03*
X83820Y622300D03*
X81280Y647700D03*
X81280Y241300D03*
X83820Y266700D03*
X81280Y292100D03*
X83820Y317500D03*
X81280Y342900D03*
X83820Y368300D03*
X81280Y393700D03*
X83820Y419100D03*
X81280Y444500D03*
X83820Y469900D03*
D24*
X474071Y726079D03*
X460601Y748530D03*
X420189Y779961D03*
X438150Y762000D03*
D25*
X273050Y723900D03*
X374650Y723900D03*
X273050Y768350D03*
X374650Y768350D03*
D18*
X717550Y730250D03*
X615950Y730250D03*
D26*
X520700Y635762D02*
X520700Y621538D01*
X546100Y621538D02*
X546100Y635762D01*
X571500Y635762D02*
X571500Y621538D01*
X520700Y445262D02*
X520700Y431038D01*
X546100Y431038D02*
X546100Y445262D01*
X571500Y445262D02*
X571500Y431038D01*
D27*
X654050Y457200D03*
D28*
X450850Y342900D03*
X654050Y533400D03*
X368300Y184150D03*
X368300Y203200D03*
X368300Y222250D03*
X368300Y260350D03*
X368300Y279400D03*
X368300Y298450D03*
X368300Y336550D03*
X368300Y355600D03*
X133350Y266700D03*
X400050Y342900D03*
X393700Y393700D03*
X355600Y431800D03*
X19050Y590550D03*
X44450Y590550D03*
X50800Y317500D03*
X133350Y317500D03*
X266700Y171450D03*
X266700Y107950D03*
X215900Y127000D03*
X419100Y107950D03*
X431800Y107950D03*
X444500Y107950D03*
X463550Y76200D03*
X730250Y266700D03*
X730250Y292100D03*
X781050Y266700D03*
X781050Y292100D03*
X368300Y241300D03*
X400050Y165100D03*
X450850Y165100D03*
X450850Y215900D03*
X400050Y215900D03*
X787400Y419100D03*
X806450Y419100D03*
X787400Y368300D03*
X806450Y368300D03*
X838200Y298450D03*
X876300Y311150D03*
X876300Y266700D03*
X838200Y279400D03*
X787400Y209550D03*
X806450Y209550D03*
X806450Y469900D03*
X787400Y469900D03*
X787400Y165100D03*
X806450Y165100D03*
X171450Y266700D03*
X787400Y114300D03*
X806450Y114300D03*
X171450Y317500D03*
X247650Y292100D03*
X247650Y304800D03*
X222250Y317500D03*
X209550Y317500D03*
X304800Y171450D03*
X304800Y107950D03*
X628650Y495300D03*
X660400Y495300D03*
X749300Y508000D03*
X749300Y482600D03*
X844550Y565150D03*
X882650Y533400D03*
X717550Y749300D03*
X654050Y628650D03*
X76200Y165100D03*
X368300Y165100D03*
X234950Y317500D03*
X368300Y317500D03*
X368300Y419100D03*
X381000Y406400D03*
X342900Y444500D03*
X400050Y317500D03*
X654050Y673100D03*
X717550Y711200D03*
X876300Y419100D03*
X876300Y368300D03*
X876300Y215900D03*
X876300Y165100D03*
X876300Y114300D03*
X876300Y469900D03*
X406400Y596900D03*
X387350Y577850D03*
X361950Y552450D03*
X425450Y615950D03*
X457200Y603250D03*
X482600Y628650D03*
X317500Y508000D03*
X317500Y533400D03*
X317500Y558800D03*
X317500Y577850D03*
X355600Y609600D03*
X69850Y381000D03*
X69850Y355600D03*
X69850Y330200D03*
X69850Y304800D03*
X69850Y279400D03*
X69850Y254000D03*
X317500Y355600D03*
X317500Y330200D03*
X317500Y304800D03*
X317500Y279400D03*
X317500Y254000D03*
X31750Y495300D03*
X76200Y127000D03*
X31750Y393700D03*
M02*
