G04 EAGLE Gerber RS-274X export*
G75*
%MOMM*%
%FSLAX34Y34*%
%LPD*%
%INSoldermask Bottom*%
%IPPOS*%
%AMOC8*
5,1,8,0,0,1.08239X$1,22.5*%
G01*
%ADD10C,4.203200*%
%ADD11C,1.511200*%
%ADD12P,1.649562X8X22.500000*%
%ADD13C,2.603200*%
%ADD14C,1.851700*%
%ADD15C,1.611200*%
%ADD16C,1.403200*%
%ADD17P,2.034460X8X22.500000*%
%ADD18C,2.082800*%
%ADD19P,1.649562X8X247.500000*%
%ADD20P,1.649562X8X67.500000*%
%ADD21C,2.082800*%
%ADD22C,2.603200*%
%ADD23C,1.511200*%
%ADD24P,2.034460X8X202.500000*%
%ADD25C,1.625600*%
%ADD26P,2.556822X8X22.500000*%
%ADD27P,1.649562X8X202.500000*%
%ADD28P,1.038661X8X22.500000*%
%ADD29C,0.959600*%


D10*
X63500Y762000D03*
X889000Y762000D03*
X889000Y63500D03*
X63500Y63500D03*
D11*
X678710Y457200D02*
X691790Y457200D01*
X717710Y469900D02*
X730790Y469900D01*
X691790Y482600D02*
X678710Y482600D01*
X717710Y495300D02*
X730790Y495300D01*
X691790Y508000D02*
X678710Y508000D01*
X717710Y520700D02*
X730790Y520700D01*
X691790Y533400D02*
X678710Y533400D01*
D12*
X463550Y520700D03*
X590550Y520700D03*
X463550Y558800D03*
X590550Y558800D03*
D13*
X864300Y444900D02*
X888300Y444900D01*
X888300Y494900D02*
X864300Y494900D01*
X864300Y343300D02*
X888300Y343300D01*
X888300Y393300D02*
X864300Y393300D01*
D14*
X433693Y393700D02*
X417208Y393700D01*
X417208Y368300D02*
X433693Y368300D01*
X433693Y342900D02*
X417208Y342900D01*
X417208Y317500D02*
X433693Y317500D01*
X433693Y292100D02*
X417208Y292100D01*
X417208Y266700D02*
X433693Y266700D01*
X433693Y241300D02*
X417208Y241300D01*
X417208Y215900D02*
X433693Y215900D01*
X433693Y190500D02*
X417208Y190500D01*
X417208Y165100D02*
X433693Y165100D01*
X747408Y215900D02*
X763893Y215900D01*
X763893Y241300D02*
X747408Y241300D01*
X747408Y266700D02*
X763893Y266700D01*
X763893Y292100D02*
X747408Y292100D01*
X747408Y317500D02*
X763893Y317500D01*
X763893Y342900D02*
X747408Y342900D01*
X747408Y368300D02*
X763893Y368300D01*
X763893Y393700D02*
X747408Y393700D01*
D15*
X266700Y647700D03*
X266700Y622300D03*
X266700Y596900D03*
X266700Y571500D03*
X266700Y546100D03*
X266700Y520700D03*
X266700Y495300D03*
X266700Y469900D03*
X266700Y444500D03*
X266700Y419100D03*
X266700Y393700D03*
X266700Y368300D03*
X266700Y342900D03*
X266700Y317500D03*
X266700Y292100D03*
X266700Y266700D03*
X266700Y241300D03*
X114300Y647700D03*
X114300Y622300D03*
X114300Y596900D03*
X114300Y571500D03*
X114300Y546100D03*
X114300Y520700D03*
X114300Y495300D03*
X114300Y469900D03*
X114300Y444500D03*
X114300Y419100D03*
X114300Y393700D03*
X114300Y368300D03*
X114300Y342900D03*
X114300Y317500D03*
X114300Y292100D03*
X114300Y266700D03*
X114300Y241300D03*
D16*
X266700Y673100D03*
X114300Y673100D03*
X266700Y215900D03*
X114300Y215900D03*
D12*
X463550Y482600D03*
X590550Y482600D03*
X463550Y596900D03*
X590550Y596900D03*
D13*
X864300Y241700D02*
X888300Y241700D01*
X888300Y291700D02*
X864300Y291700D01*
X864300Y140100D02*
X888300Y140100D01*
X888300Y190100D02*
X864300Y190100D01*
D17*
X184150Y184150D03*
X285750Y184150D03*
D18*
X41148Y571500D02*
X22352Y571500D01*
X22352Y546100D02*
X41148Y546100D01*
X41148Y520700D02*
X22352Y520700D01*
X298450Y79248D02*
X298450Y60452D01*
X273050Y60452D02*
X273050Y79248D01*
X342900Y79248D02*
X342900Y60452D01*
X368300Y60452D02*
X368300Y79248D01*
X419100Y79248D02*
X419100Y60452D01*
X444500Y60452D02*
X444500Y79248D01*
X41148Y469900D02*
X22352Y469900D01*
X22352Y444500D02*
X41148Y444500D01*
X41148Y419100D02*
X22352Y419100D01*
D19*
X444951Y476701D03*
X355149Y386899D03*
D20*
X348799Y456749D03*
X438601Y546551D03*
D21*
X800100Y82550D03*
D22*
X730250Y717550D03*
X692150Y717550D03*
X615950Y717550D03*
X577850Y717550D03*
D21*
X297180Y241300D03*
X299720Y266700D03*
X297180Y292100D03*
X299720Y317500D03*
X297180Y342900D03*
X299720Y368300D03*
X297180Y393700D03*
X299720Y419100D03*
X297180Y444500D03*
X299720Y469900D03*
X297180Y495300D03*
X299720Y520700D03*
X297180Y546100D03*
X299720Y571500D03*
X297180Y596900D03*
X299720Y622300D03*
X297180Y647700D03*
X81280Y495300D03*
X83820Y520700D03*
X81280Y546100D03*
X83820Y571500D03*
X81280Y596900D03*
X83820Y622300D03*
X81280Y647700D03*
X81280Y241300D03*
X83820Y266700D03*
X81280Y292100D03*
X83820Y317500D03*
X81280Y342900D03*
X83820Y368300D03*
X81280Y393700D03*
X83820Y419100D03*
X81280Y444500D03*
X83820Y469900D03*
D23*
X474071Y726079D03*
X460601Y748530D03*
X420189Y779961D03*
X438150Y762000D03*
D17*
X273050Y723900D03*
X374650Y723900D03*
X273050Y768350D03*
X374650Y768350D03*
D24*
X717550Y781050D03*
X615950Y781050D03*
D25*
X520700Y661162D02*
X520700Y646938D01*
X546100Y646938D02*
X546100Y661162D01*
X571500Y661162D02*
X571500Y646938D01*
X520700Y445262D02*
X520700Y431038D01*
X546100Y431038D02*
X546100Y445262D01*
X571500Y445262D02*
X571500Y431038D01*
D26*
X133350Y88900D03*
X209550Y88900D03*
D21*
X158750Y88900D03*
X184150Y88900D03*
D27*
X69850Y152400D03*
X44450Y152400D03*
X44450Y127000D03*
X120650Y184150D03*
X44450Y184150D03*
D28*
X654050Y457200D03*
D29*
X450850Y342900D03*
X654050Y533400D03*
X368300Y184150D03*
X368300Y203200D03*
X368300Y222250D03*
X368300Y260350D03*
X368300Y279400D03*
X368300Y298450D03*
X368300Y336550D03*
X368300Y355600D03*
X127000Y254000D03*
X400050Y342900D03*
X393700Y393700D03*
X355600Y431800D03*
X19050Y590550D03*
X44450Y590550D03*
X63500Y330200D03*
X127000Y323850D03*
X266700Y184150D03*
X288925Y114300D03*
X209550Y133350D03*
X419100Y107950D03*
X431800Y107950D03*
X444500Y107950D03*
X498475Y76200D03*
X730250Y266700D03*
X730250Y292100D03*
X781050Y266700D03*
X781050Y292100D03*
X368300Y241300D03*
X400050Y165100D03*
X450850Y165100D03*
X450850Y215900D03*
X400050Y215900D03*
X787400Y419100D03*
X806450Y419100D03*
X787400Y368300D03*
X806450Y368300D03*
X838200Y298450D03*
X876300Y311150D03*
X876300Y266700D03*
X838200Y279400D03*
X787400Y209550D03*
X806450Y209550D03*
X806450Y469900D03*
X787400Y469900D03*
X787400Y165100D03*
X806450Y165100D03*
X142875Y387350D03*
X787400Y114300D03*
X806450Y114300D03*
X196850Y387350D03*
X247650Y285750D03*
X247650Y304800D03*
X215900Y317500D03*
X196850Y317500D03*
X304800Y184150D03*
X161925Y193675D03*
X628650Y495300D03*
X660400Y495300D03*
X749300Y508000D03*
X749300Y482600D03*
X844550Y565150D03*
X882650Y533400D03*
X717550Y800100D03*
X654050Y692150D03*
X196850Y266700D03*
X368300Y165100D03*
X234950Y317500D03*
X368300Y317500D03*
X368300Y419100D03*
X381000Y406400D03*
X342900Y444500D03*
X400050Y317500D03*
X654050Y742950D03*
X717550Y762000D03*
X876300Y419100D03*
X876300Y368300D03*
X876300Y215900D03*
X876300Y165100D03*
X876300Y114300D03*
X876300Y469900D03*
X406400Y596900D03*
X387350Y577850D03*
X365125Y555625D03*
X425450Y615950D03*
X438150Y628650D03*
X457200Y647700D03*
X317500Y508000D03*
X317500Y533400D03*
X317500Y558800D03*
X336550Y581025D03*
X358775Y606425D03*
X63500Y406400D03*
X63500Y381000D03*
X63500Y355600D03*
X63500Y304800D03*
X63500Y279400D03*
X63500Y254000D03*
X317500Y355600D03*
X317500Y330200D03*
X317500Y304800D03*
X317500Y279400D03*
X317500Y254000D03*
X31750Y495300D03*
X196850Y200025D03*
X31750Y393700D03*
X546100Y615950D03*
X596900Y615950D03*
X539750Y463550D03*
X596900Y463550D03*
X139700Y152400D03*
X254000Y609600D03*
X234950Y577850D03*
X215900Y552450D03*
X228600Y692150D03*
X209550Y711200D03*
X187325Y733425D03*
X254000Y654050D03*
X165100Y266700D03*
X165100Y457200D03*
M02*
